<svg
      width="523"
      height="528"
      viewBox="0 0 523 528"
      fill="none"
      xmlns="http://www.w3.org/2000/svg"
      data-ember-extension="1"
    >
      <link xmlns="" type="text/css" id="dark-mode" rel="stylesheet" href="" />
      <style xmlns="" type="text/css" id="dark-mode-custom-style" />
      <path
        d="M258.523 0.662561C130.326 -3.25339 19.2823 92.9228 2.50373 219.115C-15.8389 357.089 85.1186 481.232 209.345 501.116C363.862 525.848 513.731 382.769 500.276 227.556C490.137 110.615 388.837 4.64004 258.523 0.662561Z"
        fill="#F4F7FA"
      />
      <path
        d="M313.41 494.428C310.043 493.293 307.034 491.285 304.687 488.606C302.34 485.927 300.739 482.672 300.045 479.171L290.112 429.742L205.139 432.775L194.682 484.269C193.217 491.482 199.079 498.716 205.841 501.371L241.392 515.357C247.997 517.957 255.108 518.994 262.176 518.387L337.308 511.925C338.377 511.825 339.379 511.358 340.145 510.602C340.911 509.846 341.394 508.848 341.513 507.775C341.769 505.548 343.313 503.047 341.212 502.346L313.41 494.428Z"
        fill="#97A6B7"
      />
      <path
        d="M314.244 491.422C310.895 490.318 307.895 488.343 305.55 485.697C303.205 483.05 301.598 479.828 300.893 476.355L290.97 427.549L208.067 430.547L197.628 481.397C196.919 484.845 197.449 488.434 199.125 491.526C200.801 494.618 203.514 497.012 206.78 498.282L242.296 512.091C248.901 514.659 256.002 515.682 263.059 515.082L338.114 508.702C339.179 508.611 340.179 508.153 340.946 507.406C341.714 506.659 342.2 505.668 342.324 504.601C342.448 503.535 342.201 502.458 341.625 501.553C341.05 500.648 340.181 499.972 339.166 499.637L314.244 491.422Z"
        fill="url(#paint0_linear_2712_71387)"
      />
      <path
        d="M31.5073 462.595C22.2918 463.147 14.7539 457.137 14.7539 449.193V162.921C14.7539 154.979 22.2918 148.846 31.5073 149.248L459.495 179.038C466.259 179.333 469.89 173.84 469.89 180.596V424.067C469.89 430.822 464.413 436.647 457.651 437.053L31.5073 462.595Z"
        fill="#97A6B7"
      />
      <path
        d="M35.3373 462.595C26.1219 463.147 18.584 457.137 18.584 449.193V162.921C18.584 154.979 26.1219 148.846 35.3373 149.248L461.484 167.811C468.248 168.106 473.724 173.84 473.724 180.596V424.067C473.724 430.822 468.245 436.647 461.484 437.053L35.3373 462.595Z"
        fill="white"
      />
      <g style="mix-blend-mode:multiply" opacity="0.3">
        <path
          d="M461.484 173.544L35.3373 155.916C30.411 155.712 26.4062 158.993 26.4062 163.225V448.763C26.4062 453.004 30.411 456.211 35.3373 455.927L461.484 431.316C465.109 431.106 468.041 427.999 468.041 424.375V180.375C468.041 176.75 465.109 173.692 461.484 173.544Z"
          fill="#D8DEE8"
        />
      </g>
      <path
        d="M458.317 410.721L39.956 431.485C35.5643 431.702 31.9951 428.783 31.9951 424.97V166.977C31.9951 163.158 35.5643 160.196 39.956 160.359L458.317 175.972C459.906 176.04 461.408 176.72 462.514 177.87C463.619 179.02 464.243 180.553 464.256 182.152V404.469C464.238 406.074 463.615 407.612 462.513 408.773C461.41 409.933 459.91 410.63 458.317 410.721Z"
        fill="url(#paint1_linear_2712_71387)"
      />
      <g style="mix-blend-mode:soft-light" opacity="0.6">
        <path d="M144.323 187.604L48.7773 184.779V175.621L144.323 178.728V187.604Z" fill="white" />
      </g>
      <g style="mix-blend-mode:soft-light" opacity="0.36">
        <path d="M189.316 186.403L167.246 185.731V179.474L189.316 180.19V186.403Z" fill="white" />
      </g>
      <g style="mix-blend-mode:soft-light" opacity="0.36">
        <path d="M189.316 195.031L167.246 194.425V188.167L189.316 188.82V195.031Z" fill="white" />
      </g>
      <path
        d="M299.309 198.058L213.681 195.702V189.542L299.309 192.078V198.058Z"
        fill="url(#paint2_linear_2712_71387)"
      />
      <path
        opacity="0.5"
        d="M313.35 206.713L228.573 204.627V198.498L313.35 200.762V206.713Z"
        fill="url(#paint3_linear_2712_71387)"
      />
      <path
        opacity="0.5"
        d="M313.35 214.983L228.573 213.143V207.014L313.35 209.032V214.983Z"
        fill="url(#paint4_linear_2712_71387)"
      />
      <g style="mix-blend-mode:soft-light" opacity="0.6">
        <path d="M313.35 223.251L228.573 221.659V215.53L313.35 217.301V223.251Z" fill="white" />
      </g>
      <g style="mix-blend-mode:soft-light" opacity="0.36">
        <path d="M189.316 203.661L167.246 203.118V196.86L189.316 197.45V203.661Z" fill="white" />
      </g>
      <g style="mix-blend-mode:soft-light" opacity="0.36">
        <path d="M189.316 212.291L167.246 211.811V205.555L189.316 206.08V212.291Z" fill="white" />
      </g>
      <g style="mix-blend-mode:soft-light" opacity="0.36">
        <path d="M189.316 220.921L167.246 220.506V214.249L189.316 214.71V220.921Z" fill="white" />
      </g>
      <g style="mix-blend-mode:soft-light" opacity="0.36">
        <path d="M189.316 229.55L167.246 229.199V222.942L189.316 223.338V229.55Z" fill="white" />
      </g>
      <g style="mix-blend-mode:soft-light" opacity="0.6">
        <path d="M248.461 230.49L194.133 229.627V223.425L248.461 224.402V230.49Z" fill="white" />
      </g>
      <g style="mix-blend-mode:soft-light" opacity="0.36">
        <path d="M189.316 238.179L167.246 237.893V231.635L189.316 231.968V238.179Z" fill="white" />
      </g>
      <g style="mix-blend-mode:soft-light" opacity="0.36">
        <path d="M189.316 246.809L167.246 246.586V240.33L189.316 240.598V246.809Z" fill="white" />
      </g>
      <g style="mix-blend-mode:soft-light" opacity="0.36">
        <path d="M189.316 255.439L167.246 255.281V249.023L189.316 249.228V255.439Z" fill="white" />
      </g>
      <path
        opacity="0.5"
        d="M273.914 239.279L213.681 238.495V232.335L273.914 233.244V239.279Z"
        fill="url(#paint5_linear_2712_71387)"
      />
      <g style="mix-blend-mode:soft-light" opacity="0.6">
        <path d="M305.207 247.978L228.573 247.205V241.076L305.207 242.01V247.978Z" fill="white" />
      </g>
      <path
        d="M305.207 256.269L228.573 255.721V249.592L305.207 250.301V256.269Z"
        fill="url(#paint6_linear_2712_71387)"
      />
      <g style="mix-blend-mode:soft-light" opacity="0.36">
        <path d="M189.316 264.068L167.246 263.974V257.717L189.316 257.858V264.068Z" fill="white" />
      </g>
      <g style="mix-blend-mode:soft-light" opacity="0.36">
        <path d="M189.316 272.698L167.246 272.668V266.41L189.316 266.488V272.698Z" fill="white" />
      </g>
      <g style="mix-blend-mode:soft-light" opacity="0.36">
        <path d="M189.316 281.328L167.246 281.363V275.105L189.316 275.116V281.328Z" fill="white" />
      </g>
      <g style="mix-blend-mode:soft-light" opacity="0.36">
        <path d="M189.316 289.958L167.246 290.056V283.798L189.316 283.746V289.958Z" fill="white" />
      </g>
      <g style="mix-blend-mode:soft-light" opacity="0.36">
        <path d="M189.316 298.586L167.246 298.749V292.492L189.316 292.376V298.586Z" fill="white" />
      </g>
      <g style="mix-blend-mode:soft-light" opacity="0.36">
        <path d="M189.316 307.216L167.246 307.443V301.187L189.316 301.006V307.216Z" fill="white" />
      </g>
      <g style="mix-blend-mode:soft-light" opacity="0.36">
        <path d="M189.316 315.846L167.246 316.138V309.88L189.316 309.636V315.846Z" fill="white" />
      </g>
      <g style="mix-blend-mode:soft-light" opacity="0.36">
        <path d="M189.316 324.476L167.246 324.831V318.573L189.316 318.264V324.476Z" fill="white" />
      </g>
      <g style="mix-blend-mode:soft-light" opacity="0.36">
        <path d="M189.316 333.106L167.246 333.524V327.267L189.316 326.894V333.106Z" fill="white" />
      </g>
      <g style="mix-blend-mode:soft-light" opacity="0.36">
        <path d="M189.316 341.734L167.246 342.219V335.962L189.316 335.524V341.734Z" fill="white" />
      </g>
      <g style="mix-blend-mode:soft-light" opacity="0.36">
        <path d="M189.316 350.364L167.246 350.913V344.655L189.316 344.154V350.364Z" fill="white" />
      </g>
      <g style="mix-blend-mode:soft-light" opacity="0.36">
        <path d="M189.316 358.994L167.246 359.606V353.348L189.316 352.784V358.994Z" fill="white" />
      </g>
      <g style="mix-blend-mode:soft-light" opacity="0.36">
        <path d="M189.316 367.624L167.246 368.299V362.042L189.316 361.414V367.624Z" fill="white" />
      </g>
      <g style="mix-blend-mode:soft-light" opacity="0.36">
        <path d="M189.316 376.254L167.246 376.994V370.737L189.316 370.042V376.254Z" fill="white" />
      </g>
      <g style="mix-blend-mode:soft-light" opacity="0.36">
        <path d="M189.316 384.884L167.246 385.687V379.43L189.316 378.672V384.884Z" fill="white" />
      </g>
      <g style="mix-blend-mode:soft-light" opacity="0.36">
        <path d="M189.316 393.512L167.246 394.381V388.123L189.316 387.302V393.512Z" fill="white" />
      </g>
      <g style="mix-blend-mode:soft-light" opacity="0.36">
        <path d="M189.316 402.142L167.246 403.074V396.818L189.316 395.932V402.142Z" fill="white" />
      </g>
      <g style="mix-blend-mode:soft-light" opacity="0.36">
        <path d="M189.316 410.772L167.246 411.769V405.511L189.316 404.561V410.772Z" fill="white" />
      </g>
      <path
        opacity="0.5"
        d="M254.179 188.375L193.983 186.544V180.342L254.179 182.3V188.375Z"
        fill="url(#paint7_linear_2712_71387)"
      />
      <g style="mix-blend-mode:soft-light" opacity="0.6">
        <path d="M299.309 364.256L213.681 366.879V360.719L299.309 358.276V364.256Z" fill="white" />
      </g>
      <path
        opacity="0.5"
        d="M313.35 372.096L228.573 374.938V368.809L313.35 366.144V372.096Z"
        fill="url(#paint8_linear_2712_71387)"
      />
      <path
        opacity="0.5"
        d="M313.35 380.365L228.573 383.453V377.324L313.35 374.414V380.365Z"
        fill="url(#paint9_linear_2712_71387)"
      />
      <path
        opacity="0.5"
        d="M349.882 387.197L267.302 390.445V384.397L349.882 381.321V387.197Z"
        fill="url(#paint10_linear_2712_71387)"
      />
      <path
        d="M349.882 395.36L267.302 398.849V392.801L349.882 389.484V395.36Z"
        fill="url(#paint11_linear_2712_71387)"
      />
      <g style="mix-blend-mode:soft-light" opacity="0.6">
        <path d="M349.882 403.523L267.302 407.25V401.203L349.882 397.647V403.523Z" fill="white" />
      </g>
      <path
        opacity="0.5"
        d="M254.179 357.197L193.983 358.866V352.664L254.179 351.122V357.197Z"
        fill="url(#paint12_linear_2712_71387)"
      />
      <path
        opacity="0.5"
        d="M299.309 272.847L213.681 272.731V266.571L299.309 266.866V272.847Z"
        fill="url(#paint13_linear_2712_71387)"
      />
      <g style="mix-blend-mode:soft-light" opacity="0.6">
        <path d="M313.35 281.137L228.573 281.267V275.138L313.35 275.185V281.137Z" fill="white" />
      </g>
      <path
        opacity="0.5"
        d="M313.35 289.405L228.573 289.783V283.654L313.35 283.453V289.405Z"
        fill="url(#paint14_linear_2712_71387)"
      />
      <path
        opacity="0.5"
        d="M313.35 297.674L228.573 298.299V292.17L313.35 291.723V297.674Z"
        fill="url(#paint15_linear_2712_71387)"
      />
      <path
        opacity="0.5"
        d="M248.461 306.61L194.133 307.167V300.966L248.461 300.523V306.61Z"
        fill="url(#paint16_linear_2712_71387)"
      />
      <g style="mix-blend-mode:soft-light" opacity="0.6">
        <path d="M273.914 314.732L213.681 315.526V309.364L273.914 308.698V314.732Z" fill="white" />
      </g>
      <path
        d="M305.207 322.612L228.573 323.845V317.716L305.207 316.644V322.612Z"
        fill="url(#paint17_linear_2712_71387)"
      />
      <path
        opacity="0.5"
        d="M305.207 330.906L228.573 332.361V326.232L305.207 324.936V330.906Z"
        fill="url(#paint18_linear_2712_71387)"
      />
      <path
        opacity="0.5"
        d="M322.197 338.826L246.484 340.484V334.393L322.197 332.893V338.826Z"
        fill="url(#paint19_linear_2712_71387)"
      />
      <path
        opacity="0.5"
        d="M322.197 347.069L246.484 348.947V342.854L322.197 341.135V347.069Z"
        fill="url(#paint20_linear_2712_71387)"
      />
      <path
        d="M254.179 264.345L193.983 264.088V257.887L254.179 258.27V264.345Z"
        fill="url(#paint21_linear_2712_71387)"
      />
      <g style="mix-blend-mode:soft-light">
        <path d="M144.323 201.476L89.6348 200.11V191.071L144.323 192.599V201.476Z" fill="white" />
      </g>
      <g style="mix-blend-mode:soft-light" opacity="0.6">
        <path d="M75.4893 199.757L85.79 200.014V190.965L75.4893 190.677V199.757Z" fill="white" />
      </g>
      <g style="mix-blend-mode:soft-light" opacity="0.6">
        <path d="M144.323 214.236L89.6348 213.103V204.064L144.323 205.36V214.236Z" fill="white" />
      </g>
      <g style="mix-blend-mode:soft-light" opacity="0.6">
        <path d="M75.4893 212.81L85.79 213.023V203.974L75.4893 203.729V212.81Z" fill="white" />
      </g>
      <g style="mix-blend-mode:soft-light" opacity="0.6">
        <path d="M144.323 226.997L89.6348 226.096V217.057L144.323 218.121V226.997Z" fill="white" />
      </g>
      <g style="mix-blend-mode:soft-light" opacity="0.6">
        <path d="M75.4893 225.863L85.79 226.033V216.983L75.4893 216.782V225.863Z" fill="white" />
      </g>
      <g style="mix-blend-mode:soft-light">
        <path d="M144.323 317.578L48.7773 318.874V309.715L144.323 308.7V317.578Z" fill="white" />
      </g>
      <g style="mix-blend-mode:soft-light" opacity="0.6">
        <path d="M144.323 331.449L89.6348 332.442V323.403L144.323 322.573V331.449Z" fill="white" />
      </g>
      <g style="mix-blend-mode:soft-light" opacity="0.6">
        <path d="M75.4893 332.699L85.79 332.511V323.461L75.4893 323.618V332.699Z" fill="white" />
      </g>
      <g style="mix-blend-mode:soft-light" opacity="0.6">
        <path d="M144.323 344.21L89.6348 345.435V336.396L144.323 335.332V344.21Z" fill="white" />
      </g>
      <g style="mix-blend-mode:soft-light" opacity="0.6">
        <path d="M75.4893 345.752L85.79 345.52V336.47L75.4893 336.671V345.752Z" fill="white" />
      </g>
      <g style="mix-blend-mode:soft-light" opacity="0.6">
        <path d="M144.323 356.971L89.6348 358.426V349.389L144.323 348.093V356.971Z" fill="white" />
      </g>
      <g style="mix-blend-mode:soft-light" opacity="0.6">
        <path d="M75.4893 358.804L85.79 358.529V349.479L75.4893 349.724V358.804Z" fill="white" />
      </g>
      <g style="mix-blend-mode:soft-light">
        <path d="M144.323 239.845L48.7773 238.676V229.518L144.323 230.967V239.845Z" fill="white" />
      </g>
      <g style="mix-blend-mode:soft-light" opacity="0.6">
        <path d="M144.323 253.716L89.6348 253.298V244.261L144.323 244.838V253.716Z" fill="white" />
      </g>
      <g style="mix-blend-mode:soft-light" opacity="0.6">
        <path d="M75.4893 253.189L85.79 253.269V244.219L75.4893 244.11V253.189Z" fill="white" />
      </g>
      <g style="mix-blend-mode:soft-light" opacity="0.6">
        <path d="M144.323 266.477L89.6348 266.291V257.252L144.323 257.599V266.477Z" fill="white" />
      </g>
      <g style="mix-blend-mode:soft-light" opacity="0.6">
        <path d="M75.4893 266.242L85.79 266.278V257.228L75.4893 257.163V266.242Z" fill="white" />
      </g>
      <g style="mix-blend-mode:soft-light" opacity="0.6">
        <path d="M144.323 292.164L89.6348 292.445V283.406L144.323 283.286V292.164Z" fill="white" />
      </g>
      <g style="mix-blend-mode:soft-light" opacity="0.6">
        <path d="M75.4893 292.517L85.79 292.465V283.415L75.4893 283.437V292.517Z" fill="white" />
      </g>
      <g style="mix-blend-mode:soft-light" opacity="0.6">
        <path d="M144.323 304.925L89.6348 305.437V296.399L144.323 296.048V304.925Z" fill="white" />
      </g>
      <g style="mix-blend-mode:soft-light" opacity="0.6">
        <path d="M75.4893 305.57L85.79 305.474V296.424L75.4893 296.489V305.57Z" fill="white" />
      </g>
      <g style="mix-blend-mode:soft-light" opacity="0.6">
        <path d="M144.323 279.238L89.6348 279.283V270.245L144.323 270.36V279.238Z" fill="white" />
      </g>
      <g style="mix-blend-mode:soft-light" opacity="0.6">
        <path d="M75.4893 279.294L85.79 279.287V270.237L75.4893 270.216V279.294Z" fill="white" />
      </g>
      <g style="mix-blend-mode:soft-light">
        <path d="M144.323 369.727L48.7773 372.676V363.516L144.323 360.851V369.727Z" fill="white" />
      </g>
      <g style="mix-blend-mode:soft-light" opacity="0.6">
        <path d="M144.323 383.597L89.6348 385.537V376.498L144.323 374.721V383.597Z" fill="white" />
      </g>
      <g style="mix-blend-mode:soft-light" opacity="0.6">
        <path d="M75.4893 386.038L85.79 385.673V376.623L75.4893 376.96V386.038Z" fill="white" />
      </g>
      <g style="mix-blend-mode:soft-light" opacity="0.6">
        <path d="M144.323 396.359L89.6348 398.53V389.491L144.323 387.483V396.359Z" fill="white" />
      </g>
      <g style="mix-blend-mode:soft-light" opacity="0.6">
        <path d="M75.4893 399.091L85.79 398.682V389.632L75.4893 390.011V399.091Z" fill="white" />
      </g>
      <g style="mix-blend-mode:soft-light" opacity="0.6">
        <path d="M144.323 409.12L89.6348 411.523V402.484L144.323 400.242V409.12Z" fill="white" />
      </g>
      <g style="mix-blend-mode:soft-light" opacity="0.6">
        <path d="M75.4893 412.144L85.79 411.691V402.641L75.4893 403.063V412.144Z" fill="white" />
      </g>
      <g style="mix-blend-mode:soft-light" opacity="0.6">
        <path d="M155.931 408.655L153.827 408.747V179.038L155.931 179.106V408.655Z" fill="white" />
      </g>
      <g style="mix-blend-mode:soft-light" opacity="0.6">
        <path
          d="M416.996 419.333C324.23 421.284 303.368 434.601 277.008 418.644C240.787 396.719 257.283 357.715 221.993 337.257C177.633 311.536 126.475 358.641 103.319 335.683C80.259 312.806 123.816 258.978 98.6034 198.977C88.4826 174.899 71.2451 159.261 59.3479 150.299L35.3373 149.253C26.1219 148.852 18.584 154.984 18.584 162.929V449.206C18.584 457.15 26.1219 463.16 35.3373 462.608L461.484 437.065C468.248 436.66 473.724 430.837 473.724 424.08V419.739C460.955 419.286 441.171 418.825 416.996 419.333Z"
          fill="white"
        />
      </g>
      <path
        d="M405.382 224.393C428.188 245.191 457.231 250.681 471.857 237.464H471.868L471.923 237.399C472.528 236.86 473.103 236.289 473.648 235.689C474.331 234.93 474.967 234.13 475.554 233.293L493.239 213.27L496.913 209.108L470.438 185.7C466.338 179.343 461.429 173.553 455.834 168.477C449.247 162.473 442.141 157.748 435.017 154.373L408.515 130.949L387.804 156.932C387.728 157.017 387.644 157.094 387.568 157.18C386.794 158.031 386.084 158.938 385.442 159.894C384.427 161.4 383.573 163.009 382.896 164.697C376.267 181.115 385.039 205.834 405.382 224.393Z"
        fill="url(#paint22_linear_2712_71387)"
      />
      <path
        style="mix-blend-mode:multiply"
        opacity="0.3"
        d="M405.218 224.574C411.38 230.463 418.357 235.432 425.943 238.808C433.721 242.265 444.704 245.413 453.302 244.688C467.607 243.484 474.36 234.373 483.101 224.58C486.47 220.807 490.088 217.243 493.254 213.291C484.947 212.227 474.166 214.96 466.376 217.716C459.644 220.095 453.237 223.972 446.102 225.037C430.371 227.39 413.567 217.573 405.7 204.118C400.892 195.898 402.806 185.23 396.632 177.615C392.642 172.693 386.47 170 382.89 164.709C383.531 165.657 381.297 172.384 381.137 173.815C380.762 177.101 380.8 180.421 381.25 183.697C382.319 191.359 385.57 198.588 389.589 205.125C393.954 212.25 399.206 218.786 405.218 224.574Z"
        fill="url(#paint23_linear_2712_71387)"
      />
      <path
        d="M388.055 112.917L479.991 133.599L519.542 219.565L522.08 221.623L521.196 222.725L425.607 201.245L384.509 111.86L385.393 110.758L388.055 112.917Z"
        fill="url(#paint24_linear_2712_71387)"
      />
      <path
        d="M481.208 132.082L522.344 221.496L426.721 199.985L385.585 110.572L481.208 132.082Z"
        fill="url(#paint25_linear_2712_71387)"
      />
      <path
        d="M485.103 265.923C485.453 265.977 485.811 265.895 486.103 265.693C486.396 265.492 486.601 265.186 486.677 264.838L497.057 217.294C497.098 217.105 497.1 216.91 497.063 216.72C497.025 216.531 496.949 216.351 496.84 216.192L457.373 159.295C457.269 159.144 457.135 159.015 456.981 158.916C456.827 158.817 456.655 158.749 456.475 158.717C456.295 158.685 456.11 158.689 455.931 158.728C455.752 158.768 455.583 158.842 455.433 158.947C455.283 159.053 455.155 159.187 455.056 159.342C454.958 159.497 454.891 159.67 454.858 159.851C454.826 160.032 454.83 160.218 454.869 160.397C454.909 160.577 454.983 160.747 455.088 160.898L494.203 217.294L483.954 264.239C483.875 264.601 483.943 264.981 484.142 265.293C484.341 265.606 484.655 265.827 485.016 265.907L485.103 265.923Z"
        fill="url(#paint26_linear_2712_71387)"
      />
      <path
        d="M488.294 263.676L487.458 261.821C487.302 261.475 487.057 261.178 486.747 260.961C486.437 260.744 486.074 260.615 485.698 260.588C485.321 260.561 484.944 260.636 484.606 260.806C484.269 260.976 483.983 261.235 483.779 261.555L482.786 263.323C482.514 263.746 482.478 264.242 482.426 264.745L481.069 280.241C481.04 280.574 482.307 280.965 484.071 281.113C485.835 281.261 487.149 281.113 487.179 280.78L488.538 265.241C488.593 264.707 488.509 264.167 488.294 263.676Z"
        fill="url(#paint27_linear_2712_71387)"
      />
      <path
        d="M391.309 338.578C386.915 333.861 399.081 316.139 405.591 308.374C411.28 301.59 417.126 294.622 424.31 295.501C430.609 296.276 436.745 302.96 437.114 309.364C438.099 326.588 397.556 345.274 391.309 338.578Z"
        fill="url(#paint28_linear_2712_71387)"
      />
      <path
        d="M444.07 520.668C444.898 521.345 445.049 523.034 445.15 524.136C445.195 524.63 445.217 524.876 445.163 525.049C444.763 526.316 442.314 526.454 438.473 526.848C432.402 527.473 430.595 527.952 430.119 527.044C429.673 526.193 430.751 524.8 430.874 524.646C431.525 523.819 432.326 523.519 433.874 523.006C436.738 522.058 438.672 521.539 439.259 521.378C442.917 520.401 443.527 520.225 444.07 520.668Z"
        fill="url(#paint29_linear_2712_71387)"
      />
      <path
        d="M440.46 515.093L439.854 522.047C440.034 522.384 442.082 523.392 443.714 522.527L445.277 515.69L440.46 515.093Z"
        fill="#D8DEE8"
      />
      <path
        d="M395.924 519.775C396.915 520.877 397.142 522.903 396.284 523.9C395.425 524.898 394.161 524.147 390.547 524.262C386.678 524.378 385.666 525.297 383.036 524.568C381.973 524.273 380.095 523.557 380.131 522.793C380.157 522.25 381.112 521.98 384.303 520.906C388.834 519.378 388.814 519.295 389.775 519.136C392.189 518.725 394.615 518.321 395.924 519.775Z"
        fill="url(#paint30_linear_2712_71387)"
      />
      <path
        d="M393.439 513.426L391.499 519.921C391.645 520.269 393.619 521.43 395.313 520.694L398.193 514.393L393.439 513.426Z"
        fill="#D8DEE8"
      />
      <path
        d="M410.695 371.218C410.382 395.641 408.608 420.024 405.382 444.233C402.189 468.183 397.58 491.919 391.578 515.317L399.008 517.328C405.293 511.436 413.227 502.162 417.047 489.055C419.421 480.912 418.63 476.741 420.135 466.735C422.534 450.811 427.391 442.458 432.412 429.612C436.923 418.068 442.256 401.125 445.114 378.48L410.695 371.218Z"
        fill="url(#paint31_linear_2712_71387)"
      />
      <path
        d="M433.055 369.135C434.573 396.889 435.808 425.155 436.762 453.931C437.472 475.525 437.997 496.839 438.339 517.871L445.931 518.814C449.408 512.323 452.068 505.422 453.851 498.271C456.55 487.379 455.928 480.91 457.112 469.622C458.442 456.955 460.373 454.202 463.793 438.229C470.737 405.814 474.209 389.605 466.464 379.524C463.946 376.25 456.064 368.04 433.055 369.135Z"
        fill="url(#paint32_linear_2712_71387)"
      />
      <path
        d="M469.935 299.383C461.697 297.053 453.231 295.634 444.686 295.148C429.517 294.287 421.932 293.856 416.558 297.488C404.138 305.875 413.753 325.236 408.672 373.232C407.952 380.085 407.783 386.985 407.258 393.861C406.388 405.24 406.19 405.859 406.977 407.012C411.916 414.25 430.339 403.336 457.343 407.647C472.453 410.059 479.302 415.609 483.441 411.608C488.269 406.934 484.129 394.361 480.562 383.539C476.471 371.115 473.943 370.956 471.62 361.6C469.194 351.828 470.66 346.785 471.038 331.365C471.294 320.692 470.925 310.013 469.935 299.383Z"
        fill="url(#paint33_linear_2712_71387)"
      />
      <g style="mix-blend-mode:multiply" opacity="0.3">
        <path
          style="mix-blend-mode:multiply"
          d="M433.217 389.486C440.276 388.93 444.855 392.942 450.946 389.815C459.301 385.528 461.984 372.188 461.453 362.747C460.644 348.404 452.497 344.622 453.894 335.35C454.653 330.336 458.214 323.678 470.993 316.878C471.164 322.601 471.132 327.48 471.036 331.354C470.658 346.774 469.191 351.803 471.617 361.589C473.941 370.945 476.477 371.104 480.559 383.529C484.125 394.35 488.265 406.923 483.439 411.597C479.299 415.605 472.447 410.048 457.341 407.636C434.074 403.921 417.185 411.496 409.795 409.038C418.726 394.209 426.825 389.987 433.217 389.486Z"
          fill="url(#paint34_linear_2712_71387)"
        />
      </g>
      <path
        d="M460.305 300.367C465.345 296.205 475.482 300.91 478.193 302.177C493.301 309.203 506.867 328.137 503.506 348.14C503.002 351.141 500.664 365.178 488.843 371.98C478.175 378.116 463.77 376.538 452.231 367.847L447.499 363.625L442.843 358.558C446.503 355.491 450.714 353.157 455.248 351.682C462.921 349.192 468.507 353.659 472.068 350.263C474.524 347.91 474.53 343.779 473.923 341.271C472.701 336.204 468.266 334.791 464.564 331.202C455.872 322.791 454.276 305.352 460.305 300.367Z"
        fill="url(#paint35_linear_2712_71387)"
      />
      <path
        d="M387.865 365.691L455.431 364.676L437.465 373.395L387.692 370.12L387.865 365.691Z"
        fill="url(#paint36_linear_2712_71387)"
      />
      <path
        d="M457.816 366.482C457.816 367.103 457.626 367.708 457.271 368.216C456.917 368.725 456.416 369.111 455.836 369.323L434.238 377.828L434.139 371.929L455.422 364.673C455.701 364.59 455.996 364.575 456.282 364.627C456.568 364.679 456.838 364.798 457.071 364.974C457.303 365.15 457.492 365.377 457.621 365.639C457.75 365.901 457.817 366.19 457.816 366.482Z"
        fill="url(#paint37_linear_2712_71387)"
      />
      <path
        d="M447.411 362.465C447.826 362.371 445.391 357.494 443.48 358.057C441.568 358.62 432.22 364.066 431.37 366.308L430.521 368.552C430.521 368.552 434.599 368.873 437.128 368.01C439.657 367.146 444.039 363.218 447.411 362.465Z"
        fill="white"
      />
      <path
        d="M432.355 330.542L437.117 374.139C437.283 375.642 435.188 377.883 433.685 377.812L363.819 373.503C363.261 373.477 362.73 373.26 362.312 372.888C361.894 372.517 361.615 372.013 361.52 371.46L352.751 329.349C352.488 327.817 355.229 326.235 356.774 326.273L429.99 328.343C430.582 328.36 431.148 328.592 431.583 328.996C432.017 329.401 432.292 329.95 432.355 330.542Z"
        fill="url(#paint38_linear_2712_71387)"
      />
      <path
        d="M430.759 331.812L435.521 375.409C435.56 375.763 435.522 376.121 435.41 376.459C435.298 376.796 435.115 377.105 434.872 377.365C434.63 377.624 434.334 377.828 434.006 377.961C433.678 378.095 433.325 378.155 432.971 378.138L362.221 374.77C361.664 374.744 361.133 374.527 360.715 374.155C360.297 373.784 360.018 373.28 359.924 372.727L352.696 330.435C352.634 330.076 352.653 329.707 352.75 329.356C352.847 329.005 353.021 328.68 353.258 328.404C353.496 328.129 353.791 327.91 354.123 327.763C354.455 327.616 354.815 327.546 355.178 327.556L428.394 329.626C428.984 329.643 429.548 329.873 429.983 330.275C430.417 330.677 430.693 331.223 430.759 331.812Z"
        fill="url(#paint39_linear_2712_71387)"
      />
      <path
        style="mix-blend-mode:multiply"
        opacity="0.3"
        d="M389.215 364.555C395.392 361.922 393.213 356.902 400.508 350.648C410.13 342.395 419.946 345.974 423.366 339.579C424.435 337.589 424.947 334.487 423.084 329.469L428.386 329.619C428.977 329.636 429.542 329.867 429.977 330.271C430.412 330.674 430.687 331.221 430.751 331.812L435.514 375.409C435.552 375.763 435.514 376.121 435.402 376.458C435.29 376.796 435.106 377.105 434.864 377.364C434.621 377.624 434.326 377.827 433.998 377.961C433.67 378.094 433.317 378.155 432.963 378.138L362.22 374.77C361.663 374.744 361.132 374.527 360.714 374.155C360.297 373.784 360.018 373.28 359.924 372.727L358.925 366.891C361.329 365.533 363.929 364.556 366.63 363.996C377.01 361.871 382.1 367.586 389.215 364.555Z"
        fill="url(#paint40_linear_2712_71387)"
      />
      <path
        d="M357.764 368.674C357.739 368.593 357.732 368.507 357.744 368.423C357.757 368.339 357.788 368.259 357.836 368.19C357.884 368.12 357.947 368.062 358.021 368.02C358.094 367.979 358.176 367.955 358.261 367.95C359.756 367.874 363.223 367.843 365.138 369.021C367.625 370.554 370.842 373.348 368.133 374.757L365.604 376.075C365.491 376.136 365.359 376.154 365.233 376.126C364.333 375.928 360.554 375.085 360.14 374.875C359.764 374.674 358.322 370.373 357.764 368.674Z"
        fill="white"
      />
      <path
        d="M443.554 278.48C443.513 282.024 443.828 285.562 444.493 289.043C445.033 291.857 445.427 292.584 445.933 293.174C446.685 294.061 447.826 294.803 454.272 296.413C457.778 297.287 458.232 297.264 458.307 297.613C458.685 299.319 449.128 305.137 439.243 303.735C433.195 302.877 427.695 299.41 428.031 297.582C428.368 295.754 434.412 296.733 436.212 293.42C437.472 291.115 436.061 287.839 434.401 285.127C436.003 282.101 441.946 281.507 443.554 278.48Z"
        fill="white"
      />
      <path
        d="M432.332 280.268C430.904 278.362 430.816 275.035 432.461 272.932C433.876 271.122 436.102 270.863 437.436 270.708C441.299 270.261 446.173 271.882 447.875 275.456C448.88 277.573 446.707 281.971 446.367 282.767C445.98 283.661 445.287 283.968 444.636 284.645C443.736 285.583 442.339 287.076 440.049 289.569C439.833 288.667 439.539 287.785 439.171 286.934C438.694 285.828 438.077 284.787 437.337 283.838C435.318 281.37 433.685 282.074 432.332 280.268Z"
        fill="url(#paint41_linear_2712_71387)"
      />
      <path
        d="M443.307 287.472C443.307 287.472 440.767 291.661 435.712 291.33C431.185 291.033 430.521 280.834 433.413 278.663C434.378 277.939 436.309 277.64 437.88 278.082C438.807 278.344 439.122 278.732 440.647 279.13C442.053 279.492 442.447 279.34 442.873 279.698C443.404 280.148 443.793 281.249 442.908 284.233C443.771 283.353 444.808 283.017 445.543 283.364C445.794 283.502 446.003 283.707 446.146 283.956C446.777 285.119 445.719 286.609 443.307 287.472Z"
        fill="white"
      />
      <path
        d="M443.078 279.086C442.86 279.249 443.528 280.069 443.577 281.227C443.674 283.478 441.417 286.178 439.099 286.406C437.733 286.542 437.356 285.715 435.098 285.474C433.996 285.36 432.884 285.425 431.804 285.666C431.095 288.132 431.762 290.593 433.402 291.735C435.17 292.964 437.425 292.218 438.368 291.905C439 291.697 441.021 291.033 442.078 289.169C443.179 287.228 442.097 286.057 443.361 284.741C443.998 284.079 444.835 283.793 445.65 282.51C445.826 282.234 445.979 281.945 446.109 281.645C444.941 280.4 443.395 278.849 443.078 279.086Z"
        fill="url(#paint42_linear_2712_71387)"
      />
      <path
        d="M433.448 286.58C433.448 286.58 434.425 287.094 436.115 286.998C436.198 286.998 436.295 287.018 436.295 287.061C436.333 287.222 435.249 287.944 434.25 287.662C433.541 287.461 432.991 286.786 433.086 286.614C433.129 286.542 433.291 286.553 433.448 286.58Z"
        fill="white"
      />
      <path
        d="M79.9617 304.502C78.7612 304.958 60.4527 312.283 56.6891 331.49C56.385 333.043 53.4493 349.548 64.5781 361.207C77.0621 374.283 101.101 373.96 110.644 363.028C112.869 360.48 114.043 357.655 114.701 355.281L112.181 348.565C109.122 344.841 104.937 343.958 102.705 343.406C97.2064 342.044 93.0541 344.507 89.9043 341.839C88.162 340.364 87.8164 338.242 87.5068 336.345C86.4521 329.885 90.0789 325.909 90.3435 321.925C90.5414 318.946 91.5782 312.421 87.712 308.172C85.2678 305.472 81.8786 304.739 79.9617 304.502Z"
        fill="url(#paint43_linear_2712_71387)"
      />
      <path
        d="M72.827 518.607C72.6146 517.424 68.815 516.354 66.9341 517.938C66 518.725 65.3574 520.319 65.8974 521.039C66.0936 521.302 65.289 521.763 66.0594 521.763C68.6188 521.801 73.0393 519.782 72.827 518.607Z"
        fill="url(#paint44_linear_2712_71387)"
      />
      <path
        d="M68.846 519.038L64.9385 518.482C66.7492 516.291 66.4144 509.313 66.4144 509.313L70.5685 510.247C70.5685 510.247 70.0952 512.162 69.2906 514.986C69.0152 515.955 68.891 517.467 68.846 519.038Z"
        fill="url(#paint45_linear_2712_71387)"
      />
      <path
        d="M69.1935 518.553C69.1935 518.553 64.4886 517.467 63.9738 518.403C63.459 519.338 63.0739 521.852 66.0527 521.771C69.0315 521.689 69.4599 519.357 69.1935 518.553Z"
        fill="url(#paint46_linear_2712_71387)"
      />
      <path
        d="M126.436 523.043C126.059 521.901 122.15 521.376 120.507 523.209C119.693 524.114 119.277 525.788 119.913 526.425C120.143 526.656 119.411 527.226 120.176 527.127C122.713 526.798 126.81 524.175 126.436 523.043Z"
        fill="url(#paint47_linear_2712_71387)"
      />
      <path
        d="M122.556 524.029H118.607C120.094 521.604 118.787 514.742 118.787 514.742L123.032 515.082C123.032 515.082 122.83 517.044 122.425 519.956C122.29 520.951 122.376 522.467 122.556 524.029Z"
        fill="url(#paint48_linear_2712_71387)"
      />
      <path
        d="M132.78 374.01C135.551 383.218 137.597 392.631 138.9 402.162C143.693 437.214 133.5 438.332 135.408 477.173C136.014 489.571 124.724 518.16 123.728 518.794C123.21 518.847 122.689 518.868 122.168 518.855C120.819 518.808 119.482 518.584 118.19 518.189C116.403 517.878 109.954 500.318 111.45 489.878C112.506 482.488 112.2 474.558 111.586 458.697C111.487 456.128 104.947 408.696 104.947 408.696C102.967 426.249 100.67 441.17 98.6866 452.735C92.3186 489.891 71.5911 512.382 70.5111 512.742C70.2969 512.829 68.3513 513.539 66.7638 512.485C66.3537 512.224 66.0251 511.852 65.8152 511.412C65.2609 510.974 65.979 474.316 72.2948 446.723C81.4742 406.675 77.4731 397.305 80.3799 379.417C82.898 363.938 132.78 374.01 132.78 374.01Z"
        fill="url(#paint49_linear_2712_71387)"
      />
      <path
        d="M135.237 380.06C129.727 382.902 115.54 387.995 98.6305 385.465C92.3965 384.524 86.361 382.55 80.7702 379.622C80.6388 379.555 80.5056 379.49 80.3797 379.423C84.7732 366.068 81.3318 358.922 79.7065 352.335C77.3882 342.945 77.3558 343.649 75.4462 336.192C72.3018 323.886 71.787 311.301 73.9468 308.731C79.7731 301.791 90.2754 301.54 95.7255 301.373C101.816 301.192 115.819 299.035 123.527 306.009C123.66 306.129 122.087 306.977 122.861 307.895C124.915 310.336 126.737 312.966 128.302 315.75C129.922 318.666 131.401 322.066 132.881 327.127C134.76 333.603 135.971 340.257 136.493 346.982C136.572 348.079 136.645 349.139 136.711 350.163C137.733 366.627 136.432 374.562 135.237 380.06Z"
        fill="url(#paint50_linear_2712_71387)"
      />
      <path
        d="M122.828 523.5C122.828 523.5 118.019 523.084 117.646 524.085C117.273 525.086 117.232 527.628 120.166 527.127C123.1 526.626 123.202 524.251 122.828 523.5Z"
        fill="url(#paint51_linear_2712_71387)"
      />
      <path
        d="M113.253 293.548C114.914 290.217 113.82 286.621 113.577 285.845C112.555 282.588 112.227 282.114 111.566 281.457L110.641 280.601L110.524 280.528C109.896 280.156 107.608 279.64 107.122 279.649C105.571 279.68 102.815 285.472 101.611 294.184C101.485 294.5 101.363 294.821 101.24 295.143C100.483 297.153 99.8509 299.124 99.3217 301.037C88.9418 302.665 87.5775 303.992 87.5811 304.706C87.5811 306.212 93.6575 307.524 98.177 307.868C108.037 308.619 117.889 305.334 117.715 303.499C117.641 302.705 115.629 301.802 107.275 301.295C107.373 299.906 107.47 298.518 107.569 297.133C108.235 296.927 112.031 296.002 113.253 293.548Z"
        fill="url(#paint52_linear_2712_71387)"
      />
      <path
        d="M114.198 278.75C113.676 281.421 111.876 284.03 111.149 284.359C110.716 284.584 110.323 284.878 109.984 285.23C109.902 285.316 109.83 285.412 109.772 285.516C108.872 287.086 111.149 289.585 110.492 290.239C110.013 290.715 108.344 289.631 108.038 290.058C107.732 290.485 109.077 291.676 108.746 292.162C108.494 292.524 107.639 291.981 106.946 292.486C106.597 292.736 106.634 292.997 106.147 293.874C105.893 294.338 105.598 294.778 105.265 295.188C104.044 296.58 101.334 296.646 100.945 295.923C100.839 295.72 100.986 295.597 100.958 294.982C100.921 294.548 100.825 294.122 100.673 293.715C100.313 292.712 99.1325 291.817 98.004 290.613C95.9161 288.386 95.5435 286.759 95.4427 286.214C95.4067 286.021 95.3887 285.876 95.3761 285.773C95.1241 283.681 95.6767 280.787 96.8988 279.179C98.9453 276.486 102.002 278.547 105.294 276.122C109.089 273.326 108.112 268.306 109.916 268.124C111.903 267.925 115.162 273.813 114.198 278.75Z"
        fill="#26264F"
      />
      <path
        d="M109.655 289.432C109.176 288.406 107.869 289.028 107.639 290.192C107.409 291.355 108.3 292.783 109.439 292.763C110.578 292.743 110.299 290.805 109.655 289.432Z"
        fill="url(#paint53_linear_2712_71387)"
      />
      <path
        d="M82.3235 371.151H82.2857C82.1931 371.139 82.1086 371.092 82.0501 371.018C81.9917 370.945 81.9639 370.852 81.9725 370.758C82.6925 364.278 81.3516 359.564 80.1727 355.406C79.8829 354.389 79.6021 353.399 79.3627 352.424C78.0506 347.105 77.4764 345.049 76.8681 342.873C76.4667 341.445 76.0599 339.977 75.4282 337.52C75.4061 337.428 75.4202 337.332 75.4676 337.251C75.5149 337.17 75.5918 337.111 75.6819 337.085C75.727 337.073 75.7741 337.07 75.8204 337.076C75.8667 337.082 75.9113 337.097 75.9516 337.121C75.9919 337.145 76.027 337.177 76.0549 337.214C76.0828 337.252 76.1028 337.295 76.1139 337.341C76.7493 339.794 77.1578 341.255 77.5538 342.681C78.164 344.852 78.7382 346.922 80.0521 352.252C80.2915 353.22 80.5704 354.201 80.8566 355.21C82.0535 359.432 83.4107 364.218 82.6781 370.836C82.6668 370.923 82.6247 371.002 82.5595 371.06C82.4943 371.118 82.4105 371.15 82.3235 371.151Z"
        fill="url(#paint54_linear_2712_71387)"
      />
      <path
        style="mix-blend-mode:multiply"
        opacity="0.3"
        d="M135.237 380.06C129.727 382.902 115.541 387.995 98.6308 385.465C92.3967 384.524 86.3613 382.55 80.7705 379.622C82.7324 378.087 85.1496 375.518 89.1454 371.147C93.9871 365.862 99.6603 367.834 103.005 369.826C104.185 370.527 105.528 370.906 106.899 370.925C108.27 370.944 109.622 370.603 110.822 369.936C112.022 369.269 113.028 368.298 113.74 367.12C114.452 365.942 114.847 364.598 114.884 363.22C114.915 361.745 114.855 360.27 114.704 358.802C113.563 346.776 130.134 345.753 130.134 345.753C132.474 344.532 134.692 346.504 136.713 350.163C137.733 366.627 136.432 374.562 135.237 380.06Z"
        fill="url(#paint55_linear_2712_71387)"
      />
      <path
        d="M193.17 326.487C192.504 326.55 191.696 327.23 191.129 327.553C190.322 328.012 189.509 328.457 188.69 328.895C187.102 329.726 185.421 330.343 183.607 330.309C183.662 330.045 183.744 329.787 183.85 329.539C184.156 328.816 184.57 328.191 184.32 327.974C183.974 327.659 182.45 328.309 181.044 329.664C180.437 330.242 179.913 330.901 179.487 331.624C178.767 332.853 178.891 333.524 178.292 334.462C177.392 335.267 176.73 335.442 176.73 335.442V335.699L176.83 336.014C176.1 336.547 175.288 336.955 174.426 337.225C175.668 337.56 176.881 337.902 178.117 338.244L178.976 339.691C178.976 339.691 183.656 338.705 186.483 336.977C187.804 336.168 188.26 335.167 188.371 334.34C188.456 333.775 188.394 333.198 188.191 332.665C188.191 332.665 192.049 331.052 193.573 327.569C193.798 327.04 193.82 326.423 193.17 326.487Z"
        fill="url(#paint56_linear_2712_71387)"
      />
      <path
        d="M176.828 333.995C179.029 335.544 180.212 337.648 180.824 338.991C179.204 342.813 175.532 349.908 167.931 355.136C155.467 363.71 137.193 364.003 124.462 354.231C109.255 342.549 106.713 320.149 113.101 310.557C113.837 309.451 116.255 305.821 120.007 305.405C122.378 305.143 125.603 306.129 130.7 312.124C141.32 324.626 137.569 332.431 143.84 336.088C153.253 341.564 167.235 327.245 176.828 333.995Z"
        fill="url(#paint57_linear_2712_71387)"
      />
      <path
        d="M334.823 94.1026C330.919 92.9553 325.703 100.163 321.365 106.153C314.886 115.117 307.295 125.589 309.337 138.164C311.347 150.535 321.896 160.171 324.902 158.794C327.474 157.616 322.53 149.295 326.318 138.164C329.378 129.183 334.438 129.18 337.838 120.376C342.048 109.455 339.623 95.5177 334.823 94.1026Z"
        fill="url(#paint58_linear_2712_71387)"
      />
      <path
        d="M332.891 151.092C312.785 156 299.541 163.879 291.807 169.45C287.615 172.471 285.688 174.354 284.633 177.099C278.677 192.747 309.277 216.404 312.531 218.881C313.957 215.542 315.381 212.203 316.804 208.863C313.642 191.415 308.379 185.941 303.973 184.313C302.742 183.856 300.672 183.37 300.711 182.783C300.807 181.397 312.43 183.372 323.537 179.285C334.619 175.212 345.743 164.903 343.763 158.086C343.403 156.841 341.878 153.245 332.891 151.092Z"
        fill="url(#paint59_linear_2712_71387)"
      />
      <path
        d="M313.395 265.456C313.395 265.456 315.266 266.128 315.274 267.615C315.281 269.103 313.377 275.659 311.314 277.988C309.251 280.317 309.062 276.842 309.19 274.604C309.318 272.365 309.86 267.355 310.371 266.385C310.882 265.415 313.395 265.456 313.395 265.456Z"
        fill="url(#paint60_linear_2712_71387)"
      />
      <path
        style="mix-blend-mode:multiply"
        opacity="0.3"
        d="M307.385 173.967C303.732 173.897 295.173 173.211 292.895 177.465C290.992 181.014 294.324 186.394 296.372 189.703C301.941 198.701 307.351 199.62 311.154 205.148C312.629 207.287 313.962 210.277 314.394 214.545L316.819 208.863C313.656 191.415 308.393 185.941 303.987 184.313C302.756 183.857 300.686 183.37 300.726 182.783C300.821 181.395 312.445 183.372 323.552 179.285C333.648 175.572 343.754 166.683 343.963 159.977C327.969 171.506 315.935 174.135 307.385 173.967Z"
        fill="url(#paint61_linear_2712_71387)"
      />
      <path
        d="M314.476 259.137C314.367 261.43 314.172 263.348 313.998 264.771C313.612 267.921 313.256 269.168 312.77 270.302C312.345 271.292 311.285 273.451 310.779 273.301C310.274 273.151 310.794 270.768 311.195 264.108C311.253 263.144 311.429 260.071 311.429 260.071L314.476 259.137Z"
        fill="url(#paint62_linear_2712_71387)"
      />
      <path
        d="M344.483 152.404C335.547 157.792 327.605 164.693 321.008 172.802C315.846 179.168 307.995 188.849 305.153 203.286C303.638 210.98 304.383 217.884 305.936 231.375C307.161 242.057 308.992 252.66 311.421 263.133L314.092 264.219C316.478 259.812 319.599 252.834 320.719 243.911C322.549 229.315 317.119 224.675 319.725 214.325C321.982 205.356 328.527 199.848 341.614 188.86C352.366 179.825 362.282 174.463 365.962 163.193C366.587 161.28 367.118 158.931 366.099 156.781C363.903 152.142 355.503 150.526 344.483 152.404Z"
        fill="url(#paint63_linear_2712_71387)"
      />
      <path
        d="M353.733 94.9422C350.727 94.2926 345.781 94.4211 341.067 90.6879C339.649 89.5641 334.62 85.5848 335.23 79.8882C335.77 74.8739 340.494 72.1794 341.074 71.8591C344.422 70.0079 347.757 70.4114 351.456 70.9271C356.254 71.5876 357.847 72.905 361.175 73.808C369.422 76.0429 372.21 71.3777 380.515 71.7722C391.134 72.2753 392.045 80.1542 400.974 80.3515C411 80.5723 412.92 70.7082 422.818 69.0379C436.555 66.718 457.34 81.5856 456.922 98.7261C456.679 108.626 449.348 119.972 439.983 123.378C434.524 125.369 428.633 124.732 426.952 128.302C425.755 130.835 428.446 132.799 428.192 137.223C427.865 142.929 422.973 146.932 422.19 147.578C414.866 153.58 398.447 150.549 387.234 142.057C367.023 126.742 370.083 98.4782 353.733 94.9422Z"
        fill="url(#paint64_linear_2712_71387)"
      />
      <path
        d="M376.958 92.9064C369.194 91.9442 361.382 91.4089 353.56 91.3031C335.116 91.0498 332.476 93.4023 331.799 95.1431C330.539 98.3877 332.699 100.013 331.473 105.671C330.741 109.053 331.432 110.595 330.017 114.231C328.637 117.772 329.718 119.676 330.939 127.984C332.499 138.606 333.219 144.004 330.264 148.285C328.21 151.26 325.912 151.512 326.124 152.925C326.592 155.936 336.945 154.275 350.063 160.055C353.857 161.729 357.35 163.79 360.279 165.518C367.138 169.568 368.407 171.115 371.582 172.95C381.627 178.741 396.716 179.309 404.624 172.293C407.573 169.678 409.722 165.833 408.764 164.427C407.447 162.511 401.565 166.863 396.156 164.208C392.576 162.449 393.256 159.603 389.118 156.246C384.138 152.21 380.675 154.324 377.286 151.698C371.998 147.603 374.406 137.797 375.887 121.357C376.733 111.898 377.091 102.402 376.958 92.9064Z"
        fill="url(#paint65_linear_2712_71387)"
      />
      <path
        d="M356.997 89.0882C359.517 90.6571 363.579 92.7074 364.027 93.2648C364.475 93.8221 351.709 96.0171 343.764 91.9872C343.764 91.9872 342.533 91.2995 347.322 90.3368C348.343 90.1324 348.143 88.1364 348.006 86.0716L348.964 84.2838C348.964 84.2838 354.482 87.5175 356.997 89.0882Z"
        fill="url(#paint66_linear_2712_71387)"
      />
      <path
        d="M350.653 83.0641C350.653 83.0641 351.639 87.2732 347.953 89.3524C344.652 91.2145 339.067 83.5798 340.109 80.7424C340.458 79.796 341.7 78.5709 343 78.1691C343.914 77.8814 347.372 77.9882 348.851 80.9197C349.24 80.0638 349.931 79.615 350.401 79.7562C350.993 79.9371 351.079 81.0229 351.099 81.2635C351.141 81.8958 350.985 82.5254 350.653 83.0641Z"
        fill="url(#paint67_linear_2712_71387)"
      />
      <path
        style="mix-blend-mode:multiply"
        opacity="0.3"
        d="M344.936 150.535C348.734 152.118 349.256 155.538 354.499 157.478C359.508 159.329 361.189 157.011 366.185 158.548C373.689 160.855 376.56 168.138 377.705 167.449C378.745 166.819 377.746 159.849 372.922 155.343C367.382 150.16 361.416 152.532 357.872 147.153C356.491 145.059 355.429 141.724 356.632 139.142C358.262 135.653 362.521 136.863 364.778 133.979C368.831 128.796 359.344 119.448 361.945 111.54C362.982 108.388 366.286 104.435 376.943 101.79C376.797 109.709 376.344 116.328 375.89 121.355C374.405 137.795 372.001 147.594 377.289 151.696C380.678 154.322 384.141 152.209 389.121 156.244C393.261 159.595 392.579 162.442 396.159 164.206C401.559 166.861 407.45 162.509 408.767 164.423C409.734 165.831 407.585 169.671 404.627 172.291C396.719 179.307 381.63 178.748 371.585 172.948C368.41 171.113 367.141 169.566 360.282 165.516C357.353 163.788 353.86 161.727 350.066 160.053C340.865 155.998 333.028 155.605 329.007 154.691C336.989 149.339 341.853 149.25 344.936 150.535Z"
        fill="url(#paint68_linear_2712_71387)"
      />
      <path
        d="M308.278 155.907L356.463 158.26C356.79 158.276 357.108 158.372 357.39 158.538C357.672 158.705 357.91 158.938 358.083 159.217L359.416 161.369C359.567 161.611 359.648 161.89 359.653 162.176C359.657 162.462 359.584 162.743 359.442 162.99C359.299 163.237 359.092 163.44 358.843 163.578C358.594 163.716 358.313 163.783 358.029 163.772L306.989 161.818L308.278 155.907Z"
        fill="url(#paint69_linear_2712_71387)"
      />
      <path
        d="M264.043 129.144L313.823 130.113C314.547 130.127 315.255 130.33 315.877 130.702C316.499 131.074 317.015 131.603 317.372 132.236L334.612 162.73L282.037 160.623C281.327 160.595 280.634 160.389 280.023 160.024C279.412 159.659 278.901 159.147 278.536 158.533L262.564 131.708C262.409 131.448 262.326 131.152 262.324 130.849C262.322 130.546 262.401 130.249 262.552 129.987C262.703 129.725 262.921 129.509 263.183 129.361C263.445 129.212 263.742 129.137 264.043 129.144Z"
        fill="url(#paint70_linear_2712_71387)"
      />
      <path
        style="mix-blend-mode:multiply"
        opacity="0.3"
        d="M317.373 132.236C317.015 131.603 316.5 131.074 315.877 130.702C315.255 130.33 314.547 130.127 313.823 130.113L312.732 130.092C312.57 131.708 312.077 133.186 311.093 134.379C308.033 138.103 302.925 135.806 299.123 139.748C294.948 144.078 298.805 149.234 295.072 153.264C291.143 157.505 284.789 154.053 277.483 156.767L278.536 158.533C278.901 159.147 279.412 159.659 280.023 160.024C280.635 160.389 281.327 160.595 282.037 160.623L334.612 162.73L317.373 132.236Z"
        fill="url(#paint71_linear_2712_71387)"
      />
      <path
        d="M348.568 155.933C348.026 154.485 347.486 153.043 346.948 151.608C352.949 149.954 361.25 147.509 369.762 144.451C371.866 143.696 372.642 142.719 373.198 141.968C377.563 136.148 366.455 125.883 366.655 112.56C366.792 103.331 372.361 92.7635 377.275 92.6441C387.248 92.3998 409.239 134.947 390.718 153.106C381.508 162.12 364.333 163.166 348.568 155.933Z"
        fill="url(#paint72_linear_2712_71387)"
      />
      <path
        d="M346.94 151.608C343.173 149.595 338.66 151.658 338.372 151.789C337.162 152.369 336.065 153.163 335.133 154.132C334.994 154.313 333.36 156.597 333.955 157.326C334.432 157.911 336.281 157.427 338.502 156.038C339.82 155.851 341.154 155.819 342.48 155.94C345.529 156.222 346.925 157.19 348.032 156.354C348.842 155.743 349.112 154.449 348.828 153.488C348.506 152.462 347.579 151.948 346.94 151.608Z"
        fill="url(#paint73_linear_2712_71387)"
      />
      <path
        d="M192.687 515.393C189.735 500.736 191.006 488.943 192.347 481.826C193.967 473.19 197.28 455.639 211.157 445.855C212.252 445.084 223.109 437.577 227.984 441.305C230.504 443.229 231.075 447.872 229.975 451.538C227.135 461.003 214.336 459.951 210.083 470.72C208.666 474.307 208.403 478.682 209.392 479.097C210.607 479.603 214.071 474.252 214.406 473.742C217.498 468.97 217.527 466.269 219.883 465.537C221.323 465.087 223.24 465.508 224.093 466.658C226.037 469.276 222.198 475.239 221.123 476.907C218.317 481.268 215.972 482.258 215.401 485.971C215.157 487.571 215.2 489.934 216.143 490.302C217.419 490.801 219.854 487.461 221.415 485.318C225.616 479.556 226.062 476.207 228.15 475.968C230.098 475.743 232.29 478.36 232.857 479.949C234.396 484.312 228.209 493.577 192.687 515.393Z"
        fill="url(#paint74_linear_2712_71387)"
      />
      <g style="mix-blend-mode:soft-light" opacity="0.28">
        <path
          d="M193.131 512.878C192.69 499.25 194.884 488.449 196.872 481.357C199.426 472.246 204.231 455.105 217.712 447.688C218.67 447.161 225.718 443.283 227.687 445.36C229.001 446.745 227.837 450.545 225.907 453.06C222.612 457.354 218.818 455.652 213.438 459.866C208.61 463.648 206.915 468.742 206.49 470.074C204.917 475.02 205.734 479.258 205.95 480.819C206.8 486.753 205.074 496.471 193.131 512.878Z"
          fill="white"
        />
      </g>
      <g style="mix-blend-mode:soft-light" opacity="0.28">
        <path
          d="M197.941 509.474C205.501 502.668 207.247 497.091 207.382 493.177C207.486 490.128 206.662 486.511 208.986 483.148C210.469 480.999 211.586 481.339 214.151 479.03C219.506 474.193 220.172 467.675 221.275 467.926C221.891 468.065 222.209 470.204 221.815 472.224C220.993 476.386 217.751 476.829 214.513 481.894C212.301 485.356 211.532 488.72 211.127 490.492C210.141 494.811 210.812 496.328 210.238 498.729C209.491 501.843 206.791 505.861 197.941 509.474Z"
          fill="white"
        />
      </g>
      <path
        d="M197.228 517.762C210.333 518.517 214.228 519.308 220.403 517.192C226.206 515.202 232.158 511.289 231.635 509.491C231.26 508.202 227.617 508.224 225.441 508.224C219.602 508.251 214.788 510.05 211.402 511.787L220.146 505.815C223.388 504.668 226.312 502.76 228.674 500.249C230.583 498.195 234.973 492.631 233.321 489.956C231.599 487.164 223.422 487.727 218.697 491.688C216.433 493.588 216.429 495.043 213.396 498.362C211.186 500.769 208.621 502.822 205.792 504.447C208.449 501.117 210.606 497.413 212.196 493.454C215.207 485.919 217.48 473.999 213.65 471.833C211.11 470.396 206.073 473.357 203.555 476.867C201.512 479.714 201.711 482.101 200.315 491.245C199.705 495.226 199.105 498.421 198.716 500.406C194.82 491.813 193.687 484.582 193.461 479.267C193.167 472.437 194.29 467.086 191.693 465.662C189.377 464.396 185.242 466.869 183.146 469.193C174.657 478.594 185.856 500.654 187.041 502.931C182.706 499.644 178.817 495.801 175.473 491.5C171.027 485.765 169.15 481.496 166.891 481.878C164.632 482.26 163.161 487.07 163.329 490.794C163.8 501.172 177.283 507.261 178.721 507.896C176.957 508.187 175.155 508.168 173.397 507.838C168.37 506.872 166.803 503.809 161.698 502.772C159.749 502.374 155.758 501.961 155.269 503.175C154.385 505.347 164.459 513.541 176.688 516.66C181.167 517.804 180.095 516.776 197.228 517.762Z"
        fill="url(#paint75_linear_2712_71387)"
      />
      <g style="mix-blend-mode:soft-light" opacity="0.28">
        <path
          d="M205.878 510.254C211.843 507.587 211.033 503.961 217.559 499.471C221.739 496.595 222.711 497.643 227.189 494.894C229.433 493.514 231.49 491.847 233.308 489.934C233.308 489.945 233.326 489.956 233.334 489.969C234.982 492.643 230.596 498.208 228.686 500.262C226.324 502.772 223.401 504.681 220.159 505.828L211.415 511.8C214.795 510.062 219.61 508.264 225.454 508.237C227.351 508.228 230.362 508.213 231.352 509.065C229.938 509.965 228.375 510.602 226.737 510.947C223.81 511.548 221.973 510.877 219.44 512.411C217.41 513.642 217.579 514.688 215.79 515.354C214.107 515.982 213.247 515.319 209.093 514.63C205.052 513.964 202.998 513.651 201.366 514.682C200.131 515.462 199.476 516.747 199.114 517.878L197.829 517.8C198.186 516.286 198.891 514.877 199.886 513.685C201.674 511.575 203.645 511.251 205.878 510.254Z"
          fill="white"
        />
      </g>
      <g style="mix-blend-mode:soft-light" opacity="0.28">
        <path
          d="M188.876 514.863C187.933 514.635 187.483 515.314 186.177 515.484C183.745 515.803 182.832 513.785 179.972 512.826C176.589 511.689 175.73 513.801 172.359 512.752C169.69 511.919 170.033 510.537 166.547 508.517C162.836 506.367 161.264 507.25 158.538 505.475C157.433 504.748 156.474 503.818 155.71 502.735C156.909 502.082 160.044 502.43 161.705 502.77C166.806 503.809 168.365 506.872 173.405 507.837C175.163 508.166 176.964 508.186 178.729 507.895C177.289 507.267 163.808 501.17 163.336 490.792C163.181 487.338 164.445 482.951 166.423 482.03C166.224 484.043 166.146 486.066 166.191 488.089C166.275 491.84 166.342 493.747 167.521 495.311C169.569 498.025 172.064 496.612 175.467 499.433C178.565 502.003 177.487 503.995 180.718 506.566C183.507 508.787 185.16 507.978 187.784 509.778C189.431 510.908 191.431 513.047 192.631 517.522C192.084 517.496 191.561 517.474 191.062 517.455C190.581 516.186 189.892 515.108 188.876 514.863Z"
          fill="white"
        />
      </g>
      <g style="mix-blend-mode:soft-light" opacity="0.28">
        <path
          d="M191.82 500.718C190.187 496.246 187.353 496.706 186.17 492.768C184.988 488.83 187.567 487.636 186.912 481.968C186.42 477.721 184.826 477.097 184.719 474.187C184.64 472.047 185.391 469.131 188.859 465.518C189.91 465.239 190.904 465.239 191.689 465.668C194.286 467.092 193.163 472.443 193.456 479.272C193.683 484.587 194.815 491.818 198.712 500.412C199.1 498.421 199.7 495.226 200.31 491.25C201.716 482.106 201.516 479.719 203.55 476.873C206.07 473.362 211.109 470.402 213.645 471.838C213.791 471.921 213.927 472.018 214.054 472.128C212.743 473.017 211.588 474.117 210.634 475.385C207.283 479.875 209.194 483.09 206.152 491.943C203.231 500.459 200.267 500.991 197.916 508.343C196.955 511.376 196.416 514.528 196.312 517.71C195.454 517.663 194.646 517.619 193.881 517.581C193.115 515.079 192.621 512.5 192.408 509.89C192.032 505.048 192.932 503.738 191.82 500.718Z"
          fill="white"
        />
      </g>
      <path
        d="M128.747 272.199C125.068 267.566 122.947 262.127 122.947 256.309C122.947 239.389 140.867 225.673 162.97 225.673C185.072 225.673 202.992 239.389 202.992 256.309C202.992 273.229 185.074 286.944 162.97 286.944C154.69 286.944 146.99 285.018 140.604 281.717C136.383 282.441 129.832 283.657 126.374 284.305C126.143 284.348 125.904 284.329 125.682 284.248C125.46 284.168 125.264 284.03 125.112 283.848C124.961 283.667 124.861 283.448 124.821 283.214C124.782 282.981 124.805 282.741 124.888 282.519L128.747 272.199Z"
        fill="url(#paint76_linear_2712_71387)"
      />
      <g style="mix-blend-mode:multiply" opacity="0.2">
        <path
          style="mix-blend-mode:multiply"
          d="M141.068 262.791C150.043 258.991 159.911 267.004 166.087 261.419C172.305 255.79 165.586 244.661 171.544 236.729C174.384 232.947 179.156 231.159 184.615 230.533C195.673 235.984 202.997 245.491 202.997 256.309C202.997 273.229 185.079 286.943 162.975 286.943C154.695 286.943 146.995 285.018 140.609 281.717C137.28 282.289 132.499 283.165 128.932 283.829C131.556 270.111 136.398 264.765 141.068 262.791Z"
          fill="url(#paint77_linear_2712_71387)"
        />
      </g>
      <path
        d="M187.425 244.954H137.82C136.999 244.954 136.333 245.623 136.333 246.448V246.682C136.333 247.507 136.999 248.177 137.82 248.177H187.425C188.246 248.177 188.911 247.507 188.911 246.682V246.448C188.911 245.623 188.246 244.954 187.425 244.954Z"
        fill="white"
      />
      <path
        d="M187.425 253.978H137.82C136.999 253.978 136.333 254.647 136.333 255.473V255.706C136.333 256.532 136.999 257.201 137.82 257.201H187.425C188.246 257.201 188.911 256.532 188.911 255.706V255.473C188.911 254.647 188.246 253.978 187.425 253.978Z"
        fill="white"
      />
      <path
        d="M162.376 263.003H137.863C137.018 263.003 136.333 263.691 136.333 264.541V264.687C136.333 265.537 137.018 266.225 137.863 266.225H162.376C163.221 266.225 163.906 265.537 163.906 264.687V264.541C163.906 263.691 163.221 263.003 162.376 263.003Z"
        fill="white"
      />
      <defs>
        <linearGradient
          id="paint0_linear_2712_71387"
          x1="268.785"
          y1="584.221"
          x2="270.022"
          y2="479.67"
          gradientUnits="userSpaceOnUse"
        >
          <stop offset="0.49" stop-color="#EBEFF2" />
          <stop offset="1" stop-color="white" />
        </linearGradient>
        <linearGradient
          id="paint1_linear_2712_71387"
          x1="217.362"
          y1="246.814"
          x2="420.449"
          y2="617.302"
          gradientUnits="userSpaceOnUse"
        >
          <stop stop-color="#444B8C" />
          <stop offset="1" stop-color="#26264F" />
        </linearGradient>
        <linearGradient
          id="paint2_linear_2712_71387"
          x1="247.382"
          y1="138.043"
          x2="283.917"
          y2="359.541"
          gradientUnits="userSpaceOnUse"
        >
          <stop stop-color="#E38DDD" />
          <stop offset="1" stop-color="#9571F6" />
        </linearGradient>
        <linearGradient
          id="paint3_linear_2712_71387"
          x1="228.573"
          y1="202.606"
          x2="313.35"
          y2="202.606"
          gradientUnits="userSpaceOnUse"
        >
          <stop stop-color="#FF9085" />
          <stop offset="1" stop-color="#FB6FBB" />
        </linearGradient>
        <linearGradient
          id="paint4_linear_2712_71387"
          x1="228.573"
          y1="210.999"
          x2="313.35"
          y2="210.999"
          gradientUnits="userSpaceOnUse"
        >
          <stop stop-color="#FF9085" />
          <stop offset="1" stop-color="#FB6FBB" />
        </linearGradient>
        <linearGradient
          id="paint5_linear_2712_71387"
          x1="213.681"
          y1="235.806"
          x2="273.914"
          y2="235.806"
          gradientUnits="userSpaceOnUse"
        >
          <stop stop-color="#FF9085" />
          <stop offset="1" stop-color="#FB6FBB" />
        </linearGradient>
        <linearGradient
          id="paint6_linear_2712_71387"
          x1="248.152"
          y1="138.177"
          x2="281.581"
          y2="340.844"
          gradientUnits="userSpaceOnUse"
        >
          <stop stop-color="#E38DDD" />
          <stop offset="1" stop-color="#9571F6" />
        </linearGradient>
        <linearGradient
          id="paint7_linear_2712_71387"
          x1="193.983"
          y1="184.36"
          x2="254.179"
          y2="184.36"
          gradientUnits="userSpaceOnUse"
        >
          <stop stop-color="#FF9085" />
          <stop offset="1" stop-color="#FB6FBB" />
        </linearGradient>
        <linearGradient
          id="paint8_linear_2712_71387"
          x1="228.573"
          y1="370.541"
          x2="313.35"
          y2="370.541"
          gradientUnits="userSpaceOnUse"
        >
          <stop stop-color="#FF9085" />
          <stop offset="1" stop-color="#FB6FBB" />
        </linearGradient>
        <linearGradient
          id="paint9_linear_2712_71387"
          x1="228.573"
          y1="378.932"
          x2="313.35"
          y2="378.932"
          gradientUnits="userSpaceOnUse"
        >
          <stop stop-color="#FF9085" />
          <stop offset="1" stop-color="#FB6FBB" />
        </linearGradient>
        <linearGradient
          id="paint10_linear_2712_71387"
          x1="267.302"
          y1="385.883"
          x2="349.882"
          y2="385.883"
          gradientUnits="userSpaceOnUse"
        >
          <stop stop-color="#FF9085" />
          <stop offset="1" stop-color="#FB6FBB" />
        </linearGradient>
        <linearGradient
          id="paint11_linear_2712_71387"
          x1="273.859"
          y1="181.316"
          x2="299.97"
          y2="339.619"
          gradientUnits="userSpaceOnUse"
        >
          <stop stop-color="#E38DDD" />
          <stop offset="1" stop-color="#9571F6" />
        </linearGradient>
        <linearGradient
          id="paint12_linear_2712_71387"
          x1="193.983"
          y1="354.993"
          x2="254.179"
          y2="354.993"
          gradientUnits="userSpaceOnUse"
        >
          <stop stop-color="#FF9085" />
          <stop offset="1" stop-color="#FB6FBB" />
        </linearGradient>
        <linearGradient
          id="paint13_linear_2712_71387"
          x1="213.681"
          y1="269.709"
          x2="299.309"
          y2="269.709"
          gradientUnits="userSpaceOnUse"
        >
          <stop stop-color="#FF9085" />
          <stop offset="1" stop-color="#FB6FBB" />
        </linearGradient>
        <linearGradient
          id="paint14_linear_2712_71387"
          x1="228.573"
          y1="286.618"
          x2="313.35"
          y2="286.618"
          gradientUnits="userSpaceOnUse"
        >
          <stop stop-color="#FF9085" />
          <stop offset="1" stop-color="#FB6FBB" />
        </linearGradient>
        <linearGradient
          id="paint15_linear_2712_71387"
          x1="228.573"
          y1="295.011"
          x2="313.35"
          y2="295.011"
          gradientUnits="userSpaceOnUse"
        >
          <stop stop-color="#FF9085" />
          <stop offset="1" stop-color="#FB6FBB" />
        </linearGradient>
        <linearGradient
          id="paint16_linear_2712_71387"
          x1="194.133"
          y1="303.845"
          x2="248.461"
          y2="303.845"
          gradientUnits="userSpaceOnUse"
        >
          <stop stop-color="#FF9085" />
          <stop offset="1" stop-color="#FB6FBB" />
        </linearGradient>
        <linearGradient
          id="paint17_linear_2712_71387"
          x1="239.369"
          y1="151.595"
          x2="269.716"
          y2="335.568"
          gradientUnits="userSpaceOnUse"
        >
          <stop stop-color="#E38DDD" />
          <stop offset="1" stop-color="#9571F6" />
        </linearGradient>
        <linearGradient
          id="paint18_linear_2712_71387"
          x1="228.573"
          y1="328.647"
          x2="305.207"
          y2="328.647"
          gradientUnits="userSpaceOnUse"
        >
          <stop stop-color="#FF9085" />
          <stop offset="1" stop-color="#FB6FBB" />
        </linearGradient>
        <linearGradient
          id="paint19_linear_2712_71387"
          x1="246.484"
          y1="336.687"
          x2="322.197"
          y2="336.687"
          gradientUnits="userSpaceOnUse"
        >
          <stop stop-color="#FF9085" />
          <stop offset="1" stop-color="#FB6FBB" />
        </linearGradient>
        <linearGradient
          id="paint20_linear_2712_71387"
          x1="246.484"
          y1="345.04"
          x2="322.197"
          y2="345.04"
          gradientUnits="userSpaceOnUse"
        >
          <stop stop-color="#FF9085" />
          <stop offset="1" stop-color="#FB6FBB" />
        </linearGradient>
        <linearGradient
          id="paint21_linear_2712_71387"
          x1="204.905"
          y1="143.672"
          x2="238.535"
          y2="347.549"
          gradientUnits="userSpaceOnUse"
        >
          <stop stop-color="#E38DDD" />
          <stop offset="1" stop-color="#9571F6" />
        </linearGradient>
        <linearGradient
          id="paint22_linear_2712_71387"
          x1="515.896"
          y1="60.0295"
          x2="424.392"
          y2="212.382"
          gradientUnits="userSpaceOnUse"
        >
          <stop stop-color="#AA80F9" />
          <stop offset="1" stop-color="#6165D7" />
        </linearGradient>
        <linearGradient
          id="paint23_linear_2712_71387"
          x1="432.14"
          y1="243.264"
          x2="440.385"
          y2="171.892"
          gradientUnits="userSpaceOnUse"
        >
          <stop stop-color="#AA80F9" />
          <stop offset="1" stop-color="#6165D7" />
        </linearGradient>
        <linearGradient
          id="paint24_linear_2712_71387"
          x1="487.049"
          y1="113.318"
          x2="440.938"
          y2="188.771"
          gradientUnits="userSpaceOnUse"
        >
          <stop stop-color="#AA80F9" />
          <stop offset="1" stop-color="#6165D7" />
        </linearGradient>
        <linearGradient
          id="paint25_linear_2712_71387"
          x1="503.869"
          y1="95.0345"
          x2="392.951"
          y2="255.991"
          gradientUnits="userSpaceOnUse"
        >
          <stop stop-color="#AA80F9" />
          <stop offset="1" stop-color="#6165D7" />
        </linearGradient>
        <linearGradient
          id="paint26_linear_2712_71387"
          x1="473.215"
          y1="265.7"
          x2="477.876"
          y2="159.929"
          gradientUnits="userSpaceOnUse"
        >
          <stop stop-color="#FFC444" />
          <stop offset="1" stop-color="#F36F56" />
        </linearGradient>
        <linearGradient
          id="paint27_linear_2712_71387"
          x1="476.576"
          y1="314.282"
          x2="488.873"
          y2="252.147"
          gradientUnits="userSpaceOnUse"
        >
          <stop stop-color="#FFC444" />
          <stop offset="1" stop-color="#F36F56" />
        </linearGradient>
        <linearGradient
          id="paint28_linear_2712_71387"
          x1="402.583"
          y1="268.768"
          x2="453.615"
          y2="512.13"
          gradientUnits="userSpaceOnUse"
        >
          <stop stop-color="#FF9085" />
          <stop offset="1" stop-color="#FB6FBB" />
        </linearGradient>
        <linearGradient
          id="paint29_linear_2712_71387"
          x1="429.465"
          y1="523.866"
          x2="444.591"
          y2="524.318"
          gradientUnits="userSpaceOnUse"
        >
          <stop stop-color="#311944" />
          <stop offset="1" stop-color="#893976" />
        </linearGradient>
        <linearGradient
          id="paint30_linear_2712_71387"
          x1="378.183"
          y1="517.122"
          x2="393.623"
          y2="521.441"
          gradientUnits="userSpaceOnUse"
        >
          <stop stop-color="#311944" />
          <stop offset="1" stop-color="#893976" />
        </linearGradient>
        <linearGradient
          id="paint31_linear_2712_71387"
          x1="386.267"
          y1="493.295"
          x2="429.519"
          y2="396.319"
          gradientUnits="userSpaceOnUse"
        >
          <stop stop-color="#311944" />
          <stop offset="1" stop-color="#893976" />
        </linearGradient>
        <linearGradient
          id="paint32_linear_2712_71387"
          x1="409.45"
          y1="497.384"
          x2="463.91"
          y2="406.638"
          gradientUnits="userSpaceOnUse"
        >
          <stop stop-color="#311944" />
          <stop offset="1" stop-color="#893976" />
        </linearGradient>
        <linearGradient
          id="paint33_linear_2712_71387"
          x1="420.073"
          y1="265.1"
          x2="471.104"
          y2="508.462"
          gradientUnits="userSpaceOnUse"
        >
          <stop stop-color="#FF9085" />
          <stop offset="1" stop-color="#FB6FBB" />
        </linearGradient>
        <linearGradient
          id="paint34_linear_2712_71387"
          x1="463.509"
          y1="473.326"
          x2="444.142"
          y2="381.823"
          gradientUnits="userSpaceOnUse"
        >
          <stop stop-color="#FF9085" />
          <stop offset="1" stop-color="#FB6FBB" />
        </linearGradient>
        <linearGradient
          id="paint35_linear_2712_71387"
          x1="454.672"
          y1="257.845"
          x2="505.705"
          y2="501.207"
          gradientUnits="userSpaceOnUse"
        >
          <stop stop-color="#FF9085" />
          <stop offset="1" stop-color="#FB6FBB" />
        </linearGradient>
        <linearGradient
          id="paint36_linear_2712_71387"
          x1="411.611"
          y1="393.774"
          x2="419.863"
          y2="370.52"
          gradientUnits="userSpaceOnUse"
        >
          <stop stop-color="#E38DDD" />
          <stop offset="1" stop-color="#9571F6" />
        </linearGradient>
        <linearGradient
          id="paint37_linear_2712_71387"
          x1="447.316"
          y1="360.042"
          x2="444.287"
          y2="380.855"
          gradientUnits="userSpaceOnUse"
        >
          <stop stop-color="#E38DDD" />
          <stop offset="1" stop-color="#9571F6" />
        </linearGradient>
        <linearGradient
          id="paint38_linear_2712_71387"
          x1="387.933"
          y1="361.864"
          x2="403.984"
          y2="339.197"
          gradientUnits="userSpaceOnUse"
        >
          <stop stop-color="#E38DDD" />
          <stop offset="1" stop-color="#9571F6" />
        </linearGradient>
        <linearGradient
          id="paint39_linear_2712_71387"
          x1="418.502"
          y1="399.515"
          x2="383.326"
          y2="328.448"
          gradientUnits="userSpaceOnUse"
        >
          <stop stop-color="#E38DDD" />
          <stop offset="1" stop-color="#9571F6" />
        </linearGradient>
        <linearGradient
          id="paint40_linear_2712_71387"
          x1="435.535"
          y1="353.806"
          x2="358.925"
          y2="353.806"
          gradientUnits="userSpaceOnUse"
        >
          <stop stop-color="#E38DDD" />
          <stop offset="1" stop-color="#9571F6" />
        </linearGradient>
        <linearGradient
          id="paint41_linear_2712_71387"
          x1="449.161"
          y1="301.468"
          x2="437.723"
          y2="272.257"
          gradientUnits="userSpaceOnUse"
        >
          <stop stop-color="#311944" />
          <stop offset="1" stop-color="#6B3976" />
        </linearGradient>
        <linearGradient
          id="paint42_linear_2712_71387"
          x1="445.66"
          y1="302.854"
          x2="434.211"
          y2="273.614"
          gradientUnits="userSpaceOnUse"
        >
          <stop stop-color="#311944" />
          <stop offset="1" stop-color="#6B3976" />
        </linearGradient>
        <linearGradient
          id="paint43_linear_2712_71387"
          x1="90.0411"
          y1="367.827"
          x2="74.061"
          y2="304.251"
          gradientUnits="userSpaceOnUse"
        >
          <stop stop-color="#6165D7" />
          <stop offset="1" stop-color="#AA80F9" />
        </linearGradient>
        <linearGradient
          id="paint44_linear_2712_71387"
          x1="74.973"
          y1="515.091"
          x2="66.5825"
          y2="520.636"
          gradientUnits="userSpaceOnUse"
        >
          <stop stop-color="#444B8C" />
          <stop offset="1" stop-color="#26264F" />
        </linearGradient>
        <linearGradient
          id="paint45_linear_2712_71387"
          x1="66.8468"
          y1="520.73"
          x2="68.6964"
          y2="507.721"
          gradientUnits="userSpaceOnUse"
        >
          <stop stop-color="#FFC444" />
          <stop offset="1" stop-color="#F36F56" />
        </linearGradient>
        <linearGradient
          id="paint46_linear_2712_71387"
          x1="74.3456"
          y1="514.141"
          x2="65.955"
          y2="519.686"
          gradientUnits="userSpaceOnUse"
        >
          <stop stop-color="#444B8C" />
          <stop offset="1" stop-color="#26264F" />
        </linearGradient>
        <linearGradient
          id="paint47_linear_2712_71387"
          x1="128.05"
          y1="519.366"
          x2="120.511"
          y2="526.035"
          gradientUnits="userSpaceOnUse"
        >
          <stop stop-color="#444B8C" />
          <stop offset="1" stop-color="#26264F" />
        </linearGradient>
        <linearGradient
          id="paint48_linear_2712_71387"
          x1="120.821"
          y1="526.09"
          x2="120.821"
          y2="512.947"
          gradientUnits="userSpaceOnUse"
        >
          <stop stop-color="#FFC444" />
          <stop offset="1" stop-color="#F36F56" />
        </linearGradient>
        <linearGradient
          id="paint49_linear_2712_71387"
          x1="121.439"
          y1="532.116"
          x2="72.0073"
          y2="333.612"
          gradientUnits="userSpaceOnUse"
        >
          <stop stop-color="#444B8C" />
          <stop offset="1" stop-color="#26264F" />
        </linearGradient>
        <linearGradient
          id="paint50_linear_2712_71387"
          x1="161.155"
          y1="384.039"
          x2="36.9906"
          y2="298.15"
          gradientUnits="userSpaceOnUse"
        >
          <stop stop-color="#6165D7" />
          <stop offset="1" stop-color="#AA80F9" />
        </linearGradient>
        <linearGradient
          id="paint51_linear_2712_71387"
          x1="127.295"
          y1="518.513"
          x2="119.754"
          y2="525.183"
          gradientUnits="userSpaceOnUse"
        >
          <stop stop-color="#444B8C" />
          <stop offset="1" stop-color="#26264F" />
        </linearGradient>
        <linearGradient
          id="paint52_linear_2712_71387"
          x1="119.622"
          y1="279.347"
          x2="82.2919"
          y2="333.421"
          gradientUnits="userSpaceOnUse"
        >
          <stop stop-color="#FFC444" />
          <stop offset="1" stop-color="#F36F56" />
        </linearGradient>
        <linearGradient
          id="paint53_linear_2712_71387"
          x1="117.812"
          y1="278.098"
          x2="80.4833"
          y2="332.172"
          gradientUnits="userSpaceOnUse"
        >
          <stop stop-color="#FFC444" />
          <stop offset="1" stop-color="#F36F56" />
        </linearGradient>
        <linearGradient
          id="paint54_linear_2712_71387"
          x1="75.4102"
          y1="354.11"
          x2="82.8815"
          y2="354.11"
          gradientUnits="userSpaceOnUse"
        >
          <stop stop-color="#6165D7" />
          <stop offset="1" stop-color="#AA80F9" />
        </linearGradient>
        <linearGradient
          id="paint55_linear_2712_71387"
          x1="80.7705"
          y1="365.771"
          x2="137.08"
          y2="365.771"
          gradientUnits="userSpaceOnUse"
        >
          <stop stop-color="#6165D7" />
          <stop offset="1" stop-color="#AA80F9" />
        </linearGradient>
        <linearGradient
          id="paint56_linear_2712_71387"
          x1="180.56"
          y1="327.549"
          x2="191.862"
          y2="341.69"
          gradientUnits="userSpaceOnUse"
        >
          <stop stop-color="#FFC444" />
          <stop offset="1" stop-color="#F36F56" />
        </linearGradient>
        <linearGradient
          id="paint57_linear_2712_71387"
          x1="56.4839"
          y1="390.923"
          x2="175.145"
          y2="308.84"
          gradientUnits="userSpaceOnUse"
        >
          <stop stop-color="#6165D7" />
          <stop offset="1" stop-color="#AA80F9" />
        </linearGradient>
        <linearGradient
          id="paint58_linear_2712_71387"
          x1="308.998"
          y1="126.458"
          x2="340.003"
          y2="126.458"
          gradientUnits="userSpaceOnUse"
        >
          <stop stop-color="#FFC444" />
          <stop offset="1" stop-color="#F36F56" />
        </linearGradient>
        <linearGradient
          id="paint59_linear_2712_71387"
          x1="255.602"
          y1="184.987"
          x2="315.73"
          y2="184.987"
          gradientUnits="userSpaceOnUse"
        >
          <stop stop-color="#AA80F9" />
          <stop offset="1" stop-color="#6165D7" />
        </linearGradient>
        <linearGradient
          id="paint60_linear_2712_71387"
          x1="304.331"
          y1="250.695"
          x2="315.515"
          y2="296.577"
          gradientUnits="userSpaceOnUse"
        >
          <stop stop-color="#E38DDD" />
          <stop offset="1" stop-color="#9571F6" />
        </linearGradient>
        <linearGradient
          id="paint61_linear_2712_71387"
          x1="283.866"
          y1="187.262"
          x2="343.993"
          y2="187.262"
          gradientUnits="userSpaceOnUse"
        >
          <stop stop-color="#AA80F9" />
          <stop offset="1" stop-color="#6165D7" />
        </linearGradient>
        <linearGradient
          id="paint62_linear_2712_71387"
          x1="310.567"
          y1="266.218"
          x2="314.476"
          y2="266.218"
          gradientUnits="userSpaceOnUse"
        >
          <stop stop-color="#311944" />
          <stop offset="1" stop-color="#A03976" />
        </linearGradient>
        <linearGradient
          id="paint63_linear_2712_71387"
          x1="287.709"
          y1="147.453"
          x2="341.965"
          y2="213.025"
          gradientUnits="userSpaceOnUse"
        >
          <stop stop-color="#AA80F9" />
          <stop offset="1" stop-color="#6165D7" />
        </linearGradient>
        <linearGradient
          id="paint64_linear_2712_71387"
          x1="438.116"
          y1="56.8138"
          x2="369.611"
          y2="120.05"
          gradientUnits="userSpaceOnUse"
        >
          <stop stop-color="#444B8C" />
          <stop offset="1" stop-color="#26264F" />
        </linearGradient>
        <linearGradient
          id="paint65_linear_2712_71387"
          x1="380.639"
          y1="149.406"
          x2="322.457"
          y2="97.3759"
          gradientUnits="userSpaceOnUse"
        >
          <stop stop-color="#FFC444" />
          <stop offset="1" stop-color="#F36F56" />
        </linearGradient>
        <linearGradient
          id="paint66_linear_2712_71387"
          x1="343.622"
          y1="89.3235"
          x2="364.038"
          y2="89.3235"
          gradientUnits="userSpaceOnUse"
        >
          <stop stop-color="#311944" />
          <stop offset="1" stop-color="#A03976" />
        </linearGradient>
        <linearGradient
          id="paint67_linear_2712_71387"
          x1="346.209"
          y1="142.524"
          x2="345.763"
          y2="102.016"
          gradientUnits="userSpaceOnUse"
        >
          <stop stop-color="#311944" />
          <stop offset="1" stop-color="#A03976" />
        </linearGradient>
        <linearGradient
          id="paint68_linear_2712_71387"
          x1="378.736"
          y1="151.534"
          x2="320.554"
          y2="99.5022"
          gradientUnits="userSpaceOnUse"
        >
          <stop stop-color="#FFC444" />
          <stop offset="1" stop-color="#F36F56" />
        </linearGradient>
        <linearGradient
          id="paint69_linear_2712_71387"
          x1="359.654"
          y1="159.841"
          x2="306.987"
          y2="159.841"
          gradientUnits="userSpaceOnUse"
        >
          <stop stop-color="#E38DDD" />
          <stop offset="1" stop-color="#9571F6" />
        </linearGradient>
        <linearGradient
          id="paint70_linear_2712_71387"
          x1="334.612"
          y1="145.937"
          x2="262.323"
          y2="145.937"
          gradientUnits="userSpaceOnUse"
        >
          <stop stop-color="#E38DDD" />
          <stop offset="1" stop-color="#9571F6" />
        </linearGradient>
        <linearGradient
          id="paint71_linear_2712_71387"
          x1="279.188"
          y1="126.654"
          x2="313.903"
          y2="160.905"
          gradientUnits="userSpaceOnUse"
        >
          <stop stop-color="#E38DDD" />
          <stop offset="1" stop-color="#9571F6" />
        </linearGradient>
        <linearGradient
          id="paint72_linear_2712_71387"
          x1="356.644"
          y1="149.015"
          x2="401.098"
          y2="105.507"
          gradientUnits="userSpaceOnUse"
        >
          <stop stop-color="#FFC444" />
          <stop offset="1" stop-color="#F36F56" />
        </linearGradient>
        <linearGradient
          id="paint73_linear_2712_71387"
          x1="333.817"
          y1="154.154"
          x2="348.93"
          y2="154.154"
          gradientUnits="userSpaceOnUse"
        >
          <stop stop-color="#311944" />
          <stop offset="1" stop-color="#A03976" />
        </linearGradient>
        <linearGradient
          id="paint74_linear_2712_71387"
          x1="188.921"
          y1="452.659"
          x2="238.216"
          y2="510.961"
          gradientUnits="userSpaceOnUse"
        >
          <stop stop-color="#E38DDD" />
          <stop offset="1" stop-color="#9571F6" />
        </linearGradient>
        <linearGradient
          id="paint75_linear_2712_71387"
          x1="191.872"
          y1="520.907"
          x2="194.01"
          y2="485.252"
          gradientUnits="userSpaceOnUse"
        >
          <stop stop-color="#AA80F9" />
          <stop offset="1" stop-color="#6165D7" />
        </linearGradient>
        <linearGradient
          id="paint76_linear_2712_71387"
          x1="162.428"
          y1="240.404"
          x2="167.769"
          y2="395.465"
          gradientUnits="userSpaceOnUse"
        >
          <stop stop-color="#E38DDD" />
          <stop offset="1" stop-color="#9571F6" />
        </linearGradient>
        <linearGradient
          id="paint77_linear_2712_71387"
          x1="192.426"
          y1="235.139"
          x2="122.491"
          y2="326.749"
          gradientUnits="userSpaceOnUse"
        >
          <stop stop-color="#E38DDD" />
          <stop offset="1" stop-color="#9571F6" />
        </linearGradient>
      </defs>
    </svg>
