<svg width="116" height="127" viewBox="0 0 116 127" fill="none" xmlns="http://www.w3.org/2000/svg">
<path d="M19.1061 89.6993C20.2491 89.6993 21.1756 88.768 21.1756 87.6192C21.1756 86.4704 20.2491 85.5391 19.1061 85.5391C17.9632 85.5391 17.0366 86.4704 17.0366 87.6192C17.0366 88.768 17.9632 89.6993 19.1061 89.6993Z" fill="#373737"/>
<path d="M7.30729 88.8348C8.45025 88.8348 9.3768 87.9035 9.3768 86.7547C9.3768 85.6059 8.45025 84.6746 7.30729 84.6746C6.16434 84.6746 5.23779 85.6059 5.23779 86.7547C5.23779 87.9035 6.16434 88.8348 7.30729 88.8348Z" fill="#373737"/>
<path d="M8.06003 83.7562C8.83946 84.6746 10.0758 85.0528 11.2046 85.377C13.0053 85.9443 12.3065 87.3761 14.1879 87.6462C16.5262 87.9704 22.7347 87.7543 24.7773 86.1064C26.7662 84.4855 26.6049 81.1358 26.6587 78.8396C26.7125 74.9765 26.5781 71.1135 26.5243 67.2504C26.4974 65.3594 26.4974 63.4684 26.4437 61.5774C26.4168 60.4428 26.3899 59.2542 25.8793 58.2276C25.1267 56.7689 23.2722 56.0125 22.1972 55.7423C20.5846 55.3371 17.6819 54.9859 15.5318 55.0129C13.8923 55.0129 7.36124 55.2291 5.80239 55.8234C3.03409 56.8769 7.5225 60.9561 7.36124 63.3874C7.09247 67.2234 7.03872 71.0865 7.01184 74.9225C6.95809 77.4889 6.23242 81.568 8.06003 83.7562Z" fill="#EE542F"/>
<path d="M2.57715 84.3773C3.35658 85.2958 4.5929 85.674 5.72172 85.9981C7.52246 86.5654 9.37695 86.9707 11.2583 87.2408C13.5966 87.565 17.2518 88.3754 19.2944 86.7275C21.2833 85.1067 21.1221 81.7569 21.1758 79.4607C21.2296 75.5976 21.0952 71.7346 21.0414 67.8715C21.0146 65.9805 21.0146 64.0895 20.9608 62.1985C20.9339 61.0639 20.9071 59.8753 20.3964 58.8488C19.6438 57.39 17.7894 56.6336 16.7143 56.3634C15.1017 55.9582 12.199 55.607 10.0489 55.634C8.40939 55.634 6.33989 55.499 4.75416 56.0933C1.98586 57.1468 2.03962 61.5502 1.87836 64.0085C1.60959 67.8445 1.55584 71.7076 1.52896 75.5436C1.47521 78.0829 0.776415 82.1621 2.57715 84.3773Z" fill="#FF7F60"/>
<path d="M18.0582 74.9764C17.8163 74.0309 1.66339 72.7343 1.12585 73.8148C0.561443 74.8954 -0.352364 81.8921 1.12585 83.1078C2.60407 84.3504 16.1768 86.3765 17.3862 85.1338C18.5957 83.9452 18.5957 77.0836 18.0582 74.9764Z" fill="#EE542F"/>
<path d="M18.5421 61.7391C17.5208 60.3074 2.14736 60.3074 1.60982 61.0098C1.07229 61.7121 0.131605 66.1425 1.60982 66.9259C3.08804 67.7093 16.6608 69.006 17.8702 68.2226C19.0797 67.4391 19.3753 62.9007 18.5421 61.7391Z" fill="#EE542F"/>
<path d="M2.63067 74.9225C7.46848 74.5713 12.3063 75.5168 17.0903 76.1921C17.601 76.2732 17.386 77.0566 16.8753 76.9756C12.1719 76.3272 7.41472 75.4087 2.65755 75.7329C2.12002 75.7869 2.12002 74.9765 2.63067 74.9225Z" fill="white"/>
<path d="M3.2762 61.7664C8.03337 61.6854 12.7905 61.9826 17.494 62.6579C18.0046 62.739 17.7896 63.5224 17.2789 63.4413C12.6293 62.766 7.95274 62.4958 3.2762 62.6039C2.73866 62.5769 2.73866 61.7664 3.2762 61.7664Z" fill="white"/>
<path d="M2.57724 62.0364C2.65787 61.5231 3.43729 61.7392 3.35666 62.2525C3.3029 62.5497 3.27603 62.8468 3.22227 63.144C3.14164 63.6573 2.36222 63.4411 2.44285 62.9279C2.49661 62.6307 2.52348 62.3336 2.57724 62.0364Z" fill="#373737"/>
<path d="M2.06696 75.4358C2.04008 75.3817 2.01321 75.3277 2.01321 75.2467V75.2196C2.01321 75.0846 2.09384 74.9495 2.20134 74.8685L2.22822 74.8414C2.3626 74.7604 2.6045 74.7604 2.712 74.8955C3.03452 75.2737 2.79263 75.895 2.73888 76.3543C2.65825 76.8675 1.87882 76.6514 1.95945 76.1381C1.98633 75.922 2.04008 75.6789 2.06696 75.4358Z" fill="#373737"/>
<path d="M20.9878 56.7687H20.1815V44.207C20.1815 42.5322 18.8108 41.1544 17.1444 41.1544H13.7311C12.0647 41.1544 10.694 42.5322 10.694 44.207V55.364H9.8877V44.207C9.8877 42.0729 11.6078 40.344 13.7311 40.344H17.1444C19.2677 40.344 20.9878 42.0729 20.9878 44.207V56.7687Z" fill="#373737"/>
<path d="M13.4354 41.8569H18.0045C18.5957 41.8569 19.0795 41.3707 19.0795 40.7764C19.0795 40.1821 18.5957 39.6958 18.0045 39.6958H13.4354C12.8441 39.6958 12.3604 40.1821 12.3604 40.7764C12.3604 41.3707 12.8441 41.8569 13.4354 41.8569Z" fill="#FF7F60"/>
<path d="M34.803 118.709L38.6732 109.875L31.2553 107.281L28.272 115.602L34.803 118.709Z" fill="#FFDAB8"/>
<path d="M35.2603 117.682L28.4874 114.98L16.8229 116.466C15.5866 116.628 14.5653 117.493 14.2159 118.708L14.1621 118.898C14.0009 119.465 14.3234 120.059 14.8878 120.221L31.9276 125.273C32.492 125.435 33.1102 125.111 33.2714 124.544L35.2603 117.682Z" fill="#70A3C4"/>
<path d="M33.2714 124.517L33.5133 123.679L14.3234 118.303L14.1621 118.871C14.0009 119.438 14.3234 120.032 14.8878 120.194L31.9276 125.246C32.492 125.408 33.0833 125.084 33.2714 124.517Z" fill="#373737"/>
<path d="M26.9016 117.979C27.4063 117.979 27.8154 117.568 27.8154 117.061C27.8154 116.554 27.4063 116.142 26.9016 116.142C26.3969 116.142 25.9878 116.554 25.9878 117.061C25.9878 117.568 26.3969 117.979 26.9016 117.979Z" fill="#373737"/>
<path d="M24.1604 118.303C24.6651 118.303 25.0742 117.892 25.0742 117.385C25.0742 116.878 24.6651 116.466 24.1604 116.466C23.6557 116.466 23.2466 116.878 23.2466 117.385C23.2466 117.892 23.6557 118.303 24.1604 118.303Z" fill="#373737"/>
<path d="M21.6609 118.546C22.1656 118.546 22.5747 118.135 22.5747 117.628C22.5747 117.12 22.1656 116.709 21.6609 116.709C21.1562 116.709 20.7471 117.12 20.7471 117.628C20.7471 118.135 21.1562 118.546 21.6609 118.546Z" fill="#373737"/>
<path d="M26.9017 117.466C26.7136 117.466 26.5523 117.358 26.4985 117.169L26.0416 115.44C25.9879 115.224 26.1223 115.008 26.3373 114.954C26.5523 114.9 26.7673 115.035 26.8211 115.251L27.278 116.98C27.3317 117.196 27.1973 117.412 26.9823 117.466C26.9554 117.439 26.9286 117.466 26.9017 117.466Z" fill="#373737"/>
<path d="M24.1605 117.79C23.9723 117.79 23.8111 117.682 23.7573 117.493L23.3004 115.764C23.2467 115.548 23.3811 115.332 23.5961 115.278C23.8111 115.224 24.0261 115.359 24.0799 115.575L24.5368 117.304C24.5905 117.52 24.4561 117.736 24.2411 117.79C24.2142 117.79 24.1874 117.79 24.1605 117.79Z" fill="#373737"/>
<path d="M21.5799 117.925C21.3917 117.925 21.2305 117.817 21.1767 117.628L20.7736 116.088C20.7198 115.872 20.8542 115.656 21.0692 115.602C21.2842 115.548 21.4992 115.683 21.553 115.899L21.9561 117.439C22.0099 117.655 21.8755 117.871 21.6605 117.925C21.6605 117.925 21.6068 117.925 21.5799 117.925Z" fill="#373737"/>
<path d="M92.6954 105.201L85.1431 99.231L80.7891 105.768L88.0458 110.793L92.6954 105.201Z" fill="#FFDAB8"/>
<path d="M91.3249 104.094L86.9977 109.983L85.4657 121.707C85.3045 122.949 85.8958 124.165 86.944 124.813L87.1321 124.922C87.6427 125.219 88.2878 125.057 88.5834 124.57L97.7484 109.28C98.0709 108.767 97.8828 108.092 97.3721 107.767L91.3249 104.094Z" fill="#70A3C4"/>
<path d="M97.3991 107.767L96.6466 107.308L86.6484 124.597L87.1591 124.921C87.6698 125.219 88.3148 125.057 88.6104 124.57L97.7754 109.28C98.071 108.767 97.9098 108.092 97.3991 107.767Z" fill="#373737"/>
<path d="M88.6101 113.008C89.1148 113.008 89.5239 112.597 89.5239 112.089C89.5239 111.582 89.1148 111.171 88.6101 111.171C88.1054 111.171 87.6963 111.582 87.6963 112.089C87.6963 112.597 88.1054 113.008 88.6101 113.008Z" fill="#373737"/>
<path d="M88.2341 115.764C88.7388 115.764 89.1479 115.353 89.1479 114.845C89.1479 114.338 88.7388 113.927 88.2341 113.927C87.7294 113.927 87.3203 114.338 87.3203 114.845C87.3203 115.353 87.7294 115.764 88.2341 115.764Z" fill="#373737"/>
<path d="M87.8308 118.222C88.3355 118.222 88.7446 117.811 88.7446 117.303C88.7446 116.796 88.3355 116.385 87.8308 116.385C87.3261 116.385 86.917 116.796 86.917 117.303C86.917 117.811 87.3261 118.222 87.8308 118.222Z" fill="#373737"/>
<path d="M86.8099 112.495C86.5949 112.495 86.4067 112.306 86.4067 112.09C86.4067 111.874 86.5949 111.685 86.8099 111.685H88.6106C88.8256 111.685 89.0138 111.874 89.0138 112.09C89.0138 112.306 88.8256 112.495 88.6106 112.495H86.8099Z" fill="#373737"/>
<path d="M86.4603 115.25C86.2453 115.25 86.0571 115.061 86.0571 114.845C86.0571 114.629 86.2453 114.44 86.4603 114.44H88.261C88.476 114.44 88.6642 114.629 88.6642 114.845C88.6642 115.061 88.476 115.25 88.261 115.25H86.4603Z" fill="#373737"/>
<path d="M86.1112 117.763C85.8961 117.763 85.708 117.574 85.708 117.358C85.708 117.142 85.8961 116.953 86.1112 116.953H87.6969C87.9119 116.953 88.1 117.142 88.1 117.358C88.1 117.574 87.9119 117.763 87.6969 117.763H86.1112Z" fill="#373737"/>
<path d="M57.5408 56.8458L40.8503 116.899L28.9708 112.387L28.057 112.036L25.0737 110.901L43.4843 48.6064C43.9949 46.8505 44.9356 46.2832 46.2257 46.2832C47.7308 46.2832 49.6928 47.0936 51.9504 47.742C56.1432 48.9846 58.6427 53.0638 57.5408 56.8458Z" fill="#70A3C4"/>
<path d="M73.3711 88.0746L70.7371 53.5773C69.4202 46.7157 64.3674 46.0673 60.0671 46.8237C55.7668 47.5801 52.8642 51.3351 53.5361 55.2522L57.8363 92.8831L73.3711 88.0746Z" fill="#70A3C4"/>
<path d="M91.8081 100.15L87.7497 104.769L87.1047 105.498L80.6543 112.846L60.4699 97.2591C58.696 95.9354 57.7822 93.8553 57.7822 91.6672C57.7822 89.9653 58.3466 88.1823 59.5023 86.6425C61.1149 84.4543 63.5338 83.2927 65.899 83.2927C66.2215 83.2927 66.544 83.3197 66.8665 83.3467C67.9685 83.4818 69.0167 83.914 69.9305 84.6164L91.8081 100.15Z" fill="#70A3C4"/>
<path d="M51.9766 30.0746L40.6078 40.0429L32.1416 33.6946L44.9349 21.8623C44.9618 21.8353 44.9887 21.8083 45.0155 21.7812C45.9025 22.9429 50.5521 28.4538 51.9766 30.0746Z" fill="#2E4CB7"/>
<path d="M39.3987 40.5829L18.838 43.7976L16.7954 36.6388L35.3672 31.9653L41.8982 35.5582C43.0808 37.6654 41.7638 40.3128 39.3987 40.5829Z" fill="#2E4CB7"/>
<path d="M55.4708 19.4308C57.4597 21.646 57.6478 24.7796 55.8739 26.4545L49.1817 32.6678C48.7785 33.046 46.8165 31.5602 44.8007 29.345C42.785 27.1299 41.5218 25.0227 41.925 24.6445L48.6172 18.4313C50.418 16.7834 53.4819 17.2156 55.4708 19.4308Z" fill="#2E4CB7"/>
<path d="M42.3281 49.3358L71.8387 51.605C71.8387 51.605 72.1344 29.3722 70.5755 22.6997C69.6886 18.8907 66.8665 17.0537 65.0927 17.0537H53.3207C50.8211 17.0537 47.7303 19.3229 46.6284 23.186C45.0427 28.832 42.3281 49.3358 42.3281 49.3358Z" fill="#2E4CB7"/>
<path d="M59.5024 9.70557C59.5024 9.70557 59.153 14.1089 59.0186 17.0535C58.4273 18.5393 53.9658 18.8364 53.3477 17.8099L53.8045 11.9478L59.5024 9.70557Z" fill="#FFC9BC"/>
<path d="M50.5796 9.05709C50.5796 12.2988 52.0578 15.2974 54.3155 15.2974C56.1699 15.2974 59.852 12.2718 59.852 9.03008C59.852 5.78836 57.8363 3.16797 55.3637 3.16797C51.1978 3.16797 50.5796 5.81537 50.5796 9.05709Z" fill="#FFDAB8"/>
<path d="M57.2988 5.11334C57.2988 5.11334 59.1533 6.62614 59.2877 12.7584C63.9105 8.54416 63.5342 -0.316541 54.7187 0.791046C50.284 -0.208484 47.9726 2.35788 49.7465 4.62708C50.9022 6.13988 56.5463 6.32898 57.2988 5.11334Z" fill="#373737"/>
<path d="M58.2124 9.27377C58.2124 10.0842 58.508 10.8676 59.2337 10.8676C59.9594 10.8676 60.6582 10.0572 60.8194 9.27377C60.9807 8.46335 60.4969 7.67993 59.7712 7.67993C59.0456 7.67993 58.2124 8.46335 58.2124 9.27377Z" fill="#FFDAB8"/>
<path d="M72.8336 22.6729L82.3749 36.3961L73.8012 42.5554L64.045 28.3188C64.0181 28.2918 64.0181 28.2648 63.9912 28.2378C65.2007 27.5354 71.0867 23.8345 72.8336 22.6729Z" fill="#2E4CB7"/>
<path d="M84.1756 42.2851L83.6918 58.0615L76.247 57.9264L73.855 41.6908L82.348 36.396C83.9068 37.9358 84.1219 39.8808 84.1756 42.2851Z" fill="#2E4CB7"/>
<path d="M63.2919 17.9991C65.684 16.3782 68.8554 16.8645 70.3605 19.0797L76.0315 27.346C76.3809 27.8593 74.7145 29.5882 72.3225 31.1821C69.9305 32.8029 67.6997 33.6944 67.3503 33.1811L61.6793 24.9147C60.1742 22.6996 60.8999 19.6199 63.2919 17.9991Z" fill="#2E4CB7"/>
<path d="M57.94 92.8434L54.126 59.3755L53.859 59.4062L57.673 92.8741L57.94 92.8434Z" fill="#373737"/>
<path d="M102.989 126.326C104.058 126.326 104.924 125.456 104.924 124.381C104.924 123.307 104.058 122.436 102.989 122.436C101.921 122.436 101.054 123.307 101.054 124.381C101.054 125.456 101.921 126.326 102.989 126.326Z" fill="#373737"/>
<path d="M113.74 119.087C114.809 119.087 115.675 118.216 115.675 117.142C115.675 116.067 114.809 115.197 113.74 115.197C112.672 115.197 111.805 116.067 111.805 117.142C111.805 118.216 112.672 119.087 113.74 119.087Z" fill="#373737"/>
<path d="M87.7769 126.326C88.8457 126.326 89.712 125.456 89.712 124.381C89.712 123.307 88.8457 122.436 87.7769 122.436C86.7082 122.436 85.8418 123.307 85.8418 124.381C85.8418 125.456 86.7082 126.326 87.7769 126.326Z" fill="#373737"/>
<path d="M73.29 85.2371L80.2242 79.0778C81.4874 77.8352 82.8313 77.3759 85.2502 77.484H101C103.553 77.484 104.79 78.8888 105.623 81.4551C108.203 89.3703 112.637 103.445 114.815 110.847C115.325 112.576 116.239 114.683 114.492 115.898L107.316 122.031L101.941 116.141H93.5819C92.6412 116.141 91.7812 115.52 91.5124 114.602L86.809 99.5817L73.29 85.2371Z" fill="#EE542F"/>
<path d="M87.5619 122.868H105.569C107.048 122.868 108.096 121.436 107.639 120.032C107.639 120.032 100.516 96.5022 97.8826 88.7491C96.7269 85.3182 95.8937 84.2647 93.4748 84.2647C93.4748 84.2647 80.9234 84.2377 76.6769 84.2647C73.3979 84.2647 72.4573 85.6965 72.8873 87.1012C72.8873 87.1012 80.3321 113.467 83.5842 121.355C84.2292 122.922 85.5462 123.03 87.5619 122.868Z" fill="#FF7F60"/>
<path d="M112.154 118.005C112.1 118.005 112.047 117.978 112.02 117.897L100.785 81.779C100.517 80.9146 99.7372 80.3473 98.8503 80.3473H78.9347C78.854 80.3473 78.8003 80.2933 78.8003 80.2122C78.8003 80.1312 78.854 80.0771 78.9347 80.0771H98.8503C99.8716 80.0771 100.759 80.7255 101.054 81.698L112.289 117.816C112.315 117.897 112.262 117.978 112.181 118.005H112.154Z" fill="#373737"/>
<path d="M82.6702 87.5872H88.3143C89.1744 87.5872 89.7926 86.7227 89.4969 85.9123L88.9325 84.2644H80.4126L81.192 86.5606C81.4339 87.1819 82.0252 87.5872 82.6702 87.5872Z" fill="#FF7F60"/>
<path d="M80.4126 84.2647H88.9325L89.9807 83.0491C90.3301 82.6439 90.0345 82.0496 89.5238 82.0496H83.2884C82.6702 82.0496 82.1058 82.3197 81.7027 82.7789L80.4126 84.2647Z" fill="#373737"/>
<path d="M88.8794 83.563C88.7181 83.563 88.5569 83.455 88.5031 83.2929L82.6978 65.1933C82.644 65.0582 82.5096 64.9502 82.3753 64.9502H76.9999C76.8924 64.9502 76.7849 65.0042 76.7311 65.0852C76.6774 65.1663 76.6505 65.3014 76.6774 65.4094L82.3215 83.0227C82.3752 83.2389 82.2677 83.455 82.0527 83.509C81.8377 83.563 81.6227 83.455 81.569 83.2659L75.9248 65.6525C75.8173 65.3013 75.8711 64.9231 76.0861 64.626C76.3011 64.3288 76.6236 64.1667 76.9999 64.1667H82.3753C82.8859 64.1667 83.3159 64.4909 83.4503 64.9772L89.2557 83.0498C89.3094 83.2659 89.2019 83.482 88.9869 83.536C88.96 83.563 88.9063 83.563 88.8794 83.563Z" fill="#373737"/>
<path d="M75.8976 65.9765H83.4768C84.2563 65.9765 84.8744 65.3552 84.8744 64.5717C84.8744 63.7883 84.2563 63.167 83.4768 63.167H75.8707C75.0913 63.167 74.4731 63.7883 74.4731 64.5717C74.5 65.3552 75.1182 65.9765 75.8976 65.9765Z" fill="#373737"/>
<path d="M76.2743 57.9265C76.2743 57.9265 76.0593 61.1141 75.5755 62.2217C75.0917 63.3293 74.5004 65.2473 74.5542 65.9767C74.6886 68.0298 75.5755 67.3274 75.5755 67.3274H81.9184L80.924 64.599C80.924 64.599 83.3966 61.4383 83.5848 60.1146C83.7729 58.7909 83.6923 56.981 83.6923 56.981L76.2743 57.9265Z" fill="#FFDAB8"/>
<path d="M74.7419 67.003C74.93 67.4082 75.4676 68.1646 76.032 68.1646C76.5964 68.1646 76.677 67.3002 76.677 67.3002C76.677 67.3002 77.0533 68.1646 77.779 68.1917C78.5046 68.2187 78.3971 67.4353 78.3971 67.4353C78.3971 67.4353 78.9884 68.3537 79.6872 68.2727C80.386 68.1916 80.1172 67.2462 80.1172 67.2462C80.1172 67.2462 80.386 68.1376 80.8429 68.1646C81.7567 68.2187 81.9448 67.3812 81.9448 67.3812L81.3267 65.7333H74.5C74.5 65.7063 74.5 66.4898 74.7419 67.003Z" fill="#FFDAB8"/>
<path d="M76.1127 59.9797C76.1127 59.9797 74.3926 62.384 74.3657 63.0594C74.3389 63.7617 75.3871 66.3281 75.3871 66.3281L77.5641 60.1958L76.1127 59.9797Z" fill="#FFDAB8"/>
<path d="M79.5798 68.4081C79.1229 68.4081 78.7197 68.0569 78.4778 67.7868C78.451 67.8948 78.3972 68.0029 78.3166 68.1109C78.1822 68.246 77.9941 68.327 77.7522 68.327C77.2684 68.3 76.919 67.9488 76.7309 67.6787C76.6502 67.9488 76.4352 68.3 76.032 68.3C75.3333 68.3 74.7688 67.3815 74.6345 67.0574C74.3926 66.5171 74.3926 65.7607 74.3926 65.7067C74.4195 65.5716 74.7957 62.8972 76.1396 61.4924C76.1933 61.4384 76.2739 61.4384 76.3277 61.4924C76.3815 61.5465 76.3815 61.6275 76.3277 61.6815C75.0376 63.0322 74.6613 65.6796 74.6345 65.7337C74.6345 65.7337 74.6345 66.4631 74.8495 66.9493C75.0107 67.3005 75.5214 68.0569 76.032 68.0299C76.4621 68.0299 76.5427 67.3005 76.5427 67.3005C76.5427 67.2465 76.5965 67.1925 76.6502 67.1654C76.704 67.1654 76.7577 67.1924 76.7846 67.2465C76.7846 67.2465 77.1609 68.0299 77.7522 68.0569C77.9134 68.0569 78.0209 68.0299 78.1016 67.9488C78.2628 67.7868 78.2359 67.4626 78.2359 67.4626C78.2359 67.4086 78.2628 67.3275 78.3166 67.3275C78.3703 67.3005 78.451 67.3275 78.4778 67.3815C78.4778 67.3815 79.0154 68.246 79.6335 68.165C79.7679 68.1379 79.8485 68.1109 79.9023 68.0029C80.0367 67.7868 79.9829 67.4086 79.9561 67.2735C79.9292 67.1924 79.9829 67.1384 80.0367 67.1114C80.1173 67.0844 80.1711 67.1384 80.1979 67.1924C80.2517 67.4086 80.4936 68.0029 80.8161 68.0029C81.1117 68.0299 81.3268 67.8948 81.488 67.6787C81.6493 67.4626 81.703 67.1654 81.5955 66.8953L81.1655 65.7337C81.1386 65.6526 81.1655 65.5986 81.2461 65.5716C81.3268 65.5446 81.3805 65.5716 81.4074 65.6526L81.8374 66.8142C81.9718 67.1654 81.9181 67.5436 81.703 67.8408C81.488 68.138 81.1655 68.273 80.8161 68.273H80.7892C80.5473 68.246 80.3592 68.0839 80.2248 67.8678C80.1979 67.9488 80.1711 68.0299 80.1173 68.1109C80.0098 68.273 79.8485 68.3541 79.6604 68.3811C79.6335 68.4081 79.6067 68.4081 79.5798 68.4081Z" fill="#373737"/>
<path d="M79.9825 66.2195C79.9825 66.2195 79.9556 66.2195 79.9825 66.2195C78.3162 66.0304 76.3004 66.2195 76.2735 66.2195C76.1929 66.2195 76.1392 66.1655 76.1392 66.1114C76.1392 66.0304 76.1929 65.9764 76.2467 65.9764C76.2735 65.9764 78.3162 65.7873 79.9825 65.9764C80.0631 65.9764 80.1169 66.0574 80.09 66.1385C80.09 66.1655 80.0363 66.2195 79.9825 66.2195Z" fill="#373737"/>
<path d="M13.0059 37.2064C13.0328 37.2064 17.5749 36.7202 17.6018 36.7202C19.9938 36.5581 20.5314 43.2576 18.5425 43.852C17.2255 44.2302 12.6565 45.2567 11.2858 44.5813C10.8289 44.3652 10.7482 43.7439 11.1245 43.4197C10.6945 43.3117 10.3451 43.1226 10.1301 42.6903C9.91506 42.2581 9.99569 41.9339 10.2376 41.6908C9.6463 41.5828 9.1894 41.2586 9.21627 40.6102C9.21627 40.3131 9.35065 40.07 9.56567 39.8538C9.08189 39.6918 8.73249 39.3676 8.70561 38.7192C8.62498 37.0984 11.7964 37.2334 13.0059 37.2064Z" fill="#FFDAB8"/>
<path d="M15.3714 35.9639C16.5002 36.4502 17.5216 37.4227 18.3279 38.2331C18.3547 38.2601 18.3548 38.2601 18.3548 38.2871C18.8385 38.6653 18.7579 39.5028 17.9516 39.5838C16.984 39.6649 15.8283 39.7189 15.1833 39.1246C14.807 38.8004 14.9145 37.936 14.4307 37.6928C13.8126 37.3957 12.9794 37.6658 12.3613 37.8819C11.3131 38.2061 10.1842 37.0715 11.1518 36.6123C12.2537 36.045 14.162 35.4507 15.3714 35.9639Z" fill="#FFDAB8"/>
<path d="M15.5054 43.6089C15.0217 44.3383 14.0003 44.6895 12.9521 44.8515C12.549 44.8515 12.0115 44.8245 11.5008 44.6895C10.5601 44.4733 10.4258 43.2307 10.4258 43.2307C9.64633 42.9605 9.7807 41.853 9.7807 41.853C8.94753 41.5558 9.43131 40.043 9.43131 40.043C8.70564 39.7188 8.73251 38.8544 8.9744 38.5032C9.10879 38.3141 13.3015 36.0719 14.2154 37.4496C14.5648 37.9899 14.4841 38.4492 14.1616 38.8003C14.4572 38.8814 14.6991 39.0165 14.8873 39.2866C15.2904 39.8269 15.1023 40.2861 14.6723 40.6643C15.0217 40.7724 15.2904 41.0155 15.371 41.4748C15.4517 41.934 15.2904 42.2852 14.9679 42.5553C15.4517 42.6364 15.7473 43.2307 15.5054 43.6089Z" fill="#FFDAB8"/>
<path d="M12.9527 44.9865C12.899 44.9865 12.8184 44.9325 12.8184 44.8785C12.8184 44.7974 12.8452 44.7434 12.9259 44.7164C14.1891 44.5273 15.0223 44.1221 15.3985 43.5277C15.4792 43.3927 15.4792 43.2306 15.4254 43.0685C15.3448 42.8794 15.1566 42.7173 14.9416 42.6903C14.8879 42.6903 14.861 42.6363 14.8341 42.5822C14.8072 42.5282 14.8341 42.4742 14.861 42.4472C15.1835 42.177 15.291 41.8529 15.2104 41.5017C15.1566 41.1235 14.9416 40.9074 14.6191 40.7993C14.5653 40.7723 14.5385 40.7453 14.5116 40.6912C14.5116 40.6372 14.5116 40.5832 14.5653 40.5562C15.0222 40.178 15.076 39.7998 14.7535 39.3675C14.5922 39.1514 14.4041 39.0164 14.1085 38.9353C14.0547 38.9353 14.0278 38.8813 14.0278 38.8543C14.0278 38.8273 14.0278 38.7732 14.0547 38.7192C14.3772 38.368 14.3772 37.9898 14.0816 37.5306C14.0278 37.4765 14.0547 37.3955 14.1085 37.3415C14.1622 37.2874 14.2428 37.3144 14.2966 37.3685C14.6728 37.9628 14.5653 38.422 14.3503 38.7192C14.6191 38.8273 14.8072 38.9893 14.9685 39.1784C15.3179 39.6647 15.291 40.151 14.8879 40.5832C15.2104 40.7453 15.3985 41.0154 15.4792 41.4206C15.5598 41.7988 15.4523 42.15 15.2104 42.4742C15.4254 42.5822 15.5867 42.7443 15.6673 42.9604C15.7748 43.2036 15.7479 43.4737 15.6404 43.6628C15.1835 44.3382 14.3235 44.7704 12.9527 44.9865C12.9796 44.9865 12.9527 44.9865 12.9527 44.9865Z" fill="#373737"/>
<path d="M10.4269 43.3659C10.3731 43.3659 10.2925 43.3119 10.2925 43.2579C10.2925 43.1768 10.3193 43.1228 10.4 43.0958L14.9421 42.4204C15.0228 42.4204 15.0765 42.4474 15.1034 42.5285C15.1034 42.6095 15.0765 42.6635 14.9959 42.6906L10.4269 43.3659Z" fill="#373737"/>
<path d="M9.75417 41.9879C9.70042 41.9879 9.64666 41.9338 9.61979 41.8798C9.59291 41.7988 9.64665 41.7447 9.72728 41.7177L14.6188 40.5561C14.6995 40.5291 14.7532 40.5831 14.7801 40.6642C14.807 40.7452 14.7532 40.7992 14.6726 40.8262L9.78104 41.9879C9.78104 41.9879 9.78105 41.9879 9.75417 41.9879Z" fill="#373737"/>
<path d="M9.40505 40.1778C9.35129 40.1778 9.29754 40.1508 9.27066 40.0697C9.24379 39.9887 9.29753 39.9347 9.37816 39.9076L14.1085 38.665C14.1891 38.638 14.2428 38.692 14.2697 38.773C14.2966 38.8541 14.2428 38.9081 14.1622 38.9351L9.43192 40.1778C9.43192 40.1778 9.43192 40.1778 9.40505 40.1778Z" fill="#373737"/>
<path d="M56.1285 8.10992C56.1796 7.93159 56.3353 7.82618 56.4762 7.87447C56.6172 7.92276 56.69 8.10648 56.6389 8.2848L56.5423 8.62182C56.4912 8.80015 56.3356 8.90556 56.1946 8.85727C56.0537 8.80898 55.9808 8.62527 56.0319 8.44694L56.1285 8.10992Z" fill="#373737"/>
<path d="M51.9801 8.11505C52.0312 7.93672 52.1868 7.83131 52.3278 7.8796C52.4687 7.92789 52.5416 8.1116 52.4905 8.28993L52.3939 8.62695C52.3428 8.80528 52.1871 8.91069 52.0462 8.8624C51.9052 8.81411 51.8324 8.6304 51.8835 8.45207L51.9801 8.11505Z" fill="#373737"/>
<path d="M54.0995 11.9682C54.268 12.0536 54.4489 12.0957 54.6328 12.0895C55.1958 12.073 55.5983 11.6348 55.6148 11.6165C55.6751 11.5515 55.6642 11.4618 55.5938 11.4108C55.5235 11.3599 55.4223 11.3736 55.362 11.4385C55.3582 11.4443 55.037 11.786 54.6365 11.7971C54.3905 11.8023 54.1483 11.6833 53.9263 11.4408C53.8718 11.3787 53.7677 11.3718 53.6937 11.426C53.6216 11.4774 53.6093 11.5705 53.667 11.6342C53.8035 11.7799 53.9497 11.8923 54.0995 11.9682Z" fill="#373737"/>
<path d="M104.248 55.0607L102.134 54.7554C101.553 54.6715 101.553 53.8244 102.138 53.7481L104.244 53.462C104.468 53.4315 104.647 53.2521 104.677 53.027L104.969 50.9094C105.049 50.3219 105.892 50.3219 105.972 50.9094L106.264 53.0346C106.294 53.2598 106.469 53.4353 106.693 53.4696L108.807 53.7748C109.388 53.8588 109.388 54.7058 108.803 54.7821L106.697 55.0683C106.473 55.0988 106.294 55.2781 106.264 55.5033L105.972 57.6208C105.892 58.2084 105.049 58.2084 104.969 57.6208L104.677 55.4956C104.651 55.2705 104.472 55.0912 104.248 55.0607Z" fill="#EE542F"/>
<path d="M109.756 50.875L108.682 50.7224C108.386 50.6804 108.389 50.2493 108.685 50.2111L109.756 50.0661C109.87 50.0509 109.961 49.9593 109.976 49.8448L110.124 48.7689C110.166 48.4713 110.591 48.4713 110.633 48.7689L110.781 49.8486C110.796 49.9631 110.887 50.0509 111.001 50.0699L112.075 50.2226C112.371 50.2645 112.368 50.6957 112.071 50.7338L111.001 50.8788C110.887 50.8941 110.796 50.9856 110.781 51.1001L110.633 52.1761C110.591 52.4737 110.166 52.4737 110.124 52.1761L109.976 51.0963C109.957 50.9818 109.87 50.8903 109.756 50.875Z" fill="#F0F0F0"/>
<path d="M101.159 45.1098L100.221 44.9763C99.9628 44.9381 99.9628 44.5642 100.221 44.5299L101.159 44.404C101.257 44.3887 101.337 44.3124 101.352 44.2094L101.481 43.2708C101.515 43.0113 101.891 43.0113 101.925 43.2708L102.054 44.2132C102.07 44.3124 102.146 44.3925 102.244 44.4078L103.182 44.5413C103.44 44.5795 103.44 44.9534 103.182 44.9877L102.244 45.1136C102.146 45.1289 102.066 45.2052 102.051 45.3082L101.922 46.2468C101.887 46.5063 101.512 46.5063 101.477 46.2468L101.348 45.3044C101.333 45.2052 101.257 45.1251 101.159 45.1098Z" fill="#2E4CB7"/>
<path d="M8.50733 28.4183L10.6217 28.1131C11.2025 28.0291 11.2025 27.1821 10.6179 27.1058L8.51113 26.8197C8.28716 26.7891 8.10875 26.6098 8.07838 26.3847L7.78609 24.2671C7.70637 23.6795 6.86365 23.6795 6.78393 24.2671L6.49164 26.3923C6.46127 26.6174 6.28666 26.7929 6.06269 26.8273L3.9483 27.1325C3.36751 27.2165 3.36751 28.0635 3.9521 28.1398L6.05889 28.426C6.28286 28.4565 6.46127 28.6358 6.49164 28.8609L6.78393 30.9785C6.86365 31.5661 7.70637 31.5661 7.78609 30.9785L8.07838 28.8533C8.10495 28.6282 8.28336 28.4527 8.50733 28.4183Z" fill="#EE542F"/>
<path d="M2.99853 24.2332L4.07281 24.0805C4.3689 24.0386 4.3651 23.6074 4.06901 23.5693L2.99853 23.4243C2.88465 23.409 2.79355 23.3174 2.77837 23.203L2.63032 22.127C2.58856 21.8294 2.16341 21.8294 2.12165 22.127L1.97361 23.2068C1.95842 23.3213 1.86732 23.409 1.75344 23.4281L0.679163 23.5807C0.383073 23.6227 0.386869 24.0538 0.682959 24.092L1.75344 24.237C1.86732 24.2522 1.95842 24.3438 1.97361 24.4583L2.12165 25.5342C2.16341 25.8318 2.58856 25.8318 2.63032 25.5342L2.77837 24.4544C2.79735 24.34 2.88465 24.2522 2.99853 24.2332Z" fill="#F0F0F0"/>
<path d="M11.5963 18.4719L12.5339 18.3383C12.792 18.3002 12.792 17.9263 12.5339 17.8919L11.5963 17.766C11.4976 17.7508 11.4179 17.6744 11.4027 17.5714L11.2736 16.6328C11.2394 16.3734 10.8636 16.3734 10.8295 16.6328L10.7004 17.5752C10.6852 17.6744 10.6093 17.7546 10.5106 17.7698L9.57299 17.9034C9.31486 17.9415 9.31486 18.3154 9.57299 18.3498L10.5106 18.4757C10.6093 18.491 10.689 18.5673 10.7042 18.6703L10.8333 19.6089C10.8674 19.8683 11.2432 19.8683 11.2774 19.6089L11.4065 18.6626C11.4217 18.5634 11.4976 18.4833 11.5963 18.4719Z" fill="#2E4CB7"/>
<path d="M54.8192 126.308C37.2286 126.308 19.6322 126.304 2.16276 126.301C2.01276 126.301 1.8916 126.22 1.8916 126.121C1.8916 126.022 2.01276 125.942 2.16276 125.942C37.1074 125.953 72.5367 125.953 107.476 125.942C107.626 125.942 107.747 126.022 107.747 126.121C107.747 126.22 107.626 126.301 107.476 126.301C90.0061 126.304 72.4155 126.308 54.8192 126.308Z" fill="#373737"/>
</svg>
