<svg width="369" height="225" viewBox="0 0 369 225" fill="none" xmlns="http://www.w3.org/2000/svg">
<path opacity="0.5" d="M343.035 117.745C335.987 104.412 335.416 92.971 339.063 78.4109C343.088 62.3321 346.978 41.7968 337.341 27.169C328.849 14.2809 315.505 5.14344 301.209 1.7815C283.058 -2.49669 267.857 4.42328 253.304 15.8959C233.339 31.6468 198.785 44.4956 174.157 37.5257C152.652 31.4364 136.759 11.1436 114.095 7.22192C98.4796 4.51241 75.1742 8.82624 70.1474 27.8C68.8283 32.7912 68.8817 38.196 66.7462 42.8342C61.8049 53.5582 49.2769 52.5386 39.9113 53.5083C29.772 54.5529 19.1407 59.7723 11.2974 66.6566C6.0851 71.2414 1.87109 77.4661 0.601896 84.5822C-0.895469 92.9282 2.38447 102.383 9.53617 106.561C20.0855 112.736 31.5153 110.647 34.4281 125.881C37.5333 142.12 36.0894 158.427 41.0414 174.581C53.6656 215.798 94.4047 230.693 131.953 222.846C161.419 216.693 186.756 196.678 216.732 192.346C229.032 190.564 242.134 191.708 253.425 197.58C264.217 203.195 273.033 213.295 284.859 216.529C292.117 218.507 299.758 217.58 307.166 216.429C320.357 214.382 334.357 211.159 343.591 200.828C350.237 193.391 353.492 183.187 355.481 173.094C359.902 150.684 353.057 136.705 343.035 117.745Z" fill="url(#paint0_linear_2643_38691)"/>
<path opacity="0.5" d="M359.299 121.192C349.38 115.791 338.917 117.57 334.607 105.149C327.209 83.8438 333.127 60.6596 320.396 40.4809C303.836 14.252 265.186 7.57807 236.875 13.0684C207.405 18.7727 182.071 37.397 152.096 41.4221C139.792 43.0763 126.694 42.0175 115.403 36.5592C100.34 29.2756 88.258 18.2593 70.5641 18.9117C42.0036 19.9741 19.7 29.3433 13.3469 59.3334C8.93328 80.161 15.7748 93.1667 25.7965 110.789C32.8483 123.189 33.4188 133.824 29.7716 147.361C25.7465 162.313 21.857 181.404 31.49 195.002C39.9822 206.984 53.3266 215.48 67.6264 218.607C85.7766 222.578 232.062 209.897 254.726 213.551C270.355 216.072 293.657 212.057 298.684 194.417C300.003 189.782 299.953 184.748 302.089 180.442C307.03 170.459 319.558 171.418 328.924 170.516C339.059 169.543 349.684 164.705 357.53 158.291C362.75 154.013 366.964 148.241 368.226 141.624C369.727 133.856 366.433 125.078 359.299 121.192Z" fill="url(#paint1_linear_2643_38691)"/>
<g opacity="0.3">
<path d="M113.992 53.1412C112.502 46.674 108.787 48.8915 102.583 46.9022C96.3799 44.9128 98.1839 37.8146 94.3264 35.6256C89.1818 32.7057 84.4544 35.4153 81.2565 39.2478C75.9373 45.6152 72.2973 40.4386 65.9263 43.0162C62.2863 44.4957 63.8372 46.5813 58.9137 47.4013C55.4697 47.9824 51.7442 46.6098 48.3501 47.4476C45.8545 48.0715 44.0149 49.1589 43.4587 51.3693C44.1718 51.6759 44.9026 51.9504 45.662 52.2C55.1596 55.3266 68.1225 54.282 77.7163 54.7419C80.9891 54.9095 115.043 57.726 113.992 53.1412Z" fill="url(#paint2_linear_2643_38691)"/>
<path d="M137.86 21.3505C137.071 20.4681 136.059 19.8144 134.929 19.4581C133.8 19.1018 132.596 19.056 131.443 19.3255C128.841 19.9209 127.372 22.1777 124.951 23.0939C120.73 24.6768 114.89 21.5502 111.685 25.6323C107.763 30.6235 104.733 26.8801 104.733 30.267C104.733 33.6539 131.828 31.1583 145.198 31.3365C147.13 31.3615 155.515 31.2331 151.904 27.5717C150.784 26.4345 149.183 26.2455 147.693 25.9781C145.75 25.6216 141.126 25.4433 139.718 24.0601C138.962 23.3185 138.67 22.249 137.985 21.4539C137.935 21.4183 137.907 21.3826 137.86 21.3505Z" fill="url(#paint3_linear_2643_38691)"/>
</g>
<path d="M215.277 27.3504C215.267 26.471 214.914 25.6305 214.292 25.0083C213.671 24.3861 212.83 24.0316 211.951 24.0205H143.372C141.536 24.0205 139.728 25.5999 139.728 27.4537V192.927C139.796 193.83 140.199 194.675 140.859 195.295C141.519 195.916 142.388 196.266 143.293 196.278L214.996 196.082C215.441 196.08 215.881 195.99 216.291 195.816C216.701 195.643 217.073 195.391 217.384 195.073C218.013 194.423 218.358 193.549 218.343 192.645L215.277 27.3504Z" fill="url(#paint4_linear_2643_38691)"/>
<g opacity="0.5">
<path d="M164.777 43.518L145.24 43.493L145.083 33.4072H164.641L164.777 43.518Z" fill="white"/>
<path d="M186.674 43.5144L167.158 43.4859L167.023 33.4072H186.56L186.674 43.5144Z" fill="white"/>
<path d="M208.55 43.5073L189.052 43.4824L188.938 33.4072H208.457L208.55 43.5073Z" fill="white"/>
<path d="M165.019 61.618L145.518 61.6287L145.364 51.6106L164.883 51.6035L165.019 61.618Z" fill="white"/>
<path d="M186.881 61.6002L167.397 61.6144L167.265 51.6035L186.763 51.5928L186.881 61.6002Z" fill="white"/>
<path d="M208.717 61.5898L189.255 61.6005L189.141 51.5931L208.625 51.5859L208.717 61.5898Z" fill="white"/>
<path d="M165.261 79.5902L145.795 79.6116L145.639 69.6291L165.129 69.6113L165.261 79.5902Z" fill="white"/>
<path d="M187.084 79.569L167.636 79.5869L167.504 69.6116L186.97 69.5938L187.084 79.569Z" fill="white"/>
<path d="M208.885 79.5434L189.455 79.5648L189.344 69.593L208.792 69.5752L208.885 79.5434Z" fill="white"/>
<path d="M165.504 97.5018L146.07 97.5303L145.917 87.5835L165.372 87.5586L165.504 97.5018Z" fill="white"/>
<path d="M187.29 97.4693L167.875 97.4978L167.743 87.5546L187.176 87.5332L187.29 97.4693Z" fill="white"/>
<path d="M209.052 97.4374L189.654 97.4659L189.543 87.5298L208.959 87.5049L209.052 97.4374Z" fill="white"/>
<path d="M165.746 115.352L146.345 115.388L146.195 105.473L165.614 105.444L165.746 115.352Z" fill="white"/>
<path d="M187.494 115.309L168.114 115.348L167.982 105.437L187.38 105.405L187.494 115.309Z" fill="white"/>
<path d="M209.216 115.271L189.853 115.306L189.743 105.402L209.123 105.37L209.216 115.271Z" fill="white"/>
<path d="M165.988 133.139L146.619 133.185L146.469 123.306L165.853 123.267L165.988 133.139Z" fill="white"/>
<path d="M187.697 133.089L168.349 133.135L168.217 123.26L187.583 123.221L187.697 133.089Z" fill="white"/>
<path d="M209.384 133.043L190.054 133.085L189.943 123.217L209.291 123.178L209.384 133.043Z" fill="white"/>
<path d="M166.228 150.869L146.894 150.919L146.744 141.075L166.096 141.025L166.228 150.869Z" fill="white"/>
<path d="M187.9 150.808L168.584 150.861L168.452 141.022L187.786 140.972L187.9 150.808Z" fill="white"/>
<path d="M209.548 150.751L190.253 150.801L190.143 140.968L209.455 140.918L209.548 150.751Z" fill="white"/>
<path d="M166.467 168.533L147.168 168.594L147.015 158.783L166.335 158.726L166.467 168.533Z" fill="white"/>
<path d="M188.1 168.466L168.82 168.526L168.688 158.719L187.989 158.665L188.1 168.466Z" fill="white"/>
<path d="M209.712 168.399L190.449 168.459L190.342 158.659L209.619 158.602L209.712 168.399Z" fill="white"/>
<path d="M166.705 186.138L147.439 186.206L147.286 176.427L166.573 176.366L166.705 186.138Z" fill="white"/>
<path d="M188.303 186.063L169.055 186.131L168.923 176.359L188.189 176.295L188.303 186.063Z" fill="white"/>
<path d="M209.876 185.989L190.649 186.056L190.538 176.288L209.786 176.224L209.876 185.989Z" fill="white"/>
</g>
<path d="M154.616 79.8577C154.584 78.8345 153.286 77.9932 151.693 77.9932H91.5127C89.8977 77.9932 88.3041 78.8809 88.3041 79.9148V172.523C88.3041 173.022 88.7497 173.5 89.2988 173.853C89.9496 174.224 90.6887 174.413 91.4378 174.398L154.37 174.288C155.109 174.302 155.837 174.107 156.47 173.725C156.714 173.589 156.92 173.393 157.067 173.155C157.214 172.917 157.298 172.646 157.311 172.366L154.616 79.8577Z" fill="url(#paint5_linear_2643_38691)"/>
<g opacity="0.5">
<path d="M110.294 88.9059L93.1458 88.8917L93.0104 83.248H110.177L110.294 88.9059Z" fill="white"/>
<path d="M129.514 88.9059L112.383 88.8881L112.266 83.248H129.414L129.514 88.9059Z" fill="white"/>
<path d="M148.716 88.9024L131.603 88.8881L131.503 83.248H148.634L148.716 88.9024Z" fill="white"/>
<path d="M110.508 99.0344L93.3919 99.0416L93.2565 93.4372L110.391 93.4336L110.508 99.0344Z" fill="white"/>
<path d="M129.696 99.0276L112.594 99.0347L112.48 93.4339L129.596 93.4268L129.696 99.0276Z" fill="white"/>
<path d="M148.862 99.0201L131.781 99.0273L131.682 93.4264L148.78 93.4229L148.862 99.0201Z" fill="white"/>
<path d="M110.722 109.096L93.6345 109.106L93.499 103.52L110.605 103.513L110.722 109.096Z" fill="white"/>
<path d="M129.874 109.081L112.804 109.096L112.686 103.509L129.774 103.502L129.874 109.081Z" fill="white"/>
<path d="M149.008 109.071L131.956 109.081L131.859 103.498L148.929 103.491L149.008 109.071Z" fill="white"/>
<path d="M110.936 119.121L93.8763 119.135L93.7408 113.57L110.818 113.556L110.936 119.121Z" fill="white"/>
<path d="M130.056 119.103L113.014 119.118L112.897 113.552L129.956 113.538L130.056 119.103Z" fill="white"/>
<path d="M149.158 119.085L132.13 119.099L132.034 113.538L149.076 113.523L149.158 119.085Z" fill="white"/>
<path d="M111.146 129.11L94.1189 129.128L93.9834 123.58L111.028 123.562L111.146 129.11Z" fill="white"/>
<path d="M130.234 129.085L113.222 129.107L113.107 123.563L130.135 123.545L130.234 129.085Z" fill="white"/>
<path d="M149.304 129.064L132.309 129.085L132.209 123.541L149.222 123.523L149.304 129.064Z" fill="white"/>
<path d="M111.36 139.064L94.3577 139.089L94.2258 133.559L111.242 133.538L111.36 139.064Z" fill="white"/>
<path d="M130.412 139.036L113.431 139.061L113.314 133.535L130.312 133.514L130.412 139.036Z" fill="white"/>
<path d="M149.447 139.007L132.484 139.032L132.384 133.51L149.369 133.488L149.447 139.007Z" fill="white"/>
<path d="M111.57 148.986L94.6001 149.014L94.4646 143.506L111.453 143.478L111.57 148.986Z" fill="white"/>
<path d="M130.59 148.954L113.638 148.982L113.524 143.474L130.49 143.449L130.59 148.954Z" fill="white"/>
<path d="M149.593 148.918L132.655 148.95L132.558 143.446L149.511 143.417L149.593 148.918Z" fill="white"/>
<path d="M111.777 158.872L94.8394 158.904L94.704 153.414L111.663 153.382L111.777 158.872Z" fill="white"/>
<path d="M130.769 158.833L113.845 158.868L113.727 153.378L130.669 153.35L130.769 158.833Z" fill="white"/>
<path d="M149.735 158.798L132.829 158.83L132.733 153.347L149.657 153.314L149.735 158.798Z" fill="white"/>
<path d="M111.987 168.726L95.0778 168.762L94.9459 163.29L111.873 163.254L111.987 168.726Z" fill="white"/>
<path d="M130.944 168.684L114.048 168.719L113.934 163.25L130.847 163.215L130.944 168.684Z" fill="white"/>
<path d="M149.882 168.641L133.004 168.677L132.908 163.211L149.8 163.176L149.882 168.641Z" fill="white"/>
</g>
<path d="M277.689 77.779C277.667 77.2014 276.794 76.7344 275.724 76.7344H210.838C209.769 76.7344 208.603 77.2157 208.603 77.8039V159.884C208.603 160.323 209.063 160.744 209.633 161.054C210.328 161.386 211.091 161.552 211.862 161.539L277.46 161.439C278.218 161.454 278.969 161.284 279.646 160.943C280.216 160.626 280.537 160.198 280.523 159.756L277.689 77.779Z" fill="url(#paint6_linear_2643_38691)"/>
<g style="mix-blend-mode:overlay">
<path d="M240.422 82.5499L219.195 82.5106L219.202 81.0703L240.408 81.1095L240.422 82.5499Z" fill="white"/>
</g>
<g style="mix-blend-mode:overlay">
<path d="M240.482 87.8541L219.166 87.8006L219.173 86.3496L240.464 86.3995L240.482 87.8541Z" fill="white"/>
</g>
<g style="mix-blend-mode:overlay">
<path d="M240.54 93.1984L219.138 93.1342L219.145 91.6689L240.526 91.7331L240.54 93.1984Z" fill="white"/>
</g>
<g style="mix-blend-mode:overlay">
<path d="M240.6 98.5886L219.11 98.5102L219.117 97.0342L240.583 97.1091L240.6 98.5886Z" fill="white"/>
</g>
<g style="mix-blend-mode:overlay">
<path d="M240.657 104.026L219.077 103.933L219.088 102.446L240.643 102.532L240.657 104.026Z" fill="white"/>
</g>
<g style="mix-blend-mode:overlay">
<path d="M240.779 115.031L219.017 114.914L219.028 113.398L240.765 113.516L240.779 115.031Z" fill="white"/>
</g>
<g style="mix-blend-mode:overlay">
<path d="M240.964 131.898L218.924 131.734L218.935 130.18L240.946 130.34L240.964 131.898Z" fill="white"/>
</g>
<g style="mix-blend-mode:overlay">
<path d="M240.718 109.506L219.049 109.399L219.057 107.901L240.704 108.001L240.718 109.506Z" fill="white"/>
</g>
<g style="mix-blend-mode:overlay">
<path d="M240.839 120.608L218.989 120.472L218.996 118.946L240.825 119.078L240.839 120.608Z" fill="white"/>
</g>
<g style="mix-blend-mode:overlay">
<path d="M240.903 126.23L218.956 126.08L218.963 124.54L240.885 124.686L240.903 126.23Z" fill="white"/>
</g>
<g style="mix-blend-mode:overlay">
<path d="M241.028 137.613L218.892 137.435L218.903 135.87L241.01 136.045L241.028 137.613Z" fill="white"/>
</g>
<g style="mix-blend-mode:overlay">
<path d="M241.089 143.381L218.864 143.185L218.871 141.609L241.074 141.798L241.089 143.381Z" fill="white"/>
</g>
<g style="mix-blend-mode:overlay">
<path d="M241.153 149.197L218.832 148.987L218.839 147.396L241.135 147.6L241.153 149.197Z" fill="white"/>
</g>
<g style="mix-blend-mode:overlay">
<path d="M241.217 155.061L218.799 154.837L218.807 153.232L241.203 153.453L241.217 155.061Z" fill="white"/>
</g>
<g style="mix-blend-mode:overlay">
<path d="M268.252 82.6032L246.893 82.564L246.871 81.1201L268.205 81.1558L268.252 82.6032Z" fill="white"/>
</g>
<g style="mix-blend-mode:overlay">
<path d="M268.426 87.9221L246.978 87.8686L246.953 86.4141L268.38 86.464L268.426 87.9221Z" fill="white"/>
</g>
<g style="mix-blend-mode:overlay">
<path d="M268.601 93.284L247.064 93.2198L247.039 91.751L268.555 91.8151L268.601 93.284Z" fill="white"/>
</g>
<g style="mix-blend-mode:overlay">
<path d="M268.779 98.6927L247.149 98.6143L247.125 97.1348L268.729 97.2096L268.779 98.6927Z" fill="white"/>
</g>
<g style="mix-blend-mode:overlay">
<path d="M268.954 104.147L247.235 104.054L247.214 102.561L268.908 102.65L268.954 104.147Z" fill="white"/>
</g>
<g style="mix-blend-mode:overlay">
<path d="M269.314 115.192L247.413 115.071L247.388 113.552L269.264 113.669L269.314 115.192Z" fill="white"/>
</g>
<g style="mix-blend-mode:overlay">
<path d="M269.867 132.113L247.684 131.949L247.659 130.391L269.817 130.551L269.867 132.113Z" fill="white"/>
</g>
<g style="mix-blend-mode:overlay">
<path d="M269.136 109.645L247.324 109.538L247.299 108.033L269.086 108.137L269.136 109.645Z" fill="white"/>
</g>
<g style="mix-blend-mode:overlay">
<path d="M269.496 120.782L247.503 120.647L247.478 119.117L269.446 119.249L269.496 120.782Z" fill="white"/>
</g>
<g style="mix-blend-mode:overlay">
<path d="M269.681 126.422L247.591 126.272L247.567 124.729L269.631 124.875L269.681 126.422Z" fill="white"/>
</g>
<g style="mix-blend-mode:overlay">
<path d="M270.052 137.848L247.774 137.67L247.749 136.098L270.002 136.272L270.052 137.848Z" fill="white"/>
</g>
<g style="mix-blend-mode:overlay">
<path d="M270.241 143.634L247.866 143.438L247.841 141.855L270.188 142.048L270.241 143.634Z" fill="white"/>
</g>
<g style="mix-blend-mode:overlay">
<path d="M270.43 149.471L247.959 149.26L247.934 147.663L270.38 147.87L270.43 149.471Z" fill="white"/>
</g>
<g style="mix-blend-mode:overlay">
<path d="M270.623 155.357L248.055 155.132L248.027 153.521L270.569 153.742L270.623 155.357Z" fill="white"/>
</g>
<path d="M57.3952 52.7704C55.2561 53.6617 53.1776 55.0557 52.4789 56.5637C49.338 63.366 56.1724 71.844 58.8248 77.6302C63.3847 87.5806 65.7198 98.6325 64.3009 109.542C62.7643 121.368 62.2367 132.929 64.7893 144.701C66.1013 150.762 68.4721 157.115 72.8929 161.664C81.2532 170.253 99.7849 163.483 102.462 152.777C104.601 144.238 102.619 135.325 99.7207 127.236C94.8436 113.624 87.8095 100.918 82.8468 87.3417C79.0535 76.9635 78.2442 55.6938 65.292 52.1394C62.9248 51.4905 59.6591 51.8221 57.3952 52.7704Z" fill="url(#paint7_linear_2643_38691)"/>
<path d="M87.7021 182.26H87.6308C87.4902 182.241 87.3629 182.166 87.2768 182.053C87.1907 181.941 87.1526 181.798 87.1709 181.658C91.9945 144.961 84.1191 113.053 76.6608 92.7461C68.5786 70.7313 59.2308 57.2301 59.1381 57.0946C59.0567 56.9783 59.025 56.8345 59.0497 56.6947C59.0744 56.555 59.1537 56.4308 59.27 56.3495C59.3863 56.2682 59.5301 56.2364 59.6698 56.2611C59.8096 56.2859 59.9338 56.3651 60.0151 56.4814C60.1078 56.6169 69.5198 70.2108 77.6519 92.3433C85.1387 112.768 93.0854 144.869 88.2297 181.797C88.2132 181.925 88.1505 182.043 88.0534 182.128C87.9563 182.213 87.8314 182.26 87.7021 182.26Z" fill="url(#paint8_linear_2643_38691)"/>
<path d="M74.5754 155.5C72.6787 149.728 67.6198 144.555 63.7801 139.378C61.7515 136.64 60.0117 133.785 58.9672 130.522C57.9226 127.26 57.698 123.317 54.885 120.982C49.2165 116.28 44.3714 122.173 43.0951 128.512C41.6013 135.87 44.8277 145.047 46.5925 152.466C47.662 156.937 48.3038 161.757 49.8617 166.081C52.4394 173.24 56.3289 177.151 61.1526 178.684C63.4033 179.399 65.825 179.366 68.0555 178.59C70.286 177.815 72.2055 176.338 73.5272 174.381C75.9943 170.752 77.6307 164.812 74.5754 155.5Z" fill="url(#paint9_linear_2643_38691)"/>
<path d="M72.7854 187.912C72.7015 187.911 72.6188 187.892 72.5439 187.854C72.469 187.816 72.404 187.761 72.354 187.694C72.1365 187.395 50.3819 157.529 47.7544 126.07C47.7486 126 47.7566 125.93 47.7781 125.862C47.7995 125.795 47.834 125.733 47.8795 125.679C47.9251 125.625 47.9807 125.581 48.0434 125.549C48.106 125.517 48.1744 125.497 48.2446 125.491C48.3149 125.485 48.3855 125.493 48.4527 125.515C48.5198 125.536 48.582 125.571 48.6358 125.616C48.6896 125.662 48.7339 125.717 48.7662 125.78C48.7985 125.843 48.8181 125.911 48.824 125.981C51.4337 157.134 73.0135 186.764 73.231 187.06C73.2884 187.14 73.3228 187.234 73.3303 187.332C73.3379 187.43 73.3183 187.529 73.2738 187.616C73.2294 187.704 73.1616 187.778 73.078 187.83C72.9944 187.882 72.8981 187.91 72.7996 187.912H72.7854Z" fill="url(#paint10_linear_2643_38691)"/>
<path d="M296.188 117.688C294.72 114.633 293.671 111.435 293.429 107.952C292.812 99.1813 297.91 91.099 301.657 83.5481C305.101 76.6031 307.661 66.2606 296.042 67.1804C286.773 67.9149 275.903 77.1379 274.651 86.7603C273.179 98.1438 278.723 112.501 272.156 122.843C262.961 137.311 256.33 133.995 256.33 158.409C256.33 168.841 262.109 174.599 268.726 177.768C273.827 180.211 279.553 181.034 285.136 180.127C290.718 179.219 295.889 176.624 299.953 172.691C307.308 165.561 311.679 155.347 310.199 145.075C308.716 134.704 300.581 126.836 296.188 117.688Z" fill="url(#paint11_linear_2643_38691)"/>
<path d="M288.42 196.396C288.301 196.396 288.185 196.356 288.092 196.282C287.998 196.208 287.932 196.106 287.903 195.99C282.138 172.988 278.99 152.139 278.58 134.013C278.224 119.489 279.632 106.672 282.716 95.9126C287.992 77.5021 296.295 71.5697 296.648 71.313C296.765 71.2321 296.909 71.201 297.049 71.2264C297.189 71.2518 297.313 71.3317 297.394 71.4485C297.474 71.5652 297.506 71.7093 297.48 71.8491C297.455 71.9888 297.375 72.1127 297.258 72.1936C297.237 72.1936 295.144 73.691 292.438 77.388C289.942 80.807 286.399 86.8678 283.703 96.3368C280.666 106.993 279.304 119.699 279.65 134.099C280.085 152.114 283.215 172.845 288.941 195.715C288.958 195.784 288.961 195.854 288.951 195.924C288.941 195.993 288.917 196.06 288.881 196.12C288.845 196.181 288.797 196.233 288.741 196.275C288.684 196.317 288.62 196.347 288.552 196.364C288.509 196.38 288.465 196.391 288.42 196.396Z" fill="url(#paint12_linear_2643_38691)"/>
<path d="M305.423 91.9509C304.946 91.8249 304.45 91.7911 303.961 91.8511C301.063 92.1827 299.875 95.238 299.023 97.6267C298.31 99.6695 297.437 102.151 297.868 104.368C298.332 106.761 300.877 108.714 302.72 106.283C304.82 103.52 307.968 99.2773 307.986 95.6124C307.986 93.7941 306.963 92.3716 305.423 91.9509Z" fill="url(#paint13_linear_2643_38691)"/>
<path d="M334.005 148.224C335.192 140.42 332.354 131.468 330.939 123.211C330.19 118.847 329.844 114.519 330.546 110.124C331.249 105.728 333.295 101.025 331.402 96.6722C327.587 87.9019 318.518 91.8913 313.323 98.494C307.294 106.159 305.647 118.68 303.341 128.324C301.961 134.135 299.882 140.089 299.155 146.021C297.947 155.836 300.168 162.645 304.859 167.248C307.05 169.395 309.877 170.775 312.917 171.183C315.957 171.59 319.048 171.003 321.726 169.508C326.717 166.727 332.094 160.813 334.005 148.224Z" fill="url(#paint14_linear_2643_38691)"/>
<path d="M313.266 184.664C313.139 184.664 313.017 184.619 312.92 184.537C312.824 184.456 312.759 184.343 312.738 184.218C312.717 184.1 310.742 172.182 310.692 155.743C310.645 140.559 312.271 118.309 320.318 98.4439C320.371 98.3124 320.474 98.2076 320.605 98.1524C320.736 98.0973 320.883 98.0963 321.015 98.1497C321.146 98.2031 321.251 98.3066 321.306 98.4373C321.361 98.568 321.362 98.7153 321.309 98.8467C313.348 118.53 311.733 140.637 311.779 155.718C311.829 172.075 313.79 183.922 313.811 184.04C313.823 184.109 313.821 184.18 313.805 184.248C313.789 184.317 313.76 184.382 313.72 184.439C313.679 184.496 313.627 184.545 313.568 184.582C313.508 184.62 313.442 184.645 313.373 184.656L313.266 184.664Z" fill="url(#paint15_linear_2643_38691)"/>
<path d="M251.453 77.3339C264.583 77.3339 275.226 66.6907 275.226 53.5615C275.226 40.4323 264.583 29.7891 251.453 29.7891C238.324 29.7891 227.681 40.4323 227.681 53.5615C227.681 66.6907 238.324 77.3339 251.453 77.3339Z" fill="url(#paint16_linear_2643_38691)"/>
<path d="M275.183 52.2852H227.677C227.677 52.2852 225.784 65.4762 247.004 101.623C247.464 102.394 248.115 103.033 248.895 103.477C249.676 103.922 250.558 104.156 251.455 104.158C252.353 104.16 253.236 103.929 254.018 103.488C254.8 103.047 255.454 102.41 255.917 101.641C277.115 65.4941 275.183 52.2852 275.183 52.2852Z" fill="url(#paint17_linear_2643_38691)"/>
<path d="M251.443 104.914V105.05C250.423 105.043 249.422 104.771 248.538 104.261C247.654 103.751 246.918 103.02 246.402 102.14C233.999 81.0133 229.453 67.6547 227.827 60.1786C227.371 58.5017 227.097 56.7804 227.011 55.0447C226.912 54.1852 226.905 53.3175 226.99 52.4564L227.054 52.075C227.494 45.8823 230.272 40.0886 234.825 35.8683C239.378 31.6481 245.366 29.3171 251.574 29.348C257.782 29.3788 263.747 31.7691 268.258 36.0344C272.769 40.2996 275.489 46.1206 275.868 52.3174C275.91 52.7522 275.924 53.1892 275.911 53.6258V53.7114C275.911 56.0375 275.581 58.3518 274.93 60.585C273.244 68.0718 268.673 81.2807 256.48 102.051C255.969 102.931 255.233 103.66 254.348 104.163C253.463 104.666 252.461 104.925 251.443 104.914ZM228.326 53.3549C228.326 53.7114 228.326 54.2212 228.394 54.9877C228.474 56.6262 228.733 58.251 229.168 59.8327V59.8613C230.772 67.234 235.268 80.4251 247.589 101.41C247.985 102.077 248.548 102.631 249.222 103.015C249.897 103.399 250.659 103.602 251.436 103.602C252.211 103.582 252.968 103.37 253.641 102.985C254.314 102.6 254.88 102.053 255.29 101.395C267.411 80.7566 271.925 67.6404 273.586 60.2712V60.2285C274.169 58.1064 274.445 55.9117 274.406 53.7114L274.267 53.6151C274.277 53.2271 274.312 52.8401 274.37 52.4564L274.438 52.4172C274.099 46.5482 271.525 41.0319 267.245 37.0018C262.965 32.9717 257.304 30.7339 251.425 30.7482C239.2 30.7482 229.097 40.3991 228.398 52.6561V53.3691L228.326 53.3549Z" fill="url(#paint18_linear_2643_38691)"/>
<path opacity="0.8" d="M258.258 65.4386C264.865 61.7207 267.206 53.3514 263.488 46.7451C259.77 40.1389 251.401 37.7974 244.795 41.5153C238.188 45.2331 235.847 53.6025 239.565 60.2087C243.283 66.815 251.652 69.1565 258.258 65.4386Z" fill="white"/>
<path d="M251.528 67.9723C248.661 67.9723 245.858 67.1221 243.474 65.5293C241.09 63.9365 239.232 61.6725 238.135 59.0237C237.038 56.375 236.751 53.4603 237.31 50.6484C237.87 47.8364 239.25 45.2535 241.278 43.2262C243.305 41.1989 245.888 39.8183 248.7 39.259C251.512 38.6997 254.426 38.9867 257.075 40.0839C259.724 41.1811 261.988 43.0391 263.581 45.4229C265.174 47.8067 266.024 50.6094 266.024 53.4764C266.02 57.3198 264.491 61.0047 261.774 63.7224C259.056 66.4401 255.371 67.9685 251.528 67.9723ZM251.528 40.5206C248.965 40.5213 246.46 41.282 244.329 42.7064C242.198 44.1308 240.538 46.155 239.557 48.5231C238.577 50.8912 238.321 53.4968 238.821 56.0104C239.322 58.524 240.556 60.8328 242.369 62.6449C244.182 64.4569 246.491 65.6908 249.004 66.1905C251.518 66.6903 254.124 66.4334 256.491 65.4525C258.859 64.4715 260.883 62.8105 262.307 60.6794C263.731 58.5483 264.491 56.0429 264.491 53.48C264.487 50.0435 263.12 46.7489 260.69 44.3192C258.259 41.8896 254.964 40.5235 251.528 40.5206Z" fill="url(#paint19_linear_2643_38691)"/>
<path d="M238.508 39.1905C238.475 39.1904 238.443 39.1833 238.413 39.1698C238.382 39.1563 238.356 39.1366 238.334 39.112C238.314 39.0892 238.298 39.0626 238.289 39.0339C238.279 39.0051 238.276 38.9748 238.278 38.9446C238.28 38.9144 238.289 38.885 238.302 38.858C238.316 38.8311 238.335 38.8071 238.358 38.7876C242.22 35.4725 247.141 33.65 252.23 33.6502C252.263 33.6462 252.296 33.6491 252.328 33.6588C252.359 33.6685 252.388 33.6847 252.413 33.7065C252.437 33.7282 252.457 33.7549 252.47 33.7849C252.484 33.8148 252.491 33.8473 252.491 33.8802C252.491 33.913 252.484 33.9455 252.47 33.9755C252.457 34.0054 252.437 34.0321 252.413 34.0539C252.388 34.0756 252.359 34.0919 252.328 34.1016C252.296 34.1113 252.263 34.1142 252.23 34.1101C247.252 34.1106 242.437 35.8924 238.658 39.1334C238.617 39.1708 238.564 39.1912 238.508 39.1905Z" fill="white"/>
<path d="M231.157 55.1835C231.096 55.1835 231.037 55.1596 230.994 55.1169C230.951 55.0742 230.926 55.0162 230.925 54.9553C230.921 50.9884 232.028 47.0995 234.119 43.7287C234.152 43.6776 234.204 43.6413 234.263 43.6274C234.322 43.6134 234.384 43.6229 234.437 43.6538C234.488 43.6862 234.525 43.7377 234.539 43.7971C234.553 43.8565 234.543 43.919 234.511 43.9711C232.47 47.2669 231.389 51.0676 231.392 54.9447C231.393 54.9761 231.388 55.0075 231.377 55.037C231.366 55.0664 231.349 55.0931 231.327 55.1156C231.304 55.138 231.278 55.1556 231.249 55.1673C231.219 55.179 231.188 55.1845 231.157 55.1835Z" fill="white"/>
<path d="M87.2883 183.484H281.536C281.724 183.469 281.903 183.395 282.047 183.274C282.192 183.152 282.294 182.989 282.341 182.806C282.393 182.627 282.386 182.435 282.322 182.26C282.258 182.084 282.14 181.934 281.985 181.829C277.379 178.952 272.769 176.125 268.159 173.234C268.023 173.163 267.87 173.132 267.717 173.145H101.114C100.962 173.126 100.807 173.151 100.668 173.216C96.0621 176.097 91.4524 178.945 86.8426 181.822C86.6875 181.931 86.5699 182.086 86.5061 182.265C86.4423 182.443 86.4353 182.638 86.4861 182.82C86.5335 183.001 86.6364 183.162 86.7803 183.281C86.9243 183.4 87.1019 183.471 87.2883 183.484Z" fill="url(#paint20_linear_2643_38691)"/>
<path d="M56.2183 203.091H312.603C312.977 203.091 313.316 202.667 313.412 202.307C313.463 202.119 313.456 201.921 313.392 201.737C313.329 201.553 313.211 201.393 313.055 201.277C308.446 198.399 303.84 195.64 299.23 192.763C299.098 192.677 298.945 192.763 298.788 192.763H70.0546C69.8978 192.763 69.7445 192.645 69.6126 192.727C65.0028 195.604 60.3931 198.403 55.7833 201.284C55.6278 201.409 55.5116 201.577 55.4484 201.766C55.3852 201.956 55.3777 202.159 55.4268 202.353C55.4709 202.541 55.5696 202.711 55.7105 202.842C55.8514 202.974 56.0281 203.06 56.2183 203.091Z" fill="url(#paint21_linear_2643_38691)"/>
<path d="M344.108 220.582C339.498 217.705 334.889 214.917 330.282 212.025C330.147 211.943 329.994 211.99 329.837 211.99H38.9951C38.8382 211.99 38.6849 211.943 38.553 212.025C33.9433 214.902 29.3335 217.73 24.7273 220.614C24.5714 220.729 24.4539 220.889 24.3903 221.072C24.3267 221.255 24.3199 221.453 24.3708 221.64C24.4148 221.826 24.5153 221.993 24.6583 222.119C24.8014 222.245 24.98 222.323 25.1694 222.343H343.662C343.854 222.32 344.034 222.24 344.178 222.113C344.323 221.985 344.425 221.817 344.472 221.63C344.521 221.439 344.513 221.237 344.448 221.051C344.384 220.864 344.265 220.701 344.108 220.582Z" fill="url(#paint22_linear_2643_38691)"/>
<path d="M96.7576 168.495H92.2014C86.6154 168.495 82.087 173.023 82.087 178.609V205.812C82.087 211.398 86.6154 215.926 92.2014 215.926H96.7576C102.344 215.926 106.872 211.398 106.872 205.812V178.609C106.872 173.023 102.344 168.495 96.7576 168.495Z" fill="url(#paint23_linear_2643_38691)"/>
<path d="M235.634 168.495H231.078C225.492 168.495 220.964 173.023 220.964 178.609V205.812C220.964 211.398 225.492 215.926 231.078 215.926H235.634C241.22 215.926 245.749 211.398 245.749 205.812V178.609C245.749 173.023 241.22 168.495 235.634 168.495Z" fill="url(#paint24_linear_2643_38691)"/>
<path d="M95.1033 128.098C94.9447 128.07 94.799 127.992 94.687 127.876C94.575 127.761 94.5024 127.612 94.4794 127.453V125.371C94.5003 124.397 94.2483 123.438 93.7518 122.6C93.2552 121.763 92.5341 121.081 91.6701 120.633C90.5405 120.059 89.2951 119.752 88.0286 119.732C86.762 119.713 85.5078 119.983 84.3615 120.522L79.9764 122.536C78.9621 123.002 78.1007 123.747 77.4924 124.682C76.8841 125.618 76.5536 126.708 76.5396 127.824V129.407C76.5625 130.828 77.0954 132.193 78.041 133.254C78.9867 134.315 80.2822 135 81.6912 135.186L99.4528 137.596L101.617 129.531L95.1033 128.098Z" fill="url(#paint25_linear_2643_38691)"/>
<path d="M233.025 128.099C233.328 128.031 233.357 127.764 233.357 127.454V125.372C233.357 123.368 234.672 121.535 236.458 120.634C237.614 120.06 238.883 119.752 240.173 119.733C241.463 119.714 242.741 119.984 243.913 120.523L248.081 122.537C249.067 123.017 249.894 123.77 250.463 124.707C251.032 125.644 251.319 126.725 251.289 127.821V129.404C251.289 132.32 249.321 134.791 246.43 135.183L228.815 137.593L226.579 129.529L233.025 128.099Z" fill="url(#paint26_linear_2643_38691)"/>
<path d="M246.148 145.931C243.585 137.275 230.337 129.393 230.337 129.393C230.337 129.393 219.228 95.4238 207.263 95.4238H120.986C109.032 95.4238 97.9303 129.393 97.9303 129.393C97.9303 129.393 84.6822 137.336 82.1189 145.988C80.2472 152.317 84.3079 176.709 86.6288 189.266C87.4488 193.694 91.62 197.109 96.5043 197.109H231.763C236.643 197.109 240.818 193.647 241.638 189.223C243.959 176.681 248.023 152.256 246.148 145.931Z" fill="url(#paint27_linear_2643_38691)"/>
<path d="M244.483 182.517C243.738 181.664 242.601 181.312 241.4 181.312H86.8788C85.6809 181.312 84.5507 181.668 83.8056 182.502C83.4437 182.887 83.1843 183.357 83.051 183.869C82.9177 184.38 82.9148 184.917 83.0426 185.429L85.5739 195.561C85.8094 196.393 86.3127 197.123 87.0058 197.638C87.6988 198.154 88.5427 198.427 89.4064 198.414H238.754C239.615 198.416 240.452 198.139 241.142 197.625C241.832 197.11 242.336 196.387 242.58 195.561L245.232 185.526C245.367 185.001 245.37 184.452 245.239 183.926C245.108 183.401 244.849 182.916 244.483 182.517Z" fill="url(#paint28_linear_2643_38691)"/>
<path d="M122.395 166.691C122.395 166.691 118.548 155.154 113.706 154.156C108.865 153.158 88.351 148.901 87.9231 152.466C87.4953 156.031 83.3669 168.274 95.6168 169.415C107.867 170.556 124.366 171.475 122.395 166.691Z" fill="url(#paint29_linear_2643_38691)"/>
<path d="M205.869 166.691C205.869 166.691 209.713 155.154 214.558 154.156C219.403 153.158 239.909 148.901 240.337 152.466C240.765 156.031 244.897 168.274 232.647 169.415C220.397 170.556 203.894 171.475 205.869 166.691Z" fill="url(#paint30_linear_2643_38691)"/>
<path d="M203.102 156.966C202.899 156.679 202.626 156.45 202.309 156.299C201.992 156.148 201.642 156.08 201.291 156.103H126.965C126.602 156.076 126.239 156.148 125.914 156.311C125.588 156.474 125.313 156.722 125.118 157.029C124.922 157.336 124.813 157.69 124.803 158.053C124.792 158.417 124.88 158.777 125.058 159.094L129.243 167.084C130.002 168.528 131.137 169.739 132.529 170.589C133.92 171.44 135.516 171.898 137.147 171.915H191.762C193.501 171.891 195.197 171.367 196.646 170.405C198.096 169.444 199.238 168.085 199.937 166.492L203.266 159.005C203.41 158.678 203.47 158.321 203.441 157.965C203.413 157.609 203.296 157.266 203.102 156.966Z" fill="url(#paint31_linear_2643_38691)"/>
<path d="M223.345 132.144C223.114 132.522 222.794 132.837 222.413 133.063C222.032 133.289 221.602 133.419 221.16 133.442H107.1C106.65 133.416 106.213 133.28 105.827 133.047C105.442 132.813 105.119 132.49 104.886 132.103C104.654 131.717 104.519 131.28 104.493 130.83C104.468 130.38 104.553 129.93 104.74 129.52C107.332 124.066 112.191 113.934 114.911 108.279C115.034 108.059 115.172 107.849 115.325 107.648C115.988 106.63 116.899 105.798 117.972 105.229C119.045 104.66 120.246 104.374 121.46 104.397H207.716C208.94 104.374 210.15 104.666 211.229 105.244C212.309 105.823 213.221 106.669 213.88 107.702C214.067 107.981 214.231 108.274 214.372 108.579L223.552 129.649C223.726 130.05 223.797 130.487 223.761 130.922C223.725 131.358 223.582 131.777 223.345 132.144Z" fill="url(#paint32_linear_2643_38691)"/>
<path d="M213.88 107.702C207.84 108.892 190.082 111.823 163.305 111.823C136.302 111.823 120.459 108.882 115.325 107.705C115.982 106.678 116.89 105.834 117.964 105.256C119.037 104.677 120.241 104.381 121.46 104.397H207.716C208.94 104.374 210.15 104.666 211.229 105.244C212.309 105.823 213.221 106.669 213.88 107.702Z" fill="url(#paint33_linear_2643_38691)"/>
<path d="M120.555 150.997C120.446 150.997 120.341 150.955 120.263 150.88L105.478 136.89C105.437 136.851 105.404 136.805 105.381 136.754C105.358 136.702 105.345 136.647 105.344 136.591C105.342 136.534 105.351 136.478 105.371 136.426C105.391 136.373 105.422 136.325 105.46 136.284C105.499 136.243 105.545 136.21 105.596 136.187C105.648 136.164 105.703 136.151 105.76 136.15C105.816 136.148 105.872 136.157 105.924 136.177C105.977 136.197 106.025 136.228 106.066 136.266L120.851 150.259C120.913 150.318 120.956 150.395 120.974 150.478C120.993 150.562 120.985 150.649 120.953 150.729C120.922 150.808 120.866 150.876 120.795 150.924C120.724 150.972 120.641 150.998 120.555 150.997Z" fill="white"/>
<path d="M206.618 150.997C206.533 150.997 206.449 150.971 206.379 150.923C206.308 150.875 206.254 150.807 206.222 150.727C206.191 150.648 206.184 150.561 206.202 150.478C206.221 150.394 206.264 150.318 206.326 150.259L221.107 136.266C221.189 136.188 221.3 136.146 221.413 136.15C221.527 136.153 221.635 136.201 221.713 136.284C221.791 136.367 221.833 136.477 221.829 136.591C221.826 136.704 221.778 136.812 221.695 136.89L206.91 150.88C206.832 150.956 206.727 150.998 206.618 150.997Z" fill="white"/>
<defs>
<linearGradient id="paint0_linear_2643_38691" x1="0.24538" y1="112.683" x2="356.853" y2="112.683" gradientUnits="userSpaceOnUse">
<stop stop-color="#B37CFF"/>
<stop offset="1" stop-color="#F895E7"/>
</linearGradient>
<linearGradient id="paint1_linear_2643_38691" x1="11.9815" y1="115.338" x2="368.59" y2="115.338" gradientUnits="userSpaceOnUse">
<stop stop-color="#B37CFF"/>
<stop offset="1" stop-color="#F895E7"/>
</linearGradient>
<linearGradient id="paint2_linear_2643_38691" x1="43.4587" y1="45.0733" x2="114.017" y2="45.0733" gradientUnits="userSpaceOnUse">
<stop stop-color="#A737D5"/>
<stop offset="1" stop-color="#EF497A"/>
</linearGradient>
<linearGradient id="paint3_linear_2643_38691" x1="104.715" y1="25.6038" x2="152.781" y2="25.6038" gradientUnits="userSpaceOnUse">
<stop stop-color="#A737D5"/>
<stop offset="1" stop-color="#EF497A"/>
</linearGradient>
<linearGradient id="paint4_linear_2643_38691" x1="139.728" y1="110.147" x2="218.354" y2="110.147" gradientUnits="userSpaceOnUse">
<stop stop-color="#A737D5"/>
<stop offset="1" stop-color="#EF497A"/>
</linearGradient>
<linearGradient id="paint5_linear_2643_38691" x1="88.3112" y1="126.198" x2="157.322" y2="126.198" gradientUnits="userSpaceOnUse">
<stop stop-color="#B37CFF"/>
<stop offset="1" stop-color="#F895E7"/>
</linearGradient>
<linearGradient id="paint6_linear_2643_38691" x1="208.599" y1="119.135" x2="280.523" y2="119.135" gradientUnits="userSpaceOnUse">
<stop stop-color="#A737D5"/>
<stop offset="1" stop-color="#EF497A"/>
</linearGradient>
<linearGradient id="paint7_linear_2643_38691" x1="101.335" y1="182.707" x2="54.4091" y2="64.6416" gradientUnits="userSpaceOnUse">
<stop stop-color="#CE1567"/>
<stop offset="1" stop-color="#7A1DBC"/>
</linearGradient>
<linearGradient id="paint8_linear_2643_38691" x1="68.9837" y1="119.994" x2="85.4514" y2="117.4" gradientUnits="userSpaceOnUse">
<stop stop-color="#2B3582"/>
<stop offset="1" stop-color="#150E42"/>
</linearGradient>
<linearGradient id="paint9_linear_2643_38691" x1="64.2885" y1="193.768" x2="58.6219" y2="141.088" gradientUnits="userSpaceOnUse">
<stop stop-color="#7A2DDB"/>
<stop offset="1" stop-color="#7077FF"/>
</linearGradient>
<linearGradient id="paint10_linear_2643_38691" x1="54.4475" y1="158.159" x2="65.6172" y2="155.463" gradientUnits="userSpaceOnUse">
<stop stop-color="#2B3582"/>
<stop offset="1" stop-color="#150E42"/>
</linearGradient>
<linearGradient id="paint11_linear_2643_38691" x1="270.362" y1="204.589" x2="305.968" y2="58.4529" gradientUnits="userSpaceOnUse">
<stop stop-color="#7A2DDB"/>
<stop offset="1" stop-color="#7077FF"/>
</linearGradient>
<linearGradient id="paint12_linear_2643_38691" x1="278.53" y1="133.814" x2="297.486" y2="133.814" gradientUnits="userSpaceOnUse">
<stop stop-color="#2B3582"/>
<stop offset="1" stop-color="#150E42"/>
</linearGradient>
<linearGradient id="paint13_linear_2643_38691" x1="301.294" y1="111.274" x2="303.084" y2="97.5518" gradientUnits="userSpaceOnUse">
<stop stop-color="#7A2DDB"/>
<stop offset="1" stop-color="#7077FF"/>
</linearGradient>
<linearGradient id="paint14_linear_2643_38691" x1="298.799" y1="186.108" x2="323.132" y2="121.951" gradientUnits="userSpaceOnUse">
<stop stop-color="#CE1567"/>
<stop offset="1" stop-color="#7A1DBC"/>
</linearGradient>
<linearGradient id="paint15_linear_2643_38691" x1="307.864" y1="139.814" x2="322.025" y2="143.172" gradientUnits="userSpaceOnUse">
<stop stop-color="#2B3582"/>
<stop offset="1" stop-color="#150E42"/>
</linearGradient>
<linearGradient id="paint16_linear_2643_38691" x1="227.677" y1="53.5615" x2="275.226" y2="53.5615" gradientUnits="userSpaceOnUse">
<stop stop-color="#53D8FF"/>
<stop offset="1" stop-color="#3840F7"/>
</linearGradient>
<linearGradient id="paint17_linear_2643_38691" x1="227.634" y1="78.2145" x2="275.229" y2="78.2145" gradientUnits="userSpaceOnUse">
<stop stop-color="#53D8FF"/>
<stop offset="1" stop-color="#3840F7"/>
</linearGradient>
<linearGradient id="paint18_linear_2643_38691" x1="242.544" y1="21.9958" x2="267.497" y2="111.478" gradientUnits="userSpaceOnUse">
<stop stop-color="#53D8FF"/>
<stop offset="1" stop-color="#3840F7"/>
</linearGradient>
<linearGradient id="paint19_linear_2643_38691" x1="237.035" y1="53.4835" x2="266.024" y2="53.4835" gradientUnits="userSpaceOnUse">
<stop stop-color="#53D8FF"/>
<stop offset="1" stop-color="#3840F7"/>
</linearGradient>
<linearGradient id="paint20_linear_2643_38691" x1="183.073" y1="142.802" x2="188.778" y2="311.811" gradientUnits="userSpaceOnUse">
<stop stop-color="#9F5699"/>
<stop offset="1" stop-color="#202278"/>
</linearGradient>
<linearGradient id="paint21_linear_2643_38691" x1="182.418" y1="142.801" x2="188.122" y2="311.864" gradientUnits="userSpaceOnUse">
<stop stop-color="#9F5699"/>
<stop offset="1" stop-color="#202278"/>
</linearGradient>
<linearGradient id="paint22_linear_2643_38691" x1="181.765" y1="142.829" x2="187.469" y2="311.864" gradientUnits="userSpaceOnUse">
<stop stop-color="#9F5699"/>
<stop offset="1" stop-color="#202278"/>
</linearGradient>
<linearGradient id="paint23_linear_2643_38691" x1="82.087" y1="192.211" x2="106.872" y2="192.211" gradientUnits="userSpaceOnUse">
<stop stop-color="#2B3582"/>
<stop offset="1" stop-color="#150E42"/>
</linearGradient>
<linearGradient id="paint24_linear_2643_38691" x1="220.964" y1="192.211" x2="245.749" y2="192.211" gradientUnits="userSpaceOnUse">
<stop stop-color="#2B3582"/>
<stop offset="1" stop-color="#150E42"/>
</linearGradient>
<linearGradient id="paint25_linear_2643_38691" x1="76.5324" y1="128.665" x2="101.61" y2="128.665" gradientUnits="userSpaceOnUse">
<stop stop-color="#FDF53F"/>
<stop offset="1" stop-color="#D93C65"/>
</linearGradient>
<linearGradient id="paint26_linear_2643_38691" x1="251.304" y1="128.666" x2="226.593" y2="128.666" gradientUnits="userSpaceOnUse">
<stop stop-color="#FDF53F"/>
<stop offset="1" stop-color="#D93C65"/>
</linearGradient>
<linearGradient id="paint27_linear_2643_38691" x1="164.374" y1="121.606" x2="163.19" y2="264.786" gradientUnits="userSpaceOnUse">
<stop stop-color="#FDF53F"/>
<stop offset="1" stop-color="#D93C65"/>
</linearGradient>
<linearGradient id="paint28_linear_2643_38691" x1="163.48" y1="104.842" x2="164.76" y2="261.873" gradientUnits="userSpaceOnUse">
<stop stop-color="#A737D5"/>
<stop offset="1" stop-color="#EF497A"/>
</linearGradient>
<linearGradient id="paint29_linear_2643_38691" x1="86.9142" y1="160.684" x2="122.555" y2="160.684" gradientUnits="userSpaceOnUse">
<stop stop-color="#9CFFFB"/>
<stop offset="1" stop-color="#9BFFFA"/>
</linearGradient>
<linearGradient id="paint30_linear_2643_38691" x1="241.346" y1="160.684" x2="205.705" y2="160.684" gradientUnits="userSpaceOnUse">
<stop stop-color="#9CFFFB"/>
<stop offset="1" stop-color="#9BFFFA"/>
</linearGradient>
<linearGradient id="paint31_linear_2643_38691" x1="124.808" y1="164.007" x2="203.452" y2="164.007" gradientUnits="userSpaceOnUse">
<stop stop-color="#A737D5"/>
<stop offset="1" stop-color="#EF497A"/>
</linearGradient>
<linearGradient id="paint32_linear_2643_38691" x1="104.49" y1="118.925" x2="223.773" y2="118.925" gradientUnits="userSpaceOnUse">
<stop stop-color="#53EAC9"/>
<stop offset="1" stop-color="#45AED8"/>
</linearGradient>
<linearGradient id="paint33_linear_2643_38691" x1="115.325" y1="108.101" x2="213.88" y2="108.101" gradientUnits="userSpaceOnUse">
<stop stop-color="#9CFFFB"/>
<stop offset="1" stop-color="#9BFFFA"/>
</linearGradient>
</defs>
</svg>
