<svg width="225" height="225" viewBox="0 0 225 225" fill="none" xmlns="http://www.w3.org/2000/svg">
<path d="M89.6636 38.6516C79.6997 39.8122 76.3328 20.8641 59.3803 16.6006C47.9134 13.7162 37.8841 19.4758 35.9309 20.654C27.9087 25.4932 20.7623 34.7113 20.1305 45.1054C19.1785 60.7765 33.5906 69.9754 29.2185 77.5051C25.8377 83.3286 15.8038 80.2649 13.0572 86.5093C10.7938 91.6571 15.5198 98.5041 18.385 102.652C26.221 113.997 32.8925 113.079 35.3245 119.011C40.0713 130.598 17.4046 140.933 12.1121 163.688C8.06098 181.093 14.7048 203.512 30.5938 215.416C49.6265 229.675 76.2735 224.61 91.6268 215.416C108.275 205.447 105.637 194.22 119.038 190.659C135.199 186.363 143.289 201.561 173.585 203.21C183.485 203.749 194.085 204.181 199.742 197.397C207.705 187.847 200.665 170.244 199.547 167.455C191.132 146.423 171.876 139.551 174.656 131.665C176.403 126.707 185.452 125.337 186.681 125.15C195.813 123.765 200.161 129.503 206.744 127.087C210.605 125.669 214.696 121.645 215.33 117.214C217.166 104.391 188.753 97.2366 189.256 83.6241C189.564 75.2202 200.522 74.543 210.205 61.383C219.753 48.4023 226.457 25.4616 216.599 11.9754C205.748 -2.86694 177.289 -2.90927 159.837 7.48019C139.065 19.8413 135.812 45.8334 125.921 44.5244C117.324 43.3861 115.763 23.2183 107.32 23.0174C100.075 22.8443 98.3184 37.6427 89.6636 38.6516Z" fill="url(#paint0_linear_32141_12880)"/>
<path d="M200.778 134.865C197.821 133.878 185.764 129.853 183.842 133.106C181.687 136.75 192.016 149.949 205.579 152.961C212.469 154.489 221.697 153.721 222.664 150.421C223.905 146.183 211.378 138.4 200.778 134.865Z" fill="url(#paint1_linear_32141_12880)"/>
<path d="M95.7847 22.8391C95.4076 26.5562 92.1369 30.8205 87.8172 30.8066C83.3205 30.792 80.5607 26.1499 79.8496 22.8391C78.9215 18.5163 80.7731 13.1292 84.2093 11.9733C88.8446 10.4164 96.4258 16.5215 95.7847 22.8391Z" fill="url(#paint2_linear_32141_12880)"/>
<path d="M129.118 11.973C124.918 13.2882 118.524 15.2899 117.202 20.6917C115.963 25.7571 119.573 32.217 123.887 33.189C132.317 35.0891 144.841 16.3466 141.616 11.6821C139.556 8.70454 131.018 11.3781 129.118 11.973Z" fill="url(#paint3_linear_32141_12880)"/>
<path d="M86.5527 212.494C81.2533 213.341 75.3505 211.647 71.6457 207.903L21.8356 157.538C17.5151 153.169 17.796 146.437 22.5282 142.364C27.3897 138.183 37.4898 137.408 42.1528 141.922L96.0902 194.142C101.447 199.329 100.562 206.557 94.2209 210.134C92.6832 211.004 88.3204 212.212 86.5527 212.494Z" fill="url(#paint4_linear_32141_12880)"/>
<path style="mix-blend-mode:multiply" opacity="0.3" d="M22.531 142.364C27.3925 138.183 37.4926 137.408 42.1555 141.922L91.2676 189.47C86.0667 189.644 80.518 191.143 73.7056 188.559C62.6096 184.35 63.5116 174.937 53.9818 169.529C49.6936 167.094 42.8997 165.277 31.7691 167.583L21.8353 157.538C17.5148 153.169 17.7957 146.437 22.531 142.364Z" fill="url(#paint5_linear_32141_12880)"/>
<path d="M27.1861 168.673C35.4852 165.684 39.703 156.293 36.6069 147.698C33.5109 139.103 24.2732 134.558 15.9741 137.548C7.67502 140.537 3.45714 149.929 6.55323 158.524C9.64932 167.119 18.887 171.663 27.1861 168.673Z" fill="url(#paint6_linear_32141_12880)"/>
<path d="M15.2539 138.244C15.4902 149.817 19.1234 159.901 26.3168 168.95L126.7 176.03L88.8397 67.4175L15.2539 138.244Z" fill="url(#paint7_linear_32141_12880)"/>
<path style="mix-blend-mode:multiply" opacity="0.3" d="M87.4163 153.01C77.1338 152.196 69.4595 139.261 59.6503 142.317C52.2884 144.61 53.048 153.399 45.9431 154.874C38.9337 156.33 34.7464 148.144 26.5726 147.846C22.964 147.715 19.8433 149.206 17.1836 151.497C18.9583 157.708 21.9797 163.496 26.3155 168.95L126.698 176.03L107.085 141.431C99.0294 150.872 92.5702 153.418 87.4163 153.01Z" fill="url(#paint8_linear_32141_12880)"/>
<path d="M127.792 175.563C150.292 167.458 159.812 136.679 149.055 106.817C138.298 76.9547 111.338 59.3169 88.8376 67.4219C66.3375 75.5268 56.8179 106.305 67.5748 136.167C78.3318 166.03 105.292 183.667 127.792 175.563Z" fill="#D8DEE8"/>
<path d="M127.138 173.722C131.914 172.001 136.149 169.035 139.723 164.907C143.36 160.704 146.15 155.518 148.015 149.486C151.934 136.81 151.282 122.023 146.176 107.851C141.069 93.6789 132.14 81.8695 121.039 74.6061C115.757 71.1507 110.299 68.9335 104.817 68.0169C99.43 67.1157 94.2738 67.5313 89.5023 69.2482C84.7309 70.9652 80.4904 73.9397 76.9157 78.0693C73.2786 82.272 70.4881 87.4583 68.6234 93.4903C66.9841 98.7905 66.1453 104.459 66.096 110.299C66.0283 118.424 76.3885 123.151 79.3591 131.396C82.5191 140.17 78.2448 151.76 83.9397 158.201C87.4498 162.171 91.367 165.601 95.6005 168.37C100.882 171.825 106.34 174.042 111.822 174.959C117.21 175.859 122.361 175.444 127.138 173.722Z" fill="url(#paint9_linear_32141_12880)"/>
<path d="M111.927 120.989C116.862 134.688 109.087 149.777 94.7652 154.62C80.6656 159.392 65.5055 152.409 60.7078 139.092C55.9102 125.775 63.1836 110.865 77.147 105.716C91.329 100.486 106.992 107.29 111.927 120.989Z" fill="url(#paint10_linear_32141_12880)"/>
<path style="mix-blend-mode:multiply" opacity="0.3" d="M109.6 121.576C113.265 131.748 110.477 141.878 103.474 144.168C96.5786 146.423 88.1793 140.208 84.6192 130.315C81.0591 120.422 83.5995 110.383 90.3911 107.843C97.2905 105.274 105.935 111.403 109.6 121.576Z" fill="url(#paint11_linear_32141_12880)"/>
<path d="M122.013 108.768C122.013 108.768 128.803 103.36 132.235 95.7406C124.881 89.1052 120.005 80.4635 118.868 70.7767C116.143 47.549 135.751 25.4879 163.855 21.326C192.601 17.0686 219.385 32.9591 223.511 57.2389C223.511 57.2466 223.511 57.255 223.515 57.2635C223.567 57.5644 223.614 57.8676 223.658 58.1716L223.677 58.304C223.719 58.6026 223.758 58.9019 223.794 59.2021C223.955 60.5747 224.042 61.9551 224.054 63.3371C224.058 63.9225 224.05 64.5061 224.028 65.0879C223.983 66.2515 223.887 67.4046 223.737 68.5472C223.663 69.1182 223.576 69.6865 223.475 70.2518C223.408 70.6289 223.335 71.0045 223.258 71.3785C221.428 80.1695 216.534 88.1787 209.512 94.5501C209.363 94.6855 209.212 94.8202 209.061 94.9549C206.592 97.136 203.928 99.0861 201.102 100.781C200.922 100.888 200.742 100.995 200.564 101.102C199.296 101.845 197.99 102.544 196.645 103.199C196.069 103.479 195.487 103.75 194.898 104.013C194.505 104.188 194.11 104.36 193.711 104.527C193.114 104.778 192.511 105.02 191.901 105.253C191.495 105.407 191.086 105.558 190.674 105.707C185.352 107.601 179.798 108.766 174.164 109.17C173.734 109.201 173.306 109.226 172.878 109.247L172.504 109.263C172.197 109.278 171.894 109.292 171.59 109.301C171.455 109.305 171.321 109.308 171.185 109.311C170.89 109.319 170.594 109.325 170.3 109.329C170.173 109.329 170.048 109.329 169.922 109.329C169.614 109.329 169.31 109.329 169.004 109.329C168.896 109.329 168.788 109.329 168.68 109.325C168.352 109.32 168.026 109.314 167.701 109.304L167.452 109.296C167.093 109.284 166.736 109.269 166.381 109.251L166.235 109.243C165.834 109.223 165.434 109.197 165.036 109.166H165.029C161.732 108.93 158.459 108.422 155.245 107.648L155.255 107.636C153.399 107.184 151.588 106.648 149.823 106.027C146.168 109.664 136.545 116.676 122.013 108.768Z" fill="url(#paint12_linear_32141_12880)"/>
<path d="M115.091 71.0576C117.816 94.2861 142.032 111.513 170.383 109.447C200.155 107.278 222.994 84.8632 220.016 59.4837C217.039 34.1042 189.591 17.2333 160.078 21.6069C131.973 25.7688 112.365 47.8298 115.091 71.0576Z" fill="url(#paint13_linear_32141_12880)"/>
<path d="M115.091 71.0576C117.816 94.2861 142.032 111.513 170.383 109.447C200.155 107.278 222.994 84.8632 220.016 59.4837C217.039 34.1042 189.591 17.2333 160.078 21.6069C131.973 25.7688 112.365 47.8298 115.091 71.0576Z" fill="white"/>
<path d="M147.689 104.445C147.689 104.445 137.097 119.312 118.236 109.049C118.236 109.049 131.158 98.7604 130.359 86.5693L147.689 104.445Z" fill="white"/>
<path d="M161.135 88.3732C161.067 86.3882 161.698 84.7348 163.029 83.4132C164.36 82.0916 166.053 81.3954 168.108 81.3246C170.164 81.2537 171.901 81.832 173.32 83.0592C174.739 84.2864 175.483 85.8926 175.552 87.8776C175.621 89.8631 174.989 91.5167 173.658 92.8384C172.326 94.16 170.633 94.8562 168.579 94.927C166.523 94.9978 164.786 94.4196 163.368 93.1924C161.95 91.9651 161.205 90.3588 161.135 88.3732ZM173.271 75.4657L162.748 75.8281L159.713 35.8426L173.551 35.3662L173.271 75.4657Z" fill="url(#paint14_linear_32141_12880)"/>
<g style="mix-blend-mode:multiply" opacity="0.3">
<path d="M156.453 99.2992C161.176 85.8852 153.473 74.4784 160.917 65.2518C168.591 55.7412 180.992 62.4089 192.75 53.905C197.363 50.5688 202.275 44.6083 205.136 33.1499C213.298 39.8884 218.786 49.0034 220.017 59.4837C222.994 84.8632 200.155 107.275 170.384 109.447C163.765 109.929 157.387 109.364 151.465 107.931C153.951 104.995 155.487 102.046 156.453 99.2992Z" fill="url(#paint15_linear_32141_12880)"/>
</g>
<path d="M83.2631 64.8987C80.4095 56.3339 76.2475 46.5055 71.6885 46.7102C68.2861 46.8641 67.4711 52.4744 63.8341 52.9108C55.8988 53.8643 49.3758 28.3971 43.9925 29.3483C40.9072 29.8939 38.9786 38.9789 40.6833 46.7102C43.8517 61.0523 59.6837 71.444 65.9012 68.2056C70.5295 65.7952 68.6263 56.4586 72.515 55.3912C75.5272 54.5646 79.6106 59.3569 83.2631 64.8987Z" fill="white"/>
<path d="M97.7302 59.9376C99.3194 51.0957 98.5228 48.4853 97.3161 47.9504C95.6069 47.1916 93.6898 50.8749 90.289 50.8433C84.4724 50.7925 80.2728 39.9352 79.955 40.096C78.7167 40.7201 83.5951 58.56 88.2219 58.2845C89.878 58.186 90.6015 55.8079 92.7694 55.8041C94.7849 55.8002 96.4834 57.852 97.7302 59.9376Z" fill="white"/>
<path d="M153.124 146.747C153.241 145.019 171.041 143.142 172.552 147.573C173.283 149.717 169.474 151.197 169.243 154.601C168.658 163.193 191.839 169.389 191.151 171.963C190.363 174.915 158.612 171.449 157.668 163.282C157.199 159.216 164.609 156.12 163.455 152.123C162.242 147.906 153.039 147.993 153.124 146.747Z" fill="white"/>
<path d="M157.67 130.625C158.153 128.212 167.375 126.215 169.658 129.799C170.808 131.602 170.173 134.776 168.418 135.999C164.932 138.429 157.187 133.038 157.67 130.625Z" fill="white"/>
<defs>
<linearGradient id="paint0_linear_32141_12880" x1="129.969" y1="40.217" x2="74.749" y2="270.398" gradientUnits="userSpaceOnUse">
<stop stop-color="#FFC444"/>
<stop offset="1" stop-color="#F36F56"/>
</linearGradient>
<linearGradient id="paint1_linear_32141_12880" x1="222.26" y1="62.3573" x2="167.04" y2="292.539" gradientUnits="userSpaceOnUse">
<stop stop-color="#FFC444"/>
<stop offset="1" stop-color="#F36F56"/>
</linearGradient>
<linearGradient id="paint2_linear_32141_12880" x1="85.6623" y1="29.5876" x2="30.4419" y2="259.77" gradientUnits="userSpaceOnUse">
<stop stop-color="#FFC444"/>
<stop offset="1" stop-color="#F36F56"/>
</linearGradient>
<linearGradient id="paint3_linear_32141_12880" x1="124.563" y1="38.9202" x2="69.3428" y2="269.101" gradientUnits="userSpaceOnUse">
<stop stop-color="#FFC444"/>
<stop offset="1" stop-color="#F36F56"/>
</linearGradient>
<linearGradient id="paint4_linear_32141_12880" x1="68.5066" y1="150.94" x2="49.7237" y2="201.216" gradientUnits="userSpaceOnUse">
<stop stop-color="#311944"/>
<stop offset="1" stop-color="#893976"/>
</linearGradient>
<linearGradient id="paint5_linear_32141_12880" x1="62.5827" y1="148.727" x2="43.9691" y2="198.551" gradientUnits="userSpaceOnUse">
<stop stop-color="#311944"/>
<stop offset="1" stop-color="#893976"/>
</linearGradient>
<linearGradient id="paint6_linear_32141_12880" x1="27.2897" y1="137.839" x2="15.8765" y2="168.39" gradientUnits="userSpaceOnUse">
<stop stop-color="#311944"/>
<stop offset="1" stop-color="#893976"/>
</linearGradient>
<linearGradient id="paint7_linear_32141_12880" x1="15.8355" y1="146.516" x2="111.756" y2="120.652" gradientUnits="userSpaceOnUse">
<stop stop-color="#E38DDD"/>
<stop offset="1" stop-color="#9571F6"/>
</linearGradient>
<linearGradient id="paint8_linear_32141_12880" x1="29.8467" y1="92.1188" x2="113.243" y2="236.228" gradientUnits="userSpaceOnUse">
<stop stop-color="#AA80F9"/>
<stop offset="1" stop-color="#6165D7"/>
</linearGradient>
<linearGradient id="paint9_linear_32141_12880" x1="56.8449" y1="138.692" x2="144.426" y2="109.514" gradientUnits="userSpaceOnUse">
<stop stop-color="#311944"/>
<stop offset="1" stop-color="#893976"/>
</linearGradient>
<linearGradient id="paint10_linear_32141_12880" x1="60.0788" y1="137.117" x2="112.543" y2="122.971" gradientUnits="userSpaceOnUse">
<stop stop-color="#FF9085"/>
<stop offset="1" stop-color="#FB6FBB"/>
</linearGradient>
<linearGradient id="paint11_linear_32141_12880" x1="76.2742" y1="89.9525" x2="118.094" y2="162.219" gradientUnits="userSpaceOnUse">
<stop stop-color="#FF9085"/>
<stop offset="1" stop-color="#FB6FBB"/>
</linearGradient>
<linearGradient id="paint12_linear_32141_12880" x1="67.7392" y1="-111.164" x2="270.494" y2="258.98" gradientUnits="userSpaceOnUse">
<stop stop-color="#311944"/>
<stop offset="1" stop-color="#893976"/>
</linearGradient>
<linearGradient id="paint13_linear_32141_12880" x1="182.119" y1="26.0612" x2="126.712" y2="167.29" gradientUnits="userSpaceOnUse">
<stop stop-color="#FF9085"/>
<stop offset="1" stop-color="#FB6FBB"/>
</linearGradient>
<linearGradient id="paint14_linear_32141_12880" x1="154.119" y1="20.3359" x2="182.342" y2="109.984" gradientUnits="userSpaceOnUse">
<stop stop-color="#FF9085"/>
<stop offset="1" stop-color="#FB6FBB"/>
</linearGradient>
<linearGradient id="paint15_linear_32141_12880" x1="202.347" y1="31.0882" x2="148.93" y2="181.295" gradientUnits="userSpaceOnUse">
<stop stop-color="#FF9085"/>
<stop offset="1" stop-color="#FB6FBB"/>
</linearGradient>
</defs>
</svg>
