<svg width="311" height="251" viewBox="0 0 311 251" fill="none" xmlns="http://www.w3.org/2000/svg">
<rect width="311" height="250" transform="translate(0 0.666992)" fill="white"/>
<g clip-path="url(#clip0_2507_108268)">
<path d="M103.294 181.168C102.903 180.68 101.852 180.264 101.312 179.847C100.534 179.246 99.7982 178.574 99.184 177.803C97.9945 176.309 98.109 174.662 97.2707 173.088C95.9472 170.595 92.2162 169.928 91.4831 173.211C90.5606 177.35 94.2955 184.096 99.4992 183.514C104.703 182.932 103.294 181.169 103.294 181.168Z" fill="#4756DF"/>
<path d="M109.816 179.366C109.816 179.366 106.933 175.079 110.746 169.247C114.559 163.414 119.905 163.625 117.438 171.84C114.971 180.055 109.816 179.366 109.816 179.366Z" fill="#4756DF"/>
<path d="M119.956 138.872C117.287 143.794 109.308 144.629 109.308 144.629C109.308 144.629 105.656 137.486 108.324 132.565C110.993 127.643 115.758 125.065 118.972 126.807C122.186 128.549 122.624 133.951 119.956 138.872Z" fill="#4756DF"/>
<path d="M119.28 152.688C115.414 154.178 110.594 151.01 110.594 151.01C110.594 151.01 112.042 145.427 115.911 143.937C119.781 142.447 123.667 143.199 124.597 145.616C125.528 148.032 123.146 151.199 119.28 152.688Z" fill="#4756DF"/>
<path d="M97.8082 139.568C98.672 145.657 103.338 146.474 103.338 146.474C103.338 146.474 107.604 142.592 107.122 138.477C106.64 134.362 104.165 131.27 101.593 131.571C99.0209 131.872 97.2265 135.465 97.8082 139.568Z" fill="#4756DF"/>
<path d="M112.838 191.106C112.809 191.094 112.781 191.079 112.755 191.062C112.525 190.909 107.097 187.209 104.688 178.052C103.282 172.708 103.213 166.599 104.488 159.902C106.07 151.565 109.747 142.28 115.416 132.302C115.445 132.249 115.485 132.203 115.533 132.166C115.58 132.128 115.635 132.101 115.693 132.084C115.751 132.068 115.812 132.063 115.872 132.071C115.933 132.078 115.991 132.097 116.043 132.127C116.096 132.157 116.142 132.197 116.179 132.245C116.216 132.293 116.244 132.348 116.259 132.406C116.275 132.465 116.279 132.525 116.272 132.586C116.264 132.646 116.244 132.703 116.214 132.756C109.217 145.073 101.689 162.871 105.56 177.744C107.864 186.597 113.211 190.261 113.265 190.297C113.359 190.36 113.427 190.456 113.455 190.566C113.484 190.676 113.47 190.793 113.417 190.894C113.364 190.994 113.275 191.071 113.168 191.111C113.062 191.15 112.944 191.148 112.839 191.105L112.838 191.106Z" fill="#364CCE"/>
<path d="M99.6762 180.695C97.3429 179.759 95.2375 178.072 94.7031 175.042C94.6952 175.002 94.6953 174.961 94.7035 174.921C94.7117 174.881 94.7277 174.843 94.7507 174.81C94.7736 174.776 94.803 174.747 94.8372 174.725C94.8713 174.703 94.9095 174.688 94.9496 174.681C94.9896 174.674 95.0307 174.674 95.0704 174.683C95.1102 174.692 95.1477 174.709 95.1809 174.732C95.2141 174.756 95.2424 174.786 95.2639 174.82C95.2855 174.855 95.2999 174.893 95.3065 174.933C96.4926 181.662 106.272 181.243 107.047 181.2C107.546 180.98 112.741 178.47 114.841 168.55C114.863 168.477 114.912 168.414 114.978 168.374C115.045 168.335 115.123 168.322 115.199 168.338C115.274 168.354 115.341 168.398 115.385 168.461C115.429 168.524 115.448 168.601 115.438 168.677C113.17 179.408 107.468 181.698 107.226 181.79L107.14 181.809C107.074 181.814 103.131 182.08 99.6762 180.695ZM107.117 181.504H107.12H107.117Z" fill="#364CCE"/>
<path d="M93.8901 162.453C96.8816 167.416 101.459 166.282 101.459 166.282C101.459 166.282 103.972 161.214 102.044 157.817C100.115 154.42 96.7259 152.708 94.4751 153.988C92.2243 155.267 91.8743 159.11 93.8901 162.453Z" fill="#4756DF"/>
<path d="M115.142 164.313C112.353 167.377 106.623 166.704 106.623 166.704C106.623 166.704 105.416 161.064 108.206 158C110.995 154.936 114.808 153.865 116.725 155.609C118.642 157.352 117.931 161.249 115.142 164.313Z" fill="#4756DF"/>
<path d="M102.019 166.797C100.523 166.197 98.5045 165.101 97.4676 163.304C96.7323 162.031 96.6042 160.595 97.0877 159.038C97.112 158.96 97.1659 158.896 97.2376 158.858C97.3094 158.82 97.3932 158.812 97.4708 158.836C97.5477 158.861 97.6119 158.915 97.6496 158.986C97.6873 159.058 97.6956 159.141 97.6727 159.219C97.2424 160.606 97.352 161.878 97.9982 162.997C99.5057 165.608 103.47 166.666 103.958 166.788C104.648 166.7 112.288 165.555 114.731 158.194C114.756 158.117 114.811 158.054 114.884 158.018C114.956 157.981 115.04 157.975 115.117 158.001C115.194 158.026 115.257 158.081 115.294 158.153C115.33 158.225 115.337 158.309 115.312 158.386C112.639 166.442 104.057 167.394 103.971 167.403L103.922 167.408L103.873 167.397C103.241 167.243 102.621 167.042 102.019 166.797ZM103.939 167.098H103.942H103.939Z" fill="#364CCE"/>
<path d="M107.418 150.85L107.369 150.81C107.276 150.735 105.099 148.948 103.237 146.474C100.724 143.136 100.047 140.168 101.278 137.89C101.296 137.853 101.322 137.821 101.353 137.794C101.384 137.768 101.42 137.748 101.459 137.736C101.498 137.723 101.54 137.719 101.58 137.723C101.621 137.727 101.661 137.739 101.697 137.758C101.733 137.778 101.764 137.804 101.79 137.836C101.815 137.868 101.834 137.905 101.846 137.944C101.857 137.984 101.86 138.025 101.855 138.066C101.85 138.106 101.837 138.145 101.816 138.181C99.2163 142.992 106.994 149.696 107.705 150.293C108.383 150.456 114.57 151.792 119.208 146.929C119.236 146.9 119.269 146.877 119.306 146.86C119.343 146.844 119.382 146.835 119.423 146.834C119.463 146.833 119.503 146.84 119.54 146.855C119.578 146.869 119.612 146.891 119.641 146.919C119.67 146.947 119.693 146.98 119.71 147.017C119.726 147.053 119.735 147.093 119.736 147.133C119.737 147.173 119.73 147.213 119.715 147.251C119.701 147.288 119.679 147.323 119.651 147.352C114.502 152.747 107.55 150.885 107.479 150.866L107.418 150.85Z" fill="#364CCE"/>
<path d="M105.04 197.817C105.04 197.817 105.752 168.259 93.3 164.926C80.8479 161.593 79.6492 181.966 89.9053 193.599C100.599 205.731 105.308 206.114 105.04 197.817Z" fill="#FFBE21"/>
<path d="M103.329 202.882C103.305 202.872 103.284 202.856 103.268 202.834C103.105 202.621 87.2606 181.263 89.4474 166.061C89.45 166.042 89.4564 166.025 89.4659 166.008C89.4755 165.992 89.4881 165.978 89.5032 165.967C89.5182 165.956 89.5353 165.948 89.5534 165.943C89.5716 165.938 89.5905 165.937 89.6091 165.94C89.6276 165.943 89.6455 165.949 89.6616 165.958C89.6777 165.968 89.6918 165.981 89.7031 165.996C89.7143 166.011 89.7225 166.028 89.7271 166.046C89.7317 166.064 89.7328 166.083 89.7301 166.102C87.5596 181.187 103.337 202.45 103.497 202.663C103.515 202.688 103.524 202.718 103.524 202.749C103.523 202.78 103.513 202.809 103.494 202.834C103.475 202.858 103.449 202.876 103.419 202.884C103.39 202.892 103.358 202.891 103.329 202.88V202.882Z" fill="#E2673B"/>
<path d="M97.138 199.306C96.6143 199.097 96.1612 198.818 95.8758 198.446C95.8635 198.431 95.8543 198.414 95.8488 198.396C95.8433 198.377 95.8415 198.358 95.8436 198.339C95.8458 198.32 95.8517 198.301 95.8612 198.284C95.8706 198.268 95.8834 198.253 95.8986 198.241C95.9139 198.229 95.9313 198.221 95.95 198.216C95.9686 198.211 95.988 198.21 96.0071 198.213C96.0261 198.216 96.0444 198.222 96.0608 198.232C96.0772 198.243 96.0915 198.256 96.1026 198.271C97.1195 199.588 100.625 199.654 101.198 199.656C101.503 199.137 103.406 195.778 103.339 192.943C103.338 192.905 103.352 192.869 103.379 192.841C103.405 192.814 103.441 192.798 103.479 192.797C103.517 192.796 103.554 192.81 103.581 192.837C103.609 192.863 103.625 192.899 103.626 192.937C103.699 196.084 101.496 199.72 101.401 199.873L101.36 199.941H101.281C101.152 199.943 98.7903 199.969 97.138 199.306ZM101.28 199.798H101.283H101.28Z" fill="#E2673B"/>
<path d="M94.258 194.427L94.1261 194.372C91.0093 193.1 89.2425 191.65 88.8811 190.062C88.8747 190.026 88.8824 189.989 88.9027 189.958C88.9229 189.927 88.9543 189.906 88.9901 189.898C89.026 189.889 89.0636 189.895 89.0952 189.914C89.1269 189.933 89.1501 189.963 89.16 189.998C89.949 193.447 98.0091 195.359 98.6885 195.514C100.342 194.727 101.747 186.746 102.15 183.713C102.153 183.694 102.159 183.676 102.169 183.659C102.178 183.643 102.191 183.628 102.206 183.617C102.221 183.605 102.238 183.597 102.257 183.592C102.275 183.588 102.294 183.587 102.313 183.589C102.332 183.592 102.35 183.598 102.367 183.607C102.383 183.617 102.398 183.63 102.409 183.645C102.421 183.66 102.429 183.677 102.433 183.696C102.438 183.714 102.439 183.733 102.436 183.752C102.375 184.207 100.925 194.92 98.758 195.798L98.7173 195.815L98.6739 195.805C97.1701 195.455 95.6941 194.994 94.258 194.427ZM98.7026 195.665H98.7053H98.7026Z" fill="#E2673B"/>
<path d="M93.2013 189.461C90.6379 188.43 86.8358 186.58 85.7283 184.293C85.7131 184.259 85.7117 184.221 85.7245 184.186C85.7372 184.151 85.7631 184.122 85.7966 184.106C85.8302 184.09 85.8687 184.087 85.904 184.099C85.9394 184.11 85.9688 184.135 85.986 184.168C87.5596 187.418 95.12 189.876 95.6936 190.058C97.0219 189.779 98.2982 187.083 99.3872 182.257C100.226 178.541 100.652 174.852 100.656 174.815C100.657 174.796 100.663 174.777 100.671 174.76C100.68 174.743 100.693 174.728 100.707 174.715C100.722 174.703 100.74 174.694 100.758 174.688C100.777 174.683 100.796 174.681 100.815 174.684C100.834 174.686 100.853 174.692 100.87 174.701C100.887 174.711 100.901 174.724 100.913 174.739C100.925 174.755 100.933 174.772 100.938 174.791C100.942 174.81 100.943 174.829 100.94 174.848C100.871 175.455 99.2038 189.72 95.7104 190.346L95.6762 190.352L95.6431 190.344C95.5302 190.307 94.5329 189.995 93.2013 189.461ZM95.6849 190.205H95.6876H95.6849Z" fill="#E2673B"/>
<path d="M90.203 184.052C90.0547 183.993 89.9049 183.93 89.7537 183.866C87.2034 182.771 85.537 181.454 84.8045 179.952C84.7878 179.918 84.7855 179.878 84.7979 179.842C84.8103 179.806 84.8365 179.777 84.8707 179.76C84.9048 179.744 84.9442 179.741 84.9802 179.754C85.0161 179.766 85.0456 179.792 85.0622 179.826C86.6814 183.148 92.8901 184.656 93.3893 184.773C95.3428 184.261 96.9842 174.715 97.4546 171.06C97.4562 171.041 97.4617 171.022 97.4708 171.005C97.4798 170.988 97.4923 170.973 97.5073 170.961C97.5224 170.948 97.5398 170.939 97.5585 170.934C97.5771 170.929 97.5967 170.927 97.6159 170.93C97.6351 170.932 97.6536 170.939 97.6703 170.949C97.687 170.959 97.7015 170.972 97.713 170.987C97.7244 171.003 97.7326 171.021 97.737 171.04C97.7413 171.059 97.7418 171.078 97.7384 171.097C97.6679 171.644 95.9836 184.508 93.4202 185.059H93.3595C92.2842 184.801 91.2293 184.464 90.203 184.052ZM93.3899 184.92H93.3926H93.3899Z" fill="#E2673B"/>
<path d="M88.6292 176.573C86.8793 175.871 84.4771 174.563 84.2058 172.601C84.2029 172.582 84.2038 172.563 84.2083 172.544C84.2129 172.526 84.2211 172.508 84.2325 172.493C84.2439 172.478 84.2581 172.465 84.2745 172.455C84.2909 172.446 84.309 172.439 84.3278 172.437C84.3466 172.434 84.3658 172.435 84.3842 172.44C84.4025 172.445 84.4197 172.454 84.4348 172.465C84.4498 172.477 84.4624 172.491 84.4718 172.508C84.4812 172.524 84.4873 172.543 84.4896 172.561C84.8694 175.329 90.0862 176.791 90.5127 176.902C93.5622 176.437 93.9052 166.95 93.9079 166.854C93.9075 166.835 93.911 166.815 93.9184 166.797C93.9257 166.779 93.9366 166.763 93.9504 166.749C93.9642 166.736 93.9807 166.725 93.9988 166.718C94.0169 166.711 94.0363 166.707 94.0557 166.708C94.0751 166.709 94.0942 166.713 94.1119 166.722C94.1295 166.73 94.1452 166.742 94.1581 166.756C94.1711 166.771 94.1809 166.788 94.187 166.806C94.1932 166.824 94.1955 166.844 94.1938 166.863C94.1813 167.267 93.8362 176.746 90.5235 177.191L90.4693 177.187C89.8442 177.02 89.2297 176.815 88.6292 176.573Z" fill="#E2673B"/>
<path d="M267.925 166.547C267.09 167.47 265.613 167.368 264.925 166.334C261.611 161.35 253.434 147.759 260.885 145.121C269.499 142.073 276.004 157.644 267.925 166.547Z" fill="#FF7235"/>
<path d="M270.559 152.323C270.545 152.292 270.52 152.266 270.489 152.253C270.457 152.239 270.422 152.239 270.39 152.251C270.358 152.264 270.332 152.289 270.319 152.321C270.305 152.352 270.305 152.388 270.318 152.42C271.234 154.699 268.53 157.68 267.839 158.389C267.652 156.623 267.205 154.894 266.511 153.259H266.536C266.549 153.259 266.562 153.258 266.574 153.255C266.604 153.248 266.629 153.231 266.647 153.207C266.671 153.173 269.063 149.887 267.597 147.091C267.589 147.076 267.578 147.062 267.565 147.051C267.552 147.04 267.537 147.032 267.52 147.027C267.504 147.022 267.487 147.02 267.47 147.022C267.453 147.023 267.436 147.028 267.421 147.036C267.406 147.044 267.393 147.055 267.382 147.068C267.371 147.081 267.363 147.096 267.358 147.112C267.352 147.128 267.351 147.146 267.352 147.162C267.354 147.179 267.359 147.196 267.366 147.211C268.654 149.666 266.781 152.556 266.479 152.995L266.397 152.99C265.811 151.655 265.098 150.38 264.266 149.183C264.292 149.174 264.315 149.157 264.331 149.135C264.341 149.117 265.388 147.325 263.741 145.255C263.731 145.242 263.717 145.23 263.702 145.222C263.687 145.214 263.671 145.209 263.654 145.207C263.637 145.205 263.62 145.206 263.603 145.211C263.587 145.216 263.571 145.224 263.558 145.235C263.545 145.245 263.534 145.259 263.525 145.274C263.517 145.288 263.512 145.305 263.51 145.322C263.508 145.339 263.51 145.356 263.514 145.373C263.519 145.389 263.527 145.404 263.538 145.418C264.927 147.164 264.297 148.639 264.139 148.945L264.102 148.948C262.637 146.88 261.302 145.675 261.264 145.642C261.251 145.631 261.236 145.622 261.22 145.616C261.204 145.611 261.187 145.609 261.17 145.61C261.153 145.611 261.137 145.615 261.121 145.623C261.106 145.63 261.092 145.641 261.081 145.654C261.07 145.666 261.061 145.681 261.056 145.697C261.05 145.713 261.048 145.73 261.049 145.747C261.05 145.764 261.054 145.781 261.062 145.796C261.069 145.812 261.08 145.825 261.093 145.837C261.128 145.868 262.389 147.006 263.796 148.964C262.814 149.001 260.377 148.942 260.014 147.482C260.01 147.465 260.003 147.45 259.992 147.436C259.982 147.422 259.97 147.411 259.955 147.402C259.94 147.393 259.924 147.387 259.907 147.385C259.891 147.382 259.873 147.383 259.857 147.387C259.84 147.391 259.825 147.399 259.811 147.409C259.797 147.419 259.786 147.432 259.777 147.446C259.768 147.461 259.762 147.477 259.76 147.494C259.757 147.511 259.758 147.528 259.762 147.544C260.196 149.305 263.085 149.271 263.976 149.217C264.803 150.395 265.515 151.65 266.103 152.965C264.605 152.824 259.808 152.181 259.245 149.683C259.241 149.666 259.234 149.65 259.225 149.636C259.215 149.622 259.202 149.611 259.188 149.601C259.173 149.592 259.157 149.586 259.14 149.583C259.124 149.58 259.106 149.581 259.09 149.585C259.057 149.593 259.028 149.614 259.011 149.642C258.993 149.671 258.987 149.706 258.994 149.739C259.294 151.068 260.662 152.064 263.061 152.7C264.098 152.966 265.156 153.145 266.223 153.235C266.888 154.797 267.403 156.558 267.588 158.471C266.432 158.243 260.731 156.947 260.041 153.434C260.037 153.418 260.031 153.402 260.021 153.388C260.012 153.373 260 153.361 259.986 153.352C259.971 153.342 259.955 153.335 259.939 153.332C259.922 153.329 259.905 153.329 259.888 153.332C259.855 153.339 259.825 153.359 259.806 153.388C259.787 153.416 259.78 153.451 259.786 153.484C260.118 155.175 261.607 156.625 264.09 157.678C265.226 158.149 266.406 158.505 267.612 158.74C267.698 159.802 267.675 160.87 267.544 161.928C267.536 161.907 267.523 161.889 267.505 161.875C267.488 161.861 267.467 161.852 267.445 161.849C267.399 161.842 262.842 161.183 261.653 158.539C261.646 158.523 261.635 158.509 261.623 158.498C261.61 158.486 261.596 158.477 261.58 158.471C261.563 158.465 261.546 158.462 261.529 158.463C261.512 158.463 261.495 158.467 261.48 158.475C261.464 158.482 261.45 158.492 261.439 158.504C261.427 158.517 261.418 158.532 261.412 158.548C261.406 158.564 261.403 158.581 261.404 158.598C261.404 158.615 261.408 158.632 261.416 158.647C262.664 161.42 267.216 162.078 267.409 162.105C267.425 162.108 267.442 162.108 267.458 162.105C267.488 162.096 267.513 162.077 267.53 162.051C267.309 163.686 266.847 165.279 266.16 166.779C266.153 166.795 266.149 166.811 266.148 166.828C266.148 166.846 266.151 166.862 266.157 166.878C266.163 166.894 266.172 166.909 266.184 166.921C266.195 166.934 266.209 166.944 266.225 166.951C266.251 166.963 266.281 166.965 266.309 166.958C266.328 166.954 266.346 166.945 266.361 166.932C266.376 166.92 266.388 166.904 266.396 166.886C266.688 166.24 266.942 165.577 267.156 164.9C267.17 164.911 267.187 164.918 267.204 164.922C267.221 164.926 267.239 164.927 267.257 164.923C267.273 164.919 267.288 164.912 267.302 164.902C267.441 164.802 270.7 162.418 270.654 160.515C270.653 160.498 270.65 160.481 270.643 160.465C270.636 160.45 270.626 160.436 270.614 160.424C270.601 160.412 270.587 160.403 270.571 160.397C270.555 160.39 270.538 160.388 270.521 160.388C270.504 160.388 270.487 160.392 270.472 160.399C270.456 160.406 270.442 160.416 270.43 160.428C270.418 160.44 270.409 160.455 270.403 160.471C270.397 160.487 270.394 160.504 270.394 160.521C270.433 162.119 267.776 164.217 267.242 164.623C267.817 162.714 268.03 160.714 267.872 158.726C268.096 158.51 271.654 155.05 270.559 152.323Z" fill="#DB6035"/>
<path d="M266.937 173.685C266.937 173.685 266.167 146.879 277.447 143.803C288.728 140.727 289.901 159.201 280.649 169.794C270.998 180.843 266.732 181.211 266.937 173.685Z" fill="#4756DF"/>
<path d="M268.492 178.276C268.466 178.283 268.439 178.281 268.414 178.271C268.389 178.262 268.368 178.245 268.353 178.223C268.338 178.2 268.33 178.174 268.331 178.147C268.332 178.121 268.341 178.095 268.356 178.073C268.5 177.879 282.721 158.526 280.69 144.853C280.687 144.82 280.696 144.787 280.717 144.761C280.737 144.735 280.767 144.717 280.8 144.712C280.833 144.707 280.867 144.715 280.894 144.734C280.921 144.753 280.94 144.782 280.947 144.815C282.993 158.595 268.71 178.033 268.565 178.227C268.547 178.252 268.521 178.269 268.492 178.276Z" fill="#364CCE"/>
<path d="M273.268 175.269C271.918 175.605 270.452 175.595 270.355 175.595H270.283L270.246 175.534C270.159 175.396 268.146 172.109 268.199 169.252C268.199 169.234 268.201 169.217 268.208 169.2C268.214 169.183 268.224 169.168 268.236 169.155C268.249 169.143 268.264 169.133 268.28 169.126C268.296 169.119 268.314 169.116 268.332 169.116C268.35 169.117 268.367 169.121 268.383 169.128C268.4 169.135 268.414 169.146 268.426 169.159C268.438 169.172 268.447 169.188 268.453 169.205C268.458 169.221 268.461 169.239 268.459 169.257C268.411 171.827 270.151 174.867 270.429 175.334C270.949 175.33 274.129 175.256 275.045 174.057C275.066 174.03 275.097 174.012 275.131 174.007C275.165 174.003 275.2 174.012 275.227 174.033C275.254 174.054 275.272 174.085 275.277 174.119C275.281 174.153 275.272 174.188 275.251 174.215C274.849 174.742 274.08 175.068 273.268 175.269Z" fill="#364CCE"/>
<path d="M272.988 171.764C272.81 171.808 272.708 171.83 272.704 171.832L272.665 171.84L272.627 171.826C270.659 171.037 269.298 161.327 269.241 160.914C269.237 160.88 269.246 160.846 269.266 160.819C269.286 160.792 269.316 160.774 269.35 160.768C269.384 160.763 269.418 160.772 269.445 160.792C269.473 160.812 269.491 160.843 269.496 160.877C269.876 163.626 271.182 170.861 272.686 171.566C273.304 171.422 280.604 169.655 281.305 166.524C281.309 166.506 281.315 166.49 281.325 166.476C281.335 166.461 281.347 166.449 281.362 166.439C281.376 166.43 281.392 166.423 281.41 166.42C281.427 166.417 281.444 166.417 281.461 166.421C281.478 166.425 281.494 166.432 281.509 166.442C281.523 166.452 281.535 166.465 281.544 166.48C281.553 166.495 281.559 166.512 281.561 166.529C281.564 166.546 281.563 166.564 281.558 166.581C281.233 168.022 279.641 169.345 276.819 170.511C275.573 171.018 274.293 171.437 272.988 171.764Z" fill="#364CCE"/>
<path d="M275.398 166.873L275.367 166.867C272.197 166.314 270.624 153.383 270.559 152.832C270.554 152.798 270.564 152.764 270.586 152.737C270.607 152.71 270.638 152.692 270.672 152.688C270.706 152.684 270.741 152.694 270.768 152.715C270.795 152.737 270.812 152.768 270.816 152.802C270.82 152.835 271.222 156.18 271.999 159.547C273.006 163.92 274.175 166.358 275.381 166.606C275.9 166.438 282.747 164.178 284.161 161.224C284.168 161.208 284.178 161.193 284.19 161.18C284.203 161.168 284.218 161.158 284.235 161.151C284.251 161.145 284.269 161.142 284.287 161.143C284.305 161.143 284.322 161.148 284.338 161.155C284.354 161.163 284.368 161.174 284.38 161.187C284.392 161.201 284.401 161.217 284.406 161.234C284.411 161.25 284.413 161.268 284.411 161.286C284.41 161.304 284.404 161.321 284.395 161.336C282.884 164.493 275.731 166.769 275.428 166.864L275.398 166.873Z" fill="#364CCE"/>
<path d="M277.606 162.033C277.525 162.053 277.481 162.063 277.478 162.063H277.424C275.097 161.575 273.517 149.914 273.449 149.418C273.446 149.401 273.447 149.383 273.451 149.367C273.456 149.35 273.463 149.335 273.474 149.321C273.484 149.307 273.497 149.296 273.512 149.288C273.527 149.279 273.543 149.274 273.56 149.272C273.577 149.269 273.595 149.27 273.611 149.275C273.628 149.279 273.643 149.287 273.657 149.297C273.67 149.308 273.682 149.321 273.69 149.335C273.699 149.35 273.704 149.367 273.706 149.383C274.148 152.693 275.678 161.347 277.45 161.804C277.906 161.691 283.528 160.3 284.983 157.282C284.991 157.267 285.001 157.253 285.014 157.241C285.026 157.23 285.041 157.221 285.057 157.216C285.073 157.21 285.09 157.208 285.108 157.209C285.125 157.21 285.141 157.214 285.157 157.221C285.172 157.229 285.186 157.239 285.197 157.252C285.208 157.265 285.217 157.279 285.223 157.296C285.228 157.312 285.231 157.329 285.23 157.346C285.229 157.363 285.224 157.379 285.217 157.395C284.559 158.761 283.054 159.962 280.745 160.965C279.728 161.403 278.678 161.76 277.606 162.033Z" fill="#364CCE"/>
<path d="M280.045 154.92L280.02 154.917C277.013 154.528 276.661 145.931 276.648 145.565C276.647 145.548 276.65 145.531 276.656 145.515C276.661 145.499 276.671 145.485 276.682 145.472C276.694 145.46 276.708 145.45 276.723 145.442C276.739 145.435 276.755 145.431 276.772 145.431C276.789 145.43 276.806 145.433 276.822 145.439C276.838 145.445 276.853 145.454 276.865 145.465C276.878 145.477 276.888 145.491 276.895 145.506C276.902 145.522 276.906 145.539 276.907 145.556C276.91 145.643 277.261 154.247 280.028 154.656C280.413 154.551 285.136 153.2 285.471 150.69C285.476 150.656 285.494 150.625 285.521 150.605C285.548 150.584 285.583 150.575 285.617 150.579C285.651 150.584 285.682 150.602 285.703 150.629C285.724 150.656 285.733 150.691 285.728 150.725C285.358 153.5 280.285 154.858 280.069 154.914L280.045 154.92Z" fill="#364CCE"/>
<path d="M224.686 140.036C215.562 142.7 219.937 169.172 219.937 169.172L248.95 162.969C245.775 150.178 233.81 137.372 224.686 140.036Z" stroke="#E8A91C" stroke-width="2.58" stroke-linecap="round" stroke-linejoin="round"/>
<path d="M213.832 165.495L263.156 155.848L286.012 193.334C288.273 197.044 286.485 201.892 282.357 203.245L235.225 218.695L213.832 165.495Z" fill="#FFBE21"/>
<path d="M213.832 165.495L210.445 167.134L219.262 215.282C219.428 216.188 219.777 217.049 220.288 217.814C220.8 218.579 221.462 219.231 222.235 219.73C223.009 220.229 223.876 220.565 224.783 220.716C225.691 220.867 226.62 220.83 227.513 220.609L235.225 218.694L213.832 165.495Z" fill="#E8A91C"/>
<path d="M229.766 168.289C230.515 168.289 231.122 167.682 231.122 166.933C231.122 166.184 230.515 165.576 229.766 165.576C229.017 165.576 228.409 166.184 228.409 166.933C228.409 167.682 229.017 168.289 229.766 168.289Z" fill="#E8A91C"/>
<path d="M254.541 162.525C255.29 162.525 255.898 161.917 255.898 161.168C255.898 160.419 255.29 159.812 254.541 159.812C253.792 159.812 253.185 160.419 253.185 161.168C253.185 161.917 253.792 162.525 254.541 162.525Z" fill="#E8A91C"/>
<path d="M227.978 139.619C219.508 144.917 229.766 166.932 229.766 166.932L254.593 161.568C250.849 152.114 236.448 134.321 227.978 139.619Z" stroke="#FFBE21" stroke-width="2.58" stroke-linecap="round" stroke-linejoin="round"/>
<path d="M134.315 132.414L228.002 174.926C229.163 175.452 230.076 176.405 230.552 177.588C231.027 178.771 231.027 180.091 230.553 181.274L208.371 236.561C207.903 237.727 207.009 238.671 205.87 239.203C204.732 239.734 203.433 239.812 202.239 239.421L103.683 207.171C103.036 206.959 102.439 206.616 101.93 206.163C101.422 205.71 101.012 205.157 100.727 204.538C100.442 203.919 100.288 203.248 100.274 202.567C100.261 201.886 100.388 201.21 100.648 200.58L127.696 135.031C127.95 134.417 128.324 133.861 128.797 133.395C129.271 132.929 129.833 132.563 130.45 132.318C131.068 132.074 131.729 131.957 132.393 131.973C133.057 131.99 133.711 132.14 134.315 132.414Z" fill="#FFCFE6"/>
<path d="M145.072 151.6C139.321 149.292 132.786 152.085 130.476 157.837C128.166 163.589 130.961 170.123 136.713 172.433C142.465 174.743 148.999 171.949 151.309 166.197C153.619 160.444 150.827 153.907 145.072 151.6ZM138.698 167.489C137.615 167.055 136.686 166.309 136.027 165.346C135.368 164.384 135.01 163.247 134.997 162.081C134.984 160.915 135.317 159.771 135.954 158.794C136.591 157.817 137.504 157.05 138.576 156.592C139.649 156.134 140.834 156.004 141.98 156.219C143.127 156.433 144.184 156.983 145.018 157.799C145.852 158.615 146.425 159.659 146.665 160.801C146.906 161.942 146.802 163.129 146.368 164.212C146.079 164.93 145.652 165.585 145.11 166.139C144.569 166.693 143.924 167.134 143.211 167.439C142.499 167.743 141.734 167.904 140.959 167.913C140.185 167.921 139.416 167.777 138.698 167.489V167.489Z" fill="white"/>
<path d="M164.653 177.068C158.902 174.76 152.367 177.552 150.057 183.305C147.747 189.057 150.542 195.591 156.297 197.898C162.052 200.206 168.583 197.414 170.894 191.662C173.204 185.909 170.406 179.376 164.653 177.068ZM158.279 192.957C157.196 192.522 156.267 191.777 155.608 190.814C154.949 189.852 154.591 188.715 154.578 187.549C154.565 186.382 154.898 185.238 155.535 184.261C156.172 183.284 157.085 182.518 158.158 182.06C159.23 181.602 160.415 181.472 161.561 181.686C162.708 181.901 163.765 182.451 164.599 183.267C165.433 184.082 166.006 185.127 166.246 186.268C166.487 187.41 166.383 188.597 165.949 189.679C165.66 190.398 165.233 191.053 164.692 191.607C164.15 192.161 163.505 192.603 162.793 192.907C162.08 193.211 161.315 193.372 160.541 193.381C159.766 193.389 158.997 193.245 158.279 192.957Z" fill="white"/>
<path d="M131.986 192.288C131.64 192.149 131.336 191.922 131.104 191.63C130.872 191.338 130.72 190.991 130.662 190.623C130.604 190.255 130.643 189.878 130.774 189.529C130.905 189.18 131.125 188.871 131.412 188.633L166.422 159.494C166.863 159.145 167.423 158.982 167.982 159.04C168.541 159.098 169.056 159.372 169.415 159.804C169.775 160.236 169.952 160.792 169.907 161.352C169.863 161.913 169.601 162.434 169.178 162.804L134.168 191.943C133.869 192.192 133.509 192.356 133.124 192.417C132.74 192.477 132.347 192.433 131.986 192.288Z" fill="white"/>
<path d="M106.646 186.206L213.957 222.635L209.555 233.609L101.423 198.865L106.646 186.206Z" fill="#F3BBD4"/>
<path d="M292.606 104.127L285.229 88.6353C285.011 88.1767 284.693 87.7724 284.299 87.4519C283.905 87.1313 283.444 86.9026 282.951 86.7821C282.457 86.6617 281.943 86.6526 281.445 86.7556C280.948 86.8586 280.48 87.071 280.074 87.3775L255.253 106.128C254.729 106.522 254.329 107.06 254.101 107.676C253.874 108.291 253.829 108.96 253.971 109.601L256.298 120.161C256.408 120.661 256.628 121.131 256.944 121.535C257.259 121.938 257.661 122.266 258.12 122.494C258.579 122.722 259.083 122.843 259.595 122.851C260.107 122.858 260.614 122.75 261.079 122.535L290.951 108.713C291.362 108.523 291.731 108.252 292.038 107.918C292.344 107.583 292.581 107.192 292.735 106.765C292.888 106.339 292.956 105.886 292.934 105.433C292.912 104.98 292.8 104.536 292.606 104.127ZM262.049 113.557C261.98 113.905 261.809 114.225 261.558 114.476C261.306 114.727 260.987 114.898 260.638 114.967C260.29 115.036 259.929 115 259.602 114.864C259.274 114.729 258.993 114.499 258.796 114.203C258.599 113.908 258.494 113.561 258.494 113.206C258.493 112.851 258.599 112.504 258.796 112.209C258.993 111.914 259.273 111.684 259.601 111.548C259.929 111.412 260.29 111.376 260.638 111.446C260.869 111.491 261.089 111.582 261.286 111.713C261.482 111.844 261.65 112.013 261.781 112.209C261.912 112.405 262.003 112.625 262.049 112.856C262.095 113.087 262.095 113.326 262.049 113.557Z" fill="#FFCFE6"/>
<path d="M286.636 106.007C286.577 106.021 286.515 106.013 286.46 105.986C286.406 105.959 286.363 105.913 286.338 105.857L280.135 91.6684C280.107 91.6051 280.106 91.5334 280.131 91.4691C280.157 91.4047 280.206 91.3531 280.27 91.3255C280.333 91.2978 280.405 91.2965 280.469 91.3217C280.533 91.347 280.585 91.3967 280.613 91.46L286.818 105.649C286.832 105.68 286.839 105.714 286.84 105.748C286.84 105.782 286.834 105.816 286.822 105.848C286.809 105.88 286.791 105.909 286.767 105.933C286.744 105.958 286.715 105.978 286.684 105.991C286.669 105.999 286.653 106.004 286.636 106.007Z" fill="white"/>
<path d="M277.158 107.81L263.755 106.494L263.358 105.602L276.761 106.919L277.158 107.81ZM268.4 108.624C270.581 107.653 272.174 108.317 272.77 109.655C273.344 110.945 272.805 112.519 270.727 113.464C268.658 114.387 266.993 113.773 266.383 112.405C265.738 110.953 266.426 109.502 268.4 108.624ZM270.184 112.368C271.519 111.811 272.3 110.871 271.912 109.995C271.5 109.073 270.329 109.098 268.96 109.708C267.702 110.268 266.815 111.102 267.248 112.073C267.638 112.949 268.878 112.951 270.184 112.368ZM269.683 99.9814C271.864 99.0095 273.457 99.6737 274.045 100.995C274.619 102.284 274.082 103.859 272.019 104.797C269.933 105.726 268.269 105.113 267.659 103.744C267.013 102.296 267.709 100.861 269.683 99.9819V99.9814ZM271.466 103.725C272.795 103.152 273.57 102.196 273.188 101.338C272.777 100.415 271.605 100.44 270.236 101.05C268.978 101.61 268.091 102.444 268.524 103.416C268.913 104.293 270.161 104.309 271.466 103.728V103.725Z" fill="white"/>
<path d="M140.948 122.447L141.428 121.315C141.47 121.214 141.478 121.102 141.451 120.996C141.424 120.89 141.364 120.796 141.279 120.727C140.996 120.493 140.671 120.061 141 119.454C141.321 118.862 141.791 118.776 142.103 118.797C142.205 118.801 142.307 118.774 142.393 118.719C142.479 118.664 142.545 118.583 142.583 118.488L142.811 117.936C142.85 117.845 142.86 117.745 142.842 117.649C142.823 117.552 142.776 117.463 142.706 117.393C142.442 117.131 142.1 116.642 142.411 116.072C142.703 115.536 143.188 115.458 143.51 115.475C143.613 115.478 143.714 115.45 143.8 115.393C143.885 115.337 143.952 115.255 143.989 115.159L144.262 114.484C144.301 114.386 144.308 114.277 144.282 114.174C144.256 114.071 144.199 113.978 144.118 113.91C143.858 113.683 143.558 113.278 143.819 112.74C144.08 112.202 144.572 112.127 144.904 112.143C145.011 112.146 145.115 112.116 145.203 112.057C145.292 111.999 145.359 111.913 145.397 111.814L145.668 111.118C145.706 111.028 145.716 110.929 145.696 110.834C145.677 110.738 145.63 110.65 145.56 110.582C145.259 110.303 145.044 109.72 145.329 109.205C145.551 108.805 145.977 108.748 146.274 108.765C146.376 108.769 146.476 108.743 146.562 108.688C146.647 108.634 146.714 108.555 146.754 108.462L147.09 107.676C147.129 107.587 147.14 107.488 147.124 107.393C147.107 107.297 147.063 107.208 146.996 107.138C146.74 106.866 146.394 106.378 146.638 105.873C146.866 105.398 147.33 105.306 147.644 105.303C147.742 105.303 147.838 105.276 147.92 105.223C148.002 105.17 148.068 105.095 148.109 105.006L148.587 103.937C148.614 103.876 148.629 103.809 148.63 103.742C148.631 103.675 148.619 103.608 148.594 103.546C148.569 103.483 148.532 103.427 148.485 103.379C148.437 103.331 148.381 103.294 148.319 103.268L114.421 89.4591C114.299 89.4093 114.162 89.4095 114.04 89.4596C113.918 89.5098 113.821 89.6059 113.77 89.7272L113.29 90.8591C113.248 90.96 113.239 91.0718 113.266 91.1778C113.293 91.2837 113.354 91.3781 113.439 91.4468C113.721 91.6812 114.047 92.1126 113.718 92.7198C113.397 93.3123 112.927 93.398 112.615 93.3774C112.512 93.3721 112.411 93.3991 112.325 93.4545C112.239 93.5099 112.172 93.5909 112.135 93.6862L111.906 94.238C111.868 94.3287 111.858 94.4287 111.876 94.5254C111.895 94.622 111.942 94.7109 112.012 94.7806C112.275 95.0433 112.618 95.5316 112.307 96.1025C112.015 96.638 111.53 96.7151 111.208 96.6994C111.105 96.6961 111.004 96.7247 110.918 96.7812C110.833 96.8378 110.766 96.9195 110.729 97.0152L110.454 97.6907C110.415 97.7896 110.408 97.8982 110.434 98.0012C110.46 98.1043 110.517 98.1966 110.598 98.2654C110.857 98.4922 111.158 98.8975 110.896 99.4353C110.634 99.973 110.143 100.048 109.811 100.032C109.705 100.029 109.6 100.059 109.512 100.118C109.423 100.176 109.356 100.262 109.318 100.361L109.047 101.056C109.009 101.146 108.999 101.246 109.019 101.341C109.038 101.437 109.086 101.525 109.155 101.593C109.456 101.871 109.671 102.455 109.386 102.969C109.165 103.37 108.739 103.427 108.441 103.411C108.339 103.406 108.239 103.433 108.154 103.487C108.068 103.541 108.001 103.62 107.962 103.713L107.625 104.5C107.586 104.589 107.575 104.687 107.591 104.783C107.608 104.878 107.652 104.967 107.719 105.037C107.975 105.309 108.321 105.797 108.077 106.302C107.849 106.777 107.385 106.869 107.071 106.872C106.973 106.872 106.878 106.899 106.795 106.952C106.713 107.004 106.647 107.079 106.607 107.168L106.129 108.238C106.101 108.3 106.086 108.366 106.085 108.433C106.084 108.5 106.096 108.567 106.121 108.629C106.146 108.692 106.183 108.748 106.231 108.796C106.278 108.844 106.334 108.881 106.397 108.907L140.301 122.715C140.422 122.764 140.558 122.763 140.679 122.713C140.8 122.663 140.897 122.567 140.948 122.447Z" fill="#FFCFE6"/>
<path d="M121.369 104.242C121.325 104.366 121.317 104.5 121.344 104.628C121.398 104.811 121.561 104.963 121.829 105.084C121.961 105.148 122.103 105.19 122.248 105.209C122.47 105.228 122.623 105.146 122.704 104.964C122.727 104.914 122.737 104.859 122.732 104.805C122.726 104.75 122.706 104.698 122.673 104.654C122.605 104.554 122.478 104.437 122.293 104.301L121.978 104.068C121.669 103.839 121.47 103.651 121.381 103.504C121.23 103.258 121.225 102.976 121.367 102.659C121.425 102.522 121.513 102.399 121.624 102.3C121.735 102.2 121.866 102.126 122.009 102.082C122.307 101.987 122.663 102.031 123.075 102.215C123.419 102.369 123.673 102.591 123.835 102.88C123.997 103.17 124.008 103.488 123.866 103.836L123.218 103.546C123.256 103.459 123.27 103.364 123.256 103.27C123.243 103.176 123.204 103.088 123.143 103.015C123.043 102.902 122.918 102.812 122.777 102.754C122.631 102.68 122.467 102.651 122.304 102.669C122.24 102.677 122.179 102.702 122.128 102.741C122.077 102.779 122.037 102.831 122.013 102.891C121.987 102.944 121.978 103.003 121.985 103.061C121.993 103.12 122.017 103.175 122.055 103.219C122.105 103.287 122.228 103.396 122.424 103.545L122.93 103.932C123.152 104.102 123.303 104.263 123.383 104.416C123.508 104.654 123.506 104.917 123.376 105.204C123.316 105.346 123.224 105.472 123.108 105.573C122.992 105.673 122.854 105.746 122.706 105.786C122.391 105.879 122.025 105.832 121.61 105.646C121.185 105.456 120.893 105.21 120.736 104.909C120.579 104.608 120.575 104.29 120.725 103.954L121.369 104.242Z" fill="white"/>
<path d="M125.795 103.545L126.558 103.886L126.255 107.624L125.523 107.298L125.608 106.539L124.42 106.006L123.905 106.573L123.199 106.256L125.795 103.545ZM124.852 105.533L125.678 105.903L125.841 104.451L124.852 105.533Z" fill="white"/>
<path d="M128.11 104.582L128.784 104.884L127.599 107.531L129.21 108.252L128.951 108.832L126.665 107.81L128.11 104.582Z" fill="white"/>
<path d="M132.98 107.449L131.272 106.685L130.965 107.37L132.532 108.072L132.281 108.632L130.714 107.931L130.342 108.76L132.128 109.56L131.868 110.14L129.423 109.045L130.868 105.818L133.237 106.878L132.98 107.449Z" fill="white"/>
<path d="M248.069 69.7012C254.94 62.8305 254.94 51.691 248.069 44.8203C241.199 37.9496 230.059 37.9496 223.189 44.8203C216.318 51.691 216.318 62.8305 223.189 69.7012C230.059 76.5719 241.199 76.5719 248.069 69.7012Z" fill="#4756DF"/>
<path d="M245.942 67.5736C251.637 61.878 251.637 52.6435 245.942 46.9479C240.246 41.2522 231.011 41.2522 225.316 46.9479C219.62 52.6435 219.62 61.878 225.316 67.5736C231.011 73.2693 240.246 73.2693 245.942 67.5736Z" fill="white"/>
<path d="M235.629 46.6524C235.538 46.6522 235.45 46.6157 235.385 46.551C235.321 46.4864 235.284 46.3988 235.284 46.3073V43.7396C235.284 43.6482 235.321 43.5606 235.385 43.4959C235.45 43.4313 235.538 43.3948 235.629 43.3945C235.72 43.3948 235.808 43.4313 235.873 43.4959C235.937 43.5606 235.974 43.6482 235.974 43.7396V46.3073C235.974 46.3988 235.937 46.4864 235.873 46.551C235.808 46.6157 235.72 46.6522 235.629 46.6524ZM235.974 70.1106V67.5423C235.974 67.4509 235.937 67.3633 235.873 67.2986C235.808 67.234 235.72 67.1975 235.629 67.1972C235.538 67.1975 235.45 67.234 235.385 67.2986C235.321 67.3633 235.284 67.4509 235.284 67.5423V70.1106C235.284 70.202 235.321 70.2895 235.385 70.3541C235.45 70.4187 235.538 70.455 235.629 70.4551C235.72 70.455 235.808 70.4187 235.873 70.3541C235.937 70.2895 235.974 70.202 235.974 70.1106ZM246.349 57.2699H248.917C249.008 57.2697 249.096 57.2332 249.16 57.1685C249.225 57.1038 249.261 57.0162 249.261 56.9248C249.261 56.8334 249.225 56.7458 249.16 56.6812C249.096 56.6165 249.008 56.58 248.917 56.5797H246.349C246.257 56.58 246.169 56.6165 246.105 56.6811C246.04 56.7458 246.004 56.8334 246.003 56.9248C246.004 57.0163 246.04 57.1039 246.105 57.1685C246.169 57.2332 246.257 57.2697 246.349 57.2699ZM222.546 57.2699H225.114C225.205 57.2697 225.292 57.2332 225.357 57.1685C225.422 57.1038 225.458 57.0162 225.458 56.9248C225.458 56.8334 225.422 56.7458 225.357 56.6812C225.292 56.6165 225.205 56.58 225.114 56.5797H222.545C222.454 56.58 222.366 56.6165 222.302 56.6811C222.237 56.7458 222.2 56.8334 222.2 56.9248C222.2 57.0164 222.237 57.1041 222.302 57.1687C222.367 57.2334 222.454 57.2698 222.546 57.2699Z" fill="#4756DF"/>
<path d="M235.73 57.3272H229.002C228.819 57.326 228.645 57.2528 228.516 57.1236C228.387 56.9943 228.315 56.8194 228.314 56.6369C228.315 56.4542 228.388 56.2791 228.517 56.1499C228.646 56.0207 228.821 55.9478 229.004 55.9473H235.733C235.915 55.9478 236.091 56.0207 236.22 56.1499C236.349 56.2791 236.422 56.4542 236.423 56.6369C236.422 56.8202 236.349 56.9958 236.219 57.1251C236.09 57.2545 235.914 57.3272 235.73 57.3272Z" fill="#FFCFE6"/>
<path d="M242.149 47.3489L236.116 57.0543C236.046 57.167 235.934 57.2474 235.805 57.2779C235.676 57.3084 235.54 57.2865 235.427 57.217C235.314 57.147 235.233 57.0352 235.203 56.9061C235.172 56.7769 235.194 56.641 235.264 56.5279L241.298 46.8193C241.368 46.7065 241.48 46.626 241.609 46.5955C241.738 46.5649 241.874 46.5869 241.987 46.6565C242.044 46.6913 242.092 46.7369 242.131 46.7905C242.169 46.8442 242.197 46.9049 242.212 46.9693C242.227 47.0336 242.229 47.1002 242.218 47.1654C242.207 47.2305 242.184 47.2929 242.149 47.3489Z" fill="#FFCFE6"/>
<path d="M235.769 57.6913C236.394 57.6913 236.9 57.1851 236.9 56.5605C236.9 55.936 236.394 55.4297 235.769 55.4297C235.145 55.4297 234.639 55.936 234.639 56.5605C234.639 57.1851 235.145 57.6913 235.769 57.6913Z" fill="#DB947D"/>
<path d="M251.291 72.6179C254.338 69.5713 254.338 64.6318 251.291 61.5852C248.245 58.5386 243.305 58.5386 240.259 61.5852C237.212 64.6318 237.212 69.5713 240.259 72.6179C243.305 75.6645 248.245 75.6645 251.291 72.6179Z" fill="#FFCFE6"/>
<path d="M243.596 65.7856C243.596 65.3113 243.391 65.074 242.98 65.0737C242.749 65.0737 242.579 65.1547 242.472 65.3168C242.365 65.4788 242.306 65.7306 242.294 66.0721H240.845C240.881 65.3254 241.107 64.7647 241.522 64.39C241.937 64.0152 242.464 63.8273 243.101 63.8262C243.767 63.8262 244.269 63.994 244.607 64.3297C244.946 64.6654 245.115 65.1022 245.116 65.6402C245.116 66.2363 244.887 66.8193 244.43 67.389C243.97 67.9614 243.415 68.4502 242.789 68.834H245.211V70.0322H240.836V68.9192C242.676 67.6064 243.596 66.5619 243.596 65.7856Z" fill="#F2F2F2"/>
<path d="M245.836 68.9708V67.7298L248.64 63.8848H250.237V67.6777H250.975V68.9708H250.237V70.0973H248.735V68.9686L245.836 68.9708ZM248.857 65.6033L247.346 67.6777H248.857V65.6033Z" fill="#F2F2F2"/>
<path d="M265.267 207.737L263.419 206.57L261.011 210.384L262.858 211.551L265.267 207.737Z" fill="#E2A41A"/>
<path d="M256.456 219.76C256.261 219.637 256.093 219.477 255.96 219.289C255.827 219.101 255.733 218.888 255.682 218.664C255.631 218.439 255.625 218.207 255.664 217.98C255.703 217.753 255.787 217.536 255.91 217.342L261.103 209.117L264.067 210.989L258.874 219.213C258.751 219.408 258.591 219.577 258.403 219.709C258.215 219.842 258.003 219.937 257.778 219.988C257.554 220.038 257.321 220.044 257.094 220.005C256.868 219.966 256.651 219.883 256.456 219.76Z" fill="#364CCE"/>
<path d="M271.932 194.633C270.628 193.81 269.109 193.392 267.568 193.431C266.026 193.471 264.53 193.967 263.271 194.857C262.011 195.747 261.043 196.99 260.49 198.429C259.936 199.869 259.823 201.441 260.162 202.945C260.502 204.449 261.28 205.819 262.399 206.881C263.517 207.943 264.925 208.65 266.445 208.912C267.965 209.173 269.529 208.979 270.938 208.352C272.347 207.725 273.539 206.694 274.362 205.39C275.466 203.642 275.831 201.526 275.375 199.509C274.919 197.491 273.681 195.738 271.932 194.633ZM264.865 205.826C263.956 205.252 263.237 204.42 262.799 203.438C262.362 202.455 262.226 201.364 262.409 200.304C262.591 199.244 263.084 198.261 263.825 197.481C264.566 196.701 265.521 196.158 266.57 195.921C267.62 195.684 268.716 195.764 269.72 196.149C270.724 196.535 271.591 197.21 272.212 198.089C272.833 198.968 273.179 200.011 273.206 201.086C273.234 202.162 272.943 203.221 272.368 204.131C271.987 204.735 271.49 205.258 270.907 205.67C270.323 206.082 269.665 206.375 268.968 206.532C268.271 206.69 267.55 206.708 266.846 206.587C266.142 206.466 265.469 206.207 264.865 205.826Z" fill="#364CCE"/>
<path d="M272.367 204.131C271.912 204.85 271.295 205.452 270.565 205.889C269.836 206.327 269.014 206.587 268.166 206.649C267.318 206.712 266.467 206.575 265.681 206.249C264.895 205.923 264.197 205.418 263.642 204.773C263.376 204.464 263.147 204.125 262.959 203.763C262.909 203.674 262.864 203.583 262.823 203.492C262.336 202.426 262.205 201.232 262.452 200.086C262.698 198.941 263.307 197.906 264.189 197.135C265.072 196.364 266.179 195.898 267.347 195.807C268.515 195.717 269.681 196.006 270.672 196.631C270.753 196.682 270.831 196.734 270.907 196.787C271.662 197.318 272.268 198.035 272.666 198.868C272.713 198.959 272.754 199.052 272.79 199.147C272.948 199.523 273.062 199.917 273.131 200.319C273.357 201.641 273.084 202.999 272.367 204.131Z" fill="white"/>
<path opacity="0.4" d="M272.666 198.866L262.825 203.49C262.44 202.65 262.277 201.726 262.35 200.805L270.909 196.785C271.664 197.316 272.269 198.033 272.666 198.866Z" fill="#F2EDED"/>
<path opacity="0.4" d="M273.131 200.317L263.642 204.773C263.377 204.464 263.147 204.125 262.959 203.763L272.791 199.145C272.949 199.521 273.063 199.915 273.131 200.317Z" fill="#F2EDED"/>
<path d="M170.965 59.0769C174.544 55.498 174.544 49.6954 170.965 46.1165C167.386 42.5376 161.584 42.5376 158.005 46.1165C154.426 49.6954 154.426 55.498 158.005 59.0769C161.584 62.6558 167.386 62.6558 170.965 59.0769Z" fill="#F2B120"/>
<path d="M170 58.1639C173.031 55.1324 173.031 50.2172 170 47.1857C166.968 44.1542 162.053 44.1542 159.021 47.1857C155.99 50.2172 155.99 55.1324 159.021 58.1639C162.053 61.1955 166.968 61.1955 170 58.1639Z" fill="#FFBE21"/>
<path d="M164.357 44.9136C163.12 44.9381 161.906 45.2596 160.818 45.8513C162.661 45.2252 164.672 45.3148 166.453 46.1021C168.233 46.8894 169.652 48.3169 170.429 50.1016C171.206 51.8864 171.283 53.8978 170.646 55.7372C170.01 57.5765 168.705 59.1093 166.991 60.0316C168.748 59.4391 170.234 58.2373 171.182 56.6437C172.13 55.0501 172.476 53.1699 172.158 51.3432C171.84 49.5166 170.878 47.8641 169.448 46.6848C168.017 45.5055 166.211 44.8772 164.357 44.9136Z" fill="#E8A91C"/>
<path d="M164.448 56.9522C162.803 56.8393 161.591 56.0064 161.5 54.4502L163.698 54.4068C163.755 54.9011 164.003 55.1979 164.415 55.3227L164.378 53.4154C163.08 53.1028 161.455 52.7724 161.417 50.8775C161.388 49.3685 162.638 48.4504 164.277 48.3093L164.258 47.3326L165.03 47.3174L165.05 48.2941C166.706 48.3939 167.786 49.2166 167.926 50.7489L165.717 50.7923C165.662 50.3468 165.425 50.0739 165.085 49.96L165.121 51.8309C166.42 52.1679 168.081 52.4848 168.118 54.3557C168.143 55.658 167.128 56.8269 165.222 56.9489L165.241 57.9257L164.469 57.9409L164.448 56.9522ZM164.339 51.5943L164.306 49.916C163.861 49.9974 163.588 50.2687 163.597 50.7392C163.608 51.1602 163.905 51.4077 164.339 51.5943ZM165.153 53.6308L165.187 55.3449C165.668 55.2511 165.964 54.9195 165.955 54.4724C165.947 54.0361 165.629 53.8012 165.153 53.6292V53.6308Z" fill="white"/>
<path d="M158.356 82.6465C162.36 78.6419 162.36 72.1491 158.356 68.1445C154.351 64.1399 147.858 64.1399 143.854 68.1445C139.849 72.1491 139.849 78.6419 143.854 82.6465C147.858 86.6512 154.351 86.6512 158.356 82.6465Z" fill="#F2B120"/>
<path d="M157.335 81.5142C160.727 78.122 160.727 72.6221 157.335 69.2299C153.942 65.8377 148.443 65.8377 145.05 69.2299C141.658 72.6221 141.658 78.122 145.05 81.5142C148.443 84.9064 153.942 84.9064 157.335 81.5142Z" fill="#FFBE21"/>
<path d="M142.513 75.0496C142.461 76.4347 142.743 77.812 143.336 79.065C142.753 76.9661 142.98 74.7247 143.972 72.7856C144.965 70.8464 146.65 69.3512 148.693 68.5966C150.737 67.842 152.989 67.8832 155.004 68.7119C157.018 69.5407 158.648 71.0965 159.569 73.0706C159.019 71.0701 157.771 69.3326 156.051 68.1725C154.33 67.0123 152.252 66.5061 150.191 66.7455C148.13 66.9849 146.223 67.954 144.815 69.4776C143.406 71.0011 142.59 72.9784 142.513 75.0517V75.0496Z" fill="#E8A91C"/>
<path d="M155.967 75.7149C155.737 77.5441 154.729 78.8453 152.983 78.8485L153.074 76.3905C153.63 76.3579 153.978 76.1002 154.143 75.6471L152.01 75.5678C151.576 76.9982 151.106 78.7921 148.987 78.7151C147.299 78.6521 146.353 77.1957 146.299 75.3573L145.206 75.3166L145.238 74.4522L146.331 74.4929C146.549 72.648 147.538 71.4955 149.257 71.4385L149.165 73.9085C148.664 73.9443 148.343 74.189 148.195 74.5596L150.287 74.6372C150.746 73.208 151.206 71.3728 153.298 71.4504C154.757 71.5047 155.996 72.7131 156.011 74.8499L157.105 74.8906L157.073 75.7545L155.967 75.7149ZM149.973 75.4919L148.097 75.4224C148.159 75.9238 148.444 76.2461 148.971 76.2656C149.443 76.2836 149.739 75.9694 149.973 75.4919ZM152.3 74.7132L154.217 74.7843C154.143 74.2417 153.791 73.8895 153.292 73.8705C152.805 73.8526 152.522 74.1939 152.3 74.7132Z" fill="white"/>
<path d="M171.396 195.05C171.396 195.05 171.099 197.573 175.164 196.937C177.13 196.63 179.097 196.321 181.044 195.911C182.631 195.577 185.394 195.368 186.033 193.578C186.595 192.001 185.317 191.353 183.888 191.23C179.951 190.893 171.396 195.05 171.396 195.05Z" fill="#191117"/>
<path d="M173.651 191.541C173.354 191.97 173.17 192.468 173.118 192.987C173.066 193.506 173.146 194.031 173.351 194.51C174.407 196.989 176.67 202.637 175.956 203.879C175.033 205.483 166.034 211.684 167.459 214.572C168.643 216.972 183.099 210.223 187.957 207.87C188.495 207.612 188.945 207.203 189.254 206.693C189.562 206.182 189.715 205.593 189.694 204.998C189.635 203.478 189.187 201.447 187.466 199.986C187.04 199.634 186.711 199.18 186.51 198.666L183.099 189.582C182.498 187.982 180.707 187.165 179.115 187.785C177.229 188.518 174.912 189.728 173.651 191.541Z" fill="#A15842"/>
<path d="M190.677 206.17L190.096 204.664C190.057 204.565 189.994 204.477 189.912 204.409C189.83 204.341 189.732 204.295 189.628 204.276C189.523 204.256 189.416 204.263 189.315 204.296C189.214 204.329 189.123 204.388 189.05 204.466C187.577 205.999 183.445 207.786 179.169 209.339C177.041 209.194 175.172 203.507 171.952 206.523C169.286 209.019 164.976 214.863 168.138 215.7C168.356 215.772 168.584 215.809 168.813 215.808C179.503 215.135 188.596 208.379 190.483 206.887C190.588 206.805 190.664 206.69 190.699 206.561C190.734 206.432 190.726 206.295 190.677 206.17Z" fill="#EF7946"/>
<path d="M231.332 171.388L241.384 165.965C241.809 165.737 242.184 165.426 242.49 165.053C243.553 163.75 246.312 160.646 247.807 161.571C249.392 162.551 255.081 173.454 256.815 176.823C257.137 177.448 256.684 178.209 255.981 178.195C255.291 178.182 254.306 177.946 252.957 177.171C250.156 175.56 245.964 174.865 244.947 174.715C244.796 174.691 244.642 174.706 244.498 174.756C243.56 175.088 239.787 176.611 236.251 180.649C236.148 180.769 236.017 180.861 235.871 180.917C235.724 180.974 235.565 180.993 235.409 180.973C235.253 180.952 235.104 180.894 234.976 180.802C234.848 180.71 234.746 180.587 234.677 180.446L230.933 172.632C230.827 172.413 230.809 172.162 230.883 171.93C230.957 171.698 231.118 171.504 231.332 171.388Z" fill="#A15842"/>
<path d="M196.509 141.337C195.967 141.191 195.391 141.233 194.876 141.457L181.093 147.435L170.788 151.905C167.459 153.349 163.561 154.411 161.481 157.606C156.889 164.664 161.67 173.493 164.614 180.179C166.864 185.288 168.998 190.447 171.348 195.511C171.416 195.657 171.533 195.773 171.679 195.84C171.825 195.906 171.99 195.918 172.144 195.872C174.803 195.104 183.858 191.864 184.509 193.543C184.798 194.287 184.934 195.456 185.498 194.892C186.412 193.978 187.495 192.239 186.654 189.737C185.298 185.707 181.622 175.896 179.908 171.346C179.791 171.035 179.737 170.704 179.751 170.372C179.764 170.04 179.844 169.714 179.986 169.414C180.127 169.113 180.328 168.844 180.576 168.623C180.823 168.401 181.113 168.232 181.427 168.124L196.272 163.035C196.66 162.901 197.074 162.866 197.479 162.933C197.884 162.999 198.266 163.165 198.591 163.415C198.916 163.665 199.173 163.992 199.341 164.366C199.509 164.74 199.581 165.15 199.552 165.559C199.095 171.908 198.663 178.339 199.016 184.676C199.273 189.28 202.505 192.218 206.605 194.016C211.685 196.24 216.176 193.799 220.646 191.465C225.624 188.865 231.277 186.701 235.577 183.005C236.258 182.42 236.9 181.779 237.41 181.038C237.731 180.571 237.388 179.865 236.826 179.932C236.543 179.966 236.275 179.732 236.081 179.01C235.651 177.417 234.384 173.672 233.506 171.122C233.393 170.795 233.214 170.495 232.978 170.242C232.743 169.989 232.457 169.787 232.139 169.651C231.822 169.514 231.479 169.445 231.133 169.449C230.787 169.453 230.446 169.529 230.131 169.672L216.281 175.976C216.2 176.013 216.109 176.026 216.021 176.012C215.932 175.998 215.85 175.958 215.784 175.898C215.717 175.837 215.671 175.759 215.649 175.672C215.627 175.585 215.631 175.494 215.66 175.409C216.993 171.591 221.274 157.843 217.627 148.069C217.487 147.705 217.263 147.38 216.973 147.12C216.683 146.859 216.334 146.672 215.957 146.574L196.509 141.337Z" fill="#2E232B"/>
<path d="M201.59 156.326C201.978 153.675 195.77 146.371 194.674 145.105C194.651 145.078 194.623 145.056 194.591 145.04C194.559 145.025 194.524 145.015 194.489 145.013C194.454 145.011 194.418 145.016 194.385 145.028C194.351 145.04 194.32 145.058 194.294 145.082C193.776 145.563 192.744 147.179 195.943 150.993C198.867 154.478 199.465 159.18 199.579 161.411C199.582 161.472 199.606 161.531 199.646 161.576C199.687 161.622 199.742 161.652 199.803 161.662C199.863 161.672 199.926 161.661 199.979 161.63C200.032 161.6 200.073 161.552 200.095 161.495C200.591 160.231 201.321 158.17 201.59 156.326Z" fill="#191117"/>
<path d="M233.459 170.985C233.172 170.152 232.93 169.458 232.779 169.025C232.758 168.964 232.724 168.908 232.679 168.86C232.635 168.812 232.581 168.775 232.521 168.749C232.461 168.724 232.397 168.711 232.332 168.712C232.267 168.713 232.202 168.727 232.143 168.754L216.304 175.962C216.22 176 216.128 176.013 216.037 175.999C215.947 175.984 215.862 175.944 215.795 175.882C215.727 175.821 215.679 175.741 215.656 175.652C215.633 175.563 215.637 175.47 215.667 175.383C217.053 171.404 221.556 156.886 217.23 147.094C217.202 147.03 217.159 146.973 217.105 146.927C217.051 146.881 216.988 146.848 216.92 146.83L211.889 145.473C211.802 145.45 211.709 145.453 211.623 145.481C211.537 145.51 211.461 145.562 211.405 145.632C211.348 145.703 211.312 145.788 211.303 145.878C211.293 145.968 211.31 146.059 211.351 146.14C215.062 153.49 217.221 155.053 211.328 183.815C211.09 184.978 212.428 185.811 213.361 185.077C218.17 181.291 228.077 173.736 233.203 171.565C233.311 171.518 233.397 171.433 233.444 171.325C233.492 171.218 233.497 171.096 233.459 170.985Z" fill="#191117"/>
<path d="M173.761 165.492C175.083 166.957 176.859 168.961 178.618 171.073C179.03 171.567 179.817 171.107 179.59 170.504C179.436 170.097 179.308 169.759 179.21 169.503C179.183 169.432 179.171 169.356 179.174 169.279C179.177 169.203 179.195 169.128 179.228 169.059C179.261 168.99 179.307 168.928 179.364 168.878C179.421 168.827 179.488 168.788 179.56 168.764L186.303 166.451C186.932 166.234 186.748 165.302 186.086 165.343C181.962 165.597 177.484 165.548 174.348 164.565C173.797 164.392 173.374 165.064 173.761 165.492Z" fill="#191117"/>
<path d="M248.264 175.616C247.943 174.769 247.499 173.047 248.559 171.815C249.05 171.243 250.2 170.212 249.876 169.532L246.094 162.505C245.636 161.549 245.521 160.859 246.473 160.396L247.07 160.107C247.509 159.895 248.011 159.856 248.476 159.999C248.942 160.142 249.336 160.456 249.579 160.878L253.161 167.081C254.664 169.686 256.471 172.272 257.746 174.993C258.811 177.262 257.194 179.914 254.629 179.244C252.549 178.694 250.595 177.745 248.877 176.449C248.599 176.234 248.387 175.945 248.264 175.616Z" fill="#EF7946"/>
<path d="M175.734 210.344C175.684 210.344 175.636 210.328 175.598 210.297C175.559 210.266 175.532 210.223 175.521 210.174C174.988 207.81 171.913 206.74 171.882 206.729C171.828 206.711 171.782 206.671 171.757 206.619C171.731 206.567 171.727 206.507 171.746 206.453C171.764 206.398 171.804 206.353 171.856 206.327C171.908 206.302 171.968 206.298 172.022 206.316C172.159 206.362 175.358 207.474 175.946 210.078C175.953 210.106 175.953 210.135 175.949 210.163C175.944 210.191 175.934 210.218 175.919 210.242C175.904 210.266 175.884 210.287 175.861 210.304C175.837 210.32 175.811 210.332 175.783 210.339C175.767 210.342 175.751 210.344 175.734 210.344Z" fill="#FFCFE6"/>
<path d="M174.598 211.48C174.549 211.48 174.501 211.463 174.462 211.432C174.423 211.402 174.396 211.358 174.385 211.31C173.852 208.946 170.778 207.876 170.747 207.865C170.72 207.856 170.694 207.841 170.673 207.822C170.651 207.804 170.634 207.781 170.621 207.755C170.608 207.729 170.601 207.701 170.599 207.673C170.597 207.644 170.601 207.616 170.61 207.588C170.619 207.561 170.634 207.536 170.653 207.515C170.672 207.493 170.694 207.476 170.72 207.463C170.746 207.45 170.774 207.443 170.802 207.441C170.831 207.439 170.86 207.443 170.887 207.452C171.023 207.498 174.222 208.609 174.81 211.214C174.817 211.242 174.818 211.271 174.813 211.299C174.808 211.327 174.798 211.354 174.783 211.378C174.768 211.402 174.748 211.423 174.725 211.44C174.702 211.456 174.675 211.468 174.648 211.474C174.631 211.478 174.615 211.48 174.598 211.48Z" fill="#FFCFE6"/>
<path d="M173.462 212.778C173.413 212.778 173.365 212.761 173.326 212.73C173.287 212.699 173.26 212.656 173.25 212.608C172.716 210.244 169.642 209.174 169.611 209.163C169.556 209.144 169.511 209.105 169.485 209.053C169.46 209.001 169.456 208.941 169.474 208.886C169.493 208.832 169.533 208.786 169.584 208.761C169.636 208.735 169.696 208.731 169.751 208.75C169.887 208.796 173.086 209.907 173.675 212.512C173.681 212.54 173.682 212.568 173.677 212.597C173.673 212.625 173.662 212.652 173.647 212.676C173.632 212.7 173.612 212.721 173.589 212.738C173.566 212.754 173.54 212.766 173.512 212.772C173.496 212.776 173.479 212.778 173.462 212.778Z" fill="#FFCFE6"/>
<path d="M249.639 177.163C249.585 177.163 249.533 177.143 249.493 177.107C249.453 177.071 249.428 177.021 249.422 176.967C249.405 176.805 249.027 172.955 251.701 172.351C251.729 172.345 251.758 172.344 251.786 172.349C251.814 172.353 251.841 172.364 251.865 172.379C251.889 172.394 251.91 172.414 251.927 172.437C251.944 172.46 251.955 172.486 251.962 172.514C251.968 172.542 251.969 172.571 251.965 172.599C251.96 172.627 251.95 172.654 251.935 172.678C251.919 172.703 251.9 172.724 251.876 172.74C251.853 172.757 251.827 172.769 251.799 172.775C249.504 173.293 249.855 176.884 249.859 176.92C249.862 176.949 249.859 176.977 249.851 177.005C249.843 177.032 249.829 177.058 249.811 177.08C249.793 177.102 249.771 177.121 249.746 177.134C249.721 177.148 249.693 177.157 249.665 177.159C249.656 177.161 249.648 177.162 249.639 177.163Z" fill="#FFCFE6"/>
<path d="M250.858 177.975C250.804 177.975 250.752 177.955 250.712 177.919C250.672 177.883 250.646 177.833 250.641 177.779C250.624 177.616 250.245 173.767 252.92 173.163C252.976 173.15 253.036 173.16 253.084 173.191C253.133 173.222 253.168 173.271 253.181 173.327C253.193 173.384 253.183 173.443 253.152 173.492C253.122 173.541 253.072 173.575 253.016 173.588C250.717 174.107 251.072 177.697 251.076 177.733C251.079 177.762 251.076 177.79 251.068 177.818C251.06 177.845 251.047 177.871 251.029 177.893C251.011 177.916 250.989 177.934 250.963 177.948C250.938 177.962 250.91 177.97 250.882 177.973C250.874 177.974 250.866 177.975 250.858 177.975Z" fill="#FFCFE6"/>
<path d="M252.075 178.461C252.021 178.461 251.969 178.441 251.928 178.405C251.888 178.369 251.863 178.319 251.858 178.266C251.84 178.103 251.463 174.253 254.137 173.649C254.193 173.636 254.252 173.646 254.301 173.677C254.35 173.708 254.385 173.757 254.397 173.814C254.41 173.87 254.4 173.929 254.369 173.978C254.338 174.027 254.289 174.062 254.233 174.074C251.937 174.593 252.288 178.184 252.292 178.219C252.295 178.248 252.292 178.277 252.284 178.304C252.276 178.332 252.263 178.357 252.245 178.38C252.227 178.402 252.205 178.421 252.179 178.434C252.154 178.448 252.127 178.456 252.098 178.459C252.09 178.46 252.083 178.461 252.075 178.461Z" fill="#FFCFE6"/>
<path d="M224.516 96.3636C224.516 96.3636 218.795 91.2543 211.684 99.7116C204.854 107.834 206.707 110.39 213.774 110.766C221 111.152 233.307 105.208 224.516 96.3636Z" fill="#A15842"/>
<path d="M219.899 107.445C219.967 107.505 220.301 113.654 220.469 116.832C220.496 117.363 220.326 117.884 219.992 118.297C219.657 118.709 219.182 118.983 218.658 119.066C217.1 119.318 214.904 119.541 213.311 119.163C212.28 118.919 211.606 117.921 211.71 116.865C211.868 115.269 212.078 112.524 211.883 110.708C211.842 110.351 211.893 109.988 212.03 109.655C212.166 109.322 212.385 109.029 212.665 108.803C214.28 107.505 217.565 105.401 219.899 107.445Z" fill="#A15842"/>
<path d="M212.55 99.8988C212.865 99.8427 213.188 99.857 213.497 99.9406C213.821 100.02 214.122 100.175 214.374 100.394C214.632 100.632 214.794 100.956 214.829 101.305C214.875 101.647 214.759 101.971 214.609 102.242C214.585 101.923 214.591 101.63 214.495 101.371C214.416 101.119 214.272 100.893 214.078 100.714C213.868 100.531 213.633 100.378 213.381 100.259C213.121 100.131 212.843 100.017 212.55 99.8988Z" fill="#362723"/>
<path d="M212.447 102.195C212.755 102.195 213.004 101.945 213.004 101.638C213.004 101.33 212.755 101.081 212.447 101.081C212.14 101.081 211.891 101.33 211.891 101.638C211.891 101.945 212.14 102.195 212.447 102.195Z" fill="#362723"/>
<path d="M211.648 100.329C211.674 100.296 211.689 100.255 211.69 100.213C211.691 100.17 211.678 100.129 211.654 100.094C211.629 100.06 211.595 100.034 211.554 100.021C211.514 100.007 211.471 100.007 211.431 100.021C210.386 100.368 208.381 101.122 208.689 101.698C208.931 102.156 209.326 102.513 209.805 102.709L211.648 100.329Z" fill="#A15842"/>
<path d="M211.289 107.093C210.458 107.093 209.832 106.876 209.42 106.438C208.705 105.678 208.932 104.57 208.941 104.523C208.953 104.467 208.987 104.417 209.035 104.386C209.084 104.354 209.143 104.343 209.199 104.355C209.256 104.367 209.305 104.401 209.337 104.45C209.368 104.498 209.379 104.557 209.367 104.614C209.367 104.623 209.18 105.552 209.739 106.141C210.187 106.612 210.992 106.762 212.135 106.587C212.192 106.579 212.251 106.593 212.297 106.627C212.344 106.661 212.375 106.713 212.384 106.77C212.392 106.827 212.378 106.885 212.344 106.932C212.31 106.978 212.258 107.009 212.201 107.018C211.9 107.066 211.595 107.091 211.289 107.093Z" fill="#914939"/>
<path d="M212.753 111.299C212.481 111.299 212.301 111.292 212.275 111.291C212.246 111.29 212.218 111.283 212.192 111.271C212.166 111.259 212.142 111.242 212.123 111.221C212.103 111.2 212.088 111.175 212.078 111.148C212.069 111.121 212.064 111.092 212.066 111.064C212.065 111.035 212.071 111.006 212.082 110.979C212.094 110.952 212.111 110.928 212.133 110.908C212.154 110.888 212.18 110.874 212.207 110.864C212.235 110.855 212.265 110.852 212.294 110.855C212.315 110.855 214.547 110.946 215.432 110.473C215.483 110.446 215.543 110.44 215.598 110.457C215.653 110.474 215.7 110.512 215.727 110.563C215.754 110.614 215.76 110.673 215.743 110.729C215.726 110.784 215.688 110.83 215.637 110.858C214.911 111.245 213.495 111.299 212.753 111.299Z" fill="#914939"/>
<path d="M220.558 109.642C226.285 107.544 230.807 102.703 224.526 96.3748C224.519 96.3678 224.512 96.3607 224.505 96.3542C224.247 96.1334 219.596 92.2954 213.555 97.7623C213.519 97.7961 213.49 97.8375 213.472 97.8836C213.453 97.9296 213.445 97.9793 213.448 98.0289C213.451 98.0785 213.465 98.1268 213.488 98.1704C213.512 98.214 213.545 98.2518 213.586 98.2811C214.597 99.0239 216.43 100.581 217.311 102.653C218.532 105.529 216.455 106.964 220.046 108.372C220.124 108.402 220.188 108.46 220.226 108.534C220.264 108.609 220.272 108.695 220.25 108.776L220.118 109.237C220.101 109.297 220.101 109.36 220.118 109.42C220.135 109.479 220.168 109.533 220.214 109.575C220.259 109.617 220.316 109.646 220.376 109.657C220.437 109.669 220.5 109.664 220.558 109.642Z" fill="#FFBE21"/>
<path d="M218.61 107.661C218.61 107.661 220.645 105.921 222.195 107.474C223.745 109.028 221.725 111.191 219.901 111.181C218.078 111.171 216.646 110.234 216.646 110.234C216.646 110.234 216.437 109.915 216.705 109.541C216.974 109.167 218.61 107.661 218.61 107.661Z" fill="#A15842"/>
<path d="M219.408 109.997C219.351 110 219.294 109.98 219.252 109.941C219.209 109.902 219.184 109.848 219.181 109.79C219.178 109.733 219.198 109.677 219.237 109.634C219.276 109.591 219.33 109.566 219.388 109.563C219.837 109.52 220.138 109.374 220.281 109.129C220.522 108.722 220.275 108.139 220.273 108.133C220.25 108.08 220.248 108.02 220.27 107.966C220.291 107.913 220.332 107.869 220.386 107.846C220.439 107.823 220.499 107.822 220.552 107.843C220.606 107.864 220.649 107.906 220.673 107.959C220.687 107.991 221.011 108.748 220.658 109.349C220.441 109.719 220.027 109.936 219.429 109.995L219.408 109.997Z" fill="#914939"/>
<path d="M209.243 93.1541L214.149 95.6995C214.24 95.7471 214.345 95.7637 214.447 95.7468C214.548 95.7298 214.642 95.6803 214.713 95.6056C215.881 94.376 221.197 89.5554 226.901 96.7202C232.573 103.843 224.968 109.951 222.53 110.52C222.43 110.543 222.325 110.533 222.231 110.491C222.138 110.448 222.06 110.377 222.012 110.286C221.042 108.524 215.717 98.908 214.487 98.0827L208.746 93.9642C208.658 93.9014 208.594 93.8104 208.564 93.7063C208.534 93.6021 208.541 93.491 208.583 93.3912C208.609 93.3305 208.647 93.2757 208.695 93.2304C208.742 93.1851 208.799 93.1502 208.861 93.1279C208.923 93.1056 208.989 93.0964 209.055 93.1009C209.121 93.1054 209.185 93.1235 209.243 93.1541Z" fill="#5367DA"/>
<path d="M185.598 133.573C183.203 132.411 178.225 127.732 185.232 109.528C185.427 109.021 185.46 108.466 185.326 107.94C185.191 107.414 184.896 106.942 184.482 106.591C183.726 105.947 182.955 105.153 182.916 104.573C182.843 103.452 182.965 97.7849 186.941 96.8912C187.182 96.841 187.43 96.8306 187.675 96.8602C189.184 97.0192 194.578 97.8505 193.928 101.581C193.209 105.705 188.263 117.562 190.584 120.921C190.856 121.324 191.003 121.798 191.007 122.284C191.056 124.671 191.082 130.906 190.072 132.06C189.355 132.878 188.352 133.377 187.624 133.653C187.298 133.778 186.951 133.835 186.603 133.822C186.254 133.808 185.912 133.723 185.598 133.573Z" fill="#A15842"/>
<path d="M189.77 100.091C189.756 100.091 189.742 100.09 189.728 100.088C187.58 99.6747 185.875 98.0707 185.806 98.0029C185.764 97.963 185.74 97.9081 185.738 97.8503C185.737 97.7925 185.759 97.7365 185.798 97.6946C185.838 97.6528 185.893 97.6284 185.951 97.627C186.009 97.6256 186.065 97.6472 186.107 97.6871C186.123 97.7028 187.789 99.271 189.811 99.6589C189.868 99.6643 189.921 99.6924 189.958 99.7369C189.995 99.7814 190.013 99.8388 190.007 99.8963C190.002 99.9539 189.974 100.007 189.929 100.044C189.885 100.081 189.827 100.098 189.77 100.093V100.091Z" fill="#914939"/>
<path d="M188.147 101.47C188.133 101.471 188.119 101.469 188.105 101.467C185.958 101.054 184.252 99.4502 184.183 99.3824C184.141 99.3425 184.117 99.2875 184.115 99.2296C184.114 99.1717 184.136 99.1156 184.175 99.0737C184.215 99.0317 184.27 99.0074 184.328 99.0059C184.386 99.0045 184.442 99.0261 184.484 99.0661C184.5 99.0823 186.166 100.65 188.188 101.039C188.217 101.041 188.244 101.05 188.27 101.063C188.295 101.076 188.317 101.095 188.336 101.117C188.354 101.139 188.368 101.164 188.376 101.192C188.384 101.219 188.387 101.248 188.385 101.276C188.382 101.305 188.374 101.332 188.36 101.358C188.347 101.383 188.328 101.405 188.306 101.424C188.284 101.442 188.259 101.456 188.232 101.464C188.204 101.472 188.175 101.475 188.147 101.473V101.47Z" fill="#914939"/>
<path d="M187.417 103.499C187.403 103.499 187.389 103.497 187.375 103.495C185.228 103.082 183.522 101.478 183.453 101.411C183.432 101.391 183.415 101.367 183.404 101.341C183.392 101.315 183.386 101.287 183.385 101.258C183.383 101.2 183.405 101.144 183.445 101.102C183.485 101.06 183.54 101.036 183.597 101.034C183.655 101.033 183.711 101.054 183.753 101.094C183.77 101.11 185.435 102.678 187.457 103.067C187.515 103.072 187.568 103.1 187.605 103.145C187.642 103.189 187.659 103.246 187.654 103.304C187.649 103.362 187.62 103.415 187.576 103.452C187.531 103.488 187.474 103.506 187.417 103.501V103.499Z" fill="#914939"/>
<path d="M187.011 105.283C186.997 105.284 186.983 105.282 186.969 105.28C184.822 104.867 183.117 103.263 183.047 103.195C183.026 103.176 183.01 103.152 182.998 103.126C182.987 103.1 182.98 103.071 182.98 103.043C182.979 103.014 182.984 102.986 182.994 102.959C183.005 102.932 183.02 102.908 183.04 102.887C183.06 102.866 183.083 102.85 183.109 102.838C183.136 102.826 183.164 102.82 183.193 102.819C183.221 102.819 183.25 102.824 183.276 102.834C183.303 102.844 183.328 102.86 183.348 102.88C183.365 102.895 185.03 104.463 187.052 104.852C187.11 104.857 187.163 104.885 187.2 104.93C187.236 104.974 187.254 105.032 187.249 105.089C187.243 105.147 187.215 105.2 187.17 105.237C187.126 105.273 187.069 105.291 187.011 105.286V105.283Z" fill="#914939"/>
<path d="M187.623 133.652C188.352 133.376 189.354 132.877 190.072 132.059C191.082 130.905 191.056 124.668 191.007 122.283C191.003 121.797 190.856 121.323 190.583 120.92C190.182 120.339 190.002 119.5 189.976 118.494C189.04 121.542 188.754 132.928 183.085 131.214C183.886 132.524 184.864 133.216 185.599 133.573C185.914 133.723 186.255 133.807 186.603 133.821C186.951 133.834 187.298 133.777 187.623 133.652Z" fill="#914939"/>
<path d="M224.863 141.502C224.474 141.485 224.088 141.566 223.738 141.736C223.388 141.907 223.087 142.162 222.861 142.479C220.378 145.97 212.275 157.169 209.776 158.212C206.811 159.449 204.44 160.339 204.548 161.374C204.623 162.105 206.629 161.706 207.798 161.409C207.838 161.398 207.881 161.401 207.92 161.418C207.958 161.435 207.99 161.464 208.009 161.501C208.029 161.538 208.035 161.581 208.027 161.622C208.019 161.663 207.998 161.701 207.966 161.728C206.515 162.99 203.255 166.148 204.416 168.131C205.863 170.6 211.01 170.426 214.284 164.149C214.427 163.869 214.62 163.616 214.852 163.402L231.287 148.512C231.301 148.501 231.313 148.487 231.322 148.471C231.441 148.268 232.311 146.712 232.656 144.143C232.822 142.908 231.875 141.8 230.629 141.746L224.863 141.502Z" fill="#E0A78F"/>
<path d="M232.107 146.612C232.362 145.807 232.546 144.982 232.656 144.145C232.822 142.91 231.875 141.802 230.629 141.749L224.863 141.502C224.474 141.485 224.088 141.566 223.738 141.736C223.389 141.907 223.087 142.162 222.861 142.479C222.861 142.479 229.209 143.622 232.107 146.612Z" fill="#C48470"/>
<path d="M211.724 113.586C211.891 113.821 211.979 114.103 211.975 114.391C211.966 115.319 212.233 117.652 215.166 117.612C217.538 117.58 219.053 116.584 219.826 115.887C220.04 115.692 220.312 115.572 220.6 115.544C220.889 115.517 221.179 115.583 221.426 115.733C223.328 116.893 227.598 120.296 230.632 128.698C233.147 135.658 234.164 139.659 234.573 141.68C234.613 141.882 234.607 142.09 234.555 142.289C234.503 142.488 234.406 142.672 234.272 142.828C234.137 142.984 233.969 143.107 233.78 143.188C233.591 143.27 233.386 143.306 233.181 143.296C230.563 143.171 225.555 142.977 223.351 143.2C223.058 143.229 222.764 143.162 222.513 143.007C222.262 142.853 222.069 142.62 221.964 142.345C221.425 140.96 220.586 138.596 220.738 137.683C220.738 137.683 219.734 148.741 217.699 148.838C215.664 148.934 194.238 142.748 194.238 142.748C194.238 142.748 191.959 142.321 194.526 137.877C195.39 136.381 195.494 134.693 195.876 133.373C196.241 132.116 194.788 131.124 193.751 131.922C192.736 132.704 191.584 133.444 190.43 133.891C189.382 134.295 188.314 133.304 188.651 132.232C188.868 131.545 189.031 130.596 189.098 129.29C189.361 123.95 188.042 120.336 193.04 116.61C195.472 114.791 198.012 113.12 200.645 111.607C201.571 111.079 202.613 110.787 203.679 110.756C205.958 110.693 209.895 110.995 211.724 113.586Z" fill="#EF7946"/>
<path d="M222.573 123.255C220.919 125.708 218.526 130.877 220.883 138.152C220.9 138.204 220.904 138.26 220.894 138.315L219.99 143.139C219.978 143.204 219.947 143.265 219.901 143.312C219.854 143.36 219.795 143.393 219.73 143.406C219.665 143.42 219.597 143.414 219.536 143.389C219.474 143.364 219.421 143.322 219.384 143.267C217.589 140.62 211.664 130.335 222.097 122.8C222.4 122.577 222.784 122.942 222.573 123.255Z" fill="#DB6035"/>
<path d="M202.633 113.919C199.684 117.417 194.708 128.129 192.949 132.014C192.874 132.178 192.859 132.363 192.905 132.537C193.195 132.338 193.478 132.131 193.751 131.921C194.787 131.123 196.24 132.115 195.876 133.372C195.767 133.742 195.994 132.971 195.876 133.372C196.809 129.804 201.584 117.502 203.173 114.272C203.342 113.929 202.88 113.626 202.633 113.919Z" fill="#DB6035"/>
<path d="M224.863 141.502C224.474 141.485 224.088 141.566 223.738 141.736C223.388 141.907 223.087 142.162 222.861 142.479C220.378 145.97 212.275 157.169 209.776 158.212C206.811 159.449 204.44 160.339 204.548 161.374C204.623 162.105 206.629 161.706 207.798 161.409C207.838 161.398 207.881 161.401 207.92 161.418C207.958 161.435 207.99 161.464 208.009 161.501C208.029 161.538 208.035 161.581 208.027 161.622C208.019 161.663 207.998 161.701 207.966 161.728C206.515 162.99 203.255 166.148 204.416 168.131C205.863 170.6 211.01 170.426 214.284 164.149C214.427 163.869 214.62 163.616 214.852 163.402L231.287 148.512C231.301 148.501 231.313 148.487 231.322 148.471C231.441 148.268 232.311 146.712 232.656 144.143C232.822 142.908 231.875 141.8 230.629 141.746L224.863 141.502Z" fill="#A15842"/>
<path d="M222.409 133.758C222.197 133.802 222.006 133.917 221.866 134.083C221.727 134.25 221.648 134.458 221.641 134.675C221.581 136.726 221.513 142.271 222.498 142.936C223.511 143.621 230.495 143.393 232.748 143.3C232.963 143.291 233.168 143.211 233.332 143.072C233.496 142.932 233.609 142.742 233.652 142.532C233.983 140.976 234.273 137.121 230.74 132.548C230.628 132.406 230.479 132.298 230.31 132.237C230.14 132.176 229.957 132.164 229.781 132.203L222.409 133.758Z" fill="#EF7946"/>
<path d="M204.595 167.711C204.549 167.712 204.504 167.698 204.466 167.671C204.429 167.644 204.401 167.607 204.386 167.563C204.372 167.519 204.371 167.472 204.385 167.428C204.399 167.384 204.427 167.346 204.464 167.319C204.486 167.303 206.611 165.699 207.069 164.552C207.09 164.498 207.132 164.455 207.185 164.432C207.239 164.41 207.299 164.409 207.352 164.431C207.406 164.452 207.449 164.494 207.471 164.548C207.494 164.601 207.494 164.661 207.473 164.714C206.97 165.974 204.814 167.599 204.725 167.668C204.687 167.696 204.642 167.711 204.595 167.711Z" fill="#914939"/>
<path d="M205.478 168.593C205.432 168.594 205.387 168.58 205.349 168.553C205.312 168.526 205.284 168.488 205.269 168.445C205.254 168.401 205.254 168.354 205.268 168.31C205.282 168.266 205.31 168.228 205.347 168.201C205.368 168.185 207.493 166.58 207.951 165.433C207.962 165.407 207.978 165.383 207.998 165.362C208.018 165.342 208.042 165.326 208.068 165.314C208.095 165.303 208.123 165.297 208.151 165.297C208.18 165.297 208.208 165.302 208.235 165.313C208.262 165.323 208.286 165.339 208.306 165.359C208.327 165.379 208.343 165.403 208.354 165.429C208.365 165.456 208.371 165.484 208.371 165.513C208.372 165.541 208.366 165.57 208.356 165.596C207.853 166.856 205.697 168.481 205.607 168.55C205.57 168.578 205.524 168.593 205.478 168.593Z" fill="#914939"/>
<path d="M206.359 169.476C206.313 169.476 206.268 169.462 206.231 169.436C206.193 169.409 206.165 169.371 206.151 169.327C206.136 169.284 206.136 169.237 206.15 169.193C206.164 169.149 206.192 169.111 206.229 169.084C206.25 169.068 208.376 167.463 208.833 166.316C208.844 166.29 208.86 166.265 208.88 166.245C208.9 166.225 208.924 166.208 208.95 166.197C208.976 166.186 209.005 166.18 209.033 166.18C209.062 166.179 209.09 166.185 209.117 166.195C209.143 166.206 209.168 166.222 209.188 166.242C209.208 166.262 209.225 166.286 209.236 166.312C209.247 166.339 209.253 166.367 209.253 166.395C209.254 166.424 209.248 166.452 209.238 166.479C208.735 167.738 206.579 169.364 206.489 169.432C206.452 169.461 206.406 169.476 206.359 169.476Z" fill="#914939"/>
<path d="M208.124 169.597C208.078 169.598 208.033 169.584 207.996 169.557C207.958 169.53 207.93 169.492 207.915 169.449C207.901 169.405 207.901 169.358 207.915 169.314C207.929 169.27 207.956 169.232 207.993 169.205C208.015 169.189 210.141 167.584 210.598 166.437C210.609 166.411 210.624 166.387 210.644 166.366C210.665 166.346 210.688 166.329 210.715 166.318C210.741 166.307 210.769 166.301 210.798 166.301C210.827 166.301 210.855 166.306 210.881 166.317C210.908 166.327 210.932 166.343 210.953 166.363C210.973 166.383 210.989 166.407 211.001 166.433C211.012 166.46 211.018 166.488 211.018 166.517C211.018 166.545 211.013 166.574 211.002 166.6C210.499 167.858 208.343 169.485 208.254 169.553C208.216 169.581 208.171 169.597 208.124 169.597Z" fill="#914939"/>
<path d="M186.972 60.9459C190.533 66.8025 202.219 91.1255 203.956 94.7432C204.025 94.8875 204.06 95.0456 204.058 95.2054C204.057 95.3653 204.019 95.5227 203.947 95.6657C203.165 97.2393 200.425 102.21 197.119 101.871C196.922 101.845 196.738 101.761 196.59 101.629L169.461 78.414C169.351 78.3199 169.261 78.2042 169.198 78.074C169.135 77.9438 169.099 77.8019 169.093 77.6573C169.087 77.5127 169.11 77.3683 169.163 77.2333C169.215 77.0982 169.294 76.9754 169.396 76.8724L185.319 60.7511C185.432 60.6369 185.569 60.55 185.721 60.4969C185.872 60.4438 186.034 60.426 186.193 60.4448C186.352 60.4635 186.505 60.5185 186.64 60.6053C186.775 60.6922 186.889 60.8086 186.972 60.9459Z" fill="#FFBE21"/>
<path d="M182.779 74.0668C187.645 69.1413 189.186 62.7745 186.222 59.8462C183.258 56.9179 176.91 58.5369 172.045 63.4624C167.179 68.3879 165.637 74.7547 168.602 77.683C171.566 80.6113 177.914 78.9923 182.779 74.0668Z" fill="#FF7235"/>
<path d="M194.117 93.0773L188.138 91.5143C187.903 91.453 187.663 91.5935 187.602 91.828L184.007 105.578C183.946 105.812 184.087 106.052 184.321 106.114L190.3 107.677C190.535 107.738 190.775 107.597 190.836 107.363L194.43 93.6131C194.492 93.3785 194.351 93.1387 194.117 93.0773Z" fill="#FF7235"/>
<path d="M192.036 106.318C191.982 106.415 191.904 106.496 191.81 106.553C191.715 106.61 191.607 106.641 191.496 106.643C191.385 106.645 191.276 106.618 191.179 106.564C191.083 106.511 191.002 106.432 190.945 106.337C190.109 104.931 188.77 102.295 189.874 101.411C191.188 100.357 192.389 103.726 192.705 104.709C192.732 104.791 192.741 104.878 192.732 104.963C192.723 105.049 192.697 105.132 192.655 105.206L192.036 106.318Z" fill="#A15842"/>
</g>
<path d="M29.9648 48.667V34.507H24.3968V31.867H38.6528V34.507H33.0848V48.667H29.9648ZM40.9943 48.667V31.867H44.1143V48.667H40.9943ZM51.5383 38.851H59.8903V41.419H51.5383V38.851ZM51.7783 46.051H61.2583V48.667H48.6583V31.867H60.9223V34.483H51.7783V46.051ZM50.2423 30.499L53.4823 27.931H56.1703L59.4103 30.499H56.9143L53.6983 28.459H55.9543L52.7383 30.499H50.2423ZM57.4423 28.291L60.1783 25.483H63.3943L59.7463 28.291H57.4423ZM68.1445 48.667V34.507H62.5765V31.867H76.8325V34.507H71.2645V48.667H68.1445ZM88.5908 44.707L88.4228 41.011L97.2308 31.867H100.735L93.4148 39.643L91.6868 41.539L88.5908 44.707ZM85.8068 48.667V31.867H88.9268V48.667H85.8068ZM97.5188 48.667L91.0868 41.011L93.1508 38.731L101.167 48.667H97.5188ZM103.291 48.667V31.867H106.411V48.667H103.291ZM113.835 38.851H122.187V41.419H113.835V38.851ZM114.075 46.051H123.555V48.667H110.955V31.867H123.219V34.483H114.075V46.051ZM117.315 53.539C116.915 53.539 116.571 53.411 116.283 53.155C116.011 52.899 115.875 52.555 115.875 52.123C115.875 51.691 116.011 51.339 116.283 51.067C116.571 50.795 116.915 50.659 117.315 50.659C117.715 50.659 118.051 50.795 118.323 51.067C118.611 51.339 118.755 51.691 118.755 52.123C118.755 52.555 118.611 52.899 118.323 53.155C118.051 53.411 117.715 53.539 117.315 53.539ZM112.539 30.499L115.755 27.211H118.491L121.707 30.499H119.235L115.971 27.739H118.275L115.011 30.499H112.539ZM127.033 48.667V31.867H129.601L136.945 44.131H135.601L142.825 31.867H145.393L145.417 48.667H142.465L142.441 36.499H143.065L136.921 46.747H135.529L129.289 36.499H130.009V48.667H127.033Z" fill="#0C0055"/>
<path d="M29.746 81.667V67.507H24.178V64.867H38.434V67.507H32.866V81.667H29.746ZM48.4132 81.907C47.1012 81.907 45.8932 81.691 44.7892 81.259C43.6852 80.827 42.7252 80.227 41.9092 79.459C41.0932 78.675 40.4612 77.763 40.0132 76.723C39.5652 75.667 39.3412 74.515 39.3412 73.267C39.3412 72.019 39.5652 70.875 40.0132 69.835C40.4612 68.779 41.0932 67.867 41.9092 67.099C42.7252 66.315 43.6852 65.707 44.7892 65.275C45.8932 64.843 47.0932 64.627 48.3892 64.627C49.7012 64.627 50.9012 64.843 51.9892 65.275C53.0932 65.707 54.0532 66.315 54.8692 67.099C55.6852 67.867 56.3172 68.779 56.7652 69.835C57.2132 70.875 57.4372 72.019 57.4372 73.267C57.4372 74.515 57.2132 75.667 56.7652 76.723C56.3172 77.779 55.6852 78.691 54.8692 79.459C54.0532 80.227 53.0932 80.827 51.9892 81.259C50.9012 81.691 49.7092 81.907 48.4132 81.907ZM48.3892 79.171C49.2372 79.171 50.0212 79.027 50.7412 78.739C51.4612 78.451 52.0852 78.043 52.6132 77.515C53.1412 76.971 53.5492 76.347 53.8372 75.643C54.1412 74.923 54.2932 74.131 54.2932 73.267C54.2932 72.403 54.1412 71.619 53.8372 70.915C53.5492 70.195 53.1412 69.571 52.6132 69.043C52.0852 68.499 51.4612 68.083 50.7412 67.795C50.0212 67.507 49.2372 67.363 48.3892 67.363C47.5412 67.363 46.7572 67.507 46.0372 67.795C45.3332 68.083 44.7092 68.499 44.1652 69.043C43.6372 69.571 43.2212 70.195 42.9172 70.915C42.6292 71.619 42.4852 72.403 42.4852 73.267C42.4852 74.115 42.6292 74.899 42.9172 75.619C43.2212 76.339 43.6372 76.971 44.1652 77.515C44.6932 78.043 45.3172 78.451 46.0372 78.739C46.7572 79.027 47.5412 79.171 48.3892 79.171ZM43.8052 63.499L47.0452 60.931H49.7332L52.9732 63.499H50.4772L47.2612 61.459H49.5172L46.3012 63.499H43.8052ZM51.0052 61.291L53.7412 58.483H56.9572L53.3092 61.291H51.0052ZM60.7443 81.667V64.867H63.8643V81.667H60.7443ZM82.2652 81.907C79.9612 81.907 78.1532 81.259 76.8412 79.963C75.5452 78.667 74.8972 76.795 74.8972 74.347V64.867H78.0172V74.227C78.0172 75.955 78.3852 77.211 79.1212 77.995C79.8732 78.779 80.9292 79.171 82.2892 79.171C83.6492 79.171 84.6972 78.779 85.4332 77.995C86.1692 77.211 86.5372 75.955 86.5372 74.227V64.867H89.6092V74.347C89.6092 76.795 88.9532 78.667 87.6412 79.963C86.3452 81.259 84.5532 81.907 82.2652 81.907ZM88.0492 67.003V64.867H88.5532C89.0492 64.867 89.4172 64.723 89.6572 64.435C89.9132 64.147 90.0412 63.779 90.0412 63.331C90.0412 63.043 89.9932 62.771 89.8972 62.515C89.8172 62.259 89.7052 62.035 89.5612 61.843L91.4092 61.171C91.6332 61.459 91.8092 61.795 91.9372 62.179C92.0652 62.563 92.1292 62.979 92.1292 63.427C92.1292 64.531 91.8092 65.403 91.1692 66.043C90.5292 66.683 89.6492 67.003 88.5292 67.003H88.0492ZM101.46 81.907C99.1565 81.907 97.3485 81.259 96.0365 79.963C94.7405 78.667 94.0925 76.795 94.0925 74.347V64.867H97.2125V74.227C97.2125 75.955 97.5805 77.211 98.3165 77.995C99.0685 78.779 100.124 79.171 101.484 79.171C102.844 79.171 103.892 78.779 104.628 77.995C105.364 77.211 105.732 75.955 105.732 74.227V64.867H108.804V74.347C108.804 76.795 108.148 78.667 106.836 79.963C105.54 81.259 103.748 81.907 101.46 81.907Z" fill="#0C0055"/>
<defs>
<clipPath id="clip0_2507_108268">
<rect width="209.939" height="200" fill="white" transform="translate(83 39.667)"/>
</clipPath>
</defs>
</svg>
