<svg width="311" height="251" viewBox="0 0 311 251" fill="none" xmlns="http://www.w3.org/2000/svg">
<rect width="311" height="250" transform="translate(0 0.666992)" fill="#595959"/>
<path d="M26.5077 48.667V31.867H33.8517C35.6757 31.867 37.2757 32.219 38.6517 32.923C40.0277 33.627 41.0997 34.603 41.8677 35.851C42.6357 37.099 43.0197 38.571 43.0197 40.267C43.0197 41.947 42.6357 43.419 41.8677 44.683C41.0997 45.931 40.0277 46.907 38.6517 47.611C37.2757 48.315 35.6757 48.667 33.8517 48.667H26.5077ZM29.6277 46.027H33.7077C34.9717 46.027 36.0597 45.787 36.9717 45.307C37.8997 44.827 38.6117 44.155 39.1077 43.291C39.6197 42.427 39.8757 41.419 39.8757 40.267C39.8757 39.099 39.6197 38.091 39.1077 37.243C38.6117 36.379 37.8997 35.707 36.9717 35.227C36.0597 34.747 34.9717 34.507 33.7077 34.507H29.6277V46.027ZM24.1557 41.275V38.971H34.1397V41.275H24.1557ZM43.7198 48.667L51.2798 31.867H54.3518L61.9358 48.667H58.6718L52.1678 33.523H53.4158L46.9358 48.667H43.7198ZM47.1998 44.779L48.0398 42.331H57.1118L57.9518 44.779H47.1998ZM70.7052 48.667V31.867H78.0492C79.8732 31.867 81.4732 32.219 82.8492 32.923C84.2252 33.627 85.2972 34.603 86.0652 35.851C86.8332 37.099 87.2172 38.571 87.2172 40.267C87.2172 41.947 86.8332 43.419 86.0652 44.683C85.2972 45.931 84.2252 46.907 82.8492 47.611C81.4732 48.315 79.8732 48.667 78.0492 48.667H70.7052ZM73.8252 46.027H77.9052C79.1692 46.027 80.2572 45.787 81.1692 45.307C82.0972 44.827 82.8092 44.155 83.3052 43.291C83.8172 42.427 84.0732 41.419 84.0732 40.267C84.0732 39.099 83.8172 38.091 83.3052 37.243C82.8092 36.379 82.0972 35.707 81.1692 35.227C80.2572 34.747 79.1692 34.507 77.9052 34.507H73.8252V46.027ZM87.923 48.667L95.483 31.867H98.555L106.139 48.667H102.875L96.371 33.523H97.619L91.139 48.667H87.923ZM91.403 44.779L92.243 42.331H101.315L102.155 44.779H91.403ZM97.019 53.539C96.619 53.539 96.275 53.411 95.987 53.155C95.715 52.899 95.579 52.555 95.579 52.123C95.579 51.691 95.715 51.339 95.987 51.067C96.275 50.795 96.619 50.659 97.019 50.659C97.419 50.659 97.755 50.795 98.027 51.067C98.315 51.339 98.459 51.691 98.459 52.123C98.459 52.555 98.315 52.899 98.027 53.155C97.755 53.411 97.419 53.539 97.019 53.539ZM108.276 48.667V31.867H110.844L121.38 44.803H120.108V31.867H123.204V48.667H120.636L110.1 35.731H111.372V48.667H108.276ZM135.553 48.907C134.241 48.907 133.033 48.699 131.929 48.283C130.841 47.851 129.889 47.251 129.073 46.483C128.257 45.699 127.625 44.779 127.177 43.723C126.729 42.667 126.505 41.515 126.505 40.267C126.505 39.019 126.729 37.867 127.177 36.811C127.625 35.755 128.257 34.843 129.073 34.075C129.905 33.291 130.873 32.691 131.977 32.275C133.081 31.843 134.289 31.627 135.601 31.627C137.025 31.627 138.305 31.859 139.441 32.323C140.593 32.787 141.561 33.467 142.345 34.363L140.377 36.283C139.721 35.627 139.009 35.147 138.241 34.843C137.489 34.523 136.657 34.363 135.745 34.363C134.865 34.363 134.049 34.507 133.297 34.795C132.545 35.083 131.897 35.491 131.353 36.019C130.809 36.547 130.385 37.171 130.081 37.891C129.793 38.611 129.649 39.403 129.649 40.267C129.649 41.115 129.793 41.899 130.081 42.619C130.385 43.339 130.809 43.971 131.353 44.515C131.897 45.043 132.537 45.451 133.273 45.739C134.009 46.027 134.825 46.171 135.721 46.171C136.553 46.171 137.353 46.043 138.121 45.787C138.905 45.515 139.649 45.067 140.353 44.443L142.129 46.771C141.249 47.475 140.225 48.011 139.057 48.379C137.905 48.731 136.737 48.907 135.553 48.907ZM139.177 46.363V40.075H142.129V46.771L139.177 46.363Z" fill="white"/>
<path d="M26.549 81.667V64.867H33.893C35.717 64.867 37.317 65.219 38.693 65.923C40.069 66.627 41.141 67.603 41.909 68.851C42.677 70.099 43.061 71.571 43.061 73.267C43.061 74.947 42.677 76.419 41.909 77.683C41.141 78.931 40.069 79.907 38.693 80.611C37.317 81.315 35.717 81.667 33.893 81.667H26.549ZM29.669 79.027H33.749C35.013 79.027 36.101 78.787 37.013 78.307C37.941 77.827 38.653 77.155 39.149 76.291C39.661 75.427 39.917 74.419 39.917 73.267C39.917 72.099 39.661 71.091 39.149 70.243C38.653 69.379 37.941 68.707 37.013 68.227C36.101 67.747 35.013 67.507 33.749 67.507H29.669V79.027ZM46.3771 81.667V64.867H49.4971V81.667H46.3771ZM47.9371 86.539C47.5371 86.539 47.1931 86.411 46.9051 86.155C46.6331 85.899 46.4971 85.555 46.4971 85.123C46.4971 84.691 46.6331 84.339 46.9051 84.067C47.1931 83.795 47.5371 83.659 47.9371 83.659C48.3371 83.659 48.6731 83.795 48.9451 84.067C49.2331 84.339 49.3771 84.691 49.3771 85.123C49.3771 85.555 49.2331 85.899 48.9451 86.155C48.6731 86.411 48.3371 86.539 47.9371 86.539ZM61.8172 81.907C60.5372 81.907 59.3452 81.699 58.2412 81.283C57.1532 80.851 56.2012 80.251 55.3852 79.483C54.5852 78.699 53.9612 77.779 53.5132 76.723C53.0652 75.667 52.8412 74.515 52.8412 73.267C52.8412 72.019 53.0652 70.867 53.5132 69.811C53.9612 68.755 54.5932 67.843 55.4092 67.075C56.2252 66.291 57.1772 65.691 58.2652 65.275C59.3532 64.843 60.5452 64.627 61.8412 64.627C63.2172 64.627 64.4732 64.867 65.6092 65.347C66.7452 65.811 67.7052 66.507 68.4892 67.435L66.4732 69.331C65.8652 68.675 65.1852 68.187 64.4332 67.867C63.6812 67.531 62.8652 67.363 61.9852 67.363C61.1052 67.363 60.2972 67.507 59.5612 67.795C58.8412 68.083 58.2092 68.491 57.6652 69.019C57.1372 69.547 56.7212 70.171 56.4172 70.891C56.1292 71.611 55.9852 72.403 55.9852 73.267C55.9852 74.131 56.1292 74.923 56.4172 75.643C56.7212 76.363 57.1372 76.987 57.6652 77.515C58.2092 78.043 58.8412 78.451 59.5612 78.739C60.2972 79.027 61.1052 79.171 61.9852 79.171C62.8652 79.171 63.6812 79.011 64.4332 78.691C65.1852 78.355 65.8652 77.851 66.4732 77.179L68.4892 79.099C67.7052 80.011 66.7452 80.707 65.6092 81.187C64.4732 81.667 63.2092 81.907 61.8172 81.907ZM83.2867 64.867H86.4067V81.667H83.2867V64.867ZM74.5987 81.667H71.4787V64.867H74.5987V81.667ZM83.5267 74.467H74.3347V71.803H83.5267V74.467ZM102.509 81.667L95.1652 64.867H98.5492L105.101 80.059H103.157L109.781 64.867H112.901L105.581 81.667H102.509ZM122.25 81.907C119.946 81.907 118.138 81.259 116.826 79.963C115.53 78.667 114.882 76.795 114.882 74.347V64.867H118.002V74.227C118.002 75.955 118.37 77.211 119.106 77.995C119.858 78.779 120.914 79.171 122.274 79.171C123.634 79.171 124.682 78.779 125.418 77.995C126.154 77.211 126.522 75.955 126.522 74.227V64.867H129.594V74.347C129.594 76.795 128.938 78.667 127.626 79.963C126.33 81.259 124.538 81.907 122.25 81.907ZM122.274 86.539C121.874 86.539 121.53 86.411 121.242 86.155C120.97 85.899 120.834 85.555 120.834 85.123C120.834 84.691 120.97 84.339 121.242 84.067C121.53 83.795 121.874 83.659 122.274 83.659C122.674 83.659 123.01 83.795 123.282 84.067C123.57 84.339 123.714 84.691 123.714 85.123C123.714 85.555 123.57 85.899 123.282 86.155C123.01 86.411 122.674 86.539 122.274 86.539Z" fill="white"/>
<path d="M231.108 95.495C239.226 95.495 245.806 88.926 245.806 80.8227C245.806 72.7194 239.226 66.1504 231.108 66.1504C222.991 66.1504 216.41 72.7194 216.41 80.8227C216.41 88.926 222.991 95.495 231.108 95.495Z" fill="#D7D7D7"/>
<path d="M31.4976 164.472L29.4449 164.475C28.9042 164.476 28.4664 164.914 28.4672 165.454L28.4699 167.376C28.4706 167.915 28.9096 168.352 29.4503 168.352L31.503 168.349C32.0437 168.348 32.4815 167.91 32.4807 167.37L32.478 165.448C32.4773 164.909 32.0383 164.472 31.4976 164.472Z" fill="#F0F0F0"/>
<path d="M276.819 98.7021H274.766C274.225 98.7021 273.787 99.1397 273.787 99.6795V101.601C273.787 102.141 274.225 102.579 274.766 102.579H276.819C277.36 102.579 277.798 102.141 277.798 101.601V99.6795C277.798 99.1397 277.36 98.7021 276.819 98.7021Z" fill="#F0F0F0"/>
<path d="M298.58 150.993H281.928C281.758 150.994 281.589 150.961 281.432 150.896C281.274 150.832 281.131 150.737 281.01 150.617C280.89 150.498 280.794 150.355 280.728 150.199C280.663 150.042 280.628 149.874 280.628 149.704C280.628 149.36 280.764 149.031 281.007 148.788C281.25 148.545 281.58 148.407 281.924 148.406L298.576 148.386C298.746 148.385 298.915 148.417 299.072 148.482C299.23 148.546 299.373 148.641 299.493 148.761C299.614 148.881 299.709 149.023 299.774 149.18C299.839 149.337 299.872 149.505 299.872 149.675C299.874 149.847 299.843 150.017 299.779 150.176C299.716 150.335 299.621 150.481 299.501 150.603C299.381 150.726 299.238 150.823 299.08 150.89C298.922 150.957 298.752 150.992 298.58 150.993Z" fill="#F0F0F0"/>
<path d="M251.026 196.735C248.883 196.99 237.809 201.273 236.011 201.897L235.933 201.926L235.723 202.004C225.027 205.967 220.091 205.223 215.899 203.881C204.537 200.259 191.122 171.218 172.706 174.236C164.89 175.513 165.301 190.703 160.402 194.247L160.299 194.333C159.599 194.842 158.912 195.364 158.267 195.898C148.694 202.382 139.159 193.931 136.423 192.017C136.221 191.865 136.012 190.662 135.81 190.51L135.637 190.379C123.646 181.607 96.1459 172.384 77.7619 174.569C46.2059 178.302 41.8906 215.83 41.8906 215.83H278.016C274.313 207.034 268.673 194.645 251.026 196.735Z" fill="#D7D7D7"/>
<path d="M304.68 180.875H58.2955C58.2275 180.875 58.1622 180.902 58.1142 180.95C58.0661 180.998 58.0391 181.063 58.0391 181.131C58.0391 181.199 58.0661 181.265 58.1142 181.313C58.1622 181.361 58.2275 181.388 58.2955 181.388H304.68C304.748 181.388 304.813 181.361 304.861 181.313C304.909 181.265 304.937 181.199 304.937 181.131C304.937 181.063 304.909 180.998 304.861 180.95C304.813 180.902 304.748 180.875 304.68 180.875Z" fill="#91A2B7"/>
<path d="M215.93 139.515H200.097C199.633 139.515 199.182 139.669 198.816 139.954C198.449 140.239 198.188 140.637 198.074 141.087L196.272 148.152H219.646L217.962 141.117C217.852 140.661 217.592 140.254 217.224 139.963C216.855 139.673 216.4 139.515 215.93 139.515Z" fill="#FFCA61"/>
<path d="M152.525 174L133.873 193.849L138.601 202.683L172.297 204.076L191.164 193.849L245.815 204.354H282.853L291.904 195.164L275.497 179.367L152.525 174Z" fill="#FEC337"/>
<path d="M267.924 215.35C276.128 213.942 281.636 206.149 280.227 197.945C278.819 189.741 271.026 184.233 262.822 185.642C254.618 187.05 249.11 194.843 250.519 203.047C251.927 211.251 259.72 216.759 267.924 215.35Z" fill="#333333"/>
<path d="M249.844 199.466C250.051 194.008 253.898 189.677 258.26 187.053C252.771 189.283 248.901 194.668 248.901 200.959C248.901 209.245 254.991 215.83 263.279 215.83C266.104 215.83 269.374 215.182 271.63 213.824C269.888 214.529 267.545 215.019 265.549 215.073C252.906 215.414 249.56 206.938 249.844 199.466Z" fill="#1E1E1E"/>
<path d="M266.635 208.804C271.027 207.297 273.365 202.515 271.858 198.123C270.351 193.732 265.569 191.393 261.177 192.9C256.786 194.407 254.447 199.189 255.954 203.581C257.461 207.973 262.243 210.311 266.635 208.804Z" fill="#D3D3D3"/>
<path d="M155.512 215.867C163.799 215.867 170.517 209.15 170.517 200.863C170.517 192.576 163.799 185.858 155.512 185.858C147.226 185.858 140.508 192.576 140.508 200.863C140.508 209.15 147.226 215.867 155.512 215.867Z" fill="#333333"/>
<path d="M141.453 199.466C141.661 194.008 145.508 189.677 149.87 187.053C144.38 189.283 140.511 194.668 140.511 200.959C140.511 209.245 146.6 215.83 154.888 215.83C157.713 215.83 160.983 215.182 163.239 213.824C161.497 214.529 159.154 215.019 157.158 215.073C144.516 215.414 141.167 206.938 141.453 199.466Z" fill="#1E1E1E"/>
<path d="M155.513 192.457C153.85 192.457 152.224 192.95 150.842 193.874C149.459 194.798 148.382 196.111 147.745 197.647C147.109 199.183 146.943 200.874 147.267 202.504C147.591 204.135 148.392 205.633 149.568 206.809C150.744 207.985 152.242 208.785 153.873 209.11C155.504 209.434 157.194 209.267 158.73 208.631C160.266 207.995 161.579 206.917 162.503 205.534C163.427 204.152 163.92 202.526 163.92 200.863C163.92 199.759 163.702 198.666 163.28 197.646C162.857 196.626 162.238 195.7 161.457 194.919C160.676 194.138 159.75 193.519 158.73 193.097C157.71 192.674 156.617 192.457 155.513 192.457Z" fill="#D3D3D3"/>
<path d="M305.131 185.799C305.131 185.799 301.843 178.708 296.777 175.774C280.904 166.584 259.179 167.141 259.179 167.141C259.179 167.141 253.93 161.93 248.318 158.508C236.901 151.546 238.293 147.926 206.267 148.204C174.241 148.483 155.027 156.559 146.115 163.799C137.204 171.04 131.913 181.62 131.913 181.62L127.179 185.24V195.265L132.749 202.227L139.293 203.109C139.293 203.109 138.303 199.024 140.531 192.835C142.046 188.627 148.205 183.8 155.384 184.171C163.171 184.574 168.64 188.251 170.732 193.331C172.463 197.539 172.293 204.176 172.293 204.176L247.349 204.346C247.349 204.346 246.792 199.549 249.079 193.826C250.75 189.648 255.554 183.569 264.746 184.402C273.14 185.165 277.267 189.877 279.157 194.69C281.047 199.502 280.642 204.592 280.642 204.592C280.642 204.592 295.462 204.34 301.543 204.408C307.12 204.472 310.537 203.986 309.581 194.427C308.95 188.059 305.131 185.799 305.131 185.799Z" fill="#F27405"/>
<path d="M235.328 154.057C234.328 153.566 233.346 153.137 232.358 152.762C227.464 150.903 222.43 150.38 214.287 150.342C193.987 150.249 182.228 155.914 176.784 159.38C171.339 162.847 169.372 165.134 169.372 165.134L215.428 166.781L252.799 168.116C252.799 168.116 245.868 159.229 235.328 154.057Z" fill="#C6D1E5"/>
<g opacity="0.7">
<path d="M235.328 154.056C234.329 153.565 233.347 153.136 232.359 152.762C230.956 156.05 228.799 159.013 226.028 161.275C223.094 163.672 219.596 165.285 216.028 166.568C215.828 166.641 215.63 166.711 215.43 166.78L252.8 168.116C252.8 168.116 245.868 159.228 235.328 154.056Z" fill="#8F9FB7"/>
</g>
<path d="M235.576 154.056C229.62 151.134 224.322 150.387 214.534 150.342C194.235 150.249 182.077 155.803 176.631 159.269C171.185 162.735 169.158 165.166 169.158 165.166L253.047 168.116C253.047 168.116 246.115 159.229 235.576 154.056ZM173.583 164.145C173.583 164.145 175.378 162.144 180.365 159.112C185.351 156.081 196.114 151.127 214.696 151.209C223.656 151.248 228.506 151.9 233.958 154.457C243.606 158.981 249.949 166.755 249.949 166.755L173.583 164.145Z" fill="#333333"/>
<path d="M309.332 191.918C309.332 191.918 295.135 191.323 293.359 192.175C291.826 192.91 291.451 199.646 293.68 200.481C295.908 201.316 307.13 200.866 307.13 200.866C307.13 200.866 310.771 200.514 310.981 196.281C311.158 192.689 309.332 191.918 309.332 191.918Z" fill="#333333"/>
<path d="M135.992 190.458C135.992 190.458 127.866 190.059 126.85 190.629C125.972 191.121 125.76 195.629 127.032 196.191C128.305 196.752 134.73 196.447 134.73 196.447C134.73 196.447 136.815 196.212 136.935 193.377C137.037 190.975 135.992 190.458 135.992 190.458Z" fill="#D81A1A"/>
<g opacity="0.6">
<path d="M152.687 167.299L145.301 171.94L264.867 176.025L257.881 172.683L152.687 167.299Z" fill="#FEC337"/>
</g>
<path d="M181.117 201.831H242.437L242.774 200.16L180.948 199.789L181.117 201.831Z" fill="#FEC337"/>
<g opacity="0.6">
<path d="M264.308 179.862L265.051 181.223C265.051 181.223 270.917 181.457 276.19 183.946C280.558 186.008 282.399 189.112 283.749 192.487C285.099 195.862 285.581 199.434 285.581 199.434L290.053 201.77C290.053 201.77 288.446 191.54 285.521 187.298C279.286 178.252 264.308 179.862 264.308 179.862Z" fill="#FEC337"/>
</g>
<g opacity="0.6">
<path d="M152.981 176.75L153.81 178.061C153.81 178.061 159.679 177.918 165.102 180.063C169.593 181.84 171.63 184.819 173.194 188.1C174.758 191.382 175.468 194.915 175.468 194.915L180.083 196.959C180.083 196.959 177.822 186.854 174.631 182.808C167.824 174.182 152.981 176.75 152.981 176.75Z" fill="#FEC337"/>
</g>
<path d="M139.594 174.229C138.997 174.229 136.389 174.168 136.389 174.168L131.918 181.518C131.918 181.518 137.356 181.408 138.401 181.408C139.446 181.408 140.342 180.913 140.491 180.418C140.64 179.923 141.088 175.962 141.088 175.343C141.088 174.724 140.192 174.229 139.594 174.229Z" fill="#FEC337"/>
<path d="M251.878 167.148L251.75 167.496L251.814 167.322L251.75 167.496C251.792 167.512 256.003 169.266 254.288 180.452C253.98 182.467 252.024 184.239 250.131 185.953C248.792 187.166 247.408 188.419 246.606 189.761C243.991 194.147 243.73 200.649 243.704 201.83L196.653 201.461C196.211 200.644 193.047 194.635 191.339 187.123C189.592 179.435 189.06 175.244 190.762 172.217C192.406 169.295 195.354 165.782 195.384 165.747L195.1 165.508C195.07 165.543 192.099 169.083 190.439 172.035C188.676 175.168 189.208 179.423 190.976 187.205C192.818 195.307 196.344 201.673 196.379 201.737L196.432 201.83H196.54L244.071 202.203V202.016C244.071 201.943 244.105 194.677 246.923 189.95C247.692 188.656 249.058 187.421 250.377 186.226C252.317 184.469 254.323 182.653 254.652 180.507C256.424 168.98 252.065 167.218 251.878 167.148Z" fill="#FEC337"/>
<path d="M196.821 157.365C194.315 161.45 191.994 165.535 191.994 165.535H196.265C196.265 165.535 197.007 162.099 199.885 157.458C201.57 154.74 204.436 151.424 204.436 151.424H202.577C202.577 151.424 199.328 153.281 196.821 157.365Z" fill="#333333"/>
<path d="M290.937 184.314C286.291 179.271 287.82 177.968 287.82 177.968L287.141 178.252C287.141 178.252 285.838 178.478 287.197 180.915C288.557 183.351 291.844 187.6 294.733 188.222C297.623 188.844 297.963 187.825 297.963 187.825L298.077 187.313C298.077 187.313 294.961 188.681 290.937 184.314Z" fill="#333333"/>
<path d="M196.791 183.452C199.15 183.452 201.062 181.54 201.062 179.182C201.062 176.823 199.15 174.911 196.791 174.911C194.432 174.911 192.521 176.823 192.521 179.182C192.521 181.54 194.432 183.452 196.791 183.452Z" fill="#FEC337"/>
<path d="M201.318 178.036H192.326C192.088 178.036 191.86 178.131 191.692 178.299C191.523 178.467 191.429 178.696 191.429 178.934C191.429 179.172 191.523 179.4 191.692 179.568C191.86 179.736 192.088 179.831 192.326 179.831H201.318C201.556 179.831 201.785 179.736 201.953 179.568C202.121 179.4 202.216 179.172 202.216 178.934C202.216 178.696 202.121 178.467 201.953 178.299C201.785 178.131 201.556 178.036 201.318 178.036Z" fill="#F27405"/>
<path d="M243.032 164.35C240.987 164.229 237.658 165.995 236.195 167.503C235.663 168.051 235.378 168.562 235.49 168.94C236.31 171.727 241.556 171.889 245.001 171.889C248.445 171.889 250.083 169.594 250.083 168.446C250.083 168.172 249.839 167.805 249.429 167.398C248.125 166.118 245.151 164.474 243.032 164.35Z" fill="#FEC337"/>
<path d="M236.194 167.503C237.938 169.193 242.105 169.309 244.999 169.309C247.194 169.309 248.657 168.375 249.427 167.401C248.124 166.119 245.151 164.474 243.032 164.35C240.986 164.229 237.657 165.995 236.194 167.503Z" fill="#F27405"/>
<path d="M58.0391 216.507H304.937V212.161H58.0391V216.507ZM58.5519 212.674H304.424V215.994H58.5519V212.674Z" fill="#91A2B7"/>
<path d="M297.239 106.31C297.186 106.262 297.118 106.236 297.047 106.236C297.002 106.236 296.959 106.252 296.926 106.282C296.893 106.312 296.872 106.352 296.867 106.397L296.546 109.229L296.537 109.313H297.599L297.329 106.492C297.322 106.422 297.29 106.358 297.239 106.31Z" fill="#2848A3"/>
<path d="M297.11 106.265C297.101 106.255 297.092 106.246 297.082 106.238C297.071 106.237 297.059 106.237 297.048 106.238C297.004 106.238 296.961 106.254 296.928 106.283C296.894 106.313 296.873 106.354 296.868 106.398L296.604 108.672H296.641C296.791 108.668 296.934 108.605 297.038 108.497C297.143 108.39 297.201 108.246 297.201 108.095L297.186 106.461C297.187 106.388 297.16 106.318 297.11 106.265Z" fill="#6184E5"/>
<path d="M298.278 121.918H296.229V212.348H298.278V121.918Z" fill="#3C5CC9"/>
<path d="M297.175 121.918H296.229V212.348H297.175V121.918Z" fill="#1C3B82"/>
<path d="M300.515 197.917H293.992V221.844H300.515V197.917Z" fill="#3C5CC9"/>
<path d="M297.88 197.917H293.992V221.844H297.88V197.917Z" fill="#2848A3"/>
<path d="M297.069 108.655C296.912 108.655 296.756 108.66 296.603 108.671C294.753 108.795 293.321 109.646 293.321 110.678C293.321 111.71 294.753 112.561 296.603 112.685C296.756 112.696 296.912 112.701 297.069 112.701C299.14 112.701 300.818 111.795 300.818 110.678C300.818 109.56 299.14 108.655 297.069 108.655Z" fill="#3C5CC9"/>
<path d="M296.603 108.671C294.753 108.795 293.321 109.645 293.321 110.677C293.321 111.709 294.753 112.561 296.603 112.684C297.941 112.351 298.878 111.578 298.878 110.677C298.878 109.777 297.941 109.004 296.603 108.671Z" fill="#2848A3"/>
<path d="M293.984 123.702H300.506L302.454 112.629H291.685L293.984 123.702Z" fill="#2848A3"/>
<path d="M303.036 111.794H291.103V112.856H303.036V111.794Z" fill="#3C5CC9"/>
<path d="M298.604 111.794H291.103V112.856H298.604V111.794Z" fill="#2848A3"/>
<path d="M294.575 123.121H299.857L301.654 113.168H292.455L294.575 123.121Z" fill="#6184E5"/>
<path d="M292.718 110.58L291.865 111.794H302.274L301.465 110.58H292.718Z" fill="#3C5CC9"/>
<path d="M292.718 110.58L291.865 111.794H299.711L298.902 110.58H292.718Z" fill="#1C3B82"/>
<path d="M79.3267 220.654C64.7915 220.654 53.0088 222.474 53.0088 224.719C53.0088 226.964 64.7915 228.783 79.3267 228.783C93.862 228.783 105.644 226.963 105.644 224.719C105.644 222.475 93.8594 220.654 79.3267 220.654Z" fill="#CDD5E0"/>
<path d="M137.851 221.948C123.317 221.948 111.533 223.767 111.533 226.012C111.533 228.257 123.317 230.076 137.851 230.076C152.386 230.076 164.168 228.257 164.168 226.012C164.168 223.768 152.384 221.948 137.851 221.948Z" fill="#CDD5E0"/>
<path d="M99.0738 199.101C99.0738 199.101 98.3814 215.329 97.984 222.201C97.884 223.911 97.8026 225.044 97.7552 225.2C97.5129 225.983 104.494 228.617 108.46 228.776C111.42 228.897 108.752 227.404 106.771 225.69C106.097 225.107 105.503 224.5 105.237 223.92C104.189 221.64 110.312 200.062 110.312 200.062L99.0738 199.101Z" fill="#FEB8C0"/>
<path d="M107.244 191.962C101.819 190.276 95.3993 190.123 90.9736 193.686L92.3563 201.617C95.532 201.28 98.2397 203.746 100.476 206.026C102.711 208.307 105.429 210.765 108.603 210.411C110.792 210.167 112.616 208.583 113.892 206.789C115.482 204.553 116.46 201.698 115.769 199.043C114.795 195.308 110.932 193.111 107.244 191.962Z" fill="#F98C8F"/>
<path d="M106.771 225.69C104.29 226.806 100.063 223.858 97.9821 222.201C97.8821 223.911 97.8007 225.043 97.7532 225.2C97.5109 225.983 104.492 228.617 108.458 228.776C111.424 228.897 108.753 227.404 106.771 225.69Z" fill="#180070"/>
<path d="M82.7732 223.829C82.3245 224.282 81.5552 224.648 80.7251 224.964C78.2751 225.894 75.2565 226.379 78.0783 227.282C81.8604 228.496 89.3213 228.419 89.3604 227.603C89.3693 227.439 89.6809 226.348 90.1757 224.707C92.1629 218.116 97.0834 202.637 97.0834 202.637L86.1995 199.678C86.1995 199.678 84.5398 222.047 82.7732 223.829Z" fill="#FEB8C0"/>
<path d="M80.7251 224.963C78.2751 225.894 75.2565 226.379 78.0783 227.282C81.8604 228.495 89.3213 228.419 89.3604 227.603C89.3693 227.439 89.6809 226.348 90.1757 224.707C87.6546 225.546 82.6719 226.863 80.7251 224.963Z" fill="#180070"/>
<path d="M112.057 185.521C113.2 180.856 113.951 167.123 112.992 163.786C112.034 160.449 100.802 158.793 100.802 158.793C100.802 158.793 93.416 169.59 90.7827 176.046C88.1494 182.503 82.2135 194.654 82.7366 202.817C83.2596 210.981 92.4494 202.428 99.693 204.76C106.937 207.092 109.678 207.523 112.169 206.433C114.66 205.342 116.701 202.817 116.701 202.817C116.701 202.817 110.911 190.185 112.057 185.521Z" fill="#3C5CC9"/>
<g opacity="0.2">
<path d="M119.196 187.832C118.708 184.099 119.763 180.326 119.593 176.565C119.337 170.919 116.369 165.772 113.106 161.157C114.054 169.358 111.942 177.876 107.272 184.683C106.165 186.299 104.851 188.086 105.212 190.012C105.455 191.311 106.422 192.34 106.999 193.53C108.465 196.556 106.885 200.666 103.769 201.93C100.652 203.195 96.6533 201.348 95.5988 198.155C94.7654 195.641 95.4937 192.514 93.7013 190.564C93.1558 193.098 92.5981 195.664 91.418 197.971C90.2379 200.278 88.3411 202.335 85.8783 203.141C84.1084 203.717 82.0513 203.672 80.6174 204.86L74.8789 212.249C83.3404 214.787 92.1026 216.589 100.939 216.535C109.774 216.48 118.723 214.491 126.265 209.886C127.162 209.339 128.102 208.668 128.362 207.65C128.585 206.777 128.246 205.867 127.867 205.05C125.146 199.177 120.033 194.251 119.196 187.832Z" fill="black"/>
</g>
<path d="M70.8545 221.443C70.3706 221.315 69.8578 221.348 69.3944 221.538C68.9311 221.727 68.5426 222.064 68.2883 222.495C68.0341 222.927 67.928 223.429 67.9863 223.927C68.0446 224.424 68.2641 224.889 68.6112 225.25C68.9584 225.611 69.4141 225.848 69.9088 225.926C70.4036 226.003 70.9101 225.917 71.3511 225.68C71.7921 225.442 72.1433 225.067 72.3511 224.612C72.5589 224.156 72.6119 223.645 72.5019 223.156C72.4101 222.747 72.208 222.372 71.9175 222.07C71.6271 221.768 71.2594 221.551 70.8545 221.443Z" fill="#434B54"/>
<path d="M89.9424 226.513C89.5042 226.397 89.0414 226.413 88.6124 226.56C88.1833 226.706 87.8075 226.977 87.5322 227.337C87.257 227.698 87.0948 228.131 87.0661 228.584C87.0374 229.036 87.1436 229.487 87.3711 229.879C87.5987 230.271 87.9374 230.587 88.3445 230.787C88.7515 230.987 89.2086 231.061 89.658 231.001C90.1074 230.941 90.5288 230.749 90.8691 230.449C91.2093 230.149 91.453 229.755 91.5693 229.317C91.7254 228.73 91.6416 228.104 91.3365 227.578C91.0314 227.053 90.53 226.669 89.9424 226.513Z" fill="#434B54"/>
<path d="M98.995 172.87L94.0889 191.348L95.2289 191.65L100.135 173.173L98.995 172.87Z" fill="#D6D6D6"/>
<path d="M89.1972 170.268L84.291 188.746L85.431 189.049L90.3372 170.571L89.1972 170.268Z" fill="#BCBCBC"/>
<path d="M94.0109 189.239L86.5468 187.256C86.2798 187.186 85.9956 187.224 85.7567 187.363C85.5179 187.501 85.3439 187.729 85.2731 187.996C85.2023 188.263 85.2404 188.547 85.3792 188.786C85.5179 189.025 85.7458 189.199 86.0128 189.27L93.4776 191.252C93.6104 191.29 93.7493 191.301 93.8864 191.284C94.0234 191.267 94.1558 191.224 94.2758 191.155C94.3957 191.087 94.5009 190.996 94.5851 190.886C94.6694 190.777 94.731 190.652 94.7664 190.518C94.8018 190.385 94.8103 190.246 94.7914 190.109C94.7724 189.972 94.7265 189.841 94.6561 189.722C94.5858 189.603 94.4925 189.5 94.3818 189.417C94.271 189.335 94.1449 189.276 94.0109 189.242V189.239Z" fill="#434B54"/>
<path d="M100.44 171.034L89.9976 168.261C89.965 168.252 89.931 168.25 89.8976 168.254C89.8642 168.259 89.832 168.27 89.8028 168.287C89.7736 168.303 89.7481 168.326 89.7276 168.353C89.7071 168.38 89.6921 168.41 89.6835 168.443L89.1982 170.272L100.136 173.18L100.622 171.351C100.631 171.318 100.634 171.284 100.63 171.25C100.625 171.216 100.614 171.184 100.597 171.154C100.581 171.125 100.558 171.099 100.531 171.078C100.504 171.057 100.473 171.042 100.44 171.034Z" fill="#CC5700"/>
<path d="M101.566 192.471C101.522 192.457 101.476 192.443 101.43 192.431L78.5057 186.341C77.8024 186.155 77.0539 186.256 76.4247 186.621C75.7956 186.987 75.3371 187.587 75.15 188.29L67.0307 218.864C66.938 219.212 66.9149 219.575 66.9626 219.932C67.0104 220.289 67.1281 220.634 67.3089 220.945C67.4898 221.257 67.7304 221.529 68.0168 221.748C68.3032 221.966 68.6299 222.126 68.9782 222.218L91.9025 228.308C91.9481 228.32 91.9955 228.331 92.0397 228.341C92.709 228.488 93.4089 228.378 94.0013 228.034C94.5938 227.69 95.0358 227.136 95.2404 226.482C95.2538 226.439 95.2679 226.392 95.2801 226.346L103.39 195.808C103.402 195.762 103.413 195.715 103.423 195.67C103.569 195.001 103.459 194.302 103.115 193.71C102.772 193.118 102.219 192.676 101.566 192.471Z" fill="#F27405"/>
<path d="M103.045 192.86L95.2617 190.792C94.9824 190.718 94.6851 190.758 94.4351 190.903C94.1852 191.048 94.0032 191.287 93.929 191.566L84.9604 225.338C84.9236 225.476 84.9145 225.62 84.9334 225.762C84.9524 225.904 84.9992 226.041 85.071 226.165C85.1429 226.289 85.2384 226.397 85.3522 226.484C85.466 226.571 85.5958 226.634 85.7341 226.671L93.5175 228.738C93.7968 228.812 94.0941 228.772 94.344 228.627C94.594 228.482 94.776 228.243 94.8502 227.964L103.819 194.193C103.856 194.055 103.865 193.91 103.846 193.768C103.827 193.627 103.78 193.49 103.708 193.366C103.636 193.242 103.541 193.134 103.427 193.047C103.313 192.96 103.183 192.896 103.045 192.86Z" fill="#CC5700"/>
<path d="M88.9236 197.176L82.4492 221.564C83.039 221.72 83.6281 221.429 83.7652 220.913L89.7454 198.393C89.8851 197.878 89.5146 197.332 88.9236 197.176Z" fill="#CC5700"/>
<path d="M82.9617 195.592L76.4873 219.98C77.077 220.137 77.6662 219.845 77.8033 219.33L83.7835 196.81C83.9181 196.294 83.5508 195.749 82.9617 195.592Z" fill="#CC5700"/>
<path d="M77.0007 194.008L70.5264 218.396C71.1161 218.552 71.7052 218.261 71.8424 217.745L77.8225 195.225C77.9552 194.709 77.5879 194.164 77.0007 194.008Z" fill="#CC5700"/>
<path d="M94.9538 148.062C94.9538 148.062 92.6993 153.673 91.6205 157.485C90.5416 161.296 89.6436 168.465 89.3769 169.542C89.1102 170.618 90.8718 171.763 91.4243 172.134C91.9769 172.504 92.5442 172.612 93.4602 173.145C94.3763 173.678 94.6275 170.568 94.6275 170.568L95.6968 171.379C95.7582 170.968 95.7495 170.55 95.6711 170.143C95.5384 169.502 94.5308 168.072 94.6551 167.602C94.7795 167.132 96.8134 159.83 97.307 158.574C97.8006 157.317 100.796 151.86 100.796 151.86C100.276 148.686 94.9538 148.062 94.9538 148.062Z" fill="#FEB8C0"/>
<path d="M109.606 140.771C109.606 140.771 105.555 138.672 101.652 140.488C97.7498 142.304 92.5409 148.206 92.5409 148.206C92.5409 148.206 92.4293 150.465 93.9601 150.174C95.4909 149.883 93.887 151.705 95.4178 151.996C96.9486 152.288 96.146 153.017 97.6037 153.086C98.4047 153.132 99.2078 153.132 100.009 153.086L100.446 155.783C100.446 155.783 96.0005 161.176 96.9479 161.613C97.8954 162.05 98.7697 161.613 98.7697 161.613C98.7697 161.613 99.4986 163.581 100.372 163.289C101.246 162.997 100.663 163.945 101.684 164.164C102.704 164.382 103.193 164.018 104.297 164.455C105.4 164.892 104.965 165.985 106.567 165.403C108.17 164.82 108.407 166.131 109.783 165.915C111.158 165.699 110.84 166.475 112.165 165.94C113.49 165.406 114.122 167.227 114.608 165.769C115.093 164.312 116.478 160.158 117.352 156.077C118.227 151.996 122.555 142.081 109.606 140.771Z" fill="#F61D6B"/>
<g opacity="0.2">
<path d="M118.749 145.616C118.756 146.778 118.052 148.965 117.426 149.945C116.533 151.341 116.115 154.077 114.899 155.201C113.683 156.326 112.121 157.166 110.464 157.194L109.468 159.745C109.34 160.08 109.191 160.435 108.897 160.642C108.192 161.142 107.24 160.489 106.374 160.506C105.152 160.53 104.215 161.901 102.998 161.777C102.229 161.699 101.667 161.049 101.023 160.623C99.5256 159.633 97.305 159.961 96.157 161.343L94.8281 164.624C98.3781 166.803 102.081 168.9 106.164 169.737C108.051 170.123 109.984 170.233 111.902 170.062C113.12 169.954 114.353 169.725 115.427 169.138C117.268 168.133 118.435 166.175 118.958 164.144C119.481 162.114 119.439 159.986 119.395 157.89C119.326 154.618 118.817 148.885 118.749 145.616Z" fill="black"/>
</g>
<path d="M117.513 135.134C117.705 134.017 118.745 129.045 113.902 128.788C113.902 128.788 113.018 127.493 110.777 127.492C108.536 127.492 104.879 128.684 103.821 129.691C102.764 130.697 103.537 133.238 102.684 134.933C101.831 136.629 99.981 140.685 103.039 141.436C102.783 140.499 103.024 140.286 103.024 140.286C103.024 140.286 103.356 141.329 104.465 141.745C105.574 142.162 108.477 142.616 108.477 142.616L112.379 141.917C112.379 141.917 113.557 141.776 113.943 141.418C113.153 142.512 112.803 142.391 112.739 142.354C112.949 142.493 116.115 144.513 117.321 141.106C118.575 137.57 117.219 136.841 117.513 135.134Z" fill="#3B2BAD"/>
<path d="M112.741 142.356L112.729 142.349L112.741 142.356Z" fill="#3B2BAD"/>
<path d="M115.498 136.393C115.33 135.552 115.626 134.696 115.708 133.843C115.789 132.99 115.556 131.968 114.763 131.64C115.154 131.751 115.515 131.948 115.82 132.216C116.126 132.483 116.368 132.815 116.531 133.187C116.906 132.411 116.566 131.412 115.883 130.886C115.201 130.36 114.26 130.256 113.418 130.444C112.576 130.632 111.815 131.08 111.11 131.573C111.644 130.949 112.179 130.324 112.713 129.701C112.713 129.701 111.66 128.388 110.258 128.418C109.465 128.435 108.673 128.478 107.908 128.688C107.18 128.888 106.449 129.152 105.877 129.645C105.683 129.8 105.527 129.997 105.421 130.222C105.32 130.46 105.306 130.724 105.305 130.982C105.305 131.885 105.441 132.828 105.088 133.659C104.519 134.999 102.913 135.543 101.968 136.652C101.577 137.112 101.307 137.662 101.183 138.253C101.059 138.845 101.086 139.457 101.26 140.036C101.433 140.614 101.75 141.14 102.179 141.564C102.608 141.989 103.137 142.299 103.717 142.467C103.381 142.027 103.167 141.505 103.096 140.955C103.026 140.405 103.102 139.846 103.316 139.335C103.247 141.076 104.466 142.786 106.136 143.287C107.867 143.808 109.709 143.104 111.363 142.374C112.484 141.879 113.642 141.333 114.395 140.368C114.562 141.024 114.092 141.661 113.613 142.138C112.59 143.152 111.386 143.967 110.065 144.54C111.231 144.949 112.501 145.122 113.712 144.895C114.924 144.669 116.084 144.019 116.799 143.011C117.513 142.004 117.74 140.631 117.26 139.492C116.792 138.392 115.732 137.565 115.498 136.393Z" fill="#483FC4"/>
<path d="M109.784 143.688C111.742 143.396 112.989 140.063 112.989 140.063L107.732 141.162C107.807 141.256 107.825 143.98 109.784 143.688Z" fill="#F98C8F"/>
<path d="M113.061 136.153C112.67 136.053 111.566 135.66 111.252 134.375C110.868 132.805 109.778 131.882 109.034 132.805C108.2 132.028 106.447 135.38 104.406 133.729C104.406 133.729 103.143 142.716 109.265 142.183C111.025 142.029 112.47 140.58 112.992 140.067C113.058 140.003 113.11 139.926 113.146 139.841C113.181 139.756 113.2 139.665 113.2 139.573C113.755 139.619 114.388 139.426 114.926 138.996C115.876 138.235 116.17 137.024 115.582 136.291C115.047 135.616 113.967 135.58 113.061 136.153Z" fill="#FEB8C0"/>
<path d="M111.394 137.671C111.167 137.642 110.937 137.682 110.733 137.784C110.528 137.886 110.359 138.047 110.246 138.245C110.133 138.444 110.081 138.672 110.098 138.9C110.114 139.127 110.198 139.345 110.339 139.526C110.479 139.706 110.67 139.84 110.887 139.912C111.104 139.983 111.338 139.989 111.558 139.928C111.778 139.866 111.975 139.741 112.124 139.567C112.273 139.394 112.367 139.18 112.394 138.953C112.43 138.651 112.346 138.346 112.158 138.106C111.971 137.866 111.696 137.71 111.394 137.671Z" fill="#F7727C"/>
<path d="M111.782 135.103C111.656 135.009 111.514 134.938 111.364 134.894C111.214 134.85 111.058 134.836 110.903 134.853C110.754 134.868 110.609 134.906 110.471 134.964C110.404 134.992 110.339 135.025 110.276 135.061C110.211 135.097 110.149 135.138 110.09 135.184C110.065 135.205 110.049 135.234 110.044 135.266C110.04 135.298 110.048 135.331 110.066 135.357C110.085 135.384 110.113 135.402 110.145 135.409C110.177 135.415 110.21 135.41 110.237 135.393L110.245 135.389C110.295 135.356 110.348 135.328 110.402 135.303C110.458 135.278 110.515 135.257 110.573 135.239C110.686 135.202 110.804 135.181 110.923 135.178C111.035 135.175 111.148 135.194 111.253 135.235C111.357 135.277 111.453 135.335 111.537 135.409L111.551 135.421C111.555 135.423 111.558 135.426 111.562 135.428C111.583 135.442 111.606 135.452 111.631 135.458C111.656 135.463 111.682 135.463 111.707 135.459C111.732 135.454 111.756 135.444 111.778 135.43C111.799 135.416 111.817 135.398 111.832 135.377C111.846 135.356 111.857 135.333 111.862 135.308C111.867 135.283 111.867 135.257 111.863 135.232C111.858 135.207 111.848 135.183 111.835 135.161C111.821 135.14 111.803 135.122 111.782 135.107V135.103Z" fill="#6B2E00"/>
<path d="M106.891 134.612H106.882C106.825 134.63 106.767 134.644 106.708 134.653C106.648 134.664 106.587 134.671 106.525 134.673C106.407 134.68 106.288 134.669 106.172 134.641C106.062 134.614 105.959 134.566 105.868 134.499C105.779 134.432 105.702 134.351 105.64 134.258L105.629 134.243L105.621 134.233C105.604 134.213 105.584 134.197 105.561 134.186C105.538 134.174 105.512 134.167 105.487 134.166C105.461 134.164 105.435 134.167 105.411 134.175C105.386 134.183 105.364 134.196 105.344 134.213C105.325 134.23 105.309 134.25 105.297 134.273C105.286 134.296 105.279 134.321 105.277 134.347C105.275 134.373 105.278 134.398 105.286 134.423C105.294 134.447 105.307 134.47 105.324 134.489C105.421 134.613 105.54 134.718 105.673 134.8C105.806 134.882 105.954 134.936 106.107 134.961C106.256 134.984 106.407 134.986 106.556 134.965C106.628 134.956 106.7 134.942 106.77 134.923C106.842 134.905 106.913 134.882 106.981 134.853C107.011 134.84 107.034 134.816 107.047 134.786C107.059 134.756 107.06 134.723 107.049 134.692C107.038 134.662 107.016 134.637 106.987 134.622C106.958 134.607 106.925 134.604 106.894 134.612L106.891 134.612Z" fill="#6B2E00"/>
<path d="M107.701 136.633C107.701 136.633 106.394 138.705 107.445 138.967C108.218 139.16 108.301 138.72 108.365 138.351C108.429 137.983 108.206 136.237 107.701 136.633Z" fill="#F98C8F"/>
<path d="M110.27 136.459C110.161 136.472 110.059 136.518 109.976 136.59C109.893 136.662 109.834 136.757 109.805 136.863C109.776 136.968 109.779 137.08 109.814 137.184C109.849 137.288 109.913 137.38 110 137.447C110.087 137.514 110.191 137.554 110.301 137.562C110.41 137.569 110.52 137.544 110.615 137.49C110.71 137.436 110.787 137.354 110.836 137.256C110.885 137.158 110.904 137.047 110.89 136.939C110.871 136.793 110.795 136.66 110.679 136.57C110.563 136.48 110.416 136.44 110.27 136.459Z" fill="#6B2E00"/>
<path d="M105.944 136.187C105.835 136.201 105.733 136.247 105.65 136.318C105.567 136.39 105.507 136.485 105.479 136.591C105.45 136.697 105.453 136.809 105.488 136.913C105.522 137.017 105.587 137.108 105.674 137.175C105.761 137.243 105.865 137.282 105.975 137.29C106.084 137.298 106.193 137.273 106.289 137.218C106.384 137.164 106.461 137.083 106.51 136.984C106.559 136.886 106.577 136.776 106.564 136.667C106.545 136.521 106.469 136.389 106.353 136.299C106.237 136.209 106.089 136.169 105.944 136.187Z" fill="#6B2E00"/>
<path d="M109.103 140.281C108.258 139.734 107.338 140.356 107.299 140.383C107.284 140.392 107.272 140.404 107.262 140.418C107.252 140.432 107.245 140.448 107.242 140.465C107.238 140.482 107.238 140.5 107.242 140.516C107.245 140.533 107.252 140.549 107.262 140.564C107.272 140.578 107.284 140.59 107.299 140.599C107.313 140.608 107.33 140.615 107.347 140.617C107.364 140.62 107.381 140.619 107.398 140.615C107.415 140.611 107.43 140.604 107.444 140.593C107.453 140.588 108.262 140.042 108.964 140.497C108.993 140.515 109.027 140.521 109.06 140.514C109.093 140.506 109.122 140.486 109.14 140.458C109.159 140.429 109.165 140.395 109.158 140.362C109.151 140.329 109.131 140.3 109.103 140.281Z" fill="#6B2E00"/>
<path d="M114.478 137.008C114.456 137.008 114.434 137.008 114.414 137.013H114.381L114.349 137.02C114.26 137.037 114.174 137.065 114.092 137.104C114.051 137.122 114.01 137.143 113.972 137.168C113.935 137.194 113.898 137.222 113.861 137.25C113.791 137.311 113.729 137.381 113.676 137.457C113.573 137.608 113.507 137.782 113.484 137.964C113.459 138.14 113.479 138.32 113.542 138.487C113.578 138.325 113.624 138.166 113.68 138.011C113.731 137.866 113.801 137.729 113.888 137.603C113.907 137.571 113.928 137.541 113.952 137.513C113.977 137.485 113.999 137.455 114.025 137.428C114.051 137.401 114.08 137.376 114.107 137.348C114.12 137.334 114.134 137.322 114.15 137.311L114.196 137.275C114.257 137.226 114.321 137.179 114.388 137.137C114.422 137.113 114.458 137.092 114.495 137.072C114.532 137.051 114.569 137.029 114.606 137.004C114.565 137.006 114.522 137.007 114.478 137.008Z" fill="#F98C8F"/>
<path d="M114.603 137.712C114.591 137.663 114.571 137.617 114.542 137.575C114.513 137.532 114.477 137.493 114.435 137.462C114.413 137.447 114.389 137.435 114.366 137.421C114.342 137.41 114.317 137.401 114.292 137.393C114.194 137.365 114.089 137.366 113.992 137.398C113.898 137.426 113.816 137.484 113.758 137.563C113.856 137.577 113.938 137.586 114.014 137.597C114.084 137.606 114.152 137.62 114.219 137.639C114.251 137.646 114.278 137.66 114.31 137.67C114.34 137.684 114.37 137.7 114.399 137.717C114.432 137.732 114.463 137.757 114.496 137.781C114.53 137.805 114.56 137.834 114.608 137.861C114.611 137.836 114.611 137.811 114.608 137.787C114.61 137.762 114.608 137.737 114.603 137.712Z" fill="#F98C8F"/>
<path d="M106.93 153.794C106.93 153.794 104.5 159.526 103.823 160.693C103.145 161.861 98.6726 167.981 98.3809 168.37C98.0892 168.758 96.3405 168.856 95.7572 169.147C95.3888 169.338 95.0554 169.59 94.7713 169.893L96.0707 170.231C96.0707 170.231 93.7854 172.355 94.7713 172.744C95.7572 173.133 96.1924 173.513 96.8264 173.716C97.4604 173.918 99.4495 174.59 100.13 173.716C100.811 172.842 105.878 167.69 108.203 164.485C110.527 161.28 113.534 156.031 113.534 156.031C113.534 156.031 109.746 152.24 106.93 153.794Z" fill="#FEB8C0"/>
<path d="M95.4307 168.748C95.399 168.749 95.3678 168.757 95.3393 168.771C95.3107 168.784 95.2853 168.804 95.2646 168.828L95.4307 168.748Z" fill="#F98C8F"/>
<path d="M106.93 153.794C108.293 153.986 108.221 154.571 109.034 154.474C109.847 154.376 109.551 155.932 110.913 155.349C112.276 154.766 112.655 156.223 113.535 156.029C114.414 155.835 114.997 156.745 115.386 156.047C115.776 155.349 117.427 149.616 117.427 149.616L110.364 147.282C110.364 147.282 105.568 153.6 106.93 153.794Z" fill="#F61D6B"/>
<path d="M178.919 139.538L175.333 136.914C175.225 136.836 175.09 136.803 174.958 136.823C174.826 136.844 174.707 136.916 174.628 137.023L169.051 144.644C169.044 144.654 169.038 144.665 169.035 144.677C169.032 144.688 169.031 144.701 169.033 144.713C169.035 144.725 169.039 144.736 169.046 144.747C169.052 144.757 169.061 144.766 169.07 144.773L173.015 147.657C173.049 147.682 173.092 147.693 173.134 147.686C173.176 147.68 173.214 147.657 173.24 147.623L178.961 139.802C178.989 139.761 179.001 139.711 178.993 139.662C178.985 139.612 178.959 139.568 178.919 139.538Z" fill="#2848A3"/>
<path d="M178.522 139.249L174.727 136.47C174.68 136.437 174.622 136.422 174.565 136.431C174.508 136.44 174.457 136.471 174.423 136.517L168.751 144.27C168.717 144.316 168.703 144.374 168.712 144.431C168.72 144.488 168.752 144.539 168.798 144.574L172.594 147.352C172.64 147.386 172.698 147.4 172.755 147.391C172.812 147.382 172.863 147.351 172.897 147.304L178.569 139.555C178.586 139.532 178.599 139.506 178.606 139.478C178.613 139.45 178.614 139.42 178.61 139.392C178.606 139.363 178.596 139.336 178.581 139.311C178.566 139.287 178.546 139.265 178.522 139.249Z" fill="#3C5CC9"/>
<path d="M177.663 139.276L177.042 138.821L176.871 138.925C176.848 138.939 176.821 138.946 176.793 138.945C176.766 138.943 176.74 138.934 176.718 138.918L175.334 137.908C175.314 137.893 175.299 137.874 175.289 137.851C175.279 137.829 175.275 137.804 175.278 137.779L175.306 137.552L174.906 137.26C174.793 137.176 174.65 137.14 174.51 137.16C174.37 137.18 174.244 137.255 174.159 137.369L169.7 143.458C169.62 143.571 169.586 143.71 169.606 143.847C169.627 143.984 169.699 144.108 169.808 144.193L169.822 144.203L172.579 146.219L172.594 146.229C172.707 146.308 172.847 146.34 172.984 146.318C173.121 146.296 173.244 146.222 173.327 146.111L177.786 140.021C177.868 139.906 177.902 139.763 177.879 139.623C177.856 139.484 177.778 139.359 177.663 139.276Z" fill="#E6EDFF"/>
<path d="M176.675 141.041C176.107 140.798 175.8 142.417 175.673 143.325C175.67 143.345 175.66 143.363 175.646 143.376C175.631 143.389 175.611 143.397 175.592 143.397C175.572 143.398 175.552 143.391 175.537 143.379C175.521 143.366 175.51 143.348 175.507 143.329C175.368 142.61 175.082 141.487 174.653 141.538C174.165 141.596 174.034 143.505 173.999 144.358C173.998 144.378 173.991 144.396 173.978 144.411C173.966 144.426 173.948 144.436 173.929 144.439C173.91 144.442 173.891 144.439 173.874 144.43C173.857 144.421 173.843 144.406 173.836 144.388C173.554 143.721 172.946 142.419 172.61 142.721C172.29 143.012 172.49 144.312 172.627 145.016C172.632 145.035 172.629 145.055 172.62 145.073C172.611 145.09 172.596 145.104 172.578 145.112C172.56 145.119 172.539 145.12 172.52 145.115C172.501 145.109 172.485 145.096 172.475 145.08C172.154 144.612 171.613 143.926 171.325 144.176C170.9 144.55 171.457 145.987 171.457 145.987L169.607 145.321L164.127 151.662C164.127 151.662 161.255 148.673 161.114 148.434C160.973 148.196 156.164 150.171 157.268 155.973C157.268 155.973 160.333 160.412 164.438 161.439C168.543 162.465 173.154 148.933 173.154 148.933C173.154 148.933 174.51 146.526 175.95 146.176C177.391 145.827 177.456 141.376 176.675 141.041Z" fill="#FEB8C0"/>
<path d="M128.096 209.534L135.821 214.899L142.525 207.239L135.297 201.463L128.096 209.534ZM142.155 207.272L135.782 214.558L128.482 209.489L135.329 201.815L142.155 207.272Z" fill="black"/>
<path d="M137.97 212.724C137.85 212.308 137.511 211.938 137.079 211.924C135.038 211.86 132.207 212.308 131.325 207.362C131.261 207.003 130.832 206.839 130.519 207.024L125.23 209.939L140.764 227.447L140.892 227.333C141.389 226.892 141.751 226.319 141.936 225.681C142.121 225.043 142.121 224.365 141.937 223.726L137.97 212.724Z" fill="#3C5CC9"/>
<path d="M149.716 167.239C146.801 172.272 143.951 178.829 142.053 183.812C140.737 187.267 139.88 189.966 139.773 190.88C139.337 194.636 130.877 201.639 130.877 201.639C130.877 201.639 128.698 205.345 133.786 209.716C138.874 214.087 142.34 213.777 142.34 213.777C142.34 213.777 143.771 211.376 145.749 207.847C149.323 201.469 154.684 191.4 156.617 185.137C156.732 184.764 156.835 184.405 156.924 184.062C159.355 174.734 158.767 160.741 158.767 160.741C156.589 157.598 153.108 161.385 149.716 167.239Z" fill="#0E0054"/>
<g opacity="0.6">
<path d="M142.054 183.812C143.083 188.876 143.724 195.661 144.622 199.101C145.318 201.778 145.191 206.152 144.949 209.271C148.522 202.892 154.684 191.403 156.615 185.139C153.187 178.31 152.801 168.235 151.555 164.45C148.642 169.483 143.952 178.829 142.054 183.812Z" fill="black"/>
</g>
<path d="M149.976 221.017C149.976 221.017 165.135 221.764 167.613 213.991C158.795 213.991 149.102 216.139 149.976 221.017Z" fill="black"/>
<path d="M151.013 214.764L154.731 224.637L162.837 220.4L159.247 211.141L151.013 214.764Z" fill="#FEB8C0"/>
<path d="M173.654 219.135L162.064 217.548C161.64 217.462 161.155 217.591 160.942 217.968C159.937 219.744 159.019 222.455 154.232 220.95C153.884 220.841 153.54 221.143 153.559 221.507L153.688 227.544L176.403 221.903L176.361 221.737C176.202 221.092 175.863 220.505 175.384 220.044C174.905 219.584 174.305 219.268 173.654 219.135Z" fill="#3C5CC9"/>
<path d="M152.455 173.57C152.455 169.78 152.6 163.512 152.6 163.512L139.78 160.743C139.78 160.743 137.503 170.65 139.78 176.246C142.056 181.841 146.918 200.104 147.792 207.17C148.667 214.236 149.978 221.016 149.978 221.016C149.978 221.016 154.109 217.003 160.717 216.129C167.324 215.255 167.615 213.99 167.615 213.99C167.615 213.99 158.337 197.202 157.295 193.401C156.253 189.601 152.455 177.36 152.455 173.57Z" fill="#180070"/>
<path d="M114.482 224.988C114.056 224.868 113.604 224.877 113.184 225.014C112.764 225.151 112.393 225.409 112.12 225.757C111.846 226.104 111.682 226.525 111.647 226.966C111.613 227.406 111.71 227.847 111.926 228.233C112.143 228.619 112.468 228.932 112.863 229.132C113.257 229.332 113.701 229.411 114.14 229.359C114.579 229.307 114.993 229.125 115.329 228.838C115.665 228.551 115.908 228.17 116.028 227.744C116.188 227.174 116.115 226.563 115.825 226.046C115.535 225.529 115.052 225.149 114.482 224.988Z" fill="#434B54"/>
<path d="M133.019 230.203C132.593 230.083 132.142 230.092 131.721 230.229C131.301 230.366 130.93 230.624 130.657 230.972C130.383 231.319 130.219 231.74 130.185 232.18C130.15 232.621 130.247 233.062 130.463 233.448C130.68 233.834 131.006 234.146 131.4 234.347C131.794 234.547 132.238 234.626 132.677 234.574C133.117 234.522 133.53 234.34 133.866 234.053C134.202 233.765 134.445 233.385 134.565 232.959C134.725 232.389 134.652 231.778 134.362 231.261C134.072 230.744 133.589 230.364 133.019 230.203Z" fill="#434B54"/>
<path d="M142.608 178.025L137.561 195.971L138.668 196.282L143.715 178.336L142.608 178.025Z" fill="#D8D8D8"/>
<path d="M133.094 175.35L128.046 193.296L129.153 193.607L134.201 175.661L133.094 175.35Z" fill="#D8D8D8"/>
<path d="M137.519 193.919L130.269 191.88C130.01 191.807 129.733 191.84 129.499 191.971C129.264 192.103 129.091 192.322 129.018 192.581C128.946 192.84 128.979 193.117 129.11 193.352C129.242 193.587 129.461 193.759 129.72 193.832L136.969 195.872C137.098 195.911 137.234 195.924 137.368 195.911C137.503 195.897 137.633 195.856 137.751 195.792C137.87 195.727 137.974 195.639 138.058 195.533C138.142 195.428 138.204 195.306 138.241 195.177C138.277 195.047 138.288 194.911 138.271 194.777C138.254 194.643 138.211 194.514 138.144 194.397C138.077 194.28 137.987 194.177 137.879 194.095C137.772 194.013 137.649 193.954 137.519 193.92V193.919Z" fill="#434B54"/>
<path d="M144.041 176.26L133.913 173.411C133.88 173.402 133.846 173.399 133.813 173.403C133.78 173.407 133.747 173.418 133.718 173.434C133.688 173.45 133.662 173.472 133.642 173.499C133.621 173.525 133.605 173.556 133.596 173.588L133.099 175.359L143.721 178.347L144.219 176.577C144.228 176.545 144.231 176.511 144.227 176.477C144.223 176.444 144.212 176.411 144.196 176.382C144.179 176.352 144.157 176.326 144.13 176.306C144.104 176.285 144.073 176.269 144.041 176.26Z" fill="#75A1DD"/>
<path d="M144.722 197.144L122.443 190.872C121.759 190.68 121.028 190.767 120.409 191.115C119.79 191.462 119.334 192.041 119.142 192.724L110.789 222.416C110.693 222.754 110.666 223.108 110.707 223.457C110.749 223.806 110.858 224.143 111.03 224.45C111.202 224.756 111.433 225.026 111.709 225.243C111.985 225.461 112.301 225.622 112.639 225.717L134.919 231.985C135.602 232.177 136.334 232.09 136.953 231.743C137.572 231.396 138.027 230.817 138.22 230.134L146.573 200.442C146.765 199.759 146.678 199.028 146.331 198.409C145.983 197.791 145.405 197.336 144.722 197.144Z" fill="#75A1DD"/>
<path d="M146.249 197.572L138.742 195.46C138.604 195.421 138.46 195.41 138.317 195.426C138.175 195.443 138.037 195.488 137.912 195.558C137.787 195.628 137.677 195.722 137.589 195.834C137.5 195.947 137.434 196.076 137.396 196.214L128.183 228.961C128.144 229.099 128.132 229.243 128.149 229.385C128.166 229.528 128.211 229.665 128.281 229.79C128.351 229.915 128.445 230.025 128.557 230.114C128.67 230.203 128.799 230.268 128.937 230.307L136.444 232.419C136.582 232.458 136.726 232.47 136.868 232.453C137.011 232.436 137.148 232.392 137.273 232.321C137.398 232.251 137.508 232.157 137.597 232.045C137.686 231.932 137.751 231.803 137.79 231.665L147 198.917C147.079 198.639 147.043 198.341 146.903 198.089C146.762 197.837 146.527 197.651 146.249 197.572Z" fill="#507EB5"/>
<path d="M132.449 201.585L125.782 225.271C126.355 225.432 126.936 225.156 127.075 224.655L133.228 202.784C133.369 202.282 133.019 201.746 132.449 201.585Z" fill="#507EB5"/>
<path d="M126.654 199.955L119.987 223.641C120.56 223.802 121.141 223.526 121.28 223.026L127.434 201.154C127.577 200.653 127.227 200.117 126.654 199.955Z" fill="#507EB5"/>
<path d="M120.863 198.326L114.196 222.012C114.769 222.173 115.35 221.897 115.489 221.397L121.643 199.526C121.786 199.024 121.435 198.488 120.863 198.326Z" fill="#507EB5"/>
<path d="M131.039 202.168L124.885 224.04C124.744 224.54 125.094 225.077 125.667 225.238C125.758 225.263 125.851 225.277 125.945 225.279C125.533 225.051 125.304 224.609 125.423 224.19L131.576 202.318C131.694 201.899 132.119 201.642 132.59 201.662C132.509 201.615 132.423 201.578 132.333 201.551C131.757 201.392 131.179 201.667 131.039 202.168Z" fill="#E0E0E0"/>
<path d="M125.361 200.571L119.207 222.442C119.066 222.943 119.417 223.48 119.989 223.641C120.08 223.665 120.174 223.679 120.268 223.682C119.856 223.454 119.627 223.013 119.745 222.593L125.899 200.721C126.016 200.302 126.441 200.045 126.912 200.065C126.831 200.019 126.745 199.982 126.656 199.955C126.081 199.795 125.502 200.07 125.361 200.571Z" fill="#E0E0E0"/>
<path d="M119.57 198.942L113.416 220.813C113.275 221.314 113.626 221.851 114.198 222.012C114.289 222.037 114.383 222.051 114.477 222.053C114.065 221.825 113.836 221.384 113.954 220.964L120.108 199.093C120.226 198.673 120.651 198.416 121.122 198.436C121.041 198.39 120.955 198.353 120.865 198.326C120.29 198.166 119.711 198.441 119.57 198.942Z" fill="#E0E0E0"/>
<path d="M136.387 150.346C136.387 150.346 134.011 157.192 133.805 161.523C133.599 165.853 135.158 172.346 134.949 174.512C134.739 176.678 133.274 178.017 134.417 179.666C135.56 181.316 135.561 179.769 137.109 180.491C138.658 181.213 140.099 180.078 140.717 179.46C141.336 178.842 141.714 179.328 141.851 178.532C141.988 177.736 141.027 177.398 141.027 177.398C141.027 177.398 140.912 174.875 141.865 175.364C142.817 175.852 141.544 173.79 140.614 173.893C140.101 170.903 141.48 157.914 142.779 154.719C141.808 154.1 136.387 150.346 136.387 150.346Z" fill="#FEB8C0"/>
<path d="M137.183 147.723L135.178 150.751C137.054 152.206 138.705 153.93 140.077 155.868C140.883 157.006 141.591 158.216 142.47 159.298C142.68 159.555 143.005 159.833 143.303 159.689C143.442 159.625 143.527 159.478 143.599 159.341C144.775 157.086 144.541 154.228 143.234 152.047C141.926 149.866 139.648 148.353 137.183 147.723Z" fill="#F98C8F"/>
<path d="M159.013 129.625C158.066 128.517 156.462 127.894 153.357 126.997C150.252 126.099 148.392 127.689 148.392 127.689C148.192 126.028 144.353 124.898 142.032 128.174C139.336 131.982 143.198 132.951 141.741 138.283C140.283 143.614 147.609 141.872 147.609 141.872C147.609 141.872 146.769 140.987 147.134 140.779C148.373 142.233 149.539 141.817 149.539 141.817C149.539 141.817 156.317 137.802 157.334 138.067C158.352 138.331 159.887 136.832 159.013 135.24C158.139 133.648 159.961 130.733 159.013 129.625Z" fill="#8E2332"/>
<path d="M148.422 137.859C147.154 137.15 145.906 135.389 145.928 133.935C145.951 132.481 146.264 131 147.06 129.782C147.204 129.561 147.406 129.328 147.67 129.334L147.674 129.031L147.694 129.147C147.805 128.789 147.597 128.406 147.328 128.146C146.376 127.229 144.688 127.424 143.756 128.363C142.825 129.301 142.583 130.766 142.853 132.06C143.022 132.872 143.371 133.654 143.383 134.482C143.399 135.576 142.831 136.58 142.344 137.559C141.856 138.539 141.424 139.652 141.724 140.7C142.115 142.068 143.59 142.816 144.974 143.143C145.984 143.382 149.718 141.773 150.753 141.738C149.773 140.198 150.172 138.836 148.422 137.859Z" fill="#751627"/>
<path d="M159.85 130.577C159.445 129.953 158.752 129.589 158.082 129.266C156.968 128.726 155.827 128.221 154.621 127.938C153.414 127.655 152.133 127.605 150.95 127.97C151.511 128.132 152.086 128.302 152.547 128.66C153.009 129.017 153.335 129.612 153.207 130.182C153.2 130.237 153.181 130.29 153.152 130.338C153.123 130.385 153.085 130.427 153.04 130.459C152.904 130.539 152.731 130.472 152.591 130.405L148.681 128.573C149.398 130.121 150.847 131.451 150.786 133.156C150.779 133.319 150.749 133.501 150.618 133.599C150.471 133.71 150.261 133.667 150.089 133.599C149.366 133.317 148.807 132.706 148.452 132.016C148.097 131.325 147.928 130.555 147.804 129.789C147.387 131.372 146.98 132.964 146.816 134.592C146.653 136.221 147.886 137.845 149.157 139.012C149.491 139.317 150.504 138.835 150.754 139.21C151.298 140.019 152.123 139.961 153.062 140.21L148.994 145.124C150.587 144.52 152.217 144.02 153.874 143.628C155.116 143.333 156.402 143.087 157.493 142.426C159.107 141.448 160.098 139.652 160.468 137.802C160.837 135.952 160.65 134.037 160.35 132.175C160.262 131.621 160.156 131.05 159.85 130.577Z" fill="#751627"/>
<path d="M149.773 141.064C149.773 141.064 147.234 141.469 144.656 141.47C139.954 141.47 140.759 142.936 138.281 145.997C135.802 149.058 135.109 150.613 135.109 150.613L141.959 155.131L141.048 164.022C141.048 164.022 142.579 164.427 144.631 164.884C147.427 165.503 151.188 166.22 153.358 166.136C157.118 165.99 159.295 165.188 159.295 165.188V155.936L162.132 152.78L163.749 150.986C163.749 150.986 161.344 146.668 160.178 144.782C159.012 142.896 149.773 141.064 149.773 141.064Z" fill="#2F19BB"/>
<path d="M154 130.919H153.967C153.511 131.953 152.979 132.974 152.201 133.779C151.441 134.567 150.413 135.133 149.338 135.138C149.324 135.129 149.312 135.118 149.297 135.107C148.364 134.459 147.182 134.584 146.649 135.388C146.116 136.191 146.448 137.367 147.381 138.016C147.893 138.373 148.488 138.494 149.002 138.4C148.866 139.362 148.554 141.129 148.083 141.572C149.622 143.9 149.923 144.928 151.574 144.757C153.225 144.586 153.892 142.031 153.892 142.031L153.36 141.64V141.473L153.337 140.339L154.15 140.476C156.067 140.476 157.797 138.865 157.797 136.898V133.522C157.003 133.422 156.244 133.133 155.583 132.68C154.923 132.227 154.38 131.624 154 130.919Z" fill="#FEB8C0"/>
<path d="M151.093 139.014C151.093 140.334 152.291 141.075 153.358 141.473L153.334 140.338C153.334 140.338 151.504 139.516 151.093 139.014Z" fill="#F98C8F"/>
<path d="M151.616 135.156C151.409 135.197 151.219 135.298 151.069 135.447C150.919 135.595 150.817 135.785 150.775 135.992C150.733 136.198 150.754 136.413 150.834 136.608C150.914 136.803 151.05 136.97 151.225 137.088C151.4 137.206 151.606 137.269 151.817 137.27C152.028 137.271 152.234 137.209 152.41 137.092C152.586 136.976 152.723 136.81 152.805 136.615C152.886 136.42 152.908 136.206 152.867 135.999C152.813 135.721 152.651 135.476 152.416 135.319C152.182 135.161 151.894 135.102 151.616 135.156Z" fill="#F7727C"/>
<path d="M153.026 132.731C152.961 132.711 152.895 132.695 152.828 132.684C152.763 132.673 152.697 132.666 152.631 132.663C152.494 132.656 152.358 132.669 152.226 132.703C152.087 132.737 151.956 132.798 151.841 132.883C151.725 132.969 151.626 133.074 151.547 133.195C151.544 133.199 151.542 133.203 151.539 133.207C151.526 133.229 151.517 133.253 151.513 133.279C151.509 133.304 151.51 133.33 151.516 133.355C151.522 133.38 151.533 133.403 151.549 133.424C151.564 133.445 151.583 133.462 151.605 133.475C151.627 133.489 151.651 133.497 151.676 133.501C151.702 133.505 151.728 133.504 151.753 133.498C151.777 133.492 151.801 133.481 151.822 133.466C151.842 133.451 151.86 133.432 151.873 133.41L151.882 133.394C151.928 133.307 151.989 133.229 152.062 133.163C152.136 133.096 152.224 133.044 152.319 133.012C152.418 132.977 152.523 132.957 152.629 132.953C152.683 132.949 152.738 132.949 152.793 132.953C152.846 132.956 152.899 132.963 152.951 132.974H152.961C152.993 132.98 153.025 132.973 153.052 132.956C153.08 132.938 153.099 132.911 153.107 132.88C153.115 132.849 153.111 132.816 153.096 132.788C153.081 132.759 153.055 132.737 153.025 132.727L153.026 132.731Z" fill="#6B2E00"/>
<path d="M157.275 132.783C157.223 132.742 157.168 132.704 157.112 132.67C156.996 132.598 156.869 132.545 156.737 132.511C156.599 132.475 156.455 132.466 156.314 132.486C156.172 132.506 156.034 132.551 155.907 132.619L155.894 132.626C155.872 132.639 155.852 132.656 155.837 132.676C155.821 132.697 155.81 132.72 155.803 132.745C155.797 132.769 155.795 132.795 155.799 132.821C155.802 132.846 155.811 132.871 155.823 132.893C155.836 132.915 155.854 132.934 155.874 132.95C155.894 132.965 155.918 132.977 155.942 132.983C155.967 132.99 155.993 132.991 156.018 132.988C156.044 132.984 156.068 132.976 156.09 132.963L156.106 132.954C156.188 132.9 156.279 132.86 156.374 132.837C156.472 132.814 156.573 132.81 156.671 132.827C156.776 132.844 156.877 132.876 156.972 132.923C157.021 132.947 157.069 132.974 157.115 133.004C157.159 133.033 157.202 133.065 157.243 133.099L157.251 133.106C157.276 133.126 157.308 133.137 157.34 133.134C157.373 133.132 157.403 133.118 157.425 133.094C157.447 133.07 157.46 133.039 157.46 133.007C157.46 132.974 157.448 132.943 157.426 132.919C157.379 132.87 157.329 132.825 157.275 132.783Z" fill="#6B2E00"/>
<path d="M154.756 136.11C154.833 136.42 154.929 136.791 155.576 136.581C156.456 136.295 155.219 134.607 155.219 134.607C154.765 134.299 154.68 135.8 154.756 136.11Z" fill="#F98C8F"/>
<path d="M153.356 134.058C153.146 133.872 152.843 133.933 152.684 134.195C152.524 134.456 152.562 134.819 152.771 135.005C152.981 135.191 153.284 135.129 153.444 134.868C153.603 134.606 153.566 134.244 153.356 134.058Z" fill="#6B2E00"/>
<path d="M156.665 134.163C156.446 133.989 156.149 134.067 156.002 134.337C155.855 134.606 155.914 134.967 156.13 135.141C156.347 135.315 156.647 135.238 156.794 134.968C156.942 134.698 156.885 134.338 156.665 134.163Z" fill="#6B2E00"/>
<path d="M148.761 135.945C148.606 135.793 148.401 135.702 148.184 135.689C147.977 135.677 147.772 135.739 147.607 135.866C147.789 135.839 147.974 135.846 148.153 135.888C148.315 135.929 148.463 136.012 148.582 136.129C148.706 136.254 148.811 136.395 148.893 136.549C148.984 136.708 149.062 136.879 149.154 137.054C149.166 136.856 149.14 136.657 149.079 136.469C149.017 136.271 148.908 136.091 148.761 135.945Z" fill="#F98C8F"/>
<path d="M148.32 136.114C148.261 136.135 148.206 136.168 148.16 136.21C148.112 136.255 148.075 136.31 148.049 136.37C148.004 136.484 147.998 136.609 148.034 136.726C148.063 136.835 148.125 136.933 148.211 137.005C148.221 136.893 148.224 136.795 148.233 136.704C148.239 136.624 148.257 136.544 148.286 136.469C148.314 136.4 148.358 136.339 148.414 136.291C148.491 136.229 148.57 136.172 148.653 136.119C148.546 136.078 148.428 136.076 148.32 136.114Z" fill="#F98C8F"/>
<g opacity="0.5">
<path d="M159.296 155.93L162.134 152.774C161.481 152.157 160.569 151.36 159.295 150.346C160.712 153.771 159.355 155.845 159.296 155.93Z" fill="#6D90FF"/>
</g>
<g opacity="0.5">
<path d="M141.049 164.022C141.049 164.022 142.58 164.427 144.632 164.884V150.346L141.96 155.131L141.049 164.022Z" fill="#6D90FF"/>
</g>
<path d="M96.4536 107.431L64.1571 107.455C63.8135 107.455 63.4839 107.319 63.2409 107.077C62.9979 106.834 62.8613 106.505 62.8613 106.162C62.8608 105.992 62.8938 105.824 62.9584 105.667C63.023 105.509 63.118 105.367 63.238 105.246C63.3579 105.126 63.5004 105.03 63.6575 104.964C63.8145 104.899 63.9829 104.865 64.153 104.864L96.4495 104.844C96.7928 104.844 97.1222 104.979 97.3658 105.221C97.6093 105.462 97.7472 105.79 97.7494 106.133C97.7494 106.477 97.613 106.806 97.3701 107.049C97.1272 107.293 96.7977 107.43 96.4536 107.431Z" fill="#F0F0F0"/>
</svg>
