<svg width="311" height="251" viewBox="0 0 311 251" fill="none" xmlns="http://www.w3.org/2000/svg">
<rect width="311" height="250" transform="translate(0 0.666992)" fill="#595959"/>
<g clip-path="url(#clip0_2507_107509)">
<path d="M257.154 205.585C255.011 205.84 243.936 210.123 242.139 210.747L242.061 210.775L241.851 210.853C231.155 214.816 226.219 214.073 222.027 212.73C210.665 209.108 197.25 180.068 178.833 183.086C171.017 184.363 171.429 199.553 166.529 203.096L166.427 203.183C165.727 203.692 165.04 204.213 164.394 204.747C154.822 211.231 145.286 202.78 142.551 200.867C142.349 200.715 142.139 199.511 141.938 199.36L141.765 199.228C129.774 190.457 102.274 181.234 83.8898 183.418C52.3338 187.151 48.0186 224.68 48.0186 224.68H284.144C280.441 215.884 274.801 203.495 257.154 205.585Z" fill="#D7D7D7"/>
<path d="M304.708 159.843H288.056C287.886 159.844 287.717 159.811 287.56 159.746C287.402 159.682 287.259 159.587 287.138 159.467C287.018 159.347 286.922 159.205 286.856 159.048C286.79 158.892 286.756 158.723 286.756 158.554C286.756 158.21 286.892 157.881 287.135 157.637C287.378 157.394 287.708 157.257 288.052 157.256L304.704 157.235C304.874 157.234 305.043 157.267 305.2 157.331C305.357 157.396 305.501 157.49 305.621 157.61C305.742 157.73 305.837 157.873 305.902 158.03C305.967 158.187 306 158.355 306 158.525C306.002 158.696 305.971 158.867 305.907 159.026C305.844 159.185 305.749 159.33 305.629 159.453C305.509 159.575 305.366 159.673 305.208 159.74C305.05 159.807 304.88 159.842 304.708 159.843Z" fill="#F0F0F0"/>
<path d="M107.169 88.465L74.873 88.4896C74.5293 88.4896 74.1997 88.3533 73.9567 88.1108C73.7137 87.8682 73.5772 87.5392 73.5772 87.1961C73.5766 87.0262 73.6096 86.8579 73.6742 86.7008C73.7388 86.5436 73.8338 86.4007 73.9538 86.2802C74.0737 86.1597 74.2163 86.064 74.3733 85.9985C74.5303 85.933 74.6987 85.899 74.8688 85.8985L107.165 85.8779C107.509 85.8779 107.838 86.0135 108.082 86.2551C108.325 86.4967 108.463 86.8246 108.465 87.1674C108.465 87.5108 108.329 87.8402 108.086 88.0835C107.843 88.3267 107.513 88.4639 107.169 88.465Z" fill="#F0F0F0"/>
<path d="M282.947 107.552H280.894C280.353 107.552 279.915 107.989 279.915 108.529V110.451C279.915 110.991 280.353 111.428 280.894 111.428H282.947C283.488 111.428 283.926 110.991 283.926 110.451V108.529C283.926 107.989 283.488 107.552 282.947 107.552Z" fill="#F0F0F0"/>
<path d="M37.6255 173.322L35.5728 173.325C35.0321 173.326 34.5944 173.764 34.5951 174.304L34.5978 176.225C34.5986 176.765 35.0375 177.202 35.5782 177.201L37.6309 177.198C38.1717 177.198 38.6094 176.759 38.6086 176.22L38.6059 174.298C38.6052 173.758 38.1662 173.321 37.6255 173.322Z" fill="#F0F0F0"/>
<path d="M237.236 104.345C245.354 104.345 251.934 97.7756 251.934 89.6723C251.934 81.569 245.354 75 237.236 75C229.119 75 222.538 81.569 222.538 89.6723C222.538 97.7756 229.119 104.345 237.236 104.345Z" fill="#D7D7D7"/>
<path d="M274.016 139.311H263.448C262.771 139.31 262.122 139.041 261.644 138.563C261.166 138.085 260.897 137.437 260.897 136.761C260.897 136.426 260.964 136.095 261.092 135.785C261.22 135.476 261.408 135.195 261.646 134.958C261.883 134.721 262.165 134.533 262.474 134.405C262.784 134.277 263.117 134.211 263.452 134.211H274.02C274.698 134.211 275.347 134.48 275.826 134.958C276.306 135.436 276.575 136.085 276.575 136.761C276.575 137.096 276.508 137.428 276.38 137.738C276.251 138.048 276.063 138.329 275.825 138.566C275.587 138.803 275.305 138.99 274.995 139.118C274.684 139.246 274.352 139.312 274.016 139.311Z" fill="#2F19BB"/>
<path d="M266.583 136.765C266.583 136.894 266.546 137.021 266.474 137.129C266.403 137.237 266.301 137.321 266.182 137.371C266.062 137.421 265.931 137.435 265.803 137.41C265.676 137.385 265.559 137.323 265.467 137.232C265.376 137.141 265.313 137.025 265.287 136.898C265.262 136.771 265.274 136.64 265.324 136.52C265.373 136.401 265.457 136.298 265.565 136.227C265.672 136.155 265.799 136.116 265.928 136.116C266.101 136.116 266.267 136.184 266.39 136.306C266.512 136.428 266.581 136.593 266.583 136.765Z" fill="white"/>
<path d="M269.388 136.756C269.389 136.885 269.351 137.012 269.28 137.12C269.209 137.227 269.107 137.312 268.988 137.362C268.869 137.412 268.738 137.426 268.611 137.402C268.484 137.377 268.367 137.316 268.275 137.225C268.183 137.134 268.119 137.018 268.093 136.892C268.067 136.765 268.08 136.634 268.128 136.514C268.177 136.395 268.26 136.292 268.367 136.22C268.474 136.147 268.601 136.108 268.73 136.107C268.816 136.107 268.901 136.123 268.981 136.156C269.06 136.188 269.133 136.236 269.194 136.296C269.255 136.356 269.303 136.428 269.337 136.507C269.37 136.586 269.388 136.671 269.388 136.756Z" fill="white"/>
<path d="M272.19 136.748C272.191 136.878 272.153 137.004 272.082 137.112C272.01 137.22 271.908 137.305 271.789 137.355C271.67 137.405 271.538 137.418 271.411 137.393C271.284 137.369 271.167 137.307 271.075 137.216C270.983 137.125 270.92 137.008 270.895 136.881C270.869 136.755 270.882 136.623 270.931 136.504C270.981 136.384 271.064 136.282 271.172 136.21C271.28 136.138 271.406 136.1 271.536 136.1C271.622 136.099 271.707 136.115 271.787 136.147C271.866 136.179 271.938 136.227 271.999 136.287C272.06 136.347 272.108 136.419 272.141 136.499C272.174 136.578 272.191 136.663 272.19 136.748Z" fill="white"/>
<path d="M76.2679 120.08H52.6965C51.3675 120.08 50.29 121.156 50.29 122.482V143.097C50.29 144.423 51.3675 145.499 52.6965 145.499H76.2679C77.597 145.499 78.6744 144.423 78.6744 143.097V122.482C78.6744 121.156 77.597 120.08 76.2679 120.08Z" fill="white"/>
<path d="M64.4863 142.453L71.7799 149.327C71.8609 149.403 71.9622 149.453 72.0715 149.472C72.1808 149.492 72.2934 149.479 72.3954 149.435C72.4975 149.392 72.5846 149.319 72.6462 149.227C72.7079 149.135 72.7413 149.027 72.7425 148.916V140.379L64.4863 142.453Z" fill="white"/>
<path d="M55.2336 124.783C57.8345 122.187 57.8345 117.977 55.2336 115.381C52.6326 112.785 48.4157 112.785 45.8148 115.381C43.2139 117.977 43.2139 122.187 45.8148 124.783C48.4157 127.379 52.6326 127.379 55.2336 124.783Z" fill="#2F19BB"/>
<path d="M47.5625 120.413L50.0554 122.232L53.0213 118.471" stroke="white" stroke-width="2.79" stroke-linecap="round" stroke-linejoin="round"/>
<path d="M70.434 131.201L69.4467 131.028C69.3317 130.597 69.1602 130.183 68.9366 129.796L69.5126 128.975C69.6148 128.829 69.6622 128.652 69.6464 128.475C69.6306 128.298 69.5526 128.131 69.4262 128.006L68.8379 127.419C68.7098 127.296 68.5425 127.221 68.3651 127.209C68.1878 127.196 68.0116 127.246 67.8671 127.349L67.0444 127.924C66.6572 127.701 66.2423 127.529 65.8103 127.415L65.6416 126.409C65.6112 126.235 65.5216 126.078 65.3881 125.964C65.2546 125.849 65.0854 125.784 64.9094 125.78H64.0661C63.887 125.78 63.7135 125.842 63.5764 125.957C63.4393 126.073 63.3475 126.232 63.3174 126.409L63.1446 127.39C62.7127 127.505 62.2978 127.676 61.9105 127.899L61.0878 127.349C60.9417 127.247 60.7642 127.2 60.5866 127.215C60.409 127.231 60.2426 127.309 60.1169 127.435L59.5246 128.022C59.3988 128.148 59.3213 128.314 59.3056 128.491C59.2898 128.668 59.3367 128.845 59.4382 128.992L60.0141 129.813C59.7905 130.199 59.619 130.613 59.504 131.045L58.5208 131.217C58.3447 131.247 58.1851 131.339 58.0705 131.476C57.956 131.613 57.8939 131.786 57.8955 131.965V132.786C57.8939 132.964 57.956 133.137 58.0705 133.274C58.1851 133.411 58.3447 133.503 58.5208 133.533L59.504 133.706C59.6201 134.137 59.7915 134.551 60.0141 134.938L59.4382 135.759C59.3367 135.905 59.2898 136.082 59.3056 136.259C59.3213 136.436 59.3988 136.602 59.5246 136.728L60.1498 137.323C60.2761 137.449 60.4427 137.526 60.6202 137.541C60.7978 137.556 60.9751 137.508 61.1207 137.406L61.9434 136.831C62.3307 137.054 62.7456 137.225 63.1775 137.34L63.3503 138.321C63.3795 138.497 63.4705 138.657 63.6069 138.772C63.7433 138.887 63.9162 138.95 64.0948 138.95H64.9464C65.125 138.95 65.2979 138.887 65.4343 138.772C65.5707 138.657 65.6617 138.497 65.691 138.321L65.8637 137.34C66.2956 137.225 66.7106 137.054 67.0978 136.831L67.9206 137.393C68.0666 137.495 68.2441 137.543 68.4217 137.527C68.5993 137.511 68.7657 137.433 68.8914 137.307L69.4797 136.72C69.6061 136.594 69.6841 136.428 69.6999 136.251C69.7157 136.074 69.6683 135.897 69.566 135.751L68.9901 134.929C69.2134 134.543 69.3849 134.129 69.5002 133.697L70.4875 133.525C70.6633 133.495 70.8229 133.404 70.938 133.268C71.0532 133.132 71.1165 132.96 71.1169 132.782V131.96C71.117 131.772 71.0473 131.59 70.9212 131.45C70.7952 131.31 70.6217 131.221 70.434 131.201ZM64.4815 134.613C64.0355 134.614 63.5993 134.483 63.228 134.236C62.8567 133.989 62.5672 133.638 62.3959 133.227C62.2247 132.816 62.1794 132.363 62.2659 131.926C62.3525 131.49 62.5668 131.088 62.8819 130.773C63.197 130.458 63.5987 130.243 64.0361 130.156C64.4735 130.069 64.927 130.113 65.3391 130.283C65.7513 130.454 66.1036 130.742 66.3515 131.112C66.5994 131.482 66.7317 131.918 66.7317 132.363C66.7317 132.959 66.4948 133.531 66.0729 133.953C65.651 134.375 65.0787 134.612 64.4815 134.613Z" fill="#0C0055"/>
<path d="M113.628 220.068C113.628 220.674 113.748 221.274 113.98 221.833C114.212 222.393 114.553 222.902 114.982 223.33C115.412 223.758 115.922 224.098 116.483 224.329C117.044 224.561 117.645 224.68 118.252 224.679H209.863C211.088 224.679 212.264 224.193 213.13 223.329C213.996 222.464 214.483 221.291 214.483 220.068V137.528H113.628V220.068Z" fill="#0C0055"/>
<path d="M209.888 111.379H118.264C117.656 111.377 117.054 111.494 116.491 111.725C115.929 111.956 115.418 112.295 114.987 112.724C114.556 113.152 114.214 113.661 113.981 114.222C113.748 114.782 113.628 115.383 113.628 115.99V137.553H214.495V115.99C214.495 114.77 214.01 113.598 213.147 112.734C212.283 111.869 211.111 111.382 209.888 111.379Z" fill="#0C0055"/>
<path d="M106.376 220.068C106.376 221.291 106.863 222.464 107.729 223.329C108.595 224.193 109.77 224.679 110.996 224.679H202.607C203.214 224.68 203.815 224.561 204.376 224.329C204.937 224.098 205.447 223.758 205.876 223.33C206.306 222.902 206.647 222.393 206.879 221.833C207.111 221.274 207.231 220.674 207.231 220.068V137.528H106.376V220.068Z" fill="white"/>
<path d="M202.607 111.354H110.996C109.77 111.354 108.595 111.84 107.729 112.705C106.863 113.57 106.376 114.743 106.376 115.966V137.529H207.231V115.966C207.231 115.36 207.111 114.76 206.879 114.2C206.647 113.641 206.306 113.132 205.876 112.704C205.447 112.275 204.937 111.936 204.376 111.704C203.815 111.473 203.214 111.354 202.607 111.354Z" fill="#2F19BB"/>
<path d="M134.39 130.371C137.32 130.371 139.696 127.999 139.696 125.074C139.696 122.148 137.32 119.776 134.39 119.776C131.459 119.776 129.083 122.148 129.083 125.074C129.083 127.999 131.459 130.371 134.39 130.371Z" fill="#0C0055"/>
<path d="M133.271 122.224C132.539 122.224 131.837 121.933 131.319 121.417C130.802 120.9 130.511 120.199 130.511 119.468V107.97C130.498 107.319 130.711 106.683 131.113 106.171C131.516 105.658 132.083 105.3 132.72 105.157C133.12 105.077 133.533 105.087 133.93 105.185C134.326 105.283 134.696 105.467 135.012 105.725C135.329 105.982 135.584 106.306 135.76 106.674C135.937 107.042 136.029 107.444 136.032 107.851V111.35H140.701V108.118C140.701 104.172 137.722 100.726 133.777 100.455C132.762 100.387 131.743 100.527 130.784 100.867C129.826 101.207 128.947 101.741 128.203 102.433C127.458 103.126 126.865 103.964 126.458 104.895C126.051 105.827 125.84 106.831 125.838 107.847V119.234C125.838 123.107 128.717 126.507 132.568 126.86C132.978 126.896 133.391 126.896 133.802 126.86C136.743 126.659 136.501 122.215 133.551 122.215L133.271 122.224Z" fill="white"/>
<path d="M176.703 130.371C179.634 130.371 182.01 127.999 182.01 125.074C182.01 122.148 179.634 119.776 176.703 119.776C173.772 119.776 171.396 122.148 171.396 125.074C171.396 127.999 173.772 130.371 176.703 130.371Z" fill="#0C0055"/>
<path d="M175.584 122.224C174.852 122.224 174.15 121.934 173.632 121.417C173.114 120.9 172.824 120.199 172.824 119.468V107.97C172.811 107.319 173.024 106.684 173.427 106.172C173.829 105.659 174.396 105.301 175.033 105.158C175.433 105.078 175.846 105.087 176.242 105.185C176.638 105.283 177.008 105.468 177.325 105.725C177.641 105.983 177.897 106.307 178.073 106.674C178.249 107.042 178.342 107.444 178.344 107.851V111.35H183.017V108.118C183.017 104.172 180.039 100.727 176.094 100.456C175.078 100.387 174.059 100.526 173.1 100.866C172.14 101.206 171.261 101.739 170.517 102.432C169.772 103.125 169.178 103.963 168.771 104.895C168.364 105.826 168.153 106.831 168.15 107.847V119.234C168.15 123.107 171.03 126.507 174.88 126.86C175.291 126.896 175.704 126.896 176.114 126.86C179.056 126.659 178.813 122.216 175.864 122.216L175.584 122.224Z" fill="white"/>
<path d="M136.611 150.013H121.526V165.071H136.611V150.013Z" fill="#6D90FF"/>
<path d="M136.611 172.183H121.526V187.241H136.611V172.183Z" fill="#6D90FF"/>
<path d="M136.611 194.354H121.526V209.412H136.611V194.354Z" fill="#6D90FF"/>
<path d="M162.207 150.013H147.122V165.071H162.207V150.013Z" fill="#2F19BB"/>
<path d="M162.207 172.183H147.122V187.241H162.207V172.183Z" fill="#6D90FF"/>
<path d="M162.207 194.354H147.122V209.412H162.207V194.354Z" fill="#6D90FF"/>
<path d="M187.802 150.013H172.717V165.071H187.802V150.013Z" fill="#2F19BB"/>
<path d="M187.802 172.183H172.717V187.241H187.802V172.183Z" fill="#2F19BB"/>
<path d="M187.802 194.354H172.717V209.412H187.802V194.354Z" fill="#6D90FF"/>
<path d="M102.049 152.657H91.8672V159.351H102.049V152.657Z" fill="#2F19BB"/>
<path d="M106.364 150.312H87.5518V154.394H106.364V150.312Z" fill="#0C0055"/>
<path d="M120.819 214.763C134.064 201.541 134.064 180.104 120.819 166.881C107.573 153.659 86.0978 153.659 72.8523 166.881C59.6067 180.104 59.6067 201.541 72.8523 214.763C86.0978 227.985 107.573 227.985 120.819 214.763Z" fill="#0C0055"/>
<path d="M123.973 197.136C127.46 182.177 118.139 167.229 103.154 163.748C88.1694 160.267 73.1947 169.571 69.7076 184.53C66.2204 199.489 75.5413 214.437 90.5264 217.918C105.511 221.399 120.486 212.095 123.973 197.136Z" fill="white"/>
<path d="M81.1014 175.846C80.9162 175.845 80.7388 175.772 80.6078 175.641L79.4436 174.479C79.3121 174.348 79.2383 174.17 79.2383 173.984C79.2383 173.798 79.3121 173.62 79.4436 173.489C79.5751 173.358 79.7534 173.284 79.9393 173.284C80.1252 173.284 80.3035 173.358 80.435 173.489L81.5992 174.651C81.6963 174.75 81.7622 174.875 81.7886 175.01C81.815 175.146 81.8007 175.286 81.7476 175.414C81.6944 175.541 81.6048 175.65 81.4899 175.727C81.3749 175.804 81.2398 175.846 81.1014 175.846Z" fill="#D7D7D7"/>
<path d="M114.015 208.698C113.922 208.698 113.831 208.68 113.745 208.645C113.66 208.609 113.582 208.558 113.517 208.492L112.353 207.33C112.288 207.265 112.236 207.188 112.201 207.103C112.166 207.018 112.147 206.927 112.147 206.836C112.147 206.744 112.166 206.653 112.201 206.568C112.236 206.483 112.288 206.406 112.353 206.341C112.418 206.276 112.495 206.224 112.58 206.189C112.665 206.154 112.756 206.136 112.848 206.136C112.941 206.136 113.032 206.154 113.117 206.189C113.202 206.224 113.279 206.276 113.344 206.341L114.508 207.503C114.605 207.601 114.671 207.725 114.698 207.861C114.724 207.996 114.71 208.136 114.658 208.263C114.605 208.391 114.516 208.5 114.402 208.577C114.287 208.654 114.153 208.696 114.015 208.698Z" fill="#D7D7D7"/>
<path d="M79.9372 208.698C79.7991 208.696 79.6646 208.654 79.5503 208.577C79.436 208.5 79.347 208.391 79.2943 208.263C79.2417 208.136 79.2278 207.996 79.2543 207.861C79.2809 207.725 79.3467 207.601 79.4435 207.503L80.6077 206.341C80.6728 206.276 80.7501 206.224 80.8351 206.189C80.9202 206.154 81.0114 206.136 81.1034 206.136C81.1955 206.136 81.2866 206.154 81.3717 206.189C81.4567 206.224 81.534 206.276 81.5991 206.341C81.6642 206.406 81.7158 206.483 81.7511 206.568C81.7863 206.653 81.8044 206.744 81.8044 206.836C81.8044 206.927 81.7863 207.018 81.7511 207.103C81.7158 207.188 81.6642 207.265 81.5991 207.33L80.4349 208.492C80.3024 208.623 80.1236 208.697 79.9372 208.698Z" fill="#D7D7D7"/>
<path d="M112.85 175.846C112.712 175.846 112.577 175.804 112.462 175.727C112.347 175.65 112.257 175.541 112.204 175.414C112.151 175.286 112.137 175.146 112.163 175.01C112.19 174.875 112.256 174.75 112.353 174.651L113.517 173.489C113.648 173.358 113.827 173.284 114.013 173.284C114.198 173.284 114.377 173.358 114.508 173.489C114.64 173.62 114.714 173.798 114.714 173.984C114.714 174.17 114.64 174.348 114.508 174.479L113.344 175.641C113.213 175.772 113.036 175.845 112.85 175.846Z" fill="#D7D7D7"/>
<path d="M96.951 169.144C97.8371 169.144 98.5553 168.427 98.5553 167.543C98.5553 166.658 97.8371 165.941 96.951 165.941C96.065 165.941 95.3467 166.658 95.3467 167.543C95.3467 168.427 96.065 169.144 96.951 169.144Z" fill="#0C0055"/>
<path d="M96.951 215.72C97.8371 215.72 98.5553 215.003 98.5553 214.118C98.5553 213.234 97.8371 212.517 96.951 212.517C96.065 212.517 95.3467 213.234 95.3467 214.118C95.3467 215.003 96.065 215.72 96.951 215.72Z" fill="#0C0055"/>
<path d="M73.6229 189.229C73.9402 189.229 74.2504 189.322 74.5142 189.498C74.778 189.674 74.9837 189.925 75.1051 190.217C75.2265 190.51 75.2583 190.832 75.1964 191.142C75.1345 191.453 74.9817 191.738 74.7573 191.962C74.533 192.186 74.2471 192.339 73.9359 192.401C73.6247 192.463 73.3021 192.431 73.0089 192.31C72.7158 192.188 72.4652 191.983 72.2889 191.72C72.1126 191.456 72.0186 191.147 72.0186 190.83C72.0196 190.406 72.189 189.999 72.4897 189.699C72.7903 189.399 73.1977 189.23 73.6229 189.229Z" fill="#0C0055"/>
<path d="M120.284 189.229C120.601 189.229 120.912 189.322 121.175 189.498C121.439 189.674 121.645 189.925 121.766 190.217C121.888 190.51 121.919 190.832 121.858 191.142C121.796 191.453 121.643 191.738 121.418 191.962C121.194 192.186 120.908 192.339 120.597 192.401C120.286 192.463 119.963 192.431 119.67 192.31C119.377 192.188 119.126 191.983 118.95 191.72C118.774 191.456 118.68 191.147 118.68 190.83C118.68 190.405 118.849 189.998 119.15 189.698C119.45 189.397 119.859 189.229 120.284 189.229Z" fill="#0C0055"/>
<path d="M106.919 176.401L95.4702 189.796C95.2883 189.977 95.148 190.195 95.0592 190.435C94.9704 190.676 94.9352 190.933 94.956 191.188C94.9877 191.604 95.1634 191.996 95.4529 192.297C95.7425 192.598 96.1279 192.79 96.5431 192.838C96.9583 192.887 97.3776 192.789 97.7289 192.563C98.0803 192.337 98.342 191.996 98.4691 191.599L107.318 176.684C107.346 176.631 107.354 176.57 107.34 176.511C107.327 176.453 107.292 176.402 107.243 176.367C107.194 176.332 107.134 176.316 107.074 176.323C107.015 176.329 106.959 176.357 106.919 176.401Z" fill="#2F19BB"/>
<path d="M236.38 214.758L240.564 197.951L230.551 196.415L225.64 214.758H236.38Z" fill="#FFDAB8"/>
<path d="M236.38 214.759H225.639L224.055 217.28C224.055 217.28 218.37 217.617 218.592 224.401H235.927L236.38 214.759Z" fill="white"/>
<path d="M218.222 224.4H236.528V222.442H218.222V224.4Z" fill="#C2D0FF"/>
<path d="M224.056 217.279C224.056 217.279 227.375 216.778 228.478 218.466" stroke="#0C0055" stroke-width="0.77" stroke-linecap="round" stroke-linejoin="round"/>
<path d="M252.913 166.931L238.709 209.272L225.45 208.964L236.697 167.037L252.913 166.931Z" fill="#0C0055"/>
<path d="M241.201 204.887L239.765 210.135L224.006 210.196L225.359 204.887H241.201Z" fill="#0C0055"/>
<path d="M276.452 179.771L258.759 181.747L263.909 191.602L280.306 189.812L276.452 179.771Z" fill="#FFDAB8"/>
<path d="M276.451 179.772L280.31 189.812L283.226 190.424C283.226 190.424 285.497 195.639 291.803 193.089L285.83 176.84L276.451 179.772Z" fill="white"/>
<path d="M291.954 193.438L285.642 176.285L283.8 176.961L290.112 194.114L291.954 193.438Z" fill="#C2D0FF"/>
<path d="M283.227 190.424C283.227 190.424 281.725 188.104 283.227 185.689" stroke="#0C0055" stroke-width="0.77" stroke-linecap="round" stroke-linejoin="round"/>
<path d="M270.482 179.012L256.269 179.903L252.407 164.931L237.758 165.579L241.238 179.188L243.023 186.235C243.658 188.733 245.197 190.908 247.342 192.342C249.488 193.776 252.089 194.366 254.644 194L274.76 191.536L270.482 179.012Z" fill="#0C0055"/>
<path d="M265.604 178.585L271.034 178.121L276.418 192.469L270.96 193.036L265.604 178.585Z" fill="#0C0055"/>
<path d="M234.204 131.829C234.204 131.829 232.106 134.104 235.261 136.346L234.204 131.829Z" fill="#0C0055"/>
<path d="M237.157 136.235C237.281 136.764 237.19 137.32 236.904 137.782C236.618 138.244 236.16 138.573 235.631 138.699C235.1 138.804 234.549 138.695 234.098 138.397C233.647 138.099 233.332 137.635 233.221 137.106C233.163 136.848 233.158 136.581 233.204 136.321C233.25 136.061 233.346 135.812 233.489 135.589C233.631 135.366 233.816 135.174 234.033 135.022C234.25 134.87 234.494 134.763 234.753 134.706C235.011 134.649 235.279 134.643 235.539 134.689C235.8 134.735 236.049 134.832 236.272 134.974C236.496 135.116 236.689 135.3 236.841 135.517C236.992 135.733 237.1 135.977 237.157 136.235Z" fill="#FFDAB8"/>
<path d="M238.947 140.921L239.675 145.848C239.926 147.573 241.095 148.341 242.74 148.078C244.143 147.856 245.587 146.945 245.299 145.434L243.789 137.763L238.947 140.921Z" fill="#FFDAB8"/>
<path d="M239.507 144.695C239.507 144.695 243.02 142.83 244.065 138.802C244.439 137.361 238.873 140.42 238.873 140.42L239.507 144.695Z" fill="#0C0055"/>
<path d="M240.634 142.136C237.824 142.547 235.167 140.617 234.735 138.264L233.854 133.336C233.576 131.943 233.849 130.497 234.616 129.301C235.383 128.105 236.585 127.252 237.968 126.922C240.877 126.277 244.27 128.076 244.924 131.073L245.562 134.921C245.849 136.528 245.493 138.183 244.572 139.532C243.651 140.881 242.237 141.815 240.634 142.136Z" fill="#FFDAB8"/>
<path d="M239.733 132.354C239.733 132.354 238.174 132.354 238.199 132.802C238.199 132.802 238.227 133.106 239.161 133.085C240.095 133.065 240.807 132.974 240.881 132.674C240.955 132.375 240.235 132.313 239.733 132.354Z" fill="#0C0055"/>
<path d="M235.352 133.024C235.352 133.024 234.035 133.328 234.163 133.759C234.163 133.759 234.052 134.092 234.961 133.862C235.87 133.632 236.302 133.451 236.294 133.156C236.286 132.86 235.833 132.872 235.352 133.024Z" fill="#0C0055"/>
<path d="M239.507 137.771C239.39 138.023 239.194 138.231 238.95 138.363C238.705 138.495 238.425 138.546 238.149 138.507" stroke="#0C0055" stroke-width="0.77" stroke-linecap="round" stroke-linejoin="round"/>
<path d="M236.088 135.574C236.104 135.666 236.092 135.759 236.055 135.844C236.017 135.928 235.955 136 235.877 136.049C235.798 136.099 235.707 136.124 235.614 136.122C235.522 136.119 235.432 136.09 235.356 136.036C235.28 135.983 235.222 135.909 235.189 135.822C235.155 135.736 235.148 135.642 235.169 135.551C235.189 135.461 235.235 135.379 235.302 135.315C235.37 135.251 235.454 135.208 235.545 135.193C235.606 135.182 235.668 135.183 235.729 135.197C235.789 135.21 235.846 135.236 235.896 135.271C235.947 135.306 235.99 135.352 236.023 135.404C236.056 135.456 236.078 135.514 236.088 135.574Z" fill="#0C0055"/>
<path d="M240.424 134.954C240.454 135.074 240.436 135.201 240.374 135.308C240.312 135.414 240.21 135.492 240.091 135.525C239.973 135.551 239.849 135.531 239.746 135.468C239.643 135.406 239.568 135.306 239.537 135.189C239.505 135.073 239.52 134.949 239.578 134.843C239.636 134.737 239.733 134.658 239.848 134.622C239.968 134.59 240.097 134.608 240.204 134.67C240.312 134.732 240.391 134.834 240.424 134.954Z" fill="#0C0055"/>
<path d="M237.038 136.346L236.956 137.233C236.938 137.275 236.937 137.322 236.952 137.366C236.967 137.409 236.998 137.445 237.038 137.467L237.474 137.602" stroke="#0C0055" stroke-width="0.77" stroke-linecap="round" stroke-linejoin="round"/>
<path d="M244.615 134.445C244.615 134.445 241.929 132.716 242.534 130.26L234.389 131.739L234.747 126.684L243.019 125.862C244.344 125.575 246.31 126.224 246.31 128.326L246.532 133.303L244.615 134.445Z" fill="#0C0055"/>
<path d="M237.092 126.742C237.406 127.345 237.534 128.028 237.459 128.703C237.385 129.379 237.111 130.018 236.673 130.538C236.234 131.059 235.651 131.438 234.997 131.627C234.343 131.817 233.647 131.809 232.998 131.604C232.349 131.398 231.775 131.006 231.349 130.475C230.923 129.944 230.665 129.299 230.606 128.622C230.548 127.944 230.692 127.265 231.021 126.669C231.349 126.074 231.847 125.589 232.452 125.276C233.262 124.856 234.206 124.775 235.076 125.05C235.946 125.325 236.671 125.933 237.092 126.742Z" fill="#0C0055"/>
<path d="M239.984 126.487C240.196 126.891 240.282 127.348 240.233 127.801C240.184 128.254 240.001 128.683 239.708 129.032C239.415 129.382 239.024 129.637 238.586 129.764C238.148 129.892 237.681 129.887 237.246 129.751C236.81 129.614 236.425 129.351 236.139 128.995C235.853 128.64 235.679 128.208 235.64 127.754C235.6 127.3 235.696 126.844 235.916 126.445C236.135 126.045 236.469 125.719 236.874 125.509C237.143 125.369 237.436 125.284 237.738 125.257C238.039 125.23 238.343 125.263 238.632 125.354C238.921 125.445 239.189 125.592 239.421 125.786C239.653 125.98 239.844 126.218 239.984 126.487Z" fill="#0C0055"/>
<path d="M248.145 134.441C248.263 134.964 248.171 135.513 247.889 135.97C247.607 136.427 247.157 136.755 246.635 136.884C246.374 136.938 246.105 136.94 245.844 136.89C245.582 136.839 245.333 136.738 245.111 136.591C244.888 136.444 244.698 136.254 244.549 136.033C244.401 135.812 244.297 135.564 244.245 135.303C244.127 134.779 244.22 134.23 244.503 133.773C244.786 133.317 245.237 132.989 245.759 132.86C246.02 132.806 246.289 132.804 246.55 132.855C246.812 132.905 247.06 133.007 247.282 133.154C247.504 133.301 247.695 133.49 247.843 133.711C247.991 133.932 248.094 134.18 248.145 134.441Z" fill="#FFDAB8"/>
<path d="M245.627 135.5C245.627 135.5 245.311 134.042 246.713 133.973" stroke="#0C0055" stroke-width="0.77" stroke-linecap="round" stroke-linejoin="round"/>
<path d="M214.121 152.017C213.677 151.54 212.887 150.818 212.282 150.965C212.099 150.999 211.927 151.078 211.782 151.195C211.638 151.313 211.525 151.464 211.455 151.637C211.384 151.809 211.358 151.996 211.379 152.181C211.4 152.365 211.467 152.542 211.575 152.694L211.937 153.29C211.114 153.598 209.468 153.676 206.424 150.608C206.187 150.358 205.873 150.195 205.532 150.145C205.191 150.095 204.843 150.161 204.544 150.333C204.352 150.466 204.216 150.666 204.163 150.894C204.11 151.121 204.143 151.36 204.256 151.565C204.267 151.586 204.28 151.607 204.293 151.626C204.092 151.552 203.876 151.524 203.662 151.547C203.448 151.569 203.242 151.64 203.059 151.754C202.868 151.888 202.733 152.088 202.681 152.315C202.628 152.543 202.662 152.782 202.776 152.986C202.804 153.046 202.839 153.104 202.878 153.158C202.674 153.177 202.477 153.246 202.307 153.359C202.114 153.492 201.977 153.692 201.924 153.92C201.871 154.148 201.905 154.387 202.019 154.591C202.084 154.726 202.173 154.849 202.282 154.953C202.319 154.994 202.36 155.031 202.401 155.072L202.344 155.101C202.152 155.235 202.017 155.434 201.964 155.662C201.911 155.889 201.943 156.128 202.056 156.332C202.125 156.465 202.214 156.587 202.319 156.694C203.082 157.474 203.915 158.181 204.808 158.809L204.845 158.833C205.213 159.088 205.597 159.321 205.992 159.531C207.753 160.55 211.517 159.696 214.755 160.217L217.293 155.487L214.121 152.017Z" fill="#FFDAB8"/>
<path d="M207.211 162.221L213.321 148.287L199.363 142.188L193.253 156.122L207.211 162.221Z" fill="#6D90FF"/>
<path d="M214.121 152.016L211.653 149.141C211.559 149.032 211.443 148.944 211.312 148.884C211.181 148.824 211.039 148.793 210.894 148.793C210.75 148.793 210.608 148.824 210.477 148.884C210.346 148.944 210.229 149.032 210.135 149.141C210.005 149.291 209.922 149.476 209.898 149.673C209.874 149.87 209.909 150.069 210 150.246L211.234 152.685C210.952 153.759 210.939 154.885 211.194 155.965C211.449 157.046 211.966 158.047 212.698 158.882L214.121 152.016Z" fill="#FFDAB8"/>
<path d="M233.209 158.143L216.223 152.805L213.266 161.519L229.527 167.095C230.189 167.403 230.912 167.558 231.643 167.548C232.373 167.538 233.092 167.363 233.745 167.036C234.398 166.709 234.969 166.24 235.415 165.662C235.86 165.084 236.169 164.413 236.319 163.699C236.561 162.554 236.38 161.36 235.808 160.339C235.236 159.317 234.313 158.537 233.209 158.143Z" fill="white"/>
<path d="M238.52 148.879L227.331 158.845C226.482 159.864 226.052 161.166 226.129 162.488C226.205 163.811 226.782 165.055 227.742 165.97C228.773 166.927 230.138 167.445 231.545 167.414C232.953 167.384 234.294 166.807 235.282 165.806L247.175 156.591C248.102 155.628 248.667 154.375 248.776 153.044C248.885 151.713 248.53 150.385 247.771 149.285C247.262 148.548 246.588 147.939 245.803 147.506C245.018 147.072 244.143 146.826 243.247 146.787C242.35 146.747 241.457 146.916 240.637 147.279C239.817 147.642 239.092 148.189 238.52 148.879Z" fill="white"/>
<path d="M247.775 143.828C247.775 143.828 254.83 151.687 255.039 171.201C255.039 171.201 244.837 174.039 234.562 170.881L237.791 147.573C237.791 147.573 242.151 143.298 247.775 143.828Z" fill="white"/>
<path d="M237.392 149.881L235.294 165.806" stroke="#0C0055" stroke-width="0.77" stroke-linecap="round" stroke-linejoin="round"/>
<path d="M243.677 175.292C243.677 175.292 241.382 174.856 242.443 172.393C243.505 169.929 246.261 167.346 250.992 169.391L243.677 175.292Z" fill="#FFDAB8"/>
<path d="M253.135 176.301C253.61 175.407 253.808 174.392 253.705 173.385C253.602 172.378 253.202 171.424 252.556 170.644C251.91 169.864 251.046 169.293 250.075 169.003C249.103 168.713 248.068 168.717 247.098 169.014C246.129 169.312 245.27 169.89 244.63 170.676C243.99 171.461 243.598 172.418 243.503 173.426C243.408 174.433 243.615 175.447 244.097 176.337C244.579 177.228 245.315 177.956 246.211 178.429C247.412 179.062 248.816 179.194 250.114 178.795C251.412 178.396 252.498 177.499 253.135 176.301Z" fill="#FFDAB8"/>
<path d="M257.072 153.844L246.932 168.463L254.398 173.859L264.538 159.995C265.029 159.456 265.391 158.813 265.597 158.114C265.803 157.416 265.849 156.679 265.73 155.961C265.612 155.242 265.332 154.559 264.912 153.964C264.492 153.368 263.942 152.875 263.304 152.522C262.28 151.954 261.085 151.775 259.94 152.018C258.794 152.261 257.776 152.91 257.072 153.844Z" fill="white"/>
<path d="M245.442 156.09L259.351 161.699C260.642 162.004 262.001 161.808 263.154 161.152C264.306 160.496 265.167 159.428 265.562 158.164C265.964 156.817 265.825 155.367 265.175 154.12C264.525 152.874 263.414 151.929 262.078 151.487L248.54 144.916C247.264 144.514 245.888 144.563 244.644 145.055C243.4 145.547 242.364 146.453 241.711 147.618C241.273 148.401 241.022 149.275 240.979 150.171C240.936 151.067 241.102 151.96 241.464 152.781C241.825 153.602 242.373 154.329 243.063 154.903C243.754 155.477 244.568 155.883 245.442 156.09Z" fill="white"/>
<path d="M246.931 168.446L253.386 159.293L243.916 155.494" stroke="#0C0055" stroke-width="0.77" stroke-linecap="round" stroke-linejoin="round"/>
<path d="M294.366 224.68H33.3164" stroke="#0C0055" stroke-width="1.55" stroke-linecap="round" stroke-linejoin="round"/>
</g>
<path d="M26.8007 48.667V31.867H34.1447C35.9687 31.867 37.5687 32.219 38.9447 32.923C40.3207 33.627 41.3927 34.603 42.1607 35.851C42.9287 37.099 43.3127 38.571 43.3127 40.267C43.3127 41.947 42.9287 43.419 42.1607 44.683C41.3927 45.931 40.3207 46.907 38.9447 47.611C37.5687 48.315 35.9687 48.667 34.1447 48.667H26.8007ZM29.9207 46.027H34.0007C35.2647 46.027 36.3527 45.787 37.2647 45.307C38.1927 44.827 38.9047 44.155 39.4007 43.291C39.9127 42.427 40.1687 41.419 40.1687 40.267C40.1687 39.099 39.9127 38.091 39.4007 37.243C38.9047 36.379 38.1927 35.707 37.2647 35.227C36.3527 34.747 35.2647 34.507 34.0007 34.507H29.9207V46.027ZM24.4487 41.275V38.971H34.4327V41.275H24.4487ZM44.0128 48.667L51.5728 31.867H54.6448L62.2288 48.667H58.9648L52.4608 33.523H53.7088L47.2288 48.667H44.0128ZM47.4928 44.779L48.3328 42.331H57.4048L58.2448 44.779H47.4928ZM53.1088 53.539C52.7088 53.539 52.3648 53.411 52.0768 53.155C51.8048 52.899 51.6688 52.555 51.6688 52.123C51.6688 51.691 51.8048 51.339 52.0768 51.067C52.3648 50.795 52.7088 50.659 53.1088 50.659C53.5088 50.659 53.8448 50.795 54.1168 51.067C54.4048 51.339 54.5488 51.691 54.5488 52.123C54.5488 52.555 54.4048 52.899 54.1168 53.155C53.8448 53.411 53.5088 53.539 53.1088 53.539ZM53.1088 30.667C51.9408 30.667 50.9648 30.355 50.1808 29.731C49.4128 29.107 49.0048 28.267 48.9568 27.211H50.9248C50.9568 27.771 51.1808 28.211 51.5968 28.531C52.0128 28.851 52.5168 29.011 53.1088 29.011C53.7008 29.011 54.2048 28.851 54.6208 28.531C55.0528 28.211 55.2768 27.771 55.2928 27.211H57.2608C57.2128 28.267 56.7968 29.107 56.0128 29.731C55.2448 30.355 54.2768 30.667 53.1088 30.667ZM66.9296 48.667V34.507H61.3616V31.867H75.6176V34.507H70.0496V48.667H66.9296ZM87.9999 48.667V34.507H82.4319V31.867H96.6879V34.507H91.1199V48.667H87.9999ZM99.0294 48.667V31.867H105.941C107.429 31.867 108.701 32.107 109.757 32.587C110.829 33.067 111.653 33.755 112.229 34.651C112.805 35.547 113.093 36.611 113.093 37.843C113.093 39.075 112.805 40.139 112.229 41.035C111.653 41.915 110.829 42.595 109.757 43.075C108.701 43.539 107.429 43.771 105.941 43.771H100.757L102.149 42.355V48.667H99.0294ZM110.021 48.667L105.773 42.571H109.109L113.381 48.667H110.021ZM102.149 42.691L100.757 41.203H105.797C107.173 41.203 108.205 40.907 108.893 40.315C109.597 39.723 109.949 38.899 109.949 37.843C109.949 36.771 109.597 35.947 108.893 35.371C108.205 34.795 107.173 34.507 105.797 34.507H100.757L102.149 32.971V42.691ZM123.808 48.907C121.504 48.907 119.696 48.259 118.384 46.963C117.088 45.667 116.44 43.795 116.44 41.347V31.867H119.56V41.227C119.56 42.955 119.928 44.211 120.664 44.995C121.416 45.779 122.472 46.171 123.832 46.171C125.192 46.171 126.24 45.779 126.976 44.995C127.712 44.211 128.08 42.955 128.08 41.227V31.867H131.152V41.347C131.152 43.795 130.496 45.667 129.184 46.963C127.888 48.259 126.096 48.907 123.808 48.907ZM129.592 34.003V31.867H130.096C130.592 31.867 130.96 31.723 131.2 31.435C131.456 31.147 131.584 30.779 131.584 30.331C131.584 30.043 131.536 29.771 131.44 29.515C131.36 29.259 131.248 29.035 131.104 28.843L132.952 28.171C133.176 28.459 133.352 28.795 133.48 29.179C133.608 29.563 133.672 29.979 133.672 30.427C133.672 31.531 133.352 32.403 132.712 33.043C132.072 33.683 131.192 34.003 130.072 34.003H129.592ZM143.651 48.907C142.339 48.907 141.131 48.691 140.027 48.259C138.923 47.827 137.963 47.227 137.147 46.459C136.331 45.675 135.699 44.755 135.251 43.699C134.803 42.643 134.579 41.499 134.579 40.267C134.579 39.019 134.803 37.867 135.251 36.811C135.699 35.755 136.331 34.843 137.147 34.075C137.979 33.291 138.955 32.691 140.075 32.275C141.195 31.843 142.419 31.627 143.747 31.627C144.675 31.627 145.499 31.683 146.219 31.795C146.939 31.907 147.611 31.963 148.235 31.963C148.907 31.963 149.427 31.827 149.795 31.555C150.179 31.267 150.371 30.851 150.371 30.307C150.371 30.003 150.323 29.731 150.227 29.491C150.131 29.251 150.019 29.027 149.891 28.819L151.715 28.147C151.939 28.451 152.115 28.795 152.243 29.179C152.371 29.563 152.435 29.971 152.435 30.403C152.435 31.491 152.051 32.339 151.283 32.947C150.531 33.539 149.475 33.835 148.115 33.835C147.587 33.835 147.043 33.803 146.483 33.739C145.923 33.675 145.395 33.611 144.899 33.547L148.715 33.091C149.499 33.539 150.187 34.123 150.779 34.843C151.371 35.563 151.835 36.387 152.171 37.315C152.507 38.227 152.675 39.211 152.675 40.267C152.675 41.515 152.451 42.667 152.003 43.723C151.555 44.779 150.923 45.691 150.107 46.459C149.291 47.227 148.331 47.827 147.227 48.259C146.139 48.691 144.947 48.907 143.651 48.907ZM143.627 46.171C144.475 46.171 145.259 46.027 145.979 45.739C146.699 45.451 147.323 45.043 147.851 44.515C148.379 43.971 148.787 43.339 149.075 42.619C149.379 41.899 149.531 41.115 149.531 40.267C149.531 39.419 149.379 38.635 149.075 37.915C148.787 37.195 148.379 36.571 147.851 36.043C147.323 35.499 146.699 35.083 145.979 34.795C145.259 34.507 144.475 34.363 143.627 34.363C142.779 34.363 141.995 34.507 141.275 34.795C140.555 35.083 139.931 35.499 139.403 36.043C138.875 36.571 138.459 37.195 138.155 37.915C137.867 38.619 137.723 39.403 137.723 40.267C137.723 41.115 137.867 41.899 138.155 42.619C138.459 43.339 138.875 43.971 139.403 44.515C139.931 45.043 140.555 45.451 141.275 45.739C141.995 46.027 142.779 46.171 143.627 46.171ZM141.611 30.499L144.851 27.211H148.379L144.203 30.499H141.611ZM163.759 48.907C162.479 48.907 161.287 48.699 160.183 48.283C159.095 47.851 158.143 47.251 157.327 46.483C156.527 45.699 155.903 44.779 155.455 43.723C155.007 42.667 154.783 41.515 154.783 40.267C154.783 39.019 155.007 37.867 155.455 36.811C155.903 35.755 156.535 34.843 157.351 34.075C158.167 33.291 159.119 32.691 160.207 32.275C161.295 31.843 162.487 31.627 163.783 31.627C165.159 31.627 166.415 31.867 167.551 32.347C168.687 32.811 169.647 33.507 170.431 34.435L168.415 36.331C167.807 35.675 167.127 35.187 166.375 34.867C165.623 34.531 164.807 34.363 163.927 34.363C163.047 34.363 162.239 34.507 161.503 34.795C160.783 35.083 160.151 35.491 159.607 36.019C159.079 36.547 158.663 37.171 158.359 37.891C158.071 38.611 157.927 39.403 157.927 40.267C157.927 41.131 158.071 41.923 158.359 42.643C158.663 43.363 159.079 43.987 159.607 44.515C160.151 45.043 160.783 45.451 161.503 45.739C162.239 46.027 163.047 46.171 163.927 46.171C164.807 46.171 165.623 46.011 166.375 45.691C167.127 45.355 167.807 44.851 168.415 44.179L170.431 46.099C169.647 47.011 168.687 47.707 167.551 48.187C166.415 48.667 165.151 48.907 163.759 48.907ZM180.053 48.667V31.867H183.173V46.027H191.957V48.667H180.053ZM194.42 48.667V31.867H197.54V48.667H194.42ZM195.98 53.539C195.58 53.539 195.236 53.411 194.948 53.155C194.676 52.899 194.54 52.555 194.54 52.123C194.54 51.691 194.676 51.339 194.948 51.067C195.236 50.795 195.58 50.659 195.98 50.659C196.38 50.659 196.716 50.795 196.988 51.067C197.276 51.339 197.42 51.691 197.42 52.123C197.42 52.555 197.276 52.899 196.988 53.155C196.716 53.411 196.38 53.539 195.98 53.539ZM209.86 48.907C208.58 48.907 207.388 48.699 206.284 48.283C205.196 47.851 204.244 47.251 203.428 46.483C202.628 45.699 202.004 44.779 201.556 43.723C201.108 42.667 200.884 41.515 200.884 40.267C200.884 39.019 201.108 37.867 201.556 36.811C202.004 35.755 202.636 34.843 203.452 34.075C204.268 33.291 205.22 32.691 206.308 32.275C207.396 31.843 208.588 31.627 209.884 31.627C211.26 31.627 212.516 31.867 213.652 32.347C214.788 32.811 215.748 33.507 216.532 34.435L214.516 36.331C213.908 35.675 213.228 35.187 212.476 34.867C211.724 34.531 210.908 34.363 210.028 34.363C209.148 34.363 208.34 34.507 207.604 34.795C206.884 35.083 206.252 35.491 205.708 36.019C205.18 36.547 204.764 37.171 204.46 37.891C204.172 38.611 204.028 39.403 204.028 40.267C204.028 41.131 204.172 41.923 204.46 42.643C204.764 43.363 205.18 43.987 205.708 44.515C206.252 45.043 206.884 45.451 207.604 45.739C208.34 46.027 209.148 46.171 210.028 46.171C210.908 46.171 211.724 46.011 212.476 45.691C213.228 45.355 213.908 44.851 214.516 44.179L216.532 46.099C215.748 47.011 214.788 47.707 213.652 48.187C212.516 48.667 211.252 48.907 209.86 48.907ZM231.33 31.867H234.45V48.667H231.33V31.867ZM222.642 48.667H219.522V31.867H222.642V48.667ZM231.57 41.467H222.378V38.803H231.57V41.467Z" fill="white"/>
<path d="M30.7907 74.795C29.9374 74.795 29.1427 74.651 28.4067 74.363C27.6814 74.075 27.052 73.675 26.5187 73.163C25.9854 72.6403 25.5694 72.0323 25.2707 71.339C24.972 70.6457 24.8227 69.8883 24.8227 69.067C24.8227 68.2457 24.972 67.4883 25.2707 66.795C25.5694 66.1017 25.9854 65.499 26.5187 64.987C27.052 64.4643 27.6814 64.059 28.4067 63.771C29.132 63.483 29.9267 63.339 30.7907 63.339C31.644 63.339 32.428 63.483 33.1427 63.771C33.868 64.0483 34.4974 64.4483 35.0307 64.971C35.5747 65.483 35.9907 66.0857 36.2787 66.779C36.5774 67.4723 36.7267 68.235 36.7267 69.067C36.7267 69.899 36.5774 70.6617 36.2787 71.355C35.9907 72.0483 35.5747 72.6563 35.0307 73.179C34.4974 73.691 33.868 74.091 33.1427 74.379C32.428 74.6563 31.644 74.795 30.7907 74.795ZM34.4547 77.003C34.0814 77.003 33.724 76.955 33.3827 76.859C33.0414 76.7737 32.7 76.6297 32.3587 76.427C32.0174 76.235 31.6654 75.979 31.3027 75.659C30.94 75.3497 30.5454 74.9657 30.1187 74.507L31.8307 74.059C32.1507 74.4537 32.4547 74.7737 32.7427 75.019C33.0414 75.275 33.3347 75.4563 33.6227 75.563C33.9107 75.6803 34.1934 75.739 34.4707 75.739C35.2707 75.739 35.9534 75.419 36.5187 74.779L37.2707 75.691C36.5454 76.5657 35.6067 77.003 34.4547 77.003ZM30.7907 73.371C31.4094 73.371 31.98 73.2643 32.5027 73.051C33.036 72.8377 33.4947 72.5337 33.8787 72.139C34.2734 71.7443 34.5774 71.2857 34.7907 70.763C35.0147 70.2403 35.1267 69.675 35.1267 69.067C35.1267 68.4483 35.0147 67.8777 34.7907 67.355C34.5774 66.8323 34.2734 66.379 33.8787 65.995C33.4947 65.6003 33.036 65.2963 32.5027 65.083C31.98 64.8697 31.4094 64.763 30.7907 64.763C30.1614 64.763 29.58 64.8697 29.0467 65.083C28.524 65.2963 28.0654 65.6003 27.6707 65.995C27.276 66.379 26.9667 66.8323 26.7427 67.355C26.5294 67.8777 26.4227 68.4483 26.4227 69.067C26.4227 69.675 26.5294 70.2403 26.7427 70.763C26.9667 71.2857 27.276 71.7443 27.6707 72.139C28.0654 72.5337 28.524 72.8377 29.0467 73.051C29.58 73.2643 30.1614 73.371 30.7907 73.371ZM42.5162 74.763C41.7909 74.763 41.1509 74.6297 40.5962 74.363C40.0522 74.0963 39.6255 73.691 39.3162 73.147C39.0175 72.5923 38.8682 71.899 38.8682 71.067V66.187H40.4042V70.891C40.4042 71.723 40.6015 72.347 40.9962 72.763C41.4015 73.179 41.9669 73.387 42.6922 73.387C43.2255 73.387 43.6895 73.2803 44.0842 73.067C44.4789 72.843 44.7829 72.523 44.9962 72.107C45.2095 71.6803 45.3162 71.1683 45.3162 70.571V66.187H46.8522V74.667H45.3962V72.379L45.6362 72.987C45.3589 73.5523 44.9429 73.9897 44.3882 74.299C43.8335 74.6083 43.2095 74.763 42.5162 74.763ZM55.0403 74.667V72.875L54.9603 72.539V69.483C54.9603 68.8323 54.7683 68.331 54.3843 67.979C54.011 67.6163 53.4456 67.435 52.6883 67.435C52.187 67.435 51.6963 67.5203 51.2163 67.691C50.7363 67.851 50.331 68.0697 50.0003 68.347L49.3603 67.195C49.7976 66.843 50.3203 66.5763 50.9283 66.395C51.547 66.203 52.1923 66.107 52.8643 66.107C54.027 66.107 54.923 66.3897 55.5523 66.955C56.1816 67.5203 56.4963 68.3843 56.4963 69.547V74.667H55.0403ZM52.2563 74.763C51.627 74.763 51.0723 74.6563 50.5923 74.443C50.123 74.2297 49.7603 73.9363 49.5043 73.563C49.2483 73.179 49.1203 72.747 49.1203 72.267C49.1203 71.8083 49.227 71.3923 49.4403 71.019C49.6643 70.6457 50.0216 70.347 50.5123 70.123C51.0136 69.899 51.6856 69.787 52.5283 69.787H55.2163V70.891H52.5923C51.8243 70.891 51.307 71.019 51.0403 71.275C50.7736 71.531 50.6403 71.8403 50.6403 72.203C50.6403 72.619 50.8056 72.955 51.1363 73.211C51.467 73.4563 51.9256 73.579 52.5123 73.579C53.0883 73.579 53.5896 73.451 54.0163 73.195C54.4536 72.939 54.7683 72.5657 54.9603 72.075L55.2643 73.131C55.0616 73.6323 54.7043 74.0323 54.1923 74.331C53.6803 74.619 53.035 74.763 52.2563 74.763ZM53.2803 65.099L52.7523 64.475C53.0616 64.3257 53.2856 64.1657 53.4243 63.995C53.5736 63.8137 53.6483 63.6163 53.6483 63.403C53.6483 63.179 53.5736 62.9977 53.4243 62.859C53.275 62.7203 53.0723 62.651 52.8163 62.651C52.4856 62.651 52.1656 62.7523 51.8563 62.955L51.5043 62.235C51.707 62.0857 51.9363 61.9737 52.1923 61.899C52.459 61.8243 52.715 61.787 52.9603 61.787C53.451 61.787 53.8456 61.9257 54.1443 62.203C54.443 62.4697 54.5923 62.827 54.5923 63.275C54.5923 63.6697 54.4856 64.0217 54.2723 64.331C54.059 64.6297 53.7283 64.8857 53.2803 65.099ZM63.8668 66.107C64.5601 66.107 65.1681 66.2403 65.6908 66.507C66.2241 66.7737 66.6401 67.179 66.9388 67.723C67.2375 68.267 67.3868 68.955 67.3868 69.787V74.667H65.8508V69.963C65.8508 69.1417 65.6481 68.523 65.2428 68.107C64.8481 67.691 64.2881 67.483 63.5628 67.483C63.0188 67.483 62.5441 67.5897 62.1388 67.803C61.7335 68.0163 61.4188 68.331 61.1948 68.747C60.9815 69.163 60.8748 69.6803 60.8748 70.299V74.667H59.3388V66.187H60.8108V68.475L60.5708 67.867C60.8481 67.3123 61.2748 66.8803 61.8508 66.571C62.4268 66.2617 63.0988 66.107 63.8668 66.107ZM74.5263 74.667V62.795H76.0623V74.667H74.5263ZM79.3631 77.867C78.9577 77.867 78.5631 77.7977 78.1791 77.659C77.7951 77.531 77.4644 77.339 77.1871 77.083L77.8431 75.931C78.0564 76.1337 78.2911 76.2883 78.5471 76.395C78.8031 76.5017 79.0751 76.555 79.3631 76.555C79.7364 76.555 80.0457 76.459 80.2911 76.267C80.5364 76.075 80.7657 75.7337 80.9791 75.243L81.5071 74.075L81.6671 73.883L84.9951 66.187H86.4991L82.3871 75.515C82.1417 76.1123 81.8644 76.5817 81.5551 76.923C81.2564 77.2643 80.9257 77.5043 80.5631 77.643C80.2004 77.7923 79.8004 77.867 79.3631 77.867ZM81.3791 74.939L77.5071 66.187H79.1071L82.4031 73.739L81.3791 74.939ZM80.5951 64.955L82.7711 62.875H84.7231L82.0351 64.955H80.5951ZM95.1414 74.763C94.2881 74.763 93.6268 74.5337 93.1574 74.075C92.6881 73.6163 92.4534 72.9603 92.4534 72.107V64.331H93.9894V72.043C93.9894 72.5017 94.1014 72.8537 94.3254 73.099C94.5601 73.3443 94.8908 73.467 95.3174 73.467C95.7974 73.467 96.1974 73.3337 96.5174 73.067L96.9974 74.171C96.7628 74.3737 96.4801 74.523 96.1494 74.619C95.8294 74.715 95.4934 74.763 95.1414 74.763ZM91.0134 67.451V66.187H96.4214V67.451H91.0134ZM98.8544 74.667V66.187H100.39V74.667H98.8544ZM99.6224 64.555C99.3238 64.555 99.0731 64.459 98.8704 64.267C98.6784 64.075 98.5824 63.8403 98.5824 63.563C98.5824 63.275 98.6784 63.035 98.8704 62.843C99.0731 62.651 99.3238 62.555 99.6224 62.555C99.9211 62.555 100.166 62.651 100.358 62.843C100.561 63.0243 100.662 63.2537 100.662 63.531C100.662 63.819 100.566 64.0643 100.374 64.267C100.182 64.459 99.9318 64.555 99.6224 64.555ZM107.099 74.763C106.193 74.763 105.393 74.5763 104.699 74.203C104.017 73.8297 103.483 73.3177 103.099 72.667C102.726 72.0163 102.539 71.2697 102.539 70.427C102.539 69.5843 102.721 68.8377 103.083 68.187C103.457 67.5363 103.963 67.0297 104.603 66.667C105.254 66.2937 105.985 66.107 106.795 66.107C107.617 66.107 108.342 66.2883 108.971 66.651C109.601 67.0137 110.091 67.5257 110.443 68.187C110.806 68.8377 110.987 69.6003 110.987 70.475C110.987 70.539 110.982 70.6137 110.971 70.699C110.971 70.7843 110.966 70.8643 110.955 70.939H103.739V69.835H110.155L109.531 70.219C109.542 69.675 109.43 69.1897 109.195 68.763C108.961 68.3363 108.635 68.0057 108.219 67.771C107.814 67.5257 107.339 67.403 106.795 67.403C106.262 67.403 105.787 67.5257 105.371 67.771C104.955 68.0057 104.63 68.3417 104.395 68.779C104.161 69.2057 104.043 69.6963 104.043 70.251V70.507C104.043 71.0723 104.171 71.579 104.427 72.027C104.694 72.4643 105.062 72.8057 105.531 73.051C106.001 73.2963 106.539 73.419 107.147 73.419C107.649 73.419 108.102 73.3337 108.507 73.163C108.923 72.9923 109.286 72.7363 109.595 72.395L110.443 73.387C110.059 73.835 109.579 74.1763 109.003 74.411C108.438 74.6457 107.803 74.763 107.099 74.763ZM106.779 77.803C106.555 77.803 106.363 77.7283 106.203 77.579C106.043 77.4297 105.963 77.2377 105.963 77.003C105.963 76.7577 106.043 76.555 106.203 76.395C106.363 76.2457 106.555 76.171 106.779 76.171C107.003 76.171 107.195 76.2457 107.355 76.395C107.515 76.555 107.595 76.7577 107.595 77.003C107.595 77.2377 107.515 77.4297 107.355 77.579C107.195 77.7283 107.003 77.803 106.779 77.803ZM103.915 64.955L106.043 62.875H107.515L109.643 64.955H108.251L106.139 63.195H107.419L105.307 64.955H103.915ZM117.648 66.107C118.341 66.107 118.949 66.2403 119.472 66.507C120.005 66.7737 120.421 67.179 120.72 67.723C121.019 68.267 121.168 68.955 121.168 69.787V74.667H119.632V69.963C119.632 69.1417 119.429 68.523 119.024 68.107C118.629 67.691 118.069 67.483 117.344 67.483C116.8 67.483 116.325 67.5897 115.92 67.803C115.515 68.0163 115.2 68.331 114.976 68.747C114.763 69.163 114.656 69.6803 114.656 70.299V74.667H113.12V66.187H114.592V68.475L114.352 67.867C114.629 67.3123 115.056 66.8803 115.632 66.571C116.208 66.2617 116.88 66.107 117.648 66.107ZM128.308 74.667V62.795H129.844V74.667H128.308ZM136.408 74.763C135.555 74.763 134.798 74.5763 134.136 74.203C133.475 73.8297 132.952 73.3177 132.568 72.667C132.184 72.0163 131.992 71.2697 131.992 70.427C131.992 69.5843 132.184 68.8377 132.568 68.187C132.952 67.5363 133.475 67.0297 134.136 66.667C134.808 66.2937 135.571 66.107 136.424 66.107C136.712 66.107 136.952 66.1177 137.144 66.139C137.347 66.1497 137.539 66.1657 137.72 66.187C137.912 66.1977 138.126 66.203 138.36 66.203C138.776 66.203 139.08 66.1017 139.272 65.899C139.475 65.6857 139.576 65.4297 139.576 65.131C139.576 64.9283 139.544 64.747 139.48 64.587C139.416 64.4163 139.336 64.2617 139.24 64.123L140.2 63.755C140.339 63.947 140.451 64.1657 140.536 64.411C140.622 64.6563 140.664 64.9123 140.664 65.179C140.664 65.5843 140.568 65.9417 140.376 66.251C140.184 66.5603 139.907 66.8003 139.544 66.971C139.192 67.1417 138.76 67.227 138.248 67.227C138.078 67.227 137.907 67.2217 137.736 67.211C137.566 67.1897 137.384 67.163 137.192 67.131L138.072 66.411C138.894 66.7097 139.555 67.2163 140.056 67.931C140.558 68.635 140.808 69.467 140.808 70.427C140.808 71.2697 140.616 72.0163 140.232 72.667C139.859 73.3177 139.336 73.8297 138.664 74.203C138.003 74.5763 137.251 74.763 136.408 74.763ZM136.408 73.419C136.942 73.419 137.422 73.2963 137.848 73.051C138.286 72.8057 138.627 72.459 138.872 72.011C139.128 71.5523 139.256 71.0243 139.256 70.427C139.256 69.819 139.134 69.2963 138.888 68.859C138.643 68.411 138.302 68.0643 137.864 67.819C137.438 67.5737 136.952 67.451 136.408 67.451C135.864 67.451 135.379 67.5737 134.952 67.819C134.526 68.0643 134.184 68.411 133.928 68.859C133.672 69.2963 133.544 69.819 133.544 70.427C133.544 71.0243 133.672 71.5523 133.928 72.011C134.184 72.459 134.526 72.8057 134.952 73.051C135.379 73.2963 135.864 73.419 136.408 73.419ZM136.408 77.803C136.184 77.803 135.992 77.7283 135.832 77.579C135.672 77.4297 135.592 77.2377 135.592 77.003C135.592 76.7577 135.672 76.555 135.832 76.395C135.992 76.2457 136.184 76.171 136.408 76.171C136.632 76.171 136.824 76.2457 136.984 76.395C137.144 76.555 137.224 76.7577 137.224 77.003C137.224 77.2377 137.144 77.4297 136.984 77.579C136.824 77.7283 136.632 77.803 136.408 77.803ZM142.933 74.667V66.187H144.469V74.667H142.933ZM143.701 64.555C143.402 64.555 143.151 64.459 142.949 64.267C142.757 64.075 142.661 63.8403 142.661 63.563C142.661 63.275 142.757 63.035 142.949 62.843C143.151 62.651 143.402 62.555 143.701 62.555C143.999 62.555 144.245 62.651 144.437 62.843C144.639 63.0243 144.741 63.2537 144.741 63.531C144.741 63.819 144.645 64.0643 144.453 64.267C144.261 64.459 144.01 64.555 143.701 64.555Z" fill="white"/>
<defs>
<clipPath id="clip0_2507_107509">
<rect width="273" height="150" fill="white" transform="translate(33 75)"/>
</clipPath>
</defs>
</svg>
