<svg width="311" height="251" viewBox="0 0 311 251" fill="none" xmlns="http://www.w3.org/2000/svg">
<rect width="311" height="250" transform="translate(0 0.666992)" fill="white"/>
<g clip-path="url(#clip0_2507_118797)">
<path opacity="0.06" d="M272.383 236.605L87.2126 235.829C64.4799 185.568 67.9115 164.344 76.7821 154.679C94.7946 135.157 134.441 163.487 183.46 138.846C204.809 128.105 207.793 117.445 228.505 113.729C249.217 110.012 277.334 114.954 292.403 133.823C312.247 158.572 307.283 204.94 272.383 236.605Z" fill="#3F3B33"/>
<path d="M226.131 145.354C226.443 145.844 226.755 146.347 227.04 146.878" stroke="#231F20" stroke-width="0.37" stroke-miterlimit="10"/>
<path d="M228.573 150.064C229.368 151.971 229.853 153.993 230.011 156.054C230.309 160.764 224.911 171.995 218.943 167.108C213.775 162.833 212.419 154.488 211.062 148.308C209.204 139.608 206.993 131.032 204.457 122.442C198.773 103.41 192.278 89.9735 169.532 85.059C154.192 81.7509 151.284 89.8578 149.412 89.8576" stroke="#231F20" stroke-width="0.37" stroke-miterlimit="10" stroke-dasharray="2.6 2.6"/>
<path d="M125.014 86.2158L123.767 87.4547" stroke="#231F20" stroke-width="0.37" stroke-miterlimit="10"/>
<path d="M124.255 84.2011C121.952 83.9722 119.635 83.913 117.324 84.0241C96.6121 85.0315 76.6328 99.8431 76.6328 128.445C76.6328 160.777 89.6268 189.625 101.047 209.446C106.968 219.883 115.099 228.889 124.865 235.829C124.865 235.829 162.518 187.746 162.518 128.445C162.518 100.932 144.017 86.1887 124.255 84.2011ZM118.829 156.353C113.904 156.372 109.084 154.923 104.979 152.191C100.874 149.459 97.6688 145.566 95.7696 141.004C93.8705 136.443 93.3624 131.419 94.3099 126.567C95.2573 121.716 97.6175 117.256 101.092 113.752C104.566 110.247 108.998 107.856 113.827 106.882C118.656 105.907 123.664 106.392 128.218 108.276C132.772 110.16 136.667 113.357 139.409 117.464C142.152 121.57 143.618 126.401 143.624 131.345C143.624 137.971 141.002 144.327 136.335 149.014C131.667 153.701 125.337 156.336 118.734 156.339L118.829 156.353Z" fill="#2F19BB"/>
<path d="M129.409 84.2011C127.106 83.9722 124.79 83.913 122.478 84.0241C101.766 85.0315 81.7871 99.8431 81.7871 128.445C81.7871 160.777 94.5505 189.706 106.202 209.446C111.186 217.958 116.809 226.077 123.021 233.733C124.16 235.094 124.797 235.829 124.797 235.829C124.797 235.829 167.74 187.746 167.74 128.445C167.74 100.932 149.239 86.1887 129.409 84.2011ZM123.984 156.353C119.061 156.358 114.247 154.899 110.151 152.158C106.055 149.418 102.861 145.52 100.972 140.957C99.0834 136.394 98.5851 131.372 99.5402 126.525C100.495 121.678 102.861 117.225 106.338 113.727C109.815 110.23 114.247 107.846 119.074 106.877C123.901 105.907 128.906 106.397 133.456 108.282C138.006 110.168 141.897 113.366 144.636 117.471C147.375 121.576 148.84 126.404 148.846 131.345C148.846 137.971 146.224 144.327 141.557 149.014C136.889 153.701 130.559 156.336 123.956 156.339L123.984 156.353Z" fill="#6D90FF"/>
<path d="M228.464 99.2036C227.594 99.1195 226.719 99.0968 225.846 99.1355C218.006 99.5167 210.451 105.125 210.451 115.948C210.451 128.2 215.361 139.091 219.674 146.592C221.914 150.543 224.994 153.951 228.694 156.571C228.694 156.571 242.99 138.383 242.99 115.948C242.977 105.479 235.978 99.9523 228.464 99.2036ZM226.402 126.431C224.544 126.415 222.732 125.847 221.195 124.799C219.657 123.751 218.464 122.27 217.764 120.542C217.064 118.814 216.889 116.917 217.261 115.09C217.633 113.263 218.536 111.587 219.856 110.274C221.176 108.961 222.853 108.069 224.677 107.711C226.5 107.353 228.389 107.545 230.104 108.262C231.82 108.98 233.285 110.191 234.316 111.743C235.346 113.294 235.896 115.118 235.897 116.983C235.906 118.236 235.666 119.479 235.192 120.638C234.718 121.798 234.019 122.851 233.135 123.737C232.251 124.622 231.201 125.323 230.045 125.797C228.889 126.271 227.651 126.51 226.402 126.499V126.431Z" fill="#F68A1E"/>
<path d="M230.444 99.2034C229.574 99.1196 228.699 99.0968 227.826 99.1354C219.986 99.5166 212.418 105.125 212.418 115.948C212.418 128.2 217.247 139.091 221.655 146.592C223.53 149.841 225.657 152.936 228.016 155.849C228.437 156.367 228.681 156.639 228.681 156.639C228.681 156.639 244.957 138.451 244.957 116.016C244.971 105.479 237.945 99.9522 230.444 99.2034ZM228.382 126.431C226.521 126.431 224.701 125.876 223.153 124.838C221.605 123.8 220.398 122.325 219.686 120.598C218.973 118.872 218.787 116.972 219.15 115.14C219.513 113.307 220.41 111.623 221.726 110.302C223.043 108.981 224.72 108.081 226.546 107.716C228.372 107.352 230.265 107.539 231.985 108.254C233.705 108.969 235.175 110.18 236.209 111.734C237.243 113.288 237.796 115.114 237.796 116.983C237.804 118.229 237.568 119.465 237.099 120.619C236.63 121.773 235.938 122.823 235.063 123.707C234.188 124.592 233.147 125.294 232 125.773C230.854 126.252 229.624 126.499 228.382 126.499V126.431Z" fill="#FFAE0C"/>
<path d="M190.12 221.535L191.965 227.716L188.777 228.995L186.322 222.965L190.12 221.535Z" fill="#FFA29B"/>
<path d="M153.444 218.24L150.27 223.836L147.15 222.42L149.809 216.471L153.444 218.24Z" fill="#FFA29B"/>
<path d="M184.626 220.133L186.321 223.346L190.377 221.875L189.753 218.309L184.626 220.133Z" fill="#533E93"/>
<path d="M150.676 213.271L149.51 216.729L153.375 218.662L155.518 215.749L150.676 213.271Z" fill="#533E93"/>
<path d="M203.684 154.243L206.478 155.986C206.325 156.602 206.375 157.252 206.619 157.838C206.863 158.424 207.289 158.916 207.834 159.24C209.584 160.519 209.34 161.962 210.33 161.704C210.499 161.658 210.65 161.562 210.764 161.428C210.878 161.295 210.949 161.13 210.967 160.955C210.967 160.002 209.611 158.899 209.611 158.736C209.611 158.572 210.967 159.076 211.578 160.097C212.188 161.118 211.306 163.31 212.554 163.351C212.554 163.351 213.382 162.52 212.798 159.879C212.215 157.238 209.597 156.585 209.19 154.829L207.075 151.548L203.684 154.243Z" fill="#FFA29B"/>
<path d="M211.632 158.858C211.539 160.235 211.326 161.602 210.994 162.942C210.845 163.459 210.343 163.296 210.425 162.656C210.506 162.016 210.859 160.777 210.425 160.342L210.14 160.233C210.22 160.476 210.22 160.739 210.14 160.982C209.991 161.335 209.611 162.438 209.516 162.819C209.421 163.201 208.933 163.228 209.014 162.642C209.29 161.72 209.418 160.76 209.394 159.797L209.217 159.47C209.347 159.876 209.313 160.316 209.122 160.696C208.824 161.444 208.661 162.057 208.539 162.275C208.417 162.493 208.051 162.397 208.173 161.676C208.295 160.954 208.607 159.906 208.404 159.457C208.442 158.581 208.621 157.717 208.933 156.897L211.632 158.858Z" fill="#FFA29B"/>
<path d="M190.513 219.833L184.667 222.038C181.249 217.137 167.034 178.706 167.034 178.706L167.278 142.726H181.222L180.516 178.992C180.516 178.992 188.085 189.733 190.513 219.833Z" fill="#0B0B41"/>
<path d="M175.457 141.841L163.589 170.825L149.551 214.47L155.641 217.192C155.641 217.192 167.156 204.001 171.999 182.001C171.999 182.001 189.781 169.953 188.573 143.271C187.665 141.011 175.457 141.841 175.457 141.841Z" fill="#3B3C6A"/>
<path d="M148.9 229.213L134.577 224.189C134.36 224.118 134.18 223.963 134.076 223.759C133.972 223.555 133.952 223.319 134.021 223.1C134.095 222.823 134.185 222.55 134.292 222.283C135.201 220.051 137.723 216.607 144.559 219.098C145.651 219.517 146.715 220.004 147.747 220.555C148.778 221.14 149.876 222.923 151.002 222.256C151.124 222.193 151.259 222.16 151.396 222.16C151.532 222.16 151.667 222.193 151.789 222.256C152.047 222.365 152.264 222.624 152.06 223.168C151.857 223.713 150.948 226.177 150.338 227.824L149.999 228.709C149.914 228.918 149.753 229.086 149.549 229.179C149.344 229.273 149.112 229.285 148.9 229.213Z" fill="#0D0A3F"/>
<path opacity="0.18" d="M148.9 229.213L134.577 224.19C134.36 224.118 134.18 223.964 134.076 223.76C133.972 223.556 133.952 223.319 134.021 223.101C134.095 222.824 134.185 222.551 134.292 222.284L150.365 227.73L150.026 228.614C149.993 228.729 149.938 228.837 149.863 228.93C149.788 229.023 149.695 229.099 149.59 229.155C149.485 229.211 149.37 229.245 149.251 229.255C149.132 229.265 149.013 229.251 148.9 229.213Z" fill="white"/>
<path opacity="0.18" d="M145.848 223.36C145.629 223.28 145.451 223.116 145.352 222.904C145.252 222.693 145.241 222.45 145.319 222.23C145.242 222.452 145.08 222.634 144.869 222.736C144.658 222.838 144.415 222.852 144.194 222.774C143.972 222.697 143.791 222.534 143.689 222.322C143.587 222.11 143.574 221.866 143.651 221.644L144.56 219.099C145.651 219.518 146.716 220.005 147.747 220.555L146.947 222.815C146.87 223.031 146.712 223.209 146.507 223.31C146.302 223.412 146.066 223.43 145.848 223.36Z" fill="white"/>
<path d="M145.102 109.836C145.541 109.135 145.696 108.293 145.536 107.481C145.156 106.215 146.607 105.071 146.214 104.758C145.821 104.445 144.858 104.894 144.288 106.487C143.718 108.08 141.304 101.654 141.006 101.464C140.707 101.273 140.043 101.573 141.44 105.303C141.548 105.793 140.843 105.384 140.572 104.622C140.3 103.86 139.554 101.219 139.039 100.974C138.523 100.729 138.578 101.913 139.771 105.058C139.907 105.439 139.663 105.493 139.364 104.84C139.066 104.186 138.374 102.267 138.008 102.294C137.642 102.321 138.171 103.969 138.646 104.894C139.12 105.82 139.297 106.46 138.117 105.112C137.791 104.568 137.682 104.54 137.547 104.622C137.411 104.704 137.221 105.983 138.754 107.249C139.859 108.26 140.867 109.372 141.765 110.571C142.083 111.364 142.473 112.125 142.932 112.845L145.848 110.925C145.848 110.925 144.966 110.081 145.102 109.836Z" fill="#FFA29B"/>
<path d="M165.881 114.492C165.881 114.492 164.132 113.756 157.35 125.764C153.118 120.631 146.295 110.244 146.295 110.244C144.632 110.501 143.124 111.37 142.063 112.681C142.063 112.681 153.525 135.103 155.315 136.791C157.106 138.479 165.284 130.61 165.284 130.61L165.881 114.492Z" fill="#F68A1E"/>
<path d="M172.704 116.466C172.704 116.466 175.417 118.603 180.028 116.738V108.502L173.491 110.04L172.989 114.124L172.704 116.466Z" fill="#E5918F"/>
<path opacity="0.23" d="M173.206 112.872C174.467 114.342 178.943 113.947 179.879 110.244C179.879 109.999 179.988 109.768 180.042 109.564V108.502L173.504 110.04L173.206 112.872Z" fill="#231F20"/>
<path d="M170.575 105.82C170.446 107.228 170.82 108.636 171.63 109.793C172.44 110.95 173.633 111.781 174.996 112.136C178.008 112.681 180.992 110.163 181.643 106.528L182.036 104.322C182.133 103.806 182.174 103.281 182.158 102.757V102.621C182.126 101.731 181.933 100.854 181.588 100.034C181.243 99.2045 180.714 98.4644 180.042 97.8695C179.393 97.2882 178.594 96.9015 177.736 96.7531C174.929 96.2494 172.162 98.3868 171.266 101.613C171.266 101.858 171.144 102.103 171.09 102.362L170.697 104.554C170.63 104.973 170.589 105.396 170.575 105.82Z" fill="#FFA29B"/>
<path d="M173.206 112.871L165.257 114.627C165.257 114.627 162.233 123.177 165.257 129.793C167.021 132.829 167.102 142.739 167.102 142.739C167.102 142.739 175.715 148.294 188.573 143.229L188.438 130.296L190.716 116.138L180.042 113.416C180.042 113.416 179.404 117.091 176.393 117.091C173.382 117.091 173.206 112.871 173.206 112.871Z" fill="#FFAE0C"/>
<path d="M180.788 105.67L179.757 103.764C179.757 103.764 169.232 105.915 167.441 100.701C166.996 99.4622 166.925 98.1191 167.238 96.8404C167.552 95.5618 168.235 94.4049 169.203 93.5155C170.17 92.6261 171.378 92.0439 172.675 91.8423C173.971 91.6407 175.298 91.8288 176.488 92.3827C179.323 93.6624 178.319 96.8208 179.635 97.5559C182.158 97.5559 183.446 104.444 181.263 108.011L180.788 105.67Z" fill="#0E093F"/>
<path d="M180.788 107.467C181.672 107.467 182.389 106.747 182.389 105.86C182.389 104.973 181.672 104.254 180.788 104.254C179.904 104.254 179.188 104.973 179.188 105.86C179.188 106.747 179.904 107.467 180.788 107.467Z" fill="#FFA29B"/>
<path d="M190.716 116.37C190.716 116.348 190.725 116.327 190.74 116.312C190.755 116.297 190.776 116.288 190.798 116.288C190.819 116.288 190.84 116.297 190.855 116.312C190.87 116.327 190.879 116.348 190.879 116.37C191.666 118.752 196.603 133.577 199.017 138.151C201.73 143.039 209.258 152.582 209.258 152.582L204.863 156.503L191.733 142.004L188.438 132.829V129.561L190.716 116.37Z" fill="#F68A1E"/>
<path opacity="0.18" d="M181.304 228.288L181.887 230.357C181.952 230.583 182.103 230.773 182.308 230.887C182.513 231.001 182.754 231.028 182.979 230.963C183.204 230.898 183.394 230.746 183.507 230.54C183.62 230.335 183.647 230.093 183.582 229.867C183.615 229.98 183.67 230.085 183.743 230.176C183.817 230.267 183.907 230.343 184.01 230.4C184.113 230.456 184.225 230.491 184.342 230.504C184.458 230.516 184.576 230.506 184.688 230.473C184.8 230.44 184.905 230.385 184.996 230.311C185.087 230.237 185.163 230.146 185.219 230.043C185.275 229.94 185.31 229.827 185.322 229.711C185.335 229.594 185.324 229.476 185.291 229.363L184.898 228.002H184.505C183.431 227.985 182.358 228.081 181.304 228.288Z" fill="white"/>
<path d="M128.107 221.985L129.463 223.033C131.852 220.065 134.066 216.96 136.096 213.735C136.458 213.187 136.789 212.619 137.086 212.033L135.377 210.672L137.954 210.168C142.023 199.727 132.027 194.744 124.648 205.893L126.167 207.582L122.777 208.739C115.642 220.651 112.333 231.364 115.344 233.243C117.582 234.604 122.709 230.915 128.378 224.19L128.107 221.985Z" fill="#DD9414"/>
<path d="M115.519 233.447H115.438C115.411 233.417 115.396 233.378 115.396 233.338C115.396 233.298 115.411 233.259 115.438 233.229L133.342 205.076C133.356 205.061 133.373 205.05 133.391 205.042C133.41 205.033 133.43 205.029 133.45 205.029C133.471 205.029 133.491 205.033 133.51 205.042C133.528 205.05 133.545 205.061 133.559 205.076C133.573 205.089 133.585 205.105 133.593 205.122C133.601 205.14 133.605 205.159 133.605 205.178C133.605 205.198 133.601 205.217 133.593 205.234C133.585 205.252 133.573 205.268 133.559 205.28L115.641 233.447C115.622 233.457 115.602 233.462 115.58 233.462C115.559 233.462 115.538 233.457 115.519 233.447Z" fill="#282828"/>
<path d="M112.4 217.968L113.756 217.287C112.211 214.074 110.486 210.952 108.588 207.935C108.249 207.39 107.897 206.887 107.544 206.41L105.699 207.309L106.31 204.926C99.1482 197.303 90.9557 203.769 97.3713 214.456L99.4872 213.829L99.0939 217.165C106.269 227.974 114.014 235.08 116.727 233.297C118.829 231.935 117.717 226.122 114.326 218.621L112.4 217.968Z" fill="#DD9414"/>
<path d="M116.876 233.338C116.848 233.339 116.821 233.331 116.797 233.317C116.773 233.302 116.753 233.281 116.741 233.256L100.234 206.805C100.207 206.775 100.192 206.737 100.192 206.696C100.192 206.656 100.207 206.617 100.234 206.587C100.264 206.561 100.302 206.546 100.342 206.546C100.382 206.546 100.421 206.561 100.451 206.587L116.958 233.039C116.973 233.053 116.984 233.07 116.992 233.088C117 233.107 117.005 233.127 117.005 233.148C117.005 233.168 117 233.188 116.992 233.207C116.984 233.226 116.973 233.242 116.958 233.256L116.876 233.338Z" fill="#282828"/>
<path d="M121.298 214.279L123.251 214.456C123.664 209.976 123.827 205.477 123.739 200.979C123.739 200.175 123.739 199.399 123.604 198.651L121.013 198.419L123.224 196.241C120.416 183.322 107.382 184.969 107.368 200.774L110.081 201.469L107.477 204.858C108.209 221.195 111.912 233.923 116.13 233.855C119.263 233.855 121.854 226.735 123.048 216.43L121.298 214.279Z" fill="#FFAE0C"/>
<path d="M116.265 233.787C116.226 233.787 116.188 233.771 116.16 233.743C116.132 233.715 116.116 233.677 116.116 233.637L115.424 194.267C115.423 194.246 115.425 194.225 115.432 194.205C115.438 194.186 115.449 194.167 115.463 194.152C115.477 194.137 115.494 194.124 115.513 194.116C115.532 194.108 115.553 194.103 115.574 194.104C115.613 194.104 115.651 194.119 115.679 194.147C115.707 194.175 115.723 194.214 115.723 194.253L116.428 233.637C116.428 233.677 116.412 233.715 116.384 233.743C116.356 233.771 116.319 233.787 116.279 233.787H116.265Z" fill="#282828"/>
<path d="M93.8311 235.775H143.637C143.637 235.775 136.136 219.139 124.254 220.187C112.373 221.235 113.403 231.078 104.994 226.095C96.5845 221.113 93.8311 235.775 93.8311 235.775Z" fill="#3B3C6A"/>
<path d="M226.131 177.508L224.775 176.065C224.166 175.492 223.359 175.179 222.524 175.192C221.689 175.205 220.892 175.544 220.302 176.136C219.712 176.729 219.374 177.529 219.361 178.367C219.348 179.205 219.66 180.015 220.231 180.626L221.669 181.987L226.131 177.508Z" fill="#6D90FF"/>
<path d="M219.77 183.894L225.304 178.339C227.361 176.274 230.152 175.114 233.062 175.114C235.972 175.114 238.763 176.274 240.82 178.339L272.356 209.991C274.413 212.056 275.569 214.857 275.569 217.778C275.569 220.698 274.413 223.499 272.356 225.565L266.822 231.119C266.498 231.445 266.113 231.704 265.69 231.88C265.266 232.057 264.812 232.148 264.353 232.148C263.895 232.148 263.44 232.057 263.017 231.88C262.593 231.704 262.209 231.445 261.885 231.119L219.837 188.849C219.508 188.528 219.245 188.146 219.063 187.723C218.882 187.3 218.785 186.846 218.779 186.385C218.772 185.925 218.857 185.468 219.027 185.04C219.197 184.613 219.449 184.223 219.77 183.894Z" fill="#2F19BB"/>
<path d="M242.258 178.802L243.614 177.44C244.686 176.365 247.426 177.359 249.718 179.673L266.673 196.608C268.978 198.909 269.969 201.645 268.897 202.721L267.541 204.082C267.202 204.436 266.333 204.082 265.601 203.374L242.99 180.748C242.258 180.013 241.932 179.142 242.258 178.802Z" fill="#6D90FF"/>
<path d="M259.335 224.966C259.492 224.809 259.617 224.622 259.702 224.416C259.788 224.211 259.831 223.99 259.831 223.768C259.831 223.545 259.788 223.324 259.702 223.119C259.617 222.913 259.492 222.727 259.335 222.57L208.905 171.954C208.376 171.425 207.957 170.795 207.671 170.103C207.385 169.41 207.237 168.668 207.237 167.918C207.237 167.168 207.385 166.426 207.671 165.733C207.957 165.041 208.376 164.411 208.905 163.882L212.974 159.797C213.264 159.474 213.419 159.052 213.408 158.617C213.397 158.182 213.221 157.768 212.915 157.46C212.61 157.151 212.198 156.972 211.765 156.959C211.332 156.945 210.911 157.099 210.587 157.388L206.518 161.472C204.824 163.181 203.873 165.494 203.873 167.904C203.873 170.315 204.824 172.628 206.518 174.337L256.961 224.952C257.274 225.269 257.7 225.448 258.145 225.451C258.59 225.453 259.018 225.279 259.335 224.966Z" fill="#0D0A3F"/>
<path d="M264.109 237.014C266.911 237.014 269.182 234.734 269.182 231.923C269.182 229.111 266.911 226.831 264.109 226.831C261.307 226.831 259.036 229.111 259.036 231.923C259.036 234.734 261.307 237.014 264.109 237.014Z" fill="#0D0A3F"/>
<path opacity="0.53" d="M248.104 192.361L267.812 212.142C268.275 212.596 268.644 213.138 268.898 213.736C269.151 214.334 269.284 214.977 269.288 215.626C269.292 216.276 269.168 216.921 268.922 217.522C268.676 218.123 268.314 218.67 267.857 219.13C267.4 219.59 266.856 219.954 266.257 220.202C265.658 220.45 265.017 220.576 264.369 220.573C263.722 220.57 263.081 220.438 262.485 220.185C261.888 219.932 261.348 219.563 260.895 219.098L241.187 199.318L248.104 192.361Z" fill="#C2D0FF"/>
<path d="M230.96 224.993L232.018 225.85C233.969 223.429 235.78 220.897 237.443 218.268C237.742 217.791 238.013 217.328 238.244 216.906L236.887 215.776L238.99 215.368C242.299 206.846 234.161 202.789 228.139 211.883L229.414 213.312L226.701 214.252C220.869 223.972 218.169 232.712 220.638 234.291C222.455 235.462 226.647 232.385 231.258 226.899L230.96 224.993Z" fill="#DD9414"/>
<path d="M220.692 234.345C220.68 234.333 220.671 234.32 220.664 234.305C220.658 234.289 220.654 234.273 220.654 234.256C220.654 234.24 220.658 234.224 220.664 234.208C220.671 234.193 220.68 234.179 220.692 234.168L235.3 211.202C235.311 211.19 235.325 211.18 235.34 211.174C235.355 211.167 235.372 211.164 235.388 211.164C235.405 211.164 235.421 211.167 235.436 211.174C235.451 211.18 235.465 211.19 235.476 211.202C235.496 211.224 235.507 211.253 235.507 211.284C235.507 211.314 235.496 211.343 235.476 211.365L220.855 234.345C220.846 234.359 220.834 234.371 220.82 234.379C220.806 234.387 220.79 234.391 220.773 234.391C220.757 234.391 220.741 234.387 220.727 234.379C220.712 234.371 220.7 234.359 220.692 234.345Z" fill="#282828"/>
<path d="M218.142 221.712L219.295 221.167C218.039 218.541 216.631 215.991 215.077 213.53C214.806 213.081 214.521 212.672 214.236 212.291L212.717 213.013L213.219 211.08C207.373 204.858 200.686 210.127 205.935 218.88L207.658 218.363L207.332 221.085C213.178 229.907 219.458 235.706 221.764 234.25C223.487 233.174 222.578 228.396 219.811 222.283L218.142 221.712Z" fill="#DD9414"/>
<path d="M221.791 234.25C221.776 234.258 221.76 234.263 221.743 234.263C221.726 234.263 221.71 234.258 221.696 234.25L208.213 212.659C208.195 212.633 208.185 212.602 208.185 212.57C208.185 212.539 208.195 212.508 208.213 212.482C208.238 212.461 208.269 212.449 208.302 212.449C208.334 212.449 208.365 212.461 208.39 212.482L221.913 234.059C221.925 234.071 221.934 234.085 221.941 234.1C221.947 234.115 221.95 234.131 221.95 234.148C221.95 234.164 221.947 234.181 221.941 234.196C221.934 234.211 221.925 234.225 221.913 234.236L221.791 234.25Z" fill="#282828"/>
<path d="M225.399 218.704L226.999 218.853C227.337 215.197 227.468 211.525 227.392 207.854C227.392 207.217 227.355 206.581 227.284 205.948L225.168 205.757L226.972 203.987C224.693 193.437 214.046 194.785 214.032 207.663L216.23 208.221L214.127 210.944C214.724 224.312 217.749 234.659 221.194 234.604C223.744 234.604 225.86 228.805 226.836 220.378L225.399 218.704Z" fill="#FFAE0C"/>
<path d="M221.302 234.617C221.27 234.617 221.239 234.604 221.216 234.581C221.193 234.558 221.18 234.527 221.18 234.495L220.61 202.367C220.61 202.334 220.623 202.303 220.646 202.28C220.669 202.257 220.7 202.244 220.732 202.244C220.765 202.244 220.796 202.257 220.819 202.28C220.842 202.303 220.854 202.334 220.854 202.367L221.424 234.495C221.424 234.527 221.411 234.558 221.388 234.581C221.366 234.604 221.334 234.617 221.302 234.617Z" fill="#282828"/>
<path d="M202.991 236.251H243.682C243.682 236.251 237.551 222.638 227.853 223.523C218.155 224.408 218.956 232.399 212.133 228.342C205.311 224.285 202.991 236.251 202.991 236.251Z" fill="#3B3C6A"/>
</g>
<path d="M29.6679 48.667V34.507H24.0999V31.867H38.3559V34.507H32.7879V48.667H29.6679ZM40.6974 48.667V31.867H47.6094C49.0974 31.867 50.3694 32.107 51.4254 32.587C52.4974 33.067 53.3214 33.755 53.8974 34.651C54.4734 35.547 54.7614 36.611 54.7614 37.843C54.7614 39.075 54.4734 40.139 53.8974 41.035C53.3214 41.915 52.4974 42.595 51.4254 43.075C50.3694 43.539 49.0974 43.771 47.6094 43.771H42.4254L43.8174 42.355V48.667H40.6974ZM51.6894 48.667L47.4414 42.571H50.7774L55.0494 48.667H51.6894ZM43.8174 42.691L42.4254 41.203H47.4654C48.8414 41.203 49.8734 40.907 50.5614 40.315C51.2654 39.723 51.6174 38.899 51.6174 37.843C51.6174 36.771 51.2654 35.947 50.5614 35.371C49.8734 34.795 48.8414 34.507 47.4654 34.507H42.4254L43.8174 32.971V42.691ZM55.8761 48.667L63.4361 31.867H66.5081L74.0921 48.667H70.8281L64.3241 33.523H65.5721L59.0921 48.667H55.8761ZM59.3561 44.779L60.1961 42.331H69.2681L70.1081 44.779H59.3561ZM65.5721 30.739L64.5881 29.635C65.0521 29.411 65.3801 29.179 65.5721 28.939C65.7801 28.683 65.8841 28.403 65.8841 28.099C65.8841 27.779 65.7721 27.523 65.5481 27.331C65.3241 27.139 65.0361 27.043 64.6841 27.043C64.1881 27.043 63.7081 27.195 63.2441 27.499L62.5961 26.179C62.9321 25.939 63.3081 25.755 63.7241 25.627C64.1401 25.499 64.5641 25.435 64.9961 25.435C65.7801 25.435 66.4121 25.659 66.8921 26.107C67.3881 26.539 67.6361 27.115 67.6361 27.835C67.6361 28.491 67.4681 29.059 67.1321 29.539C66.7961 30.019 66.2761 30.419 65.5721 30.739ZM76.2287 48.667V31.867H79.3487V48.667H76.2287ZM90.5255 48.667V31.867H97.4375C98.9255 31.867 100.198 32.107 101.254 32.587C102.326 33.067 103.15 33.755 103.726 34.651C104.302 35.547 104.59 36.611 104.59 37.843C104.59 39.075 104.302 40.139 103.726 41.035C103.15 41.915 102.326 42.595 101.254 43.075C100.198 43.539 98.9255 43.771 97.4375 43.771H92.2535L93.6455 42.355V48.667H90.5255ZM101.518 48.667L97.2695 42.571H100.606L104.878 48.667H101.518ZM93.6455 42.691L92.2535 41.203H97.2935C98.6695 41.203 99.7015 40.907 100.39 40.315C101.094 39.723 101.446 38.899 101.446 37.843C101.446 36.771 101.094 35.947 100.39 35.371C99.7015 34.795 98.6695 34.507 97.2935 34.507H92.2535L93.6455 32.971V42.691ZM115.952 48.907C114.64 48.907 113.432 48.691 112.328 48.259C111.224 47.827 110.264 47.227 109.448 46.459C108.632 45.675 108 44.763 107.552 43.723C107.104 42.667 106.88 41.515 106.88 40.267C106.88 39.019 107.104 37.875 107.552 36.835C108 35.779 108.632 34.867 109.448 34.099C110.264 33.315 111.224 32.707 112.328 32.275C113.432 31.843 114.632 31.627 115.928 31.627C117.24 31.627 118.44 31.843 119.528 32.275C120.632 32.707 121.592 33.315 122.408 34.099C123.224 34.867 123.856 35.779 124.304 36.835C124.752 37.875 124.976 39.019 124.976 40.267C124.976 41.515 124.752 42.667 124.304 43.723C123.856 44.779 123.224 45.691 122.408 46.459C121.592 47.227 120.632 47.827 119.528 48.259C118.44 48.691 117.248 48.907 115.952 48.907ZM115.928 46.171C116.776 46.171 117.56 46.027 118.28 45.739C119 45.451 119.624 45.043 120.152 44.515C120.68 43.971 121.088 43.347 121.376 42.643C121.68 41.923 121.832 41.131 121.832 40.267C121.832 39.403 121.68 38.619 121.376 37.915C121.088 37.195 120.68 36.571 120.152 36.043C119.624 35.499 119 35.083 118.28 34.795C117.56 34.507 116.776 34.363 115.928 34.363C115.08 34.363 114.296 34.507 113.576 34.795C112.872 35.083 112.248 35.499 111.704 36.043C111.176 36.571 110.76 37.195 110.456 37.915C110.168 38.619 110.024 39.403 110.024 40.267C110.024 41.115 110.168 41.899 110.456 42.619C110.76 43.339 111.176 43.971 111.704 44.515C112.232 45.043 112.856 45.451 113.576 45.739C114.296 46.027 115.08 46.171 115.928 46.171ZM115.928 53.539C115.528 53.539 115.184 53.411 114.896 53.155C114.624 52.899 114.488 52.555 114.488 52.123C114.488 51.691 114.624 51.339 114.896 51.067C115.184 50.795 115.528 50.659 115.928 50.659C116.328 50.659 116.664 50.795 116.936 51.067C117.224 51.339 117.368 51.691 117.368 52.123C117.368 52.555 117.224 52.899 116.936 53.155C116.664 53.411 116.328 53.539 115.928 53.539ZM111.344 30.499L114.56 27.211H117.296L120.512 30.499H118.04L114.776 27.739H117.08L113.816 30.499H111.344ZM128.283 48.667V31.867H130.851L141.387 44.803H140.115V31.867H143.211V48.667H140.643L130.107 35.731H131.379V48.667H128.283ZM155.561 48.907C154.249 48.907 153.041 48.699 151.937 48.283C150.849 47.851 149.897 47.251 149.081 46.483C148.265 45.699 147.633 44.779 147.185 43.723C146.737 42.667 146.513 41.515 146.513 40.267C146.513 39.019 146.737 37.867 147.185 36.811C147.633 35.755 148.265 34.843 149.081 34.075C149.913 33.291 150.881 32.691 151.985 32.275C153.089 31.843 154.297 31.627 155.609 31.627C157.033 31.627 158.313 31.859 159.449 32.323C160.601 32.787 161.569 33.467 162.353 34.363L160.385 36.283C159.729 35.627 159.017 35.147 158.249 34.843C157.497 34.523 156.665 34.363 155.753 34.363C154.873 34.363 154.057 34.507 153.305 34.795C152.553 35.083 151.905 35.491 151.361 36.019C150.817 36.547 150.393 37.171 150.089 37.891C149.801 38.611 149.657 39.403 149.657 40.267C149.657 41.115 149.801 41.899 150.089 42.619C150.393 43.339 150.817 43.971 151.361 44.515C151.905 45.043 152.545 45.451 153.281 45.739C154.017 46.027 154.833 46.171 155.729 46.171C156.561 46.171 157.361 46.043 158.129 45.787C158.913 45.515 159.657 45.067 160.361 44.443L162.137 46.771C161.257 47.475 160.233 48.011 159.065 48.379C157.913 48.731 156.745 48.907 155.561 48.907ZM159.185 46.363V40.075H162.137V46.771L159.185 46.363Z" fill="#0C0055"/>
<path d="M29.4384 77.707L29.2704 74.011L38.0784 64.867H41.5824L34.2624 72.643L32.5344 74.539L29.4384 77.707ZM26.6544 81.667V64.867H29.7744V81.667H26.6544ZM38.3664 81.667L31.9344 74.011L33.9984 71.731L42.0144 81.667H38.3664ZM55.9468 64.867H59.0668V81.667H55.9468V64.867ZM47.2588 81.667H44.1388V64.867H47.2588V81.667ZM56.1868 74.467H46.9948V71.803H56.1868V74.467ZM61.1925 81.667L68.7525 64.867H71.8245L79.4085 81.667H76.1445L69.6405 66.523H70.8885L64.4085 81.667H61.1925ZM64.6725 77.779L65.5125 75.331H74.5845L75.4245 77.779H64.6725ZM70.2885 63.667C69.1365 63.667 68.1765 63.427 67.4085 62.947C66.6565 62.451 66.2325 61.779 66.1365 60.931H68.0565C68.1045 61.283 68.3365 61.571 68.7525 61.795C69.1685 62.003 69.6805 62.107 70.2885 62.107C70.8965 62.107 71.4085 62.003 71.8245 61.795C72.2405 61.571 72.4725 61.283 72.5205 60.931H74.4405C74.3605 61.779 73.9365 62.451 73.1685 62.947C72.4005 63.427 71.4405 63.667 70.2885 63.667ZM68.4405 60.283L71.1765 57.475H74.3925L70.7445 60.283H68.4405ZM81.5451 81.667V64.867H88.4571C89.9451 64.867 91.2171 65.107 92.2731 65.587C93.3451 66.067 94.1691 66.755 94.7451 67.651C95.3211 68.547 95.6091 69.611 95.6091 70.843C95.6091 72.075 95.3211 73.139 94.7451 74.035C94.1691 74.931 93.3451 75.619 92.2731 76.099C91.2171 76.579 89.9451 76.819 88.4571 76.819H83.2731L84.6651 75.355V81.667H81.5451ZM84.6651 75.691L83.2731 74.179H88.3131C89.6891 74.179 90.7211 73.891 91.4091 73.315C92.1131 72.723 92.4651 71.899 92.4651 70.843C92.4651 69.771 92.1131 68.947 91.4091 68.371C90.7211 67.795 89.6891 67.507 88.3131 67.507H83.2731L84.6651 65.971V75.691ZM105.592 81.667V64.867H108.16L118.696 77.803H117.424V64.867H120.52V81.667H117.952L107.416 68.731H108.688V81.667H105.592ZM132.246 81.907C129.942 81.907 128.134 81.259 126.822 79.963C125.526 78.667 124.878 76.795 124.878 74.347V64.867H127.998V74.227C127.998 75.955 128.366 77.211 129.102 77.995C129.854 78.779 130.91 79.171 132.27 79.171C133.63 79.171 134.678 78.779 135.414 77.995C136.15 77.211 136.518 75.955 136.518 74.227V64.867H139.59V74.347C139.59 76.795 138.934 78.667 137.622 79.963C136.326 81.259 134.534 81.907 132.246 81.907ZM138.03 67.003V64.867H138.534C139.03 64.867 139.398 64.723 139.638 64.435C139.894 64.147 140.022 63.779 140.022 63.331C140.022 63.043 139.974 62.771 139.878 62.515C139.798 62.259 139.686 62.035 139.542 61.843L141.39 61.171C141.614 61.459 141.79 61.795 141.918 62.179C142.046 62.563 142.11 62.979 142.11 63.427C142.11 64.531 141.79 65.403 141.15 66.043C140.51 66.683 139.63 67.003 138.51 67.003H138.03ZM152.089 81.907C150.777 81.907 149.569 81.691 148.465 81.259C147.361 80.827 146.401 80.227 145.585 79.459C144.769 78.675 144.137 77.755 143.689 76.699C143.241 75.643 143.017 74.499 143.017 73.267C143.017 72.019 143.241 70.867 143.689 69.811C144.137 68.755 144.769 67.843 145.585 67.075C146.417 66.291 147.393 65.691 148.513 65.275C149.633 64.843 150.857 64.627 152.185 64.627C153.113 64.627 153.937 64.683 154.657 64.795C155.377 64.907 156.049 64.963 156.673 64.963C157.345 64.963 157.865 64.827 158.233 64.555C158.617 64.267 158.809 63.851 158.809 63.307C158.809 63.003 158.761 62.731 158.665 62.491C158.569 62.251 158.457 62.027 158.329 61.819L160.153 61.147C160.377 61.451 160.553 61.795 160.681 62.179C160.809 62.563 160.873 62.971 160.873 63.403C160.873 64.491 160.489 65.339 159.721 65.947C158.969 66.539 157.913 66.835 156.553 66.835C156.025 66.835 155.481 66.803 154.921 66.739C154.361 66.675 153.833 66.611 153.337 66.547L157.153 66.091C157.937 66.539 158.625 67.123 159.217 67.843C159.809 68.563 160.273 69.387 160.609 70.315C160.945 71.227 161.113 72.211 161.113 73.267C161.113 74.515 160.889 75.667 160.441 76.723C159.993 77.779 159.361 78.691 158.545 79.459C157.729 80.227 156.769 80.827 155.665 81.259C154.577 81.691 153.385 81.907 152.089 81.907ZM152.065 79.171C152.913 79.171 153.697 79.027 154.417 78.739C155.137 78.451 155.761 78.043 156.289 77.515C156.817 76.971 157.225 76.339 157.513 75.619C157.817 74.899 157.969 74.115 157.969 73.267C157.969 72.419 157.817 71.635 157.513 70.915C157.225 70.195 156.817 69.571 156.289 69.043C155.761 68.499 155.137 68.083 154.417 67.795C153.697 67.507 152.913 67.363 152.065 67.363C151.217 67.363 150.433 67.507 149.713 67.795C148.993 68.083 148.369 68.499 147.841 69.043C147.313 69.571 146.897 70.195 146.593 70.915C146.305 71.619 146.161 72.403 146.161 73.267C146.161 74.115 146.305 74.899 146.593 75.619C146.897 76.339 147.313 76.971 147.841 77.515C148.369 78.043 148.993 78.451 149.713 78.739C150.433 79.027 151.217 79.171 152.065 79.171ZM150.049 63.499L153.289 60.211H156.817L152.641 63.499H150.049ZM172.196 81.907C170.916 81.907 169.724 81.699 168.62 81.283C167.532 80.851 166.58 80.251 165.764 79.483C164.964 78.699 164.34 77.779 163.892 76.723C163.444 75.667 163.22 74.515 163.22 73.267C163.22 72.019 163.444 70.867 163.892 69.811C164.34 68.755 164.972 67.843 165.788 67.075C166.604 66.291 167.556 65.691 168.644 65.275C169.732 64.843 170.924 64.627 172.22 64.627C173.596 64.627 174.852 64.867 175.988 65.347C177.124 65.811 178.084 66.507 178.868 67.435L176.852 69.331C176.244 68.675 175.564 68.187 174.812 67.867C174.06 67.531 173.244 67.363 172.364 67.363C171.484 67.363 170.676 67.507 169.94 67.795C169.22 68.083 168.588 68.491 168.044 69.019C167.516 69.547 167.1 70.171 166.796 70.891C166.508 71.611 166.364 72.403 166.364 73.267C166.364 74.131 166.508 74.923 166.796 75.643C167.1 76.363 167.516 76.987 168.044 77.515C168.588 78.043 169.22 78.451 169.94 78.739C170.676 79.027 171.484 79.171 172.364 79.171C173.244 79.171 174.06 79.011 174.812 78.691C175.564 78.355 176.244 77.851 176.852 77.179L178.868 79.099C178.084 80.011 177.124 80.707 175.988 81.187C174.852 81.667 173.588 81.907 172.196 81.907Z" fill="#0C0055"/>
<path d="M171.612 103.748C171.612 103.748 172.153 102.967 173.024 102.937C173.144 102.937 173.264 102.817 173.234 102.697C173.204 102.486 173.054 102.216 172.633 102.096C172.633 102.096 171.702 102.126 171.311 103.418C171.311 103.388 171.251 103.658 171.612 103.748Z" fill="#0C0055"/>
<path d="M175.098 102.667C175.098 102.396 175.188 102.066 175.488 101.915C175.488 101.915 177.231 101.855 177.772 103.177C177.772 103.177 177.682 103.538 177.321 103.538C177.321 103.538 176.39 102.907 175.398 102.967C175.218 102.967 175.098 102.817 175.098 102.667Z" fill="#0C0055"/>
<path d="M173.115 105.251C173.115 105.731 172.964 106.092 172.814 106.092C172.634 106.092 172.514 105.701 172.514 105.251C172.514 104.8 172.664 104.409 172.814 104.409C172.964 104.409 173.115 104.77 173.115 105.251Z" fill="#0C0055"/>
<path d="M176.932 105.371C176.932 105.852 176.782 106.213 176.632 106.213C176.451 106.213 176.331 105.822 176.331 105.371C176.331 104.891 176.481 104.53 176.632 104.53C176.812 104.5 176.932 104.891 176.932 105.371Z" fill="#0C0055"/>
<path d="M174.468 109.216L177.773 107.203C177.773 107.203 178.735 109.126 177.322 109.907C175.489 110.929 174.468 109.216 174.468 109.216Z" fill="#E25555"/>
<path d="M176.03 110.238C176.391 110.268 176.842 110.178 177.352 109.908C178.164 109.457 178.194 108.616 178.043 108.015C176.631 108.045 176.181 109.547 176.03 110.238Z" fill="#F76B6B"/>
<path d="M178.043 107.984C177.953 107.533 177.773 107.173 177.773 107.173L174.468 109.186C174.468 109.186 174.648 109.517 175.039 109.787L178.043 107.984Z" fill="white"/>
<defs>
<clipPath id="clip0_2507_118797">
<rect width="234" height="171" fill="white" transform="translate(70 66)"/>
</clipPath>
</defs>
</svg>
