<svg width="311" height="251" viewBox="0 0 311 251" fill="none" xmlns="http://www.w3.org/2000/svg">
<rect width="311" height="250" transform="translate(0 0.666992)" fill="#595959"/>
<path d="M26.2833 48.667V31.867H28.8513L36.1953 44.131H34.8513L42.0753 31.867H44.6433L44.6673 48.667H41.7153L41.6913 36.499H42.3153L36.1713 46.747H34.7793L28.5393 36.499H29.2593V48.667H26.2833ZM49.2052 48.667V31.867H52.3252V48.667H49.2052ZM56.8693 48.667V31.867H59.4373L69.9733 44.803H68.7013V31.867H71.7973V48.667H69.2293L58.6933 35.731H59.9653V48.667H56.8693ZM88.107 31.867H91.227V48.667H88.107V31.867ZM79.419 48.667H76.299V31.867H79.419V48.667ZM88.347 41.467H79.155V38.803H88.347V41.467ZM102.361 48.667V31.867H110.233C112.249 31.867 113.785 32.267 114.841 33.067C115.897 33.851 116.425 34.907 116.425 36.235C116.425 37.131 116.217 37.899 115.801 38.539C115.385 39.163 114.825 39.651 114.121 40.003C113.433 40.339 112.681 40.507 111.865 40.507L112.297 39.643C113.241 39.643 114.089 39.819 114.841 40.171C115.593 40.507 116.185 41.003 116.617 41.659C117.065 42.315 117.289 43.131 117.289 44.107C117.289 45.547 116.737 46.667 115.633 47.467C114.529 48.267 112.889 48.667 110.713 48.667H102.361ZM105.481 46.219H110.521C111.689 46.219 112.585 46.027 113.209 45.643C113.833 45.259 114.145 44.643 114.145 43.795C114.145 42.963 113.833 42.355 113.209 41.971C112.585 41.571 111.689 41.371 110.521 41.371H105.241V38.947H109.897C110.985 38.947 111.817 38.755 112.393 38.371C112.985 37.987 113.281 37.411 113.281 36.643C113.281 35.859 112.985 35.275 112.393 34.891C111.817 34.507 110.985 34.315 109.897 34.315H105.481V46.219ZM118.243 48.667L125.803 31.867H128.875L136.459 48.667H133.195L126.691 33.523H127.939L121.459 48.667H118.243ZM121.723 44.779L122.563 42.331H131.635L132.475 44.779H121.723ZM127.339 53.539C126.939 53.539 126.595 53.411 126.307 53.155C126.035 52.899 125.899 52.555 125.899 52.123C125.899 51.691 126.035 51.339 126.307 51.067C126.595 50.795 126.939 50.659 127.339 50.659C127.739 50.659 128.075 50.795 128.347 51.067C128.635 51.339 128.779 51.691 128.779 52.123C128.779 52.555 128.635 52.899 128.347 53.155C128.075 53.411 127.739 53.539 127.339 53.539ZM146.137 48.907C144.857 48.907 143.665 48.699 142.561 48.283C141.473 47.851 140.521 47.251 139.705 46.483C138.905 45.699 138.281 44.779 137.833 43.723C137.385 42.667 137.161 41.515 137.161 40.267C137.161 39.019 137.385 37.867 137.833 36.811C138.281 35.755 138.913 34.843 139.729 34.075C140.545 33.291 141.497 32.691 142.585 32.275C143.673 31.843 144.865 31.627 146.161 31.627C147.537 31.627 148.793 31.867 149.929 32.347C151.065 32.811 152.025 33.507 152.809 34.435L150.793 36.331C150.185 35.675 149.505 35.187 148.753 34.867C148.001 34.531 147.185 34.363 146.305 34.363C145.425 34.363 144.617 34.507 143.881 34.795C143.161 35.083 142.529 35.491 141.985 36.019C141.457 36.547 141.041 37.171 140.737 37.891C140.449 38.611 140.305 39.403 140.305 40.267C140.305 41.131 140.449 41.923 140.737 42.643C141.041 43.363 141.457 43.987 141.985 44.515C142.529 45.043 143.161 45.451 143.881 45.739C144.617 46.027 145.425 46.171 146.305 46.171C147.185 46.171 148.001 46.011 148.753 45.691C149.505 45.355 150.185 44.851 150.793 44.179L152.809 46.099C152.025 47.011 151.065 47.707 149.929 48.187C148.793 48.667 147.529 48.907 146.137 48.907ZM167.607 31.867H170.727V48.667H167.607V31.867ZM158.919 48.667H155.799V31.867H158.919V48.667ZM167.847 41.467H158.655V38.803H167.847V41.467Z" fill="white"/>
<path d="M34.1665 81.907C32.8545 81.907 31.6465 81.699 30.5425 81.283C29.4545 80.851 28.5025 80.251 27.6865 79.483C26.8705 78.699 26.2385 77.779 25.7905 76.723C25.3425 75.667 25.1185 74.515 25.1185 73.267C25.1185 72.019 25.3425 70.867 25.7905 69.811C26.2385 68.755 26.8705 67.843 27.6865 67.075C28.5185 66.291 29.4865 65.691 30.5905 65.275C31.6945 64.843 32.9025 64.627 34.2145 64.627C35.6385 64.627 36.9185 64.859 38.0545 65.323C39.2065 65.787 40.1745 66.467 40.9585 67.363L38.9905 69.283C38.3345 68.627 37.6225 68.147 36.8545 67.843C36.1025 67.523 35.2705 67.363 34.3585 67.363C33.4785 67.363 32.6625 67.507 31.9105 67.795C31.1585 68.083 30.5105 68.491 29.9665 69.019C29.4225 69.547 28.9985 70.171 28.6945 70.891C28.4065 71.611 28.2625 72.403 28.2625 73.267C28.2625 74.115 28.4065 74.899 28.6945 75.619C28.9985 76.339 29.4225 76.971 29.9665 77.515C30.5105 78.043 31.1505 78.451 31.8865 78.739C32.6225 79.027 33.4385 79.171 34.3345 79.171C35.1665 79.171 35.9665 79.043 36.7345 78.787C37.5185 78.515 38.2625 78.067 38.9665 77.443L40.7425 79.771C39.8625 80.475 38.8385 81.011 37.6705 81.379C36.5185 81.731 35.3505 81.907 34.1665 81.907ZM37.7905 79.363V73.075H40.7425V79.771L37.7905 79.363ZM44.8576 81.667V64.867H47.9776V81.667H44.8576ZM50.1456 81.667L57.7056 64.867H60.7776L68.3616 81.667H65.0976L58.5936 66.523H59.8416L53.3616 81.667H50.1456ZM53.6256 77.779L54.4656 75.331H63.5376L64.3776 77.779H53.6256ZM57.2256 63.499L60.4656 60.211H63.9936L59.8176 63.499H57.2256ZM84.907 81.907C83.627 81.907 82.435 81.699 81.331 81.283C80.243 80.851 79.291 80.251 78.475 79.483C77.675 78.699 77.051 77.779 76.603 76.723C76.155 75.667 75.931 74.515 75.931 73.267C75.931 72.019 76.155 70.867 76.603 69.811C77.051 68.755 77.683 67.843 78.499 67.075C79.315 66.291 80.267 65.691 81.355 65.275C82.443 64.843 83.635 64.627 84.931 64.627C86.307 64.627 87.563 64.867 88.699 65.347C89.835 65.811 90.795 66.507 91.579 67.435L89.563 69.331C88.955 68.675 88.275 68.187 87.523 67.867C86.771 67.531 85.955 67.363 85.075 67.363C84.195 67.363 83.387 67.507 82.651 67.795C81.931 68.083 81.299 68.491 80.755 69.019C80.227 69.547 79.811 70.171 79.507 70.891C79.219 71.611 79.075 72.403 79.075 73.267C79.075 74.131 79.219 74.923 79.507 75.643C79.811 76.363 80.227 76.987 80.755 77.515C81.299 78.043 81.931 78.451 82.651 78.739C83.387 79.027 84.195 79.171 85.075 79.171C85.955 79.171 86.771 79.011 87.523 78.691C88.275 78.355 88.955 77.851 89.563 77.179L91.579 79.099C90.795 80.011 89.835 80.707 88.699 81.187C87.563 81.667 86.299 81.907 84.907 81.907ZM91.8409 81.667L99.4009 64.867H102.473L110.057 81.667H106.793L100.289 66.523H101.537L95.0569 81.667H91.8409ZM95.3209 77.779L96.1609 75.331H105.233L106.073 77.779H95.3209ZM101.537 63.739L100.553 62.635C101.017 62.411 101.345 62.179 101.537 61.939C101.745 61.683 101.849 61.403 101.849 61.099C101.849 60.779 101.737 60.523 101.513 60.331C101.289 60.139 101.001 60.043 100.649 60.043C100.153 60.043 99.6729 60.195 99.2089 60.499L98.5609 59.179C98.8969 58.939 99.2729 58.755 99.6889 58.627C100.105 58.499 100.529 58.435 100.961 58.435C101.745 58.435 102.377 58.659 102.857 59.107C103.353 59.539 103.601 60.115 103.601 60.835C103.601 61.491 103.433 62.059 103.097 62.539C102.761 63.019 102.241 63.419 101.537 63.739Z" fill="white"/>
<path d="M129.264 233.125C129.264 233.125 111.116 224.706 108.019 204.159C104.922 183.613 113.21 175.935 115.828 170.7C118.445 165.465 119.667 159.053 116.613 148.103C113.516 137.154 118.445 107.752 149.636 101.121C180.826 94.5338 227.416 101.121 227.416 101.121C227.416 101.121 261.05 104.305 264.234 129.52C267.419 154.734 261.137 169.828 261.137 169.828C261.137 169.828 278.106 182.522 282.338 195.173C286.569 207.824 274.529 230.682 256.993 235.001L129.264 233.125Z" fill="#F1F5FF"/>
<path d="M156.584 86.5772L123.53 96.4873L142.649 160.254L175.702 150.344L156.584 86.5772Z" fill="white" stroke="#D7D7D7" stroke-width="0.6643" stroke-miterlimit="10"/>
<path d="M154.903 89.6316L126.571 98.126L144.274 157.171L172.606 148.676L154.903 89.6316Z" fill="#D7D7D7"/>
<path d="M128.96 97.4121C129.353 98.7208 128.611 100.073 127.302 100.466C125.994 100.858 124.641 100.117 124.249 98.8081C123.856 97.4994 124.598 96.147 125.906 95.7544C127.171 95.4054 128.567 96.1034 128.96 97.4121Z" fill="white"/>
<path d="M157.271 88.9503C157.664 90.259 156.922 91.6113 155.614 92.0039C154.305 92.3965 152.953 91.6549 152.56 90.3462C152.168 89.0375 152.909 87.6852 154.218 87.2926C155.527 86.9 156.922 87.6416 157.271 88.9503Z" fill="white"/>
<path d="M146.67 156.479C147.063 157.787 146.321 159.14 145.012 159.532C143.704 159.925 142.351 159.183 141.959 157.875C141.566 156.566 142.308 155.214 143.616 154.821C144.881 154.428 146.277 155.17 146.67 156.479Z" fill="white"/>
<path d="M174.982 147.971C175.375 149.279 174.633 150.632 173.325 151.024C172.016 151.417 170.664 150.675 170.271 149.367C169.878 148.058 170.62 146.706 171.929 146.313C173.237 145.92 174.59 146.662 174.982 147.971Z" fill="white"/>
<path d="M156.966 120.707C158.056 124.371 157.707 127.686 151.644 129.519C145.58 131.351 143.094 128.864 142.003 125.2C140.912 121.536 141.61 118.089 147.674 116.301C153.738 114.469 155.875 117.042 156.966 120.707Z" fill="#F1F5FF"/>
<path d="M134.842 100.502L132.711 101.141L135.167 109.331L137.298 108.692L134.842 100.502Z" fill="#F0F0F0"/>
<path d="M147.363 142.347L145.231 142.986L147.687 151.177L149.818 150.538L147.363 142.347Z" fill="#F0F0F0"/>
<path d="M166.777 137.8L164.646 138.438L166.387 144.247L168.518 143.608L166.777 137.8Z" fill="white"/>
<path d="M145.841 120.796L147.237 120.971C146.975 121.712 146.932 122.716 147.193 123.544C147.499 124.504 147.935 124.81 148.371 124.679C149.724 124.286 147.542 120.404 150.203 119.618C151.425 119.269 152.734 119.924 153.344 121.974C153.606 122.89 153.693 123.85 153.475 124.635L152.079 124.504C152.254 123.719 152.254 122.977 152.036 122.367C151.73 121.407 151.25 121.102 150.814 121.232C149.505 121.625 151.643 125.508 149.026 126.293C147.848 126.642 146.495 125.987 145.885 123.937C145.536 122.803 145.536 121.581 145.841 120.796Z" fill="#D7D7D7"/>
<path d="M154.497 122.149L154.121 120.896L144.761 123.702L145.137 124.956L154.497 122.149Z" fill="#D7D7D7"/>
<path d="M132.115 103.341L105.366 125.139L147.418 176.743L174.167 154.946L132.115 103.341Z" fill="white" stroke="#D7D7D7" stroke-width="0.6643" stroke-miterlimit="10"/>
<path d="M131.766 106.777L108.838 125.461L147.776 173.244L170.704 154.561L131.766 106.777Z" fill="#D7D7D7"/>
<path d="M110.769 123.934C111.641 124.981 111.467 126.552 110.42 127.424C109.373 128.297 107.802 128.122 106.93 127.075C106.057 126.028 106.232 124.458 107.279 123.585C108.326 122.713 109.896 122.844 110.769 123.934Z" fill="white"/>
<path d="M133.714 105.221C134.586 106.268 134.412 107.838 133.365 108.711C132.318 109.583 130.747 109.409 129.875 108.362C129.003 107.315 129.177 105.745 130.224 104.872C131.271 104 132.841 104.174 133.714 105.221Z" fill="white"/>
<path d="M149.68 171.703C150.552 172.749 150.378 174.32 149.331 175.192C148.284 176.065 146.713 175.89 145.841 174.843C144.968 173.796 145.143 172.226 146.19 171.354C147.28 170.481 148.851 170.656 149.68 171.703Z" fill="white"/>
<path d="M172.626 153.033C173.498 154.08 173.324 155.65 172.277 156.523C171.23 157.395 169.66 157.221 168.787 156.174C167.915 155.127 168.089 153.556 169.136 152.684C170.227 151.812 171.754 151.942 172.626 153.033Z" fill="white"/>
<path d="M145.537 134.71C147.936 137.676 148.896 140.904 143.966 144.874C139.037 148.887 135.809 147.535 133.409 144.569C131.01 141.602 130.312 138.156 135.242 134.186C140.171 130.173 143.137 131.743 145.537 134.71Z" fill="#F1F5FF"/>
<path d="M117.369 124.487L115.645 125.893L121.046 132.521L122.77 131.115L117.369 124.487Z" fill="#F0F0F0"/>
<path d="M144.939 158.353L143.214 159.759L148.615 166.387L150.34 164.981L144.939 158.353Z" fill="#F0F0F0"/>
<path d="M161.178 146.756L159.453 148.161L163.284 152.862L165.008 151.456L161.178 146.756Z" fill="white"/>
<path d="M135.284 139.03L136.68 138.681C136.724 139.466 137.073 140.382 137.64 141.08C138.294 141.865 138.818 141.996 139.167 141.691C140.257 140.818 136.767 138.07 138.905 136.282C139.908 135.496 141.348 135.627 142.7 137.241C143.311 137.983 143.747 138.855 143.834 139.684L142.482 140.121C142.351 139.335 142.046 138.637 141.61 138.157C140.955 137.372 140.432 137.285 140.039 137.59C138.992 138.463 142.438 141.211 140.344 142.956C139.385 143.741 137.902 143.61 136.549 141.953C135.808 141.037 135.328 139.902 135.284 139.03Z" fill="#D7D7D7"/>
<path d="M143.807 136.99L142.98 135.976L135.406 142.148L136.232 143.163L143.807 136.99Z" fill="#D7D7D7"/>
<path d="M111.064 135.724L95.9473 166.741L155.786 195.905L170.903 164.888L111.064 135.724Z" fill="white" stroke="#D7D7D7" stroke-width="0.6643" stroke-miterlimit="10"/>
<path d="M112.209 139.048L99.252 165.635L154.66 192.639L167.617 166.053L112.209 139.048Z" fill="#D7D7D7"/>
<path d="M100.342 163.415C101.563 164.026 102.087 165.509 101.476 166.73C100.865 167.952 99.3821 168.475 98.1606 167.865C96.9392 167.254 96.4157 165.771 97.0264 164.549C97.6371 163.328 99.1203 162.804 100.342 163.415Z" fill="white"/>
<path d="M113.298 136.805C114.519 137.415 115.043 138.899 114.432 140.12C113.821 141.342 112.338 141.865 111.117 141.254C109.895 140.644 109.372 139.16 109.982 137.939C110.593 136.717 112.076 136.194 113.298 136.805Z" fill="white"/>
<path d="M155.744 190.419C156.966 191.03 157.489 192.513 156.878 193.734C156.268 194.956 154.784 195.479 153.563 194.869C152.341 194.258 151.818 192.775 152.429 191.553C153.039 190.332 154.523 189.808 155.744 190.419Z" fill="white"/>
<path d="M168.699 163.808C169.921 164.418 170.444 165.902 169.833 167.123C169.223 168.344 167.739 168.868 166.518 168.257C165.297 167.646 164.773 166.163 165.384 164.942C165.995 163.72 167.478 163.197 168.699 163.808Z" fill="white"/>
<path d="M136.419 158.573C139.865 160.231 142.047 162.761 139.298 168.476C136.506 174.19 133.017 174.321 129.57 172.62C126.124 170.962 124.074 168.127 126.866 162.412C129.658 156.697 132.973 156.915 136.419 158.573Z" fill="#F1F5FF"/>
<path d="M106.566 161.147L105.591 163.146L113.277 166.892L114.251 164.892L106.566 161.147Z" fill="#F0F0F0"/>
<path d="M145.8 180.272L144.825 182.271L152.511 186.017L153.486 184.017L145.8 180.272Z" fill="#F0F0F0"/>
<path d="M155.652 162.935L154.678 164.935L160.128 167.591L161.103 165.591L155.652 162.935Z" fill="white"/>
<path d="M128.958 166.82L130.049 165.904C130.398 166.602 131.096 167.3 131.924 167.693C132.84 168.129 133.364 167.998 133.582 167.605C134.193 166.34 129.874 165.293 131.096 162.807C131.663 161.673 133.015 161.149 134.934 162.109C135.763 162.502 136.548 163.156 136.985 163.854L135.938 164.814C135.502 164.159 134.934 163.679 134.324 163.374C133.408 162.938 132.884 163.112 132.666 163.505C132.055 164.726 136.374 165.773 135.196 168.26C134.629 169.394 133.233 169.874 131.314 168.958C130.223 168.391 129.307 167.562 128.958 166.82Z" fill="#D7D7D7"/>
<path d="M135.793 161.359L134.616 160.786L130.335 169.57L131.512 170.143L135.793 161.359Z" fill="#D7D7D7"/>
<path d="M268.117 162.804C265.456 165.465 265.456 169.827 268.117 172.488C270.778 175.149 275.14 175.149 277.801 172.488C280.462 169.827 280.462 165.465 277.801 162.804C275.14 160.099 270.822 160.099 268.117 162.804Z" fill="#2F19BB"/>
<path d="M272.959 172.708C275.753 172.708 278.019 170.442 278.019 167.647C278.019 164.852 275.753 162.587 272.959 162.587C270.164 162.587 267.898 164.852 267.898 167.647C267.898 170.442 270.164 172.708 272.959 172.708Z" fill="white"/>
<path d="M274.572 168.344C274.572 167.951 274.441 167.646 274.135 167.472C274.004 167.384 273.874 167.297 273.743 167.253C273.655 167.21 273.437 167.166 273.219 167.079C272.958 166.992 272.783 166.948 272.652 166.861C272.521 166.817 272.478 166.73 272.478 166.599C272.478 166.425 272.652 166.294 273.001 166.294C273.219 166.294 273.481 166.337 273.699 166.468C273.917 166.556 274.135 166.512 274.266 166.294C274.397 166.076 274.31 165.814 274.092 165.683C273.874 165.552 273.612 165.509 273.394 165.465V164.985C273.394 164.723 273.176 164.549 272.958 164.549C272.696 164.549 272.521 164.767 272.521 164.985V165.509C272.303 165.552 272.085 165.639 271.911 165.77C271.605 165.988 271.474 166.294 271.474 166.686C271.474 167.079 271.605 167.341 271.954 167.515C272.085 167.602 272.26 167.69 272.347 167.733C272.478 167.777 272.652 167.864 272.87 167.908C273.088 167.995 273.263 168.039 273.394 168.126C273.525 168.213 273.568 168.3 273.568 168.388C273.568 168.475 273.525 168.562 273.437 168.606C273.35 168.649 273.219 168.693 273.088 168.693C272.739 168.693 272.39 168.606 272.085 168.431C271.911 168.344 271.649 168.388 271.518 168.562C271.387 168.78 271.431 169.042 271.649 169.173C271.823 169.26 271.954 169.347 272.129 169.391C272.26 169.435 272.434 169.478 272.565 169.522C272.565 169.566 272.565 169.566 272.565 169.609V170.22C272.565 170.482 272.783 170.656 273.001 170.656C273.263 170.656 273.437 170.438 273.437 170.22V169.653V169.609C273.743 169.566 273.961 169.435 274.179 169.26C274.441 169.042 274.572 168.737 274.572 168.344Z" fill="#2F19BB"/>
<path d="M176.157 68.4919C173.496 71.1529 173.496 75.5152 176.157 78.1762C178.818 80.8373 183.18 80.8373 185.841 78.1762C188.502 75.5152 188.502 71.1529 185.841 68.4919C183.18 65.8308 178.818 65.8308 176.157 68.4919Z" fill="#2F19BB"/>
<path d="M180.999 78.3941C183.794 78.3941 186.059 76.1285 186.059 73.3337C186.059 70.539 183.794 68.2734 180.999 68.2734C178.204 68.2734 175.938 70.539 175.938 73.3337C175.938 76.1285 178.204 78.3941 180.999 78.3941Z" fill="white"/>
<path d="M182.612 74.0325C182.612 73.6399 182.481 73.3346 182.175 73.1601C182.045 73.0728 181.914 72.9856 181.783 72.942C181.696 72.8983 181.477 72.8547 181.259 72.7675C180.998 72.6802 180.823 72.6366 180.692 72.5493C180.561 72.5057 180.518 72.4185 180.518 72.2876C180.518 72.1131 180.692 71.9822 181.041 71.9822C181.259 71.9822 181.521 72.0259 181.739 72.1567C181.957 72.244 182.175 72.2004 182.306 71.9822C182.437 71.7641 182.35 71.5024 182.132 71.3715C181.914 71.2406 181.652 71.197 181.434 71.1534V70.6735C181.434 70.4118 181.216 70.2373 180.998 70.2373C180.779 70.2373 180.561 70.4554 180.561 70.6735V71.197C180.343 71.2406 180.125 71.3279 179.951 71.4588C179.645 71.6769 179.514 71.9822 179.514 72.3748C179.514 72.7675 179.645 73.0292 179.994 73.2037C180.125 73.2909 180.3 73.3782 180.387 73.4218C180.518 73.4654 180.692 73.5527 180.91 73.5963C181.128 73.6835 181.303 73.7272 181.434 73.8144C181.565 73.9017 181.608 73.9889 181.608 74.0762C181.608 74.1634 181.565 74.2507 181.477 74.2943C181.39 74.3379 181.259 74.3815 181.128 74.3815C180.779 74.3815 180.43 74.2943 180.125 74.1198C179.951 74.0325 179.689 74.0762 179.558 74.2507C179.427 74.4688 179.471 74.7305 179.689 74.8614C179.863 74.9486 179.994 75.0359 180.169 75.0795C180.3 75.1231 180.474 75.1667 180.605 75.2104C180.605 75.254 180.605 75.254 180.605 75.2976V75.9083C180.605 76.1701 180.823 76.3446 181.041 76.3446C181.259 76.3446 181.477 76.1265 181.477 75.9083V75.2976V75.254C181.783 75.2104 182.001 75.0795 182.219 74.905C182.437 74.7741 182.612 74.4251 182.612 74.0325Z" fill="#2F19BB"/>
<path d="M230.642 95.3205C235.605 95.3205 239.628 91.2971 239.628 86.3341C239.628 81.371 235.605 77.3477 230.642 77.3477C225.679 77.3477 221.655 81.371 221.655 86.3341C221.655 91.2971 225.679 95.3205 230.642 95.3205Z" fill="#2F19BB"/>
<path d="M230.641 92.9646C234.304 92.9646 237.272 89.9959 237.272 86.3339C237.272 82.6718 234.304 79.7031 230.641 79.7031C226.979 79.7031 224.011 82.6718 224.011 86.3339C224.011 89.9959 226.979 92.9646 230.641 92.9646Z" fill="white"/>
<path d="M232.736 87.2504C232.736 86.7269 232.561 86.3779 232.168 86.1162C231.95 85.9853 231.819 85.8981 231.645 85.8545C231.514 85.8108 231.252 85.7236 230.947 85.5927C230.598 85.5055 230.38 85.3746 230.249 85.331C230.118 85.2437 230.031 85.1565 230.031 85.0256C230.031 84.7639 230.249 84.633 230.729 84.633C231.034 84.633 231.34 84.7203 231.645 84.8511C231.907 84.982 232.256 84.8947 232.387 84.633C232.561 84.3713 232.43 83.9787 232.168 83.8478C231.863 83.7169 231.558 83.586 231.252 83.5424V82.8881C231.252 82.5827 230.991 82.2773 230.642 82.2773C230.293 82.2773 230.031 82.5391 230.031 82.8881V83.586C229.726 83.6733 229.464 83.7605 229.246 83.935C228.853 84.2404 228.635 84.633 228.635 85.1129C228.635 85.5927 228.853 85.9853 229.246 86.2034C229.464 86.3343 229.638 86.4216 229.769 86.5088C229.944 86.5961 230.162 86.6397 230.423 86.7269C230.729 86.8142 230.947 86.9014 231.078 87.0323C231.252 87.1195 231.296 87.2504 231.296 87.3813C231.296 87.5121 231.252 87.5994 231.121 87.6866C230.991 87.7739 230.86 87.8175 230.685 87.8175C230.205 87.8175 229.769 87.6866 229.333 87.4685C229.071 87.3376 228.766 87.3813 228.591 87.643C228.417 87.9048 228.46 88.2974 228.766 88.4719C228.984 88.6027 229.202 88.69 229.42 88.7772C229.595 88.8208 229.813 88.9081 229.987 88.9081C229.987 88.9517 229.987 88.9517 229.987 88.9953V89.7806C229.987 90.0859 230.249 90.3913 230.598 90.3913C230.947 90.3913 231.209 90.1295 231.209 89.7806V88.9953C231.209 88.9517 231.209 88.9517 231.209 88.9081C231.601 88.8645 231.907 88.69 232.168 88.4719C232.517 88.1665 232.736 87.7303 232.736 87.2504Z" fill="#2F19BB"/>
<path d="M227.416 233.56H148.371C147.411 233.56 146.626 232.775 146.626 231.815V92.5262C146.626 91.5665 147.411 90.7812 148.371 90.7812H227.46C228.42 90.7812 229.205 91.5665 229.205 92.5262V231.859C229.161 232.819 228.376 233.56 227.416 233.56Z" fill="#A3C3CE"/>
<path d="M229.162 231.292V93.0497C229.162 91.7846 228.159 90.7812 226.894 90.7812H156.267C155.002 90.7812 153.999 91.7846 153.999 93.0497V231.292C153.999 232.557 155.002 233.56 156.267 233.56H226.894C228.159 233.56 229.162 232.557 229.162 231.292Z" fill="#6D90FF"/>
<path d="M225.41 230.943H157.532C156.442 230.943 155.569 230.07 155.569 228.98V95.0998C155.569 94.0092 156.442 93.1367 157.532 93.1367H225.41C226.501 93.1367 227.373 94.0092 227.373 95.0998V228.936C227.417 230.027 226.501 230.943 225.41 230.943Z" fill="#D7D7D7"/>
<path d="M150.159 126.203C149.112 126.203 148.283 125.374 148.283 124.328V105.613C148.283 104.566 149.112 103.737 150.159 103.737C151.206 103.737 152.035 104.566 152.035 105.613V124.328C152.078 125.374 151.206 126.203 150.159 126.203Z" fill="#F1F5FF"/>
<path d="M150.159 141.341C149.112 141.341 148.283 140.512 148.283 139.465V129.912C148.283 128.865 149.112 128.036 150.159 128.036C151.206 128.036 152.035 128.865 152.035 129.912V139.465C152.078 140.512 151.206 141.341 150.159 141.341Z" fill="#F1F5FF"/>
<path d="M149.592 128.123C148.806 128.341 148.239 129.083 148.239 129.912V139.465C148.239 140.294 148.806 141.036 149.592 141.254C150.377 141.036 150.944 140.294 150.944 139.465V129.912C150.944 129.083 150.377 128.341 149.592 128.123Z" fill="#6D90FF"/>
<path d="M149.592 103.825C148.806 104.043 148.239 104.785 148.239 105.614V124.328C148.239 125.157 148.806 125.899 149.592 126.117C150.377 125.899 150.944 125.157 150.944 124.328V105.614C150.944 104.741 150.377 104.043 149.592 103.825Z" fill="#6D90FF"/>
<path d="M152.078 114.644H148.283V115.254H152.078V114.644Z" fill="#F1F5FF"/>
<path d="M224.8 93.1367H158.187C156.747 93.1367 155.569 94.3145 155.569 95.7541V110.761H227.417V95.7105C227.417 94.3145 226.239 93.1367 224.8 93.1367Z" fill="#E4EFF4"/>
<path d="M150.16 145.877C150.666 145.877 151.076 145.467 151.076 144.961C151.076 144.455 150.666 144.045 150.16 144.045C149.654 144.045 149.244 144.455 149.244 144.961C149.244 145.467 149.654 145.877 150.16 145.877Z" fill="#96C4CC"/>
<path d="M177.772 90.7812V92.8752C177.772 95.4053 179.823 97.4556 182.353 97.4556H199.54C202.071 97.4556 204.121 95.4053 204.121 92.8752V90.7812H177.772Z" fill="#6D90FF"/>
<path d="M216.684 105.09C216.684 104.523 216.204 104.043 215.637 104.043C215.07 104.043 214.59 104.523 214.59 105.09C214.59 105.657 215.07 106.137 215.637 106.137C216.204 106.181 216.684 105.701 216.684 105.09Z" fill="#0C0055"/>
<path d="M220.131 105.09C220.131 104.523 219.651 104.043 219.084 104.043C218.517 104.043 218.037 104.523 218.037 105.09C218.037 105.657 218.517 106.137 219.084 106.137C219.651 106.137 220.131 105.701 220.131 105.09Z" fill="#0C0055"/>
<path d="M223.664 105.09C223.664 104.523 223.184 104.043 222.617 104.043C222.05 104.043 221.57 104.523 221.57 105.09C221.57 105.657 222.05 106.137 222.617 106.137C223.184 106.137 223.664 105.701 223.664 105.09Z" fill="#0C0055"/>
<path d="M181.382 106.541V103.404H182.442C182.688 103.404 182.889 103.449 183.045 103.538C183.202 103.625 183.319 103.744 183.394 103.894C183.47 104.045 183.508 104.212 183.508 104.397C183.508 104.582 183.47 104.75 183.394 104.901C183.32 105.052 183.205 105.172 183.048 105.262C182.892 105.351 182.692 105.395 182.448 105.395H181.688V105.059H182.436C182.604 105.059 182.739 105.029 182.842 104.971C182.944 104.913 183.018 104.834 183.064 104.735C183.111 104.635 183.134 104.522 183.134 104.397C183.134 104.271 183.111 104.159 183.064 104.06C183.018 103.961 182.943 103.883 182.84 103.827C182.737 103.77 182.6 103.741 182.43 103.741H181.762V106.541H181.382Z" fill="#0C0055"/>
<path d="M184.763 106.596C184.614 106.596 184.479 106.568 184.357 106.512C184.236 106.455 184.139 106.373 184.068 106.265C183.996 106.157 183.96 106.027 183.96 105.873C183.96 105.739 183.987 105.629 184.04 105.546C184.093 105.461 184.164 105.394 184.253 105.346C184.342 105.298 184.44 105.263 184.547 105.239C184.655 105.215 184.764 105.195 184.873 105.181C185.016 105.163 185.132 105.149 185.221 105.14C185.311 105.129 185.376 105.113 185.417 105.089C185.459 105.066 185.48 105.025 185.48 104.967V104.954C185.48 104.803 185.438 104.686 185.356 104.602C185.274 104.518 185.15 104.476 184.984 104.476C184.811 104.476 184.676 104.514 184.578 104.59C184.48 104.665 184.411 104.746 184.371 104.832L184.028 104.709C184.089 104.566 184.171 104.455 184.273 104.375C184.376 104.295 184.488 104.239 184.61 104.207C184.732 104.174 184.853 104.158 184.971 104.158C185.047 104.158 185.134 104.167 185.232 104.185C185.331 104.203 185.426 104.239 185.518 104.294C185.611 104.349 185.688 104.433 185.749 104.544C185.811 104.655 185.841 104.804 185.841 104.991V106.541H185.48V106.223H185.461C185.437 106.274 185.396 106.328 185.339 106.386C185.282 106.445 185.206 106.494 185.111 106.535C185.016 106.576 184.9 106.596 184.763 106.596ZM184.818 106.272C184.961 106.272 185.082 106.244 185.18 106.187C185.279 106.131 185.353 106.059 185.403 105.97C185.454 105.881 185.48 105.788 185.48 105.69V105.359C185.465 105.377 185.431 105.394 185.379 105.409C185.328 105.424 185.268 105.436 185.201 105.448C185.135 105.458 185.07 105.467 185.007 105.475C184.944 105.482 184.894 105.488 184.855 105.494C184.761 105.506 184.673 105.526 184.591 105.553C184.511 105.58 184.445 105.62 184.395 105.674C184.346 105.727 184.322 105.8 184.322 105.892C184.322 106.017 184.368 106.112 184.461 106.177C184.555 106.24 184.674 106.272 184.818 106.272Z" fill="#0C0055"/>
<path d="M186.65 107.423C186.588 107.423 186.534 107.418 186.486 107.408C186.438 107.399 186.405 107.39 186.386 107.381L186.478 107.062C186.566 107.084 186.644 107.093 186.711 107.086C186.778 107.08 186.838 107.05 186.89 106.996C186.943 106.943 186.992 106.857 187.036 106.737L187.103 106.553L186.233 104.189H186.625L187.275 106.063H187.299L187.949 104.189H188.341L187.342 106.884C187.297 107.006 187.241 107.106 187.175 107.186C187.109 107.267 187.032 107.326 186.944 107.365C186.857 107.404 186.759 107.423 186.65 107.423Z" fill="#0C0055"/>
<path d="M188.818 106.541V104.189H189.167V104.556H189.198C189.247 104.431 189.326 104.333 189.435 104.264C189.544 104.193 189.676 104.158 189.829 104.158C189.984 104.158 190.113 104.193 190.216 104.264C190.32 104.333 190.402 104.431 190.46 104.556H190.484C190.544 104.435 190.635 104.338 190.755 104.267C190.876 104.194 191.02 104.158 191.189 104.158C191.399 104.158 191.571 104.224 191.705 104.355C191.839 104.486 191.906 104.69 191.906 104.967V106.541H191.544V104.967C191.544 104.793 191.497 104.669 191.402 104.594C191.307 104.52 191.195 104.483 191.066 104.483C190.901 104.483 190.773 104.533 190.682 104.633C190.591 104.732 190.545 104.857 190.545 105.009V106.541H190.178V104.93C190.178 104.796 190.134 104.688 190.048 104.607C189.961 104.524 189.849 104.483 189.712 104.483C189.618 104.483 189.531 104.508 189.449 104.558C189.368 104.608 189.303 104.677 189.253 104.766C189.204 104.854 189.179 104.955 189.179 105.071V106.541H188.818Z" fill="#0C0055"/>
<path d="M193.553 106.59C193.326 106.59 193.131 106.54 192.966 106.44C192.803 106.339 192.677 106.198 192.588 106.017C192.5 105.836 192.456 105.624 192.456 105.383C192.456 105.142 192.5 104.93 192.588 104.746C192.677 104.561 192.8 104.417 192.959 104.314C193.118 104.21 193.304 104.158 193.516 104.158C193.639 104.158 193.76 104.178 193.879 104.219C193.999 104.26 194.107 104.326 194.205 104.418C194.303 104.509 194.382 104.63 194.44 104.78C194.498 104.93 194.527 105.115 194.527 105.334V105.487H192.714V105.175H194.159C194.159 105.042 194.133 104.924 194.08 104.82C194.028 104.715 193.953 104.633 193.856 104.573C193.76 104.513 193.647 104.483 193.516 104.483C193.372 104.483 193.248 104.518 193.142 104.59C193.038 104.66 192.958 104.752 192.902 104.866C192.846 104.979 192.818 105.1 192.818 105.23V105.438C192.818 105.616 192.848 105.767 192.91 105.89C192.972 106.013 193.058 106.106 193.168 106.171C193.279 106.234 193.407 106.265 193.553 106.265C193.648 106.265 193.734 106.252 193.81 106.226C193.888 106.198 193.955 106.157 194.011 106.103C194.067 106.048 194.11 105.98 194.141 105.898L194.49 105.996C194.454 106.114 194.392 106.219 194.305 106.308C194.218 106.397 194.111 106.467 193.983 106.517C193.856 106.566 193.712 106.59 193.553 106.59Z" fill="#0C0055"/>
<path d="M195.438 105.126V106.541H195.077V104.189H195.426V104.556H195.457C195.512 104.437 195.596 104.341 195.708 104.268C195.82 104.195 195.965 104.158 196.143 104.158C196.302 104.158 196.442 104.191 196.561 104.256C196.681 104.32 196.774 104.418 196.84 104.55C196.906 104.681 196.939 104.846 196.939 105.046V106.541H196.578V105.071C196.578 104.886 196.53 104.742 196.434 104.639C196.338 104.535 196.206 104.483 196.039 104.483C195.923 104.483 195.82 104.508 195.729 104.558C195.64 104.608 195.569 104.681 195.517 104.777C195.464 104.873 195.438 104.989 195.438 105.126Z" fill="#0C0055"/>
<path d="M198.623 104.189V104.495H197.404V104.189H198.623ZM197.759 103.625H198.121V105.867C198.121 105.969 198.136 106.046 198.165 106.097C198.196 106.147 198.235 106.181 198.282 106.198C198.33 106.214 198.38 106.223 198.433 106.223C198.473 106.223 198.506 106.221 198.531 106.216C198.557 106.211 198.577 106.207 198.593 106.204L198.666 106.529C198.642 106.538 198.607 106.547 198.563 106.556C198.52 106.567 198.464 106.572 198.397 106.572C198.294 106.572 198.194 106.55 198.096 106.506C197.999 106.462 197.919 106.395 197.854 106.305C197.791 106.215 197.759 106.102 197.759 105.965V103.625Z" fill="#0C0055"/>
<path d="M200.791 104.715L200.467 104.807C200.446 104.753 200.416 104.701 200.376 104.65C200.337 104.597 200.284 104.555 200.217 104.521C200.15 104.487 200.063 104.47 199.958 104.47C199.814 104.47 199.694 104.504 199.598 104.57C199.503 104.635 199.456 104.718 199.456 104.82C199.456 104.909 199.488 104.98 199.554 105.032C199.619 105.085 199.721 105.128 199.86 105.163L200.209 105.248C200.42 105.299 200.576 105.378 200.679 105.483C200.783 105.587 200.834 105.721 200.834 105.886C200.834 106.02 200.795 106.141 200.718 106.247C200.641 106.353 200.534 106.437 200.396 106.498C200.258 106.56 200.098 106.59 199.915 106.59C199.675 106.59 199.477 106.538 199.319 106.434C199.162 106.33 199.063 106.178 199.021 105.978L199.364 105.892C199.396 106.018 199.458 106.113 199.549 106.177C199.641 106.24 199.761 106.272 199.909 106.272C200.078 106.272 200.211 106.236 200.31 106.164C200.41 106.092 200.46 106.005 200.46 105.904C200.46 105.822 200.432 105.754 200.375 105.699C200.317 105.643 200.23 105.601 200.111 105.573L199.719 105.481C199.504 105.43 199.345 105.351 199.244 105.244C199.144 105.136 199.094 105 199.094 104.838C199.094 104.705 199.131 104.588 199.206 104.486C199.282 104.384 199.384 104.303 199.514 104.245C199.645 104.187 199.793 104.158 199.958 104.158C200.191 104.158 200.374 104.209 200.506 104.311C200.64 104.413 200.735 104.548 200.791 104.715Z" fill="#0C0055"/>
<path d="M161.152 103.301L160.934 103.04C160.76 102.821 160.454 102.821 160.236 102.996L158.23 105.003C158.055 105.177 158.055 105.483 158.23 105.657L160.236 107.664C160.411 107.838 160.76 107.838 160.934 107.62L161.152 107.358C161.283 107.184 161.283 106.922 161.152 106.748L160.105 105.613C159.931 105.439 159.931 105.177 160.105 105.003L161.152 103.868C161.283 103.738 161.283 103.476 161.152 103.301Z" fill="#0C0055"/>
<path d="M217.993 118.177H161.239V141.515H217.993V118.177Z" fill="#F0F0F0"/>
<path d="M219.913 177.025H163.29C162.155 177.025 161.239 176.109 161.239 174.974V148.539C161.239 147.404 162.155 146.488 163.29 146.488H219.913C221.047 146.488 221.963 147.404 221.963 148.539V174.974C221.963 176.109 221.047 177.025 219.913 177.025Z" fill="#F0F0F0"/>
<path d="M221.919 181.126H161.239V209.394H221.919V181.126Z" fill="#F0F0F0"/>
<path d="M217.993 118.177H161.239V123.935H217.993V118.177Z" fill="#F0F0F0"/>
<path d="M213.195 172.051H170.836C169.397 172.051 168.263 170.917 168.263 169.477V128.079C168.263 126.639 169.397 125.505 170.836 125.505H213.195C214.634 125.505 215.768 126.639 215.768 128.079V169.477C215.768 170.917 214.591 172.051 213.195 172.051Z" fill="#EE542F"/>
<path d="M217.907 183.786H165.122C164.773 183.786 164.512 184.048 164.512 184.397V187.102C164.512 187.45 164.773 187.712 165.122 187.712H217.907C218.256 187.712 218.517 187.45 218.517 187.102V184.397C218.517 184.048 218.256 183.786 217.907 183.786Z" fill="#D7D7D7"/>
<path d="M217.907 190.461H165.122C164.773 190.461 164.512 190.723 164.512 191.072V193.776C164.512 194.125 164.773 194.387 165.122 194.387H217.907C218.256 194.387 218.517 194.125 218.517 193.776V191.072C218.517 190.766 218.256 190.461 217.907 190.461Z" fill="#D7D7D7"/>
<path d="M212.279 212.054H170.662C169.353 212.054 168.263 210.964 168.263 209.655V201.977C168.263 200.669 169.353 199.578 170.662 199.578H212.279C213.587 199.578 214.678 200.669 214.678 201.977V209.655C214.678 211.007 213.631 212.054 212.279 212.054Z" fill="#EE542F"/>
<path d="M155.569 215.369V228.325C155.569 229.765 156.747 230.943 158.187 230.943H224.8C226.239 230.943 227.417 229.765 227.417 228.325V215.369H155.569Z" fill="#D7D7D7"/>
<path d="M179.122 162.34C179.09 162.069 178.96 161.858 178.731 161.708C178.503 161.559 178.223 161.484 177.892 161.484C177.649 161.484 177.437 161.523 177.255 161.601C177.075 161.68 176.934 161.788 176.833 161.925C176.733 162.062 176.683 162.218 176.683 162.393C176.683 162.539 176.718 162.665 176.787 162.77C176.859 162.873 176.95 162.96 177.06 163.029C177.171 163.097 177.287 163.153 177.408 163.198C177.529 163.241 177.64 163.275 177.742 163.302L178.298 163.452C178.441 163.489 178.6 163.541 178.774 163.607C178.951 163.673 179.119 163.763 179.28 163.877C179.442 163.989 179.576 164.134 179.681 164.31C179.786 164.487 179.839 164.703 179.839 164.96C179.839 165.256 179.761 165.523 179.606 165.762C179.453 166.001 179.228 166.191 178.932 166.332C178.638 166.473 178.28 166.543 177.86 166.543C177.468 166.543 177.128 166.48 176.841 166.353C176.556 166.227 176.331 166.05 176.167 165.824C176.005 165.597 175.913 165.335 175.892 165.035H176.576C176.594 165.242 176.664 165.413 176.785 165.548C176.908 165.682 177.063 165.782 177.25 165.848C177.439 165.912 177.642 165.944 177.86 165.944C178.113 165.944 178.34 165.903 178.542 165.821C178.743 165.737 178.903 165.622 179.02 165.474C179.138 165.324 179.197 165.149 179.197 164.949C179.197 164.768 179.146 164.62 179.044 164.506C178.943 164.391 178.809 164.299 178.643 164.227C178.477 164.156 178.298 164.094 178.106 164.04L177.432 163.848C177.004 163.725 176.665 163.549 176.416 163.321C176.166 163.093 176.041 162.794 176.041 162.425C176.041 162.118 176.124 161.851 176.29 161.623C176.458 161.393 176.682 161.215 176.964 161.088C177.247 160.96 177.564 160.896 177.913 160.896C178.266 160.896 178.58 160.959 178.855 161.085C179.129 161.21 179.347 161.381 179.507 161.599C179.669 161.816 179.755 162.063 179.764 162.34H179.122Z" fill="white"/>
<path d="M183.432 164.768V162.34H184.063V166.447H183.432V165.752H183.389C183.293 165.96 183.143 166.138 182.94 166.284C182.737 166.428 182.48 166.5 182.17 166.5C181.913 166.5 181.685 166.444 181.485 166.332C181.285 166.218 181.129 166.047 181.015 165.819C180.9 165.589 180.843 165.299 180.843 164.949V162.34H181.474V164.907C181.474 165.206 181.558 165.445 181.726 165.623C181.895 165.802 182.111 165.891 182.373 165.891C182.53 165.891 182.689 165.851 182.852 165.77C183.016 165.69 183.153 165.567 183.263 165.401C183.376 165.236 183.432 165.024 183.432 164.768Z" fill="white"/>
<path d="M186.887 166.533C186.502 166.533 186.171 166.442 185.893 166.26C185.615 166.078 185.401 165.827 185.251 165.508C185.101 165.189 185.026 164.825 185.026 164.415C185.026 163.997 185.103 163.629 185.256 163.31C185.411 162.989 185.627 162.739 185.903 162.559C186.182 162.377 186.506 162.286 186.877 162.286C187.166 162.286 187.426 162.34 187.658 162.446C187.889 162.553 188.079 162.703 188.227 162.896C188.375 163.088 188.467 163.313 188.503 163.57H187.872C187.823 163.382 187.716 163.217 187.551 163.072C187.387 162.926 187.166 162.853 186.887 162.853C186.641 162.853 186.426 162.917 186.24 163.045C186.057 163.172 185.913 163.351 185.81 163.583C185.708 163.813 185.657 164.083 185.657 164.393C185.657 164.711 185.707 164.987 185.807 165.222C185.909 165.458 186.051 165.64 186.235 165.77C186.42 165.901 186.638 165.966 186.887 165.966C187.052 165.966 187.2 165.937 187.334 165.88C187.468 165.823 187.581 165.741 187.674 165.634C187.766 165.527 187.832 165.399 187.872 165.249H188.503C188.467 165.491 188.379 165.71 188.238 165.904C188.099 166.097 187.914 166.25 187.684 166.364C187.456 166.476 187.191 166.533 186.887 166.533Z" fill="white"/>
<path d="M191.094 166.533C190.709 166.533 190.377 166.442 190.099 166.26C189.821 166.078 189.607 165.827 189.457 165.508C189.308 165.189 189.233 164.825 189.233 164.415C189.233 163.997 189.309 163.629 189.463 163.31C189.618 162.989 189.833 162.739 190.11 162.559C190.388 162.377 190.712 162.286 191.083 162.286C191.372 162.286 191.632 162.34 191.864 162.446C192.096 162.553 192.286 162.703 192.434 162.896C192.582 163.088 192.673 163.313 192.709 163.57H192.078C192.03 163.382 191.923 163.217 191.757 163.072C191.593 162.926 191.372 162.853 191.094 162.853C190.848 162.853 190.632 162.917 190.447 163.045C190.263 163.172 190.12 163.351 190.016 163.583C189.915 163.813 189.864 164.083 189.864 164.393C189.864 164.711 189.914 164.987 190.014 165.222C190.115 165.458 190.258 165.64 190.441 165.77C190.627 165.901 190.844 165.966 191.094 165.966C191.258 165.966 191.407 165.937 191.54 165.88C191.674 165.823 191.787 165.741 191.88 165.634C191.973 165.527 192.039 165.399 192.078 165.249H192.709C192.673 165.491 192.585 165.71 192.444 165.904C192.305 166.097 192.121 166.25 191.891 166.364C191.663 166.476 191.397 166.533 191.094 166.533Z" fill="white"/>
<path d="M195.354 166.533C194.958 166.533 194.617 166.445 194.33 166.27C194.044 166.094 193.824 165.848 193.669 165.532C193.516 165.215 193.439 164.846 193.439 164.425C193.439 164.005 193.516 163.634 193.669 163.313C193.824 162.99 194.04 162.739 194.316 162.559C194.594 162.377 194.919 162.286 195.29 162.286C195.503 162.286 195.715 162.322 195.923 162.393C196.132 162.464 196.322 162.58 196.493 162.741C196.664 162.899 196.8 163.11 196.902 163.372C197.004 163.634 197.054 163.956 197.054 164.34V164.607H193.888V164.062H196.413C196.413 163.83 196.366 163.623 196.274 163.441C196.183 163.259 196.053 163.116 195.883 163.011C195.716 162.906 195.518 162.853 195.29 162.853C195.038 162.853 194.821 162.915 194.637 163.04C194.455 163.163 194.315 163.324 194.217 163.521C194.119 163.719 194.07 163.931 194.07 164.158V164.522C194.07 164.832 194.124 165.095 194.231 165.31C194.339 165.524 194.49 165.687 194.682 165.8C194.875 165.91 195.099 165.966 195.354 165.966C195.519 165.966 195.669 165.942 195.803 165.896C195.938 165.848 196.055 165.777 196.153 165.682C196.251 165.586 196.327 165.466 196.381 165.324L196.99 165.495C196.926 165.702 196.818 165.884 196.667 166.04C196.515 166.196 196.328 166.317 196.105 166.404C195.882 166.49 195.632 166.533 195.354 166.533Z" fill="white"/>
<path d="M200.924 163.259L200.357 163.42C200.321 163.325 200.269 163.234 200.199 163.144C200.131 163.054 200.039 162.979 199.921 162.92C199.803 162.861 199.653 162.832 199.469 162.832C199.218 162.832 199.008 162.889 198.841 163.005C198.675 163.119 198.592 163.265 198.592 163.441C198.592 163.598 198.649 163.722 198.763 163.813C198.877 163.904 199.056 163.98 199.298 164.04L199.908 164.19C200.275 164.279 200.549 164.416 200.729 164.599C200.909 164.781 200.999 165.015 200.999 165.302C200.999 165.538 200.931 165.748 200.795 165.934C200.662 166.119 200.475 166.265 200.234 166.372C199.993 166.479 199.713 166.533 199.394 166.533C198.975 166.533 198.629 166.442 198.354 166.26C198.079 166.078 197.906 165.812 197.833 165.463L198.432 165.313C198.489 165.534 198.596 165.7 198.755 165.81C198.916 165.921 199.125 165.976 199.384 165.976C199.678 165.976 199.911 165.914 200.084 165.789C200.259 165.663 200.346 165.511 200.346 165.335C200.346 165.192 200.296 165.072 200.196 164.976C200.097 164.878 199.943 164.805 199.737 164.757L199.052 164.596C198.676 164.507 198.399 164.369 198.223 164.182C198.048 163.993 197.961 163.757 197.961 163.473C197.961 163.242 198.026 163.037 198.156 162.858C198.288 162.68 198.467 162.54 198.694 162.438C198.922 162.337 199.18 162.286 199.469 162.286C199.876 162.286 200.195 162.375 200.426 162.553C200.66 162.732 200.826 162.967 200.924 163.259Z" fill="white"/>
<path d="M204.858 163.259L204.291 163.42C204.256 163.325 204.203 163.234 204.133 163.144C204.066 163.054 203.973 162.979 203.855 162.92C203.738 162.861 203.587 162.832 203.403 162.832C203.152 162.832 202.943 162.889 202.775 163.005C202.609 163.119 202.526 163.265 202.526 163.441C202.526 163.598 202.583 163.722 202.697 163.813C202.812 163.904 202.99 163.98 203.232 164.04L203.842 164.19C204.209 164.279 204.483 164.416 204.663 164.599C204.843 164.781 204.933 165.015 204.933 165.302C204.933 165.538 204.865 165.748 204.73 165.934C204.596 166.119 204.409 166.265 204.168 166.372C203.928 166.479 203.648 166.533 203.329 166.533C202.91 166.533 202.563 166.442 202.288 166.26C202.014 166.078 201.84 165.812 201.767 165.463L202.366 165.313C202.423 165.534 202.531 165.7 202.689 165.81C202.85 165.921 203.059 165.976 203.318 165.976C203.612 165.976 203.845 165.914 204.018 165.789C204.193 165.663 204.28 165.511 204.28 165.335C204.28 165.192 204.231 165.072 204.131 164.976C204.031 164.878 203.878 164.805 203.671 164.757L202.986 164.596C202.61 164.507 202.334 164.369 202.157 164.182C201.983 163.993 201.895 163.757 201.895 163.473C201.895 163.242 201.96 163.037 202.09 162.858C202.222 162.68 202.401 162.54 202.628 162.438C202.856 162.337 203.115 162.286 203.403 162.286C203.81 162.286 204.129 162.375 204.361 162.553C204.594 162.732 204.76 162.967 204.858 163.259Z" fill="white"/>
<path d="M206.717 160.97L206.664 164.907H206.043L205.99 160.97H206.717ZM206.354 166.49C206.222 166.49 206.108 166.442 206.014 166.348C205.919 166.254 205.872 166.14 205.872 166.008C205.872 165.876 205.919 165.763 206.014 165.669C206.108 165.574 206.222 165.527 206.354 165.527C206.486 165.527 206.599 165.574 206.693 165.669C206.788 165.763 206.835 165.876 206.835 166.008C206.835 166.096 206.813 166.176 206.768 166.249C206.725 166.322 206.667 166.381 206.594 166.426C206.523 166.468 206.443 166.49 206.354 166.49Z" fill="white"/>
<path d="M204.452 148.052C207.021 141.374 203.69 133.878 197.012 131.309C190.333 128.74 182.837 132.072 180.268 138.75C177.7 145.428 181.031 152.924 187.709 155.493C194.387 158.062 201.884 154.731 204.452 148.052Z" fill="white"/>
<path d="M203.088 147.834C205.541 141.913 202.729 135.125 196.808 132.672C190.887 130.22 184.099 133.031 181.647 138.952C179.194 144.873 182.006 151.661 187.927 154.114C193.848 156.566 200.636 153.755 203.088 147.834Z" fill="#EE542F"/>
<path d="M187.676 147.974L188.548 146.011C189.508 146.709 190.948 147.189 192.3 147.189C193.87 147.189 194.481 146.665 194.481 145.967C194.481 143.83 187.894 145.313 187.894 141.081C187.894 139.162 189.464 137.548 192.649 137.548C194.088 137.548 195.528 137.897 196.575 138.551L195.746 140.558C194.699 139.947 193.609 139.685 192.605 139.685C191.035 139.685 190.468 140.253 190.468 140.994C190.468 143.088 197.055 141.648 197.055 145.793C197.055 147.668 195.484 149.326 192.256 149.326C190.468 149.283 188.679 148.715 187.676 147.974Z" fill="white"/>
<path d="M193.346 135.977H191.383V150.808H193.346V135.977Z" fill="white"/>
<path d="M186.105 204.77L190.424 208.304L196.27 202.589" stroke="white" stroke-width="2.6265" stroke-miterlimit="10" stroke-linecap="round" stroke-linejoin="round"/>
<path d="M106.013 233.257H287.747" stroke="#ADC0C9" stroke-width="1.2421" stroke-miterlimit="10"/>
<path d="M228.028 224.009L227.723 227.237C227.723 227.237 222.139 229.244 221.528 230.596C220.917 231.948 222.488 232.254 226.85 232.646C230.558 232.995 237.93 233.301 239.937 233.388C240.199 233.388 240.461 233.17 240.461 232.908L240.984 224.968L228.028 224.009Z" fill="#0C0055"/>
<path d="M228.202 225.929C228.202 225.929 232.957 226.845 240.373 226.714" stroke="#0C0055" stroke-width="0.9849" stroke-miterlimit="10" stroke-linecap="round"/>
<path d="M225.062 228.546C225.062 228.546 225.89 228.982 225.759 230.989" stroke="#0C0055" stroke-width="0.9849" stroke-miterlimit="10" stroke-linecap="round"/>
<path d="M237.581 231.905C237.581 231.905 238.41 229.855 240.155 229.331" stroke="#0C0055" stroke-width="0.9849" stroke-miterlimit="10" stroke-linecap="round"/>
<path d="M222.27 230.64C222.27 230.64 224.538 231.948 239.806 232.079" stroke="#0C0055" stroke-width="0.9849" stroke-miterlimit="10" stroke-linecap="round"/>
<path d="M274.793 220.649L276.843 223.135C276.843 223.135 274.313 228.457 274.793 229.853C275.273 231.249 276.669 230.333 280.028 227.585C282.951 225.229 288.403 220.256 289.843 218.947C290.061 218.773 290.061 218.424 289.887 218.25L284.652 212.229L274.793 220.649Z" fill="#0C0055"/>
<path d="M276.276 221.914C276.276 221.914 280.29 219.253 285.481 213.931" stroke="#0C0055" stroke-width="0.9849" stroke-miterlimit="10" stroke-linecap="round"/>
<path d="M275.883 226.016C275.883 226.016 276.799 225.754 278.108 227.237" stroke="#0C0055" stroke-width="0.9849" stroke-miterlimit="10" stroke-linecap="round"/>
<path d="M287.181 219.603C287.181 219.603 286.308 217.553 287.224 215.938" stroke="#0C0055" stroke-width="0.9849" stroke-miterlimit="10" stroke-linecap="round"/>
<path d="M275.36 229.418C275.36 229.418 277.891 228.763 288.84 218.119" stroke="#0C0055" stroke-width="0.9849" stroke-miterlimit="10" stroke-linecap="round"/>
<path d="M235.094 149.064V154.43C235.094 154.43 228.289 192.382 226.5 220.301C226.5 220.301 224.974 221.435 224.886 222.831C224.799 224.227 226.937 224.75 226.937 224.75C226.937 224.75 237.712 225.754 243.077 225.71C243.077 225.71 245.477 224.489 243.383 222.002C243.383 222.002 246.436 186.798 248.487 177.114L253.111 193.996C253.416 195.043 253.896 196.003 254.55 196.875L270.996 218.163C270.996 218.163 269.775 222.264 273.177 222.264L280.332 217.334L286.439 211.751C286.439 211.751 287.268 207.825 283.473 208.392L270.298 190.113C269.862 189.503 269.513 188.848 269.339 188.107L261.617 161.976C261.617 161.976 263.886 159.097 262.141 149.195L241.725 143.829L235.094 149.064Z" fill="#2F19BB"/>
<path d="M241.158 151.812C241.158 151.812 240.897 161.017 242.336 163.896L245.477 164.289" stroke="#0C0055" stroke-width="0.9849" stroke-miterlimit="10" stroke-linecap="round"/>
<path d="M249.403 180.299C249.403 180.299 246.306 168.389 245.477 162.544L244.91 151.812" stroke="#0C0055" stroke-width="0.9849" stroke-miterlimit="10" stroke-linecap="round"/>
<path d="M237.188 149.064V152.248L254.856 152.815V148.453L237.188 149.064Z" fill="#0C0055"/>
<path d="M262.141 149.064L259.131 148.278L257.343 148.453V152.641H262.621C262.534 151.55 262.359 150.372 262.141 149.064Z" fill="#0C0055"/>
<path d="M212.324 115.431L211.757 110.894C211.713 110.589 211.931 110.327 212.236 110.327H222.662C222.924 110.327 223.186 110.545 223.186 110.807L224.32 125.072L212.978 126.555L212.324 115.431Z" fill="#0C0055"/>
<path opacity="0.44" d="M221.746 110.327L223.404 124.897H224.363L223.229 110.851C223.186 110.589 222.968 110.371 222.706 110.371H221.746V110.327Z" fill="#0C0055"/>
<path d="M218.867 125.071H213.501V123.588L214.853 121.93C214.94 121.843 214.984 121.712 214.984 121.625C215.028 121.276 214.984 120.535 214.373 120.186L215.246 119.182C215.333 119.095 215.377 118.964 215.377 118.833C215.377 118.441 215.246 117.655 214.286 117.655L214.635 117.35C214.635 117.35 215.726 115.3 213.981 115.125L214.722 114.209C214.722 114.209 215.202 112.464 213.763 112.726L210.84 115.867C210.84 115.867 210.316 122.149 211.8 124.897L212.018 126.685C212.018 126.685 210.273 133.403 208.659 144.876C208.659 144.876 207.786 150.242 212.977 150.94C212.977 150.94 222.182 149.021 226.806 145.531V124.548L218.867 125.071Z" fill="#FFDAB8"/>
<path d="M230.907 126.731L229.816 124.462C229.816 124.462 230.209 121.409 230.121 120.754C230.034 120.056 226.98 117.875 226.195 117.57C225.41 117.265 223.752 117.352 223.752 117.352L223.84 119.446C223.84 119.446 220.83 117.657 219.957 116.697C219.957 116.697 218.736 116.61 218.605 117.963C218.605 117.963 217.427 117.788 216.947 119.14L217.34 119.882C217.34 119.882 216.467 119.926 216.293 121.06C216.293 121.06 216.729 122.063 216.903 122.238C216.903 122.238 216.205 122.325 216.293 123.11C216.38 123.895 219.215 127.603 220.568 128.17L221.353 129.435L226.719 143.264L229.816 145.314L232.128 149.808C232.477 150.462 233.131 150.898 233.917 150.942C235.312 151.029 237.581 150.854 239.849 149.197L258.825 145.358V125.291L230.907 126.731Z" fill="#FFDAB8"/>
<path d="M240.766 122.629L230.907 126.729L236.491 136.196L243.645 131.746C243.645 131.746 243.863 133.753 245.826 133.927C245.826 133.927 244.954 136.675 248.095 137.897C248.095 137.897 247.877 140.558 251.192 140.558C251.192 140.558 250.843 141.518 251.192 142.565L239.85 149.021H262.142C262.142 149.021 263.188 148.497 263.363 147.494C263.581 146.447 262.229 145.575 262.229 145.575L262.97 135.672C262.97 135.672 265.893 132.88 266.591 129.914C267.289 126.947 264.235 124.199 262.447 123.676L252.893 121.669L240.766 122.629Z" fill="#6D90FF"/>
<path d="M235.487 127.82L234.527 132.095" stroke="#0C0055" stroke-width="0.9849" stroke-miterlimit="10" stroke-linecap="round"/>
<path d="M237.885 103.217C237.885 103.217 234.745 107.012 235.661 112.378C236.533 117.394 241.375 119.096 241.375 119.096L242.291 121.931L240.721 122.585C240.721 122.585 241.419 127.166 244.254 128.256L252.892 121.669L249.751 121.146L249.009 116.871L249.838 116.042C249.838 116.042 253.459 115.518 254.68 112.727C255.989 109.76 253.415 108.757 253.415 108.757L247.701 101.341L237.885 103.217Z" fill="#FFDAB8"/>
<path opacity="0.33" d="M252.849 110.545C252.849 110.545 253.808 110.589 253.808 111.636C253.808 112.682 252.325 113.817 251.583 113.599C250.842 113.38 251.453 111.199 252.849 110.545Z" fill="#FF7F60"/>
<path opacity="0.33" d="M241.377 119.138C244.692 119.749 246.873 118.396 246.873 118.396C245.434 120.665 241.944 120.883 241.944 120.883L241.377 119.138Z" fill="#FF7F60"/>
<path d="M251.89 102.518C251.89 102.518 252.675 100.642 255.161 99.3337C257.648 98.025 259.873 98.8538 259.611 100.075C259.611 100.075 260.745 100.119 261.094 101.297C261.443 102.475 260.571 103.391 260.571 103.391C260.571 103.391 261.53 103.827 261.618 104.83C261.705 105.834 260.832 106.27 260.832 106.27C260.832 106.27 261.443 106.27 261.443 106.837C261.443 107.404 260.222 108.887 258.564 109.193C256.906 109.498 254.463 108.931 253.198 107.099C251.933 105.31 251.89 102.518 251.89 102.518Z" fill="#0C0055"/>
<path opacity="0.44" d="M251.89 102.518C251.89 102.518 252.675 100.642 255.161 99.3337C257.648 98.025 259.873 98.8538 259.611 100.075C259.611 100.075 260.745 100.119 261.094 101.297C261.443 102.475 260.571 103.391 260.571 103.391C260.571 103.391 261.53 103.827 261.618 104.83C261.705 105.834 260.832 106.27 260.832 106.27C260.832 106.27 261.443 106.27 261.443 106.837C261.443 107.404 260.222 108.887 258.564 109.193C256.906 109.498 254.463 108.931 253.198 107.099C251.933 105.31 251.89 102.518 251.89 102.518Z" fill="#0C0055"/>
<path d="M252.021 102.214C252.719 102.475 254.377 103.217 254.682 104.788C254.726 104.962 254.639 105.18 254.551 105.311C254.159 105.747 253.373 106.62 252.937 106.794C252.501 107.012 251.934 103.522 251.759 102.388C251.716 102.301 251.847 102.17 252.021 102.214Z" fill="#6D90FF"/>
<path d="M237.144 103.958C237.711 104.045 239.019 104.176 239.892 103.304C239.892 103.304 240.59 103.871 241.68 102.911C241.68 102.911 242.247 104.307 244.08 102.911C244.08 102.911 244.298 103.871 246.523 103.347C246.523 103.347 246.304 105.049 248.529 105.485C248.529 105.485 247.221 107.492 248.704 108.146C248.704 108.146 248.18 110.545 250.056 111.156L251.975 108.67C251.975 108.67 252.717 108.495 253.502 108.844C253.502 108.844 254.462 100.73 247.788 99.2905C239.194 97.4583 237.318 102.431 237.013 103.653C236.925 103.784 237.013 103.915 237.144 103.958Z" fill="#0C0055"/>
<path d="M237.232 107.448C237.232 107.448 238.017 106.314 239.282 106.27C239.457 106.27 239.631 106.096 239.587 105.921C239.544 105.616 239.326 105.223 238.715 105.049C238.715 105.049 237.363 105.092 236.795 106.968C236.795 106.925 236.708 107.317 237.232 107.448Z" fill="#0C0055"/>
<path d="M242.292 105.878C242.292 105.486 242.423 105.006 242.859 104.788C242.859 104.788 245.389 104.7 246.174 106.62C246.174 106.62 246.044 107.143 245.52 107.143C245.52 107.143 244.168 106.227 242.728 106.315C242.466 106.315 242.292 106.096 242.292 105.878Z" fill="#0C0055"/>
<path d="M239.413 109.629C239.413 110.327 239.195 110.85 238.977 110.85C238.716 110.85 238.541 110.283 238.541 109.629C238.541 108.974 238.759 108.407 238.977 108.407C239.195 108.407 239.413 108.931 239.413 109.629Z" fill="#0C0055"/>
<path d="M244.954 109.804C244.954 110.502 244.736 111.025 244.518 111.025C244.257 111.025 244.082 110.458 244.082 109.804C244.082 109.106 244.3 108.582 244.518 108.582C244.78 108.539 244.954 109.106 244.954 109.804Z" fill="#0C0055"/>
<path d="M241.071 109.237V110.851C241.071 110.851 240.155 111.244 240.155 111.942C240.155 112.684 241.42 112.814 241.42 112.814" stroke="#858585" stroke-miterlimit="10" stroke-linecap="round"/>
<path d="M253.198 110.459C253.198 110.459 251.977 110.503 251.191 112.771" stroke="#858585" stroke-miterlimit="10" stroke-linecap="round"/>
<path d="M253.198 111.723C253.198 111.723 252.412 111.243 251.671 111.723" stroke="#858585" stroke-miterlimit="10" stroke-linecap="round"/>
<path d="M241.377 119.139C241.377 119.139 244.91 119.88 247.179 118.223" stroke="#858585" stroke-miterlimit="10" stroke-linecap="round"/>
<path d="M241.377 115.387L246.176 112.464C246.176 112.464 247.571 115.256 245.521 116.39C242.86 117.873 241.377 115.387 241.377 115.387Z" fill="#E25555"/>
<path d="M243.646 116.87C244.169 116.913 244.823 116.782 245.565 116.39C246.743 115.736 246.786 114.514 246.568 113.642C244.518 113.685 243.864 115.866 243.646 116.87Z" fill="#F76B6B"/>
<path d="M246.568 113.598C246.437 112.943 246.176 112.42 246.176 112.42L241.377 115.343C241.377 115.343 241.639 115.823 242.206 116.215L246.568 113.598Z" fill="white"/>
<path d="M221.353 129.346L229.816 145.225C229.816 145.225 228.464 147.013 226.893 146.446C225.367 145.879 225.977 142.564 225.977 142.564C225.977 142.564 223.709 142.389 224.363 139.335C224.363 139.335 221.746 138.725 222.706 135.715C222.706 135.715 221.833 135.976 221.31 134.581V129.346H221.353Z" fill="#6D90FF"/>
<path d="M218.647 117.873C218.647 117.873 221.657 121.014 224.144 121.668" stroke="#858585" stroke-miterlimit="10" stroke-linecap="round"/>
<path d="M217.339 119.794C217.339 119.794 219.738 122.76 222.486 123.807" stroke="#858585" stroke-miterlimit="10" stroke-linecap="round"/>
<path d="M216.948 122.104C216.948 122.104 219.26 124.809 220.787 125.071" stroke="#858585" stroke-miterlimit="10" stroke-linecap="round"/>
<path d="M220.001 116.651C220.001 116.651 223.273 119.574 225.585 120.228" stroke="#858585" stroke-miterlimit="10" stroke-linecap="round"/>
<path d="M223.884 119.401V117.612" stroke="#858585" stroke-miterlimit="10" stroke-linecap="round"/>
<path d="M237.583 137.94L230.646 126.293" stroke="#858585" stroke-miterlimit="10" stroke-linecap="round"/>
<path d="M216.468 123.415C216.468 123.415 218.954 127.428 220.612 128.083L228.508 142.74" stroke="#858585" stroke-miterlimit="10" stroke-linecap="round"/>
<path d="M220.787 143.83L221.572 129.914" stroke="#858585" stroke-miterlimit="10" stroke-linecap="round"/>
<path d="M212.104 122.236L214.373 120.186L215.245 119.183" stroke="#858585" stroke-miterlimit="10" stroke-linecap="round"/>
<path d="M212.629 124.635L214.854 121.931" stroke="#858585" stroke-miterlimit="10" stroke-linecap="round"/>
<path d="M211.713 119.793L214.287 117.612" stroke="#858585" stroke-miterlimit="10" stroke-linecap="round"/>
<path d="M211.495 117.611L214.592 114.296" stroke="#858585" stroke-miterlimit="10" stroke-linecap="round"/>
<path opacity="0.44" d="M220.612 112.813C220.612 112.246 220.176 111.81 219.609 111.81C219.042 111.81 218.605 112.246 218.605 112.813C218.605 113.38 219.042 113.816 219.609 113.816C220.176 113.816 220.612 113.38 220.612 112.813Z" fill="#0C0055"/>
<path d="M264.671 133.752C264.671 133.752 260.265 139.379 253.11 144.832C253.11 144.832 250.711 144.265 251.191 140.645C251.191 140.645 248.53 141.037 248.094 137.984C248.094 137.984 245.258 137.242 245.825 134.014C245.825 134.014 243.601 133.534 243.644 131.833L256.251 124.111" stroke="#0C0055" stroke-width="0.9849" stroke-miterlimit="10" stroke-linecap="round"/>
<path d="M243.427 221.915C244.256 205.294 248.531 177.026 248.531 177.026" stroke="#0C0055" stroke-width="0.9849" stroke-miterlimit="10" stroke-linecap="round"/>
<path d="M233.611 221.916C233.611 221.916 241.856 222.396 243.427 221.916" stroke="#0C0055" stroke-width="0.9849" stroke-miterlimit="10" stroke-linecap="round"/>
<path d="M276.143 214.368L283.515 208.261" stroke="#0C0055" stroke-width="0.9849" stroke-miterlimit="10" stroke-linecap="round"/>
<path d="M122.11 200.449C122.11 200.449 121.935 193.47 123.768 193.47C125.556 193.47 123.157 204.114 123.157 204.114L122.11 200.449Z" fill="#EE542F"/>
<path d="M123.548 205.686C123.548 205.686 119.752 199.229 117.571 200.582C115.39 201.934 124.638 210.179 124.638 210.179L123.548 205.686Z" fill="#EE542F"/>
<path d="M120.407 195.432C120.407 195.432 116.656 189.892 114.649 191.899C112.642 193.862 119.099 197.177 120.887 196.741L120.407 195.432Z" fill="#EE542F"/>
<path d="M118.838 191.463C118.838 191.463 117.704 185.007 119.449 184.963C121.194 184.92 120.496 190.634 119.318 192.597L118.838 191.463Z" fill="#EE542F"/>
<path d="M115.392 184.616C115.392 184.616 117.879 179.294 116.352 177.637C115.043 176.284 113.822 182.435 115.392 184.616Z" fill="#EE542F"/>
<path d="M116.831 187.232C116.831 187.232 112.73 182.913 111.16 184.963C109.633 187.014 114.039 188.322 116.831 187.232Z" fill="#EE542F"/>
<path d="M111.989 179.947C111.989 179.947 107.496 178.551 107.539 181.081C107.583 183.611 112.949 181.081 112.949 181.081L111.989 179.947Z" fill="#EE542F"/>
<path d="M111.989 179.947C111.989 179.947 113.341 175.366 112.294 173.839C110.942 171.833 109.327 177.46 111.989 179.947Z" fill="#EE542F"/>
<path d="M110.114 178.202C110.114 178.202 120.322 184.789 125.993 217.114" stroke="#1BB5C8" stroke-width="0.8072" stroke-miterlimit="10"/>
<path d="M110.68 178.638C110.68 178.638 108.891 174.145 106.448 174.755C104.005 175.366 108.237 179.685 110.68 178.638Z" fill="#EE542F"/>
<path d="M128.696 196.656C128.696 196.656 128.871 189.676 127.038 189.676C125.25 189.676 127.649 200.32 127.649 200.32L128.696 196.656Z" fill="#EE542F"/>
<path d="M127.211 201.936C127.211 201.936 131.006 195.479 133.187 196.832C135.368 198.184 126.12 206.429 126.12 206.429L127.211 201.936Z" fill="#EE542F"/>
<path d="M130.353 191.639C130.353 191.639 134.105 186.099 136.111 188.106C138.118 190.069 131.662 193.384 129.873 192.948L130.353 191.639Z" fill="#EE542F"/>
<path d="M131.924 187.669C131.924 187.669 133.059 181.213 131.314 181.169C129.569 181.126 130.267 186.84 131.445 188.803L131.924 187.669Z" fill="#EE542F"/>
<path d="M135.37 180.82C135.37 180.82 132.883 175.498 134.41 173.841C135.762 172.488 136.94 178.639 135.37 180.82Z" fill="#EE542F"/>
<path d="M133.932 183.439C133.932 183.439 138.032 179.12 139.603 181.17C141.173 183.221 136.724 184.529 133.932 183.439Z" fill="#EE542F"/>
<path d="M138.773 176.154C138.773 176.154 143.266 174.758 143.223 177.288C143.179 179.818 137.813 177.288 137.813 177.288L138.773 176.154Z" fill="#EE542F"/>
<path d="M138.772 176.153C138.772 176.153 137.42 171.573 138.467 170.046C139.863 168.039 141.433 173.71 138.772 176.153Z" fill="#EE542F"/>
<path d="M140.648 174.408C140.648 174.408 130.441 180.995 124.77 213.32" stroke="#1BB5C8" stroke-width="0.8072" stroke-miterlimit="10"/>
<path d="M140.08 174.846C140.08 174.846 141.869 170.353 144.312 170.963C146.754 171.574 142.523 175.893 140.08 174.846Z" fill="#EE542F"/>
<path d="M119.754 233.387H131.969L135.589 215.414H116.221L119.754 233.387Z" fill="#0C0055"/>
<path d="M116.307 216.461L115.086 215.414V212.884H136.898V215.414L135.589 216.461H116.307Z" fill="#EE542F"/>
<path d="M131.881 106.356C137.856 106.356 142.7 101.512 142.7 95.5373C142.7 89.5624 137.856 84.7188 131.881 84.7188C125.906 84.7188 121.062 89.5624 121.062 95.5373C121.062 101.512 125.906 106.356 131.881 106.356Z" fill="#EE542F"/>
<path d="M136.722 100.511H127.081L129.088 90.5645H134.672L136.722 100.511Z" fill="white"/>
<path d="M133.539 91.7412C133.539 92.6573 132.797 93.3553 131.925 93.3553C131.052 93.3553 130.311 92.6137 130.311 91.7412" stroke="#EE542F" stroke-width="1.008" stroke-miterlimit="10" stroke-linecap="round"/>
</svg>
