<svg width="311" height="251" viewBox="0 0 311 251" fill="none" xmlns="http://www.w3.org/2000/svg">
<g clip-path="url(#clip0_2507_108897)">
<rect width="311" height="250" transform="translate(0 0.666992)" fill="white"/>
<path d="M324.935 157.58C349.672 208.41 330.404 292.526 282.168 317.191C185.343 366.686 10.5702 191.814 4.1433 134.021C-1.65245 81.777 122.749 60.2324 215.783 88.6563C277.855 107.617 315.091 137.361 324.935 157.58Z" fill="#C2D0FF"/>
<path d="M29.7343 48.667V34.507H24.1663V31.867H38.4223V34.507H32.8543V48.667H29.7343ZM37.5441 48.667L45.1041 31.867H48.1761L55.7601 48.667H52.4961L45.9921 33.523H47.2401L40.7601 48.667H37.5441ZM41.0241 44.779L41.8641 42.331H50.9361L51.7761 44.779H41.0241ZM46.6401 30.667C45.4721 30.667 44.4961 30.355 43.7121 29.731C42.9441 29.107 42.5361 28.267 42.4881 27.211H44.4561C44.4881 27.771 44.7121 28.211 45.1281 28.531C45.5441 28.851 46.0481 29.011 46.6401 29.011C47.2321 29.011 47.7361 28.851 48.1521 28.531C48.5841 28.211 48.8081 27.771 48.8241 27.211H50.7921C50.7441 28.267 50.3281 29.107 49.5441 29.731C48.7761 30.355 47.8081 30.667 46.6401 30.667ZM57.8966 48.667V31.867H60.4646L71.0006 44.803H69.7286V31.867H72.8246V48.667H70.2566L59.7206 35.731H60.9926V48.667H57.8966ZM85.1743 48.907C83.8623 48.907 82.6543 48.699 81.5503 48.283C80.4623 47.851 79.5103 47.251 78.6943 46.483C77.8783 45.699 77.2463 44.779 76.7983 43.723C76.3503 42.667 76.1263 41.515 76.1263 40.267C76.1263 39.019 76.3503 37.867 76.7983 36.811C77.2463 35.755 77.8783 34.843 78.6943 34.075C79.5263 33.291 80.4943 32.691 81.5983 32.275C82.7023 31.843 83.9103 31.627 85.2223 31.627C86.6463 31.627 87.9263 31.859 89.0623 32.323C90.2143 32.787 91.1823 33.467 91.9663 34.363L89.9983 36.283C89.3423 35.627 88.6303 35.147 87.8623 34.843C87.1103 34.523 86.2783 34.363 85.3663 34.363C84.4863 34.363 83.6703 34.507 82.9183 34.795C82.1663 35.083 81.5183 35.491 80.9743 36.019C80.4303 36.547 80.0063 37.171 79.7023 37.891C79.4143 38.611 79.2703 39.403 79.2703 40.267C79.2703 41.115 79.4143 41.899 79.7023 42.619C80.0063 43.339 80.4303 43.971 80.9743 44.515C81.5183 45.043 82.1583 45.451 82.8943 45.739C83.6303 46.027 84.4463 46.171 85.3423 46.171C86.1743 46.171 86.9743 46.043 87.7423 45.787C88.5263 45.515 89.2703 45.067 89.9743 44.443L91.7503 46.771C90.8703 47.475 89.8463 48.011 88.6783 48.379C87.5263 48.731 86.3583 48.907 85.1743 48.907ZM88.7983 46.363V40.075H91.7503V46.771L88.7983 46.363ZM105.906 48.667V34.507H100.338V31.867H114.594V34.507H109.026V48.667H105.906ZM128.744 31.867H131.864V48.667H128.744V31.867ZM120.056 48.667H116.936V31.867H120.056V48.667ZM128.984 41.467H119.792V38.803H128.984V41.467ZM143.589 48.907C141.285 48.907 139.477 48.259 138.165 46.963C136.869 45.667 136.221 43.795 136.221 41.347V31.867H139.341V41.227C139.341 42.955 139.709 44.211 140.445 44.995C141.197 45.779 142.253 46.171 143.613 46.171C144.973 46.171 146.021 45.779 146.757 44.995C147.493 44.211 147.861 42.955 147.861 41.227V31.867H150.933V41.347C150.933 43.795 150.277 45.667 148.965 46.963C147.669 48.259 145.877 48.907 143.589 48.907ZM161.936 48.667V31.867H164.504L175.04 44.803H173.768V31.867H176.864V48.667H174.296L163.76 35.731H165.032V48.667H161.936ZM193.173 31.867H196.293V48.667H193.173V31.867ZM184.485 48.667H181.365V31.867H184.485V48.667ZM193.413 41.467H184.221V38.803H193.413V41.467ZM198.419 48.667L205.979 31.867H209.051L216.635 48.667H213.371L206.867 33.523H208.115L201.635 48.667H198.419ZM201.899 44.779L202.739 42.331H211.811L212.651 44.779H201.899ZM207.515 53.539C207.115 53.539 206.771 53.411 206.483 53.155C206.211 52.899 206.075 52.555 206.075 52.123C206.075 51.691 206.211 51.339 206.483 51.067C206.771 50.795 207.115 50.659 207.515 50.659C207.915 50.659 208.251 50.795 208.523 51.067C208.811 51.339 208.955 51.691 208.955 52.123C208.955 52.555 208.811 52.899 208.523 53.155C208.251 53.411 207.915 53.539 207.515 53.539ZM202.931 30.499L206.147 27.211H208.883L212.099 30.499H209.627L206.363 27.739H208.667L205.403 30.499H202.931ZM218.772 48.667V31.867H225.684C227.172 31.867 228.444 32.107 229.5 32.587C230.572 33.067 231.396 33.755 231.972 34.651C232.548 35.547 232.836 36.611 232.836 37.843C232.836 39.075 232.548 40.139 231.972 41.035C231.396 41.931 230.572 42.619 229.5 43.099C228.444 43.579 227.172 43.819 225.684 43.819H220.5L221.892 42.355V48.667H218.772ZM221.892 42.691L220.5 41.179H225.54C226.916 41.179 227.948 40.891 228.636 40.315C229.34 39.723 229.692 38.899 229.692 37.843C229.692 36.771 229.34 35.947 228.636 35.371C227.948 34.795 226.916 34.507 225.54 34.507H220.5L221.892 32.971V42.691Z" fill="#0C0055"/>
<path d="M29.1598 74.763C28.2958 74.763 27.5225 74.5763 26.8398 74.203C26.1678 73.8297 25.6398 73.3177 25.2558 72.667C24.8718 72.0163 24.6798 71.2697 24.6798 70.427C24.6798 69.5843 24.8718 68.8377 25.2558 68.187C25.6398 67.5363 26.1678 67.0297 26.8398 66.667C27.5225 66.2937 28.2958 66.107 29.1598 66.107C29.9278 66.107 30.6105 66.2617 31.2078 66.571C31.8158 66.8697 32.2851 67.3177 32.6158 67.915L31.4478 68.667C31.1705 68.251 30.8291 67.947 30.4238 67.755C30.0291 67.5523 29.6025 67.451 29.1438 67.451C28.5891 67.451 28.0931 67.5737 27.6558 67.819C27.2185 68.0643 26.8718 68.411 26.6158 68.859C26.3598 69.2963 26.2318 69.819 26.2318 70.427C26.2318 71.035 26.3598 71.563 26.6158 72.011C26.8718 72.459 27.2185 72.8057 27.6558 73.051C28.0931 73.2963 28.5891 73.419 29.1438 73.419C29.6025 73.419 30.0291 73.323 30.4238 73.131C30.8291 72.9283 31.1705 72.619 31.4478 72.203L32.6158 72.939C32.2851 73.5257 31.8158 73.979 31.2078 74.299C30.6105 74.6083 29.9278 74.763 29.1598 74.763ZM39.0231 66.107C39.7164 66.107 40.3244 66.2403 40.8471 66.507C41.3804 66.7737 41.7964 67.179 42.0951 67.723C42.3937 68.267 42.5431 68.955 42.5431 69.787V74.667H41.0071V69.963C41.0071 69.1417 40.8044 68.523 40.3991 68.107C40.0044 67.691 39.4444 67.483 38.7191 67.483C38.1751 67.483 37.7004 67.5897 37.2951 67.803C36.8897 68.0163 36.5751 68.331 36.3511 68.747C36.1377 69.163 36.0311 69.6803 36.0311 70.299V74.667H34.4951V62.795H36.0311V68.475L35.7271 67.867C36.0044 67.3123 36.4311 66.8803 37.0071 66.571C37.5831 66.2617 38.2551 66.107 39.0231 66.107ZM49.0177 74.763C48.1644 74.763 47.407 74.5763 46.7457 74.203C46.0844 73.8297 45.5617 73.3177 45.1777 72.667C44.7937 72.0057 44.6017 71.259 44.6017 70.427C44.6017 69.5843 44.7937 68.8377 45.1777 68.187C45.5617 67.5363 46.0844 67.0297 46.7457 66.667C47.407 66.2937 48.1644 66.107 49.0177 66.107C49.8604 66.107 50.6124 66.2937 51.2737 66.667C51.9457 67.0297 52.4684 67.5363 52.8417 68.187C53.2257 68.827 53.4177 69.5737 53.4177 70.427C53.4177 71.2697 53.2257 72.0163 52.8417 72.667C52.4684 73.3177 51.9457 73.8297 51.2737 74.203C50.6124 74.5763 49.8604 74.763 49.0177 74.763ZM49.0177 73.419C49.5617 73.419 50.047 73.2963 50.4737 73.051C50.911 72.8057 51.2524 72.459 51.4977 72.011C51.743 71.5523 51.8657 71.0243 51.8657 70.427C51.8657 69.819 51.743 69.2963 51.4977 68.859C51.2524 68.411 50.911 68.0643 50.4737 67.819C50.047 67.5737 49.5617 67.451 49.0177 67.451C48.4737 67.451 47.9884 67.5737 47.5617 67.819C47.135 68.0643 46.7937 68.411 46.5377 68.859C46.2817 69.2963 46.1537 69.819 46.1537 70.427C46.1537 71.0243 46.2817 71.5523 46.5377 72.011C46.7937 72.459 47.135 72.8057 47.5617 73.051C47.9884 73.2963 48.4737 73.419 49.0177 73.419ZM62.2868 74.667V64.859H58.4468V63.467H67.7108V64.859H63.8708V74.667H62.2868ZM74.0403 74.667V72.875L73.9603 72.539V69.483C73.9603 68.8323 73.7683 68.331 73.3843 67.979C73.011 67.6163 72.4456 67.435 71.6883 67.435C71.187 67.435 70.6963 67.5203 70.2163 67.691C69.7363 67.851 69.331 68.0697 69.0003 68.347L68.3603 67.195C68.7976 66.843 69.3203 66.5763 69.9283 66.395C70.547 66.203 71.1923 66.107 71.8643 66.107C73.027 66.107 73.923 66.3897 74.5523 66.955C75.1816 67.5203 75.4963 68.3843 75.4963 69.547V74.667H74.0403ZM71.2563 74.763C70.627 74.763 70.0723 74.6563 69.5923 74.443C69.123 74.2297 68.7603 73.9363 68.5043 73.563C68.2483 73.179 68.1203 72.747 68.1203 72.267C68.1203 71.8083 68.227 71.3923 68.4403 71.019C68.6643 70.6457 69.0216 70.347 69.5123 70.123C70.0136 69.899 70.6856 69.787 71.5283 69.787H74.2163V70.891H71.5923C70.8243 70.891 70.307 71.019 70.0403 71.275C69.7736 71.531 69.6403 71.8403 69.6403 72.203C69.6403 72.619 69.8056 72.955 70.1363 73.211C70.467 73.4563 70.9256 73.579 71.5123 73.579C72.0883 73.579 72.5896 73.451 73.0163 73.195C73.4536 72.939 73.7683 72.5657 73.9603 72.075L74.2643 73.131C74.0616 73.6323 73.7043 74.0323 73.1923 74.331C72.6803 74.619 72.035 74.763 71.2563 74.763ZM71.7363 64.955L69.0483 62.875H71.0003L73.1763 64.955H71.7363ZM78.3388 74.667V66.187H79.8748V74.667H78.3388ZM79.1068 64.555C78.8081 64.555 78.5575 64.459 78.3548 64.267C78.1628 64.075 78.0668 63.8403 78.0668 63.563C78.0668 63.275 78.1628 63.035 78.3548 62.843C78.5575 62.651 78.8081 62.555 79.1068 62.555C79.4055 62.555 79.6508 62.651 79.8428 62.843C80.0455 63.0243 80.1468 63.2537 80.1468 63.531C80.1468 63.819 80.0508 64.0643 79.8588 64.267C79.6668 64.459 79.4161 64.555 79.1068 64.555ZM85.8724 74.667L89.5204 69.931L89.5044 70.715L86.0324 66.187H87.7444L90.4004 69.675H89.7444L92.4004 66.187H94.0804L90.5604 70.747L90.5764 69.931L94.2564 74.667H92.5124L89.7124 70.955L90.3364 71.051L87.5844 74.667H85.8724ZM99.4273 74.763C98.5206 74.763 97.7206 74.5763 97.0273 74.203C96.3446 73.8297 95.8113 73.3177 95.4273 72.667C95.054 72.0163 94.8673 71.2697 94.8673 70.427C94.8673 69.5843 95.0486 68.8377 95.4113 68.187C95.7846 67.5363 96.2913 67.0297 96.9313 66.667C97.582 66.2937 98.3126 66.107 99.1233 66.107C99.9446 66.107 100.67 66.2883 101.299 66.651C101.929 67.0137 102.419 67.5257 102.771 68.187C103.134 68.8377 103.315 69.6003 103.315 70.475C103.315 70.539 103.31 70.6137 103.299 70.699C103.299 70.7843 103.294 70.8643 103.283 70.939H96.0673V69.835H102.483L101.859 70.219C101.87 69.675 101.758 69.1897 101.523 68.763C101.289 68.3363 100.963 68.0057 100.547 67.771C100.142 67.5257 99.6673 67.403 99.1233 67.403C98.59 67.403 98.1153 67.5257 97.6993 67.771C97.2833 68.0057 96.958 68.3417 96.7233 68.779C96.4886 69.2057 96.3713 69.6963 96.3713 70.251V70.507C96.3713 71.0723 96.4993 71.579 96.7553 72.027C97.022 72.4643 97.39 72.8057 97.8593 73.051C98.3286 73.2963 98.8673 73.419 99.4753 73.419C99.9766 73.419 100.43 73.3337 100.835 73.163C101.251 72.9923 101.614 72.7363 101.923 72.395L102.771 73.387C102.387 73.835 101.907 74.1763 101.331 74.411C100.766 74.6457 100.131 74.763 99.4273 74.763ZM96.2433 64.955L98.3873 63.355H99.8273L101.971 64.955H100.563L98.4673 63.659H99.7473L97.6513 64.955H96.2433ZM100.691 63.547L102.579 61.739H104.323L101.955 63.547H100.691Z" fill="#0C0055"/>
<path d="M296.693 121.336L286.995 137.185L282.337 129.245L281.052 127.064C274.223 130.692 265.13 130.412 263.692 129.824C262.471 129.332 260.828 127.054 260.353 126.379C260.262 126.264 260.21 126.198 260.21 126.198L259.733 126.061C259.733 126.061 259.015 127.754 258.045 128.401C257.076 129.048 248.019 130.465 247.666 130.417C247.313 130.369 246.986 130.287 246.266 128.963C245.547 127.639 245.528 125.118 245.528 125.118C245.528 125.118 243.15 125.121 242.725 124.702C242.299 124.283 240.234 119.355 240.234 119.355C239.803 119.296 239.383 119.178 238.985 119.005C238.597 118.778 236.985 115.236 236.861 114.164C236.768 113.59 236.812 113.002 236.991 112.448C236.419 112.065 235.018 108.771 235.018 108.771C235.018 108.771 230.702 109.299 229.291 108.542C227.881 107.786 228.1 103.972 228.326 103.546C228.508 103.201 230.975 101.676 231.893 101.116L232.235 100.912C231.821 99.1454 237.727 89.9389 240.938 88.7011C244.149 87.4634 263.99 86.7525 266.614 87.6187C269.238 88.485 288.66 111.953 288.66 111.953L296.693 121.336Z" fill="url(#paint0_linear_2507_108897)"/>
<path style="mix-blend-mode:multiply" opacity="0.5" d="M235.023 108.753C235.023 108.753 236.099 111.594 237.002 112.438C237.002 112.438 244.573 112.625 250.545 111.335L252.396 107.253L246.129 106.596L235.023 108.753Z" fill="url(#paint1_linear_2507_108897)"/>
<path style="mix-blend-mode:multiply" opacity="0.6" d="M281.921 118.531L282.348 129.233L281.064 127.052C274.234 130.68 265.141 130.4 263.704 129.812C262.483 129.32 260.839 127.042 260.365 126.367L260.193 118.842L253.735 106.453C253.735 106.453 263.627 116.531 268.838 117.684C274.049 118.837 280.132 116.95 280.132 116.95L281.921 118.531Z" fill="url(#paint2_linear_2507_108897)"/>
<path d="M262.743 92.0274C262.743 92.0274 259.884 96.0378 259.065 96.1978C258.246 96.3577 241.46 96.1681 241.46 96.1681L240.701 96.3946L243.608 94.139L241.902 91.4758C242.953 92.2019 243.934 93.0242 244.833 93.9323L247.675 93.7286L248.399 91.3226L248.497 93.9877L259.551 93.9662C259.551 93.9662 261.995 92.9206 262.743 92.0274Z" fill="url(#paint3_linear_2507_108897)"/>
<path d="M235.025 108.751C235.025 108.751 240.929 107.909 243.949 105.94C243.949 105.94 250.247 105.128 253.732 106.49C253.732 106.49 261.374 117.834 264.398 119.688C265.315 120.254 270.693 120.364 273.43 118.739C271.462 120.042 269.198 120.827 266.848 121.021L264.958 121.005L262.131 128.596L260.226 126.19L259.738 126.056C259.738 126.056 259.021 127.861 258.263 128.241C258.263 128.241 258.555 124.884 257.492 123.364C257.492 123.364 249.393 125.703 245.558 125.568L245.541 125.114C245.541 125.114 253.154 124.364 256.633 122.686C256.633 122.686 257.301 120.565 255.459 117.393C255.459 117.393 245.348 119.933 240.249 119.354C240.249 119.354 248.268 118.939 253.683 117.14C253.581 115.291 253.088 113.485 252.237 111.842C252.237 111.842 240.636 113.475 236.942 112.646L236.993 112.431C241.243 112.457 245.483 112.016 249.638 111.117C249.638 111.117 244.002 109.504 235.208 109.161L235.025 108.751Z" fill="url(#paint4_linear_2507_108897)"/>
<path style="mix-blend-mode:multiply" opacity="0.6" d="M253.736 106.454C250.639 105.447 243.963 105.916 243.963 105.916C241.161 108.035 235.038 108.728 235.038 108.728C235.038 108.728 230.722 109.256 229.311 108.499C227.901 107.743 228.12 103.929 228.346 103.503C228.528 103.158 230.995 101.632 231.913 101.073L232.255 100.869L240.722 96.3789L241.187 96.2381C239.238 99.1198 242.368 104.918 242.368 104.918C251.46 105.105 253.589 106.396 253.736 106.454Z" fill="url(#paint5_linear_2507_108897)"/>
<path style="mix-blend-mode:multiply" opacity="0.76" d="M259.738 126.049C259.976 124.847 260.104 123.626 260.121 122.401C259.995 121.425 259.74 120.47 259.362 119.562L256.647 122.696C256.647 122.696 259.309 119.571 259.187 118.283C259.06 116.751 259.042 114.992 257.714 114.136L255.456 117.416L252.699 117.465L253.68 117.163C255.332 116.444 256.682 115.172 257.497 113.566C257.497 113.566 256.883 110.666 255.294 109.235L252.234 111.865L244.974 112.663C244.974 112.663 250.35 112.086 251.952 111.085C252.8 110.56 253.565 109.911 254.222 109.16C254.537 108.77 253.712 106.5 253.712 106.5C253.712 106.5 258.58 110.005 258.362 110.01C260.591 112.969 262.86 118.679 264.385 119.707L264.941 121.019L262.114 128.61L260.209 126.205L259.738 126.049Z" fill="url(#paint6_linear_2507_108897)"/>
<path style="mix-blend-mode:multiply" opacity="0.76" d="M278.913 128.046C278.913 128.046 280.516 117.944 283.283 114.342C283.283 114.342 281.262 117.073 281.382 127.624L281.051 127.062L278.913 128.046Z" fill="url(#paint7_linear_2507_108897)"/>
<path fill-rule="evenodd" clip-rule="evenodd" d="M366.943 198.152L312.762 208.693C312.762 208.693 309.361 201.858 308.95 200.899C308.539 199.939 310.186 195.939 309.179 190.721C308.221 185.752 294.53 157.09 292.994 154.025L292.927 153.897L292.853 153.762C292.525 153.245 292.846 151.627 292.846 151.627C292.846 151.627 285.776 142.699 285.652 142.094C285.529 141.489 286.668 137.804 286.668 137.804L281.8 130.184C280.979 126.819 281.236 121.986 281.971 118.392C282.417 116.186 283.046 114.457 283.718 113.824C283.784 113.751 283.862 113.689 283.949 113.642C285.808 112.644 290.616 112.865 290.616 112.865L297.383 120.259L298.546 121.533C298.546 121.533 306.822 122.339 307.275 122.844C307.728 123.348 315.26 135.543 315.26 135.543L320.742 134.481L320.304 139.009C335.178 155.608 360.928 189.193 360.928 189.193L363.353 191.019L366.943 198.152Z" fill="url(#paint8_linear_2507_108897)"/>
<path d="M259.065 96.1973L264.374 94.6291C265.447 93.9007 266.281 92.8712 266.769 91.6708C267.258 90.4704 267.38 89.1529 267.121 87.8847C267.121 87.8847 253.614 86.2821 241.842 88.7661L244.987 93.5421L247.679 93.7323L248.301 91.0044L248.496 93.9946L259.55 93.9731C260.682 93.4432 261.753 92.7905 262.743 92.0269C262.743 92.0269 260.266 95.4534 259.065 96.1973Z" fill="#FFAC90"/>
<path d="M241.166 96.2547C241.166 96.2547 238.963 99.6118 242.359 104.951C242.359 104.951 253.105 104.973 258.009 106.61C258.009 106.61 261.94 103.597 261.819 98.5675C261.819 98.5675 257.435 95.884 241.166 96.2547Z" fill="#FFAC90"/>
<path d="M228.656 103.209C228.656 103.209 232.35 101.1 233.829 100.885C234.735 100.75 235.683 104.589 235.311 106.075C234.938 107.561 229.711 108.683 229.711 108.683C229.711 108.683 228.578 107.921 228.404 105.931C228.23 103.941 228.656 103.209 228.656 103.209Z" fill="#FF9884"/>
<path d="M229.108 102.959C229.108 102.959 227.651 105.217 230.016 108.61L229.712 108.684C229.712 108.684 227.474 107.111 228.557 103.229L229.108 102.959Z" fill="#FFC9BF"/>
<path d="M232.094 101.444C232.094 101.444 233.368 100.843 234.162 101.211C234.956 101.579 235.269 104.777 234.983 105.914C234.696 107.051 232.878 107.735 232.878 107.735C232.878 107.735 235.039 107.188 235.466 105.779C235.893 104.371 234.669 100.937 234.109 100.832C233.55 100.726 232.094 101.444 232.094 101.444Z" fill="#D95879"/>
<path d="M252.244 111.845C251.986 112.283 251.821 112.769 251.759 113.273C251.696 113.777 251.738 114.288 251.882 114.775C252.202 115.746 252.844 116.578 253.702 117.133C253.702 117.133 254.021 115.469 252.244 111.845Z" fill="#FFAC90"/>
<path d="M255.592 117.984C255.592 117.984 255.312 120.467 256.731 122.114C256.743 122.104 256.9 119.678 255.592 117.984Z" fill="#FFAC90"/>
<path d="M257.704 123.718C257.704 123.718 256.334 126.221 258.053 128.393L258.247 128.239C258.247 128.239 259.287 126.258 257.704 123.718Z" fill="#FFAC90"/>
<g style="mix-blend-mode:multiply" opacity="0.5">
<path d="M292.837 151.6C292.837 151.6 285.767 142.672 285.644 142.067L289.08 144.391C289.594 140.234 290.522 136.138 291.849 132.163C293.816 126.704 297.417 124.173 297.645 124.02C293.653 128.091 292.61 139.382 292.61 139.382L293.329 143.677L292.837 151.6Z" fill="#8B8695"/>
</g>
<g style="mix-blend-mode:multiply" opacity="0.5">
<path d="M330.108 174.845C329.904 175.053 326.573 178.433 324.262 181.113C321.878 183.877 316.568 196.8 316.65 198.334C316.732 199.869 319.808 206.319 320.177 207.251L312.763 208.693C312.763 208.693 309.362 201.858 308.951 200.898C308.54 199.939 310.187 195.939 309.18 190.721C308.209 185.676 294.093 156.173 292.911 153.876L310.254 184.973C310.254 184.973 312.29 183.581 313.628 179.403C314.925 175.393 316.331 169.716 316.441 169.288C316.4 169.829 315.786 178.538 315.452 180.275C315.117 182.012 309.037 200.609 308.938 200.882C309.057 200.787 311.446 206.048 312.099 205.331C315.109 200.385 319.863 183.339 323.44 180.794C326.312 178.781 329.866 174.962 330.108 174.845Z" fill="#8B8695"/>
</g>
<path style="mix-blend-mode:multiply" opacity="0.5" d="M297.375 120.265C297.161 120.435 293.823 123.198 292.857 124.552C291.891 125.906 286.651 137.783 286.651 137.783L281.784 130.163C280.963 126.798 281.22 121.965 281.955 118.372L282.163 118.059L289.742 128.384C289.742 128.384 291.612 124.97 292.783 123.587C293.955 122.204 297.171 120.38 297.375 120.265Z" fill="url(#paint9_linear_2507_108897)"/>
<g style="mix-blend-mode:multiply" opacity="0.5">
<path d="M315.259 135.543C315.259 135.543 309.338 138.286 306.293 140.724C303.248 143.162 300.849 146.847 300.562 146.841C300.275 146.834 301.571 138.936 303.941 135.078C306.311 131.221 310.448 127.799 310.448 127.799L315.259 135.543Z" fill="#8B8695"/>
</g>
<g style="mix-blend-mode:multiply" opacity="0.5">
<path d="M320.294 138.997C318.861 139.109 317.446 139.384 316.075 139.816C314.576 140.414 309 148.944 307.714 153.027C306.428 157.11 306.727 168.716 306.727 168.716C306.727 168.716 307.733 156.592 309.615 152.599C311.496 148.607 317.836 142.075 318.776 141.551C319.716 141.028 322.048 140.967 322.048 140.967L320.294 138.997Z" fill="#8B8695"/>
</g>
<g style="mix-blend-mode:multiply" opacity="0.5">
<path d="M320.293 138.998C320.293 138.998 316.963 139.085 316.074 139.817C315.184 140.548 308.739 149.184 307.993 152.238C307.246 155.291 307.117 164.875 307.117 164.875C307.117 164.875 307.685 156.074 309.955 151.921C312.225 147.769 317.375 141.951 318.768 141.551C319.842 141.27 320.936 141.075 322.04 140.967L320.293 138.998Z" fill="#8B8695"/>
</g>
<g style="mix-blend-mode:soft-light" opacity="0.8">
<path d="M320.729 134.465L315.26 135.544L307.521 141.351L306.08 159.541L306.685 164.936C306.685 164.936 307.363 155.132 308.002 152.204C308.64 149.277 314.286 140.376 316.083 139.783C317.461 139.38 318.874 139.106 320.303 138.964L320.729 134.465Z" fill="#B5ABCA"/>
</g>
<g style="mix-blend-mode:soft-light" opacity="0.8">
<path d="M307.274 122.844L302.116 130.869L301.464 141.495C301.464 141.495 301.846 135.118 310.433 127.782L307.274 122.844Z" fill="#B5ABCA"/>
</g>
<g style="mix-blend-mode:multiply" opacity="0.5">
<path d="M312.212 130.643C312.212 130.643 307.366 132.721 305.071 135.013C302.776 137.306 300.719 144.937 300.719 144.937C300.719 144.937 301.941 137.86 304.395 134.338C306.153 131.933 308.178 129.734 310.431 127.785L312.212 130.643Z" fill="#8B8695"/>
</g>
<path style="mix-blend-mode:multiply" opacity="0.5" d="M292.838 151.599L289.605 147.093L289.081 144.39C289.081 144.39 290.433 135.538 294.079 131.48L292.523 140.481L293.328 143.683L292.838 151.599Z" fill="url(#paint10_linear_2507_108897)"/>
<path style="mix-blend-mode:multiply" opacity="0.5" d="M305.103 180.146L309.421 187.292L310.275 184.983C310.275 184.983 314.445 180.851 316.013 175.294C316.013 175.294 315.722 179.652 315.061 181.815C314.4 183.978 309.144 198.544 309.144 198.544C309.144 198.544 309.724 193.602 309.203 190.709C308.683 187.816 305.103 180.146 305.103 180.146Z" fill="url(#paint11_linear_2507_108897)"/>
<g style="mix-blend-mode:soft-light" opacity="0.8">
<path d="M315.981 183.187L318.703 185.736L322.106 181.997L331.48 173.149L325.884 161.221L320.174 159.7L315.981 183.187Z" fill="#B5ABCA"/>
</g>
<path fill-rule="evenodd" clip-rule="evenodd" d="M261.377 127.74C261.377 127.74 263.128 129.103 266.923 129.45C270.971 129.764 275.044 129.287 278.913 128.045C275.466 129.576 271.742 130.382 267.973 130.412C262.457 130.518 261.377 127.74 261.377 127.74Z" fill="#DB585C"/>
<path d="M204.629 73.7802C194.842 73.1131 185.029 74.7201 175.958 78.4755C166.886 82.2308 158.804 88.0325 152.343 95.426C145.882 102.819 141.218 111.604 138.717 121.092C136.216 130.579 135.945 140.512 137.926 150.112C138.341 152.126 138.851 154.117 139.458 156.086C142.872 167.144 149.246 177.054 157.89 184.746C166.534 192.439 177.121 197.621 188.508 199.733C199.895 201.846 211.649 200.809 222.503 196.734C233.356 192.66 242.896 185.702 250.094 176.613C257.291 167.523 261.873 156.646 263.343 145.157C264.814 133.667 263.118 122.001 258.439 111.418C253.759 100.834 246.274 91.7346 236.791 85.1016C227.308 78.4687 216.188 74.554 204.629 73.7802ZM225.551 96.9238C236.162 103.581 243.692 114.176 246.492 126.387C249.293 138.598 247.135 151.432 240.492 162.076C233.848 172.721 223.261 180.309 211.048 183.179C198.835 186.05 185.992 183.968 175.332 177.39C164.671 170.812 157.062 160.275 154.17 148.085C151.278 135.895 153.34 123.046 159.903 112.352C166.467 101.659 176.997 93.9915 189.188 91.03C201.38 88.0685 214.238 90.0539 224.948 96.5516C225.154 96.6762 225.352 96.8 225.551 96.9238Z" fill="url(#paint12_linear_2507_108897)"/>
<g style="mix-blend-mode:multiply">
<path d="M204.628 73.7808L204.862 84.0936L204.999 89.9138C195.566 88.9942 186.068 90.9116 177.722 95.4203C169.375 99.929 162.561 106.824 158.152 115.22C153.744 123.617 151.942 133.133 152.977 142.548C154.013 151.964 157.838 160.85 163.964 168.067L160.055 172.394L155.761 177.132L149.871 176.223C145.224 170.186 141.702 163.361 139.473 156.073C138.867 154.105 138.356 152.114 137.942 150.1C141.396 149.78 145.224 149.017 147.861 147.384C149.423 146.401 150.559 145.1 150.936 143.376C152.723 135.123 148.925 127.151 158.446 111.883C167.967 96.6156 186.381 93.5091 186.703 88.3769C186.759 87.5162 186.796 86.5899 186.828 85.6479C186.983 81.0161 186.952 75.9219 187.835 74.8947C188.31 74.7998 188.779 74.7156 189.256 74.6322C189.734 74.5488 190.18 74.4694 190.648 74.3999L190.681 74.3738C191.115 74.3115 191.545 74.2452 191.978 74.1903L192.289 74.1513L193.412 74.0114L193.654 73.987C194.067 73.941 194.486 73.9033 194.901 73.8689C195.498 73.8179 196.094 73.7743 196.693 73.7349L197.604 73.6827C197.972 73.6653 198.34 73.6552 198.711 73.6493L199.326 73.6304C199.689 73.6236 200.052 73.6242 200.415 73.6248L201.308 73.6267L201.554 73.6326C201.871 73.6355 202.188 73.6457 202.497 73.6552C203.227 73.7129 203.923 73.737 204.628 73.7808Z" fill="#E066FF"/>
</g>
<path d="M175.505 177.864C183.707 182.854 193.242 185.221 202.838 184.649C204.371 187.991 205.452 193.285 203.226 200.695C189.136 201.401 175.221 197.398 163.677 189.318C152.133 181.239 143.618 169.542 139.474 156.073C143.503 153.853 149.166 152.004 155.581 153.602C159.26 163.727 166.288 172.286 175.505 177.864Z" fill="url(#paint13_linear_2507_108897)"/>
<path d="M233.294 82.8231C244.086 89.3469 252.67 98.9549 257.941 110.41C255.46 114.228 251.839 118.681 244.927 120.97C242.491 114.2 238.545 108.076 233.388 103.062C231.645 101.097 229.165 99.1599 225.55 96.9238C225.352 96.8 225.153 96.6762 224.947 96.5516C214.648 90.3042 202.347 88.2167 190.545 90.7134C188.901 86.9436 187.149 81.2851 187.831 74.8974C203.455 71.7309 219.687 74.5607 233.294 82.8231Z" fill="url(#paint14_linear_2507_108897)"/>
<path style="mix-blend-mode:color-dodge" d="M204.628 73.781C203.923 73.7373 203.221 73.6976 202.526 73.6662C202.217 73.6568 201.9 73.6465 201.583 73.6436L201.336 73.6378L200.443 73.6359C200.081 73.6353 199.718 73.6347 199.355 73.6415L198.739 73.6604C198.368 73.6663 198.001 73.6763 197.632 73.6937L196.722 73.7459C196.123 73.7854 195.527 73.829 194.93 73.8799C194.511 73.9176 194.091 73.9553 193.683 73.998L193.44 74.0225L192.317 74.1624L192.006 74.2013C191.574 74.2562 191.143 74.3226 190.71 74.3848L190.677 74.4109C190.209 74.4804 189.752 74.5549 189.285 74.6432C188.819 74.7316 188.338 74.8109 187.864 74.9058C179.633 76.543 171.806 79.7927 164.833 84.4672C157.86 89.1418 151.879 95.1485 147.236 102.141C142.593 109.133 139.38 116.972 137.782 125.206C136.184 133.44 136.232 141.905 137.925 150.113C138.34 152.127 138.85 154.118 139.457 156.086C142.871 167.145 149.245 177.055 157.889 184.747C166.533 192.439 177.12 197.621 188.507 199.734C199.894 201.847 211.648 200.81 222.502 196.735C233.355 192.661 242.896 185.703 250.093 176.613C257.29 167.524 261.872 156.647 263.342 145.158C264.813 133.668 263.117 122.002 258.438 111.418C253.758 100.835 246.273 91.7354 236.79 85.1024C227.307 78.4695 216.187 74.5548 204.628 73.781ZM228.634 92.0205C239.044 98.5292 246.882 108.432 250.827 120.059C254.771 131.685 254.58 144.324 250.286 155.844C245.992 167.363 237.858 177.059 227.255 183.294C216.652 189.53 204.23 191.925 192.083 190.075C179.937 188.224 168.809 182.242 160.577 173.137C152.345 164.032 147.513 152.361 146.895 140.094C146.277 127.826 149.911 115.711 157.185 105.794C164.459 95.876 174.927 88.762 186.824 85.6515C187.665 85.4317 188.512 85.2339 189.365 85.058C194.458 83.9864 199.679 83.6616 204.862 84.0939C213.041 84.7739 220.946 87.3442 227.954 91.6022L228.634 92.0205Z" fill="url(#paint15_linear_2507_108897)"/>
<g style="mix-blend-mode:soft-light">
<path d="M138.389 141.603C138.159 138.487 138.185 135.358 138.469 132.245C138.741 129.124 139.218 126.024 139.897 122.965C141.223 116.798 143.466 110.862 146.553 105.356C146.75 105.013 146.937 104.664 147.14 104.329L147.774 103.325C148.203 102.665 148.611 101.994 149.068 101.344L150.439 99.4085L151.927 97.5613C152.408 96.9327 152.963 96.3725 153.489 95.7825C154.014 95.1926 154.556 94.5897 155.118 94.0639L156.822 92.4135L158.625 90.8792C159.217 90.3568 159.861 89.9001 160.479 89.4106L161.425 88.7084C161.737 88.4658 162.062 88.2399 162.398 88.0317C163.738 87.1842 165.05 86.2998 166.433 85.5993C169.184 84.1073 172.065 82.8675 175.04 81.8951C172.223 83.1996 169.496 84.6887 166.875 86.3529C166.235 86.78 165.556 87.1504 164.943 87.6219L163.075 88.9805C162.775 89.2187 162.47 89.4602 162.169 89.6985L161.266 90.4132C160.665 90.8896 160.059 91.3694 159.513 91.9083C154.954 96.0267 151.097 100.86 148.093 106.218C147.726 106.889 147.321 107.538 146.995 108.218L145.949 110.284L144.997 112.376C144.683 113.073 144.419 113.797 144.116 114.499C142.982 117.361 142.017 120.288 141.227 123.264C140.434 126.254 139.801 129.284 139.329 132.341C138.834 135.407 138.52 138.5 138.389 141.603Z" fill="#FFA6DD"/>
</g>
<g style="mix-blend-mode:soft-light">
<path d="M191.653 83.4929C191.653 83.4929 188.668 82.9999 188.75 80.8004C188.932 75.9063 198.666 75.9798 206.2 77.7549C213.734 79.53 224.422 83.5854 230.265 91.0563C236.327 98.8143 221.875 78.2763 191.653 83.4929Z" fill="#FFCCEB"/>
</g>
<g style="mix-blend-mode:soft-light">
<path d="M176.863 186.77C176.863 186.77 163.409 180.127 158.286 175.68C152.365 170.54 143.425 158.175 145.873 156.906C149.873 154.836 149.464 163.778 162.701 176.895C165.987 180.147 176.863 186.77 176.863 186.77Z" fill="#FFCCEB"/>
</g>
<g style="mix-blend-mode:soft-light">
<path d="M206.904 190.073C210.686 189.334 214.395 188.251 217.983 186.84C221.577 185.481 225.038 183.791 228.321 181.792C229.953 180.787 231.547 179.726 233.069 178.567C233.846 178.006 234.57 177.379 235.32 176.785L236.392 175.835C236.767 175.538 237.106 175.196 237.444 174.861L238.47 173.862L239.449 172.812L239.936 172.293L240.401 171.744L241.328 170.655C242.522 169.166 243.616 167.6 244.603 165.967C248.486 159.355 251.118 152.088 252.37 144.529C253.005 140.744 253.243 136.905 253.081 133.072C252.965 129.226 252.352 125.411 251.256 121.724C251.939 123.53 252.458 125.394 252.809 127.293L253.079 128.718L253.285 130.154C253.442 131.114 253.501 132.078 253.593 133.042C253.858 136.914 253.714 140.805 253.163 144.65L252.958 146.084C252.89 146.566 252.822 147.047 252.711 147.517L252.074 150.363C251.859 151.31 251.542 152.23 251.278 153.168L250.864 154.567C250.731 155.033 250.542 155.49 250.374 155.938L249.358 158.669C249.005 159.578 248.567 160.447 248.178 161.337C247.409 163.128 246.512 164.862 245.495 166.526C244.471 168.191 243.338 169.786 242.101 171.301L241.149 172.41L240.669 172.964L240.165 173.496L239.155 174.557L238.098 175.568C237.751 175.91 237.392 176.235 237.021 176.555L235.918 177.515C235.156 178.119 234.409 178.751 233.627 179.33C232.067 180.493 230.437 181.56 228.747 182.525C222.009 186.403 214.596 188.965 206.904 190.073Z" fill="#FFCCEB"/>
</g>
<g style="mix-blend-mode:multiply">
<path d="M257.941 110.41C259.276 113.308 260.392 116.303 261.28 119.368C263.969 128.59 264.527 138.305 262.914 147.783C261.302 157.261 257.559 166.254 251.968 174.085C246.377 181.916 239.084 188.381 230.639 192.992C222.193 197.604 212.814 200.242 203.209 200.708C203.209 200.708 238.471 191.967 252.137 166.352C265.803 140.737 257.941 110.41 257.941 110.41Z" fill="#8324BA"/>
</g>
<path d="M178.211 151.238L186.662 159.226C186.662 159.226 182.721 174.343 182.38 177.122C182.131 179.153 182.597 182.003 183.01 183.93C183.058 184.16 183.047 184.398 182.978 184.623C182.908 184.848 182.783 185.051 182.613 185.214C182.443 185.376 182.234 185.493 182.007 185.553C181.779 185.613 181.54 185.613 181.313 185.555C177.701 184.547 174.274 182.969 171.161 180.881C169.289 179.651 167.511 178.283 165.842 176.789C165.675 176.653 165.554 176.468 165.496 176.259C165.438 176.051 165.446 175.83 165.518 175.626C165.591 175.422 165.725 175.245 165.902 175.12C166.078 174.995 166.289 174.927 166.506 174.926C168.356 174.851 170.174 174.414 171.857 173.639C174.194 172.458 176.328 162.35 177.432 156.123C177.932 153.292 178.211 151.238 178.211 151.238Z" fill="url(#paint16_linear_2507_108897)"/>
<g style="mix-blend-mode:multiply">
<path d="M178.211 151.238L186.662 159.225C186.662 159.225 182.721 174.343 182.38 177.122C182.131 179.153 182.597 182.002 183.01 183.93C183.059 184.159 183.048 184.398 182.978 184.622C182.908 184.847 182.783 185.05 182.613 185.213C182.443 185.376 182.234 185.493 182.007 185.552C181.779 185.612 181.541 185.613 181.313 185.555C177.701 184.546 174.274 182.968 171.161 180.881C171.373 180.954 177.048 182.709 177.745 182.217C178.442 181.726 179.226 181.293 179.105 179.133C178.984 176.974 182.148 162.332 181.543 160.543C180.825 158.537 179.367 156.884 177.467 155.921L177.427 156.141C177.933 153.291 178.211 151.238 178.211 151.238Z" fill="#B82CDB"/>
</g>
<path d="M234.266 98.4728C234.424 98.6461 234.534 98.8571 234.587 99.0857C234.64 99.3142 234.633 99.5526 234.567 99.778C234.501 100.003 234.379 100.208 234.211 100.373C234.044 100.538 233.836 100.657 233.61 100.718C231.704 101.25 228.96 102.146 227.269 103.304C224.96 104.885 213.34 115.351 213.34 115.351L202.345 111.552C202.345 111.552 204.14 110.271 206.561 108.408C211.598 104.54 219.344 98.165 219.318 95.583C219.232 93.7351 218.78 91.9234 217.987 90.2533C217.9 90.0599 217.873 89.845 217.908 89.6357C217.943 89.4265 218.039 89.2321 218.185 89.0771C218.33 88.9221 218.518 88.8133 218.724 88.7644C218.931 88.7156 219.147 88.7288 219.346 88.8025C219.64 88.9111 219.947 89.0361 220.272 89.1669C223.963 90.6531 229.811 93.5761 234.266 98.4728Z" fill="url(#paint17_linear_2507_108897)"/>
<path d="M234.106 172.922C230.619 168.311 226.724 164.024 222.467 160.112C216.774 154.998 213.687 154.191 213.687 154.191C213.687 154.191 216.957 139.826 221.246 141.762C224.001 143.006 225.97 145.247 232.625 147.097C236.321 148.131 241.455 149.043 248.972 149.602C251.468 149.773 237.38 177.141 234.106 172.922Z" fill="url(#paint18_linear_2507_108897)"/>
<path style="mix-blend-mode:soft-light" d="M196.574 113.249C196.484 121.256 198.787 137.899 214.419 153.609L213.698 154.18C213.698 154.18 203.787 150.386 186.653 159.224C186.653 159.224 179.425 155.915 178.208 151.245C178.131 150.97 178.079 150.689 178.053 150.404C177.51 144.638 177.673 135.149 182.541 127.146C186.067 121.481 190.874 116.721 196.574 113.249Z" fill="url(#paint19_linear_2507_108897)"/>
<g style="mix-blend-mode:multiply">
<path d="M215.147 153.036L213.7 154.182C213.7 154.182 203.789 150.388 186.662 159.226C186.662 159.226 179.427 155.916 178.21 151.246C180.223 154.196 183.024 156.521 186.295 157.958C186.295 157.958 188.925 142.862 213.111 152.193C213.615 152.389 214.695 152.839 215.147 153.036Z" fill="#B82CDB"/>
</g>
<path style="mix-blend-mode:multiply" d="M200.637 111.513C195.099 116.603 190.257 122.401 186.237 128.757C180.102 138.359 178.262 150.863 178.198 151.248C178.124 150.973 178.072 150.692 178.042 150.408C177.5 144.642 177.667 135.149 182.53 127.149C186.761 120.206 193.664 114.425 198.511 112.24C199.242 112.069 199.955 111.825 200.637 111.513Z" fill="url(#paint20_linear_2507_108897)"/>
<path style="mix-blend-mode:multiply" d="M213.419 115.222C213.419 115.222 213.384 115.711 213.39 116.583C213.006 117.052 212.671 117.56 212.39 118.097C211.075 120.671 210.058 129.378 220.829 143.311C220.7 143.714 220.549 144.202 220.348 144.702C219.886 144.027 219.352 143.405 218.757 142.844C217.312 141.587 204.528 129.957 208.357 118.508C209.208 115.967 210.048 114.352 210.841 113.389C212.265 114.061 213.25 114.747 213.419 115.222Z" fill="url(#paint21_linear_2507_108897)"/>
<path d="M199.522 129.866C200.723 130.596 201.679 131.665 202.271 132.94C202.862 134.214 203.062 135.636 202.845 137.025C202.628 138.414 202.003 139.709 201.051 140.745C200.098 141.782 198.86 142.513 197.493 142.847C196.126 143.181 194.692 143.103 193.371 142.622C192.051 142.141 190.903 141.279 190.074 140.145C189.245 139.011 188.771 137.657 188.713 136.252C188.654 134.848 189.014 133.457 189.746 132.255C190.232 131.457 190.871 130.762 191.625 130.21C192.38 129.658 193.235 129.259 194.143 129.038C195.051 128.816 195.993 128.775 196.916 128.917C197.839 129.059 198.725 129.382 199.522 129.866Z" fill="url(#paint22_linear_2507_108897)"/>
<g style="mix-blend-mode:soft-light" opacity="0.7">
<path d="M199.522 129.867C200.816 130.642 201.829 131.808 202.414 133.198C203 134.588 203.127 136.129 202.778 137.597C202.429 139.066 201.621 140.387 200.472 141.368C199.323 142.349 197.892 142.94 196.387 143.055C197.899 142.339 199.111 141.113 199.81 139.594C200.51 138.075 200.652 136.359 200.212 134.747C199.771 133.136 198.777 131.733 197.403 130.784C196.029 129.834 194.363 129.4 192.698 129.557C193.771 129.032 194.959 128.786 196.152 128.84C197.344 128.894 198.503 129.248 199.522 129.867Z" fill="#FFE7CF"/>
</g>
<path d="M201.951 139.659C201.218 140.874 200.14 141.846 198.855 142.45C197.571 143.054 196.136 143.264 194.733 143.054C193.331 142.843 192.023 142.221 190.976 141.266C189.929 140.312 189.189 139.067 188.851 137.691C188.512 136.314 188.591 134.868 189.075 133.534C189.56 132.2 190.429 131.039 191.573 130.198C192.717 129.357 194.085 128.873 195.502 128.809C196.92 128.744 198.324 129.101 199.536 129.835C201.156 130.819 202.32 132.404 202.772 134.245C203.225 136.085 202.929 138.032 201.951 139.659ZM189.797 132.295C189.072 133.488 188.717 134.868 188.776 136.261C188.836 137.654 189.307 138.997 190.131 140.12C190.954 141.244 192.093 142.097 193.404 142.573C194.714 143.049 196.137 143.125 197.492 142.793C198.847 142.46 200.075 141.733 201.018 140.705C201.962 139.676 202.58 138.391 202.794 137.013C203.009 135.635 202.809 134.225 202.222 132.962C201.634 131.699 200.684 130.639 199.493 129.916C197.894 128.949 195.975 128.657 194.157 129.103C192.339 129.549 190.771 130.697 189.797 132.295Z" fill="url(#paint23_linear_2507_108897)"/>
<g style="mix-blend-mode:soft-light">
<g style="mix-blend-mode:soft-light">
<path d="M169.017 176.057C170.553 175.777 172.043 175.186 172.85 173.945C173.29 173.333 173.672 172.681 173.991 171.998C174.325 171.313 174.619 170.61 174.869 169.89C175.404 168.457 175.821 166.976 176.217 165.478C176.613 163.98 176.969 162.473 177.324 160.948C177.32 162.518 177.176 164.085 176.894 165.63C176.63 167.184 176.231 168.713 175.704 170.199C175.189 171.72 174.406 173.138 173.393 174.385C173.266 174.538 173.115 174.678 172.974 174.83C172.821 174.975 172.656 175.106 172.48 175.222C172.135 175.452 171.762 175.635 171.369 175.767C170.61 176.01 169.812 176.109 169.017 176.057Z" fill="#FFA6DD"/>
</g>
</g>
<g style="mix-blend-mode:multiply">
<path d="M234.266 98.4729C234.424 98.6462 234.535 98.8572 234.588 99.0858C234.64 99.3143 234.633 99.5527 234.568 99.7781C234.502 100.004 234.379 100.208 234.212 100.373C234.044 100.538 233.837 100.657 233.61 100.718C231.705 101.25 228.96 102.146 227.269 103.304C224.96 104.885 213.34 115.351 213.34 115.351L202.346 111.552C202.346 111.552 204.141 110.271 206.561 108.408C206.561 108.408 213.322 110.816 216.634 108.689C219.945 106.562 226.584 98.5272 226.414 97.0835C226.243 95.6398 220.265 89.1661 220.265 89.1661C223.964 90.6532 229.812 93.5761 234.266 98.4729Z" fill="#B82CDB"/>
</g>
<g style="mix-blend-mode:soft-light">
<g style="mix-blend-mode:soft-light">
<path d="M211 106.23C211.939 105.333 212.852 104.429 213.768 103.536C214.684 102.644 215.583 101.738 216.444 100.802C217.316 99.887 218.126 98.915 218.868 97.8924C219.23 97.385 219.543 96.8439 219.801 96.2767C220.079 95.7083 220.215 95.0816 220.198 94.4499C220.405 95.092 220.417 95.7814 220.232 96.4309C220.06 97.0761 219.805 97.6964 219.473 98.276C218.811 99.4141 218.02 100.472 217.115 101.428C216.22 102.376 215.259 103.26 214.24 104.073C213.232 104.895 212.147 105.618 211 106.23Z" fill="#FFA6DD"/>
</g>
</g>
<g style="mix-blend-mode:multiply">
<path d="M232.637 147.088C230.111 147.963 226.443 149.631 224.355 152.455C222.737 154.646 222.381 157.584 222.478 160.103C216.786 154.989 213.699 154.182 213.699 154.182C213.699 154.182 216.969 139.817 221.258 141.753C224.013 142.997 225.982 145.238 232.637 147.088Z" fill="#B82CDB"/>
</g>
<path d="M168.771 135.033C168.392 135.527 159.722 141.235 157.797 144.392C157.411 145.118 157.121 145.89 156.933 146.689C155.61 151.564 154.885 160.809 153.772 162.173C152.453 163.792 140.467 174.535 139.477 177.052C139.316 177.555 139.252 178.085 139.29 178.611C139.369 182.336 141.72 189.674 141.72 189.674C139.085 188.59 123.993 190.557 123.993 190.557C123.993 190.557 124.051 189.495 124.076 187.909C124.142 184.445 124.082 178.484 123.07 175.538C122.696 174.579 122.254 173.647 121.748 172.751C118.298 166.303 109.764 153.188 107.793 149.725C107.724 149.638 107.694 149.542 107.654 149.473C107.613 149.405 107.555 149.298 107.515 149.222C107.506 149.209 107.496 149.197 107.486 149.185C106.133 146.503 113.921 138.903 114.639 137.532C115.357 136.16 116.264 135.121 116.682 134.362C117.022 133.724 121.182 130.129 122.405 129.014L122.75 127.349C124.143 125.095 128.909 123.188 128.909 123.188C128.909 123.188 128.913 118.722 129.102 118.351C129.291 117.98 132.787 115.714 134.264 114.116C135.499 112.69 136.654 111.197 137.723 109.644C139.55 109.215 141.393 111.636 141.393 111.636C142.214 115.315 139.938 121.366 139.063 121.912C138.133 122.364 137.153 122.704 136.144 122.925C136.225 123.282 136.322 123.641 136.42 124.011C138.452 131.462 143.171 140.826 145.513 145.214C146.335 146.778 146.858 147.709 146.858 147.709C146.858 147.709 149.664 145.774 150.336 143.803C151.009 141.832 150.359 138.091 151.36 136.797C154.547 132.667 160.56 130.361 163.869 129.815C164.961 129.62 165.756 129.659 166.06 129.839C167.244 130.648 169.154 134.542 168.771 135.033Z" fill="url(#paint24_linear_2507_108897)"/>
<path d="M141.426 111.625C142.247 115.304 139.971 121.355 139.095 121.901C138.166 122.353 137.186 122.693 136.176 122.914C136.083 121.821 135.819 120.75 135.393 119.74C135.988 120.131 136.501 120.635 136.902 121.222L139.73 118.655C140.882 116.492 141.466 114.073 141.426 111.625Z" fill="url(#paint25_linear_2507_108897)"/>
<path d="M146.913 147.686L147.985 150.852L150.382 143.768C150.382 143.768 148.458 147.038 146.913 147.686Z" fill="url(#paint26_linear_2507_108897)"/>
<path style="mix-blend-mode:multiply" opacity="0.6" d="M107.526 149.22C107.578 149.3 107.624 149.384 107.665 149.471C107.608 149.382 107.566 149.295 107.526 149.22Z" fill="url(#paint27_linear_2507_108897)"/>
<path style="mix-blend-mode:multiply" opacity="0.6" d="M163.904 129.809C163.478 130.026 155.168 134.385 154.497 137.974C153.826 141.563 156.796 146.491 156.921 146.7C155.598 151.575 154.873 160.82 153.76 162.184C152.441 163.804 140.455 174.546 139.465 177.063C139.304 177.566 139.24 178.096 139.278 178.623L124.084 187.904C124.15 184.439 124.09 178.479 123.079 175.533C122.704 174.574 122.263 173.642 121.757 172.746C126.809 170.752 139.881 161.618 142.021 158.131C144.544 154.026 136.261 131.626 136.261 131.626C136.261 131.626 136.109 121.341 135.016 118.267C134.139 117.69 133.108 117.389 132.057 117.404C131.007 117.419 129.984 117.749 129.121 118.351C129.327 117.967 132.806 115.714 134.284 114.116C135.518 112.69 136.673 111.197 137.743 109.644C139.569 109.215 141.412 111.636 141.412 111.636C142.233 115.315 139.957 121.366 139.082 121.911C138.152 122.364 137.173 122.704 136.163 122.925C138.633 133.073 146.913 147.686 146.913 147.686C146.913 147.686 149.72 145.752 150.392 143.781L147.785 151.666C147.915 151.483 148.333 155.374 149.953 152.338C151.636 149.179 150.392 143.781 150.392 143.781C151.068 141.807 150.415 138.069 151.415 136.775C154.582 132.661 160.594 130.356 163.904 129.809Z" fill="url(#paint28_linear_2507_108897)"/>
<path style="mix-blend-mode:multiply" opacity="0.6" d="M114.907 146.676L113.695 144.604C113.695 144.604 112.449 143.149 112.249 142.778C112.05 142.408 113.771 140.804 113.771 140.804L114.656 137.527L113.254 140.745C113.254 140.745 111.486 143.008 111.434 143.484C111.382 143.961 113.309 144.803 113.309 144.803L114.907 146.676Z" fill="url(#paint29_linear_2507_108897)"/>
<path style="mix-blend-mode:multiply" opacity="0.6" d="M121.809 142.937L120.925 140.178C120.451 139.676 120.021 139.134 119.642 138.558C119.377 138.045 121.073 135.504 121.073 135.504C121.388 133.314 121.838 131.145 122.421 129.01C121.243 131.489 120.332 134.085 119.704 136.756C119.704 136.756 118.418 139.018 118.574 139.403C118.731 139.787 120.512 140.512 120.512 140.512L121.809 142.937Z" fill="url(#paint30_linear_2507_108897)"/>
<path style="mix-blend-mode:multiply" opacity="0.6" d="M128.926 123.182C128.926 123.182 129.216 129.256 129.015 130.586C128.814 131.916 127.464 133.319 127.478 134.479C127.491 135.639 128.799 136.664 128.799 136.664L129.75 139.753C129.339 138.797 128.881 137.862 128.377 136.952C128.074 136.57 127.021 135.697 126.638 134.943C126.256 134.189 128.027 132.318 128.231 130.544C128.435 128.77 128.397 123.454 128.397 123.454L128.926 123.182Z" fill="url(#paint31_linear_2507_108897)"/>
<path d="M121.073 135.503C122.792 135.019 124.4 134.2 125.804 133.094C128.009 131.348 128.372 123.44 128.372 123.44C128.372 123.44 124.466 124.961 122.737 127.333L121.073 135.503Z" fill="#FFAC90"/>
<path d="M113.77 140.804C113.77 140.804 115.272 141.127 117.488 138.937C119.703 136.748 122.42 129.01 122.42 129.01C122.42 129.01 118.491 131.88 116.698 134.358C116.698 134.358 114.092 138.722 113.77 140.804Z" fill="#FFAC90"/>
<path d="M107.717 146.667C108.993 145.023 110.472 143.548 112.12 142.277L113.241 140.72L114.407 137.857C114.407 137.857 109.721 142.524 107.717 146.667Z" fill="#FFAC90"/>
<path opacity="0.5" d="M129.013 130.585C130.87 130.215 132.556 129.249 133.815 127.833C136.003 125.432 135.027 118.255 135.027 118.255C135.027 118.255 132.953 116.305 129.133 118.339L129.013 130.585Z" fill="#FFAC90"/>
<path d="M165.918 130.522C165.918 130.522 161.761 133.292 160.861 134.527C159.961 135.761 162.228 138.496 163.102 138.567C163.976 138.637 168.563 135.226 168.563 135.226C168.466 134.303 168.181 133.409 167.726 132.6C167.272 131.792 166.656 131.085 165.918 130.522Z" fill="#FFAC90"/>
<path d="M165.548 130.777C165.548 130.777 167.59 132.103 168.329 135.399L168.779 135.043C168.779 135.043 168.28 132.093 165.924 130.532L165.548 130.777Z" fill="#FFD4CC"/>
<path d="M165.144 131.053C165.144 131.053 161.535 133.617 160.881 134.985C160.039 136.749 162.567 138.206 163.421 138.327C164.274 138.447 168.226 135.512 168.226 135.512C168.226 135.512 163.813 138.678 163.052 138.759C162.291 138.84 159.993 136.344 160.443 135.117C160.949 133.707 165.144 131.053 165.144 131.053Z" fill="#F57F7F"/>
<path d="M135.555 112.613C135.555 112.613 135.024 113.636 135.282 113.666C136.338 113.78 138.537 112.695 139.847 110.158C139.847 110.158 138.718 109.426 137.755 109.633C137.755 109.633 136.527 111.342 135.555 112.613Z" fill="#FF9884"/>
<path d="M137.379 110.158C137.379 110.158 138.324 109.658 139.69 110.443L139.847 110.158C139.847 110.158 138.833 109.234 137.755 109.633L137.379 110.158Z" fill="#FFD4CC"/>
<path d="M135.555 112.613C135.555 112.613 135.212 113.373 135.45 113.513C135.688 113.652 136.562 113.91 138.915 111.572C138.371 112.248 137.715 112.826 136.976 113.281C135.713 114.074 135.105 113.746 135.102 113.615C135.225 113.269 135.377 112.934 135.555 112.613Z" fill="#D95879"/>
<path style="mix-blend-mode:multiply" opacity="0.6" d="M136.455 124.005C138.487 131.456 143.206 140.82 145.548 145.208L147.974 150.881L146.406 156.86C146.406 156.86 136.358 134.627 136.264 131.63C136.171 128.633 136.455 124.005 136.455 124.005Z" fill="url(#paint32_linear_2507_108897)"/>
<path d="M128.388 123.461L129.015 130.586L128.926 123.183L128.388 123.461Z" fill="url(#paint33_linear_2507_108897)"/>
<path d="M122.421 129.009L119.782 136.398L121.072 135.503L122.421 129.009Z" fill="url(#paint34_linear_2507_108897)"/>
<path style="mix-blend-mode:multiply" opacity="0.76" d="M141.514 174.368C141.514 174.368 132.449 172.768 125.166 177.679C125.166 177.679 134.526 173.613 139.7 176.608L141.514 174.368Z" fill="url(#paint35_linear_2507_108897)"/>
<path fill-rule="evenodd" clip-rule="evenodd" d="M142.158 191.209C142.158 191.209 144.953 193.459 145.435 194.161C145.652 194.736 145.804 195.334 145.887 195.943C146.363 198.517 146.975 202.965 147.532 203.668C148.277 204.609 151.536 208.124 152.063 208.671C152.43 209.049 150.786 211.97 149.677 214.26C149.229 215.049 148.907 215.902 148.722 216.789C148.722 218.127 171.028 269.515 171.028 269.515L121.125 309.032C121.125 309.032 114.294 250.877 117.408 225.588C117.537 224.522 117.679 223.473 117.836 222.419C117.836 222.419 115.675 219.961 115.595 219.59C115.516 219.218 118.612 215.253 118.612 215.253L118.702 213.918C118.72 213.662 118.743 213.377 118.76 213.069L118.799 212.449C119.05 208.651 119.418 202.104 119.19 200.029C118.85 197.06 117.825 192.76 117.912 192.403C117.999 192.047 123.055 188.33 123.055 188.33C123.055 188.33 123.372 182.533 122.898 179.021C122.898 179.021 130.224 173.962 136.777 175.437C138.19 175.751 139.513 176.38 140.648 177.277C140.349 181.975 140.86 186.687 142.158 191.209Z" fill="url(#paint36_linear_2507_108897)"/>
<path style="mix-blend-mode:multiply" opacity="0.2" fill-rule="evenodd" clip-rule="evenodd" d="M112.138 144.19C112.138 144.19 125.186 167.052 125.785 166.504C126.384 165.956 113.258 144.113 113.258 144.113L112.138 144.19Z" fill="url(#paint37_linear_2507_108897)"/>
<path style="mix-blend-mode:multiply" opacity="0.2" fill-rule="evenodd" clip-rule="evenodd" d="M120.13 140.344C120.13 140.344 129.963 162.694 130.572 162.693C131.182 162.692 120.914 140.165 120.914 140.165L120.13 140.344Z" fill="url(#paint38_linear_2507_108897)"/>
<path style="mix-blend-mode:multiply" opacity="0.2" fill-rule="evenodd" clip-rule="evenodd" d="M127.85 136.425C127.85 136.425 133.807 160.426 134.533 160.708C135.259 160.989 128.798 136.665 128.798 136.665L127.85 136.425Z" fill="url(#paint39_linear_2507_108897)"/>
<g style="mix-blend-mode:multiply" opacity="0.5">
<path d="M149.676 214.261C149.229 215.05 148.907 215.903 148.722 216.79C148.722 218.128 160.646 245.439 160.646 245.439C157.925 243.913 154.975 242.838 151.908 242.255C150.005 241.942 142.052 241.85 138.284 243.83C138.284 243.83 141.585 242.072 143.656 240.868C145.726 239.663 155.002 236.567 155.002 236.567L147.172 217.034L146.338 215.981C146.338 215.981 142.484 215.687 141.308 216.03C140.131 216.373 132.051 224.418 126.713 230.565C121.547 236.523 119.278 245.673 119.144 246.24C119.21 245.646 120.207 237.142 122.374 232.368C124.618 227.42 138.82 212.915 141.225 212.302C143.63 211.689 149.676 214.261 149.676 214.261Z" fill="#8B8695"/>
</g>
<g style="mix-blend-mode:multiply" opacity="0.5">
<path d="M117.407 225.589C120.057 223.167 122.874 220.936 125.839 218.912C130.773 215.54 136.093 211.809 136.188 211.446C136.283 211.083 132.069 210.479 126.782 213.421C121.494 216.364 117.825 222.434 117.825 222.434L117.407 225.589Z" fill="#8B8695"/>
</g>
<g style="mix-blend-mode:multiply" opacity="0.5">
<path d="M118.611 215.254C118.611 215.254 121.76 211.423 125.667 209.667C123.164 209.936 120.784 210.894 118.792 212.435L118.611 215.254Z" fill="#8B8695"/>
</g>
<g style="mix-blend-mode:multiply" opacity="0.5">
<path d="M147.532 203.667C148.277 204.609 151.536 208.124 152.063 208.67C152.063 208.67 145.121 203.121 139.033 199.685C132.946 196.248 130.689 195.921 129.969 195.334C129.249 194.746 139.518 193.252 145.879 195.95C146.363 198.517 146.975 202.964 147.532 203.667Z" fill="#8B8695"/>
</g>
<g style="mix-blend-mode:multiply" opacity="0.5">
<path d="M140.652 177.274C140.352 181.973 140.862 186.687 142.159 191.21C142.159 191.21 132.03 186.886 130.978 186.862C129.927 186.838 123.06 188.328 123.06 188.328L123.601 187.318C123.601 187.318 131.823 185.49 137.035 186.957L136.769 175.445C138.186 175.754 139.513 176.379 140.652 177.274Z" fill="#8B8695"/>
</g>
<g style="mix-blend-mode:multiply" opacity="0.5">
<path d="M147.531 203.668C147.531 203.668 137.551 197.915 132.572 196.472C132.572 196.472 143.558 200.954 152.071 208.665L147.531 203.668Z" fill="#8B8695"/>
</g>
<g style="mix-blend-mode:multiply" opacity="0.5">
<path d="M148.722 216.79L146.336 216.003C146.336 216.003 143.094 215.398 141.305 216.052C139.516 216.706 123.996 229.759 123.996 229.759C123.996 229.759 137.933 213.631 141.231 212.317C144.529 211.004 149.682 214.276 149.682 214.276L148.722 216.79Z" fill="#8B8695"/>
</g>
<g style="mix-blend-mode:multiply" opacity="0.5">
<path d="M142.159 191.208C142.159 191.208 132.099 186.735 130.99 186.851C129.881 186.966 126.563 187.586 126.563 187.586C128.552 186.924 130.617 186.521 132.708 186.387C136.556 186.063 141.447 188.6 141.447 188.6L142.159 191.208Z" fill="#8B8695"/>
</g>
<g style="mix-blend-mode:soft-light" opacity="0.8">
<path d="M115.612 219.578C115.612 219.578 115.708 218.538 119.046 215.802C122.383 213.065 128.388 210.13 128.388 210.13L131.38 211.233C131.38 211.233 123.479 213.348 117.856 222.411L115.612 219.578Z" fill="#B5ABCA"/>
</g>
<g style="mix-blend-mode:soft-light" opacity="0.8">
<path d="M117.935 192.384C121.385 191.292 124.924 190.504 128.511 190.031C134.489 189.231 139.949 192.977 139.949 192.977L140.066 194.564C140.066 194.564 124.092 192.393 118.944 198.069L117.935 192.384Z" fill="#B5ABCA"/>
</g>
<g style="mix-blend-mode:soft-light" opacity="0.8">
<path d="M118.046 242.137C118.046 242.137 120.44 234.28 122.2 231.642C124.096 228.802 131.683 219.857 131.683 219.857C131.683 219.857 129.4 218.667 127.878 219.15C126.356 219.632 118.309 226.727 118.309 226.727C118.309 226.727 117.554 237.629 118.046 242.137Z" fill="#B5ABCA"/>
</g>
<g style="mix-blend-mode:soft-light" opacity="0.8">
<path d="M138.284 243.831C138.284 243.831 146.259 244.876 148.898 246.226C151.536 247.576 164.695 254.82 164.695 254.82L158.353 246.54C158.353 246.54 154.77 243.014 151.931 242.258C149.093 241.501 140.739 242.469 138.284 243.831Z" fill="#B5ABCA"/>
</g>
<g style="mix-blend-mode:multiply" opacity="0.5">
<path d="M121.348 300.713C121.348 300.713 125.705 282.709 129.068 276.473C132.432 270.237 140.125 258.41 143.696 256.433C147.266 254.455 156.374 255.694 156.374 255.694C156.374 255.694 140.989 248.045 138.117 248.974C135.246 249.903 124.891 263.602 123.076 275.189C121.661 284.165 121.348 300.713 121.348 300.713Z" fill="#8B8695"/>
</g>
<path d="M257.614 116.034C258.326 118.89 258.913 118.251 259.072 119.798C259.574 124.666 259.461 126.301 259.461 126.301C259.461 126.301 258.75 127.995 257.778 128.638C256.805 129.281 247.748 130.706 247.402 130.658C247.056 130.611 246.722 130.528 246.002 129.204C245.283 127.88 245.261 125.355 245.261 125.355C245.261 125.355 242.883 125.358 242.456 124.946C242.03 124.535 239.99 119.579 239.99 119.579C239.545 119.522 239.111 119.402 238.701 119.222C238.309 118.997 236.702 115.452 236.58 114.384C236.487 113.811 236.532 113.223 236.71 112.669C236.135 112.281 234.734 108.988 234.734 108.988C234.734 108.988 240.864 108.456 243.659 106.176C244.071 105.85 252.337 105.179 253.431 106.721C254.666 108.574 255.667 110.572 256.412 112.671L257.614 116.034Z" fill="url(#paint40_linear_2507_108897)"/>
<path style="mix-blend-mode:multiply" opacity="0.5" d="M234.731 108.984C234.731 108.984 235.807 111.825 236.707 112.665C236.707 112.665 244.281 112.856 250.253 111.566L252.104 107.485L245.834 106.823L234.731 108.984Z" fill="url(#paint41_linear_2507_108897)"/>
<path d="M255.296 109.721C255.374 109.82 255.452 109.919 255.534 110.021C255.615 110.124 255.606 110.112 255.648 110.165C255.669 110.189 255.689 110.213 255.706 110.239C256.228 111.065 256.652 111.949 256.968 112.874C257.263 113.704 257.427 114.343 257.427 114.343C257.467 114.365 257.504 114.392 257.538 114.423C257.8 114.624 258.025 114.869 258.204 115.146C258.234 115.183 258.263 115.22 258.295 115.262C258.33 115.322 258.362 115.384 258.389 115.448C258.484 115.626 258.553 115.817 258.596 116.014C258.608 116.026 258.619 116.04 258.629 116.055C258.668 116.231 258.712 116.431 258.74 116.636C259.049 118.144 259.48 120.466 259.708 121.703C259.709 121.721 259.712 121.739 259.717 121.757C259.768 122.058 259.816 122.347 259.829 122.618C259.837 122.648 259.841 122.678 259.841 122.709C259.861 122.734 259.844 122.78 259.854 122.819C259.98 123.96 259.854 125.116 259.484 126.204C259.484 126.204 258.76 128.008 258.001 128.388C258.001 128.388 258.29 125.035 257.23 123.519C257.23 123.519 249.136 125.847 245.3 125.719L245.282 125.265C245.282 125.265 252.893 124.511 256.372 122.833C256.417 122.67 256.957 120.591 255.193 117.551C254.892 117.628 245.046 120.08 240.006 119.541C240.457 119.518 247.28 119.133 252.444 117.627C252.777 117.531 253.102 117.434 253.418 117.324C253.304 115.49 252.804 113.702 251.951 112.076L251.926 112.096C251.766 112.122 250.972 112.229 249.83 112.37C249.882 112.436 249.882 112.436 249.83 112.37C248.53 112.523 246.763 112.731 244.942 112.862L244.851 112.874L244.738 112.883C241.639 113.136 238.337 113.268 236.692 112.884L236.744 112.67C240.993 112.698 245.234 112.258 249.388 111.355C249.388 111.355 243.749 109.746 234.955 109.403L234.786 109.021C234.786 109.021 240.695 108.176 243.715 106.206C243.715 106.206 250.461 104.564 253.495 106.752L253.521 106.785C254.269 107.383 255.06 109.474 255.06 109.474C255.143 109.552 255.222 109.634 255.296 109.721Z" fill="url(#paint42_linear_2507_108897)"/>
<path style="mix-blend-mode:multiply" opacity="0.76" d="M259.818 122.687L259.824 122.635C259.829 122.682 259.831 122.73 259.83 122.778C259.85 122.802 259.833 122.849 259.843 122.888C259.805 124.023 259.681 125.155 259.473 126.272L259.818 122.687Z" fill="url(#paint43_linear_2507_108897)"/>
<path style="mix-blend-mode:multiply" opacity="0.76" d="M258.907 118.504C258.859 117.919 258.828 117.295 258.729 116.704C259.038 118.212 259.469 120.534 259.697 121.772C259.541 121.098 259.332 120.438 259.073 119.797L256.471 122.795C256.977 122.18 258.997 119.643 258.907 118.504Z" fill="url(#paint44_linear_2507_108897)"/>
<path style="mix-blend-mode:multiply" opacity="0.76" d="M258.585 116.042C258.53 115.849 258.461 115.66 258.379 115.476C258.473 115.654 258.543 115.845 258.585 116.042Z" fill="url(#paint45_linear_2507_108897)"/>
<path style="mix-blend-mode:multiply" opacity="0.76" d="M257.223 113.787C257.223 113.787 257.143 113.422 256.974 112.887C257.269 113.717 257.433 114.357 257.433 114.357L255.2 117.617L252.442 117.707L253.416 117.404C255.068 116.679 256.415 115.399 257.223 113.787Z" fill="url(#paint46_linear_2507_108897)"/>
<path style="mix-blend-mode:multiply" opacity="0.76" d="M255.021 109.45L251.96 112.088L251.936 112.108L249.822 112.343L245.063 112.846C246.612 112.661 248.15 112.393 249.67 112.041C250.369 111.889 251.043 111.641 251.675 111.304C252.522 110.781 253.287 110.134 253.944 109.386C254.263 108.993 253.434 106.726 253.434 106.726L253.46 106.759C254.231 107.36 255.021 109.45 255.021 109.45Z" fill="url(#paint47_linear_2507_108897)"/>
<path d="M251.951 112.076C251.693 112.518 251.529 113.008 251.469 113.515C251.41 114.023 251.456 114.537 251.605 115.026C251.925 115.997 252.566 116.829 253.422 117.388C253.422 117.388 253.744 115.721 251.951 112.076Z" fill="#FFAC90"/>
<path d="M255.315 118.237C255.315 118.237 255.028 120.72 256.449 122.371C256.449 122.371 256.623 119.931 255.315 118.237Z" fill="#FFAC90"/>
<path d="M257.428 123.97C257.428 123.97 256.058 126.473 257.774 128.641L257.976 128.481C257.976 128.481 259.003 126.51 257.428 123.97Z" fill="#FFAC90"/>
<path d="M257.288 107.18C256.054 106.672 243.967 105.973 243.967 105.973C240.575 108.277 235.011 108.642 235.011 108.642C235.011 108.642 230.697 109.174 229.284 108.413C227.87 107.653 228.096 103.848 228.321 103.421C228.504 103.076 231.043 101.668 231.954 101.107C231.954 101.107 237.976 97.5354 241.187 96.2976C244.398 95.0599 259.127 97.2666 261.747 98.1362C264.367 99.0057 258.71 107.747 257.288 107.18Z" fill="url(#paint48_linear_2507_108897)"/>
<path style="mix-blend-mode:multiply" opacity="0.6" d="M253.723 106.523C250.629 105.521 243.954 105.982 243.954 105.982C241.148 108.104 235.029 108.794 235.029 108.794C235.029 108.794 230.709 109.325 229.298 108.568C227.888 107.812 228.107 103.998 228.336 103.576C228.518 103.231 230.985 101.706 231.9 101.142L232.242 100.938L240.709 96.4481L241.174 96.3072C239.225 99.1889 242.355 104.987 242.355 104.987C251.465 105.153 253.601 106.446 253.723 106.523Z" fill="url(#paint49_linear_2507_108897)"/>
<path d="M241.175 96.3065C241.175 96.3065 238.985 99.6726 242.355 104.987C242.355 104.987 253.101 105.008 258.005 106.645C258.005 106.645 261.94 103.629 261.815 98.6028C261.828 98.6193 257.464 95.9194 241.175 96.3065Z" fill="#FFAC90"/>
<path d="M228.665 103.263C228.665 103.263 232.36 101.154 233.839 100.939C234.745 100.804 235.696 104.647 235.321 106.129C234.945 107.611 229.721 108.736 229.721 108.736C229.721 108.736 228.588 107.974 228.414 105.985C228.239 103.995 228.665 103.263 228.665 103.263Z" fill="#FF9884"/>
<path d="M229.118 103.011C229.118 103.011 227.66 105.269 230.025 108.662L229.721 108.736C229.721 108.736 227.483 107.163 228.57 103.277L229.118 103.011Z" fill="#FFC9BF"/>
<path d="M232.105 101.495C232.105 101.495 233.38 100.894 234.173 101.269C234.967 101.645 235.277 104.831 234.994 105.972C234.711 107.113 232.889 107.793 232.889 107.793C232.889 107.793 235.05 107.246 235.477 105.837C235.904 104.429 234.68 100.995 234.121 100.889C233.561 100.784 232.105 101.495 232.105 101.495Z" fill="#D95879"/>
<path style="mix-blend-mode:screen" d="M205.532 148.21C212.319 142.836 213.474 132.988 208.111 126.216C202.748 119.443 192.898 118.31 186.111 123.684C179.323 129.059 178.169 138.906 183.532 145.679C188.895 152.451 198.745 153.585 205.532 148.21Z" fill="url(#paint50_radial_2507_108897)"/>
<path fill-rule="evenodd" clip-rule="evenodd" d="M163.225 56.7454C169.956 56.1744 176.546 54.4777 182.719 51.7262L184.502 58.7114C178.554 61.8408 171.913 63.4168 165.198 63.2927L163.225 56.7454Z" fill="url(#paint51_linear_2507_108897)"/>
<path fill-rule="evenodd" clip-rule="evenodd" d="M107.234 103.92C108.258 100.107 108.636 96.1506 108.352 92.2154L112.554 92.6017C112.554 92.6017 113.868 98.0715 109.804 104.04L107.234 103.92Z" fill="url(#paint52_linear_2507_108897)"/>
<path fill-rule="evenodd" clip-rule="evenodd" d="M90.9045 176.208C90.9045 176.208 96.718 175.666 99.951 168.69L102.634 171.917C102.634 171.917 97.7887 177.949 90.7047 179.283L90.9045 176.208Z" fill="url(#paint53_linear_2507_108897)"/>
<path fill-rule="evenodd" clip-rule="evenodd" d="M95.3632 127.465C95.3632 127.465 101.141 125.854 104.798 123.587L107.307 125.341C107.307 125.341 102.147 129.427 95.8495 130.078L95.3632 127.465Z" fill="url(#paint54_linear_2507_108897)"/>
<path fill-rule="evenodd" clip-rule="evenodd" d="M147.589 55.9783C150.347 52.5688 152.514 48.7222 154 44.5986L156.623 44.4818C156.623 44.4818 156.711 52.7894 151.562 57.9977L147.589 55.9783Z" fill="url(#paint55_linear_2507_108897)"/>
<path fill-rule="evenodd" clip-rule="evenodd" d="M222.55 49.3645C227.4 50.4746 232.36 51.0353 237.338 51.0361L237.322 54.073C237.322 54.073 229.1 57.2384 221.999 54.0629L222.55 49.3645Z" fill="url(#paint56_linear_2507_108897)"/>
</g>
<defs>
<linearGradient id="paint0_linear_2507_108897" x1="231.371" y1="119.358" x2="294.689" y2="107.059" gradientUnits="userSpaceOnUse">
<stop stop-color="#FF7C7C"/>
<stop offset="0.98" stop-color="#FFB88E"/>
</linearGradient>
<linearGradient id="paint1_linear_2507_108897" x1="236.162" y1="111.425" x2="253.215" y2="108.113" gradientUnits="userSpaceOnUse">
<stop stop-color="#FFEADB"/>
<stop offset="0.99" stop-color="#EA90B6"/>
</linearGradient>
<linearGradient id="paint2_linear_2507_108897" x1="257.017" y1="120.092" x2="282.013" y2="115.237" gradientUnits="userSpaceOnUse">
<stop offset="0.01" stop-color="#C27CB6"/>
<stop offset="1" stop-color="#FFEADB"/>
</linearGradient>
<linearGradient id="paint3_linear_2507_108897" x1="252.991" y1="97.4316" x2="251.467" y2="89.6565" gradientUnits="userSpaceOnUse">
<stop stop-color="#CF6074"/>
<stop offset="1" stop-color="#F36059"/>
</linearGradient>
<linearGradient id="paint4_linear_2507_108897" x1="257.954" y1="129.52" x2="252.997" y2="104.234" gradientUnits="userSpaceOnUse">
<stop stop-color="#DD575C"/>
<stop offset="1" stop-color="#CF4F74"/>
</linearGradient>
<linearGradient id="paint5_linear_2507_108897" x1="228.606" y1="105.123" x2="253.183" y2="100.349" gradientUnits="userSpaceOnUse">
<stop stop-color="#FFEADB"/>
<stop offset="0.99" stop-color="#C27CB6"/>
</linearGradient>
<linearGradient id="paint6_linear_2507_108897" x1="258.098" y1="129.493" x2="253.603" y2="106.565" gradientUnits="userSpaceOnUse">
<stop stop-color="#F0CCD3"/>
<stop offset="1" stop-color="#A45CBB"/>
</linearGradient>
<linearGradient id="paint7_linear_2507_108897" x1="283.036" y1="127.384" x2="280.593" y2="114.924" gradientUnits="userSpaceOnUse">
<stop stop-color="#A45CBB"/>
<stop offset="1" stop-color="#F0CCD3"/>
</linearGradient>
<linearGradient id="paint8_linear_2507_108897" x1="333.146" y1="204.916" x2="314.063" y2="107.585" gradientUnits="userSpaceOnUse">
<stop stop-color="#220052"/>
<stop offset="1" stop-color="#5647BA"/>
</linearGradient>
<linearGradient id="paint9_linear_2507_108897" x1="282.18" y1="128.441" x2="299.094" y2="125.156" gradientUnits="userSpaceOnUse">
<stop stop-color="#755CBB"/>
<stop offset="1" stop-color="#CCCCFF"/>
</linearGradient>
<linearGradient id="paint10_linear_2507_108897" x1="289.471" y1="142.426" x2="296.695" y2="141.022" gradientUnits="userSpaceOnUse">
<stop stop-color="#755CBB"/>
<stop offset="1" stop-color="#CCCCFF"/>
</linearGradient>
<linearGradient id="paint11_linear_2507_108897" x1="307.501" y1="188.096" x2="318.911" y2="185.88" gradientUnits="userSpaceOnUse">
<stop stop-color="#755CBB"/>
<stop offset="1" stop-color="#CCCCFF"/>
</linearGradient>
<linearGradient id="paint12_linear_2507_108897" x1="254.571" y1="170.155" x2="145.972" y2="104.11" gradientUnits="userSpaceOnUse">
<stop stop-color="#220052"/>
<stop offset="1" stop-color="#5647BA"/>
</linearGradient>
<linearGradient id="paint13_linear_2507_108897" x1="204.428" y1="198.714" x2="138.076" y2="158.362" gradientUnits="userSpaceOnUse">
<stop stop-color="#820A29"/>
<stop offset="1" stop-color="#FF8800"/>
</linearGradient>
<linearGradient id="paint14_linear_2507_108897" x1="256.055" y1="113.518" x2="189.107" y2="72.804" gradientUnits="userSpaceOnUse">
<stop stop-color="#820A29"/>
<stop offset="1" stop-color="#FF8800"/>
</linearGradient>
<linearGradient id="paint15_linear_2507_108897" x1="254.57" y1="170.156" x2="145.971" y2="104.111" gradientUnits="userSpaceOnUse">
<stop/>
<stop offset="1" stop-color="#691923"/>
</linearGradient>
<linearGradient id="paint16_linear_2507_108897" x1="189.026" y1="174.763" x2="170.691" y2="163.612" gradientUnits="userSpaceOnUse">
<stop stop-color="#220052"/>
<stop offset="1" stop-color="#5647BA"/>
</linearGradient>
<linearGradient id="paint17_linear_2507_108897" x1="228.24" y1="110.27" x2="209.91" y2="99.1225" gradientUnits="userSpaceOnUse">
<stop stop-color="#220052"/>
<stop offset="1" stop-color="#5647BA"/>
</linearGradient>
<linearGradient id="paint18_linear_2507_108897" x1="243.877" y1="162.695" x2="216.298" y2="145.923" gradientUnits="userSpaceOnUse">
<stop stop-color="#220052"/>
<stop offset="1" stop-color="#5647BA"/>
</linearGradient>
<linearGradient id="paint19_linear_2507_108897" x1="187.254" y1="158.84" x2="203.494" y2="132.051" gradientUnits="userSpaceOnUse">
<stop stop-color="#754B64"/>
<stop offset="0.24" stop-color="#915E7D"/>
<stop offset="0.74" stop-color="#D88CBB"/>
<stop offset="1" stop-color="#FFA6DD"/>
</linearGradient>
<linearGradient id="paint20_linear_2507_108897" x1="174.444" y1="148.948" x2="198.081" y2="109.957" gradientUnits="userSpaceOnUse">
<stop stop-color="#B82CDB"/>
<stop offset="1" stop-color="#EAE8FF"/>
</linearGradient>
<linearGradient id="paint21_linear_2507_108897" x1="226.037" y1="135.312" x2="205.133" y2="122.599" gradientUnits="userSpaceOnUse">
<stop stop-color="#B82CDB"/>
<stop offset="1" stop-color="#EAE8FF"/>
</linearGradient>
<linearGradient id="paint22_linear_2507_108897" x1="201.91" y1="139.632" x2="189.761" y2="132.244" gradientUnits="userSpaceOnUse">
<stop stop-color="#F6E4C0"/>
<stop offset="1" stop-color="#ADA0BC"/>
</linearGradient>
<linearGradient id="paint23_linear_2507_108897" x1="201.954" y1="139.66" x2="189.716" y2="132.217" gradientUnits="userSpaceOnUse">
<stop stop-color="#696255"/>
<stop offset="1" stop-color="#412D59"/>
</linearGradient>
<linearGradient id="paint24_linear_2507_108897" x1="158.155" y1="176.667" x2="117.668" y2="125.539" gradientUnits="userSpaceOnUse">
<stop offset="0.02" stop-color="#FFB88E"/>
<stop offset="1" stop-color="#FF7C7C"/>
</linearGradient>
<linearGradient id="paint25_linear_2507_108897" x1="141.172" y1="120.263" x2="137.065" y2="115.078" gradientUnits="userSpaceOnUse">
<stop stop-color="#DD575C"/>
<stop offset="1" stop-color="#CF4F74"/>
</linearGradient>
<linearGradient id="paint26_linear_2507_108897" x1="150.434" y1="148.932" x2="147.91" y2="145.745" gradientUnits="userSpaceOnUse">
<stop stop-color="#DD575C"/>
<stop offset="1" stop-color="#CF4F74"/>
</linearGradient>
<linearGradient id="paint27_linear_2507_108897" x1="107.577" y1="149.36" x2="107.614" y2="149.331" gradientUnits="userSpaceOnUse">
<stop offset="0.01" stop-color="#C27CB6"/>
<stop offset="1" stop-color="#FFEADB"/>
</linearGradient>
<linearGradient id="paint28_linear_2507_108897" x1="151.798" y1="168.716" x2="117.631" y2="125.569" gradientUnits="userSpaceOnUse">
<stop offset="0.01" stop-color="#DB95B6"/>
<stop offset="1" stop-color="#FFEADB"/>
</linearGradient>
<linearGradient id="paint29_linear_2507_108897" x1="111.996" y1="144.304" x2="116.929" y2="140.398" gradientUnits="userSpaceOnUse">
<stop offset="0.01" stop-color="#C27CB6"/>
<stop offset="1" stop-color="#FFEADB"/>
</linearGradient>
<linearGradient id="paint30_linear_2507_108897" x1="118.264" y1="139.019" x2="125.691" y2="133.139" gradientUnits="userSpaceOnUse">
<stop offset="0.01" stop-color="#C27CB6"/>
<stop offset="1" stop-color="#FFEADB"/>
</linearGradient>
<linearGradient id="paint31_linear_2507_108897" x1="125.504" y1="134.416" x2="133.074" y2="128.422" gradientUnits="userSpaceOnUse">
<stop offset="0.01" stop-color="#C27CB6"/>
<stop offset="1" stop-color="#FFEADB"/>
</linearGradient>
<linearGradient id="paint32_linear_2507_108897" x1="151.343" y1="152.95" x2="131.518" y2="127.915" gradientUnits="userSpaceOnUse">
<stop stop-color="#FFEADB"/>
<stop offset="0.99" stop-color="#C27CB6"/>
</linearGradient>
<linearGradient id="paint33_linear_2507_108897" x1="130.791" y1="129.18" x2="127.082" y2="124.496" gradientUnits="userSpaceOnUse">
<stop stop-color="#DD575C"/>
<stop offset="1" stop-color="#CF4F74"/>
</linearGradient>
<linearGradient id="paint34_linear_2507_108897" x1="122.453" y1="134.41" x2="119.812" y2="131.075" gradientUnits="userSpaceOnUse">
<stop stop-color="#DD575C"/>
<stop offset="1" stop-color="#CF4F74"/>
</linearGradient>
<linearGradient id="paint35_linear_2507_108897" x1="136.087" y1="179.488" x2="131.007" y2="173.073" gradientUnits="userSpaceOnUse">
<stop stop-color="#A45CBB"/>
<stop offset="1" stop-color="#F0CCD3"/>
</linearGradient>
<linearGradient id="paint36_linear_2507_108897" x1="159.188" y1="278.891" x2="96.5966" y2="199.848" gradientUnits="userSpaceOnUse">
<stop stop-color="#220052"/>
<stop offset="1" stop-color="#5647BA"/>
</linearGradient>
<linearGradient id="paint37_linear_2507_108897" x1="117.647" y1="156.388" x2="120.936" y2="153.784" gradientUnits="userSpaceOnUse">
<stop offset="0.01" stop-color="#DB95B6"/>
<stop offset="1" stop-color="#FFEADB"/>
</linearGradient>
<linearGradient id="paint38_linear_2507_108897" x1="123.104" y1="153.312" x2="128.156" y2="149.311" gradientUnits="userSpaceOnUse">
<stop offset="0.01" stop-color="#DB95B6"/>
<stop offset="1" stop-color="#FFEADB"/>
</linearGradient>
<linearGradient id="paint39_linear_2507_108897" x1="127.331" y1="151.63" x2="135.504" y2="145.159" gradientUnits="userSpaceOnUse">
<stop offset="0.01" stop-color="#DB95B6"/>
<stop offset="1" stop-color="#FFEADB"/>
</linearGradient>
<linearGradient id="paint40_linear_2507_108897" x1="237.538" y1="120.188" x2="259.04" y2="116.012" gradientUnits="userSpaceOnUse">
<stop stop-color="#FF7C7C"/>
<stop offset="0.98" stop-color="#FFB88E"/>
</linearGradient>
<linearGradient id="paint41_linear_2507_108897" x1="235.879" y1="111.674" x2="252.937" y2="108.361" gradientUnits="userSpaceOnUse">
<stop stop-color="#FFEADB"/>
<stop offset="0.99" stop-color="#EA90B6"/>
</linearGradient>
<linearGradient id="paint42_linear_2507_108897" x1="258.548" y1="128.062" x2="240.091" y2="104.754" gradientUnits="userSpaceOnUse">
<stop stop-color="#DD575C"/>
<stop offset="1" stop-color="#CF4F74"/>
</linearGradient>
<linearGradient id="paint43_linear_2507_108897" x1="260.467" y1="125.505" x2="258.823" y2="123.428" gradientUnits="userSpaceOnUse">
<stop stop-color="#F0CCD3"/>
<stop offset="1" stop-color="#A45CBB"/>
</linearGradient>
<linearGradient id="paint44_linear_2507_108897" x1="259.393" y1="122.013" x2="256.553" y2="118.427" gradientUnits="userSpaceOnUse">
<stop stop-color="#F0CCD3"/>
<stop offset="1" stop-color="#A45CBB"/>
</linearGradient>
<linearGradient id="paint45_linear_2507_108897" x1="258.66" y1="115.983" x2="258.305" y2="115.535" gradientUnits="userSpaceOnUse">
<stop stop-color="#F0CCD3"/>
<stop offset="1" stop-color="#A45CBB"/>
</linearGradient>
<linearGradient id="paint46_linear_2507_108897" x1="256.025" y1="116.964" x2="254.406" y2="114.92" gradientUnits="userSpaceOnUse">
<stop stop-color="#F0CCD3"/>
<stop offset="1" stop-color="#A45CBB"/>
</linearGradient>
<linearGradient id="paint47_linear_2507_108897" x1="251.437" y1="112.503" x2="249.148" y2="109.612" gradientUnits="userSpaceOnUse">
<stop stop-color="#F0CCD3"/>
<stop offset="1" stop-color="#A45CBB"/>
</linearGradient>
<linearGradient id="paint48_linear_2507_108897" x1="228.742" y1="105.824" x2="263.101" y2="99.1505" gradientUnits="userSpaceOnUse">
<stop stop-color="#FF7C7C"/>
<stop offset="0.98" stop-color="#FFB88E"/>
</linearGradient>
<linearGradient id="paint49_linear_2507_108897" x1="228.616" y1="105.179" x2="253.193" y2="100.405" gradientUnits="userSpaceOnUse">
<stop stop-color="#FFEADB"/>
<stop offset="0.99" stop-color="#C27CB6"/>
</linearGradient>
<radialGradient id="paint50_radial_2507_108897" cx="0" cy="0" r="1" gradientUnits="userSpaceOnUse" gradientTransform="translate(195.821 135.947) rotate(-38.3747) scale(15.6759 15.6421)">
<stop stop-color="#7DFFEE"/>
<stop offset="0.04" stop-color="#77F2E2"/>
<stop offset="0.32" stop-color="#4D9D93"/>
<stop offset="0.56" stop-color="#2C5A54"/>
<stop offset="0.76" stop-color="#142926"/>
<stop offset="0.91" stop-color="#050B0A"/>
<stop offset="1"/>
</radialGradient>
<linearGradient id="paint51_linear_2507_108897" x1="185.745" y1="56.2922" x2="166.32" y2="61.3447" gradientUnits="userSpaceOnUse">
<stop stop-color="#DD1D33"/>
<stop offset="1" stop-color="#FF4827"/>
</linearGradient>
<linearGradient id="paint52_linear_2507_108897" x1="111.04" y1="91.9633" x2="110.007" y2="103.637" gradientUnits="userSpaceOnUse">
<stop stop-color="#DD1D33"/>
<stop offset="1" stop-color="#FF4827"/>
</linearGradient>
<linearGradient id="paint53_linear_2507_108897" x1="98.2325" y1="169.126" x2="87.504" y2="177.95" gradientUnits="userSpaceOnUse">
<stop stop-color="#DD1D33"/>
<stop offset="1" stop-color="#FF4827"/>
</linearGradient>
<linearGradient id="paint54_linear_2507_108897" x1="106.242" y1="122.916" x2="94.7665" y2="127.611" gradientUnits="userSpaceOnUse">
<stop offset="0.01" stop-color="#8343D6"/>
<stop offset="1" stop-color="#8143E5"/>
</linearGradient>
<linearGradient id="paint55_linear_2507_108897" x1="156.544" y1="44.7949" x2="149.551" y2="57.5173" gradientUnits="userSpaceOnUse">
<stop offset="0.01" stop-color="#8343D6"/>
<stop offset="1" stop-color="#8143E5"/>
</linearGradient>
<linearGradient id="paint56_linear_2507_108897" x1="237.394" y1="56.512" x2="222.172" y2="54.1233" gradientUnits="userSpaceOnUse">
<stop stop-color="#FFA700"/>
<stop offset="1" stop-color="#FFBF00"/>
</linearGradient>
<clipPath id="clip0_2507_108897">
<rect width="311" height="250" fill="white" transform="translate(0 0.666992)"/>
</clipPath>
</defs>
</svg>
