<svg width="368" height="354" viewBox="0 0 368 354" fill="none" xmlns="http://www.w3.org/2000/svg">
<path d="M153.716 351.133C62.7833 337.365 -11.0995 251.398 2.31912 155.849C13.779 74.361 85.2212 10.946 170.898 4.95626C177.102 4.52167 183.372 4.39361 189.708 4.57206C234.904 5.81845 278.122 23.3808 311.376 54.0141C342.635 82.8039 362.944 121.309 366.644 161.716C376.492 269.179 266.806 368.261 153.716 351.133Z" fill="#F4F7FA"/>
<path d="M226.717 276.346C223.927 276.11 218.063 273.137 216.854 271.73C208.805 262.376 192.605 245.84 192.791 232.796C192.826 230.57 202.664 228.072 203.964 225.966C209.85 222.848 212.083 222.133 216.224 216.421C228.43 199.554 197.568 170.269 231.438 157.997C256.241 149.006 277.869 156.737 273.435 117.804C269.001 78.8707 296.818 6.35777 339.253 31.7685C363.606 46.3523 341.054 80.6217 354.312 104.574C366.909 127.333 357.896 146.931 333.789 161.993C309.682 177.056 323.365 187.206 331.528 209.004C341.338 235.19 300.666 241.705 281.648 243.113C266.324 244.247 228.071 257.47 226.717 276.346Z" fill="url(#paint0_linear_2637_9071)"/>
<g style="mix-blend-mode:soft-light">
<g style="mix-blend-mode:soft-light">
<path d="M205.217 253.37L204.934 252.844C285.553 209.039 331.465 122.153 327.721 20.3999L328.316 20.3778C330.092 68.5949 320.288 115.25 299.973 155.289C278.603 197.384 245.839 231.3 205.217 253.37Z" fill="#FCFDFE"/>
</g>
<g style="mix-blend-mode:soft-light">
<path d="M336.853 219.421C312.683 212.66 272.833 214.216 248.005 222.876L247.81 222.315C272.726 213.611 312.746 212.059 337.014 218.851L336.853 219.421Z" fill="#FCFDFE"/>
</g>
<g style="mix-blend-mode:soft-light">
<path d="M220.948 244.59L220.529 244.164C230.26 234.566 234.763 220.42 233.919 202.117C233.289 188.695 229.869 173.393 223.725 156.633L224.286 156.428C230.449 173.245 233.891 188.607 234.514 202.091C235.358 220.568 230.805 234.868 220.948 244.59Z" fill="#FCFDFE"/>
</g>
<g style="mix-blend-mode:soft-light">
<path d="M302.631 149.494L302.19 149.091C319.599 130.06 346.039 124.004 365.155 122.276L365.208 122.871C346.209 124.587 319.91 130.602 302.631 149.494Z" fill="#FCFDFE"/>
</g>
<g style="mix-blend-mode:soft-light">
<path d="M321.929 93.6904H321.334C322.153 64.6424 304.363 39.8647 293.688 27.6805L294.135 27.2869C304.867 39.5214 322.754 64.4409 321.929 93.6904Z" fill="#FCFDFE"/>
</g>
</g>
<path d="M254.792 311.453C251.939 312.946 244.422 313.68 242.384 313.062C228.814 308.956 202.922 302.916 195.049 290.155C193.707 287.976 201.7 279.486 201.662 276.648C205.441 269.997 207.17 267.925 207.661 259.835C209.11 235.955 161.135 226.595 186.392 193.825C204.906 169.813 230.635 163.974 202.336 128.974C174.038 93.9741 156.292 6.53084 213.094 5.00349C245.691 4.12802 244.957 51.246 272.575 66.2896C298.821 80.5838 302.159 105.141 288.079 134.598C273.999 164.056 293.521 165.46 314.872 181.562C340.522 200.898 305.109 232.283 287.55 245.377C273.394 255.921 244.466 292.316 254.792 311.453Z" fill="url(#paint1_linear_2637_9071)"/>
<g style="mix-blend-mode:soft-light">
<g style="mix-blend-mode:soft-light">
<path d="M219.786 302.437L219.188 302.103C270.337 209.933 261.261 97.4067 194.908 1.08913L195.471 0.701782C226.919 46.3649 246.173 97.6146 251.161 148.952C256.405 202.929 245.556 256.002 219.786 302.437Z" fill="#FCFDFE"/>
</g>
<g style="mix-blend-mode:soft-light">
<path d="M326.455 188.393C298.859 196.722 261.182 222.798 242.463 246.501L241.925 246.076C260.716 222.281 298.547 196.102 326.257 187.722L326.455 188.393Z" fill="#FCFDFE"/>
</g>
<g style="mix-blend-mode:soft-light">
<path d="M229.621 284.229L228.953 284.074C232.468 268.772 228.112 252.268 216.01 235.064C207.133 222.435 194.375 209.716 178.091 197.258L178.506 196.716C194.848 209.215 207.646 221.985 216.567 234.686C228.789 252.057 233.179 268.728 229.621 284.229Z" fill="#FCFDFE"/>
</g>
<g style="mix-blend-mode:soft-light">
<path d="M250.16 141.694L249.486 141.574C254.628 112.394 276.525 90.2234 293.987 76.7638L294.403 77.3086C277.051 90.6926 255.274 112.727 250.16 141.694Z" fill="#FCFDFE"/>
</g>
<g style="mix-blend-mode:soft-light">
<path d="M234.477 75.7057L233.888 76.0553C216.776 47.3978 184.257 34.3444 166.395 29.1325L166.587 28.4744C184.544 33.7177 217.242 46.8435 234.477 75.7057Z" fill="#FCFDFE"/>
</g>
</g>
<path d="M19.0695 288.889C12.4248 289.286 6.99243 284.978 6.99243 279.281V73.9989C6.99243 68.302 12.4248 63.9058 19.0695 64.1923L19.9954 64.2333L326.303 86.7215C331.181 86.9325 335.121 81.8277 335.121 86.6712V261.265C335.121 266.108 331.172 270.284 326.303 270.574L20.6504 286.962L19.6805 288.852L19.0695 288.889Z" fill="#BFC8D6"/>
<path d="M21.8439 288.889C15.1992 289.286 9.76367 284.978 9.76367 279.281V73.9989C9.76367 68.302 15.1992 63.9058 21.8439 64.1923L329.078 77.5039C331.438 77.6239 333.663 78.6387 335.301 80.3418C336.94 82.0449 337.867 84.3083 337.895 86.6712V261.265C337.895 266.108 333.943 270.284 329.078 270.574L21.8439 288.889Z" fill="white"/>
<g style="mix-blend-mode:multiply" opacity="0.3">
<path d="M329.065 81.6135L21.8441 68.9759C18.2918 68.8278 15.4041 71.1803 15.4041 74.2161V278.972C15.4041 282.015 18.2918 284.326 21.8441 284.109L329.078 266.473C330.347 266.389 331.537 265.83 332.413 264.907C333.288 263.984 333.784 262.766 333.802 261.495V86.5136C333.788 85.2461 333.29 84.0319 332.409 83.1205C331.528 82.2091 330.332 81.6698 329.065 81.6135Z" fill="#D8DEE8"/>
</g>
<path d="M21.844 266.669C20.4616 266.738 19.3247 265.831 19.3247 264.647V74.3672C19.3247 73.1863 20.4521 72.2667 21.844 72.3234L329.078 84.4887C329.572 84.5119 330.039 84.7231 330.382 85.079C330.726 85.435 330.92 85.9087 330.926 86.4034V249.55C330.919 250.045 330.725 250.52 330.382 250.878C330.039 251.237 329.573 251.452 329.078 251.48L21.844 266.669Z" fill="#D8DEE8"/>
<g style="mix-blend-mode:multiply" opacity="0.4">
<path d="M296.991 257.87C271.142 241.878 289.209 196.42 260.167 173.592C230.905 150.552 189.723 178.794 169.225 154.945C153.961 137.19 171.82 115.751 157.259 99.0505C134.405 72.862 75.8965 108.879 49.0151 83.0779C45.1857 79.4311 41.3342 73.8571 39.1424 64.9449L21.8219 64.1954C15.1772 63.9088 9.7417 68.2894 9.7417 74.002V279.281C9.7417 284.978 15.1772 289.286 21.8219 288.889L329.065 270.586C333.94 270.296 337.883 266.121 337.883 261.277V258.172C317.492 265.081 305.018 262.836 296.991 257.87Z" fill="#D8DEE8"/>
</g>
<g style="mix-blend-mode:soft-light">
<path d="M38.8906 251.15L112.836 248.063V209.297L38.8906 211.089V251.15Z" fill="#F4F7FA"/>
</g>
<g style="mix-blend-mode:soft-light">
<g style="mix-blend-mode:soft-light" opacity="0.7">
<g style="mix-blend-mode:soft-light">
<path d="M42.1216 208.416L42.4774 220.562H87.9862L87.8854 208.416H42.1216Z" fill="#F4F7FA"/>
</g>
<g style="mix-blend-mode:soft-light">
<path d="M41.4761 186.481L41.8414 198.873H149.877L150.126 186.481H41.4761Z" fill="#F4F7FA"/>
</g>
<g style="mix-blend-mode:soft-light">
<path d="M40.8179 164.103L41.1895 176.747H198.472L199.001 164.103H40.8179Z" fill="#F4F7FA"/>
</g>
<g style="mix-blend-mode:soft-light">
<path d="M40.144 141.262L40.5251 154.168H156.399L156.689 141.262H40.144Z" fill="#F4F7FA"/>
</g>
<g style="mix-blend-mode:soft-light">
<path d="M39.4607 117.949L39.848 131.122H221.439L222.113 117.949H39.4607Z" fill="#F4F7FA"/>
</g>
<g style="mix-blend-mode:soft-light">
<path d="M38.7583 94.1473L39.1551 107.597H243.105L243.911 94.1473H38.7583Z" fill="#F4F7FA"/>
</g>
</g>
</g>
<g style="mix-blend-mode:soft-light">
<path d="M258.542 241.986L313.807 239.68V234.087L258.542 236.238V241.986Z" fill="#F4F7FA"/>
</g>
<g style="mix-blend-mode:soft-light">
<path d="M258.542 167.81L313.807 167.482V161.889L258.542 162.066V167.81Z" fill="#F4F7FA"/>
</g>
<g style="mix-blend-mode:soft-light">
<path d="M258.542 157.975L313.807 157.909V152.316L258.542 152.228V157.975Z" fill="#F4F7FA"/>
</g>
<g style="mix-blend-mode:soft-light">
<path d="M258.542 234.043L267.549 233.7V224.889L258.542 225.191V234.043Z" fill="#F4F7FA"/>
</g>
<g style="mix-blend-mode:soft-light">
<g style="mix-blend-mode:soft-light">
<path d="M59.1999 226.747C63.8953 226.923 64.5944 224.205 69.2174 223.941C77.062 223.494 78.9799 231.127 86.5379 231.011C92.7008 230.907 94.2754 225.761 100.375 226.334C104.916 226.759 105.811 229.783 110.235 230.214C111.102 230.297 111.976 230.274 112.837 230.145V248.064L38.8877 251.15V219.444C41.9633 219.619 44.9852 220.326 47.8188 221.535C52.8039 223.72 54.4572 226.567 59.1999 226.747Z" fill="#F4F7FA"/>
</g>
</g>
<g style="mix-blend-mode:soft-light">
<path d="M39.199 206.689L248.226 202.022V193.258L39.199 197.05V206.689Z" fill="#F4F7FA"/>
</g>
<g style="mix-blend-mode:soft-light">
<path d="M121.799 247.692L248.226 242.417V205.411L121.799 208.44V247.692Z" fill="#F4F7FA"/>
</g>
<path d="M110.859 335.831C110.859 335.831 120.139 340.555 120.291 341.298C120.442 342.041 114.323 341.046 111.826 341.153C109.328 341.26 107.272 340.435 107.499 339.263C107.725 338.092 108.598 335.107 108.598 335.107L110.859 335.831Z" fill="url(#paint2_linear_2637_9071)"/>
<path d="M111.199 331.995L110.651 336.675C110.651 336.675 109.18 337.257 108.194 336.568L107.772 331.444L111.199 331.995Z" fill="url(#paint3_linear_2637_9071)"/>
<path d="M67.5072 332.115L66.4271 334.052C66.125 334.604 66.0375 335.249 66.1814 335.862C66.5593 337.475 67.312 340.614 67.6427 341.433C68.0898 342.548 74.0922 343.209 74.0922 343.209C74.0922 343.209 74.6275 342.369 73.3805 341.348C72.1334 340.328 71.3335 340.174 70.8926 338.671C70.4517 337.169 70.162 332.921 70.162 332.921L67.5072 332.115Z" fill="url(#paint4_linear_2637_9071)"/>
<path d="M71.9977 327.193C71.6009 327.545 69.6736 334.089 69.6736 334.089C69.6736 334.089 69.0438 334.981 67.8628 333.664C66.6819 332.348 67.3275 333.072 67.3275 333.072L67.5511 326.635L71.9977 327.193Z" fill="url(#paint5_linear_2637_9071)"/>
<path d="M116.319 238.165C116.811 252.101 116.829 267.236 116.111 283.407C115.305 301.618 113.683 318.447 111.64 333.705C110.878 333.73 110.081 333.737 109.246 333.705C108.683 333.705 108.135 333.658 107.609 333.617C106.257 329.583 105.109 325.484 104.17 321.335C103.103 316.585 102.302 311.78 101.77 306.94C99.9845 291.16 102.085 289.784 100.627 278.088C99.3421 267.73 97.5156 267.327 95.3741 252.62C93.0469 236.666 94.7789 234.27 95.6198 233.41C99.1909 229.719 107.612 232.226 116.319 238.165Z" fill="url(#paint6_linear_2637_9071)"/>
<path style="mix-blend-mode:multiply" opacity="0.3" d="M95.6038 233.401C99.0238 229.889 106.843 232.015 115.1 237.375C105.612 248.857 104.566 256.295 105.703 261.139C106.991 266.599 110.906 268.171 110.89 274.142C110.871 281.479 104.951 283.422 105.077 291.185C105.158 296.318 107.76 296.265 108.377 302.607C109.101 310.108 105.703 312.685 106.802 318.243C107.275 320.633 108.626 323.754 112.471 326.966C112.194 329.246 111.91 331.504 111.611 333.718C110.852 333.743 110.055 333.749 109.221 333.718C108.657 333.718 108.109 333.671 107.583 333.63C106.231 329.596 105.084 325.497 104.144 321.348C103.077 316.598 102.276 311.792 101.745 306.953C99.9591 291.172 102.06 289.796 100.602 278.1C99.3167 267.743 97.4902 267.34 95.3487 252.633C93.0309 236.657 94.763 234.264 95.6038 233.401Z" fill="url(#paint7_linear_2637_9071)"/>
<path d="M110.418 237.932C100.704 253.847 92.3754 270.567 85.5235 287.907C80.1326 301.539 75.6355 315.508 72.0607 329.725C71.2198 330.166 70.2615 330.333 69.321 330.2C68.0869 329.981 66.9801 329.307 66.219 328.311C65.1632 320.954 64.9245 313.503 65.5073 306.093C65.8792 300.45 66.815 294.859 68.3006 289.403C70.5617 281.259 72.1143 280.799 75.0588 272.183C78.1166 263.239 77.3766 261.007 80.3053 249.824C82.0582 243.147 84.2431 236.591 86.8461 230.198L110.418 237.932Z" fill="url(#paint8_linear_2637_9071)"/>
<path d="M112.597 179.783C121.629 173.884 125.509 174.565 128.119 169.265C130.708 164.024 130.702 155.707 126.416 151.314C126.101 150.999 122.838 147.74 118.42 148.294C111.737 149.138 111.243 157.581 103.748 161.448C97.3992 164.724 90.471 162.418 85.7976 160.859C74.511 157.102 72.8356 149.998 66.9813 151.132C59.6343 152.539 59.0044 164.33 51.6826 165.057C46.7982 165.542 45.6362 160.422 39.2182 159.011C31.6601 157.351 23.3967 162.255 18.7485 168.213C10.2646 179.106 12.5005 195.365 17.8038 205.291C22.1654 213.444 31.5405 222.823 39.4386 220.804C45.6803 219.211 47.7115 211.357 53.0808 212.128C56.8976 212.685 57.0362 216.83 61.549 218.965C68.9558 222.47 78.1042 215.791 80.5984 213.967C87.7092 208.774 86.5818 205.464 95.7459 195.044C99.3801 190.931 104.598 185.007 112.597 179.783Z" fill="url(#paint9_linear_2637_9071)"/>
<path d="M177.294 156.835C177.294 156.835 178.818 154.7 179.788 153.113C180.758 151.525 185.287 147.066 185.287 147.066C185.287 147.066 185.633 147.775 184.657 148.905C183.68 150.036 181.634 151.979 182.106 152.801C182.578 153.623 183.901 154.344 182.944 155.896C181.986 157.449 180.323 156.388 179.479 157.632C178.635 158.876 177.757 160.23 177.757 160.23L177.294 156.835Z" fill="url(#paint10_linear_2637_9071)"/>
<path d="M176.695 155.443L179.785 160.68C178.34 165.425 176.272 169.958 173.634 174.159C172.208 176.42 167.78 183.058 160.285 188.396C150.082 195.661 131.495 202.441 126.054 194.694C121.197 187.794 129.036 172.502 130.478 169.756C134.787 172.029 139.513 173.405 144.369 173.8C148.836 174.21 153.339 173.692 157.596 172.279C168.549 168.525 174.642 159.014 176.695 155.443Z" fill="url(#paint11_linear_2637_9071)"/>
<path d="M142.376 178.785C141.862 181.367 133.838 179.981 132.182 184.664C131.294 187.183 133.18 188.774 133.259 193.041C133.347 197.821 131.054 200.533 129.322 204.293C126.765 209.798 126.756 215.195 126.737 225.988C126.709 241.349 130.106 244.439 127.206 249.389C123.427 255.836 114.367 256.245 111.92 256.358C103.54 256.739 102.548 252.29 93.4563 251.757C83.0641 251.15 81.5965 256.796 74.1708 254.387C67.3875 252.182 65.1075 246.338 59.8263 247.55C56.5228 248.306 55.6473 250.995 52.5328 250.699C49.4183 250.403 46.1683 247.311 45.9479 244.133C45.6739 240.181 49.9945 235.202 56.7684 235.193C59.4578 236.251 63.9202 237.473 68.8802 236.115C77.0082 233.886 81.2344 226.158 85.9298 217.576C89.1798 211.637 95.1506 200.725 95.2199 186.415C95.2514 180.513 94.2531 178.788 95.6923 175.632C100.362 165.391 118.483 166.919 120.017 167.067C132.38 168.254 142.996 175.67 142.376 178.785Z" fill="url(#paint12_linear_2637_9071)"/>
<path d="M146.426 191.677L123.663 192.669C123.536 192.68 123.415 192.729 123.316 192.81C123.217 192.891 123.145 193 123.109 193.123L112.386 226.381C112.232 226.857 112.701 228.05 113.164 227.997L135.668 224.574C135.785 224.557 135.895 224.507 135.986 224.43C136.076 224.353 136.143 224.252 136.178 224.139L147.333 193.094C147.496 192.635 146.867 191.655 146.426 191.677Z" fill="url(#paint13_linear_2637_9071)"/>
<path d="M146.778 192.487L124.016 193.479C123.888 193.489 123.767 193.538 123.668 193.619C123.569 193.7 123.497 193.809 123.462 193.932L112.739 227.194C112.699 227.296 112.684 227.406 112.696 227.515C112.709 227.625 112.748 227.729 112.81 227.819C112.872 227.91 112.956 227.984 113.053 228.034C113.15 228.085 113.259 228.111 113.369 228.11L136.011 225.389C136.128 225.371 136.238 225.321 136.328 225.243C136.417 225.166 136.483 225.065 136.518 224.952L147.373 193.431C147.417 193.331 147.435 193.22 147.427 193.111C147.418 193.001 147.383 192.895 147.325 192.802C147.266 192.709 147.186 192.632 147.09 192.577C146.995 192.522 146.888 192.491 146.778 192.487Z" fill="url(#paint14_linear_2637_9071)"/>
<path d="M140.568 193.727L141.447 191.076C141.467 191.023 141.475 190.966 141.469 190.909C141.463 190.853 141.444 190.798 141.413 190.751C141.383 190.703 141.341 190.663 141.292 190.634C141.243 190.605 141.188 190.588 141.132 190.585H132.837C132.763 190.586 132.693 190.612 132.636 190.658C132.579 190.704 132.539 190.768 132.522 190.84L131.687 193.772C131.669 193.824 131.664 193.88 131.671 193.935C131.678 193.989 131.697 194.042 131.727 194.088C131.758 194.134 131.798 194.173 131.846 194.201C131.894 194.229 131.947 194.246 132.002 194.25L140.244 193.967C140.317 193.971 140.39 193.95 140.449 193.906C140.508 193.862 140.55 193.799 140.568 193.727Z" fill="url(#paint15_linear_2637_9071)"/>
<path style="mix-blend-mode:multiply" opacity="0.3" d="M126.542 220.058C128.019 214.704 125.597 211.209 128.069 207.042C131.584 201.15 139.129 203.644 141.475 198.889C142.105 197.607 142.42 195.699 141.557 192.717L146.778 192.49C146.888 192.494 146.995 192.525 147.091 192.58C147.186 192.635 147.266 192.712 147.325 192.806C147.383 192.899 147.418 193.004 147.427 193.114C147.435 193.224 147.417 193.334 147.374 193.435L136.531 224.952C136.496 225.065 136.43 225.166 136.34 225.243C136.251 225.321 136.141 225.371 136.024 225.389L122.262 227.043C124.715 224.652 125.94 222.237 126.542 220.058Z" fill="url(#paint16_linear_2637_9071)"/>
<path d="M109.92 216.077C109.92 216.077 113.359 215.312 114.685 214.377C116.011 213.441 117.418 211.942 119.374 212.024C121.33 212.106 123.298 213.218 122.394 213.473C121.49 213.728 119.805 215.734 118.514 216.521C117.223 217.309 114.279 217.381 113.731 217.34C113.183 217.299 111.016 218.754 111.016 218.754L109.92 216.077Z" fill="url(#paint17_linear_2637_9071)"/>
<path style="mix-blend-mode:multiply" opacity="0.3" d="M56.7684 235.19C59.4578 236.248 63.9202 237.47 68.8802 236.112C77.0082 233.883 81.2344 226.155 85.9298 217.573C89.1798 211.634 95.1506 200.722 95.2199 186.412C95.2514 180.51 94.2531 178.785 95.6923 175.629C95.9192 175.141 96.1824 174.67 96.4796 174.221C100.029 176.905 101.405 179.575 101.805 181.946C102.784 187.687 98.1707 192.38 100.57 197.33C102.872 202.073 108.557 200.76 109.744 204.825C111.022 209.209 104.73 211.854 104.45 218.631C104.119 226.762 112.865 230.743 111.331 236.182C110.002 240.905 102.683 240.556 102.687 243.084C102.687 246.092 102.463 239.885 111.331 236.182C114.017 235.06 126.671 244.398 128.208 242.76C128.538 245.409 128.478 247.223 127.206 249.395C123.427 255.842 114.367 256.251 111.92 256.365C103.54 256.746 102.548 252.296 93.4563 251.764C83.0641 251.156 81.5965 256.802 74.1708 254.393C67.3875 252.189 65.1075 246.344 59.8263 247.556C56.5228 248.312 55.6473 251.002 52.5328 250.706C49.4183 250.409 46.1683 247.311 45.9479 244.133C45.6739 240.178 49.9945 235.199 56.7684 235.19Z" fill="url(#paint18_linear_2637_9071)"/>
<path d="M110.021 214.484L113.195 220.782C111.564 221.673 94.1177 230.904 81.4738 221.768C79.8992 220.637 75.7549 217.636 73.5158 211.757C71.0469 205.276 72.4325 199.251 73.33 195.34C75.5533 185.653 81.8328 175.5 90.7639 171.406C94.1713 169.832 98.218 169.06 102.025 168.317C105.253 167.687 110.323 166.915 110.434 167.463C110.484 167.731 109.306 168.071 108.487 168.588C103.449 171.768 109.845 184.897 103.934 191.196C98.2652 197.226 90.9308 196.234 89.7467 201.698C89.1956 204.239 90.3356 206.526 90.8426 207.543C93.6611 213.243 101.285 215.791 110.021 214.484Z" fill="url(#paint19_linear_2637_9071)"/>
<path d="M121.849 157.622C121.849 157.622 119.799 164.28 117.248 165.316C114.698 166.352 110.663 167.542 110.156 168.005C109.649 168.468 123.714 173.57 131.596 171.22C129.351 170.121 128.762 169.772 128.762 169.772C127.756 169.21 126.826 168.522 125.994 167.725C124.81 166.529 123.897 165.093 123.317 163.514L124.054 159.735L121.849 157.622Z" fill="url(#paint20_linear_2637_9071)"/>
<path d="M120.93 160.529C120.93 160.529 122.117 163.48 124.932 163.026C127.452 162.62 127.326 155.528 125.613 154.322C125.223 154.098 124.788 153.964 124.34 153.928C123.892 153.893 123.441 153.957 123.021 154.117C122.416 154.366 120.615 156.007 121.018 158.431C120.461 158.101 119.906 158.151 119.714 158.447C119.472 158.825 119.865 159.508 119.957 159.663C120.18 160.048 120.521 160.352 120.93 160.529Z" fill="url(#paint21_linear_2637_9071)"/>
<g style="mix-blend-mode:multiply" opacity="0.3">
<path d="M178.456 187.054C178.456 187.054 170.485 197.623 170.287 213.8L167.166 280.742H180.248L178.456 187.054Z" fill="#BFC8D6"/>
</g>
<path d="M337.439 184.847L329.68 184.705L322.572 184.573L304.411 184.236L297.149 184.1L284.867 183.874L277.466 183.738L238.133 183.005L230.37 182.86L191.698 182.145L188.234 182.082C181.646 181.962 176.116 186.714 176.116 192.698V309.636C176.116 315.62 181.627 320.202 188.222 319.877L191.805 319.695V320.176L191.966 319.673L245.448 316.334L337.326 310.763C342.953 310.49 347.784 307.614 347.784 302.138V194.962C347.784 189.482 343.06 184.951 337.439 184.847ZM311.106 190.515C311.653 190.524 312.199 190.58 312.737 190.682C314.114 190.934 315.416 191.492 316.547 192.316C317.678 193.14 318.61 194.208 319.272 195.441C319.94 196.69 320.29 198.086 320.289 199.503C320.292 201.041 319.876 202.551 319.086 203.871C318.248 205.231 317.073 206.352 315.675 207.124C314.277 207.897 312.703 208.295 311.106 208.28C305.995 208.248 301.838 204.23 301.838 199.295C301.838 194.36 305.995 190.446 311.106 190.525V190.515ZM265.562 189.816C266.134 189.824 266.704 189.879 267.266 189.983C268.689 190.232 270.04 190.793 271.22 191.626C272.401 192.459 273.382 193.544 274.093 194.801C274.836 196.124 275.216 197.62 275.195 199.137C275.173 200.654 274.751 202.138 273.971 203.44C273.246 204.626 272.27 205.64 271.112 206.409C269.953 207.178 268.641 207.684 267.266 207.892C266.706 207.984 266.139 208.027 265.572 208.022C260.218 207.99 255.857 203.871 255.857 198.82C255.857 193.768 260.209 189.741 265.562 189.826V189.816ZM217.805 189.082C218.407 189.091 219.008 189.15 219.6 189.259C221.092 189.508 222.51 190.085 223.752 190.949C224.994 191.812 226.028 192.941 226.78 194.253C227.512 195.553 227.898 197.019 227.901 198.511C227.903 200.135 227.442 201.725 226.572 203.096C225.802 204.302 224.782 205.328 223.582 206.105C222.381 206.883 221.028 207.393 219.613 207.603C219.019 207.701 218.419 207.749 217.818 207.744C212.199 207.707 207.617 203.487 207.617 198.297C207.617 193.107 212.187 189.004 217.805 189.092V189.082Z" fill="url(#paint22_linear_2637_9071)"/>
<path d="M340.459 184.903L329.591 184.699L322.528 184.57L304.388 184.236L297.145 184.097L284.863 183.867L277.463 183.735L238.13 183.001L230.367 182.856L210.42 182.485L202.44 182.337L192.13 182.145H191.698C189.241 182.145 186.839 182.874 184.795 184.239L184.754 184.267C182.235 186.012 180.512 188.632 180.21 191.671C180.191 191.882 179.952 192.093 179.942 192.301C179.942 192.408 179.712 192.515 179.712 192.616V219.507L205.378 218.792L347.343 214.795L350.492 214.714V194.874C350.486 189.41 346.068 185.007 340.459 184.903ZM323.51 199.55C323.511 200.079 323.459 200.606 323.356 201.125C322.587 205.238 318.859 208.333 314.355 208.305C313.811 208.304 313.267 208.254 312.731 208.157C308.41 207.395 305.113 203.729 305.113 199.339C305.113 194.949 308.419 191.362 312.737 190.692C313.272 190.603 313.813 190.564 314.355 190.575C316.774 190.605 319.09 191.562 320.824 193.249C321.669 194.067 322.343 195.046 322.804 196.128C323.265 197.21 323.505 198.374 323.51 199.55ZM278.559 199.068C278.561 199.582 278.514 200.094 278.42 200.599C277.652 204.857 273.718 208.072 268.973 208.044C268.398 208.041 267.825 207.991 267.26 207.892C265.684 207.63 264.198 206.981 262.934 206.004C261.67 205.027 260.668 203.752 260.016 202.293C259.404 200.886 259.179 199.34 259.365 197.816C259.551 196.292 260.141 194.846 261.075 193.627C262.595 191.656 264.822 190.353 267.285 189.993C267.848 189.906 268.418 189.867 268.988 189.876C271.471 189.911 273.851 190.868 275.668 192.559C276.572 193.387 277.295 194.392 277.793 195.512C278.29 196.632 278.551 197.843 278.559 199.068ZM231.438 198.561C231.438 199.123 231.382 199.683 231.271 200.234C230.42 204.539 226.323 207.792 221.379 207.754C220.787 207.753 220.196 207.702 219.612 207.603C214.854 206.806 211.223 202.958 211.223 198.354C211.223 193.75 214.841 189.967 219.612 189.268C220.201 189.175 220.796 189.133 221.392 189.145C224.025 189.171 226.555 190.172 228.493 191.954C229.414 192.793 230.151 193.812 230.658 194.949C231.164 196.087 231.43 197.316 231.438 198.561Z" fill="url(#paint23_linear_2637_9071)"/>
<path d="M350.486 213.945V302.034C350.491 302.542 350.456 303.049 350.382 303.552C349.979 305.952 348.768 308.142 346.949 309.758C345.13 311.375 342.813 312.321 340.383 312.439L245.523 317.081L191.987 319.94L191.896 320.189H191.821C185.887 320.189 180.887 316.441 180.068 311.286C179.986 310.773 179.718 310.001 179.718 309.463V213.413L203.819 213.489L347.349 213.939L350.486 213.945Z" fill="white"/>
<path d="M291.473 229.288C291.481 228.976 291.425 228.665 291.309 228.375C291.193 228.085 291.019 227.822 290.798 227.6C290.577 227.379 290.314 227.205 290.024 227.089C289.734 226.973 289.424 226.916 289.112 226.923L274.477 226.986C273.076 226.986 271.328 228.079 271.328 229.404V242.782C271.328 244.108 273.142 245.157 274.543 245.138L288.771 244.952C290.151 244.933 291.47 243.847 291.47 242.537L291.473 229.288Z" fill="#BFC8D6"/>
<path d="M316.884 229.165C316.864 228.529 316.594 227.927 316.132 227.49C315.67 227.053 315.054 226.816 314.418 226.832L300.823 226.888C300.509 226.885 300.196 226.944 299.904 227.063C299.613 227.181 299.347 227.356 299.124 227.578C298.9 227.8 298.723 228.064 298.602 228.355C298.481 228.645 298.42 228.957 298.421 229.272V242.47C298.417 242.782 298.477 243.091 298.596 243.379C298.715 243.667 298.891 243.928 299.114 244.145C299.337 244.363 299.602 244.534 299.892 244.646C300.183 244.759 300.493 244.811 300.804 244.801L314.459 244.621C315.095 244.621 315.705 244.372 316.159 243.927C316.612 243.481 316.873 242.876 316.884 242.241V229.165Z" fill="#BFC8D6"/>
<path d="M342.115 229.045C342.115 227.77 340.956 226.74 339.649 226.743L326.262 226.787C324.936 226.787 323.774 227.836 323.774 229.127V242.152C323.782 242.464 323.851 242.772 323.978 243.057C324.105 243.342 324.287 243.599 324.513 243.814C324.74 244.029 325.006 244.197 325.298 244.308C325.589 244.42 325.9 244.473 326.212 244.464L339.634 244.294C340.941 244.275 342.115 243.226 342.115 241.948V229.045Z" fill="#BFC8D6"/>
<path d="M291.473 253.518C291.481 253.207 291.426 252.897 291.309 252.609C291.193 252.32 291.019 252.058 290.798 251.84C290.576 251.621 290.312 251.45 290.022 251.337C289.732 251.225 289.422 251.173 289.112 251.184L274.477 251.42C273.076 251.442 271.328 252.548 271.328 253.874V267.251C271.328 268.577 273.142 269.607 274.543 269.572L288.771 269.21C290.151 269.175 291.47 268.076 291.47 266.766L291.473 253.518Z" fill="#BFC8D6"/>
<path d="M316.884 253.08C316.875 252.766 316.804 252.458 316.675 252.172C316.546 251.886 316.361 251.628 316.132 251.414C315.903 251.2 315.633 251.033 315.339 250.924C315.045 250.815 314.732 250.765 314.418 250.778L300.823 251.002C300.185 251.004 299.574 251.259 299.124 251.711C298.673 252.164 298.421 252.776 298.421 253.414V266.612C298.416 266.922 298.476 267.231 298.595 267.517C298.715 267.804 298.891 268.063 299.115 268.279C299.338 268.494 299.603 268.662 299.894 268.771C300.184 268.881 300.494 268.929 300.805 268.914L314.459 268.564C315.097 268.555 315.706 268.298 316.158 267.849C316.61 267.4 316.87 266.793 316.884 266.155V253.08Z" fill="url(#paint24_linear_2637_9071)"/>
<path d="M342.115 252.636C342.115 251.357 340.956 250.34 339.649 250.362L326.262 250.57C324.936 250.592 323.774 251.65 323.774 252.941V265.966C323.781 266.277 323.85 266.584 323.977 266.868C324.104 267.151 324.286 267.407 324.513 267.619C324.74 267.832 325.008 267.997 325.299 268.104C325.591 268.212 325.901 268.26 326.212 268.246L339.634 267.913C340.941 267.878 342.115 266.817 342.115 265.538V252.636Z" fill="#BFC8D6"/>
<path d="M211.053 254.929C211.053 253.562 209.736 252.469 208.24 252.494L193.124 252.727C192.785 252.718 192.447 252.776 192.13 252.898C191.813 253.02 191.524 253.203 191.278 253.437C191.032 253.671 190.835 253.951 190.698 254.262C190.561 254.573 190.486 254.907 190.479 255.247V269.185C190.476 269.519 190.542 269.85 190.674 270.158C190.805 270.465 190.998 270.742 191.241 270.972C191.485 271.201 191.773 271.377 192.088 271.49C192.403 271.602 192.737 271.648 193.071 271.625L208.316 271.248C209.812 271.21 211.046 270.079 211.046 268.728L211.053 254.929Z" fill="#BFC8D6"/>
<path d="M238.571 254.434C238.572 254.108 238.507 253.786 238.38 253.486C238.252 253.186 238.065 252.916 237.829 252.691C237.593 252.467 237.313 252.293 237.008 252.181C236.702 252.068 236.376 252.02 236.051 252.038L221.036 252.277C219.556 252.302 218.145 253.43 218.145 254.796V268.542C218.145 269.903 219.616 270.974 221.096 270.936L235.916 270.558C237.371 270.52 238.567 269.396 238.567 268.039L238.571 254.434Z" fill="#BFC8D6"/>
<path d="M265.112 254.003C265.111 253.681 265.046 253.362 264.919 253.067C264.792 252.771 264.607 252.504 264.374 252.281C264.141 252.059 263.866 251.886 263.565 251.772C263.263 251.659 262.942 251.608 262.621 251.622L247.82 251.855C246.38 251.877 244.825 252.986 244.825 254.33V267.891C244.825 269.235 246.399 270.287 247.854 270.249L262.407 269.894C263.824 269.859 265.105 268.76 265.105 267.428L265.112 254.003Z" fill="#BFC8D6"/>
<path d="M291.473 277.748C291.483 277.437 291.427 277.129 291.311 276.841C291.195 276.554 291.02 276.293 290.798 276.077C290.576 275.86 290.312 275.692 290.021 275.583C289.731 275.473 289.421 275.426 289.112 275.442L274.477 275.855C273.076 275.896 271.328 277.017 271.328 278.343V291.72C271.328 293.043 273.142 294.06 274.543 294.007L288.771 293.471C290.151 293.418 291.47 292.306 291.47 290.993L291.473 277.748Z" fill="#BFC8D6"/>
<path d="M316.884 276.995C316.876 276.682 316.805 276.375 316.676 276.09C316.546 275.805 316.361 275.549 316.131 275.337C315.902 275.125 315.632 274.962 315.337 274.856C315.043 274.75 314.731 274.704 314.419 274.721L300.824 275.115C300.184 275.127 299.574 275.389 299.125 275.846C298.676 276.302 298.423 276.915 298.421 277.555V290.741C298.416 291.05 298.475 291.358 298.594 291.643C298.714 291.928 298.891 292.186 299.115 292.4C299.339 292.613 299.605 292.778 299.895 292.884C300.186 292.99 300.496 293.034 300.805 293.015L314.459 292.495C315.099 292.477 315.707 292.214 316.158 291.76C316.609 291.307 316.869 290.697 316.884 290.058V276.995Z" fill="#BFC8D6"/>
<path d="M211.053 280.163C211.053 278.796 209.736 277.722 208.241 277.763L193.124 278.185C192.434 278.178 191.77 278.444 191.274 278.925C190.779 279.405 190.493 280.062 190.479 280.752V294.693C190.475 295.026 190.541 295.356 190.673 295.662C190.804 295.969 190.998 296.244 191.242 296.47C191.486 296.697 191.775 296.87 192.09 296.978C192.405 297.087 192.739 297.128 193.071 297.099L208.316 296.529C209.812 296.472 211.046 295.326 211.046 293.959L211.053 280.163Z" fill="#BFC8D6"/>
<path d="M238.571 279.325C238.573 279.001 238.508 278.679 238.381 278.381C238.253 278.082 238.065 277.814 237.828 277.592C237.592 277.37 237.312 277.199 237.006 277.09C236.7 276.981 236.375 276.937 236.051 276.96L221.036 277.385C219.556 277.43 218.145 278.57 218.145 279.933V293.679C218.145 295.04 219.616 296.095 221.096 296.038L235.919 295.465C237.374 295.411 238.571 294.271 238.571 292.923V279.325Z" fill="#BFC8D6"/>
<path d="M265.112 278.56C265.111 278.24 265.046 277.923 264.918 277.628C264.791 277.334 264.605 277.069 264.372 276.85C264.139 276.63 263.863 276.46 263.562 276.351C263.261 276.242 262.941 276.195 262.621 276.214L247.82 276.626C246.38 276.667 244.825 277.792 244.825 279.146V292.706C244.825 294.051 246.399 295.087 247.854 295.03L262.407 294.495C263.824 294.441 265.105 293.326 265.105 291.997L265.112 278.56Z" fill="#BFC8D6"/>
<path d="M220.434 164.172C211.012 163.911 203.196 171.501 202.44 182.343L210.417 182.491C211.069 176.013 215.399 171.135 220.434 171.258C225.87 171.39 230.439 177.393 230.439 184.403C230.439 191.413 225.87 197.264 220.434 197.21C217.6 197.179 214.993 195.532 213.131 192.972C212.054 194.433 210.193 197.78 211.954 201.83C214.505 203.405 217.437 204.254 220.434 204.287C230.257 204.362 238.177 195.526 238.177 184.551C238.177 173.576 230.257 164.459 220.434 164.172Z" fill="white"/>
<path d="M267.99 165.47C259.006 165.221 251.555 172.634 250.833 183.222L258.439 183.364C259.069 177.04 263.188 172.275 267.99 172.392C273.174 172.518 277.529 178.375 277.529 185.222C277.529 192.068 273.174 197.784 267.99 197.724C265.288 197.692 262.8 196.086 261.027 193.586C259.998 195.006 258.228 198.281 259.922 202.249C262.342 203.782 265.141 204.612 268.006 204.646C277.372 204.718 284.926 196.083 284.926 185.366C284.926 174.65 277.356 165.719 267.99 165.47Z" fill="white"/>
<path d="M313.499 166.761C304.93 166.522 297.825 173.768 297.123 184.104L304.366 184.239C304.958 178.064 308.895 173.406 313.474 173.532C318.418 173.652 322.575 179.37 322.575 186.056C322.575 192.742 318.418 198.338 313.474 198.272C310.898 198.243 308.523 196.672 306.832 194.235C305.853 195.626 304.165 198.82 305.764 202.681C308.062 204.173 310.735 204.983 313.474 205.017C322.408 205.087 329.616 196.653 329.616 186.182C329.616 175.711 322.433 167.007 313.499 166.761Z" fill="white"/>
<g style="mix-blend-mode:multiply" opacity="0.3">
<path d="M350.486 298.431V302.034C350.491 302.542 350.457 303.049 350.382 303.552C350 305.946 348.806 308.136 347 309.754C345.194 311.372 342.887 312.32 340.465 312.439L245.524 317.081L191.988 319.94C191.931 319.94 191.881 320.189 191.827 320.189C185.932 320.189 180.906 316.41 180.075 311.286C179.993 310.773 179.725 310.001 179.725 309.463V192.628C179.725 192.521 179.952 192.414 179.955 192.314C179.955 192.099 180.09 191.888 180.109 191.684C180.402 188.635 182.147 185.971 184.663 184.223C184.691 184.223 184.754 184.242 184.78 184.252C190.798 186.226 198.504 191.876 202.45 207.464C202.981 209.564 203.512 211.575 204.043 213.498C204.56 215.36 205.084 217.133 205.618 218.817C211.714 238.232 219.474 246.467 242.186 245.245C258.917 244.351 271.757 244.672 279.85 251.345C279.979 251.449 280.108 251.559 280.241 251.66C283.135 254.179 285.411 257.53 287.018 262.014C287.838 264.355 288.451 266.762 288.85 269.21C288.869 269.301 288.888 269.399 288.901 269.497C289.713 274.384 293.31 277.407 298.443 279.536L298.566 279.59C303.604 281.656 310.126 282.871 316.91 284.178C316.979 284.178 317.042 284.203 317.111 284.216C328.026 286.32 340.031 288.659 347.485 295.191C348.119 295.742 348.719 296.331 349.283 296.954C349.692 297.427 350.486 297.918 350.486 298.431Z" fill="#BFC8D6"/>
</g>
<g style="mix-blend-mode:multiply" opacity="0.3">
<path d="M350.486 301.599V302.034C350.491 302.542 350.456 303.049 350.382 303.552C350 305.946 348.805 308.136 347 309.754C345.194 311.372 342.887 312.32 340.465 312.439L245.524 317.081C245.495 316.797 245.48 316.508 245.461 316.227C245.376 315.056 245.341 313.878 245.335 312.688C245.314 306.67 246.313 300.692 248.289 295.008C250.713 288.02 254.615 281.636 259.73 276.293C263.129 272.746 267.042 269.731 271.338 267.349C276.195 264.643 281.498 262.83 286.995 261.995C288.466 261.772 289.962 261.617 291.473 261.539C292.267 261.49 293.066 261.467 293.87 261.469C294.251 261.469 296.525 261.488 298.42 261.507C299.68 261.526 300.767 261.539 301.019 261.548C302.706 261.612 304.388 261.771 306.057 262.024C312.301 262.419 318.4 264.072 323.989 266.883C324.845 267.303 325.685 267.753 326.508 268.234C337.386 274.652 345.494 284.88 349.261 296.935C349.739 298.469 350.486 300.022 350.486 301.599Z" fill="#BFC8D6"/>
</g>
<path d="M312.226 119.234C312.226 134.182 300.179 147.105 285.276 148.101C270.309 149.102 258.16 137.72 258.16 122.68C258.16 107.64 270.32 94.7089 285.276 93.802C300.179 92.8973 312.226 104.285 312.226 119.234Z" fill="url(#paint25_linear_2637_9071)"/>
<path d="M284.986 105.567C283.946 105.567 283.066 105.207 282.346 104.487C281.626 103.767 281.266 102.887 281.266 101.847C281.266 100.807 281.626 99.927 282.346 99.207C283.066 98.487 283.946 98.127 284.986 98.127C285.986 98.127 286.826 98.487 287.506 99.207C288.226 99.927 288.586 100.807 288.586 101.847C288.586 102.887 288.226 103.767 287.506 104.487C286.826 105.207 285.986 105.567 284.986 105.567ZM287.626 110.907V143.787H282.166V110.907H287.626Z" fill="white"/>
<defs>
<linearGradient id="paint0_linear_2637_9071" x1="255.148" y1="57.0028" x2="299.104" y2="281.804" gradientUnits="userSpaceOnUse">
<stop stop-color="#E38DDD"/>
<stop offset="1" stop-color="#9571F6"/>
</linearGradient>
<linearGradient id="paint1_linear_2637_9071" x1="153.735" y1="198.668" x2="504.556" y2="10.187" gradientUnits="userSpaceOnUse">
<stop stop-color="#FDF53F"/>
<stop offset="1" stop-color="#D93C65"/>
</linearGradient>
<linearGradient id="paint2_linear_2637_9071" x1="115.535" y1="319.373" x2="112.95" y2="352.276" gradientUnits="userSpaceOnUse">
<stop stop-color="#26264F"/>
<stop offset="1" stop-color="#444B8C"/>
</linearGradient>
<linearGradient id="paint3_linear_2637_9071" x1="109.394" y1="337.733" x2="109.864" y2="303.747" gradientUnits="userSpaceOnUse">
<stop stop-color="#FFC444"/>
<stop offset="1" stop-color="#F36F56"/>
</linearGradient>
<linearGradient id="paint4_linear_2637_9071" x1="71.998" y1="315.525" x2="69.4062" y2="348.513" gradientUnits="userSpaceOnUse">
<stop stop-color="#26264F"/>
<stop offset="1" stop-color="#444B8C"/>
</linearGradient>
<linearGradient id="paint5_linear_2637_9071" x1="69.4752" y1="337.116" x2="69.9413" y2="303.136" gradientUnits="userSpaceOnUse">
<stop stop-color="#FFC444"/>
<stop offset="1" stop-color="#F36F56"/>
</linearGradient>
<linearGradient id="paint6_linear_2637_9071" x1="116.653" y1="282.701" x2="94.19" y2="282.701" gradientUnits="userSpaceOnUse">
<stop stop-color="#AB316D"/>
<stop offset="1" stop-color="#792D3D"/>
</linearGradient>
<linearGradient id="paint7_linear_2637_9071" x1="115.1" y1="282.701" x2="94.1898" y2="282.701" gradientUnits="userSpaceOnUse">
<stop stop-color="#AB316D"/>
<stop offset="1" stop-color="#792D3D"/>
</linearGradient>
<linearGradient id="paint8_linear_2637_9071" x1="110.418" y1="280.226" x2="65.1955" y2="280.226" gradientUnits="userSpaceOnUse">
<stop stop-color="#AB316D"/>
<stop offset="1" stop-color="#792D3D"/>
</linearGradient>
<linearGradient id="paint9_linear_2637_9071" x1="78.1388" y1="164.922" x2="34.9195" y2="204.479" gradientUnits="userSpaceOnUse">
<stop stop-color="#26264F"/>
<stop offset="1" stop-color="#444B8C"/>
</linearGradient>
<linearGradient id="paint10_linear_2637_9071" x1="185.337" y1="153.648" x2="177.291" y2="153.648" gradientUnits="userSpaceOnUse">
<stop stop-color="#FFC444"/>
<stop offset="1" stop-color="#F36F56"/>
</linearGradient>
<linearGradient id="paint11_linear_2637_9071" x1="149.644" y1="181.474" x2="117.611" y2="289.636" gradientUnits="userSpaceOnUse">
<stop stop-color="#AA80F9"/>
<stop offset="1" stop-color="#6165D7"/>
</linearGradient>
<linearGradient id="paint12_linear_2637_9071" x1="109.397" y1="169.554" x2="77.3672" y2="277.716" gradientUnits="userSpaceOnUse">
<stop stop-color="#AA80F9"/>
<stop offset="1" stop-color="#6165D7"/>
</linearGradient>
<linearGradient id="paint13_linear_2637_9071" x1="126.369" y1="204.082" x2="140.448" y2="227.417" gradientUnits="userSpaceOnUse">
<stop stop-color="#6165D7"/>
<stop offset="1" stop-color="#AA80F9"/>
</linearGradient>
<linearGradient id="paint14_linear_2637_9071" x1="116.798" y1="203.244" x2="151.675" y2="221.806" gradientUnits="userSpaceOnUse">
<stop stop-color="#FF9085"/>
<stop offset="1" stop-color="#FB6FBB"/>
</linearGradient>
<linearGradient id="paint15_linear_2637_9071" x1="132.654" y1="179.619" x2="136.792" y2="193.167" gradientUnits="userSpaceOnUse">
<stop stop-color="#26264F"/>
<stop offset="1" stop-color="#444B8C"/>
</linearGradient>
<linearGradient id="paint16_linear_2637_9071" x1="118.146" y1="201.008" x2="152.847" y2="219.478" gradientUnits="userSpaceOnUse">
<stop stop-color="#FF9085"/>
<stop offset="1" stop-color="#FB6FBB"/>
</linearGradient>
<linearGradient id="paint17_linear_2637_9071" x1="122.621" y1="215.388" x2="109.92" y2="215.388" gradientUnits="userSpaceOnUse">
<stop stop-color="#FFC444"/>
<stop offset="1" stop-color="#F36F56"/>
</linearGradient>
<linearGradient id="paint18_linear_2637_9071" x1="128.378" y1="215.299" x2="45.9353" y2="215.299" gradientUnits="userSpaceOnUse">
<stop stop-color="#AA80F9"/>
<stop offset="1" stop-color="#6165D7"/>
</linearGradient>
<linearGradient id="paint19_linear_2637_9071" x1="105.004" y1="168.254" x2="72.971" y2="276.415" gradientUnits="userSpaceOnUse">
<stop stop-color="#AA80F9"/>
<stop offset="1" stop-color="#6165D7"/>
</linearGradient>
<linearGradient id="paint20_linear_2637_9071" x1="117.584" y1="164.417" x2="106.611" y2="137.879" gradientUnits="userSpaceOnUse">
<stop stop-color="#FFC444"/>
<stop offset="1" stop-color="#F36F56"/>
</linearGradient>
<linearGradient id="paint21_linear_2637_9071" x1="121.824" y1="153.457" x2="97.3006" y2="130.474" gradientUnits="userSpaceOnUse">
<stop stop-color="#FFC444"/>
<stop offset="1" stop-color="#F36F56"/>
</linearGradient>
<linearGradient id="paint22_linear_2637_9071" x1="-34.4724" y1="251.134" x2="137.199" y2="251.134" gradientUnits="userSpaceOnUse">
<stop stop-color="#311944"/>
<stop offset="1" stop-color="#893976"/>
</linearGradient>
<linearGradient id="paint23_linear_2637_9071" x1="179.709" y1="200.832" x2="350.486" y2="200.832" gradientUnits="userSpaceOnUse">
<stop stop-color="#FF9085"/>
<stop offset="1" stop-color="#FB6FBB"/>
</linearGradient>
<linearGradient id="paint24_linear_2637_9071" x1="298.421" y1="259.844" x2="316.884" y2="259.844" gradientUnits="userSpaceOnUse">
<stop stop-color="#FF9085"/>
<stop offset="1" stop-color="#FB6FBB"/>
</linearGradient>
<linearGradient id="paint25_linear_2637_9071" x1="258.16" y1="120.958" x2="312.226" y2="120.958" gradientUnits="userSpaceOnUse">
<stop stop-color="#AA80F9"/>
<stop offset="1" stop-color="#6165D7"/>
</linearGradient>
</defs>
</svg>
