<svg width="326" height="353" viewBox="0 0 326 353" fill="none" xmlns="http://www.w3.org/2000/svg">
<path d="M211.434 51.061C188.162 45.8688 163.966 43.3799 140.308 44.9669C119.34 46.3725 95.5723 50.2097 78.699 63.9541C70.6582 70.5045 61.069 82.2747 58.4382 92.6591C58.4382 92.6591 44.5927 147.314 16.9038 159.026C-10.785 170.738 -30.0141 370.619 179.964 351.099C179.964 351.099 303.294 345.984 310.72 198.652C312.513 163.062 311.511 123.936 290.021 94.1758C273.554 71.3712 250.481 61.2309 223.965 54.136C219.826 53.0274 215.649 52.0024 211.434 51.061Z" fill="#F4F7FA"/>
<path d="M166.124 236.25L166.326 236.282C177.287 238.033 191.025 236.81 199.903 229.515C204.58 225.671 207.749 220.607 208.721 214.597C209.298 211.036 209.612 207.278 209.051 203.696C208.468 199.945 207.017 196.327 205.15 193.028C204.096 191.19 202.929 189.418 201.657 187.723C198.041 182.873 189.5 176.059 193.46 169.182C195.854 165.024 201.373 162.465 205.019 159.55C212.81 153.319 218.407 144.335 218.485 134.077C218.547 126.017 213.494 118.039 207.794 112.621C184.594 90.5716 201.685 52.6501 168.829 55.6284C135.972 58.6067 128.847 91.4009 141.15 122.016C145.269 132.265 150.278 142.743 153.081 153.456C155.281 161.888 152.172 167.72 145.304 172.702C141.609 175.382 136.209 177.211 133 180.369C125.83 187.425 120.086 197.315 121.798 207.666C123.495 217.934 132.247 225.476 141.472 229.377C149.452 232.751 157.593 234.88 166.124 236.25Z" fill="url(#paint0_linear_2637_9158)"/>
<g style="mix-blend-mode:soft-light" opacity="0.8">
<g style="mix-blend-mode:soft-light">
<path d="M169.994 227.441C170.072 227.441 170.151 227.427 170.225 227.399C170.308 227.369 170.384 227.322 170.45 227.262C170.515 227.203 170.568 227.13 170.605 227.05C170.643 226.97 170.664 226.883 170.668 226.794C170.671 226.705 170.658 226.617 170.627 226.534C170.489 226.153 156.879 188.141 168.795 157.679C180.909 126.718 167.357 93.573 167.22 93.242C167.151 93.0766 167.019 92.9454 166.853 92.8772C166.688 92.809 166.502 92.8095 166.336 92.8785C166.171 92.9475 166.04 93.0793 165.971 93.2451C165.903 93.4108 165.904 93.5968 165.973 93.7622C166.109 94.0921 179.449 126.744 167.537 157.186C155.428 188.132 169.218 226.612 169.359 226.997C169.407 227.127 169.493 227.239 169.606 227.319C169.72 227.398 169.855 227.441 169.994 227.441Z" fill="white"/>
</g>
</g>
<path d="M159.195 179.155C161.925 174.863 164.996 170.799 168.38 167.001C179.481 154.484 187.274 141.195 192.261 125.163C196.188 112.534 196.104 98.0944 198.542 85.055C200.307 75.6065 203.506 66.4627 206.831 57.4652C213.91 38.3108 224.538 16.087 242.368 4.58403C250.626 -0.74236 262.87 -1.26807 271.976 2.54828C283.774 7.49083 294.206 17.1208 294.962 30.511C296.003 48.9251 279.919 69.5675 293.22 86.5002C313.589 112.428 304.068 141.233 276.063 155.332C266.935 159.926 256.245 164.185 248.621 171.242C240.973 178.319 245.531 190.394 246.382 199.36C247.179 207.772 248.058 217.545 242.696 224.738C233.652 236.873 211.811 242.161 197.614 243.36C183.877 244.52 168.267 243.003 158.646 232.004C144.15 215.431 148.882 195.478 159.195 179.155Z" fill="url(#paint1_linear_2637_9158)"/>
<g style="mix-blend-mode:soft-light" opacity="0.8">
<g style="mix-blend-mode:soft-light">
<path d="M181.553 231.943C181.69 231.942 181.824 231.9 181.937 231.821C182.05 231.743 182.136 231.632 182.184 231.503C182.629 230.324 227.05 113.098 252.396 65.8578C252.44 65.7795 252.469 65.6931 252.479 65.6037C252.49 65.5142 252.482 65.4236 252.457 65.3371C252.432 65.2506 252.39 65.17 252.334 65.1C252.277 65.03 252.207 64.972 252.128 64.9295C252.048 64.8869 251.961 64.8607 251.871 64.8523C251.782 64.8439 251.691 64.8535 251.606 64.8806C251.52 64.9076 251.44 64.9516 251.371 65.0099C251.303 65.0682 251.247 65.1396 251.206 65.2199C225.818 112.537 181.368 229.845 180.921 231.024C180.89 231.107 180.875 231.195 180.877 231.284C180.88 231.373 180.9 231.46 180.937 231.541C180.973 231.622 181.025 231.694 181.09 231.755C181.155 231.816 181.231 231.863 181.314 231.894C181.39 231.925 181.471 231.942 181.553 231.943Z" fill="white"/>
</g>
</g>
<path d="M200.752 248.524C197.795 248.105 194.849 247.62 191.914 247.149C183.712 245.829 173.547 243.278 170.973 234.127C170.238 231.52 171.503 226.868 171.808 224.158C172.118 221.399 172.511 218.64 173.153 215.937C174.039 212.198 175.463 208.687 177.305 205.325C180.494 199.496 184.15 195.115 190.942 193.796C195.899 192.833 201.391 192.609 206.428 192.774C233.891 193.675 237.268 183.77 252.349 162.611C267.431 141.451 366.703 175.666 306.825 213.259C306.825 213.259 297.821 219.112 264.956 215.285C258.945 214.585 251.342 214.12 246.245 218.008C237.257 224.865 246.295 239.398 237.219 245.101C231.927 248.426 223.422 249.403 217.342 249.636C211.793 249.85 206.258 249.303 200.752 248.524Z" fill="url(#paint2_linear_2637_9158)"/>
<g style="mix-blend-mode:soft-light" opacity="0.8">
<g style="mix-blend-mode:soft-light">
<path d="M182.421 237.195C182.528 237.196 182.634 237.171 182.73 237.122C182.825 237.074 182.908 237.004 182.971 236.917C183.144 236.678 200.528 213.043 225.194 207.464C234.841 205.282 243.18 200.399 251.244 195.676C264.843 187.714 277.687 180.191 296.643 184.057C296.813 184.079 296.984 184.037 297.123 183.938C297.263 183.838 297.359 183.69 297.393 183.523C297.428 183.356 297.397 183.181 297.308 183.036C297.219 182.89 297.078 182.783 296.914 182.737C277.447 178.768 263.781 186.774 250.562 194.515C242.586 199.186 234.339 204.015 224.896 206.152C199.727 211.845 182.053 235.885 181.878 236.128C181.804 236.229 181.76 236.349 181.751 236.473C181.741 236.598 181.766 236.722 181.823 236.833C181.88 236.944 181.967 237.037 182.073 237.102C182.18 237.167 182.303 237.201 182.428 237.2L182.421 237.195Z" fill="white"/>
</g>
</g>
<path d="M285.585 270.795C285.181 270.794 284.793 270.634 284.507 270.348C284.222 270.062 284.061 269.674 284.061 269.27V264.697C284.056 264.494 284.091 264.291 284.165 264.101C284.239 263.912 284.351 263.739 284.493 263.593C284.635 263.447 284.805 263.331 284.992 263.252C285.18 263.173 285.382 263.132 285.585 263.132C285.789 263.132 285.99 263.173 286.178 263.252C286.366 263.331 286.535 263.447 286.677 263.593C286.819 263.739 286.931 263.912 287.005 264.101C287.079 264.291 287.114 264.494 287.109 264.697V269.27C287.109 269.47 287.069 269.669 286.993 269.854C286.916 270.038 286.804 270.207 286.662 270.348C286.521 270.49 286.353 270.602 286.168 270.678C285.983 270.755 285.785 270.795 285.585 270.795ZM285.585 259.356C285.181 259.356 284.793 259.196 284.507 258.91C284.222 258.625 284.061 258.237 284.061 257.833V253.26C284.056 253.057 284.091 252.854 284.165 252.664C284.239 252.475 284.351 252.302 284.493 252.156C284.635 252.01 284.805 251.894 284.992 251.815C285.18 251.736 285.382 251.695 285.585 251.695C285.789 251.695 285.99 251.736 286.178 251.815C286.366 251.894 286.535 252.01 286.677 252.156C286.819 252.302 286.931 252.475 287.005 252.664C287.079 252.854 287.114 253.057 287.109 253.26V257.833C287.11 258.034 287.071 258.233 286.994 258.418C286.918 258.604 286.806 258.772 286.664 258.914C286.523 259.056 286.354 259.169 286.169 259.246C285.984 259.323 285.785 259.362 285.585 259.362V259.356ZM285.585 247.925C285.181 247.925 284.793 247.764 284.507 247.478C284.222 247.192 284.061 246.805 284.061 246.401V241.828C284.056 241.624 284.091 241.422 284.165 241.232C284.239 241.042 284.351 240.869 284.493 240.723C284.635 240.578 284.805 240.462 284.992 240.382C285.18 240.303 285.382 240.262 285.585 240.262C285.789 240.262 285.99 240.303 286.178 240.382C286.366 240.462 286.535 240.578 286.677 240.723C286.819 240.869 286.931 241.042 287.005 241.232C287.079 241.422 287.114 241.624 287.109 241.828V246.401C287.11 246.601 287.071 246.8 286.994 246.986C286.918 247.171 286.806 247.34 286.664 247.482C286.523 247.624 286.354 247.737 286.169 247.814C285.984 247.891 285.785 247.931 285.585 247.931V247.925ZM285.585 236.494C285.181 236.493 284.793 236.333 284.507 236.047C284.222 235.761 284.061 235.373 284.061 234.969V230.396C284.056 230.193 284.091 229.99 284.165 229.8C284.239 229.611 284.351 229.438 284.493 229.292C284.635 229.146 284.805 229.03 284.992 228.951C285.18 228.872 285.382 228.831 285.585 228.831C285.789 228.831 285.99 228.872 286.178 228.951C286.366 229.03 286.535 229.146 286.677 229.292C286.819 229.438 286.931 229.611 287.005 229.8C287.079 229.99 287.114 230.193 287.109 230.396V234.969C287.11 235.17 287.071 235.369 286.994 235.554C286.918 235.74 286.806 235.909 286.664 236.051C286.523 236.193 286.354 236.306 286.169 236.383C285.984 236.459 285.785 236.499 285.585 236.499V236.494ZM285.585 225.061C285.384 225.061 285.186 225.022 285.001 224.945C284.817 224.868 284.649 224.756 284.507 224.615C284.366 224.473 284.253 224.305 284.177 224.12C284.101 223.935 284.061 223.737 284.061 223.537V218.965C284.056 218.761 284.091 218.559 284.165 218.369C284.239 218.179 284.351 218.006 284.493 217.861C284.635 217.715 284.805 217.599 284.992 217.52C285.18 217.44 285.382 217.4 285.585 217.4C285.789 217.4 285.99 217.44 286.178 217.52C286.366 217.599 286.535 217.715 286.677 217.861C286.819 218.006 286.931 218.179 287.005 218.369C287.079 218.559 287.114 218.761 287.109 218.965V223.537C287.11 223.737 287.071 223.936 286.995 224.122C286.919 224.308 286.806 224.476 286.665 224.618C286.523 224.761 286.355 224.873 286.169 224.95C285.984 225.027 285.785 225.067 285.585 225.067V225.061ZM285.585 213.63C285.181 213.629 284.793 213.469 284.507 213.183C284.222 212.897 284.061 212.509 284.061 212.105V207.532C284.056 207.329 284.091 207.126 284.165 206.936C284.239 206.747 284.351 206.574 284.493 206.428C284.635 206.282 284.805 206.166 284.992 206.087C285.18 206.008 285.382 205.967 285.585 205.967C285.789 205.967 285.99 206.008 286.178 206.087C286.366 206.166 286.535 206.282 286.677 206.428C286.819 206.574 286.931 206.747 287.005 206.936C287.079 207.126 287.114 207.329 287.109 207.532V212.114C287.108 212.518 286.947 212.905 286.661 213.19C286.376 213.475 285.988 213.635 285.585 213.635V213.63ZM285.585 202.197C285.181 202.197 284.793 202.037 284.507 201.751C284.222 201.465 284.061 201.078 284.061 200.674V196.101C284.056 195.897 284.091 195.695 284.165 195.505C284.239 195.315 284.351 195.142 284.493 194.997C284.635 194.851 284.805 194.735 284.992 194.656C285.18 194.576 285.382 194.536 285.585 194.536C285.789 194.536 285.99 194.576 286.178 194.656C286.366 194.735 286.535 194.851 286.677 194.997C286.819 195.142 286.931 195.315 287.005 195.505C287.079 195.695 287.114 195.897 287.109 196.101V200.676C287.109 200.876 287.07 201.075 286.994 201.26C286.917 201.445 286.805 201.614 286.664 201.756C286.522 201.897 286.354 202.01 286.169 202.087C285.983 202.163 285.785 202.203 285.585 202.203V202.197ZM285.585 190.766C285.181 190.765 284.793 190.605 284.507 190.319C284.222 190.033 284.061 189.645 284.061 189.241V184.674C284.056 184.47 284.091 184.268 284.165 184.078C284.239 183.888 284.351 183.715 284.493 183.57C284.635 183.424 284.805 183.308 284.992 183.228C285.18 183.149 285.382 183.108 285.585 183.108C285.789 183.108 285.99 183.149 286.178 183.228C286.366 183.308 286.535 183.424 286.677 183.57C286.819 183.715 286.931 183.888 287.005 184.078C287.079 184.268 287.114 184.47 287.109 184.674V189.247C287.109 189.447 287.069 189.645 286.993 189.83C286.916 190.015 286.804 190.183 286.662 190.325C286.521 190.466 286.353 190.579 286.168 190.655C285.983 190.732 285.785 190.771 285.585 190.771V190.766ZM285.585 179.334C285.181 179.334 284.793 179.173 284.507 178.887C284.222 178.602 284.061 178.214 284.061 177.81V173.237C284.056 173.033 284.091 172.831 284.165 172.641C284.239 172.451 284.351 172.279 284.493 172.133C284.635 171.987 284.805 171.871 284.992 171.792C285.18 171.712 285.382 171.672 285.585 171.672C285.789 171.672 285.99 171.712 286.178 171.792C286.366 171.871 286.535 171.987 286.677 172.133C286.819 172.279 286.931 172.451 287.005 172.641C287.079 172.831 287.114 173.033 287.109 173.237V177.81C287.11 178.01 287.071 178.209 286.994 178.395C286.918 178.58 286.806 178.749 286.664 178.891C286.523 179.033 286.354 179.146 286.169 179.223C285.984 179.3 285.785 179.34 285.585 179.34V179.334ZM285.585 167.896C285.384 167.896 285.186 167.857 285.001 167.78C284.817 167.703 284.649 167.591 284.507 167.45C284.366 167.308 284.253 167.14 284.177 166.955C284.101 166.77 284.061 166.572 284.061 166.372V161.8C284.056 161.596 284.091 161.394 284.165 161.204C284.239 161.014 284.351 160.842 284.493 160.696C284.635 160.55 284.805 160.434 284.992 160.355C285.18 160.275 285.382 160.235 285.585 160.235C285.789 160.235 285.99 160.275 286.178 160.355C286.366 160.434 286.535 160.55 286.677 160.696C286.819 160.842 286.931 161.014 287.005 161.204C287.079 161.394 287.114 161.596 287.109 161.8V166.372C287.111 166.573 287.072 166.772 286.996 166.959C286.92 167.145 286.808 167.314 286.667 167.457C286.525 167.6 286.356 167.713 286.171 167.79C285.985 167.868 285.786 167.907 285.585 167.907V167.896Z" fill="url(#paint3_linear_2637_9158)"/>
<path d="M279.236 298.272L27.0496 296.073V302.571C27.0496 304.331 28.1494 305.834 29.6396 306.102L100.95 318.906C101.794 319.058 102.654 319.098 103.508 319.026L276.496 304.432C278.035 304.301 279.236 302.797 279.236 300.984V298.272Z" fill="url(#paint4_linear_2637_9158)"/>
<path d="M198.054 287.737L29.8256 299.626C26.8143 299.838 24.3672 297.578 24.3672 294.577V174.312C24.371 172.868 24.948 171.484 25.9715 170.465C26.995 169.446 28.3812 168.875 29.8256 168.877H198.054C200.534 168.877 202.54 171.077 202.54 173.791V282.508C202.54 285.221 200.539 287.561 198.054 287.737Z" fill="url(#paint5_linear_2637_9158)"/>
<path d="M200.736 287.737L32.5079 299.626C29.4966 299.838 27.0496 297.578 27.0496 294.577V174.312C27.0533 172.868 27.6304 171.484 28.6539 170.465C29.6773 169.446 31.0636 168.875 32.5079 168.877H200.736C203.217 168.877 205.222 171.077 205.222 173.791V282.508C205.222 285.221 203.217 287.561 200.736 287.737Z" fill="url(#paint6_linear_2637_9158)"/>
<path d="M195.496 280.073L38.8076 290.4C36.3583 290.561 34.3677 288.706 34.3677 286.255V180.964C34.3697 179.786 34.8376 178.656 35.6693 177.821C36.5011 176.986 37.6292 176.514 38.8076 176.508L195.496 175.86C197.541 175.851 199.196 177.654 199.196 179.886V275.79C199.196 278.019 197.541 279.938 195.496 280.073Z" fill="url(#paint7_linear_2637_9158)"/>
<path d="M196.539 287.198L27.0496 299.712L100.95 312.973C101.794 313.126 102.654 313.166 103.508 313.094L279.236 298.272L199.235 287.283C198.342 287.161 197.438 287.132 196.539 287.198Z" fill="url(#paint8_linear_2637_9158)"/>
<path d="M129.845 259.353C144.835 259.353 156.987 247.046 156.987 231.864C156.987 216.683 144.835 204.376 129.845 204.376C114.854 204.376 102.702 216.683 102.702 231.864C102.702 247.046 114.854 259.353 129.845 259.353Z" fill="white"/>
<path d="M128.889 246.677C128.307 246.675 127.735 246.523 127.23 246.233C126.725 245.944 126.305 245.528 126.009 245.027L115.798 227.813C115.338 227.039 115.201 226.116 115.416 225.242C115.631 224.368 116.182 223.614 116.948 223.143C117.326 222.913 117.746 222.761 118.184 222.695C118.621 222.63 119.068 222.652 119.497 222.76C119.926 222.868 120.329 223.061 120.682 223.327C121.036 223.592 121.334 223.926 121.557 224.308L128.646 236.257L138.016 217.617C138.213 217.221 138.486 216.867 138.821 216.577C139.155 216.287 139.544 216.066 139.964 215.928C140.385 215.789 140.828 215.735 141.27 215.77C141.711 215.804 142.141 215.926 142.535 216.128C143.332 216.545 143.933 217.259 144.208 218.115C144.483 218.972 144.41 219.902 144.005 220.705L131.884 244.818C131.615 245.357 131.206 245.814 130.699 246.14C130.193 246.467 129.608 246.652 129.006 246.674C128.967 246.677 128.928 246.677 128.889 246.677Z" fill="url(#paint9_linear_2637_9158)"/>
<path style="mix-blend-mode:multiply" opacity="0.3" d="M51.781 300.026L192.886 289.453L236.557 295.404L96.6665 306.706L51.781 300.026Z" fill="url(#paint10_linear_2637_9158)"/>
<g style="mix-blend-mode:soft-light" opacity="0.48">
<path d="M160.205 254.753C147.236 247.775 137.038 256.617 127.197 247.893C121.231 242.604 124.16 238.655 116.818 230.756C108.686 222.002 103.393 224.945 95.2214 217.063C84.8887 207.101 90.0523 199.35 81.1559 192.197C70.358 183.52 58.7198 191.552 48.4354 183.23C44.0021 179.641 41.5704 174.423 40.2968 168.874H30.2434C29.3976 168.874 28.5863 169.21 27.9882 169.808C27.39 170.406 27.054 171.217 27.054 172.063V296.727C27.0483 297.137 27.1287 297.544 27.29 297.921C27.4513 298.299 27.6899 298.638 27.9905 298.917C28.2911 299.196 28.6469 299.41 29.0349 299.543C29.423 299.676 29.8347 299.727 30.2434 299.691L201.696 287.52C202.538 287.461 203.283 286.97 203.763 286.258C191.212 285.8 183.501 281.592 178.577 277.239C168.93 268.739 170.603 260.347 160.205 254.753Z" fill="white"/>
</g>
<path d="M265.255 241.34V335.235C265.255 336.639 263.715 337.05 261.976 337.22L201.695 343.96L200.774 344.051C198.882 344.234 197.331 343.184 197.331 341.717V243.602C197.331 242.134 198.882 240.885 200.774 240.825L202.024 240.785L262.514 240.984C264.26 240.929 265.255 239.939 265.255 241.34Z" fill="url(#paint11_linear_2637_9158)"/>
<path d="M267.114 241.234V335.103C267.114 336.506 265.692 337.793 263.95 337.962L202.669 343.914C200.778 344.098 199.227 343.049 199.227 341.582V243.493C199.227 242.026 200.778 240.776 202.669 240.717L263.95 238.781C265.692 238.73 267.114 239.829 267.114 241.234Z" fill="url(#paint12_linear_2637_9158)"/>
<path d="M265.15 246.509V333.492C265.15 334.802 263.819 336.002 262.192 336.159L204.568 341.681C202.808 341.849 201.368 340.869 201.368 339.503V248.848C201.368 247.481 202.81 246.313 204.568 246.251L262.192 244.229C263.819 244.171 265.15 245.198 265.15 246.509Z" fill="url(#paint13_linear_2637_9158)"/>
<path d="M255.97 284.702C255.97 296.452 246.5 306.611 234.784 307.394C223.027 308.18 213.468 299.234 213.468 287.41C213.468 275.586 223.027 265.422 234.784 264.709C246.499 264.001 255.97 272.952 255.97 284.702Z" fill="white"/>
<path d="M234.034 297.603C233.59 297.639 233.144 297.552 232.746 297.352C232.348 297.152 232.012 296.847 231.774 296.47L223.763 283.602C223.013 282.392 223.417 280.742 224.666 279.914C225.915 279.086 227.534 279.386 228.284 280.592L233.841 289.521L241.171 274.591C241.831 273.251 243.409 272.637 244.7 273.217C245.991 273.798 246.505 275.355 245.847 276.694L236.375 296.003C236.164 296.436 235.846 296.809 235.453 297.087C235.059 297.365 234.601 297.539 234.122 297.592L234.034 297.603Z" fill="url(#paint14_linear_2637_9158)"/>
<g style="mix-blend-mode:soft-light" opacity="0.48">
<g style="mix-blend-mode:soft-light">
<path d="M247.305 295.25C241.729 284.061 228.699 286.732 223.804 274.53C220.884 267.251 224.519 263.798 222.33 254.919C220.849 248.909 217.614 244.121 213.95 240.36L202.669 240.717C200.778 240.777 199.228 242.025 199.228 243.493V341.581C199.228 343.049 200.778 344.098 202.669 343.914L251.984 339.125C248.333 334.05 246.77 329.277 246.206 325.136C244.458 312.292 252.256 305.187 247.305 295.25Z" fill="white"/>
</g>
</g>
<path d="M298.634 280.606V345.404C298.634 346.373 297.806 346.642 296.866 346.741L264.518 350.745L264.025 350.797C263.793 350.827 263.557 350.808 263.334 350.739C263.11 350.67 262.904 350.554 262.73 350.398C262.555 350.243 262.416 350.051 262.323 349.837C262.229 349.623 262.182 349.391 262.186 349.157V281.752C262.191 281.261 262.385 280.791 262.728 280.44C263.07 280.089 263.535 279.883 264.025 279.865L264.692 279.845L297.159 280.343C298.093 280.315 298.634 279.642 298.634 280.606Z" fill="url(#paint15_linear_2637_9158)"/>
<path d="M299.632 280.543V345.332C299.632 346.301 298.862 347.174 297.926 347.273L265.033 350.725C264.802 350.755 264.566 350.735 264.343 350.666C264.12 350.597 263.914 350.481 263.739 350.325C263.565 350.169 263.426 349.978 263.332 349.764C263.238 349.55 263.192 349.318 263.196 349.085V281.688C263.201 281.198 263.395 280.729 263.737 280.377C264.079 280.026 264.543 279.82 265.033 279.802L297.926 278.832C298.152 278.828 298.376 278.87 298.585 278.955C298.794 279.04 298.984 279.166 299.143 279.325C299.302 279.485 299.428 279.675 299.512 279.884C299.596 280.094 299.637 280.318 299.632 280.543Z" fill="url(#paint16_linear_2637_9158)"/>
<path d="M298.577 284.171V344.201C298.577 345.106 297.861 345.92 296.983 346.012L266.053 349.21C265.837 349.238 265.618 349.219 265.41 349.154C265.202 349.09 265.01 348.981 264.848 348.836C264.685 348.691 264.556 348.513 264.469 348.313C264.382 348.114 264.338 347.898 264.342 347.68V285.383C264.348 284.927 264.529 284.49 264.847 284.163C265.165 283.835 265.597 283.642 266.053 283.624L296.983 282.584C297.193 282.58 297.402 282.618 297.597 282.696C297.792 282.774 297.969 282.89 298.118 283.038C298.267 283.187 298.384 283.363 298.463 283.558C298.542 283.753 298.58 283.961 298.577 284.171Z" fill="url(#paint17_linear_2637_9158)"/>
<path d="M294.928 310.849C294.928 317.846 289.319 323.903 282.391 324.376C275.462 324.849 269.803 319.548 269.803 312.525C269.803 305.501 275.445 299.437 282.391 298.991C289.336 298.546 294.928 303.852 294.928 310.849Z" fill="white"/>
<path d="M281.945 318.556C281.683 318.577 281.419 318.525 281.184 318.407C280.949 318.288 280.751 318.108 280.611 317.884L275.882 310.249C275.442 309.534 275.678 308.552 276.415 308.056C277.152 307.56 278.11 307.737 278.552 308.452L281.836 313.752L286.171 304.859C286.56 304.06 287.49 303.692 288.26 304.035C289.03 304.378 289.328 305.303 288.939 306.101L283.33 317.603C283.206 317.861 283.019 318.083 282.786 318.249C282.553 318.415 282.282 318.519 281.998 318.552L281.945 318.556Z" fill="url(#paint18_linear_2637_9158)"/>
<g style="mix-blend-mode:soft-light" opacity="0.48">
<g style="mix-blend-mode:soft-light">
<path d="M288.942 319.346C285.941 311.8 277.851 313.583 275.33 305.955C273.272 299.73 277.848 296.082 276.057 288.875C275.052 284.83 272.579 281.826 270.051 279.652L265.037 279.801C264.547 279.819 264.082 280.025 263.74 280.376C263.398 280.727 263.204 281.197 263.199 281.687V349.083C263.195 349.317 263.242 349.549 263.336 349.763C263.43 349.977 263.568 350.168 263.743 350.324C263.917 350.479 264.123 350.595 264.346 350.664C264.569 350.733 264.805 350.753 265.037 350.723L290.255 348.077C288.231 344.888 287.418 341.971 287.131 339.55C286.085 330.741 291.693 326.26 288.942 319.346Z" fill="white"/>
</g>
</g>
<path d="M238.219 235.449C237.815 235.448 237.427 235.288 237.141 235.002C236.856 234.716 236.695 234.329 236.695 233.924V229.351C236.695 228.947 236.855 228.559 237.141 228.274C237.427 227.988 237.815 227.827 238.219 227.827C238.623 227.827 239.011 227.988 239.297 228.274C239.583 228.559 239.743 228.947 239.743 229.351V233.924C239.743 234.329 239.583 234.716 239.297 235.002C239.011 235.288 238.623 235.449 238.219 235.449ZM238.219 224.011C237.815 224.011 237.427 223.85 237.141 223.564C236.855 223.278 236.695 222.891 236.695 222.486V217.914C236.695 217.51 236.855 217.122 237.141 216.837C237.427 216.551 237.815 216.39 238.219 216.39C238.623 216.39 239.011 216.551 239.297 216.837C239.583 217.122 239.743 217.51 239.743 217.914V222.486C239.744 222.687 239.705 222.886 239.629 223.072C239.553 223.257 239.441 223.426 239.299 223.568C239.157 223.71 238.989 223.823 238.804 223.9C238.618 223.977 238.42 224.016 238.219 224.016V224.011ZM238.219 212.579C237.815 212.579 237.427 212.418 237.141 212.133C236.856 211.847 236.695 211.459 236.695 211.055V206.482C236.695 206.282 236.734 206.084 236.811 205.899C236.887 205.714 237 205.546 237.141 205.404C237.283 205.263 237.451 205.15 237.636 205.074C237.821 204.997 238.019 204.958 238.219 204.958C238.419 204.958 238.617 204.997 238.802 205.074C238.987 205.15 239.155 205.263 239.297 205.404C239.438 205.546 239.551 205.714 239.627 205.899C239.704 206.084 239.743 206.282 239.743 206.482V211.055C239.744 211.256 239.705 211.454 239.629 211.64C239.553 211.826 239.44 211.994 239.299 212.136C239.157 212.279 238.989 212.391 238.804 212.468C238.618 212.545 238.42 212.585 238.219 212.585V212.579ZM238.219 201.141C237.815 201.141 237.427 200.981 237.141 200.695C236.855 200.409 236.695 200.021 236.695 199.617V195.056C236.695 194.652 236.855 194.264 237.141 193.978C237.427 193.692 237.815 193.532 238.219 193.532C238.623 193.532 239.011 193.692 239.297 193.978C239.583 194.264 239.743 194.652 239.743 195.056V199.628C239.743 199.828 239.704 200.026 239.628 200.211C239.551 200.396 239.439 200.565 239.297 200.706C239.156 200.848 238.987 200.96 238.802 201.037C238.617 201.113 238.419 201.152 238.219 201.152V201.141ZM238.219 189.71C237.815 189.71 237.427 189.549 237.141 189.263C236.856 188.977 236.695 188.59 236.695 188.185V183.629C236.695 183.429 236.734 183.231 236.811 183.046C236.887 182.861 237 182.693 237.141 182.551C237.283 182.41 237.451 182.297 237.636 182.221C237.821 182.144 238.019 182.105 238.219 182.105C238.419 182.105 238.617 182.144 238.802 182.221C238.987 182.297 239.155 182.41 239.297 182.551C239.438 182.693 239.551 182.861 239.627 183.046C239.704 183.231 239.743 183.429 239.743 183.629V188.202C239.742 188.605 239.581 188.992 239.295 189.276C239.009 189.561 238.622 189.721 238.219 189.721V189.71ZM238.219 178.278C237.815 178.278 237.427 178.117 237.141 177.832C236.856 177.546 236.695 177.158 236.695 176.754V172.191C236.695 171.991 236.734 171.793 236.811 171.608C236.887 171.423 237 171.255 237.141 171.113C237.283 170.972 237.451 170.859 237.636 170.783C237.821 170.706 238.019 170.667 238.219 170.667C238.419 170.667 238.617 170.706 238.802 170.783C238.987 170.859 239.155 170.972 239.297 171.113C239.438 171.255 239.551 171.423 239.627 171.608C239.704 171.793 239.743 171.991 239.743 172.191V176.764C239.743 176.964 239.704 177.163 239.628 177.348C239.551 177.533 239.439 177.701 239.297 177.843C239.156 177.984 238.988 178.097 238.803 178.173C238.617 178.25 238.419 178.289 238.219 178.289V178.278ZM238.219 166.84C237.815 166.84 237.427 166.68 237.141 166.394C236.855 166.108 236.695 165.72 236.695 165.316V163.792C236.695 163.591 236.734 163.393 236.811 163.208C236.887 163.023 237 162.855 237.141 162.714C237.283 162.572 237.451 162.46 237.636 162.383C237.821 162.307 238.019 162.267 238.219 162.267C238.419 162.267 238.617 162.307 238.802 162.383C238.987 162.46 239.155 162.572 239.297 162.714C239.438 162.855 239.551 163.023 239.627 163.208C239.704 163.393 239.743 163.591 239.743 163.792V165.316C239.746 165.518 239.708 165.718 239.632 165.905C239.557 166.092 239.445 166.262 239.303 166.405C239.161 166.548 238.992 166.662 238.806 166.74C238.62 166.817 238.421 166.857 238.219 166.857V166.84Z" fill="url(#paint19_linear_2637_9158)"/>
<path d="M57.7939 156.058C57.3897 156.058 57.0021 155.897 56.7163 155.611C56.4305 155.325 56.2698 154.938 56.2695 154.533V152.247C56.2695 151.843 56.4301 151.455 56.716 151.169C57.0019 150.883 57.3896 150.723 57.7939 150.723C58.1982 150.723 58.5859 150.883 58.8717 151.169C59.1576 151.455 59.3182 151.843 59.3182 152.247V154.533C59.3179 154.938 59.1572 155.325 58.8714 155.611C58.5856 155.897 58.1981 156.058 57.7939 156.058Z" fill="url(#paint20_linear_2637_9158)"/>
<path d="M57.7939 146.913C57.3897 146.913 57.0021 146.752 56.7163 146.466C56.4305 146.18 56.2698 145.793 56.2695 145.389V140.816C56.2695 140.411 56.4301 140.024 56.716 139.738C57.0019 139.452 57.3896 139.291 57.7939 139.291C58.1982 139.291 58.5859 139.452 58.8717 139.738C59.1576 140.024 59.3182 140.411 59.3182 140.816V145.389C59.3179 145.793 59.1572 146.18 58.8714 146.466C58.5856 146.752 58.1981 146.913 57.7939 146.913ZM57.7939 135.475C57.3896 135.475 57.0019 135.314 56.716 135.028C56.4301 134.743 56.2695 134.355 56.2695 133.951V129.377C56.2695 128.973 56.4301 128.585 56.716 128.3C57.0019 128.014 57.3896 127.853 57.7939 127.853C58.1982 127.853 58.5859 128.014 58.8717 128.3C59.1576 128.585 59.3182 128.973 59.3182 129.377V133.951C59.3189 134.151 59.28 134.35 59.2038 134.536C59.1275 134.721 59.0153 134.89 58.8737 135.032C58.7321 135.174 58.5638 135.287 58.3785 135.364C58.1932 135.441 57.9945 135.48 57.7939 135.48V135.475ZM57.7939 124.043C57.3897 124.043 57.0021 123.882 56.7163 123.597C56.4305 123.311 56.2698 122.923 56.2695 122.519V117.946C56.2695 117.542 56.4301 117.154 56.716 116.868C57.0019 116.582 57.3896 116.422 57.7939 116.422C58.1982 116.422 58.5859 116.582 58.8717 116.868C59.1576 117.154 59.3182 117.542 59.3182 117.946V122.519C59.3188 122.72 59.2798 122.918 59.2035 123.104C59.1271 123.289 59.015 123.458 58.8734 123.6C58.7318 123.742 58.5635 123.855 58.3783 123.932C58.1931 124.009 57.9945 124.049 57.7939 124.049V124.043ZM57.7939 112.611C57.3896 112.611 57.0019 112.45 56.716 112.164C56.4301 111.879 56.2695 111.491 56.2695 111.087V106.52C56.2695 106.116 56.4301 105.728 56.716 105.442C57.0019 105.156 57.3896 104.996 57.7939 104.996C58.1982 104.996 58.5859 105.156 58.8717 105.442C59.1576 105.728 59.3182 106.116 59.3182 106.52V111.092C59.3182 111.496 59.1576 111.884 58.8717 112.17C58.5859 112.456 58.1982 112.616 57.7939 112.616V112.611ZM57.7939 101.179C57.3897 101.179 57.0021 101.018 56.7163 100.733C56.4305 100.447 56.2698 100.059 56.2695 99.6551V95.0876C56.2695 94.6833 56.4301 94.2956 56.716 94.0097C57.0019 93.7238 57.3896 93.5632 57.7939 93.5632C58.1982 93.5632 58.5859 93.7238 58.8717 94.0097C59.1576 94.2956 59.3182 94.6833 59.3182 95.0876V99.6606C59.3179 100.065 59.1572 100.452 58.8714 100.738C58.5856 101.024 58.1981 101.185 57.7939 101.185V101.179Z" fill="url(#paint21_linear_2637_9158)"/>
<path d="M57.7939 88.6052C57.3896 88.6052 57.0019 88.4446 56.716 88.1587C56.4301 87.8729 56.2695 87.4851 56.2695 87.0809V84.7988C56.2698 84.3946 56.4305 84.007 56.7163 83.7212C57.0021 83.4354 57.3897 83.2747 57.7939 83.2744H60.0804C60.4847 83.2744 60.8724 83.435 61.1582 83.7209C61.4441 84.0067 61.6047 84.3945 61.6047 84.7988C61.6047 85.203 61.4441 85.5907 61.1582 85.8766C60.8724 86.1625 60.4847 86.3231 60.0804 86.3231H59.3237V87.0853C59.3231 87.2855 59.2831 87.4837 59.2059 87.6685C59.1287 87.8533 59.0158 88.0211 58.8737 88.1622C58.7317 88.3034 58.5632 88.4152 58.3779 88.4912C58.1926 88.5672 57.9941 88.6059 57.7939 88.6052Z" fill="url(#paint22_linear_2637_9158)"/>
<path d="M126.384 86.3231H121.813C121.408 86.3231 121.021 86.1625 120.735 85.8766C120.449 85.5907 120.288 85.203 120.288 84.7988C120.288 84.3945 120.449 84.0067 120.735 83.7209C121.021 83.435 121.408 83.2744 121.813 83.2744H126.384C126.789 83.2744 127.176 83.435 127.462 83.7209C127.748 84.0067 127.909 84.3945 127.909 84.7988C127.909 85.203 127.748 85.5907 127.462 85.8766C127.176 86.1625 126.789 86.3231 126.384 86.3231ZM115.335 86.3231H110.762C110.357 86.3231 109.97 86.1625 109.684 85.8766C109.398 85.5907 109.237 85.203 109.237 84.7988C109.237 84.3945 109.398 84.0067 109.684 83.7209C109.97 83.435 110.357 83.2744 110.762 83.2744H115.335C115.739 83.2744 116.127 83.435 116.413 83.7209C116.698 84.0067 116.859 84.3945 116.859 84.7988C116.859 85.203 116.698 85.5907 116.413 85.8766C116.127 86.1625 115.739 86.3231 115.335 86.3231ZM104.284 86.3231H99.7108C99.3065 86.3231 98.9188 86.1625 98.6329 85.8766C98.347 85.5907 98.1864 85.203 98.1864 84.7988C98.1864 84.3945 98.347 84.0067 98.6329 83.7209C98.9188 83.435 99.3065 83.2744 99.7108 83.2744H104.284C104.688 83.2744 105.076 83.435 105.362 83.7209C105.648 84.0067 105.808 84.3945 105.808 84.7988C105.808 85.203 105.648 85.5907 105.362 85.8766C105.076 86.1625 104.688 86.3231 104.284 86.3231ZM93.2329 86.3231H88.6598C88.2556 86.3231 87.8678 86.1625 87.582 85.8766C87.2961 85.5907 87.1355 85.203 87.1355 84.7988C87.1355 84.3945 87.2961 84.0067 87.582 83.7209C87.8678 83.435 88.2556 83.2744 88.6598 83.2744H93.2329C93.6371 83.2744 94.0249 83.435 94.3107 83.7209C94.5966 84.0067 94.7572 84.3945 94.7572 84.7988C94.7572 85.203 94.5966 85.5907 94.3107 85.8766C94.0249 86.1625 93.6371 86.3231 93.2329 86.3231ZM82.182 86.3231H77.6089C77.2047 86.3231 76.8169 86.1625 76.5311 85.8766C76.2452 85.5907 76.0846 85.203 76.0846 84.7988C76.0846 84.3945 76.2452 84.0067 76.5311 83.7209C76.8169 83.435 77.2047 83.2744 77.6089 83.2744H82.182C82.5862 83.2744 82.974 83.435 83.2598 83.7209C83.5457 84.0067 83.7063 84.3945 83.7063 84.7988C83.7063 85.203 83.5457 85.5907 83.2598 85.8766C82.974 86.1625 82.5862 86.3231 82.182 86.3231ZM71.131 86.3231H66.558C66.1538 86.3231 65.766 86.1625 65.4802 85.8766C65.1943 85.5907 65.0337 85.203 65.0337 84.7988C65.0337 84.3945 65.1943 84.0067 65.4802 83.7209C65.766 83.435 66.1538 83.2744 66.558 83.2744H71.131C71.5353 83.2744 71.9231 83.435 72.2089 83.7209C72.4948 84.0067 72.6554 84.3945 72.6554 84.7988C72.6554 85.203 72.4948 85.5907 72.2089 85.8766C71.9231 86.1625 71.5353 86.3231 71.131 86.3231Z" fill="url(#paint23_linear_2637_9158)"/>
<path d="M135.15 86.3231H132.863C132.459 86.3231 132.071 86.1625 131.786 85.8766C131.5 85.5907 131.339 85.203 131.339 84.7988C131.339 84.3945 131.5 84.0067 131.786 83.7209C132.071 83.435 132.459 83.2744 132.863 83.2744H135.15C135.554 83.2744 135.942 83.435 136.228 83.7209C136.514 84.0067 136.674 84.3945 136.674 84.7988C136.674 85.203 136.514 85.5907 136.228 85.8766C135.942 86.1625 135.554 86.3231 135.15 86.3231Z" fill="url(#paint24_linear_2637_9158)"/>
<path d="M114.261 281.261C111.301 291.16 97.4761 342.521 96.7612 338.232C96.7612 338.232 92.2179 338.642 90.9564 328.883C90.8288 327.893 90.7365 326.806 90.6826 325.6C90.1129 312.468 90.9113 262.631 95.9221 269.922C100.933 277.214 100.431 281.966 101.275 273.904C102.118 265.841 103.235 257.986 107.723 261.963C107.979 262.191 108.236 262.423 108.493 262.659C112.756 266.571 117.052 271.934 114.261 281.261Z" fill="url(#paint25_linear_2637_9158)"/>
<path style="mix-blend-mode:multiply" opacity="0.3" d="M114.261 281.261C111.301 291.16 97.476 342.521 96.7611 338.232C96.7611 338.232 92.2178 338.642 90.9563 328.883C91.5062 322.299 96.7039 315.886 98.7276 313.027C101.766 308.738 103.197 308.022 101.231 299.693C99.2643 291.364 100.694 287.463 106.236 275.485C108.737 270.08 108.986 265.766 108.495 262.659C112.756 266.571 117.052 271.934 114.261 281.261Z" fill="url(#paint26_linear_2637_9158)"/>
<path d="M137.476 309.355C128.999 318.348 105.661 335.79 98.5593 337.422C96.9646 337.788 96.1881 337.357 96.5796 335.858C96.5796 335.858 103.451 265.8 123.135 263.769C125.774 263.497 129.464 263.659 131.814 265.018C132.205 265.243 132.575 265.501 132.922 265.788C138.201 270.17 134.885 279.709 132.561 284.83C131.698 286.737 130.324 288.301 129.331 290.131C128.487 291.686 128.203 293.753 130.438 293.569C132.49 293.398 133.827 290.988 135.672 290.316C137.762 289.556 139.412 290.58 140.771 293.149C143.63 298.559 141.55 305.035 137.476 309.355Z" fill="url(#paint27_linear_2637_9158)"/>
<path style="mix-blend-mode:multiply" opacity="0.3" d="M137.476 309.355C128.999 318.348 105.661 335.79 98.5593 337.422C99.4766 335.244 100.549 332.821 101.805 330.143C109.255 314.248 123.471 317.463 118.03 305.791C112.59 294.118 113.347 282.599 123.866 277.074C130.089 273.805 132.225 269.09 132.923 265.785C138.202 270.167 134.886 279.706 132.562 284.827C131.699 286.734 130.325 288.298 129.332 290.128C128.489 291.683 128.204 293.75 130.44 293.566C132.491 293.395 133.828 290.985 135.674 290.313C137.763 289.553 139.413 290.577 140.772 293.146C143.63 298.559 141.55 305.035 137.476 309.355Z" fill="url(#paint28_linear_2637_9158)"/>
<path d="M20.8862 332.796V338.833H20.895C21.2646 342.477 36.5058 349.171 58.6406 349.292C91.1873 349.474 102.179 342.206 102.69 338.485H102.702V332.922L20.8862 332.796Z" fill="url(#paint29_linear_2637_9158)"/>
<path d="M102.702 332.946C102.702 336.699 83.9232 339.662 61.1296 339.566C38.7429 339.472 20.8831 336.451 20.8831 332.819C20.8831 329.186 38.7429 326.22 61.1296 326.195C83.9232 326.171 102.702 329.192 102.702 332.946Z" fill="url(#paint30_linear_2637_9158)"/>
<path d="M102.386 332.488C102.386 336.214 83.7503 339.161 61.1272 339.073C38.9 338.987 21.1633 335.994 21.1633 332.386C21.1633 328.779 38.9 325.835 61.1272 325.801C83.7503 325.77 102.386 328.765 102.386 332.488Z" fill="url(#paint31_linear_2637_9158)"/>
<path d="M102.702 338.486V332.923L20.8862 332.796V338.833L102.702 338.486Z" fill="url(#paint32_linear_2637_9158)"/>
<path d="M102.702 332.946C102.702 336.699 83.9232 339.662 61.1296 339.566C38.7429 339.472 20.8831 336.451 20.8831 332.819C20.8831 329.186 38.7429 326.22 61.1296 326.195C83.9232 326.171 102.702 329.192 102.702 332.946Z" fill="url(#paint33_linear_2637_9158)"/>
<path d="M102.386 332.488C102.386 336.214 83.7503 339.161 61.1272 339.073C38.9 338.987 21.1633 335.994 21.1633 332.386C21.1633 328.779 38.9 325.835 61.1272 325.801C83.7503 325.77 102.386 328.765 102.386 332.488Z" fill="url(#paint34_linear_2637_9158)"/>
<path d="M20.8862 321.354V327.392H20.895C21.2646 331.036 36.5047 337.41 58.6406 337.297C93.7179 337.116 102.179 330.765 102.69 327.044H102.702V321.482L20.8862 321.354Z" fill="url(#paint35_linear_2637_9158)"/>
<path d="M102.702 321.503C102.702 325.256 83.9232 328.22 61.1296 328.123C38.7429 328.03 20.8831 325.01 20.8831 321.376C20.8831 317.742 38.7429 314.777 61.1296 314.754C83.9232 314.726 102.702 317.751 102.702 321.503Z" fill="url(#paint36_linear_2637_9158)"/>
<path d="M102.386 321.047C102.386 324.771 83.7503 327.718 61.1272 327.632C38.9 327.545 21.1633 324.552 21.1633 320.944C21.1633 317.335 38.9 314.388 61.1272 314.358C83.7503 314.327 102.386 317.322 102.386 321.047Z" fill="url(#paint37_linear_2637_9158)"/>
<path d="M102.702 327.044V321.482L20.8862 321.354V327.392L102.702 327.044Z" fill="url(#paint38_linear_2637_9158)"/>
<path d="M102.702 321.503C102.702 325.256 83.9232 328.22 61.1296 328.123C38.7429 328.03 20.8831 325.01 20.8831 321.376C20.8831 317.742 38.7429 314.777 61.1296 314.754C83.9232 314.726 102.702 317.751 102.702 321.503Z" fill="url(#paint39_linear_2637_9158)"/>
<path d="M102.386 321.047C102.386 324.771 83.7503 327.718 61.1272 327.632C38.9 327.545 21.1633 324.552 21.1633 320.944C21.1633 317.335 38.9 314.388 61.1272 314.358C83.7503 314.327 102.386 317.322 102.386 321.047Z" fill="url(#paint40_linear_2637_9158)"/>
<path d="M20.8862 309.887V315.924H20.895C21.2701 319.566 36.5047 325.944 58.6406 325.827C93.7179 325.646 102.179 319.295 102.69 315.573H102.702V310.01L20.8862 309.887Z" fill="url(#paint41_linear_2637_9158)"/>
<path d="M102.702 310.034C102.702 313.786 83.9232 316.749 61.1296 316.653C38.7429 316.56 20.8831 313.539 20.8831 309.906C20.8831 306.273 38.7429 303.307 61.1296 303.284C83.9232 303.259 102.702 306.281 102.702 310.034Z" fill="url(#paint42_linear_2637_9158)"/>
<path d="M102.386 309.577C102.386 313.301 83.7503 316.249 61.1272 316.161C38.9 316.075 21.1633 313.081 21.1633 309.474C21.1633 305.866 38.9 302.918 61.1272 302.888C83.7503 302.857 102.386 305.852 102.386 309.577Z" fill="url(#paint43_linear_2637_9158)"/>
<path d="M102.702 315.573V310.011L20.8862 309.884V315.921L102.702 315.573Z" fill="url(#paint44_linear_2637_9158)"/>
<path d="M102.702 310.034C102.702 313.786 83.9232 316.749 61.1296 316.653C38.7429 316.56 20.8831 313.539 20.8831 309.906C20.8831 306.273 38.7429 303.307 61.1296 303.284C83.9232 303.259 102.702 306.281 102.702 310.034Z" fill="url(#paint45_linear_2637_9158)"/>
<path d="M102.386 309.577C102.386 313.301 83.7503 316.249 61.1272 316.161C38.9 316.075 21.1633 313.081 21.1633 309.474C21.1633 305.866 38.9 302.918 61.1272 302.888C83.7503 302.857 102.386 305.852 102.386 309.577Z" fill="url(#paint46_linear_2637_9158)"/>
<path d="M20.8862 298.414V304.451H20.895C21.2646 308.095 36.5047 314.469 58.6406 314.355C93.7179 314.174 102.179 307.824 102.69 304.102H102.702V298.539L20.8862 298.414Z" fill="url(#paint47_linear_2637_9158)"/>
<path d="M102.702 298.559C102.702 302.312 83.9232 305.275 61.1296 305.179C38.7429 305.086 20.8831 302.064 20.8831 298.432C20.8831 294.799 38.7429 291.833 61.1296 291.809C83.9232 291.789 102.702 294.81 102.702 298.559Z" fill="url(#paint48_linear_2637_9158)"/>
<path d="M102.386 298.106C102.386 301.831 83.7504 304.779 61.1273 304.691C38.9001 304.608 21.1602 301.611 21.1602 298.009C21.1602 294.407 38.8968 291.453 61.124 291.424C83.7504 291.387 102.386 294.38 102.386 298.106Z" fill="url(#paint49_linear_2637_9158)"/>
<path d="M102.702 304.103V298.541L20.8862 298.414V304.451L102.702 304.103Z" fill="url(#paint50_linear_2637_9158)"/>
<path d="M102.702 298.559C102.702 302.312 83.9232 305.275 61.1296 305.179C38.7429 305.086 20.8831 302.064 20.8831 298.432C20.8831 294.799 38.7429 291.833 61.1296 291.809C83.9232 291.789 102.702 294.81 102.702 298.559Z" fill="url(#paint51_linear_2637_9158)"/>
<path d="M102.386 298.106C102.386 301.831 83.7504 304.779 61.1273 304.691C38.9001 304.608 21.1602 301.611 21.1602 298.009C21.1602 294.407 38.8968 291.453 61.124 291.424C83.7504 291.387 102.386 294.38 102.386 298.106Z" fill="url(#paint52_linear_2637_9158)"/>
<path d="M20.8862 286.944V292.981H20.895C21.2646 296.625 36.5047 303 58.6406 302.886C93.7179 302.706 102.179 296.355 102.69 292.633H102.702V287.071L20.8862 286.944Z" fill="url(#paint53_linear_2637_9158)"/>
<path d="M102.702 287.093C102.702 290.846 83.9232 293.809 61.1296 293.714C38.7429 293.619 20.8831 290.599 20.8831 286.966C20.8831 283.334 38.7429 280.367 61.1296 280.343C83.9232 280.319 102.702 283.34 102.702 287.093Z" fill="url(#paint54_linear_2637_9158)"/>
<path d="M102.386 286.636C102.386 290.361 83.7503 293.308 61.1272 293.221C38.9 293.135 21.1633 290.141 21.1633 286.534C21.1633 282.927 38.9 279.978 61.1272 279.947C83.7503 279.918 102.386 282.912 102.386 286.636Z" fill="url(#paint55_linear_2637_9158)"/>
<path d="M102.702 292.633V287.071L20.8862 286.944V292.981L102.702 292.633Z" fill="url(#paint56_linear_2637_9158)"/>
<path d="M102.702 287.093C102.702 290.846 83.9232 293.809 61.1296 293.714C38.7429 293.619 20.8831 290.599 20.8831 286.966C20.8831 283.334 38.7429 280.367 61.1296 280.343C83.9232 280.319 102.702 283.34 102.702 287.093Z" fill="url(#paint57_linear_2637_9158)"/>
<path d="M102.386 286.636C102.386 290.361 83.7503 293.308 61.1272 293.221C38.9 293.135 21.1633 290.141 21.1633 286.534C21.1633 282.927 38.9 279.978 61.1272 279.947C83.7503 279.918 102.386 282.912 102.386 286.636Z" fill="url(#paint58_linear_2637_9158)"/>
<path d="M20.8862 275.474V281.512H20.895C21.2646 285.156 36.5047 291.531 58.6406 291.417C93.7179 291.237 102.179 284.885 102.69 281.165H102.702V275.602L20.8862 275.474Z" fill="url(#paint59_linear_2637_9158)"/>
<path d="M102.702 275.623C102.702 279.375 83.9232 282.339 61.1296 282.244C38.7429 282.149 20.8831 279.129 20.8831 275.495C20.8831 271.861 38.7429 268.896 61.1296 268.873C83.9232 268.848 102.702 271.87 102.702 275.623Z" fill="url(#paint60_linear_2637_9158)"/>
<path d="M102.386 275.166C102.386 278.89 83.7503 281.838 61.1272 281.751C38.9 281.665 21.1633 278.671 21.1633 275.063C21.1633 271.454 38.9 268.507 61.1272 268.477C83.7503 268.448 102.386 271.441 102.386 275.166Z" fill="url(#paint61_linear_2637_9158)"/>
<path d="M102.702 281.163V275.601L20.8862 275.474V281.511L102.702 281.163Z" fill="url(#paint62_linear_2637_9158)"/>
<path d="M102.702 275.623C102.702 279.375 83.9232 282.339 61.1296 282.244C38.7429 282.149 20.8831 279.129 20.8831 275.495C20.8831 271.861 38.7429 268.896 61.1296 268.873C83.9232 268.848 102.702 271.87 102.702 275.623Z" fill="url(#paint63_linear_2637_9158)"/>
<path d="M102.386 275.166C102.386 278.89 83.7503 281.838 61.1272 281.751C38.9 281.665 21.1633 278.671 21.1633 275.063C21.1633 271.454 38.9 268.507 61.1272 268.477C83.7503 268.448 102.386 271.441 102.386 275.166Z" fill="url(#paint64_linear_2637_9158)"/>
<path d="M20.8862 264.003V270.041H20.895C21.2646 273.685 36.5047 280.059 58.6406 279.946C93.7179 279.766 102.179 273.414 102.69 269.694H102.702V264.135L20.8862 264.003Z" fill="url(#paint65_linear_2637_9158)"/>
<path d="M102.702 264.153C102.702 267.905 83.923 270.868 61.1294 270.773C38.7461 270.679 20.8862 267.655 20.8862 264.025C20.8862 260.396 38.7461 257.426 61.1327 257.403C83.923 257.378 102.702 260.396 102.702 264.153Z" fill="url(#paint66_linear_2637_9158)"/>
<path d="M102.386 263.695C102.386 267.419 83.7503 270.367 61.1272 270.279C38.9 270.193 21.1633 267.199 21.1633 263.592C21.1633 259.984 38.9 257.036 61.1272 257.006C83.7503 256.976 102.386 259.971 102.386 263.695Z" fill="url(#paint67_linear_2637_9158)"/>
<path d="M102.702 269.692V264.13L20.8862 264.003V270.041L102.702 269.692Z" fill="url(#paint68_linear_2637_9158)"/>
<path d="M102.702 264.153C102.702 267.905 83.923 270.868 61.1294 270.773C38.7461 270.679 20.8862 267.655 20.8862 264.025C20.8862 260.396 38.7461 257.426 61.1327 257.403C83.923 257.378 102.702 260.396 102.702 264.153Z" fill="url(#paint69_linear_2637_9158)"/>
<path d="M102.386 263.695C102.386 267.419 83.7503 270.367 61.1272 270.279C38.9 270.193 21.1633 267.199 21.1633 263.592C21.1633 259.984 38.9 257.036 61.1272 257.006C83.7503 256.976 102.386 259.971 102.386 263.695Z" fill="url(#paint70_linear_2637_9158)"/>
<path d="M65.5299 245.03L101.441 236.048L103.237 244.773L70.3614 259.946L44.331 253.515L28.6279 238.098L65.5299 245.03Z" fill="url(#paint71_linear_2637_9158)"/>
<path d="M65.5299 245.03L101.441 236.048L103.237 244.773L70.3614 259.946L44.331 253.515L28.6279 238.098L65.5299 245.03Z" fill="url(#paint72_linear_2637_9158)"/>
<path d="M64.4014 257.106C70.0687 254.085 75.4236 250.512 80.3882 246.438C87.427 240.642 90.6572 236.269 97.7839 234.541C99.0575 234.233 106.315 232.474 108.657 235.696C111.25 239.264 106.208 246.725 105.596 247.632C96.4906 261.108 73.3032 260.479 66.0324 260.043L64.4014 257.106Z" fill="url(#paint73_linear_2637_9158)"/>
<path style="mix-blend-mode:multiply" opacity="0.3" d="M108.657 235.695C107.973 234.754 106.864 234.246 105.611 233.994C106.028 235.437 106.067 236.79 105.545 237.973C104.123 241.205 99.9098 240.209 96.9502 244.002C94.0434 247.727 96.0561 251.318 93.4869 252.854C90.5416 254.614 86.888 250.501 83.736 252.469C81.5914 253.808 82.2589 256.346 79.7591 257.729C78.0324 258.684 76.3387 258.232 74.37 257.986C72.1143 257.702 69.0249 257.642 65.147 258.452L66.0268 260.043C73.2999 260.483 96.4916 261.108 105.593 247.631C106.208 246.724 111.25 239.263 108.657 235.695Z" fill="url(#paint74_linear_2637_9158)"/>
<path d="M69.7971 259.121C69.7971 259.121 71.1048 258.183 73.003 258.822C74.9013 259.461 77.9137 259.977 77.9093 260.905C77.9049 261.833 74.8892 262.413 72.8062 262.032C70.8133 261.667 69.2461 259.935 69.7971 259.121Z" fill="url(#paint75_linear_2637_9158)"/>
<path d="M67.8814 257.536L71.3733 258.66C71.3733 258.66 71.9408 259.605 71.1753 260.2C70.4098 260.795 67.7483 259.533 67.7483 259.533L67.8814 257.536Z" fill="url(#paint76_linear_2637_9158)"/>
<path d="M19.3346 241.436C18.304 247.441 31.262 253.936 34.2282 255.423C40.2772 258.454 51.6503 262.731 68.5346 261.096L69.2077 257.056C66.0048 255.958 62.8747 254.658 59.8362 253.163C53.2912 249.943 50.8057 247.644 41.7223 242.152C31.6723 236.076 28.7446 235.296 25.7498 236.048C23.1894 236.692 19.8141 238.646 19.3346 241.436Z" fill="url(#paint77_linear_2637_9158)"/>
<path d="M32.838 230.019C30.6472 222.1 34.2623 211.407 41.8818 206.253C48.1012 202.046 55.3874 202.319 57.6619 202.404C60.1507 202.497 59.8934 202.821 67.7284 204.273C78.6056 206.286 79.6064 205.798 82.7738 207.314C88.7238 210.166 91.6108 215.343 92.1508 216.355C94.9158 221.514 97.166 231.104 91.9155 235.795C88.9295 238.461 84.7447 238.45 82.39 238.2L81.9083 235.025C82.3878 234.654 85.2154 232.386 85.5652 228.386C85.9666 223.787 82.7519 220.82 82.39 220.497C78.787 227.438 77.9192 235.479 79.9583 243.03C75.6816 245.391 70.9825 246.888 66.1282 247.437C61.4606 247.954 55.68 248.594 51.9846 245.706C46.7704 241.63 46.3294 231.018 51.4798 219.97C49.5947 221.233 46.8606 223.517 45.7311 227.133C45.5595 227.683 45.2692 228.753 45.1537 232.906C44.9447 240.367 35.108 238.228 32.838 230.019Z" fill="white"/>
<path style="mix-blend-mode:multiply" opacity="0.2" d="M68.1496 235.503C65.5254 235.825 64.8117 238.549 62.3767 238.39C57.0778 238.042 52.8259 228.871 55.064 223.861C56.5224 220.595 60.3266 220.025 60.0671 217.895C59.8592 216.191 57.2197 214.88 55.064 214.815C51.7074 214.715 49.4913 217.638 48.7137 218.665C46.8957 221.062 46.5042 223.694 46.4624 225.387C47.7965 222.77 49.9213 221.013 51.4797 219.969C46.3293 231.014 46.7703 241.626 51.9846 245.705C55.6799 248.592 61.4605 247.953 66.1281 247.436C70.2982 246.968 74.3586 245.796 78.1359 243.968C75.3204 239.389 71.735 235.063 68.1496 235.503Z" fill="url(#paint78_linear_2637_9158)"/>
<path d="M77.2933 242.976L46.5898 242.517L54.7537 246.458L77.3725 244.978L77.2933 242.976Z" fill="url(#paint79_linear_2637_9158)"/>
<path d="M45.5056 243.333C45.5055 243.614 45.5918 243.888 45.7527 244.118C45.9137 244.347 46.1415 244.522 46.4053 244.618L56.2167 248.467L56.2618 245.801L46.59 242.52C46.4638 242.484 46.331 242.478 46.2019 242.502C46.0728 242.525 45.9509 242.579 45.8459 242.657C45.7408 242.736 45.6555 242.838 45.5964 242.955C45.5374 243.073 45.5063 243.202 45.5056 243.333Z" fill="url(#paint80_linear_2637_9158)"/>
<path d="M34.3215 224.74C36.6916 222.497 42.5041 223.909 44.6718 227.132C46.2688 229.504 44.9468 231.456 46.1148 234.445C47.5445 238.106 52.9446 241.416 56.2616 242.517C55.7425 243.636 55.8943 243.925 55.3752 245.047C53.2658 244.784 38.0125 242.447 34.2808 233.389C34.0861 232.914 31.7809 227.145 34.3215 224.74Z" fill="white"/>
<path d="M70.1754 200.275C70.1754 200.275 67.3907 203.285 65.08 203.598C62.7693 203.912 59.4302 203.298 58.855 203.598C58.2798 203.899 61.7574 205.138 64.5147 205.893C67.2719 206.647 72.2804 208.16 73.6651 207.829C75.0498 207.498 72.1518 205.723 71.0047 205.252C69.8576 204.782 71.4996 202.364 71.4996 202.364L70.1754 200.275Z" fill="url(#paint81_linear_2637_9158)"/>
<path d="M74.3051 201.996C75.3115 201.718 76.2309 200.588 76.2199 199.417C76.21 198.409 75.5028 197.722 75.0794 197.311C73.852 196.117 71.7195 195.371 70.1742 196.155C69.2581 196.62 68.8402 198.729 68.7445 199.096C68.6345 199.509 68.8006 199.803 68.8457 200.211C68.9073 200.777 68.9975 201.671 69.1283 203.151C69.4451 202.896 69.7833 202.669 70.1391 202.472C70.6012 202.217 71.0938 202.022 71.6051 201.891C72.97 201.579 73.3516 202.262 74.3051 201.996Z" fill="url(#paint82_linear_2637_9158)"/>
<path d="M68.5544 201.549C68.5544 201.549 68.3212 203.684 70.1722 204.927C71.8296 206.04 74.7914 202.679 74.3581 201.151C74.214 200.642 73.6212 200.02 72.9547 199.751C72.5621 199.592 72.3487 199.641 71.7108 199.371C71.1224 199.12 71.0267 198.959 70.7826 198.969C70.4768 198.982 70.0479 199.261 69.5596 200.533C69.4936 199.996 69.222 199.6 68.8733 199.525C68.7489 199.505 68.6214 199.519 68.5049 199.567C67.9726 199.802 67.944 200.602 68.5544 201.549Z" fill="url(#paint83_linear_2637_9158)"/>
<path d="M70.8715 198.703C70.9045 198.813 70.4525 198.923 70.1259 199.311C69.4913 200.066 69.5595 201.611 70.304 202.31C70.744 202.724 71.0959 202.538 71.9472 203.062C72.3626 203.317 72.734 203.639 73.047 204.013C72.6312 205.059 71.7514 205.735 70.8715 205.688C69.9279 205.64 69.3406 204.775 69.0953 204.413C68.9304 204.172 68.4036 203.398 68.5322 202.469C68.6675 201.499 69.3571 201.383 69.268 200.588C69.2229 200.188 69.0074 199.863 69.0668 199.199C69.0788 199.057 69.1023 198.915 69.1371 198.777C69.8729 198.659 70.8276 198.536 70.8715 198.703Z" fill="url(#paint84_linear_2637_9158)"/>
<path d="M72.2298 203.889C72.2298 203.889 71.7514 203.804 71.1883 203.317C71.1608 203.294 71.1223 203.277 71.108 203.289C71.0509 203.334 71.2356 203.877 71.658 204.047C71.9582 204.168 72.331 204.082 72.3431 203.996C72.3508 203.961 72.2925 203.921 72.2298 203.889Z" fill="url(#paint85_linear_2637_9158)"/>
<path d="M57.0756 227.088L54.9111 246.794C54.8363 247.474 55.791 248.487 56.4718 248.455L88.2222 246.505C88.4753 246.493 88.7169 246.396 88.9067 246.228C89.0965 246.06 89.2233 245.832 89.2659 245.582L93.2505 226.556C93.3704 225.863 92.1254 225.147 91.4227 225.167L58.1512 226.103C57.8833 226.11 57.627 226.214 57.4294 226.395C57.2318 226.576 57.1062 226.822 57.0756 227.088Z" fill="url(#paint86_linear_2637_9158)"/>
<path d="M57.8014 227.663L55.637 247.368C55.6195 247.528 55.6368 247.69 55.6877 247.842C55.7386 247.995 55.8218 248.134 55.9317 248.251C56.0416 248.369 56.1756 248.461 56.3244 248.521C56.4733 248.582 56.6334 248.61 56.794 248.602L88.9448 247.08C89.1981 247.068 89.4398 246.97 89.6298 246.802C89.8198 246.634 89.9467 246.406 89.9896 246.156L93.2747 227.037C93.3026 226.875 93.2941 226.708 93.2498 226.55C93.2055 226.391 93.1266 226.244 93.0186 226.12C92.9107 225.995 92.7764 225.896 92.6256 225.83C92.4747 225.764 92.311 225.732 92.1463 225.736L58.8748 226.672C58.6064 226.68 58.3498 226.785 58.1525 226.967C57.9552 227.149 57.8305 227.396 57.8014 227.663Z" fill="url(#paint87_linear_2637_9158)"/>
<path style="mix-blend-mode:multiply" opacity="0.3" d="M76.6809 242.462C73.8731 241.273 74.864 239.003 71.5492 236.177C67.1752 232.446 62.7177 234.064 61.157 231.173C60.672 230.273 60.44 228.872 61.2857 226.604L58.8771 226.672C58.6085 226.679 58.3515 226.784 58.1538 226.966C57.9561 227.147 57.8309 227.395 57.8015 227.662L55.6371 247.367C55.6195 247.527 55.6366 247.689 55.6874 247.841C55.7383 247.994 55.8215 248.134 55.9314 248.251C56.0413 248.368 56.1753 248.461 56.3243 248.521C56.4732 248.582 56.6335 248.61 56.7941 248.602L88.9449 247.08C89.1982 247.068 89.4399 246.97 89.6299 246.802C89.8199 246.634 89.9469 246.406 89.9897 246.156L90.4428 243.517C89.3504 242.902 88.1696 242.459 86.9421 242.205C82.2272 241.249 79.9121 243.833 76.6809 242.462Z" fill="url(#paint88_linear_2637_9158)"/>
<defs>
<linearGradient id="paint0_linear_2637_9158" x1="218.488" y1="146.229" x2="121.496" y2="146.229" gradientUnits="userSpaceOnUse">
<stop stop-color="#FF9085"/>
<stop offset="1" stop-color="#FB6FBB"/>
</linearGradient>
<linearGradient id="paint1_linear_2637_9158" x1="304.132" y1="121.879" x2="149.515" y2="121.879" gradientUnits="userSpaceOnUse">
<stop stop-color="#FFC444"/>
<stop offset="1" stop-color="#F36F56"/>
</linearGradient>
<linearGradient id="paint2_linear_2637_9158" x1="325.852" y1="202.903" x2="170.747" y2="202.903" gradientUnits="userSpaceOnUse">
<stop stop-color="#E38DDD"/>
<stop offset="1" stop-color="#9571F6"/>
</linearGradient>
<linearGradient id="paint3_linear_2637_9158" x1="285.516" y1="190.075" x2="286.66" y2="613.098" gradientUnits="userSpaceOnUse">
<stop stop-color="#AA80F9"/>
<stop offset="1" stop-color="#6165D7"/>
</linearGradient>
<linearGradient id="paint4_linear_2637_9158" x1="133.572" y1="307.966" x2="115.857" y2="315.406" gradientUnits="userSpaceOnUse">
<stop stop-color="#40447E"/>
<stop offset="1" stop-color="#3C3B6B"/>
</linearGradient>
<linearGradient id="paint5_linear_2637_9158" x1="109.917" y1="229.887" x2="90.6902" y2="237.963" gradientUnits="userSpaceOnUse">
<stop stop-color="#40447E"/>
<stop offset="1" stop-color="#3C3B6B"/>
</linearGradient>
<linearGradient id="paint6_linear_2637_9158" x1="27.0496" y1="234.259" x2="205.222" y2="234.259" gradientUnits="userSpaceOnUse">
<stop stop-color="#40447E"/>
<stop offset="1" stop-color="#3C3B6B"/>
</linearGradient>
<linearGradient id="paint7_linear_2637_9158" x1="176.065" y1="145.541" x2="31.264" y2="347.891" gradientUnits="userSpaceOnUse">
<stop stop-color="#FFC444"/>
<stop offset="1" stop-color="#F36F56"/>
</linearGradient>
<linearGradient id="paint8_linear_2637_9158" x1="27.0496" y1="300.146" x2="279.236" y2="300.146" gradientUnits="userSpaceOnUse">
<stop stop-color="#40447E"/>
<stop offset="1" stop-color="#3C3B6B"/>
</linearGradient>
<linearGradient id="paint9_linear_2637_9158" x1="115.317" y1="231.218" x2="144.371" y2="231.218" gradientUnits="userSpaceOnUse">
<stop stop-color="#FF9085"/>
<stop offset="1" stop-color="#FB6FBB"/>
</linearGradient>
<linearGradient id="paint10_linear_2637_9158" x1="51.781" y1="298.08" x2="236.556" y2="298.08" gradientUnits="userSpaceOnUse">
<stop stop-color="#40447E"/>
<stop offset="1" stop-color="#3C3B6B"/>
</linearGradient>
<linearGradient id="paint11_linear_2637_9158" x1="271.703" y1="326.223" x2="222.822" y2="284.523" gradientUnits="userSpaceOnUse">
<stop stop-color="#444B8C"/>
<stop offset="1" stop-color="#26264F"/>
</linearGradient>
<linearGradient id="paint12_linear_2637_9158" x1="231.319" y1="339.072" x2="237.778" y2="165.459" gradientUnits="userSpaceOnUse">
<stop stop-color="#444B8C"/>
<stop offset="1" stop-color="#26264F"/>
</linearGradient>
<linearGradient id="paint13_linear_2637_9158" x1="248.85" y1="270.219" x2="186.741" y2="353.728" gradientUnits="userSpaceOnUse">
<stop stop-color="#FFC444"/>
<stop offset="1" stop-color="#F36F56"/>
</linearGradient>
<linearGradient id="paint14_linear_2637_9158" x1="223.39" y1="285.305" x2="246.138" y2="285.305" gradientUnits="userSpaceOnUse">
<stop stop-color="#FF9085"/>
<stop offset="1" stop-color="#FB6FBB"/>
</linearGradient>
<linearGradient id="paint15_linear_2637_9158" x1="305.534" y1="336.516" x2="275.09" y2="310.546" gradientUnits="userSpaceOnUse">
<stop stop-color="#444B8C"/>
<stop offset="1" stop-color="#26264F"/>
</linearGradient>
<linearGradient id="paint16_linear_2637_9158" x1="280.161" y1="347.257" x2="284.557" y2="229.096" gradientUnits="userSpaceOnUse">
<stop stop-color="#444B8C"/>
<stop offset="1" stop-color="#26264F"/>
</linearGradient>
<linearGradient id="paint17_linear_2637_9158" x1="291.395" y1="301.444" x2="251.892" y2="354.557" gradientUnits="userSpaceOnUse">
<stop stop-color="#FFC444"/>
<stop offset="1" stop-color="#F36F56"/>
</linearGradient>
<linearGradient id="paint18_linear_2637_9158" x1="275.656" y1="311.233" x2="289.105" y2="311.233" gradientUnits="userSpaceOnUse">
<stop stop-color="#FF9085"/>
<stop offset="1" stop-color="#FB6FBB"/>
</linearGradient>
<linearGradient id="paint19_linear_2637_9158" x1="238.207" y1="194.501" x2="239.351" y2="617.522" gradientUnits="userSpaceOnUse">
<stop stop-color="#AA80F9"/>
<stop offset="1" stop-color="#6165D7"/>
</linearGradient>
<linearGradient id="paint20_linear_2637_9158" x1="57.839" y1="169.896" x2="58.9828" y2="592.917" gradientUnits="userSpaceOnUse">
<stop stop-color="#AA80F9"/>
<stop offset="1" stop-color="#6165D7"/>
</linearGradient>
<linearGradient id="paint21_linear_2637_9158" x1="57.928" y1="169.896" x2="59.0718" y2="592.917" gradientUnits="userSpaceOnUse">
<stop stop-color="#AA80F9"/>
<stop offset="1" stop-color="#6165D7"/>
</linearGradient>
<linearGradient id="paint22_linear_2637_9158" x1="59.1642" y1="169.891" x2="60.308" y2="592.914" gradientUnits="userSpaceOnUse">
<stop stop-color="#AA80F9"/>
<stop offset="1" stop-color="#6165D7"/>
</linearGradient>
<linearGradient id="paint23_linear_2637_9158" x1="96.7017" y1="169.791" x2="97.8455" y2="592.82" gradientUnits="userSpaceOnUse">
<stop stop-color="#AA80F9"/>
<stop offset="1" stop-color="#6165D7"/>
</linearGradient>
<linearGradient id="paint24_linear_2637_9158" x1="134.236" y1="169.689" x2="135.38" y2="592.711" gradientUnits="userSpaceOnUse">
<stop stop-color="#AA80F9"/>
<stop offset="1" stop-color="#6165D7"/>
</linearGradient>
<linearGradient id="paint25_linear_2637_9158" x1="90.5242" y1="299.689" x2="115.15" y2="299.689" gradientUnits="userSpaceOnUse">
<stop stop-color="#AA80F9"/>
<stop offset="1" stop-color="#6165D7"/>
</linearGradient>
<linearGradient id="paint26_linear_2637_9158" x1="90.9563" y1="300.57" x2="115.15" y2="300.57" gradientUnits="userSpaceOnUse">
<stop stop-color="#AA80F9"/>
<stop offset="1" stop-color="#6165D7"/>
</linearGradient>
<linearGradient id="paint27_linear_2637_9158" x1="100.627" y1="299.322" x2="141.551" y2="303.92" gradientUnits="userSpaceOnUse">
<stop stop-color="#E38DDD"/>
<stop offset="1" stop-color="#9571F6"/>
</linearGradient>
<linearGradient id="paint28_linear_2637_9158" x1="102.724" y1="300.137" x2="141.487" y2="304.492" gradientUnits="userSpaceOnUse">
<stop stop-color="#E38DDD"/>
<stop offset="1" stop-color="#9571F6"/>
</linearGradient>
<linearGradient id="paint29_linear_2637_9158" x1="36.8511" y1="316.79" x2="71.5139" y2="343.976" gradientUnits="userSpaceOnUse">
<stop stop-color="#FF9085"/>
<stop offset="1" stop-color="#FB6FBB"/>
</linearGradient>
<linearGradient id="paint30_linear_2637_9158" x1="129.87" y1="345.357" x2="28.4043" y2="328.558" gradientUnits="userSpaceOnUse">
<stop stop-color="#311944"/>
<stop offset="1" stop-color="#893976"/>
</linearGradient>
<linearGradient id="paint31_linear_2637_9158" x1="61.8861" y1="338.031" x2="61.8921" y2="323.646" gradientUnits="userSpaceOnUse">
<stop stop-color="#FF9085"/>
<stop offset="1" stop-color="#FB6FBB"/>
</linearGradient>
<linearGradient id="paint32_linear_2637_9158" x1="37.07" y1="316.486" x2="71.5358" y2="343.518" gradientUnits="userSpaceOnUse">
<stop stop-color="#FF9085"/>
<stop offset="1" stop-color="#FB6FBB"/>
</linearGradient>
<linearGradient id="paint33_linear_2637_9158" x1="129.87" y1="345.357" x2="28.4043" y2="328.558" gradientUnits="userSpaceOnUse">
<stop stop-color="#311944"/>
<stop offset="1" stop-color="#893976"/>
</linearGradient>
<linearGradient id="paint34_linear_2637_9158" x1="61.8861" y1="338.031" x2="61.8921" y2="323.646" gradientUnits="userSpaceOnUse">
<stop stop-color="#FF9085"/>
<stop offset="1" stop-color="#FB6FBB"/>
</linearGradient>
<linearGradient id="paint35_linear_2637_9158" x1="36.861" y1="305.34" x2="71.5611" y2="332.557" gradientUnits="userSpaceOnUse">
<stop stop-color="#FF9085"/>
<stop offset="1" stop-color="#FB6FBB"/>
</linearGradient>
<linearGradient id="paint36_linear_2637_9158" x1="129.87" y1="333.915" x2="28.4043" y2="317.115" gradientUnits="userSpaceOnUse">
<stop stop-color="#311944"/>
<stop offset="1" stop-color="#893976"/>
</linearGradient>
<linearGradient id="paint37_linear_2637_9158" x1="61.8861" y1="326.588" x2="61.8921" y2="312.203" gradientUnits="userSpaceOnUse">
<stop stop-color="#FF9085"/>
<stop offset="1" stop-color="#FB6FBB"/>
</linearGradient>
<linearGradient id="paint38_linear_2637_9158" x1="37.07" y1="305.045" x2="71.5358" y2="332.076" gradientUnits="userSpaceOnUse">
<stop stop-color="#FF9085"/>
<stop offset="1" stop-color="#FB6FBB"/>
</linearGradient>
<linearGradient id="paint39_linear_2637_9158" x1="129.87" y1="333.915" x2="28.4043" y2="317.115" gradientUnits="userSpaceOnUse">
<stop stop-color="#311944"/>
<stop offset="1" stop-color="#893976"/>
</linearGradient>
<linearGradient id="paint40_linear_2637_9158" x1="61.8861" y1="326.588" x2="61.8921" y2="312.203" gradientUnits="userSpaceOnUse">
<stop stop-color="#FF9085"/>
<stop offset="1" stop-color="#FB6FBB"/>
</linearGradient>
<linearGradient id="paint41_linear_2637_9158" x1="36.861" y1="293.87" x2="71.5611" y2="321.087" gradientUnits="userSpaceOnUse">
<stop stop-color="#FF9085"/>
<stop offset="1" stop-color="#FB6FBB"/>
</linearGradient>
<linearGradient id="paint42_linear_2637_9158" x1="129.87" y1="322.445" x2="28.4043" y2="305.645" gradientUnits="userSpaceOnUse">
<stop stop-color="#311944"/>
<stop offset="1" stop-color="#893976"/>
</linearGradient>
<linearGradient id="paint43_linear_2637_9158" x1="61.8861" y1="315.119" x2="61.8921" y2="300.733" gradientUnits="userSpaceOnUse">
<stop stop-color="#FF9085"/>
<stop offset="1" stop-color="#FB6FBB"/>
</linearGradient>
<linearGradient id="paint44_linear_2637_9158" x1="37.07" y1="293.574" x2="71.5359" y2="320.606" gradientUnits="userSpaceOnUse">
<stop stop-color="#FF9085"/>
<stop offset="1" stop-color="#FB6FBB"/>
</linearGradient>
<linearGradient id="paint45_linear_2637_9158" x1="129.87" y1="322.445" x2="28.4043" y2="305.645" gradientUnits="userSpaceOnUse">
<stop stop-color="#311944"/>
<stop offset="1" stop-color="#893976"/>
</linearGradient>
<linearGradient id="paint46_linear_2637_9158" x1="61.8861" y1="315.119" x2="61.8921" y2="300.733" gradientUnits="userSpaceOnUse">
<stop stop-color="#FF9085"/>
<stop offset="1" stop-color="#FB6FBB"/>
</linearGradient>
<linearGradient id="paint47_linear_2637_9158" x1="36.861" y1="282.4" x2="71.5612" y2="309.616" gradientUnits="userSpaceOnUse">
<stop stop-color="#FF9085"/>
<stop offset="1" stop-color="#FB6FBB"/>
</linearGradient>
<linearGradient id="paint48_linear_2637_9158" x1="129.87" y1="310.975" x2="28.4043" y2="294.175" gradientUnits="userSpaceOnUse">
<stop stop-color="#311944"/>
<stop offset="1" stop-color="#893976"/>
</linearGradient>
<linearGradient id="paint49_linear_2637_9158" x1="61.8862" y1="303.649" x2="61.8922" y2="289.263" gradientUnits="userSpaceOnUse">
<stop stop-color="#FF9085"/>
<stop offset="1" stop-color="#FB6FBB"/>
</linearGradient>
<linearGradient id="paint50_linear_2637_9158" x1="37.07" y1="282.104" x2="71.5359" y2="309.136" gradientUnits="userSpaceOnUse">
<stop stop-color="#FF9085"/>
<stop offset="1" stop-color="#FB6FBB"/>
</linearGradient>
<linearGradient id="paint51_linear_2637_9158" x1="129.87" y1="310.975" x2="28.4043" y2="294.175" gradientUnits="userSpaceOnUse">
<stop stop-color="#311944"/>
<stop offset="1" stop-color="#893976"/>
</linearGradient>
<linearGradient id="paint52_linear_2637_9158" x1="61.8862" y1="303.649" x2="61.8922" y2="289.263" gradientUnits="userSpaceOnUse">
<stop stop-color="#FF9085"/>
<stop offset="1" stop-color="#FB6FBB"/>
</linearGradient>
<linearGradient id="paint53_linear_2637_9158" x1="36.861" y1="270.93" x2="71.5612" y2="298.146" gradientUnits="userSpaceOnUse">
<stop stop-color="#FF9085"/>
<stop offset="1" stop-color="#FB6FBB"/>
</linearGradient>
<linearGradient id="paint54_linear_2637_9158" x1="129.87" y1="299.504" x2="28.4043" y2="282.704" gradientUnits="userSpaceOnUse">
<stop stop-color="#311944"/>
<stop offset="1" stop-color="#893976"/>
</linearGradient>
<linearGradient id="paint55_linear_2637_9158" x1="61.8861" y1="292.179" x2="61.8921" y2="277.793" gradientUnits="userSpaceOnUse">
<stop stop-color="#FF9085"/>
<stop offset="1" stop-color="#FB6FBB"/>
</linearGradient>
<linearGradient id="paint56_linear_2637_9158" x1="37.07" y1="270.634" x2="71.5359" y2="297.666" gradientUnits="userSpaceOnUse">
<stop stop-color="#FF9085"/>
<stop offset="1" stop-color="#FB6FBB"/>
</linearGradient>
<linearGradient id="paint57_linear_2637_9158" x1="129.87" y1="299.504" x2="28.4043" y2="282.704" gradientUnits="userSpaceOnUse">
<stop stop-color="#311944"/>
<stop offset="1" stop-color="#893976"/>
</linearGradient>
<linearGradient id="paint58_linear_2637_9158" x1="61.8861" y1="292.179" x2="61.8921" y2="277.793" gradientUnits="userSpaceOnUse">
<stop stop-color="#FF9085"/>
<stop offset="1" stop-color="#FB6FBB"/>
</linearGradient>
<linearGradient id="paint59_linear_2637_9158" x1="36.861" y1="259.46" x2="71.5611" y2="286.676" gradientUnits="userSpaceOnUse">
<stop stop-color="#FF9085"/>
<stop offset="1" stop-color="#FB6FBB"/>
</linearGradient>
<linearGradient id="paint60_linear_2637_9158" x1="129.87" y1="288.034" x2="28.4043" y2="271.234" gradientUnits="userSpaceOnUse">
<stop stop-color="#311944"/>
<stop offset="1" stop-color="#893976"/>
</linearGradient>
<linearGradient id="paint61_linear_2637_9158" x1="61.8861" y1="280.708" x2="61.8921" y2="266.323" gradientUnits="userSpaceOnUse">
<stop stop-color="#FF9085"/>
<stop offset="1" stop-color="#FB6FBB"/>
</linearGradient>
<linearGradient id="paint62_linear_2637_9158" x1="37.07" y1="259.164" x2="71.5358" y2="286.196" gradientUnits="userSpaceOnUse">
<stop stop-color="#FF9085"/>
<stop offset="1" stop-color="#FB6FBB"/>
</linearGradient>
<linearGradient id="paint63_linear_2637_9158" x1="129.87" y1="288.034" x2="28.4043" y2="271.234" gradientUnits="userSpaceOnUse">
<stop stop-color="#311944"/>
<stop offset="1" stop-color="#893976"/>
</linearGradient>
<linearGradient id="paint64_linear_2637_9158" x1="61.8861" y1="280.708" x2="61.8921" y2="266.323" gradientUnits="userSpaceOnUse">
<stop stop-color="#FF9085"/>
<stop offset="1" stop-color="#FB6FBB"/>
</linearGradient>
<linearGradient id="paint65_linear_2637_9158" x1="36.861" y1="247.989" x2="71.5611" y2="275.206" gradientUnits="userSpaceOnUse">
<stop stop-color="#FF9085"/>
<stop offset="1" stop-color="#FB6FBB"/>
</linearGradient>
<linearGradient id="paint66_linear_2637_9158" x1="129.87" y1="276.564" x2="28.4042" y2="259.764" gradientUnits="userSpaceOnUse">
<stop stop-color="#311944"/>
<stop offset="1" stop-color="#893976"/>
</linearGradient>
<linearGradient id="paint67_linear_2637_9158" x1="61.8861" y1="269.238" x2="61.8921" y2="254.852" gradientUnits="userSpaceOnUse">
<stop stop-color="#FF9085"/>
<stop offset="1" stop-color="#FB6FBB"/>
</linearGradient>
<linearGradient id="paint68_linear_2637_9158" x1="37.07" y1="247.693" x2="71.5358" y2="274.725" gradientUnits="userSpaceOnUse">
<stop stop-color="#FF9085"/>
<stop offset="1" stop-color="#FB6FBB"/>
</linearGradient>
<linearGradient id="paint69_linear_2637_9158" x1="129.87" y1="276.564" x2="28.4042" y2="259.764" gradientUnits="userSpaceOnUse">
<stop stop-color="#311944"/>
<stop offset="1" stop-color="#893976"/>
</linearGradient>
<linearGradient id="paint70_linear_2637_9158" x1="61.8861" y1="269.238" x2="61.8921" y2="254.852" gradientUnits="userSpaceOnUse">
<stop stop-color="#FF9085"/>
<stop offset="1" stop-color="#FB6FBB"/>
</linearGradient>
<linearGradient id="paint71_linear_2637_9158" x1="66.3416" y1="233.361" x2="65.5717" y2="248.564" gradientUnits="userSpaceOnUse">
<stop stop-color="#FF9085"/>
<stop offset="1" stop-color="#FB6FBB"/>
</linearGradient>
<linearGradient id="paint72_linear_2637_9158" x1="66.3416" y1="233.361" x2="65.5717" y2="248.564" gradientUnits="userSpaceOnUse">
<stop stop-color="#AA80F9"/>
<stop offset="1" stop-color="#6165D7"/>
</linearGradient>
<linearGradient id="paint73_linear_2637_9158" x1="64.4014" y1="246.999" x2="109.392" y2="246.999" gradientUnits="userSpaceOnUse">
<stop stop-color="#AA80F9"/>
<stop offset="1" stop-color="#6165D7"/>
</linearGradient>
<linearGradient id="paint74_linear_2637_9158" x1="64.4013" y1="247.105" x2="109.392" y2="247.105" gradientUnits="userSpaceOnUse">
<stop stop-color="#AA80F9"/>
<stop offset="1" stop-color="#6165D7"/>
</linearGradient>
<linearGradient id="paint75_linear_2637_9158" x1="77.1416" y1="264.506" x2="68.4828" y2="253.73" gradientUnits="userSpaceOnUse">
<stop stop-color="#311944"/>
<stop offset="1" stop-color="#6B3976"/>
</linearGradient>
<linearGradient id="paint76_linear_2637_9158" x1="71.8253" y1="261.948" x2="59.8946" y2="246.937" gradientUnits="userSpaceOnUse">
<stop stop-color="#FFC444"/>
<stop offset="1" stop-color="#F36F56"/>
</linearGradient>
<linearGradient id="paint77_linear_2637_9158" x1="46.1392" y1="246.496" x2="36.2255" y2="267.116" gradientUnits="userSpaceOnUse">
<stop stop-color="#AA80F9"/>
<stop offset="1" stop-color="#6165D7"/>
</linearGradient>
<linearGradient id="paint78_linear_2637_9158" x1="46.4624" y1="231.347" x2="78.1359" y2="231.347" gradientUnits="userSpaceOnUse">
<stop stop-color="#AA80F9"/>
<stop offset="1" stop-color="#6165D7"/>
</linearGradient>
<linearGradient id="paint79_linear_2637_9158" x1="46.5898" y1="244.488" x2="77.3725" y2="244.488" gradientUnits="userSpaceOnUse">
<stop stop-color="#AA80F9"/>
<stop offset="1" stop-color="#6165D7"/>
</linearGradient>
<linearGradient id="paint80_linear_2637_9158" x1="45.5056" y1="245.473" x2="56.2618" y2="245.473" gradientUnits="userSpaceOnUse">
<stop stop-color="#444B8C"/>
<stop offset="1" stop-color="#26264F"/>
</linearGradient>
<linearGradient id="paint81_linear_2637_9158" x1="60.2078" y1="214.909" x2="71.4193" y2="198.129" gradientUnits="userSpaceOnUse">
<stop stop-color="#F36F56"/>
<stop offset="1" stop-color="#FFC444"/>
</linearGradient>
<linearGradient id="paint82_linear_2637_9158" x1="61.8315" y1="204.704" x2="73.6079" y2="197.674" gradientUnits="userSpaceOnUse">
<stop stop-color="#311944"/>
<stop offset="1" stop-color="#6B3976"/>
</linearGradient>
<linearGradient id="paint83_linear_2637_9158" x1="68.1012" y1="202.06" x2="74.3999" y2="202.06" gradientUnits="userSpaceOnUse">
<stop stop-color="#F36F56"/>
<stop offset="1" stop-color="#FFC444"/>
</linearGradient>
<linearGradient id="paint84_linear_2637_9158" x1="62.6725" y1="206.126" x2="74.4613" y2="199.088" gradientUnits="userSpaceOnUse">
<stop stop-color="#311944"/>
<stop offset="1" stop-color="#6B3976"/>
</linearGradient>
<linearGradient id="paint85_linear_2637_9158" x1="71.0981" y1="203.696" x2="72.3464" y2="203.696" gradientUnits="userSpaceOnUse">
<stop stop-color="#F36F56"/>
<stop offset="1" stop-color="#FFC444"/>
</linearGradient>
<linearGradient id="paint86_linear_2637_9158" x1="54.9078" y1="236.808" x2="93.2593" y2="236.808" gradientUnits="userSpaceOnUse">
<stop stop-color="#444B8C"/>
<stop offset="1" stop-color="#26264F"/>
</linearGradient>
<linearGradient id="paint87_linear_2637_9158" x1="55.6304" y1="237.17" x2="93.2934" y2="237.17" gradientUnits="userSpaceOnUse">
<stop stop-color="#444B8C"/>
<stop offset="1" stop-color="#26264F"/>
</linearGradient>
<linearGradient id="paint88_linear_2637_9158" x1="55.6305" y1="237.603" x2="90.445" y2="237.603" gradientUnits="userSpaceOnUse">
<stop stop-color="#444B8C"/>
<stop offset="1" stop-color="#26264F"/>
</linearGradient>
</defs>
</svg>
