<svg width="452" height="354" viewBox="0 0 452 354" fill="none" xmlns="http://www.w3.org/2000/svg">
<path d="M242.569 8.32219C215.939 2.38251 188.235 -0.465599 161.182 1.34892C137.189 2.95672 109.994 7.34832 90.687 23.0772C81.4996 30.5696 70.5114 44.0384 67.5025 55.9223C67.5025 55.9223 51.6588 118.461 19.9759 131.861C-11.707 145.261 -33.7109 373.978 206.559 351.643C206.559 351.643 347.678 345.791 356.177 177.206C358.23 136.482 357.095 91.712 332.491 57.6587C313.643 31.5848 287.248 19.9581 256.911 11.8318C252.164 10.57 247.383 9.40018 242.569 8.32219Z" fill="#F4F7FA"/>
<g opacity="0.3">
<path d="M154.177 101.593C152.252 93.2601 147.47 96.1174 139.454 93.5541C131.438 90.9908 133.79 81.8447 128.815 79.0242C122.186 75.2619 116.099 78.7532 111.974 83.6914C105.12 91.8958 100.435 85.2257 92.2211 88.547C87.5263 90.4534 89.5292 93.1407 83.1807 94.1972C78.7477 94.946 73.9427 93.1774 69.5741 94.257C66.3355 95.0609 63.9881 96.4619 63.2715 99.3101C64.1902 99.7051 65.109 100.059 66.1058 100.38C78.3435 104.409 95.0462 103.063 107.413 103.656C111.648 103.872 155.541 107.501 154.177 101.593Z" fill="url(#paint0_linear_2637_9350)"/>
<path d="M184.95 60.6309C183.928 59.4867 182.616 58.6402 181.152 58.1808C179.688 57.7215 178.128 57.6665 176.635 58.0216C173.287 58.7888 171.394 61.6966 168.275 62.8772C162.836 64.9168 155.311 60.8881 151.182 66.1479C146.129 72.5791 142.224 67.7557 142.224 72.1198C142.224 76.4838 177.136 73.2682 194.363 73.4979C196.848 73.53 207.652 73.3646 203.003 68.6469C201.561 67.1815 199.498 66.938 197.578 66.5935C195.07 66.1341 189.117 65.9045 187.302 64.1221C186.324 63.1666 185.952 61.7885 185.065 60.7641L184.95 60.6309Z" fill="url(#paint1_linear_2637_9350)"/>
</g>
<path d="M267.246 71.5776C267.231 70.4445 266.774 69.3622 265.972 68.5609C265.171 67.7596 264.089 67.3026 262.955 67.2871H174.577C172.207 67.2871 169.882 69.3221 169.882 71.7109V284.924C169.958 286.093 170.481 287.189 171.343 287.983C172.187 288.794 173.314 289.246 174.485 289.242L266.874 288.989C267.447 288.987 268.015 288.87 268.543 288.647C269.071 288.424 269.55 288.098 269.952 287.689C270.762 286.851 271.206 285.726 271.187 284.561L267.246 71.5776Z" fill="url(#paint2_linear_2637_9350)"/>
<g opacity="0.5">
<path d="M202.154 92.4104L176.98 92.3782L176.783 79.3826H201.979L202.154 92.4104Z" fill="white"/>
<path d="M230.368 92.4058L205.222 92.369L205.052 79.3826H230.221L230.368 92.4058Z" fill="white"/>
<path d="M258.556 92.3966L233.432 92.3644L233.29 79.3826H258.436L258.556 92.3966Z" fill="white"/>
<path d="M202.471 115.733L177.339 115.746L177.141 102.838L202.296 102.829L202.471 115.733Z" fill="white"/>
<path d="M230.635 115.71L205.53 115.728L205.36 102.829L230.488 102.815L230.635 115.71Z" fill="white"/>
<path d="M258.772 115.696L233.694 115.71L233.552 102.815L258.652 102.806L258.772 115.696Z" fill="white"/>
<path d="M202.783 138.89L177.697 138.917L177.499 126.055L202.608 126.032L202.783 138.89Z" fill="white"/>
<path d="M230.901 138.862L205.838 138.885L205.668 126.032L230.754 126.009L230.901 138.862Z" fill="white"/>
<path d="M258.987 138.83L233.956 138.857L233.809 126.009L258.868 125.986L258.987 138.83Z" fill="white"/>
<path d="M203.096 161.969L178.055 162.005L177.858 149.189L202.921 149.157L203.096 161.969Z" fill="white"/>
<path d="M231.163 161.927L206.146 161.964L205.976 149.152L231.016 149.124L231.163 161.927Z" fill="white"/>
<path d="M259.203 161.886L234.213 161.923L234.071 149.12L259.084 149.088L259.203 161.886Z" fill="white"/>
<path d="M203.408 184.969L178.409 185.015L178.211 172.24L203.233 172.203L203.408 184.969Z" fill="white"/>
<path d="M231.425 184.914L206.453 184.965L206.283 172.194L231.278 172.153L231.425 184.914Z" fill="white"/>
<path d="M259.419 184.864L234.471 184.91L234.328 172.148L259.3 172.107L259.419 184.864Z" fill="white"/>
<path d="M203.716 207.887L178.762 207.947L178.565 195.218L203.546 195.167L203.716 207.887Z" fill="white"/>
<path d="M231.687 207.823L206.757 207.883L206.587 195.158L231.544 195.107L231.687 207.823Z" fill="white"/>
<path d="M259.63 207.763L234.728 207.818L234.585 195.103L259.511 195.052L259.63 207.763Z" fill="white"/>
<path d="M204.028 230.732L179.116 230.796L178.919 218.113L203.854 218.049L204.028 230.732Z" fill="white"/>
<path d="M231.949 230.654L207.064 230.723L206.895 218.044L231.806 217.98L231.949 230.654Z" fill="white"/>
<path d="M259.842 230.58L234.981 230.645L234.838 217.975L259.727 217.911L259.842 230.58Z" fill="white"/>
<path d="M204.336 253.494L179.465 253.572L179.272 240.93L204.161 240.856L204.336 253.494Z" fill="white"/>
<path d="M232.211 253.406L207.363 253.485L207.198 240.847L232.064 240.778L232.211 253.406Z" fill="white"/>
<path d="M260.058 253.319L235.238 253.397L235.096 240.769L259.939 240.696L260.058 253.319Z" fill="white"/>
<path d="M204.639 276.178L179.815 276.265L179.622 263.669L204.469 263.586L204.639 276.178Z" fill="white"/>
<path d="M232.468 276.081L207.666 276.168L207.501 263.577L232.325 263.494L232.468 276.081Z" fill="white"/>
<path d="M260.269 275.985L235.491 276.072L235.348 263.485L260.15 263.402L260.269 275.985Z" fill="white"/>
</g>
<path d="M189.07 139.234C189.034 137.916 187.361 136.832 185.308 136.832H107.748C105.671 136.832 103.613 137.975 103.613 139.308V258.634C103.613 259.277 104.192 259.893 104.9 260.348C105.738 260.827 106.69 261.07 107.656 261.05L188.749 260.908C189.699 260.925 190.636 260.673 191.45 260.182C191.766 260.008 192.031 259.756 192.221 259.449C192.411 259.143 192.519 258.792 192.534 258.432L189.07 139.234Z" fill="url(#paint3_linear_2637_9350)"/>
<g opacity="0.5">
<path d="M131.956 150.893L109.861 150.874L109.686 143.603H131.8L131.956 150.893Z" fill="white"/>
<path d="M156.721 150.893L134.648 150.87L134.497 143.603H156.588L156.721 150.893Z" fill="white"/>
<path d="M181.458 150.888L159.408 150.87L159.284 143.603H181.353L181.458 150.888Z" fill="white"/>
<path d="M132.232 163.944L110.173 163.953L109.998 156.731L132.076 156.727L132.232 163.944Z" fill="white"/>
<path d="M156.951 163.934L134.919 163.943L134.768 156.727L156.822 156.718L156.951 163.934Z" fill="white"/>
<path d="M181.651 163.925L159.638 163.934L159.51 156.718L181.546 156.713L181.651 163.925Z" fill="white"/>
<path d="M132.508 176.907L110.485 176.921L110.315 169.722L132.352 169.713L132.508 176.907Z" fill="white"/>
<path d="M157.185 176.889L135.191 176.907L135.039 169.709L157.057 169.699L157.185 176.889Z" fill="white"/>
<path d="M181.84 176.875L159.868 176.888L159.739 169.695L181.734 169.686L181.84 176.875Z" fill="white"/>
<path d="M132.779 189.824L110.802 189.843L110.628 182.672L132.627 182.654L132.779 189.824Z" fill="white"/>
<path d="M157.415 189.802L135.457 189.82L135.31 182.649L157.286 182.631L157.415 189.802Z" fill="white"/>
<path d="M182.028 189.779L160.093 189.797L159.964 182.631L181.922 182.612L182.028 189.779Z" fill="white"/>
<path d="M133.055 202.696L111.11 202.719L110.94 195.571L132.903 195.548L133.055 202.696Z" fill="white"/>
<path d="M157.649 202.664L135.728 202.691L135.576 195.548L157.521 195.525L157.649 202.664Z" fill="white"/>
<path d="M182.216 202.636L160.318 202.664L160.194 195.521L182.111 195.498L182.216 202.636Z" fill="white"/>
<path d="M133.325 215.522L111.423 215.554L111.248 208.429L133.174 208.402L133.325 215.522Z" fill="white"/>
<path d="M157.879 215.485L135.994 215.517L135.847 208.397L157.75 208.369L157.879 215.485Z" fill="white"/>
<path d="M182.405 215.448L160.543 215.48L160.419 208.365L182.299 208.337L182.405 215.448Z" fill="white"/>
<path d="M133.596 228.306L111.73 228.343L111.56 221.245L133.445 221.209L133.596 228.306Z" fill="white"/>
<path d="M158.104 228.265L136.261 228.302L136.114 221.204L157.98 221.172L158.104 228.265Z" fill="white"/>
<path d="M182.588 228.219L160.768 228.26L160.644 221.168L182.487 221.131L182.588 228.219Z" fill="white"/>
<path d="M133.867 241.045L112.038 241.086L111.868 234.012L133.716 233.97L133.867 241.045Z" fill="white"/>
<path d="M158.334 240.994L136.527 241.04L136.38 233.965L158.205 233.929L158.334 240.994Z" fill="white"/>
<path d="M182.777 240.948L160.993 240.989L160.869 233.924L182.671 233.883L182.777 240.948Z" fill="white"/>
<path d="M134.138 253.742L112.346 253.787L112.176 246.736L133.987 246.69L134.138 253.742Z" fill="white"/>
<path d="M158.559 253.686L136.794 253.732L136.647 246.686L158.435 246.64L158.559 253.686Z" fill="white"/>
<path d="M182.961 253.631L161.214 253.677L161.09 246.635L182.86 246.589L182.961 253.631Z" fill="white"/>
</g>
<path d="M347.637 136.556C347.637 135.812 346.488 135.21 345.11 135.21H261.504C260.126 135.21 258.624 135.83 258.624 136.588V242.349C258.624 242.914 259.212 243.456 259.952 243.856C260.847 244.284 261.83 244.498 262.823 244.481L347.347 244.352C348.324 244.371 349.29 244.152 350.163 243.713C350.898 243.305 351.316 242.753 351.293 242.184L347.637 136.556Z" fill="url(#paint4_linear_2637_9350)"/>
<g style="mix-blend-mode:overlay">
<path d="M299.627 142.702L272.276 142.652L272.286 140.796L299.604 140.846L299.627 142.702Z" fill="white"/>
</g>
<g style="mix-blend-mode:overlay">
<path d="M299.701 149.538L272.24 149.469L272.249 147.599L299.682 147.663L299.701 149.538Z" fill="white"/>
</g>
<g style="mix-blend-mode:overlay">
<path d="M299.779 156.424L272.198 156.341L272.212 154.453L299.756 154.536L299.779 156.424Z" fill="white"/>
</g>
<g style="mix-blend-mode:overlay">
<path d="M299.853 163.369L272.162 163.268L272.171 161.366L299.834 161.463L299.853 163.369Z" fill="white"/>
</g>
<g style="mix-blend-mode:overlay">
<path d="M299.931 170.375L272.125 170.255L272.134 168.34L299.908 168.45L299.931 170.375Z" fill="white"/>
</g>
<g style="mix-blend-mode:overlay">
<path d="M300.087 184.556L272.047 184.404L272.056 182.452L300.064 182.603L300.087 184.556Z" fill="white"/>
</g>
<g style="mix-blend-mode:overlay">
<path d="M300.326 206.288L271.927 206.077L271.936 204.074L300.303 204.281L300.326 206.288Z" fill="white"/>
</g>
<g style="mix-blend-mode:overlay">
<path d="M300.009 177.435L272.083 177.298L272.097 175.368L299.986 175.497L300.009 177.435Z" fill="white"/>
</g>
<g style="mix-blend-mode:overlay">
<path d="M300.165 191.74L272.005 191.565L272.015 189.599L300.142 189.769L300.165 191.74Z" fill="white"/>
</g>
<g style="mix-blend-mode:overlay">
<path d="M300.243 198.985L271.964 198.792L271.978 196.807L300.22 196.995L300.243 198.985Z" fill="white"/>
</g>
<g style="mix-blend-mode:overlay">
<path d="M300.404 213.652L271.886 213.422L271.895 211.406L300.381 211.631L300.404 213.652Z" fill="white"/>
</g>
<g style="mix-blend-mode:overlay">
<path d="M300.486 221.085L271.844 220.832L271.858 218.802L300.463 219.045L300.486 221.085Z" fill="white"/>
</g>
<g style="mix-blend-mode:overlay">
<path d="M300.569 228.577L271.803 228.306L271.817 226.257L300.546 226.519L300.569 228.577Z" fill="white"/>
</g>
<g style="mix-blend-mode:overlay">
<path d="M300.652 236.134L271.762 235.845L271.775 233.777L300.629 234.062L300.652 236.134Z" fill="white"/>
</g>
<g style="mix-blend-mode:overlay">
<path d="M335.486 142.771L307.96 142.721L307.933 140.86L335.426 140.906L335.486 142.771Z" fill="white"/>
</g>
<g style="mix-blend-mode:overlay">
<path d="M335.707 149.625L308.071 149.556L308.043 147.682L335.647 147.746L335.707 149.625Z" fill="white"/>
</g>
<g style="mix-blend-mode:overlay">
<path d="M335.931 156.534L308.181 156.451L308.153 154.559L335.872 154.641L335.931 156.534Z" fill="white"/>
</g>
<g style="mix-blend-mode:overlay">
<path d="M336.161 163.503L308.296 163.402L308.263 161.495L336.097 161.592L336.161 163.503Z" fill="white"/>
</g>
<g style="mix-blend-mode:overlay">
<path d="M336.391 170.531L308.406 170.411L308.374 168.487L336.327 168.601L336.391 170.531Z" fill="white"/>
</g>
<g style="mix-blend-mode:overlay">
<path d="M336.855 184.762L308.631 184.606L308.604 182.649L336.791 182.801L336.855 184.762Z" fill="white"/>
</g>
<g style="mix-blend-mode:overlay">
<path d="M337.562 206.564L308.98 206.353L308.948 204.345L337.498 204.552L337.562 206.564Z" fill="white"/>
</g>
<g style="mix-blend-mode:overlay">
<path d="M336.621 177.614L308.521 177.477L308.489 175.538L336.556 175.671L336.621 177.614Z" fill="white"/>
</g>
<g style="mix-blend-mode:overlay">
<path d="M337.089 191.965L308.746 191.791L308.719 189.82L337.025 189.99L337.089 191.965Z" fill="white"/>
</g>
<g style="mix-blend-mode:overlay">
<path d="M337.323 199.233L308.865 199.04L308.833 197.051L337.259 197.239L337.323 199.233Z" fill="white"/>
</g>
<g style="mix-blend-mode:overlay">
<path d="M337.806 213.955L309.1 213.726L309.067 211.7L337.737 211.925L337.806 213.955Z" fill="white"/>
</g>
<g style="mix-blend-mode:overlay">
<path d="M338.049 221.411L309.219 221.158L309.187 219.119L337.98 219.367L338.049 221.411Z" fill="white"/>
</g>
<g style="mix-blend-mode:overlay">
<path d="M338.293 228.931L309.339 228.66L309.307 226.602L338.224 226.868L338.293 228.931Z" fill="white"/>
</g>
<g style="mix-blend-mode:overlay">
<path d="M338.541 236.515L309.458 236.226L309.426 234.149L338.472 234.434L338.541 236.515Z" fill="white"/>
</g>
<path d="M81.2516 101.115C78.4954 102.264 75.8126 104.06 74.9169 106.003C70.8698 114.768 79.6714 125.692 83.0937 133.147C88.9691 145.968 91.9733 160.209 90.1496 174.266C88.1697 189.503 87.4853 204.4 90.7744 219.569C92.4695 227.378 95.5197 235.564 101.221 241.426C111.988 252.492 135.866 243.769 139.321 229.974C142.077 218.972 139.518 207.487 135.784 197.064C129.499 179.525 120.436 163.153 114.042 145.661C109.154 132.288 108.116 104.882 91.4267 100.302C88.3719 99.4661 84.164 99.8933 81.2516 101.115Z" fill="url(#paint5_linear_2637_9350)"/>
<path d="M120.298 267.964H120.211C120.029 267.939 119.865 267.843 119.753 267.698C119.641 267.553 119.591 267.369 119.613 267.188C125.829 219.904 115.681 178.791 106.076 152.625C95.6572 124.259 83.6125 106.862 83.4931 106.688C83.4412 106.613 83.4044 106.53 83.3849 106.441C83.3654 106.353 83.3634 106.261 83.3792 106.172C83.395 106.083 83.4282 105.998 83.4769 105.922C83.5256 105.845 83.5888 105.779 83.663 105.727C83.7372 105.676 83.8209 105.639 83.9093 105.619C83.9977 105.6 84.0891 105.598 84.1783 105.614C84.2674 105.629 84.3526 105.663 84.4289 105.711C84.5053 105.76 84.5712 105.823 84.6231 105.897C84.7472 106.072 96.8746 123.588 107.353 152.106C117 178.423 127.234 219.785 120.982 267.367C120.96 267.532 120.878 267.684 120.753 267.794C120.627 267.904 120.465 267.964 120.298 267.964V267.964Z" fill="url(#paint6_linear_2637_9350)"/>
<path d="M103.384 233.483C100.94 226.046 94.4218 219.381 89.4789 212.711C86.8651 209.183 84.6188 205.503 83.2728 201.3C81.9269 197.096 81.6375 192.016 78.013 189.007C70.7136 182.948 64.4707 190.527 62.8262 198.709C60.9198 208.19 65.0633 220.015 67.351 229.579C68.7291 235.339 69.556 241.55 71.5588 247.122C74.8847 256.346 79.8964 261.363 86.1117 263.361C89.0116 264.282 92.1317 264.239 95.0052 263.238C97.8786 262.238 100.351 260.334 102.052 257.812C105.212 253.135 107.326 245.482 103.384 233.483Z" fill="url(#paint7_linear_2637_9350)"/>
<path d="M101.083 275.245C100.974 275.245 100.868 275.22 100.771 275.172C100.674 275.123 100.591 275.052 100.527 274.965C100.242 274.579 72.211 236.097 68.83 195.562C68.8225 195.472 68.8328 195.381 68.8605 195.294C68.8882 195.208 68.9326 195.127 68.9912 195.058C69.0499 194.989 69.1216 194.932 69.2023 194.89C69.2831 194.848 69.3712 194.823 69.4617 194.816C69.5522 194.808 69.6432 194.818 69.7297 194.846C69.8162 194.874 69.8964 194.918 69.9657 194.977C70.035 195.035 70.0921 195.107 70.1337 195.188C70.1753 195.269 70.2006 195.357 70.2081 195.447C73.5707 235.587 101.372 273.766 101.652 274.147C101.706 274.219 101.745 274.302 101.766 274.39C101.788 274.477 101.792 274.568 101.778 274.658C101.765 274.747 101.734 274.832 101.687 274.91C101.64 274.987 101.578 275.054 101.505 275.107C101.384 275.2 101.235 275.248 101.083 275.245V275.245Z" fill="url(#paint8_linear_2637_9350)"/>
<path d="M388.935 184.763C387.046 180.826 385.719 176.705 385.379 172.217C384.584 160.917 391.158 150.503 395.986 140.773C400.423 131.825 403.717 118.498 388.746 119.683C376.802 120.63 362.796 132.514 361.184 144.912C359.291 159.58 366.434 178.079 357.968 191.405C346.126 210.046 337.581 205.774 337.581 237.232C337.581 250.673 345.023 258.092 353.554 262.176C360.126 265.324 367.505 266.385 374.698 265.215C381.891 264.046 388.553 260.702 393.79 255.634C403.262 246.447 408.899 233.286 406.992 220.052C405.058 206.688 394.594 196.55 388.935 184.763Z" fill="url(#paint9_linear_2637_9350)"/>
<path d="M378.929 286.178C378.775 286.178 378.625 286.126 378.504 286.031C378.383 285.936 378.296 285.804 378.258 285.654C370.835 256.016 366.774 229.152 366.246 205.797C365.786 187.082 367.624 170.568 371.575 156.704C378.373 132.982 389.077 125.338 389.527 125.008C389.601 124.95 389.686 124.909 389.776 124.885C389.867 124.862 389.961 124.857 390.053 124.871C390.146 124.885 390.234 124.918 390.314 124.967C390.393 125.017 390.461 125.082 390.515 125.159C390.568 125.236 390.605 125.322 390.624 125.414C390.643 125.506 390.643 125.6 390.624 125.692C390.605 125.783 390.567 125.87 390.514 125.947C390.46 126.023 390.392 126.088 390.312 126.138V126.138C390.285 126.161 387.588 128.072 384.106 132.835C380.891 137.241 376.32 145.05 372.847 157.251C368.938 170.981 367.183 187.353 367.629 205.908C368.189 229.12 372.222 255.832 379.595 285.301C379.619 285.402 379.62 285.508 379.598 285.61C379.576 285.712 379.531 285.807 379.468 285.89C379.404 285.972 379.322 286.039 379.229 286.086C379.136 286.132 379.033 286.158 378.929 286.16V286.178Z" fill="url(#paint10_linear_2637_9350)"/>
<path d="M400.818 151.6C400.204 151.438 399.565 151.394 398.935 151.472C395.205 151.899 393.67 155.836 392.577 158.914C391.635 161.546 390.528 164.743 391.084 167.6C391.686 170.683 394.961 173.2 397.341 170.067C400.042 166.507 404.098 161.04 404.121 156.318C404.14 153.975 402.817 152.142 400.818 151.6Z" fill="url(#paint11_linear_2637_9350)"/>
<path d="M437.674 224.108C439.199 214.052 435.547 202.517 433.723 191.878C432.758 186.255 432.313 180.679 433.213 175.015C434.114 169.351 436.76 163.291 434.316 157.682C429.4 146.382 417.714 151.522 411.021 160.03C403.253 169.906 401.131 186.039 398.159 198.465C396.381 205.953 393.698 213.625 392.761 221.269C391.208 233.915 394.066 242.689 400.111 248.62C402.934 251.386 406.576 253.165 410.493 253.69C414.41 254.215 418.392 253.458 421.844 251.532C428.27 247.949 435.202 240.328 437.674 224.108Z" fill="url(#paint12_linear_2637_9350)"/>
<path d="M410.929 271.06C410.767 271.059 410.609 271.001 410.485 270.896C410.361 270.791 410.277 270.646 410.249 270.486C410.249 270.334 407.681 254.978 407.613 233.796C407.553 214.231 409.652 185.562 420.016 159.966C420.084 159.796 420.218 159.661 420.386 159.59C420.555 159.519 420.744 159.518 420.914 159.587C421.083 159.655 421.218 159.789 421.289 159.957C421.36 160.126 421.361 160.315 421.293 160.485C411.03 185.847 408.931 214.332 408.991 233.764C409.055 254.84 411.586 270.105 411.609 270.256C411.624 270.346 411.622 270.437 411.601 270.525C411.581 270.613 411.544 270.697 411.491 270.771C411.439 270.845 411.372 270.907 411.296 270.955C411.219 271.003 411.133 271.036 411.044 271.051L410.929 271.06Z" fill="url(#paint13_linear_2637_9350)"/>
<path d="M331.293 132.766C348.21 132.766 361.923 119.052 361.923 102.135C361.923 85.2181 348.21 71.5042 331.293 71.5042C314.376 71.5042 300.662 85.2181 300.662 102.135C300.662 119.052 314.376 132.766 331.293 132.766Z" fill="url(#paint14_linear_2637_9350)"/>
<path d="M361.877 100.491H300.661C300.661 100.491 298.222 117.487 325.559 164.063C326.153 165.052 326.992 165.87 327.995 166.439C328.998 167.008 330.131 167.308 331.284 167.31C332.437 167.312 333.571 167.017 334.576 166.452C335.581 165.887 336.423 165.072 337.021 164.086C364.358 117.51 361.877 100.491 361.877 100.491Z" fill="url(#paint15_linear_2637_9350)"/>
<path d="M331.279 168.303V168.478C329.964 168.468 328.675 168.118 327.536 167.461C326.398 166.804 325.449 165.862 324.783 164.729C308.806 137.507 302.949 120.294 300.85 110.661C300.261 108.501 299.91 106.283 299.803 104.046C299.669 102.939 299.66 101.82 299.775 100.711L299.853 100.22C300.441 92.2792 304.005 84.8536 309.833 79.4282C315.66 74.0027 323.321 70.9774 331.283 70.9575C348 70.9575 361.822 83.944 362.755 100.532C362.806 101.092 362.823 101.655 362.805 102.218V102.328C362.808 105.325 362.383 108.308 361.542 111.185C359.374 120.832 353.48 137.828 337.774 164.614C337.114 165.748 336.165 166.687 335.024 167.335C333.883 167.983 332.591 168.317 331.279 168.303V168.303ZM301.498 101.869C301.491 102.571 301.52 103.273 301.585 103.973V103.973C301.687 106.084 302.022 108.177 302.582 110.215V110.252C304.644 119.752 310.442 136.749 326.313 163.787C326.823 164.648 327.549 165.36 328.418 165.856C329.287 166.351 330.269 166.612 331.27 166.613V166.613C332.269 166.587 333.246 166.314 334.113 165.818C334.981 165.321 335.712 164.617 336.24 163.769C351.859 137.176 357.674 120.276 359.81 110.78V110.725C360.559 107.991 360.911 105.163 360.858 102.328L360.679 102.204C360.692 101.704 360.738 101.205 360.816 100.711L360.899 100.661C360.463 93.0986 357.148 85.9908 351.634 80.7979C346.119 75.605 338.826 72.7215 331.251 72.7399C315.499 72.7399 302.476 85.1751 301.58 100.968L301.553 101.887L301.498 101.869Z" fill="url(#paint16_linear_2637_9350)"/>
<path opacity="0.8" d="M340.067 117.438C348.579 112.648 351.596 101.864 346.806 93.3519C342.015 84.8397 331.232 81.8226 322.719 86.6131C314.207 91.4036 311.19 102.188 315.981 110.7C320.771 119.212 331.555 122.229 340.067 117.438Z" fill="white"/>
<path d="M331.393 120.703C327.699 120.704 324.087 119.609 321.015 117.557C317.943 115.505 315.548 112.589 314.134 109.176C312.719 105.763 312.349 102.007 313.069 98.3837C313.789 94.7602 315.568 91.4316 318.18 88.819C320.792 86.2064 324.12 84.427 327.743 83.7059C331.366 82.9848 335.122 83.3545 338.536 84.768C341.949 86.1816 344.866 88.5756 346.919 91.6473C348.971 94.719 350.067 98.3304 350.067 102.025C350.061 106.976 348.092 111.722 344.591 115.224C341.091 118.725 336.344 120.696 331.393 120.703V120.703ZM331.393 85.3312C328.091 85.3321 324.863 86.3121 322.118 88.1472C319.373 89.9824 317.233 92.5903 315.97 95.6414C314.707 98.6924 314.376 102.049 315.021 105.288C315.665 108.527 317.256 111.502 319.591 113.837C321.926 116.172 324.9 117.762 328.139 118.406C331.378 119.051 334.735 118.721 337.786 117.457C340.837 116.194 343.445 114.055 345.28 111.309C347.115 108.564 348.095 105.336 348.096 102.034C348.092 97.6052 346.332 93.3589 343.2 90.2273C340.068 87.0957 335.822 85.3348 331.393 85.3312V85.3312Z" fill="url(#paint17_linear_2637_9350)"/>
<path d="M314.613 83.6179C314.57 83.6172 314.528 83.6079 314.49 83.5905C314.451 83.5732 314.416 83.5481 314.388 83.5168C314.337 83.4569 314.312 83.3794 314.318 83.3012C314.324 83.223 314.361 83.1503 314.42 83.0988C319.397 78.8276 325.74 76.4795 332.299 76.4792C332.371 76.4883 332.437 76.5233 332.485 76.5779C332.534 76.6325 332.56 76.7028 332.56 76.7755C332.56 76.8483 332.534 76.9186 332.485 76.9732C332.437 77.0277 332.371 77.0628 332.299 77.0718C325.882 77.0725 319.677 79.3683 314.806 83.5444C314.753 83.5926 314.684 83.6188 314.613 83.6179Z" fill="white"/>
<path d="M305.14 104.225C305.062 104.225 304.987 104.194 304.932 104.139C304.877 104.084 304.846 104.009 304.846 103.931C304.839 98.8205 306.261 93.8097 308.953 89.4655C308.995 89.3988 309.061 89.3512 309.138 89.3332C309.214 89.3151 309.295 89.328 309.362 89.369C309.428 89.4114 309.474 89.4781 309.492 89.5546C309.509 89.6311 309.495 89.7113 309.454 89.7778C306.824 94.0249 305.434 98.9222 305.439 103.917C305.44 103.957 305.433 103.997 305.419 104.034C305.404 104.072 305.383 104.106 305.355 104.134C305.327 104.163 305.294 104.186 305.257 104.202C305.22 104.217 305.18 104.225 305.14 104.225V104.225Z" fill="white"/>
<path d="M119.788 269.54H370.068C370.31 269.52 370.541 269.426 370.727 269.269C370.913 269.113 371.046 268.902 371.106 268.667C371.172 268.435 371.163 268.189 371.08 267.963C370.998 267.737 370.846 267.543 370.647 267.408C364.707 263.701 358.767 260.058 352.832 256.333C352.655 256.242 352.457 256.202 352.258 256.218H137.58C137.385 256.194 137.188 256.226 137.01 256.31C131.071 260.021 125.131 263.692 119.196 267.399C118.996 267.54 118.844 267.739 118.762 267.969C118.68 268.199 118.671 268.45 118.736 268.685C118.798 268.921 118.934 269.13 119.123 269.284C119.312 269.438 119.545 269.527 119.788 269.54Z" fill="url(#paint18_linear_2637_9350)"/>
<path d="M79.7494 294.805H410.111C410.571 294.805 411.03 294.258 411.15 293.794C411.216 293.553 411.207 293.296 411.125 293.06C411.043 292.823 410.892 292.616 410.69 292.467C404.751 288.76 398.811 285.204 392.871 281.497C392.701 281.387 392.504 281.497 392.302 281.497H97.5593C97.3571 281.497 97.1596 281.345 96.9896 281.451C91.05 285.158 85.1149 288.764 79.1752 292.476C78.9779 292.64 78.8304 292.856 78.7492 293.1C78.668 293.343 78.6565 293.604 78.7158 293.854C78.7747 294.097 78.9043 294.317 79.0883 294.486C79.2723 294.656 79.5024 294.767 79.7494 294.805V294.805Z" fill="url(#paint19_linear_2637_9350)"/>
<path d="M450.678 317.342C444.743 313.635 438.804 310.042 432.864 306.317C432.694 306.211 432.496 306.271 432.294 306.271H57.5432C57.341 306.271 57.1435 306.211 56.969 306.317C51.0339 310.024 45.0942 313.667 39.1545 317.383C38.9536 317.532 38.8022 317.738 38.7202 317.974C38.6383 318.21 38.6295 318.465 38.6951 318.706C38.7521 318.946 38.8822 319.162 39.0674 319.324C39.2527 319.486 39.4838 319.586 39.7287 319.611H450.109C450.355 319.582 450.586 319.479 450.772 319.315C450.958 319.15 451.089 318.933 451.147 318.692C451.212 318.446 451.203 318.186 451.119 317.945C451.036 317.705 450.882 317.495 450.678 317.342V317.342Z" fill="url(#paint20_linear_2637_9350)"/>
<path d="M183.641 184.583C177.081 190.752 160.296 188.332 148.55 185.86C146.437 185.424 144.489 184.978 142.794 184.583C131.659 181.978 140.235 127.887 140.727 122.499C140.915 120.427 142.527 119.642 145.43 119.389C150.07 118.994 157.994 119.968 168.661 119.219C186.002 118.006 188.735 124.732 188.735 124.732C189.709 127.299 191.359 177.297 183.641 184.583Z" fill="url(#paint21_linear_2637_9350)"/>
<path style="mix-blend-mode:multiply" opacity="0.5" d="M150.961 134.824C150.667 144.673 151.37 177.523 148.531 185.86C146.418 185.424 144.47 184.978 142.775 184.583C131.64 181.979 140.217 127.888 140.708 122.499C140.897 120.427 142.509 119.642 145.412 119.389C145.787 119.801 146.135 120.237 146.455 120.694C152.519 129.279 151.311 123.207 150.961 134.824Z" fill="url(#paint22_linear_2637_9350)"/>
<path d="M175.253 302.407C175.253 302.407 174.449 305.674 174.421 306.854C174.394 308.035 187.408 309.684 187.61 308.816C187.812 307.948 185.634 306.358 184.063 305.733C182.492 305.109 177.876 303.409 177.876 303.409L175.253 302.407Z" fill="url(#paint23_linear_2637_9350)"/>
<path d="M178.689 299.366L177.94 303.446C177.94 303.446 176.342 304.323 175.069 303.446L174.757 298.916L178.689 299.366Z" fill="url(#paint24_linear_2637_9350)"/>
<path d="M151.521 305.903C151.521 305.903 150.713 309.165 150.69 310.35C150.667 311.535 163.676 313.18 163.888 312.307C164.099 311.434 161.912 309.849 160.341 309.229C158.77 308.609 154.154 306.905 154.154 306.905L151.521 305.903Z" fill="url(#paint25_linear_2637_9350)"/>
<path d="M154.953 302.858L154.209 306.937C154.209 306.937 152.61 307.819 151.338 306.937L151.026 302.407L154.953 302.858Z" fill="url(#paint26_linear_2637_9350)"/>
<path d="M184.918 191.823C186.186 195.008 187.451 198.19 188.713 201.369C188.529 218.931 187.61 237.971 185.593 258.253C184.096 273.343 182.139 287.593 179.902 300.938L173.783 300.166C171.293 294.056 168.514 284.873 169.074 273.862C169.658 262.378 173.25 261.133 173.912 250.145C174.766 235.904 169.107 231.628 167.301 214.263C166.434 205.747 166.763 197.152 168.28 188.727L184.918 191.823Z" fill="url(#paint27_linear_2637_9350)"/>
<path style="mix-blend-mode:multiply" opacity="0.3" d="M168.28 188.727L177.265 190.399C181.946 200.298 182.676 210.271 181.372 214.553C179.534 220.607 175.795 222.298 175.496 228.499C175.198 234.701 178.68 236.515 180.393 243.92C181.574 249.042 180.788 253.604 179.167 262.516C175.901 280.473 171.086 285.659 174.274 291.883C175.193 293.657 176.893 295.811 180.444 297.639C180.265 298.742 180.086 299.849 179.902 300.938L173.783 300.166C171.293 294.052 168.514 284.873 169.074 273.862C169.658 262.378 173.25 261.133 173.912 250.145C174.766 235.904 169.107 231.628 167.301 214.268C166.434 205.75 166.763 197.153 168.28 188.727V188.727Z" fill="url(#paint28_linear_2637_9350)"/>
<path d="M176.355 196.683C172.285 211.907 168.454 228.246 165.096 245.629C161.04 266.622 158.183 286.486 156.203 304.985L149.445 304.635C141.999 286.412 142.408 274.496 144.305 266.866C145.035 263.926 146.841 258.193 147.842 249.488C148.545 243.415 148.527 238.757 148.485 233.148C148.403 220.855 147.328 218.09 147.888 208.737C148.416 199.958 148.738 195.525 151.444 193.118C158.582 186.852 175.101 195.976 176.355 196.683Z" fill="url(#paint29_linear_2637_9350)"/>
<path d="M241.733 161.307C241.733 161.307 246.681 160.884 247.397 160.08C248.114 159.276 249.198 157.995 249.308 157.26C249.418 156.525 250.369 157.623 249.501 159.217C248.633 160.811 251.095 160.475 251.476 160.439C252.358 160.347 255.726 160.25 255.611 160.439C255.496 160.627 256.01 161.569 253.622 162.653C251.527 163.599 249.028 162.984 247.677 163.048L246.299 163.112L242.693 163.388L241.733 161.307Z" fill="url(#paint30_linear_2637_9350)"/>
<path d="M244.632 158.996C244.852 160.644 245.071 162.293 245.289 163.944C242.009 166.677 234.765 171.918 224.686 172.704C206.922 174.082 189.314 160.939 186.021 146.148C184.394 138.825 185.722 128.549 190.274 126.895C191.538 126.436 193.44 126.5 197.349 129.132C207.795 136.147 208.681 145.362 214.451 151.591C218.604 156.075 226.772 160.622 244.632 158.996Z" fill="url(#paint31_linear_2637_9350)"/>
<path d="M190.182 204.64C192.622 201.24 190.182 197.579 190.118 190.762C190.035 183.035 193.095 181.997 197.009 169.521C199.632 161.224 202.149 153.259 200.684 143.58C199.981 138.94 198.786 131.076 192.695 126.831C189.553 124.644 185.033 124.475 176.126 124.231C165.101 123.923 159.588 123.772 155.339 125.609C154.714 125.88 141.728 131.65 139.987 142.606C138.218 153.764 150.327 156.254 150.755 171.363C150.952 178.143 148.816 188.359 147.433 195.016C146.106 201.387 145.412 202.995 146.515 205.044C149.197 209.987 158.683 209.399 177.651 208.227C185.129 207.759 188.363 207.175 190.182 204.64Z" fill="url(#paint32_linear_2637_9350)"/>
<path style="mix-blend-mode:multiply" opacity="0.3" d="M164.242 170.012C163.213 172.865 160.185 174.817 157.631 181.758C157.08 183.256 153.152 193.927 156.896 196.917C159.06 198.654 161.348 195.875 166.934 195.939C176.603 196.045 180.54 204.492 186.999 202.788C188.646 202.31 190.113 201.35 191.211 200.032C191.363 201.745 191.211 203.211 190.182 204.626C188.345 207.161 185.129 207.745 177.687 208.209C158.72 209.38 149.234 209.968 146.551 205.025C145.435 202.977 146.129 201.35 147.47 194.997C148.848 188.359 150.989 178.124 150.791 171.344C150.364 156.235 138.255 153.746 140.023 142.587C140.52 139.75 141.708 137.079 143.483 134.81C158.476 142.344 167.466 161.036 164.242 170.012Z" fill="url(#paint33_linear_2637_9350)"/>
<path d="M142.876 190.528L145.821 192.76C146.915 191.653 148.335 190.925 149.873 190.684C152.169 190.367 154.733 191.29 154.733 192.021C154.733 192.604 153.102 193.063 152.849 193.132C150.81 193.706 149.39 192.981 148.527 193.716C148.075 194.186 147.55 194.582 146.974 194.887C146.788 194.981 146.597 195.063 146.4 195.13C145.022 195.539 142.95 193.054 142.771 192.834L142.876 190.528Z" fill="url(#paint34_linear_2637_9350)"/>
<path d="M155.307 150.562C157.985 145.367 160.199 137.24 157.631 124.745C133.528 132.095 119.857 152.955 123.123 170.632C125.82 185.203 139.201 193.27 142.215 194.979C143.069 193.383 143.925 191.792 144.783 190.206C141.498 185.897 137.892 179.64 139.027 172.897C140.575 163.558 149.891 161.077 155.307 150.562Z" fill="url(#paint35_linear_2637_9350)"/>
<path d="M176.461 113.119C176.461 113.119 175.951 117.193 174.435 120.152C173.057 122.825 166.897 124.084 165.624 124.603C164.352 125.122 167.719 127.208 171.219 127.846C174.72 128.485 184.858 128.489 186.783 127.299C188.708 126.11 185.405 125.944 182.979 124.819C180.554 123.693 179.474 118.649 180.095 116.449C180.715 114.249 176.461 113.119 176.461 113.119Z" fill="url(#paint36_linear_2637_9350)"/>
<path d="M182.162 112.085C184.137 110.431 184.408 110.247 184.656 109.637C185.658 107.206 183.995 103.633 181.523 102.59C181.395 102.535 179.736 101.855 179.029 102.539C178.427 103.123 179.167 104.055 178.685 105.231C178.225 106.334 177.247 106.343 175.308 107.68C173.714 108.782 172.722 109.467 172.419 110.519C171.803 112.687 174.215 116.095 176.581 116.196C177.435 116.233 177.697 115.815 182.162 112.085Z" fill="url(#paint37_linear_2637_9350)"/>
<path d="M176.787 116.569C177.36 117.262 178.102 117.796 178.941 118.118C179.781 118.44 180.689 118.539 181.578 118.406C184.284 117.947 184.096 111.819 182.231 110.689C181.806 110.492 181.346 110.383 180.878 110.368C180.41 110.353 179.943 110.432 179.507 110.601C178.965 110.813 178.799 111.061 177.903 111.387C177.081 111.69 176.833 111.621 176.599 111.846C176.365 112.071 176.139 112.825 176.838 114.561C176.268 114.102 175.625 113.941 175.202 114.194C175.061 114.291 174.949 114.424 174.876 114.579C174.559 115.347 175.285 116.178 176.787 116.569Z" fill="url(#paint38_linear_2637_9350)"/>
<path d="M153.217 121.819C153.217 121.819 166.566 117.138 167.604 129.275C168.643 141.412 160.507 169.856 150.778 171.358C147.962 166.153 149.4 163.42 152.523 160.218C155.647 157.016 166.047 128.43 153.217 126.078L151.568 126.955C151.568 126.955 149.4 124.139 153.217 121.819Z" fill="url(#paint39_linear_2637_9350)"/>
<path d="M185.355 124.736C185.355 124.736 206.945 135.963 198.58 164.504C198.58 164.504 207.795 148.518 201.139 134.13C194.482 119.743 187.652 121.516 185.355 124.736Z" fill="url(#paint40_linear_2637_9350)"/>
<path d="M168.243 136.809C168.185 136.983 168.062 137.128 167.899 137.214C167.736 137.3 167.547 137.319 167.37 137.268C164.851 136.584 162.195 136.584 159.676 137.268C159.5 137.319 159.311 137.299 159.149 137.214C158.987 137.128 158.865 136.983 158.807 136.809V136.809C158.783 136.718 158.777 136.624 158.789 136.532C158.802 136.439 158.833 136.35 158.882 136.269C158.93 136.189 158.993 136.12 159.069 136.065C159.145 136.01 159.231 135.971 159.322 135.95C162.073 135.201 164.973 135.201 167.724 135.95C167.816 135.97 167.902 136.009 167.978 136.063C168.054 136.118 168.119 136.188 168.167 136.268C168.216 136.348 168.248 136.438 168.261 136.531C168.274 136.624 168.268 136.718 168.243 136.809V136.809Z" fill="white"/>
<path d="M202.935 137.851C202.861 138.205 202.613 138.398 202.383 138.311C201.614 137.97 200.781 137.794 199.94 137.794C199.098 137.794 198.265 137.97 197.496 138.311C197.266 138.407 197.036 138.219 196.94 137.851C196.897 137.691 196.906 137.522 196.965 137.368C197.025 137.213 197.132 137.082 197.271 136.992C198.111 136.62 199.02 136.427 199.94 136.427C200.859 136.427 201.768 136.62 202.609 136.992C202.747 137.082 202.854 137.214 202.912 137.368C202.971 137.523 202.979 137.692 202.935 137.851V137.851Z" fill="white"/>
<path d="M396.964 101.621C396.964 132.858 352.828 190.647 332.588 215.545C327.535 221.769 318.035 222.013 312.941 216.004C292.365 191.795 246.286 133.928 246.286 101.731C246.286 60.1255 280.83 26.8899 322.785 27.4917C364.032 28.0935 396.964 61.2739 396.964 101.621Z" fill="url(#paint41_linear_2637_9350)"/>
<path d="M338.133 251.38C338.133 259.727 331.274 266.728 322.785 266.999C314.296 267.27 307.341 260.724 307.341 252.327C307.341 243.93 314.268 236.924 322.785 236.699C331.302 236.474 338.133 243.029 338.133 251.38Z" fill="url(#paint42_linear_2637_9350)"/>
<path d="M399.629 101.621C399.629 132.858 355.492 190.647 335.252 215.545C330.199 221.769 320.699 222.013 315.605 216.004C295.03 191.795 248.95 133.928 248.95 101.731C248.95 60.1255 283.495 26.8899 325.449 27.4917C366.696 28.0935 399.629 61.2739 399.629 101.621Z" fill="url(#paint43_linear_2637_9350)"/>
<path d="M367.1 101.644C367.1 124.3 348.542 142.836 325.449 143.047C302.136 143.263 283.077 124.759 283.077 101.703C283.077 78.6475 302.159 60.1256 325.449 60.3048C348.556 60.4839 367.1 78.992 367.1 101.644Z" fill="white"/>
<g style="mix-blend-mode:multiply" opacity="0.3">
<path style="mix-blend-mode:multiply" d="M325.128 185.323C329.905 154.269 350.563 144.163 347.026 115.039C342.947 81.4221 312.633 72.3174 311.898 42.1825C311.8 37.4569 312.419 32.7436 313.735 28.2039C277.257 33.2845 248.964 64.0946 248.964 101.703C248.964 133.901 295.043 191.768 315.619 215.977C317.048 217.635 318.888 218.89 320.954 219.615C323.02 220.34 325.24 220.511 327.392 220.111C323.75 206.67 323.616 195.075 325.128 185.323Z" fill="url(#paint44_linear_2637_9350)"/>
</g>
<path d="M340.797 251.38C340.797 259.727 333.938 266.728 325.449 266.999C316.96 267.27 310.005 260.724 310.005 252.327C310.005 243.93 316.932 236.924 325.449 236.699C333.966 236.474 340.797 243.029 340.797 251.38Z" fill="url(#paint45_linear_2637_9350)"/>
<defs>
<linearGradient id="paint0_linear_2637_9350" x1="63.2945" y1="91.1975" x2="154.209" y2="91.1975" gradientUnits="userSpaceOnUse">
<stop stop-color="#A737D5"/>
<stop offset="1" stop-color="#EF497A"/>
</linearGradient>
<linearGradient id="paint1_linear_2637_9350" x1="142.224" y1="66.1112" x2="204.152" y2="66.1112" gradientUnits="userSpaceOnUse">
<stop stop-color="#A737D5"/>
<stop offset="1" stop-color="#EF497A"/>
</linearGradient>
<linearGradient id="paint2_linear_2637_9350" x1="169.882" y1="178.262" x2="271.192" y2="178.262" gradientUnits="userSpaceOnUse">
<stop stop-color="#A737D5"/>
<stop offset="1" stop-color="#EF497A"/>
</linearGradient>
<linearGradient id="paint3_linear_2637_9350" x1="103.627" y1="198.943" x2="192.548" y2="198.943" gradientUnits="userSpaceOnUse">
<stop stop-color="#B37CFF"/>
<stop offset="1" stop-color="#F895E7"/>
</linearGradient>
<linearGradient id="paint4_linear_2637_9350" x1="258.624" y1="189.843" x2="351.293" y2="189.843" gradientUnits="userSpaceOnUse">
<stop stop-color="#A737D5"/>
<stop offset="1" stop-color="#EF497A"/>
</linearGradient>
<linearGradient id="paint5_linear_2637_9350" x1="137.864" y1="268.54" x2="77.4044" y2="116.411" gradientUnits="userSpaceOnUse">
<stop stop-color="#CE1567"/>
<stop offset="1" stop-color="#7A1DBC"/>
</linearGradient>
<linearGradient id="paint6_linear_2637_9350" x1="96.1841" y1="187.733" x2="117.398" y2="184.392" gradientUnits="userSpaceOnUse">
<stop stop-color="#2B3582"/>
<stop offset="1" stop-color="#150E42"/>
</linearGradient>
<linearGradient id="paint7_linear_2637_9350" x1="90.1288" y1="282.792" x2="82.8273" y2="214.912" gradientUnits="userSpaceOnUse">
<stop stop-color="#7A2DDB"/>
<stop offset="1" stop-color="#7077FF"/>
</linearGradient>
<linearGradient id="paint8_linear_2637_9350" x1="77.4534" y1="236.907" x2="91.8457" y2="233.433" gradientUnits="userSpaceOnUse">
<stop stop-color="#2B3582"/>
<stop offset="1" stop-color="#150E42"/>
</linearGradient>
<linearGradient id="paint9_linear_2637_9350" x1="355.658" y1="296.734" x2="401.54" y2="108.438" gradientUnits="userSpaceOnUse">
<stop stop-color="#7A2DDB"/>
<stop offset="1" stop-color="#7077FF"/>
</linearGradient>
<linearGradient id="paint10_linear_2637_9350" x1="366.182" y1="205.54" x2="390.611" y2="205.54" gradientUnits="userSpaceOnUse">
<stop stop-color="#2B3582"/>
<stop offset="1" stop-color="#150E42"/>
</linearGradient>
<linearGradient id="paint11_linear_2637_9350" x1="395.517" y1="176.498" x2="397.823" y2="158.817" gradientUnits="userSpaceOnUse">
<stop stop-color="#7A2DDB"/>
<stop offset="1" stop-color="#7077FF"/>
</linearGradient>
<linearGradient id="paint12_linear_2637_9350" x1="392.245" y1="272.826" x2="423.598" y2="190.16" gradientUnits="userSpaceOnUse">
<stop stop-color="#CE1567"/>
<stop offset="1" stop-color="#7A1DBC"/>
</linearGradient>
<linearGradient id="paint13_linear_2637_9350" x1="403.925" y1="213.181" x2="422.177" y2="217.509" gradientUnits="userSpaceOnUse">
<stop stop-color="#2B3582"/>
<stop offset="1" stop-color="#150E42"/>
</linearGradient>
<linearGradient id="paint14_linear_2637_9350" x1="300.662" y1="102.135" x2="361.928" y2="102.135" gradientUnits="userSpaceOnUse">
<stop stop-color="#53D8FF"/>
<stop offset="1" stop-color="#3840F7"/>
</linearGradient>
<linearGradient id="paint15_linear_2637_9350" x1="300.606" y1="133.901" x2="361.928" y2="133.901" gradientUnits="userSpaceOnUse">
<stop stop-color="#53D8FF"/>
<stop offset="1" stop-color="#3840F7"/>
</linearGradient>
<linearGradient id="paint16_linear_2637_9350" x1="319.813" y1="61.4623" x2="351.969" y2="176.76" gradientUnits="userSpaceOnUse">
<stop stop-color="#53D8FF"/>
<stop offset="1" stop-color="#3840F7"/>
</linearGradient>
<linearGradient id="paint17_linear_2637_9350" x1="312.715" y1="102.034" x2="350.067" y2="102.034" gradientUnits="userSpaceOnUse">
<stop stop-color="#53D8FF"/>
<stop offset="1" stop-color="#3840F7"/>
</linearGradient>
<linearGradient id="paint18_linear_2637_9350" x1="243.189" y1="217.121" x2="250.539" y2="434.89" gradientUnits="userSpaceOnUse">
<stop stop-color="#9F5699"/>
<stop offset="1" stop-color="#202278"/>
</linearGradient>
<linearGradient id="paint19_linear_2637_9350" x1="242.34" y1="217.121" x2="249.694" y2="434.959" gradientUnits="userSpaceOnUse">
<stop stop-color="#9F5699"/>
<stop offset="1" stop-color="#202278"/>
</linearGradient>
<linearGradient id="paint20_linear_2637_9350" x1="241.499" y1="217.157" x2="248.853" y2="434.959" gradientUnits="userSpaceOnUse">
<stop stop-color="#9F5699"/>
<stop offset="1" stop-color="#202278"/>
</linearGradient>
<linearGradient id="paint21_linear_2637_9350" x1="191.147" y1="131.81" x2="141.08" y2="168.326" gradientUnits="userSpaceOnUse">
<stop stop-color="#311944"/>
<stop offset="1" stop-color="#893976"/>
</linearGradient>
<linearGradient id="paint22_linear_2637_9350" x1="160.682" y1="141.829" x2="132.095" y2="162.676" gradientUnits="userSpaceOnUse">
<stop stop-color="#311944"/>
<stop offset="1" stop-color="#893976"/>
</linearGradient>
<linearGradient id="paint23_linear_2637_9350" x1="191.891" y1="267.863" x2="175.005" y2="328.803" gradientUnits="userSpaceOnUse">
<stop stop-color="#311944"/>
<stop offset="1" stop-color="#893976"/>
</linearGradient>
<linearGradient id="paint24_linear_2637_9350" x1="176.861" y1="310.947" x2="176.617" y2="290.39" gradientUnits="userSpaceOnUse">
<stop stop-color="#FFC444"/>
<stop offset="1" stop-color="#F36F56"/>
</linearGradient>
<linearGradient id="paint25_linear_2637_9350" x1="170.751" y1="262.006" x2="153.864" y2="322.941" gradientUnits="userSpaceOnUse">
<stop stop-color="#311944"/>
<stop offset="1" stop-color="#893976"/>
</linearGradient>
<linearGradient id="paint26_linear_2637_9350" x1="153.093" y1="311.232" x2="152.849" y2="290.675" gradientUnits="userSpaceOnUse">
<stop stop-color="#FFC444"/>
<stop offset="1" stop-color="#F36F56"/>
</linearGradient>
<linearGradient id="paint27_linear_2637_9350" x1="188.713" y1="244.835" x2="166.823" y2="244.835" gradientUnits="userSpaceOnUse">
<stop stop-color="#444B8C"/>
<stop offset="1" stop-color="#26264F"/>
</linearGradient>
<linearGradient id="paint28_linear_2637_9350" x1="188.713" y1="244.835" x2="166.823" y2="244.835" gradientUnits="userSpaceOnUse">
<stop stop-color="#444B8C"/>
<stop offset="1" stop-color="#26264F"/>
</linearGradient>
<linearGradient id="paint29_linear_2637_9350" x1="176.355" y1="247.958" x2="143.129" y2="247.958" gradientUnits="userSpaceOnUse">
<stop stop-color="#444B8C"/>
<stop offset="1" stop-color="#26264F"/>
</linearGradient>
<linearGradient id="paint30_linear_2637_9350" x1="253.893" y1="155.96" x2="233.336" y2="176.884" gradientUnits="userSpaceOnUse">
<stop stop-color="#FFC444"/>
<stop offset="1" stop-color="#F36F56"/>
</linearGradient>
<linearGradient id="paint31_linear_2637_9350" x1="155.436" y1="94.3856" x2="253.815" y2="194.97" gradientUnits="userSpaceOnUse">
<stop stop-color="#6165D7"/>
<stop offset="1" stop-color="#AA80F9"/>
</linearGradient>
<linearGradient id="paint32_linear_2637_9350" x1="109.572" y1="251.9" x2="183.724" y2="145.44" gradientUnits="userSpaceOnUse">
<stop stop-color="#6165D7"/>
<stop offset="1" stop-color="#AA80F9"/>
</linearGradient>
<linearGradient id="paint33_linear_2637_9350" x1="109.576" y1="251.904" x2="183.733" y2="145.445" gradientUnits="userSpaceOnUse">
<stop stop-color="#AA80F9"/>
<stop offset="1" stop-color="#6165D7"/>
</linearGradient>
<linearGradient id="paint34_linear_2637_9350" x1="154.733" y1="192.852" x2="142.771" y2="192.852" gradientUnits="userSpaceOnUse">
<stop stop-color="#FFC444"/>
<stop offset="1" stop-color="#F36F56"/>
</linearGradient>
<linearGradient id="paint35_linear_2637_9350" x1="88.7762" y1="237.411" x2="162.928" y2="130.956" gradientUnits="userSpaceOnUse">
<stop stop-color="#6165D7"/>
<stop offset="1" stop-color="#AA80F9"/>
</linearGradient>
<linearGradient id="paint36_linear_2637_9350" x1="182.359" y1="132.895" x2="170.487" y2="115.299" gradientUnits="userSpaceOnUse">
<stop stop-color="#FFC444"/>
<stop offset="1" stop-color="#F36F56"/>
</linearGradient>
<linearGradient id="paint37_linear_2637_9350" x1="172.06" y1="126.518" x2="180.926" y2="103.995" gradientUnits="userSpaceOnUse">
<stop stop-color="#444B8C"/>
<stop offset="1" stop-color="#3E4177"/>
</linearGradient>
<linearGradient id="paint38_linear_2637_9350" x1="191.376" y1="119.433" x2="172.357" y2="108.983" gradientUnits="userSpaceOnUse">
<stop stop-color="#FFC444"/>
<stop offset="1" stop-color="#F36F56"/>
</linearGradient>
<linearGradient id="paint39_linear_2637_9350" x1="170.985" y1="133.166" x2="143.653" y2="153.098" gradientUnits="userSpaceOnUse">
<stop stop-color="#444B8C"/>
<stop offset="1" stop-color="#26264F"/>
</linearGradient>
<linearGradient id="paint40_linear_2637_9350" x1="202.999" y1="136.404" x2="188.832" y2="146.736" gradientUnits="userSpaceOnUse">
<stop stop-color="#444B8C"/>
<stop offset="1" stop-color="#26264F"/>
</linearGradient>
<linearGradient id="paint41_linear_2637_9350" x1="312.04" y1="74.7197" x2="386.941" y2="267.647" gradientUnits="userSpaceOnUse">
<stop stop-color="#311944"/>
<stop offset="1" stop-color="#893976"/>
</linearGradient>
<linearGradient id="paint42_linear_2637_9350" x1="342.561" y1="221.769" x2="293.087" y2="296.868" gradientUnits="userSpaceOnUse">
<stop stop-color="#311944"/>
<stop offset="1" stop-color="#893976"/>
</linearGradient>
<linearGradient id="paint43_linear_2637_9350" x1="314.704" y1="74.7197" x2="389.605" y2="267.647" gradientUnits="userSpaceOnUse">
<stop stop-color="#FF9085"/>
<stop offset="1" stop-color="#FB6FBB"/>
</linearGradient>
<linearGradient id="paint44_linear_2637_9350" x1="288.084" y1="85.0741" x2="363.003" y2="278.043" gradientUnits="userSpaceOnUse">
<stop stop-color="#FF9085"/>
<stop offset="1" stop-color="#FB6FBB"/>
</linearGradient>
<linearGradient id="paint45_linear_2637_9350" x1="345.225" y1="221.769" x2="295.751" y2="296.868" gradientUnits="userSpaceOnUse">
<stop stop-color="#FF9085"/>
<stop offset="1" stop-color="#FB6FBB"/>
</linearGradient>
</defs>
</svg>
