<svg width="348" height="353" viewBox="0 0 348 353" fill="none" xmlns="http://www.w3.org/2000/svg">
<path d="M147.762 0.364444C100.828 1.19541 28.2145 19.0392 7.31265 64.8968C0.012309 80.9138 0.506836 104.46 1.49591 151.549C1.78524 165.393 2.26964 185.564 5.65067 210.598C12.6785 262.595 17.4625 297.993 35.5687 318.589C80.9385 370.236 244.823 368.746 314.799 275.762C352.979 225.064 358.843 152.901 323.942 93.2706C285.503 27.6146 210.592 -0.745746 147.762 0.364444Z" fill="#F4F7FA"/>
<path d="M176.57 26.4135L142.46 309.936C141.948 314.188 144.879 318.01 148.983 318.404L291.061 334.004C299.764 334.545 304.517 330.098 305.066 325.576L340.878 24.1427C341.413 19.6481 337.14 15.5774 328.4 15.5774L185.031 18.6052C180.876 18.6657 177.081 22.2015 176.57 26.4135Z" fill="url(#paint0_linear_2637_8999)"/>
<path d="M170.178 25.9257L135.88 310.875C135.365 315.147 138.305 318.976 142.423 319.386L289.718 334.051C294.334 334.512 298.566 331.171 299.108 326.626L335.122 23.6279C335.657 19.1098 332.266 15.4764 327.596 15.5538L178.672 18.0669C174.504 18.1409 170.689 21.6733 170.178 25.9257Z" fill="url(#paint1_linear_2637_8999)"/>
<path d="M172.97 41.64L141.178 305.839C140.697 309.832 143.449 313.401 147.308 313.778L285.833 327.235C287.902 327.435 289.968 326.825 291.597 325.532C293.225 324.24 294.288 322.365 294.563 320.305L327.842 40.402C328.343 36.1967 325.194 32.7921 320.857 32.8359L180.906 34.3262C177.02 34.3868 173.448 37.677 172.97 41.64Z" fill="url(#paint2_linear_2637_8999)"/>
<path d="M247.255 25.7273C247.202 26.0717 247.226 26.4236 247.325 26.7576C247.425 27.0916 247.597 27.3994 247.83 27.6587C248.062 27.9181 248.35 28.1227 248.671 28.2576C248.992 28.3925 249.34 28.4544 249.688 28.4389C250.449 28.4118 251.176 28.1179 251.743 27.6087C252.309 27.0995 252.678 26.4073 252.786 25.6533C252.839 25.3083 252.815 24.9558 252.715 24.6213C252.616 24.2868 252.443 23.9787 252.209 23.7191C251.976 23.4596 251.688 23.2552 251.366 23.1208C251.044 22.9863 250.696 22.9252 250.347 22.9417C249.587 22.971 248.862 23.2658 248.297 23.7748C247.732 24.2837 247.363 24.9747 247.255 25.7273Z" fill="url(#paint3_linear_2637_8999)"/>
<g style="mix-blend-mode:soft-light">
<g style="mix-blend-mode:soft-light">
<path d="M196.919 218.988C225.28 166.557 267.642 150.863 280.399 96.8232C287.292 67.6151 282.596 39.6585 274.68 16.4487L327.592 15.5572C332.262 15.4765 335.666 19.1098 335.118 23.6313L299.107 326.619C298.566 331.164 294.334 334.505 289.718 334.044L173.928 322.515C173.074 275.527 184.28 242.359 196.919 218.988Z" fill="white"/>
</g>
</g>
<path d="M301.385 58.6427L302.078 62.3803L287.828 62.414L164.162 62.7067C160.983 62.7067 158.056 65.3442 157.619 68.5806L128.098 265.875C127.661 269.142 132.744 274.127 135.906 274.37L190.77 278.588V278.521L272.833 284.815L273.032 284.9C274.729 285.03 276.413 284.513 277.744 283.452C279.075 282.391 279.954 280.864 280.204 279.18V279.18L307.851 68.5335C308.306 65.1256 304.908 58.6326 301.385 58.6427Z" fill="url(#paint4_linear_2637_8999)"/>
<path d="M277.429 275.073C277.179 276.76 276.302 278.291 274.972 279.359C273.642 280.427 271.958 280.953 270.256 280.832L132.996 270.292C129.837 270.05 127.637 267.204 128.078 263.941L154.911 64.5436C155.348 61.3106 158.275 58.6798 161.451 58.6697L299.498 58.2896C303.024 58.2896 305.52 61.0415 305.072 64.4595L277.429 275.073Z" fill="white"/>
<g style="mix-blend-mode:soft-light" opacity="0.4">
<path d="M305.046 64.4595L277.415 275.059C276.961 278.508 273.543 281.071 270.041 280.802L187.604 274.487C183.515 270.3 180.304 265.337 178.161 259.89C177.01 256.958 176.169 253.914 175.651 250.807C174.121 241.912 174.716 231.806 176.946 221.874C178.655 214.253 181.292 206.869 184.799 199.889C187.402 194.654 190.631 189.754 194.414 185.295C197.021 182.288 199.837 179.364 202.824 176.498C206.407 173.04 210.225 169.662 214.148 166.314C223.302 158.513 233.109 150.886 242.189 142.829C263.134 124.248 280.127 103.484 276.04 73.8625C275.908 72.9306 274.63 65.7884 273.012 58.3871L299.303 58.3165C302.788 58.2828 305.493 61.0448 305.046 64.4595Z" fill="white"/>
</g>
<path d="M255.073 338.381H255.184C261.257 339.349 268.87 338.673 273.789 334.629C276.383 332.573 278.124 329.628 278.673 326.364C279.049 324.373 279.112 322.335 278.858 320.325C278.499 318.242 277.768 316.241 276.699 314.417C276.114 313.398 275.467 312.416 274.761 311.477C272.759 308.785 268.032 305.014 270.222 301.203C271.548 298.901 274.596 297.482 276.614 295.867C280.931 292.415 284.032 287.436 284.076 281.737C284.11 277.27 281.311 272.849 278.152 269.848C265.297 257.633 274.767 236.62 256.564 238.272C238.36 239.923 234.407 258.087 241.226 275.053C243.511 280.731 246.273 286.535 247.837 292.472C249.058 297.142 247.332 300.375 243.527 303.134C241.482 304.621 238.481 305.633 236.712 307.383C232.738 311.292 229.556 316.772 230.505 322.522C231.453 328.271 236.294 332.389 241.405 334.552C245.789 336.378 250.379 337.663 255.073 338.381V338.381Z" fill="url(#paint5_linear_2637_8999)"/>
<g style="mix-blend-mode:soft-light" opacity="0.8">
<g style="mix-blend-mode:soft-light">
<path d="M257.217 333.499C257.26 333.498 257.303 333.49 257.344 333.476C257.391 333.459 257.434 333.433 257.47 333.4C257.507 333.367 257.536 333.327 257.557 333.282C257.578 333.237 257.589 333.188 257.591 333.139C257.593 333.09 257.584 333.041 257.567 332.995C257.493 332.786 249.947 311.723 256.557 294.844C263.269 277.687 255.76 259.325 255.683 259.143C255.643 259.054 255.57 258.984 255.48 258.948C255.389 258.912 255.288 258.913 255.198 258.95C255.109 258.988 255.037 259.059 254.998 259.148C254.96 259.237 254.958 259.338 254.993 259.429C255.067 259.611 262.458 277.704 255.858 294.572C249.149 311.729 256.789 333.038 256.867 333.26C256.894 333.331 256.942 333.391 257.005 333.434C257.067 333.477 257.141 333.499 257.217 333.499Z" fill="white"/>
</g>
</g>
<path d="M251.235 306.743C252.748 304.368 254.449 302.118 256.322 300.015C262.475 293.081 266.791 285.717 269.553 276.836C271.73 269.838 271.683 261.838 273.035 254.612C274.014 249.377 275.787 244.31 277.627 239.325C281.55 228.714 287.437 216.397 297.318 210.026C301.893 207.075 308.676 206.783 313.722 208.899C320.259 211.637 326.038 216.973 326.459 224.391C327.034 234.594 318.122 246.029 325.493 255.412C336.78 269.777 331.505 285.741 315.989 293.552C310.943 296.096 305.009 298.457 300.783 302.367C296.558 306.276 299.071 312.977 299.542 317.946C299.986 322.606 300.47 328.022 297.5 332.005C292.49 338.734 280.389 341.661 272.524 342.323C264.91 342.966 256.261 342.128 250.932 336.032C242.899 326.845 245.519 315.79 251.235 306.743Z" fill="url(#paint6_linear_2637_8999)"/>
<g style="mix-blend-mode:soft-light" opacity="0.8">
<g style="mix-blend-mode:soft-light">
<path d="M263.635 335.992C263.709 335.989 263.78 335.965 263.84 335.922C263.9 335.879 263.945 335.819 263.971 335.75C264.217 335.097 288.83 270.148 302.872 243.971C302.895 243.928 302.91 243.88 302.915 243.832C302.92 243.783 302.916 243.734 302.902 243.687C302.888 243.64 302.864 243.596 302.833 243.558C302.802 243.52 302.764 243.489 302.72 243.466C302.633 243.419 302.53 243.409 302.435 243.437C302.34 243.466 302.26 243.53 302.212 243.617C288.147 269.835 263.524 334.831 263.272 335.484C263.249 335.54 263.241 335.6 263.247 335.66C263.253 335.719 263.273 335.776 263.306 335.826C263.339 335.876 263.384 335.918 263.437 335.946C263.489 335.975 263.548 335.991 263.608 335.992H263.635Z" fill="white"/>
</g>
</g>
<path d="M274.26 345.166C272.621 344.934 270.99 344.665 269.362 344.403C264.82 343.676 259.188 342.26 257.758 337.19C257.351 335.743 258.054 333.153 258.223 331.666C258.379 330.134 258.628 328.613 258.966 327.111C259.467 325.056 260.241 323.079 261.267 321.23C263.037 318.004 265.062 315.575 268.827 314.838C271.658 314.339 274.536 314.149 277.409 314.273C292.625 314.771 294.496 309.284 302.852 297.559C311.209 285.835 366.211 304.796 333.036 325.624C333.036 325.624 328.047 328.867 309.823 326.747C306.492 326.357 302.28 326.101 299.454 328.254C294.475 332.053 299.485 340.106 294.455 343.265C291.522 345.109 286.808 345.651 283.441 345.779C280.368 345.848 277.296 345.643 274.26 345.166V345.166Z" fill="url(#paint7_linear_2637_8999)"/>
<g style="mix-blend-mode:soft-light" opacity="0.8">
<g style="mix-blend-mode:soft-light">
<path d="M264.103 338.902C264.162 338.902 264.22 338.888 264.272 338.861C264.325 338.834 264.371 338.795 264.405 338.747C264.503 338.616 274.135 325.519 287.8 322.431C293.146 321.22 297.765 318.515 302.233 315.897C309.768 311.487 316.884 307.319 327.387 309.458C327.435 309.469 327.485 309.469 327.533 309.46C327.582 309.451 327.628 309.433 327.669 309.406C327.71 309.379 327.746 309.344 327.774 309.304C327.801 309.263 327.821 309.217 327.831 309.169C327.85 309.071 327.83 308.97 327.775 308.887C327.72 308.804 327.635 308.746 327.538 308.725C316.753 306.528 309.18 310.962 301.856 315.252C297.438 317.839 292.867 320.517 287.635 321.701C273.69 324.853 263.897 338.185 263.8 338.31C263.771 338.35 263.75 338.395 263.739 338.442C263.728 338.49 263.726 338.54 263.734 338.588C263.742 338.636 263.759 338.683 263.785 338.725C263.81 338.766 263.844 338.803 263.884 338.831C263.947 338.877 264.024 338.902 264.103 338.902V338.902Z" fill="white"/>
</g>
</g>
<path d="M110.712 60.5873C110.712 83.1006 92.5687 102.566 70.1227 104.066C47.5993 105.57 29.2844 88.4329 29.2844 65.7783C29.2844 43.1237 47.5993 23.6516 70.1227 22.2857C92.5687 20.9232 110.712 38.074 110.712 60.5873Z" fill="url(#paint8_linear_2637_8999)"/>
<path d="M115.529 62.0305C115.529 84.5439 97.3861 104.006 74.9401 105.506C52.3998 107.013 34.1018 89.8728 34.1018 67.2215C34.1018 44.5703 52.4166 25.0948 74.9401 23.729C97.3861 22.3664 115.529 39.5172 115.529 62.0305Z" fill="url(#paint9_linear_2637_8999)"/>
<path d="M73.5068 86.744C72.6566 86.8096 71.8046 86.6419 71.0428 86.2589C70.281 85.8759 69.6381 85.2922 69.1837 84.5707L53.8361 59.9245C52.3996 57.6166 53.1633 54.4543 55.5654 52.8596C57.9674 51.265 61.0625 51.8504 62.499 54.1582L73.1434 71.2686L87.1856 42.6728C88.4472 40.1059 91.475 38.9284 93.9477 40.042C96.4204 41.1555 97.4061 44.1362 96.1479 46.7031L77.9811 83.7095C77.5775 84.5396 76.9704 85.2542 76.2163 85.7865C75.4622 86.3189 74.5856 86.6517 73.6682 86.7541L73.5068 86.744Z" fill="white"/>
<path d="M273.334 98.6197C274.458 98.6399 275.562 97.7854 275.689 96.7122L278.983 70.2627C279.016 70.0114 278.993 69.7558 278.916 69.5143C278.839 69.2727 278.71 69.051 278.538 68.8648C278.366 68.6786 278.155 68.5326 277.921 68.4369C277.686 68.3413 277.433 68.2985 277.18 68.3115H254.976C254.437 68.3169 253.918 68.5132 253.51 68.8656C253.102 69.2179 252.832 69.7034 252.749 70.2358C252.706 70.4772 252.719 70.7251 252.785 70.9612C252.85 71.1973 252.969 71.4156 253.13 71.6002C253.291 71.7847 253.492 71.9308 253.717 72.0277C253.942 72.1246 254.186 72.1699 254.431 72.1601L274.495 72.2039L271.467 96.6516C271.445 96.9071 271.477 97.1646 271.561 97.4068C271.646 97.649 271.781 97.8705 271.957 98.0566C272.134 98.2427 272.348 98.3891 272.585 98.4862C272.823 98.5833 273.078 98.6288 273.334 98.6197V98.6197Z" fill="url(#paint10_linear_2637_8999)"/>
<path d="M241.882 175.435L263.706 176.713C264.237 176.749 264.762 176.585 265.178 176.253C265.594 175.921 265.871 175.446 265.953 174.92L269.2 148.847C269.223 148.59 269.192 148.33 269.109 148.086C269.025 147.841 268.892 147.616 268.717 147.426C268.541 147.236 268.328 147.085 268.091 146.982C267.854 146.879 267.598 146.827 267.339 146.829C266.226 146.782 265.136 147.603 265.005 148.659L262.011 172.767L242.263 171.643C241.746 171.613 241.238 171.78 240.839 172.109C240.44 172.439 240.181 172.907 240.113 173.42C240.086 173.67 240.112 173.924 240.188 174.164C240.265 174.404 240.39 174.626 240.556 174.815C240.722 175.004 240.926 175.157 241.154 175.264C241.383 175.371 241.631 175.429 241.882 175.435V175.435Z" fill="url(#paint11_linear_2637_8999)"/>
<path d="M172.593 96.978C173.083 96.9699 173.552 96.7808 173.91 96.4472C174.269 96.1136 174.491 95.6591 174.534 95.1714L177.205 71.9987L195.779 72.039C196.296 72.0286 196.793 71.8365 197.182 71.4962C197.572 71.156 197.829 70.6895 197.909 70.1786C197.948 69.9466 197.936 69.7086 197.873 69.4817C197.81 69.2549 197.698 69.0447 197.545 68.8663C197.391 68.6879 197.2 68.5457 196.985 68.4498C196.77 68.3539 196.536 68.3066 196.301 68.3115H175.977C175.475 68.3257 174.993 68.5189 174.62 68.8562C174.247 69.1936 174.007 69.6529 173.942 70.1517L171.072 95.1142C170.958 96.1268 171.587 96.9611 172.593 96.978Z" fill="url(#paint12_linear_2637_8999)"/>
<path d="M164.176 170.873L184.17 172.047C184.666 172.071 185.153 171.908 185.534 171.588C185.916 171.269 186.162 170.818 186.225 170.325C186.246 170.084 186.217 169.841 186.141 169.611C186.065 169.382 185.943 169.17 185.783 168.989C185.622 168.808 185.426 168.662 185.207 168.559C184.989 168.456 184.751 168.398 184.509 168.39L166.218 167.361L168.852 144.484C168.967 143.475 168.341 142.63 167.342 142.59C166.86 142.581 166.394 142.755 166.036 143.077C165.679 143.4 165.458 143.846 165.417 144.326L162.588 168.952C162.555 169.184 162.57 169.421 162.633 169.647C162.697 169.873 162.807 170.083 162.956 170.264C163.106 170.445 163.292 170.593 163.502 170.698C163.712 170.802 163.942 170.862 164.176 170.873V170.873Z" fill="url(#paint13_linear_2637_8999)"/>
<path d="M246.589 193.881C246.509 194.385 246.246 194.842 245.851 195.165C245.456 195.488 244.956 195.655 244.446 195.634L171.813 192.983C171.59 192.98 171.37 192.929 171.168 192.833C170.967 192.737 170.789 192.599 170.646 192.427C170.504 192.256 170.4 192.056 170.342 191.84C170.284 191.625 170.274 191.399 170.312 191.179L171.739 180.596C171.808 180.13 172.048 179.707 172.412 179.408C172.775 179.109 173.237 178.956 173.707 178.977L246.404 180.996C247.454 181.026 248.197 181.766 248.063 182.792L246.589 193.881Z" fill="#F4F7FA"/>
<path d="M243.787 215.385C243.713 215.901 243.456 216.372 243.062 216.714C242.668 217.055 242.164 217.242 241.644 217.242L169.064 213.656C168.835 213.633 168.614 213.564 168.413 213.452C168.212 213.34 168.036 213.189 167.897 213.007C167.757 212.824 167.655 212.615 167.599 212.393C167.543 212.17 167.533 211.938 167.57 211.711L169.01 200.922C169.072 200.438 169.306 199.992 169.668 199.664C170.03 199.337 170.497 199.149 170.985 199.136L243.608 202.066C243.854 202.079 244.093 202.143 244.313 202.254C244.532 202.365 244.726 202.52 244.881 202.71C245.037 202.9 245.152 203.12 245.218 203.357C245.283 203.594 245.299 203.841 245.263 204.085L243.787 215.385Z" fill="#F4F7FA"/>
<path d="M248.066 182.749C247.887 182.694 247.702 182.663 247.514 182.658L174.82 180.656C174.351 180.635 173.89 180.789 173.527 181.088C173.164 181.387 172.925 181.809 172.856 182.274L171.426 192.858V192.939C171.06 192.835 170.746 192.599 170.543 192.278C170.34 191.956 170.262 191.571 170.326 191.196L171.756 180.609C171.826 180.145 172.065 179.723 172.428 179.425C172.791 179.126 173.251 178.973 173.72 178.994L246.421 181.013C247.437 181.026 248.16 181.743 248.066 182.749Z" fill="#AABBCC"/>
<path d="M245.267 203.846C245.087 203.777 244.898 203.737 244.705 203.728L172.082 200.798C171.594 200.811 171.128 200.999 170.766 201.326C170.405 201.654 170.172 202.1 170.111 202.584L168.667 213.373C168.667 213.444 168.667 213.508 168.667 213.578C168.297 213.442 167.985 213.181 167.786 212.841C167.586 212.5 167.511 212.101 167.574 211.711L169.014 200.919C169.145 199.94 170.023 199.095 170.989 199.136L243.609 202.066C244.062 202.09 244.487 202.289 244.797 202.621C245.106 202.953 245.275 203.392 245.267 203.846V203.846Z" fill="#AABBCC"/>
<path d="M224.472 232.818C224.53 232.437 224.509 232.047 224.409 231.674C224.31 231.301 224.134 230.953 223.893 230.651C223.652 230.35 223.352 230.101 223.01 229.921C222.669 229.741 222.294 229.633 221.909 229.605L184.337 227.446C182.78 227.358 181.343 228.667 181.131 230.248L179.58 241.935C179.368 243.52 180.448 245.034 182.006 245.141L219.564 247.708C221.196 247.819 222.696 246.443 222.928 244.818L224.472 232.818Z" fill="url(#paint14_linear_2637_8999)"/>
<path d="M67.1353 145.493L112.29 162.005L100.848 177.907L69.4061 155.115L67.1353 145.493Z" fill="white"/>
<path d="M100.259 177.342L103.697 164.508C103.764 164.255 103.894 164.024 104.075 163.835C104.255 163.646 104.481 163.506 104.73 163.428L110.739 161.517H110.762H110.809H110.86H110.9H110.941C111.191 161.473 111.448 161.498 111.685 161.589C111.923 161.68 112.13 161.835 112.286 162.035C112.162 162.138 112.012 162.205 111.852 162.227C111.692 162.25 111.529 162.228 111.381 162.163L107.082 175.997L100.845 177.938C100.765 177.963 100.68 177.967 100.599 177.948C100.517 177.929 100.442 177.888 100.382 177.83C100.322 177.773 100.278 177.699 100.256 177.619C100.234 177.538 100.234 177.453 100.256 177.373L100.259 177.342Z" fill="url(#paint15_linear_2637_8999)"/>
<path d="M101.285 177.339L104.67 164.918C104.737 164.671 104.864 164.444 105.04 164.257C105.216 164.07 105.436 163.93 105.679 163.848L111.839 161.83C111.906 161.809 111.977 161.806 112.045 161.823C112.114 161.84 112.176 161.875 112.226 161.924C112.275 161.974 112.31 162.036 112.328 162.104C112.345 162.172 112.343 162.244 112.323 162.311L108.256 175.431C108.205 175.589 108.117 175.732 108 175.849C107.883 175.966 107.74 176.053 107.583 176.104L101.864 177.881C101.784 177.905 101.698 177.908 101.617 177.888C101.535 177.869 101.46 177.828 101.4 177.77C101.346 177.713 101.307 177.644 101.287 177.569C101.267 177.494 101.266 177.415 101.285 177.339V177.339Z" fill="url(#paint16_linear_2637_8999)"/>
<path d="M118.117 172.616C120.667 174.86 116.004 191.681 102.769 196.693C92.34 200.65 79.8924 196.266 73.9041 187.586C70.4591 182.584 67.3371 173.648 71.1656 169.305C71.3371 169.107 73.5004 166.728 76.582 166.896C83.7175 167.29 84.1784 180.69 91.832 182.348C93.6318 182.735 94.2778 182.136 109.302 175.586C116.549 172.424 117.508 172.081 118.117 172.616Z" fill="url(#paint17_linear_2637_8999)"/>
<path d="M98.6343 179.31C98.6343 179.31 97.995 176.817 99.5291 175.67C101.063 174.523 101.699 171.519 101.955 172.602C102.098 173.381 102.098 174.179 101.955 174.957C101.955 174.957 107.445 170.166 107.381 171.828C107.317 173.49 103.361 179.045 100.804 180.128C98.2474 181.211 98.6746 181.389 98.6343 179.31Z" fill="url(#paint18_linear_2637_8999)"/>
<path d="M117.43 172.794C117.43 172.794 117.514 169.261 119.348 168.451C121.181 167.64 123.264 163.556 123.136 165.642C123.008 167.727 121.134 168.706 121.134 168.706C121.134 168.706 124.162 169.796 122.836 171.489C121.511 173.181 120.027 173.507 118.497 174.284C118.497 174.284 118.079 175.573 117.026 175.381C115.973 175.189 116.878 173.369 117.43 172.794Z" fill="url(#paint19_linear_2637_8999)"/>
<path d="M53.2106 216.673C43.0203 221.555 33.3415 220.098 26.5727 219.079C18.9225 217.928 11.5549 216.821 8.66502 211.102C5.80207 205.447 8.3588 197.309 12.8769 192.895C18.1857 187.697 23.4809 190.284 27.1749 185.218C30.9562 180.027 26.502 175.815 29.8662 170.018C34.1388 162.725 43.3232 165.817 47.7774 158.432C51.441 152.377 46.9498 147.418 50.6336 143.532C55.7472 138.149 70.6574 141.026 73.0426 147.374C73.9778 149.857 72.5615 151.707 71.5186 155.196C68.1914 166.298 74.9939 172.589 75.6163 182.661C76.4775 196.269 65.7725 210.651 53.2106 216.673Z" fill="url(#paint20_linear_2637_8999)"/>
<path d="M46.3072 332.456C46.3072 332.456 56.5075 333.748 56.8977 336.066C57.3519 338.757 45.557 336.402 45.557 336.402C45.557 336.402 43.7437 335.8 46.3072 332.456Z" fill="url(#paint21_linear_2637_8999)"/>
<path d="M46.9499 326.942L46.7009 332.634C46.7009 332.634 47.9491 334.216 49.3923 333.072L50.5294 326.942H46.9499Z" fill="url(#paint22_linear_2637_8999)"/>
<path d="M62.9198 335.215C62.9198 335.215 73.1202 336.507 73.5071 338.825C73.9612 341.516 62.1662 339.161 62.1662 339.161C62.1662 339.161 60.3596 338.559 62.9198 335.215Z" fill="url(#paint23_linear_2637_8999)"/>
<path d="M63.5693 329.691L63.3203 335.386C63.3203 335.386 64.5651 336.968 65.9948 335.824L67.1319 329.691H63.5693Z" fill="url(#paint24_linear_2637_8999)"/>
<path d="M77.3253 235.829C76.5711 247.326 74.758 258.728 71.909 269.892C70.6272 274.918 69.3387 279.106 66.4388 287.81C62.977 298.205 58.0955 312.405 51.7304 329.553L46.1929 330.401C42.3745 316.476 43.4713 305.529 47.3939 296.826C49.7186 291.668 51.0946 291.621 53.4765 285.865C56.0164 279.749 57.056 273.586 56.4134 252.781C56.2317 246.887 55.8919 239.059 55.2023 229.794L77.3253 235.829Z" fill="url(#paint25_linear_2637_8999)"/>
<path style="mix-blend-mode:multiply" opacity="0.3" d="M77.3252 235.829C76.5709 247.326 74.7578 258.728 71.9088 269.892C70.6271 274.918 69.3386 279.106 66.4386 287.81C62.9768 298.205 58.0954 312.405 51.7303 329.553L46.1927 330.401C42.9294 317.405 45.3214 310.579 48.2886 306.727C50.1221 304.345 52.4266 302.774 54.1087 298.676C56.0869 293.855 54.684 291.672 55.7135 286.03C57.0995 278.42 60.3864 278.292 61.5504 272.354C62.9196 265.337 59.034 261.959 56.4132 252.781C54.9532 247.671 53.6714 240.018 55.2021 229.794L77.3252 235.829Z" fill="url(#paint26_linear_2637_8999)"/>
<path d="M64.5411 234.534C69.1838 240.381 82.2234 258.369 82.6002 284.553C82.9366 308.974 72.0871 326.37 67.7304 332.624L62.2838 332.13C61.6235 324.743 61.9277 317.302 63.1887 309.993C65.5639 296.291 69.3217 294.811 68.7565 286.996C68.0467 277.196 61.8498 275.624 52.2012 257.821C47.0035 248.226 40.7932 236.764 44.8269 232.522C45.5939 231.718 49.3349 228.428 64.5411 234.534Z" fill="url(#paint27_linear_2637_8999)"/>
<path d="M69.2615 162.826C75.7981 164.017 79.7175 168.498 80.7974 169.77C82.1431 171.351 86.1061 176.498 86.1801 189.706C86.2508 202.355 82.641 203.819 81.5442 215.822C79.9294 233.521 86.7386 241.831 81.9917 245.821C77.9546 249.219 73.0361 243.183 59.4211 243.836C48.1847 244.378 46.0181 248.751 36.3594 247.658C34.8826 247.49 21.9842 245.895 19.9926 239.146C18.6099 234.46 23.6932 231.385 30.6773 220.034C37.3587 209.171 40.6455 199.058 42.2771 194.036C47.199 178.88 45.1569 174.735 50.7213 169.194C51.4177 168.491 59.2025 160.982 69.2615 162.826Z" fill="url(#paint28_linear_2637_8999)"/>
<path d="M62.6574 150.789C62.6574 150.789 64.003 160.037 58.9163 165.002C58.8333 165.08 58.7732 165.18 58.7427 165.289C58.7122 165.399 58.7124 165.515 58.7433 165.625C58.7742 165.734 58.8346 165.834 58.9179 165.911C59.0012 165.989 59.1043 166.042 59.2158 166.065C61.5708 166.563 67.0544 167.361 72.3732 165.574C72.4768 165.537 72.5685 165.472 72.6388 165.388C72.7092 165.303 72.7557 165.201 72.7735 165.092C72.7913 164.984 72.7799 164.872 72.7403 164.77C72.7006 164.667 72.6343 164.576 72.5481 164.508C71.438 163.616 69.5674 161.911 68.5683 159.862C67.0914 156.834 66.829 151.646 66.829 151.646L62.6574 150.789Z" fill="url(#paint29_linear_2637_8999)"/>
<g style="mix-blend-mode:multiply" opacity="0.3">
<path style="mix-blend-mode:multiply" d="M30.6804 220.017C37.3618 209.154 40.6486 199.042 42.2802 194.019C47.2021 178.863 45.16 174.718 50.7244 169.177C52.5187 167.469 54.5518 166.031 56.7598 164.908C55.7005 168.22 55.3778 171.723 55.8145 175.172C57.5706 188.088 70.0418 192.579 68.4538 200.606C67.0072 207.94 55.9053 207.634 54.3241 215.503C52.6824 223.604 63.431 228.919 61.2476 234.615C59.1416 240.112 48.3358 237.225 37.6208 243.796C36.0407 244.766 34.5551 245.882 33.1834 247.13C28.8099 246.255 21.4726 244.082 20.0125 239.13C18.613 234.447 23.703 231.372 30.6804 220.017Z" fill="url(#paint30_linear_2637_8999)"/>
</g>
<path d="M62.5025 154.079C62.5025 154.079 64.7936 157.228 68.3899 155.916C71.6061 154.742 69.6851 146.429 67.1351 145.487C66.2805 145.17 64.7196 145.312 63.6733 145.964C62.9366 146.422 60.9819 148.861 62.0988 151.593C61.2881 151.357 60.5715 151.572 60.3932 151.973C60.1645 152.484 60.8541 153.181 61.0088 153.339C61.4169 153.736 61.9394 153.995 62.5025 154.079V154.079Z" fill="url(#paint31_linear_2637_8999)"/>
<path d="M102.412 179.479L98.7789 178.109C98.0657 179.405 93.3087 187.751 84.407 189.02C76.0132 190.214 68.1309 184.518 64.4672 178.927C60.9954 173.632 61.6985 169.019 58.4487 168.017C55.1989 167.014 51.1181 170.641 49.1937 173.134C44.6319 179.028 44.7933 187.822 47.6125 194.126C52.1946 204.377 64.5043 209.625 75.0006 208.559C91.2599 206.904 98.7923 190.533 100.061 187.58C101.173 184.986 101.963 182.265 102.412 179.479V179.479Z" fill="url(#paint32_linear_2637_8999)"/>
<path d="M44.2249 140.148C43.9964 140.153 43.7749 140.068 43.6086 139.911C43.4423 139.754 43.3446 139.538 43.3367 139.31V127.72C43.3367 127.493 43.4268 127.276 43.587 127.116C43.7473 126.956 43.9646 126.866 44.1912 126.866H53.4327C53.6543 126.867 53.8662 126.957 54.0219 127.115C54.1777 127.272 54.2645 127.485 54.2636 127.707C54.2677 127.815 54.2501 127.922 54.2121 128.023C54.174 128.124 54.1161 128.216 54.0419 128.295C53.9676 128.373 53.8784 128.436 53.7796 128.479C53.6808 128.523 53.5743 128.546 53.4664 128.548L45.1063 128.568V139.276C45.1002 139.507 45.0051 139.727 44.8408 139.889C44.6765 140.052 44.4558 140.144 44.2249 140.148V140.148Z" fill="url(#paint33_linear_2637_8999)"/>
<path d="M53.4327 174.143L44.1912 174.712C44.0814 174.72 43.9711 174.705 43.8672 174.669C43.7633 174.632 43.6682 174.575 43.5878 174.499C43.5074 174.424 43.4436 174.333 43.4004 174.231C43.3572 174.13 43.3355 174.021 43.3367 173.911V162.321C43.3466 162.089 43.4434 161.869 43.6078 161.704C43.7723 161.54 43.9925 161.443 44.2249 161.433C44.3365 161.426 44.4483 161.442 44.5537 161.479C44.6591 161.517 44.7558 161.575 44.8381 161.651C44.9204 161.726 44.9866 161.818 45.0327 161.92C45.0788 162.022 45.1038 162.132 45.1063 162.244V172.959L53.4664 172.461C53.5732 172.454 53.6802 172.469 53.7807 172.506C53.8811 172.543 53.9726 172.6 54.0494 172.675C54.1262 172.749 54.1864 172.839 54.2262 172.939C54.266 173.038 54.2845 173.145 54.2805 173.251C54.2745 173.479 54.1845 173.695 54.028 173.86C53.8714 174.025 53.6593 174.126 53.4327 174.143Z" fill="url(#paint34_linear_2637_8999)"/>
<path d="M86.365 139.424C86.2645 139.423 86.1654 139.401 86.0737 139.359C85.9821 139.318 85.8997 139.259 85.8318 139.185C85.7638 139.111 85.7116 139.024 85.6783 138.929C85.6451 138.834 85.6314 138.734 85.6382 138.634V128.477L77.9006 128.494C77.6876 128.491 77.4843 128.405 77.335 128.253C77.1856 128.101 77.1024 127.896 77.1033 127.683C77.0988 127.579 77.1149 127.476 77.1508 127.378C77.1867 127.281 77.2416 127.191 77.3124 127.115C77.3831 127.039 77.4683 126.978 77.5629 126.935C77.6575 126.892 77.7598 126.869 77.8636 126.866H86.3414C86.5487 126.872 86.7452 126.96 86.8877 127.111C87.0302 127.261 87.1071 127.462 87.1017 127.67V138.603C87.1085 138.706 87.0948 138.809 87.0612 138.906C87.0277 139.003 86.975 139.093 86.9063 139.169C86.8377 139.246 86.7545 139.308 86.6615 139.351C86.5685 139.395 86.4677 139.42 86.365 139.424V139.424Z" fill="url(#paint35_linear_2637_8999)"/>
<path d="M86.3414 172.111L77.8804 172.632C77.7776 172.638 77.6746 172.622 77.5782 172.586C77.4819 172.55 77.3941 172.494 77.3207 172.421C77.2472 172.349 77.1897 172.262 77.1516 172.167C77.1136 172.071 77.096 171.968 77.0999 171.865C77.1066 171.646 77.1936 171.438 77.3444 171.279C77.4952 171.12 77.6991 171.022 77.9174 171.004L85.6551 170.547V160.393C85.6429 160.186 85.712 159.982 85.8477 159.825C85.9834 159.668 86.175 159.57 86.3818 159.552C86.4813 159.551 86.58 159.57 86.6717 159.608C86.7634 159.647 86.846 159.705 86.9141 159.777C86.9822 159.85 87.0344 159.936 87.0673 160.03C87.1002 160.124 87.1131 160.224 87.1051 160.323V171.26C87.1077 171.472 87.0307 171.677 86.8892 171.834C86.7478 171.992 86.5522 172.091 86.3414 172.111V172.111Z" fill="url(#paint36_linear_2637_8999)"/>
<path d="M214.643 165.302C190.622 165.302 172.96 145.194 175.227 120.931C177.454 97.1596 198.064 78.1686 221.216 78.1686C244.369 78.1686 262.115 97.1596 260.752 120.931C259.363 145.194 238.666 165.302 214.643 165.302Z" fill="#AABBCC"/>
<path d="M259.077 120.931C257.731 144.269 237.883 163.532 214.777 163.532C191.672 163.532 174.743 144.269 176.906 120.931C179.032 98.0545 198.797 79.8171 221.092 79.8171C243.386 79.8171 260.406 98.0478 259.077 120.931Z" fill="#EAEDF3"/>
<path d="M215.78 91.168C207.954 90.9426 200.17 95.0166 196.375 100.706C191.773 107.599 196.836 111.057 193.246 122.378C189.905 132.901 184.055 134.711 184.375 141.682C184.731 149.362 192.139 154.26 195.073 156.202C208.328 164.965 230.192 164.612 241.997 153.302C242.979 152.363 251.053 144.639 249.442 137.574C248.009 131.29 240.207 131.246 239.013 124.753C238.004 119.182 243.42 117.392 243.437 109.378C243.437 107.817 243.454 100.457 237.825 97.0722C234.081 94.8215 229.751 95.4641 228.167 95.7803C224.638 92.9555 220.296 91.3386 215.78 91.168Z" fill="url(#paint37_linear_2637_8999)"/>
<path d="M170.447 149.513C170.447 149.513 212.836 127.014 261.2 149.439C261.2 149.439 253.674 168.996 215.144 170.341C175.274 171.737 170.447 149.513 170.447 149.513Z" fill="url(#paint38_linear_2637_8999)"/>
<path d="M211.826 120.305L209.471 130.933C208.671 134.58 205.771 137.641 201.996 138.825L189.32 142.802C189.32 142.802 212.112 153.722 242.743 142.802L229.485 138.284C227.683 137.645 226.131 136.451 225.053 134.872C223.975 133.294 223.426 131.414 223.487 129.503L223.759 120.42L211.826 120.305Z" fill="url(#paint39_linear_2637_8999)"/>
<path d="M230.666 111.219C230.041 120.11 223.665 129.695 216.594 129.641C209.522 129.587 204.483 119.808 205.206 110.818C205.929 101.896 212.035 97.1697 219.043 97.3245C226.051 97.4792 231.289 102.394 230.666 111.219Z" fill="url(#paint40_linear_2637_8999)"/>
<path d="M224.204 103.121C220.395 103.232 214.582 103.986 210.286 107.865C203.039 114.405 205.378 125.039 202.32 125.641C199.595 126.179 196.086 118.576 196.853 110.32C197.492 103.457 200.654 95.464 207.282 93.5969C211.164 92.5002 212.126 94.4447 224.254 95.8408C231.319 96.655 228.318 99.5986 229.839 100.753C236.621 105.88 234.586 122.432 230.7 122.603C228.846 122.684 226.629 118.3 224.204 103.121Z" fill="url(#paint41_linear_2637_8999)"/>
<defs>
<linearGradient id="paint0_linear_2637_8999" x1="243.427" y1="167.482" x2="299.417" y2="173.588" gradientUnits="userSpaceOnUse">
<stop stop-color="#444B8C"/>
<stop offset="1" stop-color="#26264F"/>
</linearGradient>
<linearGradient id="paint1_linear_2637_8999" x1="194.094" y1="26.3429" x2="332.545" y2="497.686" gradientUnits="userSpaceOnUse">
<stop stop-color="#444B8C"/>
<stop offset="1" stop-color="#26264F"/>
</linearGradient>
<linearGradient id="paint2_linear_2637_8999" x1="141.128" y1="180.067" x2="327.899" y2="180.067" gradientUnits="userSpaceOnUse">
<stop stop-color="#AA80F9"/>
<stop offset="1" stop-color="#6165D7"/>
</linearGradient>
<linearGradient id="paint3_linear_2637_8999" x1="245.974" y1="14.7331" x2="408.691" y2="455.425" gradientUnits="userSpaceOnUse">
<stop stop-color="#FFC444"/>
<stop offset="1" stop-color="#F36F56"/>
</linearGradient>
<linearGradient id="paint4_linear_2637_8999" x1="128.071" y1="171.781" x2="307.898" y2="171.781" gradientUnits="userSpaceOnUse">
<stop stop-color="#311944"/>
<stop offset="1" stop-color="#893976"/>
</linearGradient>
<linearGradient id="paint5_linear_2637_8999" x1="284.086" y1="288.499" x2="230.346" y2="288.499" gradientUnits="userSpaceOnUse">
<stop stop-color="#FF9085"/>
<stop offset="1" stop-color="#FB6FBB"/>
</linearGradient>
<linearGradient id="paint6_linear_2637_8999" x1="331.539" y1="275.009" x2="245.869" y2="275.009" gradientUnits="userSpaceOnUse">
<stop stop-color="#FFC444"/>
<stop offset="1" stop-color="#F36F56"/>
</linearGradient>
<linearGradient id="paint7_linear_2637_8999" x1="343.573" y1="319.901" x2="257.634" y2="319.901" gradientUnits="userSpaceOnUse">
<stop stop-color="#E38DDD"/>
<stop offset="1" stop-color="#9571F6"/>
</linearGradient>
<linearGradient id="paint8_linear_2637_8999" x1="29.2844" y1="63.1845" x2="110.712" y2="63.1845" gradientUnits="userSpaceOnUse">
<stop stop-color="#444B8C"/>
<stop offset="1" stop-color="#26264F"/>
</linearGradient>
<linearGradient id="paint9_linear_2637_8999" x1="34.1018" y1="64.6277" x2="115.529" y2="64.6277" gradientUnits="userSpaceOnUse">
<stop stop-color="#AA80F9"/>
<stop offset="1" stop-color="#6165D7"/>
</linearGradient>
<linearGradient id="paint10_linear_2637_8999" x1="259.965" y1="89.2403" x2="276.255" y2="67.1441" gradientUnits="userSpaceOnUse">
<stop stop-color="#AA80F9"/>
<stop offset="1" stop-color="#6165D7"/>
</linearGradient>
<linearGradient id="paint11_linear_2637_8999" x1="251.989" y1="157.53" x2="265.577" y2="175.96" gradientUnits="userSpaceOnUse">
<stop stop-color="#AA80F9"/>
<stop offset="1" stop-color="#6165D7"/>
</linearGradient>
<linearGradient id="paint12_linear_2637_8999" x1="187.362" y1="86.5489" x2="174.416" y2="68.9945" gradientUnits="userSpaceOnUse">
<stop stop-color="#AA80F9"/>
<stop offset="1" stop-color="#6165D7"/>
</linearGradient>
<linearGradient id="paint13_linear_2637_8999" x1="180.028" y1="151.606" x2="165.074" y2="171.886" gradientUnits="userSpaceOnUse">
<stop stop-color="#AA80F9"/>
<stop offset="1" stop-color="#6165D7"/>
</linearGradient>
<linearGradient id="paint14_linear_2637_8999" x1="165.922" y1="187.284" x2="273.455" y2="336.52" gradientUnits="userSpaceOnUse">
<stop stop-color="#AA80F9"/>
<stop offset="1" stop-color="#6165D7"/>
</linearGradient>
<linearGradient id="paint15_linear_2637_8999" x1="101.78" y1="157.668" x2="103.485" y2="162.267" gradientUnits="userSpaceOnUse">
<stop stop-color="#444B8C"/>
<stop offset="1" stop-color="#26264F"/>
</linearGradient>
<linearGradient id="paint16_linear_2637_8999" x1="112.354" y1="169.877" x2="101.268" y2="169.877" gradientUnits="userSpaceOnUse">
<stop stop-color="#444B8C"/>
<stop offset="1" stop-color="#26264F"/>
</linearGradient>
<linearGradient id="paint17_linear_2637_8999" x1="118.786" y1="182.523" x2="69.4061" y2="182.523" gradientUnits="userSpaceOnUse">
<stop stop-color="#FFC444"/>
<stop offset="1" stop-color="#F36F56"/>
</linearGradient>
<linearGradient id="paint18_linear_2637_8999" x1="107.381" y1="176.205" x2="98.4997" y2="176.205" gradientUnits="userSpaceOnUse">
<stop stop-color="#311944"/>
<stop offset="1" stop-color="#A03976"/>
</linearGradient>
<linearGradient id="paint19_linear_2637_8999" x1="123.17" y1="170.227" x2="116.539" y2="170.227" gradientUnits="userSpaceOnUse">
<stop stop-color="#311944"/>
<stop offset="1" stop-color="#A03976"/>
</linearGradient>
<linearGradient id="paint20_linear_2637_8999" x1="61.9811" y1="172.649" x2="23.0033" y2="203.802" gradientUnits="userSpaceOnUse">
<stop stop-color="#311944"/>
<stop offset="1" stop-color="#893976"/>
</linearGradient>
<linearGradient id="paint21_linear_2637_8999" x1="61.9407" y1="322.246" x2="44.2852" y2="343.114" gradientUnits="userSpaceOnUse">
<stop stop-color="#444B8C"/>
<stop offset="1" stop-color="#3E4177"/>
</linearGradient>
<linearGradient id="paint22_linear_2637_8999" x1="48.9011" y1="324.537" x2="47.8986" y2="338.784" gradientUnits="userSpaceOnUse">
<stop stop-color="#311944"/>
<stop offset="1" stop-color="#893976"/>
</linearGradient>
<linearGradient id="paint23_linear_2637_8999" x1="72.9856" y1="331.588" x2="55.3268" y2="352.457" gradientUnits="userSpaceOnUse">
<stop stop-color="#444B8C"/>
<stop offset="1" stop-color="#3E4177"/>
</linearGradient>
<linearGradient id="paint24_linear_2637_8999" x1="65.6315" y1="325.718" x2="64.6289" y2="339.962" gradientUnits="userSpaceOnUse">
<stop stop-color="#311944"/>
<stop offset="1" stop-color="#893976"/>
</linearGradient>
<linearGradient id="paint25_linear_2637_8999" x1="77.3253" y1="280.106" x2="43.8278" y2="280.106" gradientUnits="userSpaceOnUse">
<stop stop-color="#444B8C"/>
<stop offset="1" stop-color="#3E4177"/>
</linearGradient>
<linearGradient id="paint26_linear_2637_8999" x1="77.3252" y1="280.106" x2="44.625" y2="280.106" gradientUnits="userSpaceOnUse">
<stop stop-color="#444B8C"/>
<stop offset="1" stop-color="#3E4177"/>
</linearGradient>
<linearGradient id="paint27_linear_2637_8999" x1="82.6103" y1="281.771" x2="43.5317" y2="281.771" gradientUnits="userSpaceOnUse">
<stop stop-color="#444B8C"/>
<stop offset="1" stop-color="#3E4177"/>
</linearGradient>
<linearGradient id="paint28_linear_2637_8999" x1="86.1835" y1="205.171" x2="19.7672" y2="205.171" gradientUnits="userSpaceOnUse">
<stop stop-color="#FFC444"/>
<stop offset="1" stop-color="#F36F56"/>
</linearGradient>
<linearGradient id="paint29_linear_2637_8999" x1="76.8678" y1="166.341" x2="59.8617" y2="157.16" gradientUnits="userSpaceOnUse">
<stop stop-color="#311944"/>
<stop offset="1" stop-color="#A03976"/>
</linearGradient>
<linearGradient id="paint30_linear_2637_8999" x1="86.1833" y1="206.022" x2="19.7669" y2="206.022" gradientUnits="userSpaceOnUse">
<stop stop-color="#FFC444"/>
<stop offset="1" stop-color="#F36F56"/>
</linearGradient>
<linearGradient id="paint31_linear_2637_8999" x1="52.8507" y1="142.368" x2="65.6448" y2="150.496" gradientUnits="userSpaceOnUse">
<stop stop-color="#311944"/>
<stop offset="1" stop-color="#A03976"/>
</linearGradient>
<linearGradient id="paint32_linear_2637_8999" x1="102.412" y1="188.279" x2="45.6075" y2="188.279" gradientUnits="userSpaceOnUse">
<stop stop-color="#FFC444"/>
<stop offset="1" stop-color="#F36F56"/>
</linearGradient>
<linearGradient id="paint33_linear_2637_8999" x1="50.4621" y1="135.754" x2="43.9119" y2="126.866" gradientUnits="userSpaceOnUse">
<stop stop-color="#AA80F9"/>
<stop offset="1" stop-color="#6165D7"/>
</linearGradient>
<linearGradient id="paint34_linear_2637_8999" x1="50.3478" y1="165.705" x2="43.764" y2="174.634" gradientUnits="userSpaceOnUse">
<stop stop-color="#AA80F9"/>
<stop offset="1" stop-color="#6165D7"/>
</linearGradient>
<linearGradient id="paint35_linear_2637_8999" x1="80.5213" y1="135.29" x2="86.6745" y2="126.946" gradientUnits="userSpaceOnUse">
<stop stop-color="#AA80F9"/>
<stop offset="1" stop-color="#6165D7"/>
</linearGradient>
<linearGradient id="paint36_linear_2637_8999" x1="80.4036" y1="163.798" x2="86.5332" y2="172.111" gradientUnits="userSpaceOnUse">
<stop stop-color="#AA80F9"/>
<stop offset="1" stop-color="#6165D7"/>
</linearGradient>
<linearGradient id="paint37_linear_2637_8999" x1="213.62" y1="83.3058" x2="209.724" y2="17.7574" gradientUnits="userSpaceOnUse">
<stop stop-color="#311944"/>
<stop offset="1" stop-color="#893976"/>
</linearGradient>
<linearGradient id="paint38_linear_2637_8999" x1="180.886" y1="-51.4984" x2="245.341" y2="319.12" gradientUnits="userSpaceOnUse">
<stop stop-color="#FFC444"/>
<stop offset="1" stop-color="#F36F56"/>
</linearGradient>
<linearGradient id="paint39_linear_2637_8999" x1="216.688" y1="152.911" x2="213.445" y2="103.269" gradientUnits="userSpaceOnUse">
<stop stop-color="#893976"/>
<stop offset="1" stop-color="#311944"/>
</linearGradient>
<linearGradient id="paint40_linear_2637_8999" x1="224.819" y1="107.838" x2="169.683" y2="147.071" gradientUnits="userSpaceOnUse">
<stop stop-color="#893976"/>
<stop offset="1" stop-color="#311944"/>
</linearGradient>
<linearGradient id="paint41_linear_2637_8999" x1="213.761" y1="83.2957" x2="209.869" y2="17.7473" gradientUnits="userSpaceOnUse">
<stop stop-color="#311944"/>
<stop offset="1" stop-color="#893976"/>
</linearGradient>
</defs>
</svg>
