<svg width="364" height="353" viewBox="0 0 364 353" fill="none" xmlns="http://www.w3.org/2000/svg">
<g style="mix-blend-mode:soft-light">
<path style="mix-blend-mode:soft-light" d="M196.951 254.337C194.302 254.488 188.394 252.481 187.072 251.323C178.265 243.617 160.841 230.262 159.274 217.991C159.007 215.896 167.914 212.232 168.849 210.084C173.957 206.37 175.959 205.399 179.081 199.486C188.296 182.018 155.4 158.655 185.548 142.603C207.63 130.845 228.967 135.203 219.597 99.2526C210.227 63.3026 226.635 -8.50774 269.872 9.67062C294.686 20.1042 278.1 55.2893 293.752 76.0032C308.625 95.6849 302.781 115.286 282.166 132.653C261.551 150.021 275.754 157.718 286.335 177.091C299.045 200.361 261.746 211.918 244.071 215.784C229.837 218.898 195.696 236.43 196.951 254.337Z" fill="url(#paint0_linear_2637_9273)"/>
<g style="mix-blend-mode:soft-light">
<g style="mix-blend-mode:soft-light">
<path d="M173.693 235.639L173.355 235.185C243.188 183.273 274.654 95.5546 257.527 0.538699L258.083 0.438477C266.2 45.4697 263.238 90.5769 249.518 130.886C235.094 173.263 208.874 209.486 173.693 235.639Z" fill="#FCFDFE"/>
</g>
<g style="mix-blend-mode:soft-light">
<path d="M292.728 186.156C269.133 183.046 231.922 189.83 209.785 201.289L209.525 200.786C231.759 189.284 269.114 182.47 292.806 185.596L292.728 186.156Z" fill="#FCFDFE"/>
</g>
<g style="mix-blend-mode:soft-light">
<path d="M187.284 225.292L186.835 224.946C194.685 214.636 197.021 200.754 193.778 183.682C191.4 171.164 186.133 157.257 178.125 142.346L178.622 142.079C186.658 157.041 191.945 171.003 194.333 183.576C197.607 200.813 195.236 214.846 187.284 225.292Z" fill="#FCFDFE"/>
</g>
<g style="mix-blend-mode:soft-light">
<path d="M251.242 125.089L250.776 124.77C264.573 104.578 288.585 95.3518 306.299 91.1724L306.428 91.7219C288.812 95.8794 264.938 105.039 251.242 125.089Z" fill="#FCFDFE"/>
</g>
<g style="mix-blend-mode:soft-light">
<path d="M261.895 70.1199L261.334 70.1833C258.214 42.8052 238.2 21.9242 226.544 11.9146L226.913 11.4861C238.631 21.5498 258.755 42.5494 261.895 70.1199Z" fill="#FCFDFE"/>
</g>
</g>
</g>
<g style="mix-blend-mode:soft-light">
<g style="mix-blend-mode:soft-light">
<path d="M198.124 269.567C195.603 268.727 190.861 264.679 190.06 263.116C184.726 252.701 173.471 233.849 176.555 221.875C177.082 219.829 186.708 219.714 188.375 218.067C194.494 216.505 196.714 216.34 201.802 211.999C216.822 199.177 194.896 165.306 228.842 161.542C253.706 158.777 271.926 170.72 276.505 133.853C281.084 96.9855 322.884 36.3357 356.338 69.2123C375.537 88.0807 347.122 114.642 354.002 139.674C360.545 163.461 347.866 179.514 322.292 188.026C296.718 196.538 307.067 208.945 309.735 230.857C312.941 257.176 274.012 254.127 256.16 251.183C241.782 248.807 203.578 252.468 198.124 269.567Z" fill="#FE8794"/>
</g>
<g style="mix-blend-mode:soft-light">
<g style="mix-blend-mode:soft-light">
<path d="M183.425 243.598L183.28 243.053C267.358 220.638 329.025 150.768 348.245 56.1533L348.799 56.2685C339.691 101.11 320.262 141.927 292.611 174.306C263.537 208.345 225.783 232.306 183.425 243.598Z" fill="#FCFDFE"/>
</g>
<g style="mix-blend-mode:soft-light">
<path d="M312.321 241.632C291.55 230.016 254.466 222.565 229.657 225.025L229.601 224.463C254.508 221.993 291.74 229.474 312.597 241.139L312.321 241.632Z" fill="#FCFDFE"/>
</g>
<g style="mix-blend-mode:soft-light">
<path d="M199.88 239.015L199.589 238.53C210.695 231.849 217.999 219.816 221.297 202.756C223.716 190.248 223.964 175.379 222.035 158.563L222.596 158.499C224.532 175.372 224.281 190.294 221.851 202.863C218.522 220.082 211.129 232.245 199.88 239.015Z" fill="#FCFDFE"/>
</g>
<g style="mix-blend-mode:soft-light">
<path d="M296.354 169.55L296.038 169.081C316.326 155.417 342.045 155.726 360.048 158.391L359.965 158.951C342.061 156.302 316.491 155.991 296.354 169.55Z" fill="#FCFDFE"/>
</g>
<g style="mix-blend-mode:soft-light">
<path d="M326.574 122.418L326.029 122.27C333.254 95.6791 322.377 68.8781 315.251 55.2685L315.751 55.0059C322.916 68.6892 333.85 95.6411 326.574 122.418Z" fill="#FCFDFE"/>
</g>
</g>
</g>
<path d="M319.694 162.398C313.315 120.646 308.195 91.7934 285.161 75.9823C246.309 49.3127 202.919 92.6067 147.884 63.5558C120.787 49.2528 119.776 32.6687 96.8223 30.4684C56.2205 26.5736 22.9695 75.0273 20.0884 79.1837C2.57934 104.431 -3.26355 135.221 3.82924 164.568C8.43719 183.631 11.5545 203.361 10.6997 222.949C9.21133 257.043 10.0673 288.865 43.1535 309.198C72.6951 327.352 109.874 343.362 145.343 346.167C169.448 348.073 196.48 344.989 219.712 338.713C338.111 306.73 328.464 219.802 319.694 162.398Z" fill="#F4F7FA"/>
<path d="M327.357 326.616L12.5417 323.851V332.038C12.5417 334.259 13.9149 336.149 15.7754 336.486L104.795 352.614C105.848 352.805 106.922 352.856 107.989 352.765L323.932 334.377C325.861 334.212 327.353 332.317 327.353 330.034L327.357 326.616Z" fill="url(#paint1_linear_2637_9273)"/>
<path d="M213.109 313.345L15.7939 328.321C12.2631 328.589 9.39233 325.741 9.39233 321.959V170.45C9.39233 166.668 12.2631 163.603 15.7939 163.603H213.109C216.017 163.603 218.369 166.373 218.369 169.792V306.752C218.369 310.173 216.017 313.124 213.109 313.345Z" fill="url(#paint2_linear_2637_9273)"/>
<path d="M216.255 313.345L18.9399 328.321C15.4091 328.589 12.5383 325.741 12.5383 321.959V170.45C12.5383 166.668 15.4091 163.603 18.9399 163.603H216.255C219.163 163.603 221.516 166.373 221.516 169.792V306.752C221.516 310.173 219.163 313.124 216.255 313.345Z" fill="url(#paint3_linear_2637_9273)"/>
<path d="M210.107 303.688L26.3297 316.698C23.4567 316.902 21.1216 314.565 21.1216 311.478V178.828C21.1216 175.742 23.4567 173.229 26.3297 173.216L210.107 172.399C212.507 172.388 214.448 174.659 214.448 177.468V298.29C214.448 301.107 212.504 303.518 210.107 303.688Z" fill="#D8DEE8"/>
<path d="M124.566 167.746C124.566 169.154 123.551 170.299 122.296 170.303C121.042 170.306 120.022 169.167 120.022 167.755C120.022 166.344 121.041 165.199 122.296 165.199C123.552 165.199 124.566 166.339 124.566 167.746Z" fill="white"/>
<g style="mix-blend-mode:soft-light" opacity="0.48">
<path d="M168.714 271.79C153.508 263 141.544 274.138 130.001 263.151C123.002 256.487 126.438 251.515 117.828 241.561C108.29 230.532 102.081 234.24 92.4966 224.314C80.3766 211.764 86.4383 201.998 75.999 192.988C63.3352 182.056 49.6773 192.174 37.6217 181.691C32.4228 177.17 29.5693 170.595 28.0798 163.605H16.2846C14.211 163.605 12.5383 165.404 12.5383 167.623V324.676C12.5383 326.896 14.2168 328.567 16.2846 328.409L217.38 313.077C218.366 313.002 219.242 312.385 219.799 311.486C205.079 310.91 196.035 305.61 190.254 300.129C178.949 289.409 180.911 278.838 168.714 271.79Z" fill="white"/>
</g>
<path d="M224.119 312.665L12.5383 328.43L104.792 345.134C105.845 345.326 106.919 345.377 107.985 345.286L327.357 326.616L227.48 312.772C226.366 312.618 225.24 312.582 224.119 312.665Z" fill="url(#paint4_linear_2637_9273)"/>
<path style="mix-blend-mode:multiply" opacity="0.3" d="M43.4116 328.826L219.559 315.506L274.074 323.002L99.4454 337.242L43.4116 328.826Z" fill="url(#paint5_linear_2637_9273)"/>
<path d="M226.138 109.465L53.8901 103.805C48.114 103.615 43.407 108.171 43.407 113.983V281.869C43.407 287.681 48.1094 292.191 53.8901 291.944L226.138 284.589C231.12 284.377 235.143 279.855 235.143 274.489V119.477C235.143 114.111 231.12 109.628 226.138 109.465Z" fill="url(#paint6_linear_2637_9273)"/>
<g style="mix-blend-mode:soft-light" opacity="0.74">
<path d="M53.8901 288.593C49.9606 288.756 46.7673 285.684 46.7673 281.734V114.078C46.7597 113.15 46.9402 112.23 47.298 111.373C47.6558 110.516 48.1833 109.74 48.8489 109.093C49.5145 108.446 50.3043 107.94 51.1707 107.606C52.0371 107.272 52.9622 107.117 53.8901 107.15L226.138 112.58C229.531 112.687 232.275 115.737 232.275 119.395V274.594C232.275 278.251 229.531 281.329 226.138 281.469L53.8901 288.593Z" fill="white"/>
</g>
<path d="M226.138 109.465L53.8901 103.805C48.114 103.615 43.407 108.171 43.407 113.983V121.531L235.138 126.445V119.477C235.143 114.111 231.12 109.628 226.138 109.465Z" fill="url(#paint7_linear_2637_9273)"/>
<path d="M62.0416 113.505C62.0457 113.949 61.96 114.389 61.7898 114.799C61.6196 115.209 61.3684 115.58 61.0511 115.891C60.7338 116.201 60.3571 116.445 59.9435 116.606C59.53 116.767 59.0881 116.843 58.6444 116.83C57.7314 116.796 56.8668 116.411 56.2318 115.754C55.5968 115.097 55.2406 114.22 55.2379 113.307C55.2338 112.862 55.3197 112.421 55.4905 112.011C55.6613 111.6 55.9134 111.228 56.2317 110.918C56.55 110.607 56.9278 110.364 57.3424 110.204C57.7571 110.043 58.2 109.968 58.6444 109.983C59.5555 110.019 60.4176 110.405 61.0506 111.062C61.6837 111.718 62.0387 112.593 62.0416 113.505Z" fill="white"/>
<path d="M73.9 113.849C73.9051 114.29 73.8212 114.727 73.6532 115.135C73.4852 115.542 73.2366 115.912 72.9223 116.221C72.608 116.53 72.2346 116.772 71.8244 116.933C71.4141 117.094 70.9756 117.171 70.535 117.158C68.6734 117.107 67.1609 115.537 67.1609 113.654C67.1558 113.212 67.2402 112.774 67.4088 112.366C67.5774 111.958 67.8268 111.589 68.1421 111.279C68.4573 110.97 68.8318 110.728 69.243 110.568C69.6543 110.407 70.0938 110.331 70.535 110.345C71.4397 110.382 72.295 110.768 72.9221 111.421C73.5492 112.074 73.8996 112.944 73.9 113.849Z" fill="white"/>
<path d="M85.6457 114.19C85.6457 116.061 84.155 117.531 82.313 117.484C80.471 117.437 78.9722 115.871 78.9722 113.997C78.9662 113.559 79.0488 113.124 79.2151 112.718C79.3815 112.313 79.6281 111.945 79.9402 111.637C80.2523 111.33 80.6233 111.088 81.0311 110.928C81.4389 110.767 81.8749 110.691 82.313 110.703C84.155 110.76 85.6457 112.321 85.6457 114.19Z" fill="white"/>
<g style="mix-blend-mode:soft-light" opacity="0.5">
<g style="mix-blend-mode:soft-light">
<path d="M159.184 174.004C139.065 144.729 104.243 154.043 82.2135 121.704C78.2414 115.87 75.5458 109.935 73.6969 104.461L53.8896 103.81C48.1135 103.62 43.4065 108.176 43.4065 113.988V281.869C43.4065 287.681 48.1089 292.191 53.8896 291.944L219.829 284.858C216.027 279.376 182.918 259.069 174.364 227.889C166.539 199.371 171.321 191.668 159.184 174.004Z" fill="white"/>
</g>
</g>
<path d="M225.782 171.3L56.2585 171.097V165.556L225.782 166.244V171.3Z" fill="white"/>
<path d="M225.782 159.511L56.2585 158.07V143.867L225.782 146.55V159.511Z" fill="white"/>
<path d="M82.4915 201.254L60.0059 201.387V179.906L82.4915 179.932V201.254ZM62.6301 198.443L79.1196 198.364V182.841H62.6301V198.443Z" fill="white"/>
<path d="M222.069 185.664L91.8606 185.739V179.942L222.069 180.079V185.664Z" fill="white"/>
<path d="M222.069 194.66L91.8606 195.079V189.604L222.069 189.386V194.66Z" fill="white"/>
<path d="M82.4915 232.91L60.0059 233.279V211.802L82.4915 211.598V232.91ZM62.6301 230.312L79.1196 230.056V214.533L62.6301 214.708V230.312Z" fill="white"/>
<path d="M222.069 216.068L91.8606 217.3V211.503L222.069 210.483V216.068Z" fill="white"/>
<path d="M222.069 225.065L91.8606 226.64V221.165L222.069 219.79V225.065Z" fill="white"/>
<path d="M82.4915 264.574L60.0059 265.181V243.699L82.4915 243.252V264.574ZM62.6289 262.501L79.1185 262.068V246.225L62.6289 246.571V262.501Z" fill="white"/>
<path d="M222.069 246.471L91.8606 248.861V243.064L222.069 240.886V246.471Z" fill="white"/>
<path d="M222.069 255.468L91.8606 258.201V252.726L222.069 250.193V255.468Z" fill="white"/>
<path d="M67.8221 200.26C67.1864 200.266 66.5727 200.028 66.108 199.594L59.3539 193.204C59.1285 192.995 58.9487 192.742 58.8258 192.46C58.7029 192.178 58.6394 191.874 58.6394 191.567C58.6394 191.26 58.7029 190.956 58.8258 190.674C58.9487 190.392 59.1285 190.139 59.3539 189.93C59.8204 189.494 60.435 189.25 61.0739 189.249C61.7128 189.247 62.3286 189.488 62.7972 189.922L67.4846 194.369L78.3133 179.475C78.6915 178.971 79.2482 178.63 79.8692 178.523C80.4903 178.416 81.1288 178.55 81.654 178.899C81.9102 179.063 82.1301 179.278 82.3003 179.531C82.4704 179.783 82.5873 180.067 82.6437 180.367C82.7001 180.666 82.6949 180.973 82.6283 181.27C82.5617 181.567 82.4352 181.848 82.2565 182.094L69.8151 199.253C69.607 199.535 69.3413 199.769 69.0356 199.941C68.7299 200.112 68.3912 200.216 68.0422 200.246C67.9661 200.256 67.8935 200.26 67.8221 200.26Z" fill="url(#paint8_linear_2637_9273)"/>
<path d="M68.4107 232.253C67.7751 232.259 67.1614 232.021 66.6965 231.587L59.9424 225.197C59.7172 224.988 59.5376 224.735 59.4148 224.453C59.2919 224.171 59.2285 223.867 59.2285 223.56C59.2285 223.253 59.2919 222.949 59.4148 222.667C59.5376 222.385 59.7172 222.132 59.9424 221.923C60.409 221.486 61.0236 221.243 61.6625 221.241C62.3014 221.24 62.9171 221.481 63.3857 221.915L68.0743 226.362L78.8961 211.468C79.2743 210.963 79.831 210.623 80.452 210.516C81.0731 210.409 81.7116 210.543 82.2369 210.892C82.493 211.056 82.7129 211.271 82.8831 211.523C83.0533 211.776 83.1701 212.06 83.2265 212.36C83.2829 212.659 83.2777 212.966 83.2111 213.263C83.1445 213.56 83.018 213.841 82.8393 214.087L70.3979 231.246C70.1901 231.528 69.9246 231.762 69.6191 231.934C69.3136 232.105 68.975 232.209 68.6261 232.239C68.5547 232.248 68.4833 232.252 68.4107 232.253Z" fill="url(#paint9_linear_2637_9273)"/>
<path d="M263.597 113.524C263.597 134.764 246.988 151.472 225.762 150.82C203.67 150.141 185.097 131.063 185.097 108.232C185.097 85.4009 203.676 68.8273 225.762 71.1266C246.988 73.3373 263.597 92.2852 263.597 113.524Z" fill="url(#paint10_linear_2637_9273)"/>
<path d="M269.332 111.693C269.332 132.933 252.724 149.64 231.498 148.99C209.406 148.311 190.827 129.232 190.827 106.401C190.827 83.5694 209.406 66.9957 231.498 69.2951C252.724 71.5057 269.332 90.4536 269.332 111.693Z" fill="url(#paint11_linear_2637_9273)"/>
<path d="M267.667 111.581C267.667 131.885 251.776 147.831 231.494 147.178C210.429 146.496 192.743 128.285 192.743 106.533C192.743 84.7813 210.43 68.953 231.498 71.1106C251.776 73.1888 267.667 91.2762 267.667 111.581Z" fill="url(#paint12_linear_2637_9273)"/>
<path d="M266.473 111.501C266.473 131.135 251.097 146.536 231.498 145.877C211.164 145.195 194.112 127.609 194.112 106.622C194.112 85.635 211.162 70.3481 231.498 72.4079C251.095 74.3962 266.473 91.8661 266.473 111.501Z" fill="url(#paint13_linear_2637_9273)"/>
<path d="M231.297 79.087C231.813 79.1479 232.289 79.3944 232.636 79.7804C232.983 80.1664 233.178 80.6656 233.184 81.1847V84.7997C235.293 85.0368 237.385 85.3995 239.45 85.886C240.991 86.2485 242.523 86.6797 244.044 87.1797C244.492 87.3287 244.877 87.6234 245.138 88.0167C245.399 88.4101 245.521 88.8794 245.484 89.35L245.041 93.8831C245.021 94.1588 244.933 94.4255 244.787 94.66C244.64 94.8944 244.439 95.0896 244.2 95.2285C243.961 95.3674 243.691 95.4459 243.415 95.4572C243.139 95.4685 242.864 95.4121 242.615 95.2931C241.612 94.8446 240.583 94.4598 239.532 94.1411C237.638 93.5737 235.689 93.2095 233.718 93.0548L233.184 93.0099V103.363C238.625 104.886 242.62 106.934 245.203 109.509C247.786 112.083 249.053 115.269 249.053 119.102C249.053 123.25 247.632 126.574 244.791 129.075C241.933 131.593 237.927 133.009 232.746 133.317V137.306C232.75 137.553 232.704 137.799 232.61 138.027C232.516 138.256 232.376 138.463 232.199 138.635C232.022 138.808 231.812 138.942 231.581 139.031C231.351 139.119 231.104 139.16 230.857 139.149H230.824C230.312 139.121 229.831 138.898 229.478 138.527C229.126 138.155 228.929 137.662 228.929 137.149V133.213L228.088 133.175C225.749 133.076 223.418 132.827 221.11 132.431C219.484 132.15 217.874 131.78 216.288 131.323C215.827 131.194 215.424 130.91 215.148 130.519C214.873 130.127 214.741 129.652 214.776 129.174L215.298 123.346C215.413 122.087 216.68 121.353 217.873 121.827C219.259 122.373 220.675 122.838 222.115 123.218C224.335 123.804 226.605 124.184 228.894 124.351L228.929 112.831C223.707 111.539 219.806 109.625 217.227 107.089C214.648 104.554 213.358 101.297 213.356 97.3206C213.356 93.2188 214.757 90.0554 217.558 87.8306C220.341 85.6199 224.298 84.5197 229.404 84.522V80.8311C229.397 80.5872 229.442 80.3447 229.537 80.1199C229.632 79.8952 229.774 79.6933 229.954 79.5281C230.133 79.3628 230.346 79.2379 230.578 79.1618C230.81 79.0857 231.055 79.0602 231.297 79.087ZM229.404 92.9108C227.791 93.0283 226.533 93.4718 225.63 94.2414C224.727 95.0109 224.275 96.0477 224.276 97.3517C224.276 98.5805 224.694 99.61 225.528 100.44C226.363 101.27 227.655 101.929 229.404 102.417V92.9108ZM232.744 113.762V124.322C234.5 124.322 235.847 123.904 236.784 123.066C237.722 122.229 238.191 121.044 238.19 119.511C238.19 118.115 237.754 116.957 236.883 116.036C236.013 115.115 234.635 114.357 232.75 113.761L232.744 113.762Z" fill="url(#paint14_linear_2637_9273)"/>
<path style="mix-blend-mode:multiply" opacity="0.3" d="M225.169 116.309C226.35 104.637 237.077 99.6961 235.677 88.9607C234.814 82.3437 229.802 76.7669 224.205 72.4136C207.235 74.1934 194.112 88.2442 194.112 106.628C194.112 127.615 211.162 145.201 231.498 145.883C233.428 145.947 235.36 145.853 237.275 145.602C229.2 137.56 224.153 126.336 225.169 116.309Z" fill="url(#paint15_linear_2637_9273)"/>
<path d="M216.535 170.634C216.535 170.634 217.457 167.201 216.803 166.324C216.148 165.446 212.187 161.936 212.568 163.081C212.792 163.76 213.113 164.402 213.522 164.988C213.522 164.988 211.385 165.98 212.758 167.468C214.131 168.955 214.59 169.299 214.666 170.634C214.742 171.97 215.623 172.43 216.535 170.634Z" fill="url(#paint16_linear_2637_9273)"/>
<path d="M254.649 318.835C254.649 318.835 255.134 321.804 255.073 322.867C255.012 323.93 243.284 324.464 243.165 323.674C243.046 322.883 245.104 321.623 246.552 321.178C248 320.734 252.237 319.548 252.237 319.548L254.649 318.835Z" fill="url(#paint17_linear_2637_9273)"/>
<path d="M251.803 315.875L252.177 319.561C252.177 319.561 253.54 320.461 254.739 319.766L255.341 315.748L251.803 315.875Z" fill="url(#paint18_linear_2637_9273)"/>
<path d="M275.573 323.648C275.573 323.648 276.058 326.618 275.996 327.674C275.935 328.731 264.207 329.271 264.088 328.481C263.97 327.691 266.027 326.43 267.475 325.986C268.923 325.541 273.16 324.356 273.16 324.356L275.573 323.648Z" fill="url(#paint19_linear_2637_9273)"/>
<path d="M272.726 320.691L273.098 324.377C273.098 324.377 274.46 325.277 275.66 324.583L276.262 320.563L272.726 320.691Z" fill="url(#paint20_linear_2637_9273)"/>
<path d="M253.931 219.484L249.864 227.726C248.774 243.41 248.232 260.463 248.58 278.701C248.84 292.27 249.564 305.124 250.606 317.19L256.12 316.937C258.778 311.662 261.915 303.672 262.204 293.807C262.504 283.518 259.385 282.151 259.583 272.3C259.84 259.53 265.194 256.123 268.047 240.764C269.138 234.889 269.873 227.218 268.999 217.91L253.931 219.484Z" fill="url(#paint21_linear_2637_9273)"/>
<path style="mix-blend-mode:multiply" opacity="0.3" d="M268.999 217.912L260.862 218.761C255.979 227.258 254.616 236.103 255.472 240.015C256.685 245.545 259.891 247.323 259.714 252.879C259.541 258.379 256.301 259.804 254.246 266.285C252.823 270.778 253.199 274.897 254.008 282.966C255.638 299.218 259.562 304.188 256.275 309.517C255.342 311.03 253.658 312.833 250.36 314.21C250.441 315.206 250.52 316.206 250.606 317.192L256.12 316.939C258.778 311.664 261.915 303.674 262.204 293.809C262.505 283.52 259.385 282.154 259.583 272.302C259.84 259.532 265.194 256.126 268.047 240.766C269.138 234.892 269.873 227.22 268.999 217.912Z" fill="url(#paint22_linear_2637_9273)"/>
<path d="M261.224 224.432C263.768 238.307 266.016 253.157 267.769 268.907C269.887 287.923 271.017 305.85 271.461 322.495L277.513 322.667C285.461 306.941 285.948 296.279 284.801 289.337C284.36 286.663 283.161 281.418 282.887 273.579C282.696 268.114 283.045 263.957 283.48 258.957C284.434 247.997 285.593 245.605 285.76 237.222C285.916 229.353 285.949 225.372 283.702 223.052C277.785 216.927 262.392 223.89 261.224 224.432Z" fill="url(#paint23_linear_2637_9273)"/>
<path d="M217.595 170.105L213.571 169.824C210.405 182.611 212.676 195.019 219.818 199.583C230.978 206.711 251.72 193.28 256.214 178.657C258.187 172.238 257.738 162.975 253.795 161.175C252.7 160.675 251.002 160.599 247.323 162.664C236.334 168.834 236.045 180.494 230.459 181.481C227.975 181.92 223.964 180.336 217.595 170.105Z" fill="url(#paint24_linear_2637_9273)"/>
<path d="M248.32 230.542C246.387 227.335 248.815 224.242 249.367 218.167C249.994 211.28 247.341 210.133 244.718 198.721C242.972 191.131 241.297 183.844 243.297 175.315C244.255 171.226 245.88 164.294 251.618 160.945C254.579 159.217 258.622 159.39 266.587 159.807C276.437 160.322 281.361 160.579 285.034 162.513C285.572 162.796 296.745 168.874 297.514 178.78C298.298 188.863 287.317 190.219 285.852 203.663C285.195 209.698 286.367 218.984 287.127 225.004C287.856 230.785 288.358 232.261 287.218 234.017C284.467 238.235 276.044 237.033 259.21 234.628C252.605 233.687 249.762 232.935 248.32 230.542Z" fill="url(#paint25_linear_2637_9273)"/>
<path style="mix-blend-mode:multiply" opacity="0.3" d="M273.94 201.502C274.652 204.123 277.212 206.08 278.995 212.455C279.38 213.83 282.12 223.629 278.565 226.048C276.511 227.442 274.668 224.802 269.684 224.457C261.044 223.86 256.932 231.119 251.29 229.137C250.311 228.791 249.019 228.06 247.729 226.372C247.472 227.89 247.516 229.209 248.32 230.545C249.762 232.937 252.605 233.689 259.21 234.633C276.048 237.037 284.467 238.24 287.218 234.021C288.359 232.27 287.856 230.79 287.127 225.008C286.367 218.987 285.195 209.703 285.852 203.668C287.317 190.222 298.293 188.866 297.514 178.785C297.305 176.09 296.314 173.689 294.988 171.601C281.058 177.233 271.702 193.266 273.94 201.502Z" fill="url(#paint26_linear_2637_9273)"/>
<path d="M291.53 221.336L288.747 223.118C288.247 222.542 287.088 221.374 285.279 220.976C283.241 220.528 280.902 221.171 280.848 221.821C280.804 222.342 282.23 222.868 282.449 222.948C284.226 223.605 285.545 223.064 286.264 223.774C286.519 224.028 286.84 224.498 287.565 224.933C287.725 225.03 287.891 225.116 288.063 225.19C289.249 225.651 291.288 223.585 291.46 223.405L291.53 221.336Z" fill="url(#paint27_linear_2637_9273)"/>
<path d="M283.3 184.783C281.284 179.954 279.887 172.56 283.07 161.582C304.052 169.85 314.75 189.45 310.575 204.987C307.13 217.796 294.599 224.035 291.797 225.347C291.148 223.867 290.497 222.387 289.846 220.906C293.085 217.298 296.736 211.964 296.22 205.877C295.512 197.439 287.383 194.559 283.3 184.783Z" fill="url(#paint28_linear_2637_9273)"/>
<path d="M267.108 149.873C267.108 149.873 267.273 153.543 268.413 156.292C269.442 158.776 274.858 160.338 275.955 160.892C277.053 161.446 273.899 163.068 270.731 163.386C267.563 163.704 258.52 162.985 256.887 161.785C255.253 160.584 258.196 160.674 260.458 159.844C262.719 159.013 264.029 154.592 263.627 152.586C263.225 150.58 267.108 149.873 267.108 149.873Z" fill="url(#paint29_linear_2637_9273)"/>
<path d="M262.092 148.543C260.449 146.93 260.219 146.739 260.04 146.18C259.321 143.939 261.06 140.872 263.338 140.116C263.454 140.077 264.986 139.587 265.57 140.251C266.065 140.814 265.339 141.592 265.685 142.677C266.01 143.693 266.89 143.769 268.524 145.096C269.868 146.194 270.704 146.876 270.897 147.835C271.294 149.814 268.899 152.682 266.779 152.603C266.014 152.582 265.807 152.191 262.092 148.543Z" fill="url(#paint30_linear_2637_9273)"/>
<path d="M266.569 152.914C266.569 152.914 264.823 154.893 262.16 154.239C259.778 153.654 260.385 148.184 262.129 147.31C262.705 147.018 263.768 147.043 264.563 147.425C265.033 147.655 265.164 147.886 265.938 148.241C266.653 148.568 266.879 148.523 267.071 148.753C267.312 149.041 267.417 149.662 266.662 151.159C267.205 150.775 267.789 150.698 268.147 150.948C268.268 151.045 268.359 151.173 268.412 151.318C268.639 151.997 267.935 152.685 266.569 152.914Z" fill="url(#paint31_linear_2637_9273)"/>
<path d="M201.457 165.551C201.457 180.609 189.683 192.455 174.633 191.993C158.966 191.512 145.799 177.985 145.799 161.799C145.799 145.612 158.971 133.862 174.633 135.492C189.683 137.064 201.457 150.493 201.457 165.551Z" fill="url(#paint32_linear_2637_9273)"/>
<path d="M205.525 164.251C205.525 179.31 193.75 191.156 178.7 190.694C163.033 190.212 149.866 176.686 149.866 160.499C149.866 144.313 163.039 132.562 178.7 134.192C193.75 135.761 205.525 149.195 205.525 164.251Z" fill="url(#paint33_linear_2637_9273)"/>
<path d="M204.343 164.173C204.343 178.573 193.077 189.874 178.7 189.408C163.765 188.924 151.226 176.015 151.226 160.592C151.226 145.17 163.765 133.95 178.7 135.479C193.077 136.949 204.343 149.777 204.343 164.173Z" fill="url(#paint34_linear_2637_9273)"/>
<path d="M203.497 164.116C203.497 178.037 192.595 188.956 178.7 188.489C164.284 188.005 152.195 175.537 152.195 160.657C152.195 145.777 164.284 134.94 178.7 136.4C192.595 137.807 203.497 150.197 203.497 164.116Z" fill="url(#paint35_linear_2637_9273)"/>
<path d="M178.558 141.135C178.924 141.178 179.261 141.353 179.507 141.627C179.753 141.9 179.892 142.254 179.896 142.622V145.186C181.391 145.353 182.874 145.61 184.338 145.956C185.431 146.214 186.517 146.521 187.596 146.878C187.913 146.983 188.186 147.192 188.371 147.471C188.556 147.75 188.642 148.082 188.616 148.416L188.302 151.63C188.287 151.825 188.226 152.014 188.122 152.181C188.018 152.347 187.875 152.485 187.706 152.584C187.536 152.682 187.345 152.738 187.149 152.746C186.954 152.754 186.759 152.714 186.582 152.63C185.87 152.313 185.139 152.041 184.393 151.815C183.05 151.414 181.668 151.155 180.27 151.045L179.892 151.014V158.354C183.75 159.433 186.583 160.888 188.417 162.711C190.251 164.533 191.146 166.793 191.146 169.508C191.146 172.449 190.14 174.806 188.128 176.578C186.101 178.364 183.262 179.369 179.588 179.585V182.414C179.591 182.59 179.558 182.763 179.492 182.925C179.425 183.087 179.326 183.234 179.201 183.356C179.075 183.479 178.926 183.574 178.763 183.637C178.599 183.699 178.425 183.728 178.25 183.721H178.225C177.863 183.7 177.521 183.542 177.272 183.278C177.022 183.014 176.882 182.665 176.882 182.302V179.511L176.285 179.485C174.627 179.414 172.975 179.238 171.339 178.957C170.186 178.757 169.044 178.495 167.92 178.171C167.593 178.079 167.308 177.877 167.112 177.6C166.917 177.323 166.823 176.986 166.847 176.648L167.218 172.517C167.298 171.624 168.195 171.103 169.044 171.438C170.026 171.826 171.03 172.156 172.051 172.426C173.625 172.842 175.234 173.112 176.858 173.232L176.882 165.067C173.18 164.145 170.407 162.794 168.588 160.997C166.769 159.2 165.84 156.879 165.84 154.07C165.84 151.161 166.833 148.918 168.819 147.341C170.793 145.774 173.592 144.992 177.217 144.996V142.376C177.212 142.203 177.244 142.031 177.311 141.871C177.378 141.711 177.478 141.568 177.605 141.45C177.732 141.333 177.883 141.244 178.048 141.189C178.212 141.135 178.386 141.117 178.558 141.135ZM177.215 150.933C176.072 151.017 175.18 151.331 174.54 151.876C173.9 152.422 173.581 153.156 173.581 154.08C173.57 154.486 173.644 154.89 173.796 155.267C173.949 155.643 174.177 155.984 174.468 156.269C175.059 156.854 175.975 157.321 177.215 157.67V150.933ZM179.588 165.719V173.207C180.832 173.207 181.787 172.91 182.452 172.316C183.117 171.722 183.449 170.882 183.448 169.796C183.448 168.806 183.141 167.985 182.527 167.331C181.912 166.678 180.933 166.14 179.588 165.719Z" fill="url(#paint36_linear_2637_9273)"/>
<path style="mix-blend-mode:multiply" opacity="0.3" d="M174.213 167.525C175.05 159.25 182.656 155.747 181.663 148.136C181.051 143.445 177.496 139.496 173.528 136.404C161.498 137.671 152.195 147.628 152.195 160.657C152.195 175.537 164.284 188.005 178.7 188.489C180.068 188.534 181.439 188.467 182.796 188.288C177.071 182.592 173.493 174.634 174.213 167.525Z" fill="url(#paint37_linear_2637_9273)"/>
<defs>
<linearGradient id="paint0_linear_2637_9273" x1="253.687" y1="13.4353" x2="178.781" y2="492.303" gradientUnits="userSpaceOnUse">
<stop stop-color="#E38DDD"/>
<stop offset="1" stop-color="#9571F6"/>
</linearGradient>
<linearGradient id="paint1_linear_2637_9273" x1="145.509" y1="338.741" x2="123.392" y2="348.031" gradientUnits="userSpaceOnUse">
<stop stop-color="#40447E"/>
<stop offset="1" stop-color="#3C3B6B"/>
</linearGradient>
<linearGradient id="paint2_linear_2637_9273" x1="109.523" y1="240.418" x2="86.5916" y2="250.05" gradientUnits="userSpaceOnUse">
<stop stop-color="#40447E"/>
<stop offset="1" stop-color="#3C3B6B"/>
</linearGradient>
<linearGradient id="paint3_linear_2637_9273" x1="12.5383" y1="245.971" x2="221.516" y2="245.971" gradientUnits="userSpaceOnUse">
<stop stop-color="#40447E"/>
<stop offset="1" stop-color="#3C3B6B"/>
</linearGradient>
<linearGradient id="paint4_linear_2637_9273" x1="12.5383" y1="328.977" x2="327.354" y2="328.977" gradientUnits="userSpaceOnUse">
<stop stop-color="#40447E"/>
<stop offset="1" stop-color="#3C3B6B"/>
</linearGradient>
<linearGradient id="paint5_linear_2637_9273" x1="43.4116" y1="326.374" x2="274.074" y2="326.374" gradientUnits="userSpaceOnUse">
<stop stop-color="#40447E"/>
<stop offset="1" stop-color="#3C3B6B"/>
</linearGradient>
<linearGradient id="paint6_linear_2637_9273" x1="203.56" y1="65.6915" x2="16.8859" y2="439.039" gradientUnits="userSpaceOnUse">
<stop stop-color="#AA80F9"/>
<stop offset="1" stop-color="#6165D7"/>
</linearGradient>
<linearGradient id="paint7_linear_2637_9273" x1="122.823" y1="54.0323" x2="155.258" y2="183.774" gradientUnits="userSpaceOnUse">
<stop stop-color="#AA80F9"/>
<stop offset="1" stop-color="#6165D7"/>
</linearGradient>
<linearGradient id="paint8_linear_2637_9273" x1="70.6595" y1="223.675" x2="70.6595" y2="183.414" gradientUnits="userSpaceOnUse">
<stop stop-color="#AA80F9"/>
<stop offset="1" stop-color="#6165D7"/>
</linearGradient>
<linearGradient id="paint9_linear_2637_9273" x1="71.248" y1="255.668" x2="71.248" y2="215.407" gradientUnits="userSpaceOnUse">
<stop stop-color="#AA80F9"/>
<stop offset="1" stop-color="#6165D7"/>
</linearGradient>
<linearGradient id="paint10_linear_2637_9273" x1="210.89" y1="115.186" x2="165.106" y2="129.879" gradientUnits="userSpaceOnUse">
<stop stop-color="#FCB148"/>
<stop offset="0.05" stop-color="#FDBA46"/>
<stop offset="0.14" stop-color="#FFC244"/>
<stop offset="0.32" stop-color="#FFC444"/>
<stop offset="0.48" stop-color="#FDB946"/>
<stop offset="0.78" stop-color="#F99C4D"/>
<stop offset="0.87" stop-color="#F8924F"/>
<stop offset="1" stop-color="#F8924F"/>
</linearGradient>
<linearGradient id="paint11_linear_2637_9273" x1="247.926" y1="69.613" x2="207.054" y2="159.786" gradientUnits="userSpaceOnUse">
<stop stop-color="#FFDB44"/>
<stop offset="1" stop-color="#FEEF06"/>
</linearGradient>
<linearGradient id="paint12_linear_2637_9273" x1="240.408" y1="164.826" x2="232.522" y2="121.742" gradientUnits="userSpaceOnUse">
<stop stop-color="#FCB148"/>
<stop offset="0.05" stop-color="#FDBA46"/>
<stop offset="0.14" stop-color="#FFC244"/>
<stop offset="0.32" stop-color="#FFC444"/>
<stop offset="0.48" stop-color="#FDB946"/>
<stop offset="0.78" stop-color="#F99C4D"/>
<stop offset="0.87" stop-color="#F8924F"/>
<stop offset="1" stop-color="#F8924F"/>
</linearGradient>
<linearGradient id="paint13_linear_2637_9273" x1="223.687" y1="95.0905" x2="256.188" y2="164.084" gradientUnits="userSpaceOnUse">
<stop stop-color="#FCB148"/>
<stop offset="0.05" stop-color="#FDBA46"/>
<stop offset="0.14" stop-color="#FFC244"/>
<stop offset="0.32" stop-color="#FFC444"/>
<stop offset="0.48" stop-color="#FDB946"/>
<stop offset="0.78" stop-color="#F99C4D"/>
<stop offset="0.87" stop-color="#F8924F"/>
<stop offset="1" stop-color="#F8924F"/>
</linearGradient>
<linearGradient id="paint14_linear_2637_9273" x1="222.393" y1="80.2436" x2="238.735" y2="141.494" gradientUnits="userSpaceOnUse">
<stop stop-color="#FFDB44"/>
<stop offset="1" stop-color="#FEEF06"/>
</linearGradient>
<linearGradient id="paint15_linear_2637_9273" x1="214.125" y1="99.5544" x2="246.561" y2="168.41" gradientUnits="userSpaceOnUse">
<stop stop-color="#FCB148"/>
<stop offset="0.05" stop-color="#FDBA46"/>
<stop offset="0.14" stop-color="#FFC244"/>
<stop offset="0.32" stop-color="#FFC444"/>
<stop offset="0.48" stop-color="#FDB946"/>
<stop offset="0.78" stop-color="#F99C4D"/>
<stop offset="0.87" stop-color="#F8924F"/>
<stop offset="1" stop-color="#F8924F"/>
</linearGradient>
<linearGradient id="paint16_linear_2637_9273" x1="210.165" y1="163.119" x2="225.869" y2="179.103" gradientUnits="userSpaceOnUse">
<stop stop-color="#FFC444"/>
<stop offset="1" stop-color="#F36F56"/>
</linearGradient>
<linearGradient id="paint17_linear_2637_9273" x1="249.089" y1="314.944" x2="248.956" y2="279.484" gradientUnits="userSpaceOnUse">
<stop stop-color="#AA80F9"/>
<stop offset="1" stop-color="#6165D7"/>
</linearGradient>
<linearGradient id="paint18_linear_2637_9273" x1="252.617" y1="326.345" x2="254.304" y2="308.022" gradientUnits="userSpaceOnUse">
<stop stop-color="#FFC444"/>
<stop offset="1" stop-color="#F36F56"/>
</linearGradient>
<linearGradient id="paint19_linear_2637_9273" x1="269.995" y1="314.865" x2="269.862" y2="279.406" gradientUnits="userSpaceOnUse">
<stop stop-color="#AA80F9"/>
<stop offset="1" stop-color="#6165D7"/>
</linearGradient>
<linearGradient id="paint20_linear_2637_9273" x1="273.804" y1="328.296" x2="275.491" y2="309.973" gradientUnits="userSpaceOnUse">
<stop stop-color="#FFC444"/>
<stop offset="1" stop-color="#F36F56"/>
</linearGradient>
<linearGradient id="paint21_linear_2637_9273" x1="253.242" y1="234.014" x2="266.239" y2="300.462" gradientUnits="userSpaceOnUse">
<stop stop-color="#311944"/>
<stop offset="1" stop-color="#893976"/>
</linearGradient>
<linearGradient id="paint22_linear_2637_9273" x1="246.768" y1="266.514" x2="266.295" y2="268.078" gradientUnits="userSpaceOnUse">
<stop stop-color="#311944"/>
<stop offset="1" stop-color="#893976"/>
</linearGradient>
<linearGradient id="paint23_linear_2637_9273" x1="257.569" y1="270.186" x2="287.212" y2="272.561" gradientUnits="userSpaceOnUse">
<stop stop-color="#311944"/>
<stop offset="1" stop-color="#893976"/>
</linearGradient>
<linearGradient id="paint24_linear_2637_9273" x1="234.143" y1="172.339" x2="256.074" y2="313.188" gradientUnits="userSpaceOnUse">
<stop stop-color="#FFC444"/>
<stop offset="1" stop-color="#F36F56"/>
</linearGradient>
<linearGradient id="paint25_linear_2637_9273" x1="280.802" y1="326.948" x2="291.416" y2="469.097" gradientUnits="userSpaceOnUse">
<stop stop-color="#FFC444"/>
<stop offset="1" stop-color="#F36F56"/>
</linearGradient>
<linearGradient id="paint26_linear_2637_9273" x1="316.862" y1="278.477" x2="258.313" y2="178.198" gradientUnits="userSpaceOnUse">
<stop stop-color="#FFC444"/>
<stop offset="1" stop-color="#F36F56"/>
</linearGradient>
<linearGradient id="paint27_linear_2637_9273" x1="296.098" y1="209.136" x2="283.75" y2="225.816" gradientUnits="userSpaceOnUse">
<stop stop-color="#FFC444"/>
<stop offset="1" stop-color="#F36F56"/>
</linearGradient>
<linearGradient id="paint28_linear_2637_9273" x1="306.718" y1="325.012" x2="317.333" y2="467.163" gradientUnits="userSpaceOnUse">
<stop stop-color="#FFC444"/>
<stop offset="1" stop-color="#F36F56"/>
</linearGradient>
<linearGradient id="paint29_linear_2637_9273" x1="259.615" y1="166.58" x2="271.567" y2="151.782" gradientUnits="userSpaceOnUse">
<stop stop-color="#FFC444"/>
<stop offset="1" stop-color="#F36F56"/>
</linearGradient>
<linearGradient id="paint30_linear_2637_9273" x1="270.078" y1="162.146" x2="263.777" y2="141.422" gradientUnits="userSpaceOnUse">
<stop stop-color="#444B8C"/>
<stop offset="1" stop-color="#3E4177"/>
</linearGradient>
<linearGradient id="paint31_linear_2637_9273" x1="252.598" y1="153.867" x2="270.385" y2="146.002" gradientUnits="userSpaceOnUse">
<stop stop-color="#FFC444"/>
<stop offset="1" stop-color="#F36F56"/>
</linearGradient>
<linearGradient id="paint32_linear_2637_9273" x1="164.09" y1="166.729" x2="131.629" y2="177.147" gradientUnits="userSpaceOnUse">
<stop stop-color="#FCB148"/>
<stop offset="0.05" stop-color="#FDBA46"/>
<stop offset="0.14" stop-color="#FFC244"/>
<stop offset="0.32" stop-color="#FFC444"/>
<stop offset="0.48" stop-color="#FDB946"/>
<stop offset="0.78" stop-color="#F99C4D"/>
<stop offset="0.87" stop-color="#F8924F"/>
<stop offset="1" stop-color="#F8924F"/>
</linearGradient>
<linearGradient id="paint33_linear_2637_9273" x1="190.348" y1="134.418" x2="161.369" y2="198.35" gradientUnits="userSpaceOnUse">
<stop stop-color="#FFDB44"/>
<stop offset="1" stop-color="#FEEF06"/>
</linearGradient>
<linearGradient id="paint34_linear_2637_9273" x1="185.017" y1="201.922" x2="179.426" y2="171.377" gradientUnits="userSpaceOnUse">
<stop stop-color="#FCB148"/>
<stop offset="0.05" stop-color="#FDBA46"/>
<stop offset="0.14" stop-color="#FFC244"/>
<stop offset="0.32" stop-color="#FFC444"/>
<stop offset="0.48" stop-color="#FDB946"/>
<stop offset="0.78" stop-color="#F99C4D"/>
<stop offset="0.87" stop-color="#F8924F"/>
<stop offset="1" stop-color="#F8924F"/>
</linearGradient>
<linearGradient id="paint35_linear_2637_9273" x1="173.162" y1="152.481" x2="196.205" y2="201.397" gradientUnits="userSpaceOnUse">
<stop stop-color="#FCB148"/>
<stop offset="0.05" stop-color="#FDBA46"/>
<stop offset="0.14" stop-color="#FFC244"/>
<stop offset="0.32" stop-color="#FFC444"/>
<stop offset="0.48" stop-color="#FDB946"/>
<stop offset="0.78" stop-color="#F99C4D"/>
<stop offset="0.87" stop-color="#F8924F"/>
<stop offset="1" stop-color="#F8924F"/>
</linearGradient>
<linearGradient id="paint36_linear_2637_9273" x1="172.244" y1="141.955" x2="183.831" y2="185.381" gradientUnits="userSpaceOnUse">
<stop stop-color="#FFDB44"/>
<stop offset="1" stop-color="#FEEF06"/>
</linearGradient>
<linearGradient id="paint37_linear_2637_9273" x1="166.384" y1="155.647" x2="189.38" y2="204.463" gradientUnits="userSpaceOnUse">
<stop stop-color="#FCB148"/>
<stop offset="0.05" stop-color="#FDBA46"/>
<stop offset="0.14" stop-color="#FFC244"/>
<stop offset="0.32" stop-color="#FFC444"/>
<stop offset="0.48" stop-color="#FDB946"/>
<stop offset="0.78" stop-color="#F99C4D"/>
<stop offset="0.87" stop-color="#F8924F"/>
<stop offset="1" stop-color="#F8924F"/>
</linearGradient>
</defs>
</svg>
