<svg width="404" height="396" viewBox="0 0 404 396" fill="none" xmlns="http://www.w3.org/2000/svg">
<path d="M198.434 395.775C307.6 395.775 396.097 307.228 396.097 198C396.097 88.7714 307.6 0.22435 198.434 0.22435C89.2674 0.22435 0.770508 88.7714 0.770508 198C0.770508 307.228 89.2674 395.775 198.434 395.775Z" fill="#F4F7FA"/>
<path d="M403.229 337.464L5.95801 334.192V343.873C5.95801 346.501 7.69039 348.734 10.0369 349.133L122.373 368.195C123.704 368.422 125.058 368.482 126.404 368.375L398.911 346.639C401.344 346.446 403.229 344.205 403.229 341.506V337.464Z" fill="url(#paint0_linear_2765_77)"/>
<path d="M259.06 321.772L10.0661 339.481C5.61019 339.798 1.98731 336.431 1.98731 331.959V152.812C1.98656 150.667 2.83706 148.609 4.35193 147.091C5.86679 145.573 7.92207 144.719 10.0661 144.716H259.06C262.731 144.716 265.696 147.994 265.696 152.035V313.981C265.698 318.023 262.731 321.511 259.06 321.772Z" fill="url(#paint1_linear_2765_77)"/>
<path d="M263.03 321.772L14.0417 339.481C9.58578 339.798 5.96289 336.431 5.96289 331.959V152.812C5.96214 150.667 6.81265 148.609 8.32751 147.091C9.84238 145.573 11.8977 144.719 14.0417 144.716H263.03C266.701 144.716 269.666 147.994 269.666 152.035V313.981C269.668 318.023 266.701 321.511 263.03 321.772Z" fill="url(#paint2_linear_2765_77)"/>
<path d="M260.751 161.113V303.969C260.751 307.293 258.303 310.151 255.273 310.355L208.881 313.43L40.976 324.576L23.36 325.739C19.7371 325.977 16.7891 323.211 16.7891 319.562V162.719C16.7864 160.969 17.4758 159.288 18.7068 158.045C19.9378 156.801 21.6105 156.094 23.36 156.08L111.245 155.715L141.036 155.59L164.767 155.492L185.636 155.405L255.271 155.114C258.297 155.107 260.751 157.791 260.751 161.113Z" fill="url(#paint3_linear_2765_77)"/>
<g style="mix-blend-mode:multiply" opacity="0.3">
<path d="M237.593 254.857C241.72 254.151 244.764 250.228 244.396 246.075L243.141 231.918C242.772 227.765 239.131 224.951 235.004 225.64L227.042 226.96C225.367 220.65 222.999 214.545 219.983 208.756L226.76 203.438C230.148 200.775 230.973 195.972 228.588 192.702L220.459 181.573C218.068 178.303 213.37 177.802 209.966 180.467L202.827 186.041C198.22 181.684 193.145 177.85 187.695 174.61L191.471 166.149C193.232 162.205 191.587 157.781 187.801 156.26L185.647 155.402L164.778 155.489L160.877 164.17C154.546 162.84 148.092 162.181 141.622 162.205L141.036 155.592L111.245 155.718C111.147 156.335 111.126 156.963 111.183 157.586L112.007 166.891C105.577 168.939 99.3632 171.614 93.4558 174.877L88.0906 167.614C85.6424 164.3 80.8265 163.791 77.3363 166.484L65.4031 175.666C61.8974 178.359 61.0432 183.24 63.5027 186.558L68.7676 193.667C63.9125 198.619 59.5417 204.024 55.7148 209.808L47.5739 206.635C43.6799 205.117 39.049 207.134 37.2305 211.147L31.0295 224.833C29.2053 228.855 30.8883 233.338 34.802 234.847L42.5787 237.86C40.5993 244.49 39.3123 251.307 38.7383 258.202L30.476 259.571C26.1797 260.278 22.993 264.301 23.3771 268.542L24.6577 283.003C25.036 287.242 28.8227 290.092 33.1191 289.369L40.9211 288.055C42.4714 294.659 44.7703 301.064 47.773 307.146L41.6341 311.949C38.1044 314.701 37.2502 319.61 39.7238 322.915L40.9748 324.589L208.881 313.43C211.047 310.574 213.069 307.611 214.937 304.553L221.177 306.968C224.95 308.423 229.421 306.396 231.172 302.432L237.126 288.94C238.871 284.984 237.238 280.589 233.475 279.124L226.914 276.563C228.679 269.879 229.74 263.028 230.081 256.123L237.593 254.857ZM140.264 315.909C108.454 321.419 80.2392 300.118 77.4168 268.302C74.5945 236.485 98.2604 206.51 130.098 201.353C161.747 196.229 189.526 217.599 192.314 249.068C195.103 280.537 171.876 310.449 140.264 315.909Z" fill="url(#paint4_linear_2765_77)"/>
</g>
<path d="M147.324 149.617C147.324 151.281 146.042 152.634 144.459 152.639C142.877 152.643 141.589 151.295 141.589 149.627C141.589 147.958 142.875 146.605 144.459 146.604C146.043 146.602 147.324 147.951 147.324 149.617Z" fill="white"/>
<g style="mix-blend-mode:soft-light" opacity="0.48">
<path d="M203.04 272.637C183.845 262.243 168.751 275.415 154.189 262.419C145.357 254.541 149.693 248.666 138.827 236.892C126.788 223.852 118.954 228.231 106.858 216.506C91.5646 201.673 99.2142 190.121 86.0399 179.467C70.0588 166.541 52.824 178.505 37.6124 166.108C31.0514 160.763 27.4468 152.989 25.5719 144.723H10.685C9.42844 144.727 8.22465 145.229 7.33825 146.12C6.45185 147.011 5.95539 148.218 5.95802 149.476V335.171C5.95802 337.796 8.07584 339.772 10.685 339.586L264.451 321.457C265.696 321.368 266.8 320.636 267.509 319.575C248.933 318.894 237.521 312.626 230.225 306.148C215.954 293.47 218.429 280.971 203.04 272.637Z" fill="white"/>
</g>
<path d="M272.956 320.968L5.95801 339.616L122.373 359.37C123.704 359.596 125.058 359.656 126.404 359.548L403.229 337.47L277.203 321.095C275.795 320.912 274.372 320.869 272.956 320.968Z" fill="url(#paint5_linear_2765_77)"/>
<path style="mix-blend-mode:multiply" opacity="0.3" d="M44.917 340.079L267.199 324.327L335.995 333.192L115.627 350.027L44.917 340.079Z" fill="url(#paint6_linear_2765_77)"/>
<path d="M325.883 31.2414L128.753 24.5226C122.157 24.298 116.787 29.4967 116.787 36.1363V180.089C116.778 181.653 117.082 183.203 117.683 184.647C118.284 186.092 119.169 187.4 120.285 188.496C121.401 189.591 122.726 190.451 124.18 191.025C125.635 191.598 127.19 191.873 128.753 191.834L325.883 187.297C331.597 187.166 336.211 182.079 336.211 175.935V42.7194C336.211 36.5742 331.597 31.4363 325.883 31.2414Z" fill="url(#paint7_linear_2765_77)"/>
<g style="mix-blend-mode:soft-light" opacity="0.74">
<path d="M120.619 177.067V39.2144C120.619 33.0706 125.582 28.2519 131.682 28.4525L323.33 34.7291C328.636 34.9028 332.921 39.665 332.921 45.3652V173.267C332.921 178.968 328.636 183.682 323.33 183.797L131.682 187.957C130.235 187.991 128.796 187.733 127.45 187.2C126.104 186.667 124.879 185.869 123.848 184.854C122.816 183.838 121.999 182.625 121.444 181.288C120.89 179.95 120.609 178.515 120.619 177.067Z" fill="white"/>
</g>
<path d="M325.883 31.2414L128.753 24.5226C122.156 24.298 116.787 29.4967 116.787 36.1363V44.7537L336.21 50.6869V42.718C336.21 36.5742 331.596 31.4363 325.883 31.2414Z" fill="url(#paint8_linear_2765_77)"/>
<path d="M138.065 35.6234C138.07 36.1304 137.972 36.6332 137.777 37.1015C137.583 37.5697 137.296 37.9938 136.933 38.3481C136.57 38.7024 136.14 38.9797 135.668 39.1633C135.195 39.3469 134.69 39.433 134.184 39.4164C133.141 39.377 132.154 38.9357 131.429 38.1848C130.704 37.4339 130.297 36.4315 130.294 35.3874C130.289 34.8796 130.387 34.376 130.582 33.907C130.777 33.4381 131.065 33.0136 131.429 32.6591C131.792 32.3046 132.224 32.0275 132.697 31.8445C133.171 31.6615 133.677 31.5764 134.184 31.5944C135.225 31.6366 136.209 32.0791 136.932 32.8296C137.656 33.5802 138.061 34.5809 138.065 35.6234Z" fill="white"/>
<path d="M151.613 36.0344C151.618 36.5379 151.522 37.0373 151.33 37.5027C151.138 37.9681 150.854 38.3898 150.495 38.7426C150.136 39.0953 149.709 39.3717 149.241 39.5552C148.772 39.7388 148.271 39.8256 147.768 39.8105C146.732 39.769 145.753 39.3284 145.034 38.581C144.316 37.8335 143.914 36.837 143.912 35.7999C143.907 35.2955 144.003 34.7952 144.196 34.3291C144.389 33.863 144.674 33.4408 145.034 33.0881C145.394 32.7353 145.822 32.4592 146.292 32.2766C146.762 32.0939 147.264 32.0084 147.768 32.0252C148.802 32.0693 149.779 32.5108 150.495 33.2577C151.211 34.0046 151.611 34.9993 151.613 36.0344Z" fill="white"/>
<path d="M165.036 36.4413C165.043 36.9417 164.949 37.4383 164.759 37.9013C164.569 38.3643 164.288 38.784 163.931 39.1354C163.575 39.4867 163.152 39.7623 162.686 39.9456C162.221 40.1289 161.723 40.216 161.224 40.2019C159.116 40.1397 157.412 38.3527 157.412 36.2097C157.404 35.7094 157.499 35.213 157.688 34.7501C157.878 34.2873 158.16 33.8677 158.516 33.5166C158.872 33.1655 159.296 32.8902 159.761 32.7072C160.226 32.5242 160.724 32.4374 161.224 32.4519C163.332 32.5183 165.036 34.3054 165.036 36.4413Z" fill="white"/>
<path d="M324.155 137.295L130.735 138.209V81.2896L324.155 84.1348V137.295Z" fill="url(#paint9_linear_2765_77)"/>
<path d="M324.155 150.72L130.735 152.582V146.471L324.155 145.012V150.72Z" fill="white"/>
<path d="M324.155 164.724L130.735 167.576V161.464L324.155 159.015V164.724Z" fill="white"/>
<path d="M234.76 68.957L130.735 66.9156V73.0283L234.76 74.8521V68.957Z" fill="white"/>
<path d="M313.118 70.4939V76.2252L324.156 76.4187V70.7101L313.118 70.4939Z" fill="white"/>
<g style="mix-blend-mode:soft-light" opacity="0.5">
<path d="M249.161 104.979C226.13 71.4503 186.292 82.0313 161.114 45.0176C156.989 38.9178 153.714 32.2835 151.381 25.298L128.754 24.5224C122.158 24.2978 116.788 29.4965 116.788 36.1361V180.088C116.779 181.653 117.083 183.203 117.684 184.647C118.285 186.092 119.17 187.4 120.286 188.496C121.402 189.591 122.727 190.451 124.181 191.025C125.636 191.598 127.191 191.873 128.754 191.833L278.68 188.394C273.929 181.571 269.865 174.295 266.547 166.672C253.107 135.775 263.059 125.217 249.161 104.979Z" fill="white"/>
</g>
<g style="mix-blend-mode:soft-light">
<path d="M157.739 95.5733L134.179 95.3218V88.5607L157.739 88.8645V95.5733Z" fill="white"/>
<path d="M283.604 96.9143L172.78 95.7333V89.0583L283.604 90.4851V96.9143Z" fill="white"/>
<path d="M195.75 107.293L172.78 107.135V100.46L195.75 100.669V107.293Z" fill="white"/>
<path d="M318.534 108.137L210.415 107.394V100.802L318.534 101.784V108.137Z" fill="white"/>
<path d="M195.75 118.609L172.78 118.538V111.863L195.75 111.985V118.609Z" fill="white"/>
<path d="M318.534 118.986L210.415 118.654V112.062L318.534 112.634V118.986Z" fill="white"/>
<path d="M157.739 129.951L134.179 129.967V123.207L157.739 123.242V129.951Z" fill="white"/>
<path d="M283.604 129.861L172.78 129.94V123.265L283.604 123.432V129.861Z" fill="white"/>
</g>
<path d="M387.954 65.4139L261.394 64.0775C255.409 64.0153 250.538 69.0897 250.538 75.4128V275.316C250.538 281.639 255.409 286.429 261.394 286.017L387.954 277.294C393.385 276.919 397.773 271.76 397.773 265.769V76.3678C397.773 70.3752 393.385 65.4718 387.954 65.4139Z" fill="url(#paint10_linear_2765_77)"/>
<g style="mix-blend-mode:soft-light" opacity="0.74">
<path d="M254.014 272.279V78.2482C254.014 72.3968 258.516 67.694 264.051 67.7463L385.526 68.868C390.571 68.9146 394.646 73.4592 394.646 79.0167V263.301C394.646 268.859 390.571 273.64 385.526 273.981L264.051 282.196C258.516 282.57 254.014 278.13 254.014 272.279Z" fill="white"/>
</g>
<path d="M387.954 65.4139L261.394 64.0775C255.409 64.0153 250.538 69.0897 250.538 75.4128V83.6248L397.773 84.146V76.3678C397.773 70.3752 393.385 65.4718 387.954 65.4139Z" fill="url(#paint11_linear_2765_77)"/>
<path d="M387.996 74.6048C387.996 76.6419 386.443 78.2848 384.535 78.2778C382.628 78.2707 381.066 76.6023 381.066 74.561C381.066 72.5197 382.619 70.8753 384.535 70.888C386.451 70.9008 387.996 72.5677 387.996 74.6048Z" fill="white"/>
<path d="M386.311 228.614L263.192 234.848V118.107L386.311 117.022V228.614Z" fill="url(#paint12_linear_2765_77)"/>
<path d="M386.311 241.702L263.192 248.541V242.718L386.311 236.136V241.702Z" fill="white"/>
<path d="M386.311 255.356L263.192 262.825V257.002L386.311 249.79V255.356Z" fill="white"/>
<path d="M357.753 104.045L263.192 104.414V110.237L357.753 109.672V104.045Z" fill="white"/>
<path d="M375.821 103.976V109.563L386.312 109.5V103.935L375.821 103.976Z" fill="white"/>
<g opacity="0.15">
<path d="M354.698 184.896C334.347 158.089 308.812 157.322 294.6 128.636C284.308 107.869 285.768 84.228 290.336 64.3841L261.392 64.0789C255.407 64.0168 250.536 69.0911 250.536 75.4143V275.316C250.536 281.639 255.407 286.429 261.392 286.017L375.181 278.174C378.686 227.549 366.511 200.456 354.698 184.896Z" fill="white"/>
</g>
<g style="mix-blend-mode:soft-light">
<path d="M284.37 129.786L271.292 129.961L271.313 124.141L284.393 124.005L284.37 129.786Z" fill="white"/>
<path d="M354.668 128.844L292.734 129.674L292.756 123.918L354.693 123.275L354.668 128.844Z" fill="white"/>
<path d="M305.485 139.266L292.696 139.504L292.717 133.75L305.508 133.551L305.485 139.266Z" fill="white"/>
<path d="M374.258 137.991L313.664 139.115L313.687 133.424L374.286 132.481L374.258 137.991Z" fill="white"/>
<path d="M305.446 149.029L292.658 149.332L292.681 143.579L305.47 143.314L305.446 149.029Z" fill="white"/>
<path d="M374.213 147.398L313.623 148.835L313.647 143.146L374.239 141.891L374.213 147.398Z" fill="white"/>
<path d="M284.26 159.4L271.185 159.777L271.206 153.961L284.281 153.622L284.26 159.4Z" fill="white"/>
<path d="M354.535 157.37L292.62 159.158L292.643 153.406L354.561 151.805L354.535 157.37Z" fill="white"/>
<path d="M305.368 168.546L292.582 168.981L292.605 163.231L305.391 162.834L305.368 168.546Z" fill="white"/>
<path d="M374.119 166.206L313.544 168.267L313.567 162.581L374.146 160.702L374.119 166.206Z" fill="white"/>
<path d="M305.329 178.3L292.544 178.802L292.567 173.052L305.351 172.59L305.329 178.3Z" fill="white"/>
<path d="M374.074 175.608L313.503 177.981L313.527 172.295L374.101 170.104L374.074 175.608Z" fill="white"/>
<path d="M305.289 188.053L292.506 188.62L292.528 182.872L305.312 182.343L305.289 188.053Z" fill="white"/>
<path d="M374.028 185.006L313.464 187.69L313.486 182.006L374.055 179.504L374.028 185.006Z" fill="white"/>
<path d="M326.121 196.77L313.62 197.388L313.644 191.706L326.145 191.126L326.121 196.77Z" fill="white"/>
<path d="M383.427 193.934L334.115 196.374L334.139 190.754L383.455 188.463L383.427 193.934Z" fill="white"/>
<path d="M284.075 208.704L271.007 209.419L271.028 203.61L284.096 202.935L284.075 208.704Z" fill="white"/>
<path d="M354.313 204.868L292.431 208.248L292.452 202.504L354.339 199.31L354.313 204.868Z" fill="white"/>
<path d="M305.172 217.296L292.393 218.059L292.414 212.316L305.194 211.59L305.172 217.296Z" fill="white"/>
<path d="M373.889 213.188L313.344 216.807L313.366 211.127L373.916 207.691L373.889 213.188Z" fill="white"/>
<path d="M305.132 227.038L292.354 227.867L292.377 222.126L305.155 221.335L305.132 227.038Z" fill="white"/>
<path d="M373.843 222.578L313.303 226.508L313.327 220.829L373.87 217.081L373.843 222.578Z" fill="white"/>
</g>
<path d="M339.263 382.058C334.604 381.686 328.629 380.39 322.899 376.642C316.7 372.587 308.627 364.254 310.733 359.003C311.52 357.042 313.786 355.364 315.777 355.524C318.719 355.76 319.061 359.848 324.169 364.295C325.113 365.117 329.994 369.366 332.421 367.934C333.627 367.228 333.984 365.25 333.788 363.75C333.212 359.37 327.858 358.692 322.717 353.946C317.503 349.133 313.156 340.738 315.641 335.062C317.068 331.8 320.845 329.225 323.329 329.948C324.389 330.258 325.062 331.125 328.284 338.09C330.929 343.805 331.516 345.472 333.226 346.013C334.98 346.571 337.709 345.872 338.745 344.142C341.446 339.637 329.774 332.981 328.714 320.378C328.239 314.727 329.767 306.352 334.881 304.555C338.337 303.342 343.262 305.195 345.046 308.37C346.652 311.23 344.702 313.382 345.926 319.812C346.299 321.763 347.055 325.775 348.676 325.986C350.571 326.233 352.69 321.116 353.18 319.87C356.868 310.489 352.639 305.664 356.117 301.111C358.828 297.56 364.729 296.133 369.403 297.927C373.497 299.497 376.764 303.578 376.983 307.809C377.206 312.112 373.595 316.397 366.352 324.966C362.921 329.029 360.192 331.775 360.347 335.814C360.422 337.783 361.202 340.552 362.606 340.805C365.712 341.363 367.248 328.83 374.621 326.894C378.395 325.905 383.084 327.851 385.144 331.254C387.67 335.424 385.978 341.335 382.806 344.443C378.667 348.498 374.423 345.416 366.635 349.773C363.182 351.705 357.752 355.815 358.548 359.214C358.894 360.694 360.444 362.143 362.146 362.337C365.958 362.769 367.218 356.515 373.35 353.766C377.768 351.788 383.876 352 385.327 354.492C387.376 358.013 380.103 366.001 376.232 369.532C371.553 373.797 360.526 381.89 339.263 382.058Z" fill="url(#paint13_linear_2765_77)"/>
<g opacity="0.5">
<path d="M341.36 380.052C340.744 369.598 347.668 348.288 352.705 338.216C357.636 328.361 362.35 312.769 362.398 312.612L362.704 312.705C362.658 312.861 357.934 328.479 352.992 338.36C347.97 348.4 341.067 369.627 341.68 380.034L341.36 380.052Z" fill="white"/>
</g>
<path d="M328.266 383.421C324.754 378.541 319.599 369.735 318.676 357.954C318.294 353.098 317.546 343.616 323.347 335.438C326.238 331.361 332.365 325.332 336.505 327.071C339.169 328.19 340.824 332.448 340.071 335.688C339.313 338.952 336.556 339.254 333.554 344.793C332.443 346.841 331.174 349.247 332.149 350.608C332.964 351.738 335.2 351.948 336.878 351.267C340.342 349.862 339.259 345.546 343.005 342.449C345.669 340.248 350.108 339.214 352.024 341.017C353.689 342.582 353.398 346.244 351.928 348.678C349.575 352.581 345.354 351.435 342.61 355.703C341.389 357.598 340.52 360.457 341.589 361.587C342.806 362.875 346.389 361.762 348.685 360.337C351.718 358.456 351.829 356.456 353.826 356.205C356.052 355.922 358.837 358.041 359.273 360.395C359.883 363.683 355.85 367.229 352.658 368.771C348.564 370.748 345.534 369.586 343.537 372.28C342.805 373.268 342.134 374.883 342.734 375.864C343.591 377.261 346.687 376.799 348.747 376.492C353.752 375.748 355.13 373.931 356.925 374.814C358.741 375.707 359.678 378.726 358.892 380.842C358.455 382.019 357.145 383.841 350.648 384.982C346.092 385.776 338.452 386.339 328.266 383.421Z" fill="url(#paint14_linear_2765_77)"/>
<path d="M69.1584 250.929C69.1584 250.929 5.35127 158.414 67.683 84.8919L51.716 82.0185L101.217 67.369L86.4074 107.136L80.0398 94.662C80.0398 94.662 33.2444 140.231 69.1584 250.929Z" fill="url(#paint15_linear_2765_77)"/>
<path d="M120.457 294.769C120.457 294.769 218.532 328.108 268.017 254.281L274.579 267.73L275.11 220.11L243.584 243.264L256.246 245.775C256.246 245.775 227.629 298.773 120.457 294.769Z" fill="url(#paint16_linear_2765_77)"/>
<path d="M42.3349 253.659L43.1213 262.527C43.3528 265.129 45.6754 266.876 48.3099 266.433L53.0962 265.625C54.0466 269.676 55.4569 273.605 57.2994 277.336L53.5339 280.277C51.3709 281.965 50.8513 284.977 52.3606 287.002L57.5196 293.897C59.0332 295.918 62.0066 296.184 64.1625 294.493L67.7233 291.699C70.6992 294.6 74.0065 297.14 77.5768 299.266L75.8049 303.222C74.698 305.694 75.7272 308.426 78.1034 309.323L86.1921 312.375C88.5598 313.269 91.3723 311.992 92.4736 309.524L94.1678 305.725C98.3688 306.599 102.656 306.992 106.945 306.895L107.294 310.824C107.523 313.402 109.804 315.118 112.388 314.659L121.181 313.094C123.757 312.636 125.657 310.181 125.43 307.611L125.082 303.694C129.284 302.275 133.325 300.42 137.14 298.159L139.417 301.233C140.894 303.228 143.794 303.493 145.896 301.813L153.045 296.119C155.139 294.451 155.644 291.485 154.174 289.493L151.819 286.304C154.832 283.061 157.513 279.525 159.823 275.748L163.652 277.23C165.965 278.124 168.708 276.88 169.78 274.448L173.431 266.173C174.501 263.747 173.5 261.053 171.193 260.153L167.169 258.584C168.25 254.484 168.901 250.283 169.11 246.048L173.72 245.269C176.252 244.846 178.118 242.433 177.892 239.884L177.114 231.198C176.889 228.655 174.655 226.926 172.123 227.345L167.241 228.155C166.213 224.286 164.761 220.544 162.911 216.995L167.069 213.733C169.151 212.098 169.653 209.151 168.19 207.15L163.199 200.321C161.733 198.315 158.853 198.01 156.764 199.641L152.387 203.06C149.56 200.389 146.447 198.038 143.105 196.05L145.421 190.86C146.501 188.442 145.493 185.729 143.169 184.801L135.232 181.63C132.901 180.697 130.13 181.905 129.046 184.329L126.668 189.651C122.785 188.834 118.826 188.43 114.858 188.446L114.353 182.754C114.125 180.183 111.85 178.427 109.271 178.831L100.462 180.211C97.8726 180.617 95.9581 183.037 96.1868 185.613L96.6923 191.321C92.7484 192.576 88.9373 194.216 85.3139 196.217L82.0242 191.761C80.5248 189.73 77.5712 189.418 75.4279 191.066L68.1172 196.696C65.9669 198.349 65.4459 201.341 66.9524 203.375L70.1814 207.737C67.2031 210.773 64.5224 214.088 62.176 217.636L57.1822 215.688C54.7947 214.757 51.9582 215.996 50.8386 218.457L47.035 226.851C45.9182 229.316 46.9545 232.067 49.3491 232.993L54.1198 234.84C52.9061 238.905 52.1173 243.085 51.7662 247.314L46.6962 248.161C44.0545 248.592 42.1047 251.054 42.3349 253.659ZM75.4745 253.518C73.7436 234.008 88.2605 215.616 107.79 212.456C127.2 209.312 144.236 222.422 145.947 241.718C147.658 261.014 133.411 279.36 114.019 282.715C94.5095 286.092 77.2041 273.029 75.4745 253.518Z" fill="white"/>
<defs>
<linearGradient id="paint0_linear_2765_77" x1="173.812" y1="352.561" x2="145.914" y2="364.271" gradientUnits="userSpaceOnUse">
<stop stop-color="#40447E"/>
<stop offset="1" stop-color="#3C3B6B"/>
</linearGradient>
<linearGradient id="paint1_linear_2765_77" x1="128.588" y1="235.593" x2="100.088" y2="247.556" gradientUnits="userSpaceOnUse">
<stop stop-color="#40447E"/>
<stop offset="1" stop-color="#3C3B6B"/>
</linearGradient>
<linearGradient id="paint2_linear_2765_77" x1="5.95724" y1="242.109" x2="269.668" y2="242.109" gradientUnits="userSpaceOnUse">
<stop stop-color="#40447E"/>
<stop offset="1" stop-color="#3C3B6B"/>
</linearGradient>
<linearGradient id="paint3_linear_2765_77" x1="172.648" y1="177.944" x2="-30.2626" y2="509.471" gradientUnits="userSpaceOnUse">
<stop stop-color="#FFC444"/>
<stop offset="1" stop-color="#F36F56"/>
</linearGradient>
<linearGradient id="paint4_linear_2765_77" x1="20.1857" y1="251.176" x2="241.05" y2="224.42" gradientUnits="userSpaceOnUse">
<stop stop-color="#FFC444"/>
<stop offset="1" stop-color="#F36F56"/>
</linearGradient>
<linearGradient id="paint5_linear_2765_77" x1="5.95801" y1="340.255" x2="403.229" y2="340.255" gradientUnits="userSpaceOnUse">
<stop stop-color="#40447E"/>
<stop offset="1" stop-color="#3C3B6B"/>
</linearGradient>
<linearGradient id="paint6_linear_2765_77" x1="44.917" y1="337.177" x2="335.995" y2="337.177" gradientUnits="userSpaceOnUse">
<stop stop-color="#40447E"/>
<stop offset="1" stop-color="#3C3B6B"/>
</linearGradient>
<linearGradient id="paint7_linear_2765_77" x1="288.894" y1="-18.8043" x2="108.47" y2="341.839" gradientUnits="userSpaceOnUse">
<stop stop-color="#FF9085"/>
<stop offset="1" stop-color="#FB6FBB"/>
</linearGradient>
<linearGradient id="paint8_linear_2765_77" x1="207.616" y1="-32.5822" x2="244.897" y2="116.457" gradientUnits="userSpaceOnUse">
<stop stop-color="#AB316D"/>
<stop offset="1" stop-color="#792D3D"/>
</linearGradient>
<linearGradient id="paint9_linear_2765_77" x1="130.735" y1="109.75" x2="324.156" y2="109.75" gradientUnits="userSpaceOnUse">
<stop stop-color="#FF9085"/>
<stop offset="1" stop-color="#FB6FBB"/>
</linearGradient>
<linearGradient id="paint10_linear_2765_77" x1="250.538" y1="175.061" x2="397.773" y2="175.061" gradientUnits="userSpaceOnUse">
<stop stop-color="#E38DDD"/>
<stop offset="1" stop-color="#9571F6"/>
</linearGradient>
<linearGradient id="paint11_linear_2765_77" x1="325.059" y1="71.2793" x2="310.412" y2="203.584" gradientUnits="userSpaceOnUse">
<stop stop-color="#40447E"/>
<stop offset="1" stop-color="#3C3B6B"/>
</linearGradient>
<linearGradient id="paint12_linear_2765_77" x1="263.192" y1="175.935" x2="386.311" y2="175.935" gradientUnits="userSpaceOnUse">
<stop stop-color="#E38DDD"/>
<stop offset="1" stop-color="#9571F6"/>
</linearGradient>
<linearGradient id="paint13_linear_2765_77" x1="383.564" y1="283.375" x2="343.516" y2="359.75" gradientUnits="userSpaceOnUse">
<stop stop-color="#AA80F9"/>
<stop offset="1" stop-color="#6165D7"/>
</linearGradient>
<linearGradient id="paint14_linear_2765_77" x1="355.602" y1="340.853" x2="309.646" y2="395.914" gradientUnits="userSpaceOnUse">
<stop stop-color="#E38DDD"/>
<stop offset="1" stop-color="#9571F6"/>
</linearGradient>
<linearGradient id="paint15_linear_2765_77" x1="102.936" y1="45.5668" x2="-3.25984" y2="342.747" gradientUnits="userSpaceOnUse">
<stop stop-color="#FB6FBB"/>
<stop offset="1" stop-color="#FF9085"/>
</linearGradient>
<linearGradient id="paint16_linear_2765_77" x1="120.457" y1="261.193" x2="275.11" y2="261.193" gradientUnits="userSpaceOnUse">
<stop stop-color="#E38DDD"/>
<stop offset="1" stop-color="#9571F6"/>
</linearGradient>
</defs>
</svg>
