<svg width="540" height="67" viewBox="0 0 540 67" fill="none" xmlns="http://www.w3.org/2000/svg">
<path opacity="0.4" fill-rule="evenodd" clip-rule="evenodd" d="M0 33.7408L22.9815 39.2564C45.963 44.7719 91.926 55.803 137.889 50.2875C183.852 44.7719 229.815 22.7097 275.778 19.9519C321.741 17.1941 367.704 33.7408 413.667 33.7408C459.63 33.7408 505.593 17.1941 528.574 8.9208L551.556 0.647461V99.9275H528.574C505.593 99.9275 459.63 99.9275 413.667 99.9275C367.704 99.9275 321.741 99.9275 275.778 99.9275C229.815 99.9275 183.852 99.9275 137.889 99.9275C91.926 99.9275 45.963 99.9275 22.9815 99.9275H0V33.7408Z" fill="#CAC2FF"/>
</svg>
